G04 EAGLE Gerber X2 export*
%TF.Part,Single*%
%TF.FileFunction,Other,outline*%
%TF.FilePolarity,Positive*%
%TF.GenerationSoftware,Autodesk,EAGLE,8.7.1*%
%TF.CreationDate,2018-03-29T01:53:18Z*%
G75*
%MOMM*%
%FSLAX34Y34*%
%LPD*%
%AMOC8*
5,1,8,0,0,1.08239X$1,22.5*%
G01*
%ADD10C,0.203200*%
%ADD11C,0.000000*%


D10*
X95000Y0D02*
X1050000Y0D01*
X1050000Y758700D01*
X95000Y758700D01*
X95000Y0D01*
D11*
X174500Y622300D02*
X174505Y622693D01*
X174519Y623085D01*
X174543Y623477D01*
X174577Y623868D01*
X174620Y624259D01*
X174673Y624648D01*
X174736Y625035D01*
X174807Y625421D01*
X174889Y625806D01*
X174979Y626188D01*
X175080Y626567D01*
X175189Y626945D01*
X175308Y627319D01*
X175435Y627690D01*
X175572Y628058D01*
X175718Y628423D01*
X175873Y628784D01*
X176036Y629141D01*
X176208Y629494D01*
X176389Y629842D01*
X176579Y630186D01*
X176776Y630526D01*
X176982Y630860D01*
X177196Y631189D01*
X177419Y631513D01*
X177649Y631831D01*
X177886Y632144D01*
X178132Y632450D01*
X178385Y632751D01*
X178645Y633045D01*
X178912Y633333D01*
X179186Y633614D01*
X179467Y633888D01*
X179755Y634155D01*
X180049Y634415D01*
X180350Y634668D01*
X180656Y634914D01*
X180969Y635151D01*
X181287Y635381D01*
X181611Y635604D01*
X181940Y635818D01*
X182274Y636024D01*
X182614Y636221D01*
X182958Y636411D01*
X183306Y636592D01*
X183659Y636764D01*
X184016Y636927D01*
X184377Y637082D01*
X184742Y637228D01*
X185110Y637365D01*
X185481Y637492D01*
X185855Y637611D01*
X186233Y637720D01*
X186612Y637821D01*
X186994Y637911D01*
X187379Y637993D01*
X187765Y638064D01*
X188152Y638127D01*
X188541Y638180D01*
X188932Y638223D01*
X189323Y638257D01*
X189715Y638281D01*
X190107Y638295D01*
X190500Y638300D01*
X190893Y638295D01*
X191285Y638281D01*
X191677Y638257D01*
X192068Y638223D01*
X192459Y638180D01*
X192848Y638127D01*
X193235Y638064D01*
X193621Y637993D01*
X194006Y637911D01*
X194388Y637821D01*
X194767Y637720D01*
X195145Y637611D01*
X195519Y637492D01*
X195890Y637365D01*
X196258Y637228D01*
X196623Y637082D01*
X196984Y636927D01*
X197341Y636764D01*
X197694Y636592D01*
X198042Y636411D01*
X198386Y636221D01*
X198726Y636024D01*
X199060Y635818D01*
X199389Y635604D01*
X199713Y635381D01*
X200031Y635151D01*
X200344Y634914D01*
X200650Y634668D01*
X200951Y634415D01*
X201245Y634155D01*
X201533Y633888D01*
X201814Y633614D01*
X202088Y633333D01*
X202355Y633045D01*
X202615Y632751D01*
X202868Y632450D01*
X203114Y632144D01*
X203351Y631831D01*
X203581Y631513D01*
X203804Y631189D01*
X204018Y630860D01*
X204224Y630526D01*
X204421Y630186D01*
X204611Y629842D01*
X204792Y629494D01*
X204964Y629141D01*
X205127Y628784D01*
X205282Y628423D01*
X205428Y628058D01*
X205565Y627690D01*
X205692Y627319D01*
X205811Y626945D01*
X205920Y626567D01*
X206021Y626188D01*
X206111Y625806D01*
X206193Y625421D01*
X206264Y625035D01*
X206327Y624648D01*
X206380Y624259D01*
X206423Y623868D01*
X206457Y623477D01*
X206481Y623085D01*
X206495Y622693D01*
X206500Y622300D01*
X206495Y621907D01*
X206481Y621515D01*
X206457Y621123D01*
X206423Y620732D01*
X206380Y620341D01*
X206327Y619952D01*
X206264Y619565D01*
X206193Y619179D01*
X206111Y618794D01*
X206021Y618412D01*
X205920Y618033D01*
X205811Y617655D01*
X205692Y617281D01*
X205565Y616910D01*
X205428Y616542D01*
X205282Y616177D01*
X205127Y615816D01*
X204964Y615459D01*
X204792Y615106D01*
X204611Y614758D01*
X204421Y614414D01*
X204224Y614074D01*
X204018Y613740D01*
X203804Y613411D01*
X203581Y613087D01*
X203351Y612769D01*
X203114Y612456D01*
X202868Y612150D01*
X202615Y611849D01*
X202355Y611555D01*
X202088Y611267D01*
X201814Y610986D01*
X201533Y610712D01*
X201245Y610445D01*
X200951Y610185D01*
X200650Y609932D01*
X200344Y609686D01*
X200031Y609449D01*
X199713Y609219D01*
X199389Y608996D01*
X199060Y608782D01*
X198726Y608576D01*
X198386Y608379D01*
X198042Y608189D01*
X197694Y608008D01*
X197341Y607836D01*
X196984Y607673D01*
X196623Y607518D01*
X196258Y607372D01*
X195890Y607235D01*
X195519Y607108D01*
X195145Y606989D01*
X194767Y606880D01*
X194388Y606779D01*
X194006Y606689D01*
X193621Y606607D01*
X193235Y606536D01*
X192848Y606473D01*
X192459Y606420D01*
X192068Y606377D01*
X191677Y606343D01*
X191285Y606319D01*
X190893Y606305D01*
X190500Y606300D01*
X190107Y606305D01*
X189715Y606319D01*
X189323Y606343D01*
X188932Y606377D01*
X188541Y606420D01*
X188152Y606473D01*
X187765Y606536D01*
X187379Y606607D01*
X186994Y606689D01*
X186612Y606779D01*
X186233Y606880D01*
X185855Y606989D01*
X185481Y607108D01*
X185110Y607235D01*
X184742Y607372D01*
X184377Y607518D01*
X184016Y607673D01*
X183659Y607836D01*
X183306Y608008D01*
X182958Y608189D01*
X182614Y608379D01*
X182274Y608576D01*
X181940Y608782D01*
X181611Y608996D01*
X181287Y609219D01*
X180969Y609449D01*
X180656Y609686D01*
X180350Y609932D01*
X180049Y610185D01*
X179755Y610445D01*
X179467Y610712D01*
X179186Y610986D01*
X178912Y611267D01*
X178645Y611555D01*
X178385Y611849D01*
X178132Y612150D01*
X177886Y612456D01*
X177649Y612769D01*
X177419Y613087D01*
X177196Y613411D01*
X176982Y613740D01*
X176776Y614074D01*
X176579Y614414D01*
X176389Y614758D01*
X176208Y615106D01*
X176036Y615459D01*
X175873Y615816D01*
X175718Y616177D01*
X175572Y616542D01*
X175435Y616910D01*
X175308Y617281D01*
X175189Y617655D01*
X175080Y618033D01*
X174979Y618412D01*
X174889Y618794D01*
X174807Y619179D01*
X174736Y619565D01*
X174673Y619952D01*
X174620Y620341D01*
X174577Y620732D01*
X174543Y621123D01*
X174519Y621515D01*
X174505Y621907D01*
X174500Y622300D01*
X161800Y139700D02*
X161805Y140093D01*
X161819Y140485D01*
X161843Y140877D01*
X161877Y141268D01*
X161920Y141659D01*
X161973Y142048D01*
X162036Y142435D01*
X162107Y142821D01*
X162189Y143206D01*
X162279Y143588D01*
X162380Y143967D01*
X162489Y144345D01*
X162608Y144719D01*
X162735Y145090D01*
X162872Y145458D01*
X163018Y145823D01*
X163173Y146184D01*
X163336Y146541D01*
X163508Y146894D01*
X163689Y147242D01*
X163879Y147586D01*
X164076Y147926D01*
X164282Y148260D01*
X164496Y148589D01*
X164719Y148913D01*
X164949Y149231D01*
X165186Y149544D01*
X165432Y149850D01*
X165685Y150151D01*
X165945Y150445D01*
X166212Y150733D01*
X166486Y151014D01*
X166767Y151288D01*
X167055Y151555D01*
X167349Y151815D01*
X167650Y152068D01*
X167956Y152314D01*
X168269Y152551D01*
X168587Y152781D01*
X168911Y153004D01*
X169240Y153218D01*
X169574Y153424D01*
X169914Y153621D01*
X170258Y153811D01*
X170606Y153992D01*
X170959Y154164D01*
X171316Y154327D01*
X171677Y154482D01*
X172042Y154628D01*
X172410Y154765D01*
X172781Y154892D01*
X173155Y155011D01*
X173533Y155120D01*
X173912Y155221D01*
X174294Y155311D01*
X174679Y155393D01*
X175065Y155464D01*
X175452Y155527D01*
X175841Y155580D01*
X176232Y155623D01*
X176623Y155657D01*
X177015Y155681D01*
X177407Y155695D01*
X177800Y155700D01*
X178193Y155695D01*
X178585Y155681D01*
X178977Y155657D01*
X179368Y155623D01*
X179759Y155580D01*
X180148Y155527D01*
X180535Y155464D01*
X180921Y155393D01*
X181306Y155311D01*
X181688Y155221D01*
X182067Y155120D01*
X182445Y155011D01*
X182819Y154892D01*
X183190Y154765D01*
X183558Y154628D01*
X183923Y154482D01*
X184284Y154327D01*
X184641Y154164D01*
X184994Y153992D01*
X185342Y153811D01*
X185686Y153621D01*
X186026Y153424D01*
X186360Y153218D01*
X186689Y153004D01*
X187013Y152781D01*
X187331Y152551D01*
X187644Y152314D01*
X187950Y152068D01*
X188251Y151815D01*
X188545Y151555D01*
X188833Y151288D01*
X189114Y151014D01*
X189388Y150733D01*
X189655Y150445D01*
X189915Y150151D01*
X190168Y149850D01*
X190414Y149544D01*
X190651Y149231D01*
X190881Y148913D01*
X191104Y148589D01*
X191318Y148260D01*
X191524Y147926D01*
X191721Y147586D01*
X191911Y147242D01*
X192092Y146894D01*
X192264Y146541D01*
X192427Y146184D01*
X192582Y145823D01*
X192728Y145458D01*
X192865Y145090D01*
X192992Y144719D01*
X193111Y144345D01*
X193220Y143967D01*
X193321Y143588D01*
X193411Y143206D01*
X193493Y142821D01*
X193564Y142435D01*
X193627Y142048D01*
X193680Y141659D01*
X193723Y141268D01*
X193757Y140877D01*
X193781Y140485D01*
X193795Y140093D01*
X193800Y139700D01*
X193795Y139307D01*
X193781Y138915D01*
X193757Y138523D01*
X193723Y138132D01*
X193680Y137741D01*
X193627Y137352D01*
X193564Y136965D01*
X193493Y136579D01*
X193411Y136194D01*
X193321Y135812D01*
X193220Y135433D01*
X193111Y135055D01*
X192992Y134681D01*
X192865Y134310D01*
X192728Y133942D01*
X192582Y133577D01*
X192427Y133216D01*
X192264Y132859D01*
X192092Y132506D01*
X191911Y132158D01*
X191721Y131814D01*
X191524Y131474D01*
X191318Y131140D01*
X191104Y130811D01*
X190881Y130487D01*
X190651Y130169D01*
X190414Y129856D01*
X190168Y129550D01*
X189915Y129249D01*
X189655Y128955D01*
X189388Y128667D01*
X189114Y128386D01*
X188833Y128112D01*
X188545Y127845D01*
X188251Y127585D01*
X187950Y127332D01*
X187644Y127086D01*
X187331Y126849D01*
X187013Y126619D01*
X186689Y126396D01*
X186360Y126182D01*
X186026Y125976D01*
X185686Y125779D01*
X185342Y125589D01*
X184994Y125408D01*
X184641Y125236D01*
X184284Y125073D01*
X183923Y124918D01*
X183558Y124772D01*
X183190Y124635D01*
X182819Y124508D01*
X182445Y124389D01*
X182067Y124280D01*
X181688Y124179D01*
X181306Y124089D01*
X180921Y124007D01*
X180535Y123936D01*
X180148Y123873D01*
X179759Y123820D01*
X179368Y123777D01*
X178977Y123743D01*
X178585Y123719D01*
X178193Y123705D01*
X177800Y123700D01*
X177407Y123705D01*
X177015Y123719D01*
X176623Y123743D01*
X176232Y123777D01*
X175841Y123820D01*
X175452Y123873D01*
X175065Y123936D01*
X174679Y124007D01*
X174294Y124089D01*
X173912Y124179D01*
X173533Y124280D01*
X173155Y124389D01*
X172781Y124508D01*
X172410Y124635D01*
X172042Y124772D01*
X171677Y124918D01*
X171316Y125073D01*
X170959Y125236D01*
X170606Y125408D01*
X170258Y125589D01*
X169914Y125779D01*
X169574Y125976D01*
X169240Y126182D01*
X168911Y126396D01*
X168587Y126619D01*
X168269Y126849D01*
X167956Y127086D01*
X167650Y127332D01*
X167349Y127585D01*
X167055Y127845D01*
X166767Y128112D01*
X166486Y128386D01*
X166212Y128667D01*
X165945Y128955D01*
X165685Y129249D01*
X165432Y129550D01*
X165186Y129856D01*
X164949Y130169D01*
X164719Y130487D01*
X164496Y130811D01*
X164282Y131140D01*
X164076Y131474D01*
X163879Y131814D01*
X163689Y132158D01*
X163508Y132506D01*
X163336Y132859D01*
X163173Y133216D01*
X163018Y133577D01*
X162872Y133942D01*
X162735Y134310D01*
X162608Y134681D01*
X162489Y135055D01*
X162380Y135433D01*
X162279Y135812D01*
X162189Y136194D01*
X162107Y136579D01*
X162036Y136965D01*
X161973Y137352D01*
X161920Y137741D01*
X161877Y138132D01*
X161843Y138523D01*
X161819Y138915D01*
X161805Y139307D01*
X161800Y139700D01*
X923800Y622300D02*
X923805Y622693D01*
X923819Y623085D01*
X923843Y623477D01*
X923877Y623868D01*
X923920Y624259D01*
X923973Y624648D01*
X924036Y625035D01*
X924107Y625421D01*
X924189Y625806D01*
X924279Y626188D01*
X924380Y626567D01*
X924489Y626945D01*
X924608Y627319D01*
X924735Y627690D01*
X924872Y628058D01*
X925018Y628423D01*
X925173Y628784D01*
X925336Y629141D01*
X925508Y629494D01*
X925689Y629842D01*
X925879Y630186D01*
X926076Y630526D01*
X926282Y630860D01*
X926496Y631189D01*
X926719Y631513D01*
X926949Y631831D01*
X927186Y632144D01*
X927432Y632450D01*
X927685Y632751D01*
X927945Y633045D01*
X928212Y633333D01*
X928486Y633614D01*
X928767Y633888D01*
X929055Y634155D01*
X929349Y634415D01*
X929650Y634668D01*
X929956Y634914D01*
X930269Y635151D01*
X930587Y635381D01*
X930911Y635604D01*
X931240Y635818D01*
X931574Y636024D01*
X931914Y636221D01*
X932258Y636411D01*
X932606Y636592D01*
X932959Y636764D01*
X933316Y636927D01*
X933677Y637082D01*
X934042Y637228D01*
X934410Y637365D01*
X934781Y637492D01*
X935155Y637611D01*
X935533Y637720D01*
X935912Y637821D01*
X936294Y637911D01*
X936679Y637993D01*
X937065Y638064D01*
X937452Y638127D01*
X937841Y638180D01*
X938232Y638223D01*
X938623Y638257D01*
X939015Y638281D01*
X939407Y638295D01*
X939800Y638300D01*
X940193Y638295D01*
X940585Y638281D01*
X940977Y638257D01*
X941368Y638223D01*
X941759Y638180D01*
X942148Y638127D01*
X942535Y638064D01*
X942921Y637993D01*
X943306Y637911D01*
X943688Y637821D01*
X944067Y637720D01*
X944445Y637611D01*
X944819Y637492D01*
X945190Y637365D01*
X945558Y637228D01*
X945923Y637082D01*
X946284Y636927D01*
X946641Y636764D01*
X946994Y636592D01*
X947342Y636411D01*
X947686Y636221D01*
X948026Y636024D01*
X948360Y635818D01*
X948689Y635604D01*
X949013Y635381D01*
X949331Y635151D01*
X949644Y634914D01*
X949950Y634668D01*
X950251Y634415D01*
X950545Y634155D01*
X950833Y633888D01*
X951114Y633614D01*
X951388Y633333D01*
X951655Y633045D01*
X951915Y632751D01*
X952168Y632450D01*
X952414Y632144D01*
X952651Y631831D01*
X952881Y631513D01*
X953104Y631189D01*
X953318Y630860D01*
X953524Y630526D01*
X953721Y630186D01*
X953911Y629842D01*
X954092Y629494D01*
X954264Y629141D01*
X954427Y628784D01*
X954582Y628423D01*
X954728Y628058D01*
X954865Y627690D01*
X954992Y627319D01*
X955111Y626945D01*
X955220Y626567D01*
X955321Y626188D01*
X955411Y625806D01*
X955493Y625421D01*
X955564Y625035D01*
X955627Y624648D01*
X955680Y624259D01*
X955723Y623868D01*
X955757Y623477D01*
X955781Y623085D01*
X955795Y622693D01*
X955800Y622300D01*
X955795Y621907D01*
X955781Y621515D01*
X955757Y621123D01*
X955723Y620732D01*
X955680Y620341D01*
X955627Y619952D01*
X955564Y619565D01*
X955493Y619179D01*
X955411Y618794D01*
X955321Y618412D01*
X955220Y618033D01*
X955111Y617655D01*
X954992Y617281D01*
X954865Y616910D01*
X954728Y616542D01*
X954582Y616177D01*
X954427Y615816D01*
X954264Y615459D01*
X954092Y615106D01*
X953911Y614758D01*
X953721Y614414D01*
X953524Y614074D01*
X953318Y613740D01*
X953104Y613411D01*
X952881Y613087D01*
X952651Y612769D01*
X952414Y612456D01*
X952168Y612150D01*
X951915Y611849D01*
X951655Y611555D01*
X951388Y611267D01*
X951114Y610986D01*
X950833Y610712D01*
X950545Y610445D01*
X950251Y610185D01*
X949950Y609932D01*
X949644Y609686D01*
X949331Y609449D01*
X949013Y609219D01*
X948689Y608996D01*
X948360Y608782D01*
X948026Y608576D01*
X947686Y608379D01*
X947342Y608189D01*
X946994Y608008D01*
X946641Y607836D01*
X946284Y607673D01*
X945923Y607518D01*
X945558Y607372D01*
X945190Y607235D01*
X944819Y607108D01*
X944445Y606989D01*
X944067Y606880D01*
X943688Y606779D01*
X943306Y606689D01*
X942921Y606607D01*
X942535Y606536D01*
X942148Y606473D01*
X941759Y606420D01*
X941368Y606377D01*
X940977Y606343D01*
X940585Y606319D01*
X940193Y606305D01*
X939800Y606300D01*
X939407Y606305D01*
X939015Y606319D01*
X938623Y606343D01*
X938232Y606377D01*
X937841Y606420D01*
X937452Y606473D01*
X937065Y606536D01*
X936679Y606607D01*
X936294Y606689D01*
X935912Y606779D01*
X935533Y606880D01*
X935155Y606989D01*
X934781Y607108D01*
X934410Y607235D01*
X934042Y607372D01*
X933677Y607518D01*
X933316Y607673D01*
X932959Y607836D01*
X932606Y608008D01*
X932258Y608189D01*
X931914Y608379D01*
X931574Y608576D01*
X931240Y608782D01*
X930911Y608996D01*
X930587Y609219D01*
X930269Y609449D01*
X929956Y609686D01*
X929650Y609932D01*
X929349Y610185D01*
X929055Y610445D01*
X928767Y610712D01*
X928486Y610986D01*
X928212Y611267D01*
X927945Y611555D01*
X927685Y611849D01*
X927432Y612150D01*
X927186Y612456D01*
X926949Y612769D01*
X926719Y613087D01*
X926496Y613411D01*
X926282Y613740D01*
X926076Y614074D01*
X925879Y614414D01*
X925689Y614758D01*
X925508Y615106D01*
X925336Y615459D01*
X925173Y615816D01*
X925018Y616177D01*
X924872Y616542D01*
X924735Y616910D01*
X924608Y617281D01*
X924489Y617655D01*
X924380Y618033D01*
X924279Y618412D01*
X924189Y618794D01*
X924107Y619179D01*
X924036Y619565D01*
X923973Y619952D01*
X923920Y620341D01*
X923877Y620732D01*
X923843Y621123D01*
X923819Y621515D01*
X923805Y621907D01*
X923800Y622300D01*
X987300Y139700D02*
X987305Y140093D01*
X987319Y140485D01*
X987343Y140877D01*
X987377Y141268D01*
X987420Y141659D01*
X987473Y142048D01*
X987536Y142435D01*
X987607Y142821D01*
X987689Y143206D01*
X987779Y143588D01*
X987880Y143967D01*
X987989Y144345D01*
X988108Y144719D01*
X988235Y145090D01*
X988372Y145458D01*
X988518Y145823D01*
X988673Y146184D01*
X988836Y146541D01*
X989008Y146894D01*
X989189Y147242D01*
X989379Y147586D01*
X989576Y147926D01*
X989782Y148260D01*
X989996Y148589D01*
X990219Y148913D01*
X990449Y149231D01*
X990686Y149544D01*
X990932Y149850D01*
X991185Y150151D01*
X991445Y150445D01*
X991712Y150733D01*
X991986Y151014D01*
X992267Y151288D01*
X992555Y151555D01*
X992849Y151815D01*
X993150Y152068D01*
X993456Y152314D01*
X993769Y152551D01*
X994087Y152781D01*
X994411Y153004D01*
X994740Y153218D01*
X995074Y153424D01*
X995414Y153621D01*
X995758Y153811D01*
X996106Y153992D01*
X996459Y154164D01*
X996816Y154327D01*
X997177Y154482D01*
X997542Y154628D01*
X997910Y154765D01*
X998281Y154892D01*
X998655Y155011D01*
X999033Y155120D01*
X999412Y155221D01*
X999794Y155311D01*
X1000179Y155393D01*
X1000565Y155464D01*
X1000952Y155527D01*
X1001341Y155580D01*
X1001732Y155623D01*
X1002123Y155657D01*
X1002515Y155681D01*
X1002907Y155695D01*
X1003300Y155700D01*
X1003693Y155695D01*
X1004085Y155681D01*
X1004477Y155657D01*
X1004868Y155623D01*
X1005259Y155580D01*
X1005648Y155527D01*
X1006035Y155464D01*
X1006421Y155393D01*
X1006806Y155311D01*
X1007188Y155221D01*
X1007567Y155120D01*
X1007945Y155011D01*
X1008319Y154892D01*
X1008690Y154765D01*
X1009058Y154628D01*
X1009423Y154482D01*
X1009784Y154327D01*
X1010141Y154164D01*
X1010494Y153992D01*
X1010842Y153811D01*
X1011186Y153621D01*
X1011526Y153424D01*
X1011860Y153218D01*
X1012189Y153004D01*
X1012513Y152781D01*
X1012831Y152551D01*
X1013144Y152314D01*
X1013450Y152068D01*
X1013751Y151815D01*
X1014045Y151555D01*
X1014333Y151288D01*
X1014614Y151014D01*
X1014888Y150733D01*
X1015155Y150445D01*
X1015415Y150151D01*
X1015668Y149850D01*
X1015914Y149544D01*
X1016151Y149231D01*
X1016381Y148913D01*
X1016604Y148589D01*
X1016818Y148260D01*
X1017024Y147926D01*
X1017221Y147586D01*
X1017411Y147242D01*
X1017592Y146894D01*
X1017764Y146541D01*
X1017927Y146184D01*
X1018082Y145823D01*
X1018228Y145458D01*
X1018365Y145090D01*
X1018492Y144719D01*
X1018611Y144345D01*
X1018720Y143967D01*
X1018821Y143588D01*
X1018911Y143206D01*
X1018993Y142821D01*
X1019064Y142435D01*
X1019127Y142048D01*
X1019180Y141659D01*
X1019223Y141268D01*
X1019257Y140877D01*
X1019281Y140485D01*
X1019295Y140093D01*
X1019300Y139700D01*
X1019295Y139307D01*
X1019281Y138915D01*
X1019257Y138523D01*
X1019223Y138132D01*
X1019180Y137741D01*
X1019127Y137352D01*
X1019064Y136965D01*
X1018993Y136579D01*
X1018911Y136194D01*
X1018821Y135812D01*
X1018720Y135433D01*
X1018611Y135055D01*
X1018492Y134681D01*
X1018365Y134310D01*
X1018228Y133942D01*
X1018082Y133577D01*
X1017927Y133216D01*
X1017764Y132859D01*
X1017592Y132506D01*
X1017411Y132158D01*
X1017221Y131814D01*
X1017024Y131474D01*
X1016818Y131140D01*
X1016604Y130811D01*
X1016381Y130487D01*
X1016151Y130169D01*
X1015914Y129856D01*
X1015668Y129550D01*
X1015415Y129249D01*
X1015155Y128955D01*
X1014888Y128667D01*
X1014614Y128386D01*
X1014333Y128112D01*
X1014045Y127845D01*
X1013751Y127585D01*
X1013450Y127332D01*
X1013144Y127086D01*
X1012831Y126849D01*
X1012513Y126619D01*
X1012189Y126396D01*
X1011860Y126182D01*
X1011526Y125976D01*
X1011186Y125779D01*
X1010842Y125589D01*
X1010494Y125408D01*
X1010141Y125236D01*
X1009784Y125073D01*
X1009423Y124918D01*
X1009058Y124772D01*
X1008690Y124635D01*
X1008319Y124508D01*
X1007945Y124389D01*
X1007567Y124280D01*
X1007188Y124179D01*
X1006806Y124089D01*
X1006421Y124007D01*
X1006035Y123936D01*
X1005648Y123873D01*
X1005259Y123820D01*
X1004868Y123777D01*
X1004477Y123743D01*
X1004085Y123719D01*
X1003693Y123705D01*
X1003300Y123700D01*
X1002907Y123705D01*
X1002515Y123719D01*
X1002123Y123743D01*
X1001732Y123777D01*
X1001341Y123820D01*
X1000952Y123873D01*
X1000565Y123936D01*
X1000179Y124007D01*
X999794Y124089D01*
X999412Y124179D01*
X999033Y124280D01*
X998655Y124389D01*
X998281Y124508D01*
X997910Y124635D01*
X997542Y124772D01*
X997177Y124918D01*
X996816Y125073D01*
X996459Y125236D01*
X996106Y125408D01*
X995758Y125589D01*
X995414Y125779D01*
X995074Y125976D01*
X994740Y126182D01*
X994411Y126396D01*
X994087Y126619D01*
X993769Y126849D01*
X993456Y127086D01*
X993150Y127332D01*
X992849Y127585D01*
X992555Y127845D01*
X992267Y128112D01*
X991986Y128386D01*
X991712Y128667D01*
X991445Y128955D01*
X991185Y129249D01*
X990932Y129550D01*
X990686Y129856D01*
X990449Y130169D01*
X990219Y130487D01*
X989996Y130811D01*
X989782Y131140D01*
X989576Y131474D01*
X989379Y131814D01*
X989189Y132158D01*
X989008Y132506D01*
X988836Y132859D01*
X988673Y133216D01*
X988518Y133577D01*
X988372Y133942D01*
X988235Y134310D01*
X988108Y134681D01*
X987989Y135055D01*
X987880Y135433D01*
X987779Y135812D01*
X987689Y136194D01*
X987607Y136579D01*
X987536Y136965D01*
X987473Y137352D01*
X987420Y137741D01*
X987377Y138132D01*
X987343Y138523D01*
X987319Y138915D01*
X987305Y139307D01*
X987300Y139700D01*
M02*
