M48
;GenerationSoftware,Autodesk,EAGLE,8.7.1*%
;CreationDate,2018-03-29T01:53:15Z*%
FMAT,2
ICI,OFF
METRIC,TZ,000.000
T5C0.381
T4C0.559
T3C1.016
T2C1.194
T1C3.200
%
G90
M71
T1
X19050Y62230
X17780Y13970
X93980Y62230
X100330Y13970
T2
X15295Y41990
X15295Y46990
X15295Y51990
X102870Y37980
X102870Y32980
X102870Y27980
X102870Y22980
X102870Y58300
X102870Y53300
X102870Y48300
X102870Y43300
X15240Y30440
X15240Y25440
X15295Y36990
T3
X78510Y71120
X78700Y7620
X78700Y5080
X76160Y7620
X73620Y7620
X73620Y5080
X71080Y7620
X71080Y5080
X68540Y7620
X68540Y5080
X47760Y68580
X47760Y71120
X50300Y68580
X50300Y71120
X52840Y68580
X52840Y71120
X55380Y68580
X55380Y71120
X57920Y68580
X57920Y71120
X58030Y7620
X58030Y5080
X55490Y7620
X55490Y5080
X27686Y62230
X52950Y7620
X52950Y5080
X50410Y7620
X47870Y7620
X47870Y5080
X27170Y68580
X27170Y71120
X29710Y68580
X29710Y71120
X32250Y68580
X32250Y71120
X34790Y68580
X34790Y71120
X37330Y68580
X37330Y71120
X37130Y7620
X37130Y5080
X34590Y7620
X34590Y5080
X32050Y7620
X32050Y5080
X29510Y7620
X29510Y5080
X26970Y7620
X26970Y5080
X50410Y5080
X80010Y13970
X82550Y13970
X85090Y13970
X87630Y13970
X77470Y13970
X87630Y62230
X90170Y62230
X57150Y13970
X59690Y13970
X62230Y13970
X64770Y13970
X67310Y13970
X69850Y13970
X72390Y13970
X54610Y13970
X52070Y62230
X54610Y62230
X57150Y62230
X59690Y62230
X62230Y62230
X64770Y62230
X67310Y62230
X49530Y62230
X30226Y62230
X32766Y62230
X35306Y62230
X37846Y62230
X40386Y62230
X42926Y62230
X45466Y62230
X76160Y5080
X97790Y19050
X100330Y19050
X44450Y13970
X46990Y13970
X49530Y13970
X89170Y68580
X89170Y71120
X91710Y68580
X91710Y71120
X94250Y68580
X94250Y71120
X96790Y68580
X96790Y71120
X99330Y68580
X99330Y71120
X99330Y7620
X99330Y5080
X96790Y7620
X96790Y5080
X94250Y7620
X94250Y5080
X91710Y7620
X91710Y5080
X89170Y7620
X89170Y5080
X68350Y68580
X68350Y71120
X70890Y68580
X70890Y71120
X73430Y68580
X73430Y71120
X75970Y68580
X75970Y71120
X78510Y68580
T4
X81915Y52070
X39370Y26035
X32385Y26035
X76200Y38100
X78740Y57150
X41275Y34290
X41275Y29210
X80010Y41275
X59690Y29845
X80010Y49530
X79642Y46088
X52070Y27305
X50165Y53340
X57150Y49530
X48895Y10160
X79413Y10122
X31115Y42545
X38100Y33020
X76200Y42545
X52070Y33020
X30480Y33020
X56515Y42545
X78740Y47625
T5
X40030Y44298
X24181Y34341
X24587Y42875
X23368Y27635
X57709Y28042
X58928Y16662
X38811Y53035
X61163Y43282
X71933Y53035
X23571Y44298
X24994Y28448
X45923Y30480
X48362Y27026
X70510Y25400
X41859Y43891
X61163Y51206
X37389Y44298
X37389Y55677
X60350Y41656
X84328Y55474
X46939Y28448
X69291Y41859
X32715Y34950
X30480Y37186
X30277Y38405
X83515Y60350
X71120Y22758
X43282Y41046
X69698Y53848
X25806Y33934
X25806Y24181
X45110Y56286
X25400Y44298
X55880Y32309
X38608Y44298
X41046Y57099
X44907Y30480
X78029Y62789
X55677Y43485
X68885Y51003
X67259Y41046
X65634Y16256
M30