G75*
%MOIN*%
%OFA0B0*%
%FSLAX25Y25*%
%IPPOS*%
%LPD*%
%AMOC8*
5,1,8,0,0,1.08239X$1,22.5*
%
%ADD10OC8,0.06400*%
%ADD11OC8,0.07450*%
%ADD12OC8,0.07800*%
%ADD13C,0.24022*%
%ADD14OC8,0.05650*%
D10*
X0063981Y0026500D03*
X0073981Y0026500D03*
X0083981Y0026500D03*
X0083981Y0036500D03*
X0073981Y0036500D03*
X0063981Y0036500D03*
X0063981Y0046500D03*
X0073981Y0046500D03*
X0083981Y0046500D03*
X0083981Y0056500D03*
X0073981Y0056500D03*
X0063981Y0056500D03*
X0063981Y0066500D03*
X0073981Y0066500D03*
X0083981Y0066500D03*
X0143981Y0066500D03*
X0153981Y0066500D03*
X0163981Y0066500D03*
X0163981Y0056500D03*
X0153981Y0056500D03*
X0143981Y0056500D03*
X0143981Y0046500D03*
X0153981Y0046500D03*
X0163981Y0046500D03*
X0163981Y0036500D03*
X0153981Y0036500D03*
X0143981Y0036500D03*
X0143981Y0026500D03*
X0153981Y0026500D03*
X0163981Y0026500D03*
D11*
X0123823Y0026500D03*
X0104138Y0026500D03*
D12*
X0028981Y0026500D03*
X0038981Y0026500D03*
X0038981Y0036500D03*
X0028981Y0036500D03*
X0028981Y0046500D03*
X0038981Y0046500D03*
X0038981Y0056500D03*
X0028981Y0056500D03*
X0028981Y0066500D03*
X0038981Y0066500D03*
X0188981Y0066500D03*
X0198981Y0066500D03*
X0198981Y0056500D03*
X0188981Y0056500D03*
X0188981Y0046500D03*
X0198981Y0046500D03*
X0198981Y0036500D03*
X0188981Y0036500D03*
X0188981Y0026500D03*
X0198981Y0026500D03*
D13*
X0113981Y0061500D03*
D14*
X0198981Y0076500D03*
M02*
