G04 EAGLE Gerber X2 export*
%TF.Part,Single*%
%TF.FileFunction,Other,Top Silkscreen*%
%TF.FilePolarity,Positive*%
%TF.GenerationSoftware,Autodesk,EAGLE,8.7.1*%
%TF.CreationDate,2018-03-26T18:39:30Z*%
G75*
%MOMM*%
%FSLAX34Y34*%
%LPD*%
%AMOC8*
5,1,8,0,0,1.08239X$1,22.5*%
G01*
%ADD10C,0.152400*%
%ADD11C,0.127000*%
%ADD12C,0.203200*%


D10*
X215900Y146050D02*
X215900Y133350D01*
X209550Y127000D01*
X196850Y127000D02*
X190500Y133350D01*
X209550Y127000D02*
X215900Y120650D01*
X215900Y107950D01*
X209550Y101600D01*
X196850Y101600D02*
X190500Y107950D01*
X190500Y120650D01*
X196850Y127000D01*
X196850Y152400D02*
X209550Y152400D01*
X215900Y146050D01*
X196850Y152400D02*
X190500Y146050D01*
X190500Y133350D01*
X209550Y101600D02*
X215900Y95250D01*
X215900Y82550D01*
X209550Y76200D01*
X196850Y76200D02*
X190500Y82550D01*
X190500Y95250D01*
X196850Y101600D01*
X215900Y69850D02*
X215900Y57150D01*
X209550Y50800D01*
X196850Y50800D02*
X190500Y57150D01*
X209550Y50800D02*
X215900Y44450D01*
X215900Y31750D01*
X209550Y25400D01*
X196850Y25400D01*
X190500Y31750D01*
X190500Y44450D01*
X196850Y50800D01*
X215900Y69850D02*
X209550Y76200D01*
X196850Y76200D02*
X190500Y69850D01*
X190500Y57150D01*
D11*
X177165Y139065D02*
X174625Y142240D01*
X186055Y142240D01*
X186055Y139065D02*
X186055Y145415D01*
X231775Y41275D02*
X231775Y37465D01*
X231775Y41275D02*
X231773Y41375D01*
X231767Y41474D01*
X231757Y41574D01*
X231744Y41672D01*
X231726Y41771D01*
X231705Y41868D01*
X231680Y41964D01*
X231651Y42060D01*
X231618Y42154D01*
X231582Y42247D01*
X231542Y42338D01*
X231498Y42428D01*
X231451Y42516D01*
X231401Y42602D01*
X231347Y42686D01*
X231290Y42768D01*
X231230Y42847D01*
X231166Y42925D01*
X231100Y42999D01*
X231031Y43071D01*
X230959Y43140D01*
X230885Y43206D01*
X230807Y43270D01*
X230728Y43330D01*
X230646Y43387D01*
X230562Y43441D01*
X230476Y43491D01*
X230388Y43538D01*
X230298Y43582D01*
X230207Y43622D01*
X230114Y43658D01*
X230020Y43691D01*
X229924Y43720D01*
X229828Y43745D01*
X229731Y43766D01*
X229632Y43784D01*
X229534Y43797D01*
X229434Y43807D01*
X229335Y43813D01*
X229235Y43815D01*
X227965Y43815D01*
X227865Y43813D01*
X227766Y43807D01*
X227666Y43797D01*
X227568Y43784D01*
X227469Y43766D01*
X227372Y43745D01*
X227276Y43720D01*
X227180Y43691D01*
X227086Y43658D01*
X226993Y43622D01*
X226902Y43582D01*
X226812Y43538D01*
X226724Y43491D01*
X226638Y43441D01*
X226554Y43387D01*
X226472Y43330D01*
X226393Y43270D01*
X226315Y43206D01*
X226241Y43140D01*
X226169Y43071D01*
X226100Y42999D01*
X226034Y42925D01*
X225970Y42847D01*
X225910Y42768D01*
X225853Y42686D01*
X225799Y42602D01*
X225749Y42516D01*
X225702Y42428D01*
X225658Y42338D01*
X225618Y42247D01*
X225582Y42154D01*
X225549Y42060D01*
X225520Y41964D01*
X225495Y41868D01*
X225474Y41771D01*
X225456Y41672D01*
X225443Y41574D01*
X225433Y41474D01*
X225427Y41375D01*
X225425Y41275D01*
X225425Y37465D01*
X220345Y37465D01*
X220345Y43815D01*
D10*
X190500Y133350D02*
X190500Y146050D01*
X190500Y133350D02*
X184150Y127000D01*
X171450Y127000D02*
X165100Y133350D01*
X184150Y127000D02*
X190500Y120650D01*
X190500Y107950D01*
X184150Y101600D01*
X171450Y101600D02*
X165100Y107950D01*
X165100Y120650D01*
X171450Y127000D01*
X171450Y152400D02*
X184150Y152400D01*
X190500Y146050D01*
X171450Y152400D02*
X165100Y146050D01*
X165100Y133350D01*
X184150Y101600D02*
X190500Y95250D01*
X190500Y82550D01*
X184150Y76200D01*
X171450Y76200D02*
X165100Y82550D01*
X165100Y95250D01*
X171450Y101600D01*
X190500Y69850D02*
X190500Y57150D01*
X184150Y50800D01*
X171450Y50800D02*
X165100Y57150D01*
X184150Y50800D02*
X190500Y44450D01*
X190500Y31750D01*
X184150Y25400D01*
X171450Y25400D01*
X165100Y31750D01*
X165100Y44450D01*
X171450Y50800D01*
X190500Y69850D02*
X184150Y76200D01*
X171450Y76200D02*
X165100Y69850D01*
X165100Y57150D01*
D11*
X151765Y139065D02*
X149225Y142240D01*
X160655Y142240D01*
X160655Y139065D02*
X160655Y145415D01*
X206375Y41275D02*
X206375Y37465D01*
X206375Y41275D02*
X206373Y41375D01*
X206367Y41474D01*
X206357Y41574D01*
X206344Y41672D01*
X206326Y41771D01*
X206305Y41868D01*
X206280Y41964D01*
X206251Y42060D01*
X206218Y42154D01*
X206182Y42247D01*
X206142Y42338D01*
X206098Y42428D01*
X206051Y42516D01*
X206001Y42602D01*
X205947Y42686D01*
X205890Y42768D01*
X205830Y42847D01*
X205766Y42925D01*
X205700Y42999D01*
X205631Y43071D01*
X205559Y43140D01*
X205485Y43206D01*
X205407Y43270D01*
X205328Y43330D01*
X205246Y43387D01*
X205162Y43441D01*
X205076Y43491D01*
X204988Y43538D01*
X204898Y43582D01*
X204807Y43622D01*
X204714Y43658D01*
X204620Y43691D01*
X204524Y43720D01*
X204428Y43745D01*
X204331Y43766D01*
X204232Y43784D01*
X204134Y43797D01*
X204034Y43807D01*
X203935Y43813D01*
X203835Y43815D01*
X202565Y43815D01*
X202465Y43813D01*
X202366Y43807D01*
X202266Y43797D01*
X202168Y43784D01*
X202069Y43766D01*
X201972Y43745D01*
X201876Y43720D01*
X201780Y43691D01*
X201686Y43658D01*
X201593Y43622D01*
X201502Y43582D01*
X201412Y43538D01*
X201324Y43491D01*
X201238Y43441D01*
X201154Y43387D01*
X201072Y43330D01*
X200993Y43270D01*
X200915Y43206D01*
X200841Y43140D01*
X200769Y43071D01*
X200700Y42999D01*
X200634Y42925D01*
X200570Y42847D01*
X200510Y42768D01*
X200453Y42686D01*
X200399Y42602D01*
X200349Y42516D01*
X200302Y42428D01*
X200258Y42338D01*
X200218Y42247D01*
X200182Y42154D01*
X200149Y42060D01*
X200120Y41964D01*
X200095Y41868D01*
X200074Y41771D01*
X200056Y41672D01*
X200043Y41574D01*
X200033Y41474D01*
X200027Y41375D01*
X200025Y41275D01*
X200025Y37465D01*
X194945Y37465D01*
X194945Y43815D01*
D10*
X139700Y44450D02*
X139700Y31750D01*
X139700Y44450D02*
X146050Y50800D01*
X158750Y50800D02*
X165100Y44450D01*
X146050Y50800D02*
X139700Y57150D01*
X139700Y69850D01*
X146050Y76200D01*
X158750Y76200D02*
X165100Y69850D01*
X165100Y57150D01*
X158750Y50800D01*
X158750Y25400D02*
X146050Y25400D01*
X139700Y31750D01*
X158750Y25400D02*
X165100Y31750D01*
X165100Y44450D01*
X146050Y76200D02*
X139700Y82550D01*
X139700Y95250D01*
X146050Y101600D01*
X158750Y101600D02*
X165100Y95250D01*
X165100Y82550D01*
X158750Y76200D01*
X139700Y107950D02*
X139700Y120650D01*
X146050Y127000D01*
X158750Y127000D02*
X165100Y120650D01*
X146050Y127000D02*
X139700Y133350D01*
X139700Y146050D01*
X146050Y152400D01*
X158750Y152400D01*
X165100Y146050D01*
X165100Y133350D01*
X158750Y127000D01*
X139700Y107950D02*
X146050Y101600D01*
X158750Y101600D02*
X165100Y107950D01*
X165100Y120650D01*
D11*
X169545Y35560D02*
X172085Y32385D01*
X169545Y35560D02*
X180975Y35560D01*
X180975Y32385D02*
X180975Y38735D01*
X135255Y133985D02*
X135255Y137795D01*
X135253Y137895D01*
X135247Y137994D01*
X135237Y138094D01*
X135224Y138192D01*
X135206Y138291D01*
X135185Y138388D01*
X135160Y138484D01*
X135131Y138580D01*
X135098Y138674D01*
X135062Y138767D01*
X135022Y138858D01*
X134978Y138948D01*
X134931Y139036D01*
X134881Y139122D01*
X134827Y139206D01*
X134770Y139288D01*
X134710Y139367D01*
X134646Y139445D01*
X134580Y139519D01*
X134511Y139591D01*
X134439Y139660D01*
X134365Y139726D01*
X134287Y139790D01*
X134208Y139850D01*
X134126Y139907D01*
X134042Y139961D01*
X133956Y140011D01*
X133868Y140058D01*
X133778Y140102D01*
X133687Y140142D01*
X133594Y140178D01*
X133500Y140211D01*
X133404Y140240D01*
X133308Y140265D01*
X133211Y140286D01*
X133112Y140304D01*
X133014Y140317D01*
X132914Y140327D01*
X132815Y140333D01*
X132715Y140335D01*
X131445Y140335D01*
X131345Y140333D01*
X131246Y140327D01*
X131146Y140317D01*
X131048Y140304D01*
X130949Y140286D01*
X130852Y140265D01*
X130756Y140240D01*
X130660Y140211D01*
X130566Y140178D01*
X130473Y140142D01*
X130382Y140102D01*
X130292Y140058D01*
X130204Y140011D01*
X130118Y139961D01*
X130034Y139907D01*
X129952Y139850D01*
X129873Y139790D01*
X129795Y139726D01*
X129721Y139660D01*
X129649Y139591D01*
X129580Y139519D01*
X129514Y139445D01*
X129450Y139367D01*
X129390Y139288D01*
X129333Y139206D01*
X129279Y139122D01*
X129229Y139036D01*
X129182Y138948D01*
X129138Y138858D01*
X129098Y138767D01*
X129062Y138674D01*
X129029Y138580D01*
X129000Y138484D01*
X128975Y138388D01*
X128954Y138291D01*
X128936Y138192D01*
X128923Y138094D01*
X128913Y137994D01*
X128907Y137895D01*
X128905Y137795D01*
X128905Y133985D01*
X123825Y133985D01*
X123825Y140335D01*
D10*
X342900Y44450D02*
X342900Y31750D01*
X342900Y44450D02*
X349250Y50800D01*
X361950Y50800D02*
X368300Y44450D01*
X349250Y50800D02*
X342900Y57150D01*
X342900Y69850D01*
X349250Y76200D01*
X361950Y76200D02*
X368300Y69850D01*
X368300Y57150D01*
X361950Y50800D01*
X361950Y25400D02*
X349250Y25400D01*
X342900Y31750D01*
X361950Y25400D02*
X368300Y31750D01*
X368300Y44450D01*
X349250Y76200D02*
X342900Y82550D01*
X342900Y95250D01*
X349250Y101600D01*
X361950Y101600D02*
X368300Y95250D01*
X368300Y82550D01*
X361950Y76200D01*
X342900Y107950D02*
X342900Y120650D01*
X349250Y127000D01*
X361950Y127000D02*
X368300Y120650D01*
X349250Y127000D02*
X342900Y133350D01*
X342900Y146050D01*
X349250Y152400D01*
X361950Y152400D01*
X368300Y146050D01*
X368300Y133350D01*
X361950Y127000D01*
X342900Y107950D02*
X349250Y101600D01*
X361950Y101600D02*
X368300Y107950D01*
X368300Y120650D01*
D11*
X372745Y35560D02*
X375285Y32385D01*
X372745Y35560D02*
X384175Y35560D01*
X384175Y32385D02*
X384175Y38735D01*
X338455Y133985D02*
X338455Y137795D01*
X338453Y137895D01*
X338447Y137994D01*
X338437Y138094D01*
X338424Y138192D01*
X338406Y138291D01*
X338385Y138388D01*
X338360Y138484D01*
X338331Y138580D01*
X338298Y138674D01*
X338262Y138767D01*
X338222Y138858D01*
X338178Y138948D01*
X338131Y139036D01*
X338081Y139122D01*
X338027Y139206D01*
X337970Y139288D01*
X337910Y139367D01*
X337846Y139445D01*
X337780Y139519D01*
X337711Y139591D01*
X337639Y139660D01*
X337565Y139726D01*
X337487Y139790D01*
X337408Y139850D01*
X337326Y139907D01*
X337242Y139961D01*
X337156Y140011D01*
X337068Y140058D01*
X336978Y140102D01*
X336887Y140142D01*
X336794Y140178D01*
X336700Y140211D01*
X336604Y140240D01*
X336508Y140265D01*
X336411Y140286D01*
X336312Y140304D01*
X336214Y140317D01*
X336114Y140327D01*
X336015Y140333D01*
X335915Y140335D01*
X334645Y140335D01*
X334545Y140333D01*
X334446Y140327D01*
X334346Y140317D01*
X334248Y140304D01*
X334149Y140286D01*
X334052Y140265D01*
X333956Y140240D01*
X333860Y140211D01*
X333766Y140178D01*
X333673Y140142D01*
X333582Y140102D01*
X333492Y140058D01*
X333404Y140011D01*
X333318Y139961D01*
X333234Y139907D01*
X333152Y139850D01*
X333073Y139790D01*
X332995Y139726D01*
X332921Y139660D01*
X332849Y139591D01*
X332780Y139519D01*
X332714Y139445D01*
X332650Y139367D01*
X332590Y139288D01*
X332533Y139206D01*
X332479Y139122D01*
X332429Y139036D01*
X332382Y138948D01*
X332338Y138858D01*
X332298Y138767D01*
X332262Y138674D01*
X332229Y138580D01*
X332200Y138484D01*
X332175Y138388D01*
X332154Y138291D01*
X332136Y138192D01*
X332123Y138094D01*
X332113Y137994D01*
X332107Y137895D01*
X332105Y137795D01*
X332105Y133985D01*
X327025Y133985D01*
X327025Y140335D01*
D10*
X368300Y44450D02*
X368300Y31750D01*
X368300Y44450D02*
X374650Y50800D01*
X387350Y50800D02*
X393700Y44450D01*
X374650Y50800D02*
X368300Y57150D01*
X368300Y69850D01*
X374650Y76200D01*
X387350Y76200D02*
X393700Y69850D01*
X393700Y57150D01*
X387350Y50800D01*
X387350Y25400D02*
X374650Y25400D01*
X368300Y31750D01*
X387350Y25400D02*
X393700Y31750D01*
X393700Y44450D01*
X374650Y76200D02*
X368300Y82550D01*
X368300Y95250D01*
X374650Y101600D01*
X387350Y101600D02*
X393700Y95250D01*
X393700Y82550D01*
X387350Y76200D01*
X368300Y107950D02*
X368300Y120650D01*
X374650Y127000D01*
X387350Y127000D02*
X393700Y120650D01*
X374650Y127000D02*
X368300Y133350D01*
X368300Y146050D01*
X374650Y152400D01*
X387350Y152400D01*
X393700Y146050D01*
X393700Y133350D01*
X387350Y127000D01*
X368300Y107950D02*
X374650Y101600D01*
X387350Y101600D02*
X393700Y107950D01*
X393700Y120650D01*
D11*
X398145Y35560D02*
X400685Y32385D01*
X398145Y35560D02*
X409575Y35560D01*
X409575Y32385D02*
X409575Y38735D01*
X363855Y133985D02*
X363855Y137795D01*
X363853Y137895D01*
X363847Y137994D01*
X363837Y138094D01*
X363824Y138192D01*
X363806Y138291D01*
X363785Y138388D01*
X363760Y138484D01*
X363731Y138580D01*
X363698Y138674D01*
X363662Y138767D01*
X363622Y138858D01*
X363578Y138948D01*
X363531Y139036D01*
X363481Y139122D01*
X363427Y139206D01*
X363370Y139288D01*
X363310Y139367D01*
X363246Y139445D01*
X363180Y139519D01*
X363111Y139591D01*
X363039Y139660D01*
X362965Y139726D01*
X362887Y139790D01*
X362808Y139850D01*
X362726Y139907D01*
X362642Y139961D01*
X362556Y140011D01*
X362468Y140058D01*
X362378Y140102D01*
X362287Y140142D01*
X362194Y140178D01*
X362100Y140211D01*
X362004Y140240D01*
X361908Y140265D01*
X361811Y140286D01*
X361712Y140304D01*
X361614Y140317D01*
X361514Y140327D01*
X361415Y140333D01*
X361315Y140335D01*
X360045Y140335D01*
X359945Y140333D01*
X359846Y140327D01*
X359746Y140317D01*
X359648Y140304D01*
X359549Y140286D01*
X359452Y140265D01*
X359356Y140240D01*
X359260Y140211D01*
X359166Y140178D01*
X359073Y140142D01*
X358982Y140102D01*
X358892Y140058D01*
X358804Y140011D01*
X358718Y139961D01*
X358634Y139907D01*
X358552Y139850D01*
X358473Y139790D01*
X358395Y139726D01*
X358321Y139660D01*
X358249Y139591D01*
X358180Y139519D01*
X358114Y139445D01*
X358050Y139367D01*
X357990Y139288D01*
X357933Y139206D01*
X357879Y139122D01*
X357829Y139036D01*
X357782Y138948D01*
X357738Y138858D01*
X357698Y138767D01*
X357662Y138674D01*
X357629Y138580D01*
X357600Y138484D01*
X357575Y138388D01*
X357554Y138291D01*
X357536Y138192D01*
X357523Y138094D01*
X357513Y137994D01*
X357507Y137895D01*
X357505Y137795D01*
X357505Y133985D01*
X352425Y133985D01*
X352425Y140335D01*
D10*
X393700Y44450D02*
X393700Y31750D01*
X393700Y44450D02*
X400050Y50800D01*
X412750Y50800D02*
X419100Y44450D01*
X400050Y50800D02*
X393700Y57150D01*
X393700Y69850D01*
X400050Y76200D01*
X412750Y76200D02*
X419100Y69850D01*
X419100Y57150D01*
X412750Y50800D01*
X412750Y25400D02*
X400050Y25400D01*
X393700Y31750D01*
X412750Y25400D02*
X419100Y31750D01*
X419100Y44450D01*
X400050Y76200D02*
X393700Y82550D01*
X393700Y95250D01*
X400050Y101600D01*
X412750Y101600D02*
X419100Y95250D01*
X419100Y82550D01*
X412750Y76200D01*
X393700Y107950D02*
X393700Y120650D01*
X400050Y127000D01*
X412750Y127000D02*
X419100Y120650D01*
X400050Y127000D02*
X393700Y133350D01*
X393700Y146050D01*
X400050Y152400D01*
X412750Y152400D01*
X419100Y146050D01*
X419100Y133350D01*
X412750Y127000D01*
X393700Y107950D02*
X400050Y101600D01*
X412750Y101600D02*
X419100Y107950D01*
X419100Y120650D01*
D11*
X423545Y35560D02*
X426085Y32385D01*
X423545Y35560D02*
X434975Y35560D01*
X434975Y32385D02*
X434975Y38735D01*
X389255Y133985D02*
X389255Y137795D01*
X389253Y137895D01*
X389247Y137994D01*
X389237Y138094D01*
X389224Y138192D01*
X389206Y138291D01*
X389185Y138388D01*
X389160Y138484D01*
X389131Y138580D01*
X389098Y138674D01*
X389062Y138767D01*
X389022Y138858D01*
X388978Y138948D01*
X388931Y139036D01*
X388881Y139122D01*
X388827Y139206D01*
X388770Y139288D01*
X388710Y139367D01*
X388646Y139445D01*
X388580Y139519D01*
X388511Y139591D01*
X388439Y139660D01*
X388365Y139726D01*
X388287Y139790D01*
X388208Y139850D01*
X388126Y139907D01*
X388042Y139961D01*
X387956Y140011D01*
X387868Y140058D01*
X387778Y140102D01*
X387687Y140142D01*
X387594Y140178D01*
X387500Y140211D01*
X387404Y140240D01*
X387308Y140265D01*
X387211Y140286D01*
X387112Y140304D01*
X387014Y140317D01*
X386914Y140327D01*
X386815Y140333D01*
X386715Y140335D01*
X385445Y140335D01*
X385345Y140333D01*
X385246Y140327D01*
X385146Y140317D01*
X385048Y140304D01*
X384949Y140286D01*
X384852Y140265D01*
X384756Y140240D01*
X384660Y140211D01*
X384566Y140178D01*
X384473Y140142D01*
X384382Y140102D01*
X384292Y140058D01*
X384204Y140011D01*
X384118Y139961D01*
X384034Y139907D01*
X383952Y139850D01*
X383873Y139790D01*
X383795Y139726D01*
X383721Y139660D01*
X383649Y139591D01*
X383580Y139519D01*
X383514Y139445D01*
X383450Y139367D01*
X383390Y139288D01*
X383333Y139206D01*
X383279Y139122D01*
X383229Y139036D01*
X383182Y138948D01*
X383138Y138858D01*
X383098Y138767D01*
X383062Y138674D01*
X383029Y138580D01*
X383000Y138484D01*
X382975Y138388D01*
X382954Y138291D01*
X382936Y138192D01*
X382923Y138094D01*
X382913Y137994D01*
X382907Y137895D01*
X382905Y137795D01*
X382905Y133985D01*
X377825Y133985D01*
X377825Y140335D01*
D10*
X329330Y-3810D02*
X229510Y-3810D01*
X329330Y86110D02*
X329330Y88140D01*
X229510Y88140D01*
X229510Y20070D02*
X229510Y-3810D01*
X229510Y20070D02*
X245510Y20070D01*
X263290Y20070D02*
X295550Y20070D01*
X313330Y20070D02*
X329330Y20070D01*
X229510Y20070D02*
X229510Y86110D01*
X329330Y20070D02*
X329330Y-3810D01*
X329330Y86110D02*
X229510Y86110D01*
X229510Y88140D01*
X329330Y86110D02*
X329330Y20070D01*
X249320Y72898D02*
X249322Y73040D01*
X249328Y73183D01*
X249338Y73325D01*
X249352Y73467D01*
X249370Y73608D01*
X249392Y73749D01*
X249418Y73889D01*
X249447Y74028D01*
X249481Y74167D01*
X249519Y74304D01*
X249560Y74441D01*
X249605Y74576D01*
X249654Y74710D01*
X249707Y74842D01*
X249763Y74973D01*
X249823Y75102D01*
X249887Y75230D01*
X249954Y75355D01*
X250025Y75479D01*
X250099Y75601D01*
X250176Y75720D01*
X250257Y75838D01*
X250341Y75953D01*
X250428Y76065D01*
X250519Y76175D01*
X250612Y76283D01*
X250709Y76388D01*
X250808Y76490D01*
X250910Y76589D01*
X251015Y76686D01*
X251123Y76779D01*
X251233Y76870D01*
X251345Y76957D01*
X251460Y77041D01*
X251578Y77122D01*
X251697Y77199D01*
X251819Y77273D01*
X251943Y77344D01*
X252068Y77411D01*
X252196Y77475D01*
X252325Y77535D01*
X252456Y77591D01*
X252588Y77644D01*
X252722Y77693D01*
X252857Y77738D01*
X252994Y77779D01*
X253131Y77817D01*
X253270Y77851D01*
X253409Y77880D01*
X253549Y77906D01*
X253690Y77928D01*
X253831Y77946D01*
X253973Y77960D01*
X254115Y77970D01*
X254258Y77976D01*
X254400Y77978D01*
X254542Y77976D01*
X254685Y77970D01*
X254827Y77960D01*
X254969Y77946D01*
X255110Y77928D01*
X255251Y77906D01*
X255391Y77880D01*
X255530Y77851D01*
X255669Y77817D01*
X255806Y77779D01*
X255943Y77738D01*
X256078Y77693D01*
X256212Y77644D01*
X256344Y77591D01*
X256475Y77535D01*
X256604Y77475D01*
X256732Y77411D01*
X256857Y77344D01*
X256981Y77273D01*
X257103Y77199D01*
X257222Y77122D01*
X257340Y77041D01*
X257455Y76957D01*
X257567Y76870D01*
X257677Y76779D01*
X257785Y76686D01*
X257890Y76589D01*
X257992Y76490D01*
X258091Y76388D01*
X258188Y76283D01*
X258281Y76175D01*
X258372Y76065D01*
X258459Y75953D01*
X258543Y75838D01*
X258624Y75720D01*
X258701Y75601D01*
X258775Y75479D01*
X258846Y75355D01*
X258913Y75230D01*
X258977Y75102D01*
X259037Y74973D01*
X259093Y74842D01*
X259146Y74710D01*
X259195Y74576D01*
X259240Y74441D01*
X259281Y74304D01*
X259319Y74167D01*
X259353Y74028D01*
X259382Y73889D01*
X259408Y73749D01*
X259430Y73608D01*
X259448Y73467D01*
X259462Y73325D01*
X259472Y73183D01*
X259478Y73040D01*
X259480Y72898D01*
X259478Y72756D01*
X259472Y72613D01*
X259462Y72471D01*
X259448Y72329D01*
X259430Y72188D01*
X259408Y72047D01*
X259382Y71907D01*
X259353Y71768D01*
X259319Y71629D01*
X259281Y71492D01*
X259240Y71355D01*
X259195Y71220D01*
X259146Y71086D01*
X259093Y70954D01*
X259037Y70823D01*
X258977Y70694D01*
X258913Y70566D01*
X258846Y70441D01*
X258775Y70317D01*
X258701Y70195D01*
X258624Y70076D01*
X258543Y69958D01*
X258459Y69843D01*
X258372Y69731D01*
X258281Y69621D01*
X258188Y69513D01*
X258091Y69408D01*
X257992Y69306D01*
X257890Y69207D01*
X257785Y69110D01*
X257677Y69017D01*
X257567Y68926D01*
X257455Y68839D01*
X257340Y68755D01*
X257222Y68674D01*
X257103Y68597D01*
X256981Y68523D01*
X256857Y68452D01*
X256732Y68385D01*
X256604Y68321D01*
X256475Y68261D01*
X256344Y68205D01*
X256212Y68152D01*
X256078Y68103D01*
X255943Y68058D01*
X255806Y68017D01*
X255669Y67979D01*
X255530Y67945D01*
X255391Y67916D01*
X255251Y67890D01*
X255110Y67868D01*
X254969Y67850D01*
X254827Y67836D01*
X254685Y67826D01*
X254542Y67820D01*
X254400Y67818D01*
X254258Y67820D01*
X254115Y67826D01*
X253973Y67836D01*
X253831Y67850D01*
X253690Y67868D01*
X253549Y67890D01*
X253409Y67916D01*
X253270Y67945D01*
X253131Y67979D01*
X252994Y68017D01*
X252857Y68058D01*
X252722Y68103D01*
X252588Y68152D01*
X252456Y68205D01*
X252325Y68261D01*
X252196Y68321D01*
X252068Y68385D01*
X251943Y68452D01*
X251819Y68523D01*
X251697Y68597D01*
X251578Y68674D01*
X251460Y68755D01*
X251345Y68839D01*
X251233Y68926D01*
X251123Y69017D01*
X251015Y69110D01*
X250910Y69207D01*
X250808Y69306D01*
X250709Y69408D01*
X250612Y69513D01*
X250519Y69621D01*
X250428Y69731D01*
X250341Y69843D01*
X250257Y69958D01*
X250176Y70076D01*
X250099Y70195D01*
X250025Y70317D01*
X249954Y70441D01*
X249887Y70566D01*
X249823Y70694D01*
X249763Y70823D01*
X249707Y70954D01*
X249654Y71086D01*
X249605Y71220D01*
X249560Y71355D01*
X249519Y71492D01*
X249481Y71629D01*
X249447Y71768D01*
X249418Y71907D01*
X249392Y72047D01*
X249370Y72188D01*
X249352Y72329D01*
X249338Y72471D01*
X249328Y72613D01*
X249322Y72756D01*
X249320Y72898D01*
X299358Y72898D02*
X299360Y73040D01*
X299366Y73183D01*
X299376Y73325D01*
X299390Y73467D01*
X299408Y73608D01*
X299430Y73749D01*
X299456Y73889D01*
X299485Y74028D01*
X299519Y74167D01*
X299557Y74304D01*
X299598Y74441D01*
X299643Y74576D01*
X299692Y74710D01*
X299745Y74842D01*
X299801Y74973D01*
X299861Y75102D01*
X299925Y75230D01*
X299992Y75355D01*
X300063Y75479D01*
X300137Y75601D01*
X300214Y75720D01*
X300295Y75838D01*
X300379Y75953D01*
X300466Y76065D01*
X300557Y76175D01*
X300650Y76283D01*
X300747Y76388D01*
X300846Y76490D01*
X300948Y76589D01*
X301053Y76686D01*
X301161Y76779D01*
X301271Y76870D01*
X301383Y76957D01*
X301498Y77041D01*
X301616Y77122D01*
X301735Y77199D01*
X301857Y77273D01*
X301981Y77344D01*
X302106Y77411D01*
X302234Y77475D01*
X302363Y77535D01*
X302494Y77591D01*
X302626Y77644D01*
X302760Y77693D01*
X302895Y77738D01*
X303032Y77779D01*
X303169Y77817D01*
X303308Y77851D01*
X303447Y77880D01*
X303587Y77906D01*
X303728Y77928D01*
X303869Y77946D01*
X304011Y77960D01*
X304153Y77970D01*
X304296Y77976D01*
X304438Y77978D01*
X304580Y77976D01*
X304723Y77970D01*
X304865Y77960D01*
X305007Y77946D01*
X305148Y77928D01*
X305289Y77906D01*
X305429Y77880D01*
X305568Y77851D01*
X305707Y77817D01*
X305844Y77779D01*
X305981Y77738D01*
X306116Y77693D01*
X306250Y77644D01*
X306382Y77591D01*
X306513Y77535D01*
X306642Y77475D01*
X306770Y77411D01*
X306895Y77344D01*
X307019Y77273D01*
X307141Y77199D01*
X307260Y77122D01*
X307378Y77041D01*
X307493Y76957D01*
X307605Y76870D01*
X307715Y76779D01*
X307823Y76686D01*
X307928Y76589D01*
X308030Y76490D01*
X308129Y76388D01*
X308226Y76283D01*
X308319Y76175D01*
X308410Y76065D01*
X308497Y75953D01*
X308581Y75838D01*
X308662Y75720D01*
X308739Y75601D01*
X308813Y75479D01*
X308884Y75355D01*
X308951Y75230D01*
X309015Y75102D01*
X309075Y74973D01*
X309131Y74842D01*
X309184Y74710D01*
X309233Y74576D01*
X309278Y74441D01*
X309319Y74304D01*
X309357Y74167D01*
X309391Y74028D01*
X309420Y73889D01*
X309446Y73749D01*
X309468Y73608D01*
X309486Y73467D01*
X309500Y73325D01*
X309510Y73183D01*
X309516Y73040D01*
X309518Y72898D01*
X309516Y72756D01*
X309510Y72613D01*
X309500Y72471D01*
X309486Y72329D01*
X309468Y72188D01*
X309446Y72047D01*
X309420Y71907D01*
X309391Y71768D01*
X309357Y71629D01*
X309319Y71492D01*
X309278Y71355D01*
X309233Y71220D01*
X309184Y71086D01*
X309131Y70954D01*
X309075Y70823D01*
X309015Y70694D01*
X308951Y70566D01*
X308884Y70441D01*
X308813Y70317D01*
X308739Y70195D01*
X308662Y70076D01*
X308581Y69958D01*
X308497Y69843D01*
X308410Y69731D01*
X308319Y69621D01*
X308226Y69513D01*
X308129Y69408D01*
X308030Y69306D01*
X307928Y69207D01*
X307823Y69110D01*
X307715Y69017D01*
X307605Y68926D01*
X307493Y68839D01*
X307378Y68755D01*
X307260Y68674D01*
X307141Y68597D01*
X307019Y68523D01*
X306895Y68452D01*
X306770Y68385D01*
X306642Y68321D01*
X306513Y68261D01*
X306382Y68205D01*
X306250Y68152D01*
X306116Y68103D01*
X305981Y68058D01*
X305844Y68017D01*
X305707Y67979D01*
X305568Y67945D01*
X305429Y67916D01*
X305289Y67890D01*
X305148Y67868D01*
X305007Y67850D01*
X304865Y67836D01*
X304723Y67826D01*
X304580Y67820D01*
X304438Y67818D01*
X304296Y67820D01*
X304153Y67826D01*
X304011Y67836D01*
X303869Y67850D01*
X303728Y67868D01*
X303587Y67890D01*
X303447Y67916D01*
X303308Y67945D01*
X303169Y67979D01*
X303032Y68017D01*
X302895Y68058D01*
X302760Y68103D01*
X302626Y68152D01*
X302494Y68205D01*
X302363Y68261D01*
X302234Y68321D01*
X302106Y68385D01*
X301981Y68452D01*
X301857Y68523D01*
X301735Y68597D01*
X301616Y68674D01*
X301498Y68755D01*
X301383Y68839D01*
X301271Y68926D01*
X301161Y69017D01*
X301053Y69110D01*
X300948Y69207D01*
X300846Y69306D01*
X300747Y69408D01*
X300650Y69513D01*
X300557Y69621D01*
X300466Y69731D01*
X300379Y69843D01*
X300295Y69958D01*
X300214Y70076D01*
X300137Y70195D01*
X300063Y70317D01*
X299992Y70441D01*
X299925Y70566D01*
X299861Y70694D01*
X299801Y70823D01*
X299745Y70954D01*
X299692Y71086D01*
X299643Y71220D01*
X299598Y71355D01*
X299557Y71492D01*
X299519Y71629D01*
X299485Y71768D01*
X299456Y71907D01*
X299430Y72047D01*
X299408Y72188D01*
X299390Y72329D01*
X299376Y72471D01*
X299366Y72613D01*
X299360Y72756D01*
X299358Y72898D01*
D11*
X237890Y69215D02*
X234715Y66675D01*
X237890Y69215D02*
X237890Y57785D01*
X234715Y57785D02*
X241065Y57785D01*
X287738Y69216D02*
X287842Y69214D01*
X287947Y69208D01*
X288051Y69199D01*
X288154Y69186D01*
X288257Y69168D01*
X288359Y69148D01*
X288461Y69123D01*
X288561Y69095D01*
X288661Y69063D01*
X288759Y69027D01*
X288856Y68988D01*
X288951Y68946D01*
X289045Y68900D01*
X289137Y68850D01*
X289227Y68798D01*
X289315Y68742D01*
X289401Y68682D01*
X289485Y68620D01*
X289566Y68555D01*
X289645Y68487D01*
X289722Y68415D01*
X289795Y68342D01*
X289867Y68265D01*
X289935Y68186D01*
X290000Y68105D01*
X290062Y68021D01*
X290122Y67935D01*
X290178Y67847D01*
X290230Y67757D01*
X290280Y67665D01*
X290326Y67571D01*
X290368Y67476D01*
X290407Y67379D01*
X290443Y67281D01*
X290475Y67181D01*
X290503Y67081D01*
X290528Y66979D01*
X290548Y66877D01*
X290566Y66774D01*
X290579Y66671D01*
X290588Y66567D01*
X290594Y66462D01*
X290596Y66358D01*
X287738Y69215D02*
X287620Y69213D01*
X287501Y69207D01*
X287383Y69198D01*
X287266Y69185D01*
X287149Y69167D01*
X287032Y69147D01*
X286916Y69122D01*
X286801Y69094D01*
X286688Y69061D01*
X286575Y69026D01*
X286463Y68986D01*
X286353Y68944D01*
X286244Y68897D01*
X286136Y68847D01*
X286031Y68794D01*
X285927Y68737D01*
X285825Y68677D01*
X285725Y68614D01*
X285627Y68547D01*
X285531Y68478D01*
X285438Y68405D01*
X285347Y68329D01*
X285258Y68251D01*
X285172Y68169D01*
X285089Y68085D01*
X285008Y67999D01*
X284931Y67909D01*
X284856Y67818D01*
X284784Y67724D01*
X284715Y67627D01*
X284650Y67529D01*
X284587Y67428D01*
X284528Y67325D01*
X284472Y67221D01*
X284420Y67115D01*
X284371Y67007D01*
X284326Y66898D01*
X284284Y66787D01*
X284246Y66675D01*
X289643Y64136D02*
X289719Y64211D01*
X289794Y64290D01*
X289865Y64371D01*
X289934Y64455D01*
X289999Y64541D01*
X290061Y64629D01*
X290121Y64719D01*
X290177Y64811D01*
X290230Y64906D01*
X290279Y65002D01*
X290325Y65100D01*
X290368Y65199D01*
X290407Y65300D01*
X290442Y65402D01*
X290474Y65505D01*
X290502Y65609D01*
X290527Y65714D01*
X290548Y65821D01*
X290565Y65927D01*
X290578Y66034D01*
X290587Y66142D01*
X290593Y66250D01*
X290595Y66358D01*
X289643Y64135D02*
X284245Y57785D01*
X290595Y57785D01*
D12*
X103950Y44450D02*
X103950Y31750D01*
X31200Y-12100D02*
X31200Y189900D01*
X121200Y189900D02*
X121200Y110900D01*
X121200Y66900D01*
X121200Y-12100D01*
X32200Y-12100D01*
X31200Y189900D02*
X121200Y189900D01*
X121200Y66900D02*
X106200Y66900D01*
X106200Y110900D01*
X121200Y110900D01*
X510350Y44450D02*
X510350Y31750D01*
X437600Y-12100D02*
X437600Y189900D01*
X527600Y189900D02*
X527600Y110900D01*
X527600Y66900D01*
X527600Y-12100D01*
X438600Y-12100D01*
X437600Y189900D02*
X527600Y189900D01*
X527600Y66900D02*
X512600Y66900D01*
X512600Y110900D01*
X527600Y110900D01*
M02*
