G04 EAGLE Gerber X2 export*
%TF.Part,Single*%
%TF.FileFunction,Other,Top Soldermask*%
%TF.FilePolarity,Positive*%
%TF.GenerationSoftware,Autodesk,EAGLE,8.7.1*%
%TF.CreationDate,2018-03-26T18:39:30Z*%
G75*
%MOMM*%
%FSLAX34Y34*%
%LPD*%
%AMOC8*
5,1,8,0,0,1.08239X$1,22.5*%
G01*
%ADD10P,1.759533X8X22.500000*%
%ADD11P,1.759533X8X202.500000*%
%ADD12P,2.048207X8X112.500000*%
%ADD13P,2.144431X8X112.500000*%
%ADD14C,3.403600*%
%ADD15P,1.553338X8X22.500000*%


D10*
X203200Y139700D03*
X203200Y114300D03*
X203200Y88900D03*
X203200Y63500D03*
X203200Y38100D03*
X177800Y139700D03*
X177800Y114300D03*
X177800Y88900D03*
X177800Y63500D03*
X177800Y38100D03*
D11*
X152400Y38100D03*
X152400Y63500D03*
X152400Y88900D03*
X152400Y114300D03*
X152400Y139700D03*
X355600Y38100D03*
X355600Y63500D03*
X355600Y88900D03*
X355600Y114300D03*
X355600Y139700D03*
X381000Y38100D03*
X381000Y63500D03*
X381000Y88900D03*
X381000Y114300D03*
X381000Y139700D03*
X406400Y38100D03*
X406400Y63500D03*
X406400Y88900D03*
X406400Y114300D03*
X406400Y139700D03*
D12*
X254400Y38100D03*
X304400Y38100D03*
D13*
X88900Y38100D03*
X63500Y38100D03*
X88900Y63500D03*
X63500Y63500D03*
X88900Y88900D03*
X63500Y88900D03*
X88900Y114300D03*
X63500Y114300D03*
X88900Y139700D03*
X63500Y139700D03*
X495300Y38100D03*
X469900Y38100D03*
X495300Y63500D03*
X469900Y63500D03*
X495300Y88900D03*
X469900Y88900D03*
X495300Y114300D03*
X469900Y114300D03*
X495300Y139700D03*
X469900Y139700D03*
D14*
X279400Y152400D03*
D15*
X495300Y165100D03*
M02*
