M48
;GenerationSoftware,Autodesk,EAGLE,8.7.1*%
;CreationDate,2018-03-26T18:39:29Z*%
FMAT,2
ICI,OFF
METRIC,TZ,000.000
T4C0.889
T3C1.016
T2C1.194
T1C3.302
%
G90
M71
T1
X27940Y15240
T2
X30440Y3810
X25440Y3810
T3
X20320Y3810
X20320Y13970
X20320Y11430
X20320Y8890
X20320Y6350
X15240Y3810
X17780Y13970
X17780Y11430
X17780Y8890
X17780Y6350
X17780Y3810
X15240Y6350
X15240Y8890
X15240Y11430
X15240Y13970
X35560Y3810
X35560Y6350
X35560Y8890
X35560Y11430
X38100Y3810
X38100Y6350
X38100Y8890
X38100Y11430
X38100Y13970
X35560Y13970
X40640Y6350
X40640Y8890
X40640Y11430
X40640Y13970
X40640Y3810
X8890Y3810
X6350Y3810
X8890Y6350
X6350Y6350
X8890Y8890
X6350Y8890
X8890Y11430
X6350Y11430
X8890Y13970
X6350Y13970
X49530Y3810
X46990Y3810
X49530Y6350
X46990Y6350
X49530Y8890
X46990Y8890
X49530Y11430
X46990Y11430
X49530Y13970
X46990Y13970
T4
X49530Y16510
M30