G04 EAGLE Gerber X2 export*
%TF.Part,Single*%
%TF.FileFunction,Other,Top Copper*%
%TF.FilePolarity,Positive*%
%TF.GenerationSoftware,Autodesk,EAGLE,8.7.1*%
%TF.CreationDate,2018-03-26T18:49:14Z*%
G75*
%MOMM*%
%FSLAX34Y34*%
%LPD*%
%AMOC8*
5,1,8,0,0,1.08239X$1,22.5*%
G01*
%ADD10P,1.649562X8X22.500000*%
%ADD11P,1.649562X8X202.500000*%
%ADD12P,1.938236X8X112.500000*%
%ADD13P,2.034460X8X112.500000*%
%ADD14C,0.762000*%
%ADD15P,1.443367X8X22.500000*%

G36*
X524086Y-22846D02*
X524086Y-22846D01*
X524194Y-22841D01*
X524272Y-22822D01*
X524293Y-22819D01*
X524309Y-22813D01*
X524351Y-22803D01*
X527854Y-21727D01*
X527917Y-21698D01*
X527983Y-21679D01*
X528127Y-21606D01*
X534952Y-17573D01*
X535046Y-17500D01*
X535144Y-17433D01*
X535187Y-17390D01*
X535203Y-17378D01*
X535216Y-17362D01*
X535258Y-17320D01*
X540503Y-11374D01*
X540570Y-11276D01*
X540643Y-11182D01*
X540670Y-11128D01*
X540682Y-11111D01*
X540689Y-11092D01*
X540716Y-11039D01*
X543867Y-3764D01*
X543900Y-3650D01*
X543940Y-3538D01*
X543950Y-3478D01*
X543956Y-3459D01*
X543956Y-3438D01*
X543966Y-3379D01*
X544714Y4513D01*
X544712Y4583D01*
X544720Y4651D01*
X544707Y4812D01*
X544285Y7786D01*
X544284Y7791D01*
X544284Y7795D01*
X544277Y7818D01*
X544276Y7840D01*
X544240Y7949D01*
X544201Y8093D01*
X544199Y8097D01*
X544198Y8101D01*
X544183Y8127D01*
X544178Y8142D01*
X544132Y8214D01*
X544120Y8235D01*
X544061Y8339D01*
X544066Y8985D01*
X544058Y9049D01*
X544060Y9113D01*
X544035Y9272D01*
X543899Y9881D01*
X543929Y9944D01*
X543985Y10043D01*
X543996Y10088D01*
X544016Y10129D01*
X544037Y10240D01*
X544067Y10351D01*
X544072Y10420D01*
X544076Y10441D01*
X544074Y10460D01*
X544078Y10511D01*
X545330Y167196D01*
X545316Y167319D01*
X545308Y167443D01*
X545297Y167477D01*
X545293Y167512D01*
X545248Y167627D01*
X545210Y167746D01*
X545185Y167791D01*
X545178Y167809D01*
X545170Y167821D01*
X545312Y168459D01*
X545317Y168512D01*
X545331Y168564D01*
X545343Y168725D01*
X545348Y169417D01*
X545390Y169470D01*
X545396Y169484D01*
X545405Y169495D01*
X545460Y169629D01*
X545519Y169761D01*
X545521Y169776D01*
X545527Y169789D01*
X545559Y169947D01*
X545977Y172888D01*
X545978Y172957D01*
X545989Y173026D01*
X545984Y173187D01*
X545236Y181079D01*
X545210Y181195D01*
X545191Y181312D01*
X545171Y181370D01*
X545166Y181390D01*
X545157Y181408D01*
X545137Y181464D01*
X541986Y188739D01*
X541925Y188841D01*
X541872Y188947D01*
X541834Y188995D01*
X541824Y189013D01*
X541809Y189027D01*
X541773Y189074D01*
X536528Y195020D01*
X536439Y195098D01*
X536355Y195182D01*
X536326Y195202D01*
X536319Y195209D01*
X536305Y195216D01*
X536289Y195230D01*
X536271Y195239D01*
X536222Y195273D01*
X529397Y199306D01*
X529333Y199334D01*
X529274Y199370D01*
X529124Y199427D01*
X525621Y200503D01*
X525514Y200522D01*
X525408Y200549D01*
X525329Y200554D01*
X525307Y200558D01*
X525291Y200557D01*
X525248Y200559D01*
X38000Y200559D01*
X37978Y200557D01*
X37900Y200555D01*
X34539Y200291D01*
X34471Y200277D01*
X34402Y200273D01*
X34246Y200233D01*
X27852Y198155D01*
X27744Y198104D01*
X27634Y198061D01*
X27582Y198028D01*
X27564Y198019D01*
X27548Y198007D01*
X27498Y197975D01*
X22058Y194023D01*
X21972Y193941D01*
X21880Y193866D01*
X21841Y193819D01*
X21826Y193805D01*
X21815Y193788D01*
X21777Y193742D01*
X17825Y188302D01*
X17768Y188198D01*
X17705Y188098D01*
X17682Y188042D01*
X17672Y188024D01*
X17667Y188004D01*
X17645Y187948D01*
X15567Y181554D01*
X15554Y181486D01*
X15532Y181421D01*
X15509Y181261D01*
X15245Y177900D01*
X15246Y177878D01*
X15241Y177800D01*
X15241Y0D01*
X15243Y-22D01*
X15245Y-100D01*
X15510Y-3477D01*
X15524Y-3545D01*
X15529Y-3614D01*
X15569Y-3770D01*
X17656Y-10194D01*
X17706Y-10301D01*
X17750Y-10412D01*
X17783Y-10463D01*
X17791Y-10482D01*
X17804Y-10497D01*
X17836Y-10548D01*
X21807Y-16012D01*
X21827Y-16034D01*
X21838Y-16052D01*
X21884Y-16095D01*
X21888Y-16099D01*
X21964Y-16191D01*
X22010Y-16229D01*
X22024Y-16244D01*
X22042Y-16255D01*
X22088Y-16293D01*
X27296Y-20078D01*
X27552Y-20264D01*
X27656Y-20321D01*
X27756Y-20385D01*
X27813Y-20407D01*
X27831Y-20417D01*
X27851Y-20422D01*
X27906Y-20444D01*
X34330Y-22531D01*
X34398Y-22544D01*
X34464Y-22567D01*
X34623Y-22590D01*
X38000Y-22855D01*
X38022Y-22854D01*
X38100Y-22859D01*
X523978Y-22859D01*
X524086Y-22846D01*
G37*
%LPC*%
G36*
X490565Y77469D02*
X490565Y77469D01*
X483869Y84165D01*
X483869Y93635D01*
X490565Y100331D01*
X500035Y100331D01*
X504704Y95662D01*
X504798Y95589D01*
X504887Y95510D01*
X504923Y95492D01*
X504955Y95467D01*
X505065Y95419D01*
X505170Y95365D01*
X505210Y95356D01*
X505247Y95340D01*
X505365Y95322D01*
X505481Y95296D01*
X505521Y95297D01*
X505561Y95291D01*
X505680Y95302D01*
X505799Y95305D01*
X505837Y95317D01*
X505878Y95320D01*
X505990Y95361D01*
X506104Y95394D01*
X506139Y95414D01*
X506177Y95428D01*
X506275Y95495D01*
X506378Y95555D01*
X506423Y95595D01*
X506440Y95607D01*
X506454Y95622D01*
X506499Y95662D01*
X527186Y116348D01*
X527246Y116427D01*
X527314Y116499D01*
X527343Y116552D01*
X527380Y116600D01*
X527420Y116691D01*
X527468Y116777D01*
X527483Y116836D01*
X527507Y116892D01*
X527522Y116989D01*
X527547Y117085D01*
X527553Y117185D01*
X527557Y117206D01*
X527555Y117218D01*
X527557Y117246D01*
X527557Y124054D01*
X527545Y124152D01*
X527542Y124251D01*
X527525Y124310D01*
X527517Y124370D01*
X527481Y124462D01*
X527453Y124557D01*
X527423Y124609D01*
X527400Y124665D01*
X527342Y124745D01*
X527292Y124831D01*
X527226Y124906D01*
X527214Y124923D01*
X527204Y124930D01*
X527186Y124952D01*
X508897Y143240D01*
X508788Y143325D01*
X508681Y143414D01*
X508662Y143422D01*
X508646Y143435D01*
X508518Y143490D01*
X508393Y143549D01*
X508373Y143553D01*
X508354Y143561D01*
X508216Y143583D01*
X508080Y143609D01*
X508060Y143608D01*
X508040Y143611D01*
X507901Y143598D01*
X507763Y143589D01*
X507744Y143583D01*
X507724Y143581D01*
X507592Y143534D01*
X507461Y143491D01*
X507443Y143480D01*
X507424Y143473D01*
X507309Y143395D01*
X507192Y143321D01*
X507178Y143306D01*
X507161Y143295D01*
X507069Y143191D01*
X506974Y143089D01*
X506964Y143072D01*
X506951Y143056D01*
X506887Y142932D01*
X506820Y142811D01*
X506815Y142791D01*
X506806Y142773D01*
X506776Y142637D01*
X506741Y142503D01*
X506739Y142475D01*
X506736Y142463D01*
X506737Y142442D01*
X506731Y142342D01*
X506731Y134965D01*
X500035Y128269D01*
X490565Y128269D01*
X483869Y134965D01*
X483869Y142342D01*
X483862Y142396D01*
X483865Y142450D01*
X483843Y142553D01*
X483829Y142658D01*
X483809Y142708D01*
X483798Y142761D01*
X483735Y142910D01*
X483721Y142930D01*
X483712Y142953D01*
X483633Y143062D01*
X483558Y143174D01*
X483540Y143191D01*
X483526Y143211D01*
X483422Y143297D01*
X483322Y143386D01*
X483300Y143398D01*
X483281Y143414D01*
X483159Y143471D01*
X483039Y143533D01*
X483015Y143539D01*
X482993Y143549D01*
X482861Y143574D01*
X482730Y143605D01*
X482705Y143604D01*
X482680Y143609D01*
X482546Y143601D01*
X482412Y143597D01*
X482388Y143591D01*
X482363Y143589D01*
X482235Y143548D01*
X482106Y143511D01*
X482084Y143499D01*
X482061Y143491D01*
X481947Y143419D01*
X481830Y143352D01*
X481813Y143334D01*
X481792Y143321D01*
X481700Y143223D01*
X481604Y143129D01*
X481591Y143107D01*
X481574Y143089D01*
X481509Y142971D01*
X481439Y142856D01*
X481432Y142833D01*
X481420Y142811D01*
X481387Y142680D01*
X481348Y142552D01*
X481347Y142527D01*
X481341Y142503D01*
X481331Y142342D01*
X481331Y134965D01*
X474635Y128269D01*
X465165Y128269D01*
X458469Y134965D01*
X458469Y144435D01*
X465165Y151131D01*
X472542Y151131D01*
X472680Y151148D01*
X472819Y151161D01*
X472838Y151168D01*
X472858Y151171D01*
X472987Y151222D01*
X473118Y151269D01*
X473135Y151280D01*
X473153Y151288D01*
X473266Y151369D01*
X473381Y151447D01*
X473394Y151463D01*
X473411Y151474D01*
X473500Y151582D01*
X473591Y151686D01*
X473601Y151704D01*
X473614Y151719D01*
X473673Y151845D01*
X473736Y151969D01*
X473740Y151989D01*
X473749Y152007D01*
X473775Y152143D01*
X473806Y152279D01*
X473805Y152300D01*
X473809Y152319D01*
X473800Y152458D01*
X473796Y152597D01*
X473790Y152617D01*
X473789Y152637D01*
X473746Y152769D01*
X473708Y152903D01*
X473697Y152920D01*
X473691Y152939D01*
X473616Y153057D01*
X473546Y153177D01*
X473528Y153198D01*
X473521Y153208D01*
X473506Y153222D01*
X473440Y153297D01*
X467852Y158886D01*
X467773Y158946D01*
X467701Y159014D01*
X467648Y159043D01*
X467600Y159080D01*
X467509Y159120D01*
X467423Y159168D01*
X467364Y159183D01*
X467308Y159207D01*
X467211Y159222D01*
X467115Y159247D01*
X467015Y159253D01*
X466994Y159257D01*
X466982Y159255D01*
X466954Y159257D01*
X434746Y159257D01*
X434648Y159245D01*
X434549Y159242D01*
X434490Y159225D01*
X434430Y159217D01*
X434338Y159181D01*
X434243Y159153D01*
X434191Y159123D01*
X434135Y159100D01*
X434055Y159042D01*
X433969Y158992D01*
X433894Y158926D01*
X433877Y158914D01*
X433870Y158904D01*
X433848Y158886D01*
X416424Y141462D01*
X416364Y141383D01*
X416296Y141311D01*
X416267Y141258D01*
X416230Y141210D01*
X416190Y141119D01*
X416142Y141033D01*
X416127Y140974D01*
X416103Y140918D01*
X416088Y140821D01*
X416063Y140725D01*
X416057Y140625D01*
X416053Y140604D01*
X416055Y140592D01*
X416053Y140564D01*
X416053Y135702D01*
X410398Y130047D01*
X402402Y130047D01*
X396747Y135702D01*
X396747Y143698D01*
X402402Y149353D01*
X407264Y149353D01*
X407362Y149365D01*
X407461Y149368D01*
X407520Y149385D01*
X407580Y149393D01*
X407672Y149429D01*
X407767Y149457D01*
X407819Y149487D01*
X407875Y149510D01*
X407955Y149568D01*
X408041Y149618D01*
X408116Y149684D01*
X408133Y149696D01*
X408140Y149706D01*
X408162Y149724D01*
X428490Y170053D01*
X430638Y170943D01*
X471062Y170943D01*
X473210Y170053D01*
X491760Y151502D01*
X491839Y151442D01*
X491911Y151374D01*
X491964Y151345D01*
X492012Y151308D01*
X492103Y151268D01*
X492189Y151220D01*
X492248Y151205D01*
X492304Y151181D01*
X492401Y151166D01*
X492497Y151141D01*
X492597Y151135D01*
X492618Y151131D01*
X492630Y151133D01*
X492658Y151131D01*
X497942Y151131D01*
X498080Y151148D01*
X498219Y151161D01*
X498238Y151168D01*
X498258Y151171D01*
X498387Y151222D01*
X498518Y151269D01*
X498535Y151280D01*
X498553Y151288D01*
X498666Y151369D01*
X498781Y151447D01*
X498794Y151463D01*
X498811Y151474D01*
X498900Y151582D01*
X498991Y151686D01*
X499001Y151704D01*
X499014Y151719D01*
X499073Y151845D01*
X499136Y151969D01*
X499140Y151989D01*
X499149Y152007D01*
X499175Y152143D01*
X499206Y152279D01*
X499205Y152300D01*
X499209Y152319D01*
X499200Y152458D01*
X499196Y152597D01*
X499190Y152617D01*
X499189Y152637D01*
X499146Y152769D01*
X499108Y152903D01*
X499097Y152920D01*
X499091Y152939D01*
X499016Y153057D01*
X498946Y153177D01*
X498928Y153198D01*
X498921Y153208D01*
X498906Y153222D01*
X498840Y153297D01*
X496109Y156028D01*
X496031Y156089D01*
X495959Y156157D01*
X495906Y156186D01*
X495858Y156223D01*
X495767Y156262D01*
X495680Y156310D01*
X495622Y156325D01*
X495566Y156349D01*
X495468Y156365D01*
X495372Y156390D01*
X495272Y156396D01*
X495252Y156399D01*
X495240Y156398D01*
X495212Y156400D01*
X491696Y156400D01*
X486600Y161496D01*
X486600Y168704D01*
X491696Y173800D01*
X498904Y173800D01*
X504000Y168704D01*
X504000Y165188D01*
X504013Y165090D01*
X504016Y164991D01*
X504032Y164933D01*
X504040Y164873D01*
X504077Y164781D01*
X504104Y164686D01*
X504135Y164633D01*
X504157Y164577D01*
X504215Y164497D01*
X504266Y164412D01*
X504332Y164336D01*
X504344Y164320D01*
X504353Y164312D01*
X504372Y164291D01*
X538353Y130310D01*
X539243Y128162D01*
X539243Y113138D01*
X538353Y110990D01*
X511310Y83947D01*
X509162Y83057D01*
X506148Y83057D01*
X506050Y83045D01*
X505951Y83042D01*
X505893Y83025D01*
X505833Y83017D01*
X505741Y82981D01*
X505646Y82953D01*
X505594Y82923D01*
X505537Y82900D01*
X505457Y82842D01*
X505372Y82792D01*
X505296Y82726D01*
X505280Y82714D01*
X505272Y82704D01*
X505251Y82686D01*
X500035Y77469D01*
X490565Y77469D01*
G37*
%LPD*%
%LPC*%
G36*
X430638Y6857D02*
X430638Y6857D01*
X428490Y7747D01*
X426668Y9569D01*
X408162Y28076D01*
X408083Y28136D01*
X408011Y28204D01*
X407958Y28233D01*
X407910Y28270D01*
X407819Y28310D01*
X407733Y28358D01*
X407674Y28373D01*
X407619Y28397D01*
X407521Y28412D01*
X407425Y28437D01*
X407325Y28443D01*
X407304Y28447D01*
X407292Y28445D01*
X407264Y28447D01*
X402402Y28447D01*
X396747Y34102D01*
X396747Y42098D01*
X402402Y47753D01*
X410398Y47753D01*
X416053Y42098D01*
X416053Y37236D01*
X416065Y37138D01*
X416068Y37039D01*
X416085Y36980D01*
X416093Y36920D01*
X416129Y36828D01*
X416157Y36733D01*
X416187Y36681D01*
X416210Y36625D01*
X416268Y36544D01*
X416318Y36459D01*
X416384Y36384D01*
X416396Y36367D01*
X416406Y36359D01*
X416424Y36338D01*
X433848Y18914D01*
X433927Y18854D01*
X433999Y18786D01*
X434052Y18757D01*
X434100Y18720D01*
X434191Y18680D01*
X434277Y18632D01*
X434336Y18617D01*
X434392Y18593D01*
X434489Y18578D01*
X434585Y18553D01*
X434685Y18547D01*
X434706Y18543D01*
X434718Y18545D01*
X434746Y18543D01*
X466954Y18543D01*
X467052Y18555D01*
X467151Y18558D01*
X467210Y18575D01*
X467270Y18583D01*
X467362Y18619D01*
X467457Y18647D01*
X467509Y18677D01*
X467565Y18700D01*
X467645Y18758D01*
X467731Y18808D01*
X467806Y18874D01*
X467823Y18886D01*
X467830Y18896D01*
X467852Y18914D01*
X473440Y24503D01*
X473525Y24612D01*
X473614Y24719D01*
X473622Y24738D01*
X473635Y24754D01*
X473690Y24882D01*
X473749Y25007D01*
X473753Y25027D01*
X473761Y25046D01*
X473783Y25184D01*
X473809Y25320D01*
X473808Y25340D01*
X473811Y25360D01*
X473798Y25499D01*
X473789Y25637D01*
X473783Y25656D01*
X473781Y25676D01*
X473734Y25808D01*
X473691Y25939D01*
X473680Y25957D01*
X473673Y25976D01*
X473595Y26091D01*
X473521Y26208D01*
X473506Y26222D01*
X473495Y26239D01*
X473391Y26331D01*
X473289Y26426D01*
X473272Y26436D01*
X473256Y26449D01*
X473132Y26513D01*
X473011Y26580D01*
X472991Y26585D01*
X472973Y26594D01*
X472837Y26624D01*
X472703Y26659D01*
X472675Y26661D01*
X472663Y26664D01*
X472642Y26663D01*
X472542Y26669D01*
X465165Y26669D01*
X458469Y33365D01*
X458469Y42835D01*
X465165Y49531D01*
X474635Y49531D01*
X481331Y42835D01*
X481331Y35458D01*
X481334Y35433D01*
X481332Y35409D01*
X481354Y35276D01*
X481371Y35142D01*
X481380Y35119D01*
X481384Y35095D01*
X481438Y34972D01*
X481488Y34847D01*
X481502Y34827D01*
X481512Y34804D01*
X481595Y34698D01*
X481674Y34589D01*
X481694Y34573D01*
X481709Y34554D01*
X481816Y34472D01*
X481919Y34386D01*
X481942Y34376D01*
X481961Y34361D01*
X482086Y34308D01*
X482207Y34251D01*
X482231Y34246D01*
X482254Y34237D01*
X482388Y34216D01*
X482519Y34191D01*
X482544Y34193D01*
X482569Y34189D01*
X482703Y34203D01*
X482837Y34211D01*
X482860Y34219D01*
X482885Y34221D01*
X483011Y34267D01*
X483139Y34309D01*
X483160Y34322D01*
X483184Y34331D01*
X483294Y34407D01*
X483408Y34479D01*
X483425Y34497D01*
X483445Y34511D01*
X483534Y34612D01*
X483626Y34711D01*
X483638Y34732D01*
X483654Y34751D01*
X483735Y34890D01*
X483753Y34942D01*
X483780Y34989D01*
X483806Y35091D01*
X483841Y35190D01*
X483845Y35245D01*
X483859Y35297D01*
X483869Y35458D01*
X483869Y42835D01*
X490565Y49531D01*
X500035Y49531D01*
X506731Y42835D01*
X506731Y33365D01*
X500035Y26669D01*
X492658Y26669D01*
X492560Y26657D01*
X492461Y26654D01*
X492402Y26637D01*
X492342Y26629D01*
X492250Y26593D01*
X492155Y26565D01*
X492103Y26535D01*
X492047Y26512D01*
X491967Y26454D01*
X491881Y26404D01*
X491806Y26338D01*
X491789Y26326D01*
X491782Y26316D01*
X491760Y26298D01*
X473210Y7747D01*
X471062Y6857D01*
X430638Y6857D01*
G37*
%LPD*%
%LPC*%
G36*
X84165Y128269D02*
X84165Y128269D01*
X77469Y134965D01*
X77469Y144435D01*
X84165Y151131D01*
X93635Y151131D01*
X98851Y145914D01*
X98929Y145854D01*
X99001Y145786D01*
X99054Y145757D01*
X99102Y145720D01*
X99193Y145680D01*
X99280Y145632D01*
X99338Y145617D01*
X99394Y145593D01*
X99492Y145578D01*
X99588Y145553D01*
X99688Y145547D01*
X99708Y145543D01*
X99720Y145545D01*
X99748Y145543D01*
X144066Y145543D01*
X144164Y145555D01*
X144263Y145558D01*
X144321Y145575D01*
X144382Y145583D01*
X144474Y145619D01*
X144569Y145647D01*
X144621Y145677D01*
X144677Y145700D01*
X144757Y145758D01*
X144843Y145808D01*
X144918Y145874D01*
X144935Y145886D01*
X144942Y145896D01*
X144963Y145914D01*
X148402Y149353D01*
X156398Y149353D01*
X162053Y143698D01*
X162053Y135702D01*
X156398Y130047D01*
X148402Y130047D01*
X144963Y133486D01*
X144885Y133546D01*
X144813Y133614D01*
X144760Y133643D01*
X144712Y133680D01*
X144621Y133720D01*
X144535Y133768D01*
X144476Y133783D01*
X144420Y133807D01*
X144322Y133822D01*
X144227Y133847D01*
X144127Y133853D01*
X144106Y133857D01*
X144094Y133855D01*
X144066Y133857D01*
X99748Y133857D01*
X99650Y133845D01*
X99551Y133842D01*
X99493Y133825D01*
X99433Y133817D01*
X99341Y133781D01*
X99246Y133753D01*
X99194Y133723D01*
X99137Y133700D01*
X99057Y133642D01*
X98972Y133592D01*
X98896Y133526D01*
X98880Y133514D01*
X98872Y133504D01*
X98851Y133486D01*
X93635Y128269D01*
X84165Y128269D01*
G37*
%LPD*%
%LPC*%
G36*
X84165Y77469D02*
X84165Y77469D01*
X77469Y84165D01*
X77469Y93635D01*
X84165Y100331D01*
X93635Y100331D01*
X98851Y95114D01*
X98929Y95054D01*
X99001Y94986D01*
X99054Y94957D01*
X99102Y94920D01*
X99193Y94880D01*
X99280Y94832D01*
X99338Y94817D01*
X99394Y94793D01*
X99492Y94778D01*
X99588Y94753D01*
X99688Y94747D01*
X99708Y94743D01*
X99720Y94745D01*
X99748Y94743D01*
X144066Y94743D01*
X144164Y94755D01*
X144263Y94758D01*
X144321Y94775D01*
X144382Y94783D01*
X144474Y94819D01*
X144569Y94847D01*
X144621Y94877D01*
X144677Y94900D01*
X144757Y94958D01*
X144843Y95008D01*
X144918Y95074D01*
X144935Y95086D01*
X144942Y95096D01*
X144963Y95114D01*
X148402Y98553D01*
X156398Y98553D01*
X162053Y92898D01*
X162053Y84902D01*
X156398Y79247D01*
X148402Y79247D01*
X144963Y82686D01*
X144885Y82746D01*
X144813Y82814D01*
X144760Y82843D01*
X144712Y82880D01*
X144621Y82920D01*
X144535Y82968D01*
X144476Y82983D01*
X144420Y83007D01*
X144322Y83022D01*
X144227Y83047D01*
X144127Y83053D01*
X144106Y83057D01*
X144094Y83055D01*
X144066Y83057D01*
X99748Y83057D01*
X99650Y83045D01*
X99551Y83042D01*
X99493Y83025D01*
X99433Y83017D01*
X99341Y82981D01*
X99246Y82953D01*
X99194Y82923D01*
X99137Y82900D01*
X99057Y82842D01*
X98972Y82792D01*
X98896Y82726D01*
X98880Y82714D01*
X98872Y82704D01*
X98851Y82686D01*
X93635Y77469D01*
X84165Y77469D01*
G37*
%LPD*%
%LPC*%
G36*
X84165Y26669D02*
X84165Y26669D01*
X77469Y33365D01*
X77469Y42835D01*
X84165Y49531D01*
X93635Y49531D01*
X98851Y44314D01*
X98929Y44254D01*
X99001Y44186D01*
X99054Y44157D01*
X99102Y44120D01*
X99193Y44080D01*
X99280Y44032D01*
X99338Y44017D01*
X99394Y43993D01*
X99492Y43978D01*
X99588Y43953D01*
X99688Y43947D01*
X99708Y43943D01*
X99720Y43945D01*
X99748Y43943D01*
X144066Y43943D01*
X144164Y43955D01*
X144263Y43958D01*
X144321Y43975D01*
X144382Y43983D01*
X144474Y44019D01*
X144569Y44047D01*
X144621Y44077D01*
X144677Y44100D01*
X144757Y44158D01*
X144843Y44208D01*
X144918Y44274D01*
X144935Y44286D01*
X144942Y44296D01*
X144963Y44314D01*
X148402Y47753D01*
X156398Y47753D01*
X162053Y42098D01*
X162053Y34102D01*
X156398Y28447D01*
X148402Y28447D01*
X144963Y31886D01*
X144885Y31946D01*
X144813Y32014D01*
X144760Y32043D01*
X144712Y32080D01*
X144621Y32120D01*
X144535Y32168D01*
X144476Y32183D01*
X144420Y32207D01*
X144322Y32222D01*
X144227Y32247D01*
X144127Y32253D01*
X144106Y32257D01*
X144094Y32255D01*
X144066Y32257D01*
X99748Y32257D01*
X99650Y32245D01*
X99551Y32242D01*
X99493Y32225D01*
X99433Y32217D01*
X99341Y32181D01*
X99246Y32153D01*
X99194Y32123D01*
X99137Y32100D01*
X99057Y32042D01*
X98972Y31992D01*
X98896Y31926D01*
X98880Y31914D01*
X98872Y31904D01*
X98851Y31886D01*
X93635Y26669D01*
X84165Y26669D01*
G37*
%LPD*%
%LPC*%
G36*
X84165Y52069D02*
X84165Y52069D01*
X77469Y58765D01*
X77469Y68235D01*
X84165Y74931D01*
X93635Y74931D01*
X98851Y69714D01*
X98929Y69654D01*
X99001Y69586D01*
X99054Y69557D01*
X99102Y69520D01*
X99193Y69480D01*
X99280Y69432D01*
X99338Y69417D01*
X99394Y69393D01*
X99492Y69378D01*
X99588Y69353D01*
X99688Y69347D01*
X99708Y69343D01*
X99720Y69345D01*
X99748Y69343D01*
X144066Y69343D01*
X144164Y69355D01*
X144263Y69358D01*
X144321Y69375D01*
X144382Y69383D01*
X144474Y69419D01*
X144569Y69447D01*
X144621Y69477D01*
X144677Y69500D01*
X144757Y69558D01*
X144843Y69608D01*
X144918Y69674D01*
X144935Y69686D01*
X144942Y69696D01*
X144963Y69714D01*
X148402Y73153D01*
X156398Y73153D01*
X162053Y67498D01*
X162053Y59502D01*
X156398Y53847D01*
X148402Y53847D01*
X144963Y57286D01*
X144885Y57346D01*
X144813Y57414D01*
X144760Y57443D01*
X144712Y57480D01*
X144621Y57520D01*
X144535Y57568D01*
X144476Y57583D01*
X144420Y57607D01*
X144322Y57622D01*
X144227Y57647D01*
X144127Y57653D01*
X144106Y57657D01*
X144094Y57655D01*
X144066Y57657D01*
X99748Y57657D01*
X99650Y57645D01*
X99551Y57642D01*
X99493Y57625D01*
X99433Y57617D01*
X99341Y57581D01*
X99246Y57553D01*
X99194Y57523D01*
X99137Y57500D01*
X99057Y57442D01*
X98972Y57392D01*
X98896Y57326D01*
X98880Y57314D01*
X98872Y57304D01*
X98851Y57286D01*
X93635Y52069D01*
X84165Y52069D01*
G37*
%LPD*%
%LPC*%
G36*
X84165Y102869D02*
X84165Y102869D01*
X77469Y109565D01*
X77469Y119035D01*
X84165Y125731D01*
X93635Y125731D01*
X98851Y120514D01*
X98929Y120454D01*
X99001Y120386D01*
X99054Y120357D01*
X99102Y120320D01*
X99193Y120280D01*
X99280Y120232D01*
X99338Y120217D01*
X99394Y120193D01*
X99492Y120178D01*
X99588Y120153D01*
X99688Y120147D01*
X99708Y120143D01*
X99720Y120145D01*
X99748Y120143D01*
X144066Y120143D01*
X144164Y120155D01*
X144263Y120158D01*
X144321Y120175D01*
X144382Y120183D01*
X144474Y120219D01*
X144569Y120247D01*
X144621Y120277D01*
X144677Y120300D01*
X144757Y120358D01*
X144843Y120408D01*
X144918Y120474D01*
X144935Y120486D01*
X144942Y120496D01*
X144963Y120514D01*
X148402Y123953D01*
X156398Y123953D01*
X162053Y118298D01*
X162053Y110302D01*
X156398Y104647D01*
X148402Y104647D01*
X144963Y108086D01*
X144885Y108146D01*
X144813Y108214D01*
X144760Y108243D01*
X144712Y108280D01*
X144621Y108320D01*
X144535Y108368D01*
X144476Y108383D01*
X144420Y108407D01*
X144322Y108422D01*
X144227Y108447D01*
X144127Y108453D01*
X144106Y108457D01*
X144094Y108455D01*
X144066Y108457D01*
X99748Y108457D01*
X99650Y108445D01*
X99551Y108442D01*
X99493Y108425D01*
X99433Y108417D01*
X99341Y108381D01*
X99246Y108353D01*
X99194Y108323D01*
X99137Y108300D01*
X99057Y108242D01*
X98972Y108192D01*
X98896Y108126D01*
X98880Y108114D01*
X98872Y108104D01*
X98851Y108086D01*
X93635Y102869D01*
X84165Y102869D01*
G37*
%LPD*%
%LPC*%
G36*
X275509Y132841D02*
X275509Y132841D01*
X268321Y135819D01*
X262819Y141321D01*
X259841Y148509D01*
X259841Y156291D01*
X262819Y163479D01*
X268321Y168981D01*
X275510Y171959D01*
X283291Y171959D01*
X290479Y168981D01*
X295981Y163479D01*
X298959Y156291D01*
X298959Y148509D01*
X295981Y141321D01*
X290479Y135819D01*
X283291Y132841D01*
X275509Y132841D01*
G37*
%LPD*%
%LPC*%
G36*
X58765Y128269D02*
X58765Y128269D01*
X52069Y134965D01*
X52069Y144435D01*
X58765Y151131D01*
X68235Y151131D01*
X74931Y144435D01*
X74931Y134965D01*
X68235Y128269D01*
X58765Y128269D01*
G37*
%LPD*%
%LPC*%
G36*
X465165Y102869D02*
X465165Y102869D01*
X458469Y109565D01*
X458469Y119035D01*
X465165Y125731D01*
X474635Y125731D01*
X481331Y119035D01*
X481331Y109565D01*
X474635Y102869D01*
X465165Y102869D01*
G37*
%LPD*%
%LPC*%
G36*
X58765Y77469D02*
X58765Y77469D01*
X52069Y84165D01*
X52069Y93635D01*
X58765Y100331D01*
X68235Y100331D01*
X74931Y93635D01*
X74931Y84165D01*
X68235Y77469D01*
X58765Y77469D01*
G37*
%LPD*%
%LPC*%
G36*
X58765Y102869D02*
X58765Y102869D01*
X52069Y109565D01*
X52069Y119035D01*
X58765Y125731D01*
X68235Y125731D01*
X74931Y119035D01*
X74931Y109565D01*
X68235Y102869D01*
X58765Y102869D01*
G37*
%LPD*%
%LPC*%
G36*
X465165Y77469D02*
X465165Y77469D01*
X458469Y84165D01*
X458469Y93635D01*
X465165Y100331D01*
X474635Y100331D01*
X481331Y93635D01*
X481331Y84165D01*
X474635Y77469D01*
X465165Y77469D01*
G37*
%LPD*%
%LPC*%
G36*
X465165Y52069D02*
X465165Y52069D01*
X458469Y58765D01*
X458469Y68235D01*
X465165Y74931D01*
X474635Y74931D01*
X481331Y68235D01*
X481331Y58765D01*
X474635Y52069D01*
X465165Y52069D01*
G37*
%LPD*%
%LPC*%
G36*
X58765Y52069D02*
X58765Y52069D01*
X52069Y58765D01*
X52069Y68235D01*
X58765Y74931D01*
X68235Y74931D01*
X74931Y68235D01*
X74931Y58765D01*
X68235Y52069D01*
X58765Y52069D01*
G37*
%LPD*%
%LPC*%
G36*
X58765Y26669D02*
X58765Y26669D01*
X52069Y33365D01*
X52069Y42835D01*
X58765Y49531D01*
X68235Y49531D01*
X74931Y42835D01*
X74931Y33365D01*
X68235Y26669D01*
X58765Y26669D01*
G37*
%LPD*%
%LPC*%
G36*
X490565Y52069D02*
X490565Y52069D01*
X483869Y58765D01*
X483869Y68235D01*
X490565Y74931D01*
X500035Y74931D01*
X506731Y68235D01*
X506731Y58765D01*
X500035Y52069D01*
X490565Y52069D01*
G37*
%LPD*%
%LPC*%
G36*
X490565Y102869D02*
X490565Y102869D01*
X483869Y109565D01*
X483869Y119035D01*
X490565Y125731D01*
X500035Y125731D01*
X506731Y119035D01*
X506731Y109565D01*
X500035Y102869D01*
X490565Y102869D01*
G37*
%LPD*%
%LPC*%
G36*
X299849Y27114D02*
X299849Y27114D01*
X293414Y33549D01*
X293414Y42651D01*
X299849Y49086D01*
X308951Y49086D01*
X315386Y42651D01*
X315386Y33549D01*
X308951Y27114D01*
X299849Y27114D01*
G37*
%LPD*%
%LPC*%
G36*
X173802Y28447D02*
X173802Y28447D01*
X168147Y34102D01*
X168147Y42098D01*
X173802Y47753D01*
X181798Y47753D01*
X187453Y42098D01*
X187453Y34102D01*
X181798Y28447D01*
X173802Y28447D01*
G37*
%LPD*%
%LPC*%
G36*
X377002Y130047D02*
X377002Y130047D01*
X371347Y135702D01*
X371347Y143698D01*
X377002Y149353D01*
X384998Y149353D01*
X390653Y143698D01*
X390653Y135702D01*
X384998Y130047D01*
X377002Y130047D01*
G37*
%LPD*%
%LPC*%
G36*
X377002Y53847D02*
X377002Y53847D01*
X371347Y59502D01*
X371347Y67498D01*
X377002Y73153D01*
X384998Y73153D01*
X390653Y67498D01*
X390653Y59502D01*
X384998Y53847D01*
X377002Y53847D01*
G37*
%LPD*%
%LPC*%
G36*
X173802Y130047D02*
X173802Y130047D01*
X168147Y135702D01*
X168147Y143698D01*
X173802Y149353D01*
X181798Y149353D01*
X187453Y143698D01*
X187453Y135702D01*
X181798Y130047D01*
X173802Y130047D01*
G37*
%LPD*%
%LPC*%
G36*
X173802Y79247D02*
X173802Y79247D01*
X168147Y84902D01*
X168147Y92898D01*
X173802Y98553D01*
X181798Y98553D01*
X187453Y92898D01*
X187453Y84902D01*
X181798Y79247D01*
X173802Y79247D01*
G37*
%LPD*%
%LPC*%
G36*
X402402Y104647D02*
X402402Y104647D01*
X396747Y110302D01*
X396747Y118298D01*
X402402Y123953D01*
X410398Y123953D01*
X416053Y118298D01*
X416053Y110302D01*
X410398Y104647D01*
X402402Y104647D01*
G37*
%LPD*%
%LPC*%
G36*
X377002Y104647D02*
X377002Y104647D01*
X371347Y110302D01*
X371347Y118298D01*
X377002Y123953D01*
X384998Y123953D01*
X390653Y118298D01*
X390653Y110302D01*
X384998Y104647D01*
X377002Y104647D01*
G37*
%LPD*%
%LPC*%
G36*
X173802Y104647D02*
X173802Y104647D01*
X168147Y110302D01*
X168147Y118298D01*
X173802Y123953D01*
X181798Y123953D01*
X187453Y118298D01*
X187453Y110302D01*
X181798Y104647D01*
X173802Y104647D01*
G37*
%LPD*%
%LPC*%
G36*
X402402Y79247D02*
X402402Y79247D01*
X396747Y84902D01*
X396747Y92898D01*
X402402Y98553D01*
X410398Y98553D01*
X416053Y92898D01*
X416053Y84902D01*
X410398Y79247D01*
X402402Y79247D01*
G37*
%LPD*%
%LPC*%
G36*
X377002Y79247D02*
X377002Y79247D01*
X371347Y84902D01*
X371347Y92898D01*
X377002Y98553D01*
X384998Y98553D01*
X390653Y92898D01*
X390653Y84902D01*
X384998Y79247D01*
X377002Y79247D01*
G37*
%LPD*%
%LPC*%
G36*
X173802Y53847D02*
X173802Y53847D01*
X168147Y59502D01*
X168147Y67498D01*
X173802Y73153D01*
X181798Y73153D01*
X187453Y67498D01*
X187453Y59502D01*
X181798Y53847D01*
X173802Y53847D01*
G37*
%LPD*%
%LPC*%
G36*
X402402Y53847D02*
X402402Y53847D01*
X396747Y59502D01*
X396747Y67498D01*
X402402Y73153D01*
X410398Y73153D01*
X416053Y67498D01*
X416053Y59502D01*
X410398Y53847D01*
X402402Y53847D01*
G37*
%LPD*%
%LPC*%
G36*
X377002Y28447D02*
X377002Y28447D01*
X371347Y34102D01*
X371347Y42098D01*
X377002Y47753D01*
X384998Y47753D01*
X390653Y42098D01*
X390653Y34102D01*
X384998Y28447D01*
X377002Y28447D01*
G37*
%LPD*%
%LPC*%
G36*
X256939Y40639D02*
X256939Y40639D01*
X256939Y49594D01*
X259161Y49594D01*
X265894Y42861D01*
X265894Y40639D01*
X256939Y40639D01*
G37*
%LPD*%
%LPC*%
G36*
X242906Y40639D02*
X242906Y40639D01*
X242906Y42861D01*
X249639Y49594D01*
X251861Y49594D01*
X251861Y40639D01*
X242906Y40639D01*
G37*
%LPD*%
%LPC*%
G36*
X256939Y26606D02*
X256939Y26606D01*
X256939Y35561D01*
X265894Y35561D01*
X265894Y33339D01*
X259161Y26606D01*
X256939Y26606D01*
G37*
%LPD*%
%LPC*%
G36*
X249639Y26606D02*
X249639Y26606D01*
X242906Y33339D01*
X242906Y35561D01*
X251861Y35561D01*
X251861Y26606D01*
X249639Y26606D01*
G37*
%LPD*%
%LPC*%
G36*
X358139Y142239D02*
X358139Y142239D01*
X358139Y149861D01*
X359809Y149861D01*
X365761Y143909D01*
X365761Y142239D01*
X358139Y142239D01*
G37*
%LPD*%
%LPC*%
G36*
X205739Y91439D02*
X205739Y91439D01*
X205739Y99061D01*
X207409Y99061D01*
X213361Y93109D01*
X213361Y91439D01*
X205739Y91439D01*
G37*
%LPD*%
%LPC*%
G36*
X358139Y66039D02*
X358139Y66039D01*
X358139Y73661D01*
X359809Y73661D01*
X365761Y67709D01*
X365761Y66039D01*
X358139Y66039D01*
G37*
%LPD*%
%LPC*%
G36*
X358139Y91439D02*
X358139Y91439D01*
X358139Y99061D01*
X359809Y99061D01*
X365761Y93109D01*
X365761Y91439D01*
X358139Y91439D01*
G37*
%LPD*%
%LPC*%
G36*
X205739Y66039D02*
X205739Y66039D01*
X205739Y73661D01*
X207409Y73661D01*
X213361Y67709D01*
X213361Y66039D01*
X205739Y66039D01*
G37*
%LPD*%
%LPC*%
G36*
X358139Y40639D02*
X358139Y40639D01*
X358139Y48261D01*
X359809Y48261D01*
X365761Y42309D01*
X365761Y40639D01*
X358139Y40639D01*
G37*
%LPD*%
%LPC*%
G36*
X205739Y142239D02*
X205739Y142239D01*
X205739Y149861D01*
X207409Y149861D01*
X213361Y143909D01*
X213361Y142239D01*
X205739Y142239D01*
G37*
%LPD*%
%LPC*%
G36*
X205739Y40639D02*
X205739Y40639D01*
X205739Y48261D01*
X207409Y48261D01*
X213361Y42309D01*
X213361Y40639D01*
X205739Y40639D01*
G37*
%LPD*%
%LPC*%
G36*
X205739Y116839D02*
X205739Y116839D01*
X205739Y124461D01*
X207409Y124461D01*
X213361Y118509D01*
X213361Y116839D01*
X205739Y116839D01*
G37*
%LPD*%
%LPC*%
G36*
X358139Y116839D02*
X358139Y116839D01*
X358139Y124461D01*
X359809Y124461D01*
X365761Y118509D01*
X365761Y116839D01*
X358139Y116839D01*
G37*
%LPD*%
%LPC*%
G36*
X193039Y66039D02*
X193039Y66039D01*
X193039Y67709D01*
X198991Y73661D01*
X200661Y73661D01*
X200661Y66039D01*
X193039Y66039D01*
G37*
%LPD*%
%LPC*%
G36*
X193039Y142239D02*
X193039Y142239D01*
X193039Y143909D01*
X198991Y149861D01*
X200661Y149861D01*
X200661Y142239D01*
X193039Y142239D01*
G37*
%LPD*%
%LPC*%
G36*
X345439Y142239D02*
X345439Y142239D01*
X345439Y143909D01*
X351391Y149861D01*
X353061Y149861D01*
X353061Y142239D01*
X345439Y142239D01*
G37*
%LPD*%
%LPC*%
G36*
X205739Y53339D02*
X205739Y53339D01*
X205739Y60961D01*
X213361Y60961D01*
X213361Y59291D01*
X207409Y53339D01*
X205739Y53339D01*
G37*
%LPD*%
%LPC*%
G36*
X358139Y129539D02*
X358139Y129539D01*
X358139Y137161D01*
X365761Y137161D01*
X365761Y135491D01*
X359809Y129539D01*
X358139Y129539D01*
G37*
%LPD*%
%LPC*%
G36*
X205739Y129539D02*
X205739Y129539D01*
X205739Y137161D01*
X213361Y137161D01*
X213361Y135491D01*
X207409Y129539D01*
X205739Y129539D01*
G37*
%LPD*%
%LPC*%
G36*
X193039Y116839D02*
X193039Y116839D01*
X193039Y118509D01*
X198991Y124461D01*
X200661Y124461D01*
X200661Y116839D01*
X193039Y116839D01*
G37*
%LPD*%
%LPC*%
G36*
X358139Y104139D02*
X358139Y104139D01*
X358139Y111761D01*
X365761Y111761D01*
X365761Y110091D01*
X359809Y104139D01*
X358139Y104139D01*
G37*
%LPD*%
%LPC*%
G36*
X205739Y104139D02*
X205739Y104139D01*
X205739Y111761D01*
X213361Y111761D01*
X213361Y110091D01*
X207409Y104139D01*
X205739Y104139D01*
G37*
%LPD*%
%LPC*%
G36*
X345439Y66039D02*
X345439Y66039D01*
X345439Y67709D01*
X351391Y73661D01*
X353061Y73661D01*
X353061Y66039D01*
X345439Y66039D01*
G37*
%LPD*%
%LPC*%
G36*
X345439Y91439D02*
X345439Y91439D01*
X345439Y93109D01*
X351391Y99061D01*
X353061Y99061D01*
X353061Y91439D01*
X345439Y91439D01*
G37*
%LPD*%
%LPC*%
G36*
X345439Y40639D02*
X345439Y40639D01*
X345439Y42309D01*
X351391Y48261D01*
X353061Y48261D01*
X353061Y40639D01*
X345439Y40639D01*
G37*
%LPD*%
%LPC*%
G36*
X193039Y91439D02*
X193039Y91439D01*
X193039Y93109D01*
X198991Y99061D01*
X200661Y99061D01*
X200661Y91439D01*
X193039Y91439D01*
G37*
%LPD*%
%LPC*%
G36*
X193039Y40639D02*
X193039Y40639D01*
X193039Y42309D01*
X198991Y48261D01*
X200661Y48261D01*
X200661Y40639D01*
X193039Y40639D01*
G37*
%LPD*%
%LPC*%
G36*
X345439Y116839D02*
X345439Y116839D01*
X345439Y118509D01*
X351391Y124461D01*
X353061Y124461D01*
X353061Y116839D01*
X345439Y116839D01*
G37*
%LPD*%
%LPC*%
G36*
X358139Y78739D02*
X358139Y78739D01*
X358139Y86361D01*
X365761Y86361D01*
X365761Y84691D01*
X359809Y78739D01*
X358139Y78739D01*
G37*
%LPD*%
%LPC*%
G36*
X205739Y27939D02*
X205739Y27939D01*
X205739Y35561D01*
X213361Y35561D01*
X213361Y33891D01*
X207409Y27939D01*
X205739Y27939D01*
G37*
%LPD*%
%LPC*%
G36*
X358139Y27939D02*
X358139Y27939D01*
X358139Y35561D01*
X365761Y35561D01*
X365761Y33891D01*
X359809Y27939D01*
X358139Y27939D01*
G37*
%LPD*%
%LPC*%
G36*
X205739Y78739D02*
X205739Y78739D01*
X205739Y86361D01*
X213361Y86361D01*
X213361Y84691D01*
X207409Y78739D01*
X205739Y78739D01*
G37*
%LPD*%
%LPC*%
G36*
X358139Y53339D02*
X358139Y53339D01*
X358139Y60961D01*
X365761Y60961D01*
X365761Y59291D01*
X359809Y53339D01*
X358139Y53339D01*
G37*
%LPD*%
%LPC*%
G36*
X198991Y129539D02*
X198991Y129539D01*
X193039Y135491D01*
X193039Y137161D01*
X200661Y137161D01*
X200661Y129539D01*
X198991Y129539D01*
G37*
%LPD*%
%LPC*%
G36*
X351391Y129539D02*
X351391Y129539D01*
X345439Y135491D01*
X345439Y137161D01*
X353061Y137161D01*
X353061Y129539D01*
X351391Y129539D01*
G37*
%LPD*%
%LPC*%
G36*
X351391Y78739D02*
X351391Y78739D01*
X345439Y84691D01*
X345439Y86361D01*
X353061Y86361D01*
X353061Y78739D01*
X351391Y78739D01*
G37*
%LPD*%
%LPC*%
G36*
X198991Y78739D02*
X198991Y78739D01*
X193039Y84691D01*
X193039Y86361D01*
X200661Y86361D01*
X200661Y78739D01*
X198991Y78739D01*
G37*
%LPD*%
%LPC*%
G36*
X198991Y104139D02*
X198991Y104139D01*
X193039Y110091D01*
X193039Y111761D01*
X200661Y111761D01*
X200661Y104139D01*
X198991Y104139D01*
G37*
%LPD*%
%LPC*%
G36*
X351391Y104139D02*
X351391Y104139D01*
X345439Y110091D01*
X345439Y111761D01*
X353061Y111761D01*
X353061Y104139D01*
X351391Y104139D01*
G37*
%LPD*%
%LPC*%
G36*
X198991Y27939D02*
X198991Y27939D01*
X193039Y33891D01*
X193039Y35561D01*
X200661Y35561D01*
X200661Y27939D01*
X198991Y27939D01*
G37*
%LPD*%
%LPC*%
G36*
X198991Y53339D02*
X198991Y53339D01*
X193039Y59291D01*
X193039Y60961D01*
X200661Y60961D01*
X200661Y53339D01*
X198991Y53339D01*
G37*
%LPD*%
%LPC*%
G36*
X351391Y27939D02*
X351391Y27939D01*
X345439Y33891D01*
X345439Y35561D01*
X353061Y35561D01*
X353061Y27939D01*
X351391Y27939D01*
G37*
%LPD*%
%LPC*%
G36*
X351391Y53339D02*
X351391Y53339D01*
X345439Y59291D01*
X345439Y60961D01*
X353061Y60961D01*
X353061Y53339D01*
X351391Y53339D01*
G37*
%LPD*%
%LPC*%
G36*
X355599Y114299D02*
X355599Y114299D01*
X355599Y114301D01*
X355601Y114301D01*
X355601Y114299D01*
X355599Y114299D01*
G37*
%LPD*%
%LPC*%
G36*
X355599Y139699D02*
X355599Y139699D01*
X355599Y139701D01*
X355601Y139701D01*
X355601Y139699D01*
X355599Y139699D01*
G37*
%LPD*%
%LPC*%
G36*
X355599Y88899D02*
X355599Y88899D01*
X355599Y88901D01*
X355601Y88901D01*
X355601Y88899D01*
X355599Y88899D01*
G37*
%LPD*%
%LPC*%
G36*
X203199Y139699D02*
X203199Y139699D01*
X203199Y139701D01*
X203201Y139701D01*
X203201Y139699D01*
X203199Y139699D01*
G37*
%LPD*%
%LPC*%
G36*
X203199Y88899D02*
X203199Y88899D01*
X203199Y88901D01*
X203201Y88901D01*
X203201Y88899D01*
X203199Y88899D01*
G37*
%LPD*%
%LPC*%
G36*
X355599Y63499D02*
X355599Y63499D01*
X355599Y63501D01*
X355601Y63501D01*
X355601Y63499D01*
X355599Y63499D01*
G37*
%LPD*%
%LPC*%
G36*
X203199Y63499D02*
X203199Y63499D01*
X203199Y63501D01*
X203201Y63501D01*
X203201Y63499D01*
X203199Y63499D01*
G37*
%LPD*%
%LPC*%
G36*
X355599Y38099D02*
X355599Y38099D01*
X355599Y38101D01*
X355601Y38101D01*
X355601Y38099D01*
X355599Y38099D01*
G37*
%LPD*%
%LPC*%
G36*
X254399Y38099D02*
X254399Y38099D01*
X254399Y38101D01*
X254401Y38101D01*
X254401Y38099D01*
X254399Y38099D01*
G37*
%LPD*%
%LPC*%
G36*
X203199Y38099D02*
X203199Y38099D01*
X203199Y38101D01*
X203201Y38101D01*
X203201Y38099D01*
X203199Y38099D01*
G37*
%LPD*%
%LPC*%
G36*
X203199Y114299D02*
X203199Y114299D01*
X203199Y114301D01*
X203201Y114301D01*
X203201Y114299D01*
X203199Y114299D01*
G37*
%LPD*%
D10*
X203200Y139700D03*
X203200Y114300D03*
X203200Y88900D03*
X203200Y63500D03*
X203200Y38100D03*
X177800Y139700D03*
X177800Y114300D03*
X177800Y88900D03*
X177800Y63500D03*
X177800Y38100D03*
D11*
X152400Y38100D03*
X152400Y63500D03*
X152400Y88900D03*
X152400Y114300D03*
X152400Y139700D03*
X355600Y38100D03*
X355600Y63500D03*
X355600Y88900D03*
X355600Y114300D03*
X355600Y139700D03*
X381000Y38100D03*
X381000Y63500D03*
X381000Y88900D03*
X381000Y114300D03*
X381000Y139700D03*
X406400Y38100D03*
X406400Y63500D03*
X406400Y88900D03*
X406400Y114300D03*
X406400Y139700D03*
D12*
X254400Y38100D03*
X304400Y38100D03*
D13*
X88900Y38100D03*
X63500Y38100D03*
X88900Y63500D03*
X63500Y63500D03*
X88900Y88900D03*
X63500Y88900D03*
X88900Y114300D03*
X63500Y114300D03*
X88900Y139700D03*
X63500Y139700D03*
X495300Y38100D03*
X469900Y38100D03*
X495300Y63500D03*
X469900Y63500D03*
X495300Y88900D03*
X469900Y88900D03*
X495300Y114300D03*
X469900Y114300D03*
X495300Y139700D03*
X469900Y139700D03*
D14*
X152400Y38100D02*
X88900Y38100D01*
X88900Y63500D02*
X152400Y63500D01*
X152400Y88900D02*
X88900Y88900D01*
X88900Y114300D02*
X152400Y114300D01*
X152400Y139700D02*
X88900Y139700D01*
X406400Y38100D02*
X431800Y12700D01*
X469900Y12700D01*
X495300Y38100D01*
D15*
X495300Y165100D03*
D14*
X533400Y127000D01*
X533400Y114300D01*
X508000Y88900D02*
X495300Y88900D01*
X508000Y88900D02*
X533400Y114300D01*
X431800Y165100D02*
X406400Y139700D01*
X431800Y165100D02*
X469900Y165100D01*
X495300Y139700D01*
M02*
