M48
;GenerationSoftware,Autodesk,EAGLE,8.7.1*%
;CreationDate,2018-03-29T20:09:45Z*%
FMAT,2
ICI,OFF
METRIC,TZ,000.000
T3C1.016
T2C1.194
T1C3.302
%
G90
M71
T1
X24130Y16510
T2
X26630Y5080
X21630Y5080
T3
X16510Y12700
X16510Y10160
X16510Y7620
X16510Y5080
X13970Y15240
X13970Y12700
X13970Y10160
X13970Y7620
X13970Y5080
X11430Y5080
X11430Y7620
X11430Y10160
X11430Y12700
X11430Y15240
X31750Y5080
X31750Y7620
X31750Y10160
X31750Y12700
X34290Y5080
X34290Y7620
X34290Y10160
X34290Y12700
X34290Y15240
X31750Y15240
X36830Y7620
X36830Y10160
X36830Y12700
X36830Y15240
X16510Y15240
X36830Y5080
X5080Y5080
X2540Y5080
X5080Y7620
X2540Y7620
X5080Y10160
X2540Y10160
X5080Y12700
X2540Y12700
X5080Y15240
X2540Y15240
X45720Y5080
X43180Y5080
X45720Y7620
X43180Y7620
X45720Y10160
X43180Y10160
X45720Y12700
X43180Y12700
X45720Y15240
X43180Y15240
M30