G04 EAGLE Gerber X2 export*
%TF.Part,Single*%
%TF.FileFunction,Other,outline*%
%TF.FilePolarity,Positive*%
%TF.GenerationSoftware,Autodesk,EAGLE,8.7.1*%
%TF.CreationDate,2018-03-29T20:09:45Z*%
G75*
%MOMM*%
%FSLAX34Y34*%
%LPD*%
%AMOC8*
5,1,8,0,0,1.08239X$1,22.5*%
G01*
%ADD10C,0.000000*%


D10*
X6800Y210000D02*
X473200Y210000D01*
X473364Y209998D01*
X473529Y209992D01*
X473693Y209982D01*
X473856Y209968D01*
X474020Y209950D01*
X474183Y209929D01*
X474345Y209903D01*
X474506Y209873D01*
X474667Y209840D01*
X474827Y209802D01*
X474986Y209761D01*
X475144Y209716D01*
X475301Y209667D01*
X475457Y209615D01*
X475611Y209558D01*
X475764Y209498D01*
X475916Y209434D01*
X476066Y209367D01*
X476214Y209296D01*
X476360Y209221D01*
X476505Y209143D01*
X476647Y209061D01*
X476788Y208976D01*
X476926Y208888D01*
X477063Y208796D01*
X477197Y208701D01*
X477329Y208603D01*
X477458Y208502D01*
X477585Y208397D01*
X477709Y208290D01*
X477831Y208179D01*
X477950Y208066D01*
X478066Y207950D01*
X478179Y207831D01*
X478290Y207709D01*
X478397Y207585D01*
X478502Y207458D01*
X478603Y207329D01*
X478701Y207197D01*
X478796Y207063D01*
X478888Y206926D01*
X478976Y206788D01*
X479061Y206647D01*
X479143Y206505D01*
X479221Y206360D01*
X479296Y206214D01*
X479367Y206066D01*
X479434Y205916D01*
X479498Y205764D01*
X479558Y205611D01*
X479615Y205457D01*
X479667Y205301D01*
X479716Y205144D01*
X479761Y204986D01*
X479802Y204827D01*
X479840Y204667D01*
X479873Y204506D01*
X479903Y204345D01*
X479929Y204183D01*
X479950Y204020D01*
X479968Y203856D01*
X479982Y203693D01*
X479992Y203529D01*
X479998Y203364D01*
X480000Y203200D01*
X480000Y10100D01*
X479997Y9856D01*
X479988Y9612D01*
X479973Y9368D01*
X479953Y9125D01*
X479926Y8883D01*
X479894Y8641D01*
X479856Y8400D01*
X479812Y8160D01*
X479762Y7921D01*
X479707Y7683D01*
X479645Y7447D01*
X479578Y7212D01*
X479506Y6979D01*
X479427Y6748D01*
X479344Y6518D01*
X479254Y6291D01*
X479160Y6066D01*
X479059Y5844D01*
X478954Y5624D01*
X478843Y5406D01*
X478727Y5192D01*
X478606Y4980D01*
X478480Y4771D01*
X478348Y4565D01*
X478212Y4363D01*
X478071Y4163D01*
X477925Y3968D01*
X477775Y3776D01*
X477620Y3587D01*
X477460Y3402D01*
X477296Y3222D01*
X477128Y3045D01*
X476955Y2872D01*
X476778Y2704D01*
X476598Y2540D01*
X476413Y2380D01*
X476224Y2225D01*
X476032Y2075D01*
X475837Y1929D01*
X475637Y1788D01*
X475435Y1652D01*
X475229Y1520D01*
X475020Y1394D01*
X474808Y1273D01*
X474594Y1157D01*
X474376Y1046D01*
X474156Y941D01*
X473934Y840D01*
X473709Y746D01*
X473482Y656D01*
X473252Y573D01*
X473021Y494D01*
X472788Y422D01*
X472553Y355D01*
X472317Y293D01*
X472079Y238D01*
X471840Y188D01*
X471600Y144D01*
X471359Y106D01*
X471117Y74D01*
X470875Y47D01*
X470632Y27D01*
X470388Y12D01*
X470144Y3D01*
X469900Y0D01*
X12700Y0D01*
X12393Y4D01*
X12086Y15D01*
X11780Y33D01*
X11474Y59D01*
X11169Y93D01*
X10865Y133D01*
X10562Y181D01*
X10260Y237D01*
X9960Y299D01*
X9661Y369D01*
X9364Y446D01*
X9068Y530D01*
X8775Y622D01*
X8485Y720D01*
X8197Y825D01*
X7911Y938D01*
X7628Y1057D01*
X7348Y1183D01*
X7071Y1315D01*
X6798Y1455D01*
X6528Y1601D01*
X6262Y1753D01*
X5999Y1912D01*
X5740Y2077D01*
X5486Y2248D01*
X5235Y2425D01*
X4989Y2609D01*
X4747Y2798D01*
X4511Y2993D01*
X4278Y3194D01*
X4051Y3400D01*
X3829Y3612D01*
X3612Y3829D01*
X3400Y4051D01*
X3194Y4278D01*
X2993Y4511D01*
X2798Y4747D01*
X2609Y4989D01*
X2425Y5235D01*
X2248Y5486D01*
X2077Y5740D01*
X1912Y5999D01*
X1753Y6262D01*
X1601Y6528D01*
X1455Y6798D01*
X1315Y7071D01*
X1183Y7348D01*
X1057Y7628D01*
X938Y7911D01*
X825Y8197D01*
X720Y8485D01*
X622Y8775D01*
X530Y9068D01*
X446Y9364D01*
X369Y9661D01*
X299Y9960D01*
X237Y10260D01*
X181Y10562D01*
X133Y10865D01*
X93Y11169D01*
X59Y11474D01*
X33Y11780D01*
X15Y12086D01*
X4Y12393D01*
X0Y12700D01*
X0Y203200D01*
X2Y203364D01*
X8Y203529D01*
X18Y203693D01*
X32Y203856D01*
X50Y204020D01*
X71Y204183D01*
X97Y204345D01*
X127Y204506D01*
X160Y204667D01*
X198Y204827D01*
X239Y204986D01*
X284Y205144D01*
X333Y205301D01*
X385Y205457D01*
X442Y205611D01*
X502Y205764D01*
X566Y205916D01*
X633Y206066D01*
X704Y206214D01*
X779Y206360D01*
X857Y206505D01*
X939Y206647D01*
X1024Y206788D01*
X1112Y206926D01*
X1204Y207063D01*
X1299Y207197D01*
X1397Y207329D01*
X1498Y207458D01*
X1603Y207585D01*
X1710Y207709D01*
X1821Y207831D01*
X1934Y207950D01*
X2050Y208066D01*
X2169Y208179D01*
X2291Y208290D01*
X2415Y208397D01*
X2542Y208502D01*
X2671Y208603D01*
X2803Y208701D01*
X2937Y208796D01*
X3074Y208888D01*
X3212Y208976D01*
X3353Y209061D01*
X3495Y209143D01*
X3640Y209221D01*
X3786Y209296D01*
X3934Y209367D01*
X4084Y209434D01*
X4236Y209498D01*
X4389Y209558D01*
X4543Y209615D01*
X4699Y209667D01*
X4856Y209716D01*
X5014Y209761D01*
X5173Y209802D01*
X5333Y209840D01*
X5494Y209873D01*
X5655Y209903D01*
X5817Y209929D01*
X5980Y209950D01*
X6144Y209968D01*
X6307Y209982D01*
X6471Y209992D01*
X6636Y209998D01*
X6800Y210000D01*
X224790Y165100D02*
X224795Y165505D01*
X224810Y165910D01*
X224835Y166315D01*
X224870Y166718D01*
X224914Y167121D01*
X224969Y167523D01*
X225033Y167923D01*
X225107Y168321D01*
X225191Y168717D01*
X225285Y169112D01*
X225388Y169503D01*
X225501Y169893D01*
X225623Y170279D01*
X225755Y170662D01*
X225896Y171042D01*
X226047Y171418D01*
X226206Y171791D01*
X226375Y172159D01*
X226553Y172523D01*
X226739Y172883D01*
X226935Y173238D01*
X227139Y173588D01*
X227351Y173933D01*
X227572Y174272D01*
X227802Y174607D01*
X228039Y174935D01*
X228284Y175257D01*
X228538Y175574D01*
X228798Y175884D01*
X229067Y176187D01*
X229343Y176484D01*
X229626Y176774D01*
X229916Y177057D01*
X230213Y177333D01*
X230516Y177602D01*
X230826Y177862D01*
X231143Y178116D01*
X231465Y178361D01*
X231793Y178598D01*
X232128Y178828D01*
X232467Y179049D01*
X232812Y179261D01*
X233162Y179465D01*
X233517Y179661D01*
X233877Y179847D01*
X234241Y180025D01*
X234609Y180194D01*
X234982Y180353D01*
X235358Y180504D01*
X235738Y180645D01*
X236121Y180777D01*
X236507Y180899D01*
X236897Y181012D01*
X237288Y181115D01*
X237683Y181209D01*
X238079Y181293D01*
X238477Y181367D01*
X238877Y181431D01*
X239279Y181486D01*
X239682Y181530D01*
X240085Y181565D01*
X240490Y181590D01*
X240895Y181605D01*
X241300Y181610D01*
X241705Y181605D01*
X242110Y181590D01*
X242515Y181565D01*
X242918Y181530D01*
X243321Y181486D01*
X243723Y181431D01*
X244123Y181367D01*
X244521Y181293D01*
X244917Y181209D01*
X245312Y181115D01*
X245703Y181012D01*
X246093Y180899D01*
X246479Y180777D01*
X246862Y180645D01*
X247242Y180504D01*
X247618Y180353D01*
X247991Y180194D01*
X248359Y180025D01*
X248723Y179847D01*
X249083Y179661D01*
X249438Y179465D01*
X249788Y179261D01*
X250133Y179049D01*
X250472Y178828D01*
X250807Y178598D01*
X251135Y178361D01*
X251457Y178116D01*
X251774Y177862D01*
X252084Y177602D01*
X252387Y177333D01*
X252684Y177057D01*
X252974Y176774D01*
X253257Y176484D01*
X253533Y176187D01*
X253802Y175884D01*
X254062Y175574D01*
X254316Y175257D01*
X254561Y174935D01*
X254798Y174607D01*
X255028Y174272D01*
X255249Y173933D01*
X255461Y173588D01*
X255665Y173238D01*
X255861Y172883D01*
X256047Y172523D01*
X256225Y172159D01*
X256394Y171791D01*
X256553Y171418D01*
X256704Y171042D01*
X256845Y170662D01*
X256977Y170279D01*
X257099Y169893D01*
X257212Y169503D01*
X257315Y169112D01*
X257409Y168717D01*
X257493Y168321D01*
X257567Y167923D01*
X257631Y167523D01*
X257686Y167121D01*
X257730Y166718D01*
X257765Y166315D01*
X257790Y165910D01*
X257805Y165505D01*
X257810Y165100D01*
X257805Y164695D01*
X257790Y164290D01*
X257765Y163885D01*
X257730Y163482D01*
X257686Y163079D01*
X257631Y162677D01*
X257567Y162277D01*
X257493Y161879D01*
X257409Y161483D01*
X257315Y161088D01*
X257212Y160697D01*
X257099Y160307D01*
X256977Y159921D01*
X256845Y159538D01*
X256704Y159158D01*
X256553Y158782D01*
X256394Y158409D01*
X256225Y158041D01*
X256047Y157677D01*
X255861Y157317D01*
X255665Y156962D01*
X255461Y156612D01*
X255249Y156267D01*
X255028Y155928D01*
X254798Y155593D01*
X254561Y155265D01*
X254316Y154943D01*
X254062Y154626D01*
X253802Y154316D01*
X253533Y154013D01*
X253257Y153716D01*
X252974Y153426D01*
X252684Y153143D01*
X252387Y152867D01*
X252084Y152598D01*
X251774Y152338D01*
X251457Y152084D01*
X251135Y151839D01*
X250807Y151602D01*
X250472Y151372D01*
X250133Y151151D01*
X249788Y150939D01*
X249438Y150735D01*
X249083Y150539D01*
X248723Y150353D01*
X248359Y150175D01*
X247991Y150006D01*
X247618Y149847D01*
X247242Y149696D01*
X246862Y149555D01*
X246479Y149423D01*
X246093Y149301D01*
X245703Y149188D01*
X245312Y149085D01*
X244917Y148991D01*
X244521Y148907D01*
X244123Y148833D01*
X243723Y148769D01*
X243321Y148714D01*
X242918Y148670D01*
X242515Y148635D01*
X242110Y148610D01*
X241705Y148595D01*
X241300Y148590D01*
X240895Y148595D01*
X240490Y148610D01*
X240085Y148635D01*
X239682Y148670D01*
X239279Y148714D01*
X238877Y148769D01*
X238477Y148833D01*
X238079Y148907D01*
X237683Y148991D01*
X237288Y149085D01*
X236897Y149188D01*
X236507Y149301D01*
X236121Y149423D01*
X235738Y149555D01*
X235358Y149696D01*
X234982Y149847D01*
X234609Y150006D01*
X234241Y150175D01*
X233877Y150353D01*
X233517Y150539D01*
X233162Y150735D01*
X232812Y150939D01*
X232467Y151151D01*
X232128Y151372D01*
X231793Y151602D01*
X231465Y151839D01*
X231143Y152084D01*
X230826Y152338D01*
X230516Y152598D01*
X230213Y152867D01*
X229916Y153143D01*
X229626Y153426D01*
X229343Y153716D01*
X229067Y154013D01*
X228798Y154316D01*
X228538Y154626D01*
X228284Y154943D01*
X228039Y155265D01*
X227802Y155593D01*
X227572Y155928D01*
X227351Y156267D01*
X227139Y156612D01*
X226935Y156962D01*
X226739Y157317D01*
X226553Y157677D01*
X226375Y158041D01*
X226206Y158409D01*
X226047Y158782D01*
X225896Y159158D01*
X225755Y159538D01*
X225623Y159921D01*
X225501Y160307D01*
X225388Y160697D01*
X225285Y161088D01*
X225191Y161483D01*
X225107Y161879D01*
X225033Y162277D01*
X224969Y162677D01*
X224914Y163079D01*
X224870Y163482D01*
X224835Y163885D01*
X224810Y164290D01*
X224795Y164695D01*
X224790Y165100D01*
M02*
