G04 EAGLE Gerber X2 export*
%TF.Part,Single*%
%TF.FileFunction,Other,Top Silkscreen*%
%TF.FilePolarity,Positive*%
%TF.GenerationSoftware,Autodesk,EAGLE,8.7.1*%
%TF.CreationDate,2018-03-29T20:09:46Z*%
G75*
%MOMM*%
%FSLAX34Y34*%
%LPD*%
%AMOC8*
5,1,8,0,0,1.08239X$1,22.5*%
G01*
%ADD10C,0.152400*%
%ADD11C,0.127000*%
%ADD12C,0.203200*%


D10*
X177800Y158750D02*
X177800Y146050D01*
X171450Y139700D01*
X158750Y139700D02*
X152400Y146050D01*
X171450Y139700D02*
X177800Y133350D01*
X177800Y120650D01*
X171450Y114300D01*
X158750Y114300D02*
X152400Y120650D01*
X152400Y133350D01*
X158750Y139700D01*
X158750Y165100D02*
X171450Y165100D01*
X177800Y158750D01*
X158750Y165100D02*
X152400Y158750D01*
X152400Y146050D01*
X171450Y114300D02*
X177800Y107950D01*
X177800Y95250D01*
X171450Y88900D01*
X158750Y88900D02*
X152400Y95250D01*
X152400Y107950D01*
X158750Y114300D01*
X177800Y82550D02*
X177800Y69850D01*
X171450Y63500D01*
X158750Y63500D02*
X152400Y69850D01*
X171450Y63500D02*
X177800Y57150D01*
X177800Y44450D01*
X171450Y38100D01*
X158750Y38100D01*
X152400Y44450D01*
X152400Y57150D01*
X158750Y63500D01*
X177800Y82550D02*
X171450Y88900D01*
X158750Y88900D02*
X152400Y82550D01*
X152400Y69850D01*
D11*
X139065Y151765D02*
X136525Y154940D01*
X147955Y154940D01*
X147955Y151765D02*
X147955Y158115D01*
X193675Y53975D02*
X193675Y50165D01*
X193675Y53975D02*
X193673Y54075D01*
X193667Y54174D01*
X193657Y54274D01*
X193644Y54372D01*
X193626Y54471D01*
X193605Y54568D01*
X193580Y54664D01*
X193551Y54760D01*
X193518Y54854D01*
X193482Y54947D01*
X193442Y55038D01*
X193398Y55128D01*
X193351Y55216D01*
X193301Y55302D01*
X193247Y55386D01*
X193190Y55468D01*
X193130Y55547D01*
X193066Y55625D01*
X193000Y55699D01*
X192931Y55771D01*
X192859Y55840D01*
X192785Y55906D01*
X192707Y55970D01*
X192628Y56030D01*
X192546Y56087D01*
X192462Y56141D01*
X192376Y56191D01*
X192288Y56238D01*
X192198Y56282D01*
X192107Y56322D01*
X192014Y56358D01*
X191920Y56391D01*
X191824Y56420D01*
X191728Y56445D01*
X191631Y56466D01*
X191532Y56484D01*
X191434Y56497D01*
X191334Y56507D01*
X191235Y56513D01*
X191135Y56515D01*
X189865Y56515D01*
X189765Y56513D01*
X189666Y56507D01*
X189566Y56497D01*
X189468Y56484D01*
X189369Y56466D01*
X189272Y56445D01*
X189176Y56420D01*
X189080Y56391D01*
X188986Y56358D01*
X188893Y56322D01*
X188802Y56282D01*
X188712Y56238D01*
X188624Y56191D01*
X188538Y56141D01*
X188454Y56087D01*
X188372Y56030D01*
X188293Y55970D01*
X188215Y55906D01*
X188141Y55840D01*
X188069Y55771D01*
X188000Y55699D01*
X187934Y55625D01*
X187870Y55547D01*
X187810Y55468D01*
X187753Y55386D01*
X187699Y55302D01*
X187649Y55216D01*
X187602Y55128D01*
X187558Y55038D01*
X187518Y54947D01*
X187482Y54854D01*
X187449Y54760D01*
X187420Y54664D01*
X187395Y54568D01*
X187374Y54471D01*
X187356Y54372D01*
X187343Y54274D01*
X187333Y54174D01*
X187327Y54075D01*
X187325Y53975D01*
X187325Y50165D01*
X182245Y50165D01*
X182245Y56515D01*
D10*
X152400Y146050D02*
X152400Y158750D01*
X152400Y146050D02*
X146050Y139700D01*
X133350Y139700D02*
X127000Y146050D01*
X146050Y139700D02*
X152400Y133350D01*
X152400Y120650D01*
X146050Y114300D01*
X133350Y114300D02*
X127000Y120650D01*
X127000Y133350D01*
X133350Y139700D01*
X133350Y165100D02*
X146050Y165100D01*
X152400Y158750D01*
X133350Y165100D02*
X127000Y158750D01*
X127000Y146050D01*
X146050Y114300D02*
X152400Y107950D01*
X152400Y95250D01*
X146050Y88900D01*
X133350Y88900D02*
X127000Y95250D01*
X127000Y107950D01*
X133350Y114300D01*
X152400Y82550D02*
X152400Y69850D01*
X146050Y63500D01*
X133350Y63500D02*
X127000Y69850D01*
X146050Y63500D02*
X152400Y57150D01*
X152400Y44450D01*
X146050Y38100D01*
X133350Y38100D01*
X127000Y44450D01*
X127000Y57150D01*
X133350Y63500D01*
X152400Y82550D02*
X146050Y88900D01*
X133350Y88900D02*
X127000Y82550D01*
X127000Y69850D01*
D11*
X113665Y151765D02*
X111125Y154940D01*
X122555Y154940D01*
X122555Y151765D02*
X122555Y158115D01*
X168275Y53975D02*
X168275Y50165D01*
X168275Y53975D02*
X168273Y54075D01*
X168267Y54174D01*
X168257Y54274D01*
X168244Y54372D01*
X168226Y54471D01*
X168205Y54568D01*
X168180Y54664D01*
X168151Y54760D01*
X168118Y54854D01*
X168082Y54947D01*
X168042Y55038D01*
X167998Y55128D01*
X167951Y55216D01*
X167901Y55302D01*
X167847Y55386D01*
X167790Y55468D01*
X167730Y55547D01*
X167666Y55625D01*
X167600Y55699D01*
X167531Y55771D01*
X167459Y55840D01*
X167385Y55906D01*
X167307Y55970D01*
X167228Y56030D01*
X167146Y56087D01*
X167062Y56141D01*
X166976Y56191D01*
X166888Y56238D01*
X166798Y56282D01*
X166707Y56322D01*
X166614Y56358D01*
X166520Y56391D01*
X166424Y56420D01*
X166328Y56445D01*
X166231Y56466D01*
X166132Y56484D01*
X166034Y56497D01*
X165934Y56507D01*
X165835Y56513D01*
X165735Y56515D01*
X164465Y56515D01*
X164365Y56513D01*
X164266Y56507D01*
X164166Y56497D01*
X164068Y56484D01*
X163969Y56466D01*
X163872Y56445D01*
X163776Y56420D01*
X163680Y56391D01*
X163586Y56358D01*
X163493Y56322D01*
X163402Y56282D01*
X163312Y56238D01*
X163224Y56191D01*
X163138Y56141D01*
X163054Y56087D01*
X162972Y56030D01*
X162893Y55970D01*
X162815Y55906D01*
X162741Y55840D01*
X162669Y55771D01*
X162600Y55699D01*
X162534Y55625D01*
X162470Y55547D01*
X162410Y55468D01*
X162353Y55386D01*
X162299Y55302D01*
X162249Y55216D01*
X162202Y55128D01*
X162158Y55038D01*
X162118Y54947D01*
X162082Y54854D01*
X162049Y54760D01*
X162020Y54664D01*
X161995Y54568D01*
X161974Y54471D01*
X161956Y54372D01*
X161943Y54274D01*
X161933Y54174D01*
X161927Y54075D01*
X161925Y53975D01*
X161925Y50165D01*
X156845Y50165D01*
X156845Y56515D01*
D10*
X101600Y57150D02*
X101600Y44450D01*
X101600Y57150D02*
X107950Y63500D01*
X120650Y63500D02*
X127000Y57150D01*
X107950Y63500D02*
X101600Y69850D01*
X101600Y82550D01*
X107950Y88900D01*
X120650Y88900D02*
X127000Y82550D01*
X127000Y69850D01*
X120650Y63500D01*
X120650Y38100D02*
X107950Y38100D01*
X101600Y44450D01*
X120650Y38100D02*
X127000Y44450D01*
X127000Y57150D01*
X107950Y88900D02*
X101600Y95250D01*
X101600Y107950D01*
X107950Y114300D01*
X120650Y114300D02*
X127000Y107950D01*
X127000Y95250D01*
X120650Y88900D01*
X101600Y120650D02*
X101600Y133350D01*
X107950Y139700D01*
X120650Y139700D02*
X127000Y133350D01*
X107950Y139700D02*
X101600Y146050D01*
X101600Y158750D01*
X107950Y165100D01*
X120650Y165100D01*
X127000Y158750D01*
X127000Y146050D01*
X120650Y139700D01*
X101600Y120650D02*
X107950Y114300D01*
X120650Y114300D02*
X127000Y120650D01*
X127000Y133350D01*
D11*
X131445Y48260D02*
X133985Y45085D01*
X131445Y48260D02*
X142875Y48260D01*
X142875Y45085D02*
X142875Y51435D01*
X97155Y146685D02*
X97155Y150495D01*
X97153Y150595D01*
X97147Y150694D01*
X97137Y150794D01*
X97124Y150892D01*
X97106Y150991D01*
X97085Y151088D01*
X97060Y151184D01*
X97031Y151280D01*
X96998Y151374D01*
X96962Y151467D01*
X96922Y151558D01*
X96878Y151648D01*
X96831Y151736D01*
X96781Y151822D01*
X96727Y151906D01*
X96670Y151988D01*
X96610Y152067D01*
X96546Y152145D01*
X96480Y152219D01*
X96411Y152291D01*
X96339Y152360D01*
X96265Y152426D01*
X96187Y152490D01*
X96108Y152550D01*
X96026Y152607D01*
X95942Y152661D01*
X95856Y152711D01*
X95768Y152758D01*
X95678Y152802D01*
X95587Y152842D01*
X95494Y152878D01*
X95400Y152911D01*
X95304Y152940D01*
X95208Y152965D01*
X95111Y152986D01*
X95012Y153004D01*
X94914Y153017D01*
X94814Y153027D01*
X94715Y153033D01*
X94615Y153035D01*
X93345Y153035D01*
X93245Y153033D01*
X93146Y153027D01*
X93046Y153017D01*
X92948Y153004D01*
X92849Y152986D01*
X92752Y152965D01*
X92656Y152940D01*
X92560Y152911D01*
X92466Y152878D01*
X92373Y152842D01*
X92282Y152802D01*
X92192Y152758D01*
X92104Y152711D01*
X92018Y152661D01*
X91934Y152607D01*
X91852Y152550D01*
X91773Y152490D01*
X91695Y152426D01*
X91621Y152360D01*
X91549Y152291D01*
X91480Y152219D01*
X91414Y152145D01*
X91350Y152067D01*
X91290Y151988D01*
X91233Y151906D01*
X91179Y151822D01*
X91129Y151736D01*
X91082Y151648D01*
X91038Y151558D01*
X90998Y151467D01*
X90962Y151374D01*
X90929Y151280D01*
X90900Y151184D01*
X90875Y151088D01*
X90854Y150991D01*
X90836Y150892D01*
X90823Y150794D01*
X90813Y150694D01*
X90807Y150595D01*
X90805Y150495D01*
X90805Y146685D01*
X85725Y146685D01*
X85725Y153035D01*
D10*
X304800Y57150D02*
X304800Y44450D01*
X304800Y57150D02*
X311150Y63500D01*
X323850Y63500D02*
X330200Y57150D01*
X311150Y63500D02*
X304800Y69850D01*
X304800Y82550D01*
X311150Y88900D01*
X323850Y88900D02*
X330200Y82550D01*
X330200Y69850D01*
X323850Y63500D01*
X323850Y38100D02*
X311150Y38100D01*
X304800Y44450D01*
X323850Y38100D02*
X330200Y44450D01*
X330200Y57150D01*
X311150Y88900D02*
X304800Y95250D01*
X304800Y107950D01*
X311150Y114300D01*
X323850Y114300D02*
X330200Y107950D01*
X330200Y95250D01*
X323850Y88900D01*
X304800Y120650D02*
X304800Y133350D01*
X311150Y139700D01*
X323850Y139700D02*
X330200Y133350D01*
X311150Y139700D02*
X304800Y146050D01*
X304800Y158750D01*
X311150Y165100D01*
X323850Y165100D01*
X330200Y158750D01*
X330200Y146050D01*
X323850Y139700D01*
X304800Y120650D02*
X311150Y114300D01*
X323850Y114300D02*
X330200Y120650D01*
X330200Y133350D01*
D11*
X334645Y48260D02*
X337185Y45085D01*
X334645Y48260D02*
X346075Y48260D01*
X346075Y45085D02*
X346075Y51435D01*
X300355Y146685D02*
X300355Y150495D01*
X300353Y150595D01*
X300347Y150694D01*
X300337Y150794D01*
X300324Y150892D01*
X300306Y150991D01*
X300285Y151088D01*
X300260Y151184D01*
X300231Y151280D01*
X300198Y151374D01*
X300162Y151467D01*
X300122Y151558D01*
X300078Y151648D01*
X300031Y151736D01*
X299981Y151822D01*
X299927Y151906D01*
X299870Y151988D01*
X299810Y152067D01*
X299746Y152145D01*
X299680Y152219D01*
X299611Y152291D01*
X299539Y152360D01*
X299465Y152426D01*
X299387Y152490D01*
X299308Y152550D01*
X299226Y152607D01*
X299142Y152661D01*
X299056Y152711D01*
X298968Y152758D01*
X298878Y152802D01*
X298787Y152842D01*
X298694Y152878D01*
X298600Y152911D01*
X298504Y152940D01*
X298408Y152965D01*
X298311Y152986D01*
X298212Y153004D01*
X298114Y153017D01*
X298014Y153027D01*
X297915Y153033D01*
X297815Y153035D01*
X296545Y153035D01*
X296445Y153033D01*
X296346Y153027D01*
X296246Y153017D01*
X296148Y153004D01*
X296049Y152986D01*
X295952Y152965D01*
X295856Y152940D01*
X295760Y152911D01*
X295666Y152878D01*
X295573Y152842D01*
X295482Y152802D01*
X295392Y152758D01*
X295304Y152711D01*
X295218Y152661D01*
X295134Y152607D01*
X295052Y152550D01*
X294973Y152490D01*
X294895Y152426D01*
X294821Y152360D01*
X294749Y152291D01*
X294680Y152219D01*
X294614Y152145D01*
X294550Y152067D01*
X294490Y151988D01*
X294433Y151906D01*
X294379Y151822D01*
X294329Y151736D01*
X294282Y151648D01*
X294238Y151558D01*
X294198Y151467D01*
X294162Y151374D01*
X294129Y151280D01*
X294100Y151184D01*
X294075Y151088D01*
X294054Y150991D01*
X294036Y150892D01*
X294023Y150794D01*
X294013Y150694D01*
X294007Y150595D01*
X294005Y150495D01*
X294005Y146685D01*
X288925Y146685D01*
X288925Y153035D01*
D10*
X330200Y57150D02*
X330200Y44450D01*
X330200Y57150D02*
X336550Y63500D01*
X349250Y63500D02*
X355600Y57150D01*
X336550Y63500D02*
X330200Y69850D01*
X330200Y82550D01*
X336550Y88900D01*
X349250Y88900D02*
X355600Y82550D01*
X355600Y69850D01*
X349250Y63500D01*
X349250Y38100D02*
X336550Y38100D01*
X330200Y44450D01*
X349250Y38100D02*
X355600Y44450D01*
X355600Y57150D01*
X336550Y88900D02*
X330200Y95250D01*
X330200Y107950D01*
X336550Y114300D01*
X349250Y114300D02*
X355600Y107950D01*
X355600Y95250D01*
X349250Y88900D01*
X330200Y120650D02*
X330200Y133350D01*
X336550Y139700D01*
X349250Y139700D02*
X355600Y133350D01*
X336550Y139700D02*
X330200Y146050D01*
X330200Y158750D01*
X336550Y165100D01*
X349250Y165100D01*
X355600Y158750D01*
X355600Y146050D01*
X349250Y139700D01*
X330200Y120650D02*
X336550Y114300D01*
X349250Y114300D02*
X355600Y120650D01*
X355600Y133350D01*
D11*
X360045Y48260D02*
X362585Y45085D01*
X360045Y48260D02*
X371475Y48260D01*
X371475Y45085D02*
X371475Y51435D01*
X325755Y146685D02*
X325755Y150495D01*
X325753Y150595D01*
X325747Y150694D01*
X325737Y150794D01*
X325724Y150892D01*
X325706Y150991D01*
X325685Y151088D01*
X325660Y151184D01*
X325631Y151280D01*
X325598Y151374D01*
X325562Y151467D01*
X325522Y151558D01*
X325478Y151648D01*
X325431Y151736D01*
X325381Y151822D01*
X325327Y151906D01*
X325270Y151988D01*
X325210Y152067D01*
X325146Y152145D01*
X325080Y152219D01*
X325011Y152291D01*
X324939Y152360D01*
X324865Y152426D01*
X324787Y152490D01*
X324708Y152550D01*
X324626Y152607D01*
X324542Y152661D01*
X324456Y152711D01*
X324368Y152758D01*
X324278Y152802D01*
X324187Y152842D01*
X324094Y152878D01*
X324000Y152911D01*
X323904Y152940D01*
X323808Y152965D01*
X323711Y152986D01*
X323612Y153004D01*
X323514Y153017D01*
X323414Y153027D01*
X323315Y153033D01*
X323215Y153035D01*
X321945Y153035D01*
X321845Y153033D01*
X321746Y153027D01*
X321646Y153017D01*
X321548Y153004D01*
X321449Y152986D01*
X321352Y152965D01*
X321256Y152940D01*
X321160Y152911D01*
X321066Y152878D01*
X320973Y152842D01*
X320882Y152802D01*
X320792Y152758D01*
X320704Y152711D01*
X320618Y152661D01*
X320534Y152607D01*
X320452Y152550D01*
X320373Y152490D01*
X320295Y152426D01*
X320221Y152360D01*
X320149Y152291D01*
X320080Y152219D01*
X320014Y152145D01*
X319950Y152067D01*
X319890Y151988D01*
X319833Y151906D01*
X319779Y151822D01*
X319729Y151736D01*
X319682Y151648D01*
X319638Y151558D01*
X319598Y151467D01*
X319562Y151374D01*
X319529Y151280D01*
X319500Y151184D01*
X319475Y151088D01*
X319454Y150991D01*
X319436Y150892D01*
X319423Y150794D01*
X319413Y150694D01*
X319407Y150595D01*
X319405Y150495D01*
X319405Y146685D01*
X314325Y146685D01*
X314325Y153035D01*
D10*
X355600Y57150D02*
X355600Y44450D01*
X355600Y57150D02*
X361950Y63500D01*
X374650Y63500D02*
X381000Y57150D01*
X361950Y63500D02*
X355600Y69850D01*
X355600Y82550D01*
X361950Y88900D01*
X374650Y88900D02*
X381000Y82550D01*
X381000Y69850D01*
X374650Y63500D01*
X374650Y38100D02*
X361950Y38100D01*
X355600Y44450D01*
X374650Y38100D02*
X381000Y44450D01*
X381000Y57150D01*
X361950Y88900D02*
X355600Y95250D01*
X355600Y107950D01*
X361950Y114300D01*
X374650Y114300D02*
X381000Y107950D01*
X381000Y95250D01*
X374650Y88900D01*
X355600Y120650D02*
X355600Y133350D01*
X361950Y139700D01*
X374650Y139700D02*
X381000Y133350D01*
X361950Y139700D02*
X355600Y146050D01*
X355600Y158750D01*
X361950Y165100D01*
X374650Y165100D01*
X381000Y158750D01*
X381000Y146050D01*
X374650Y139700D01*
X355600Y120650D02*
X361950Y114300D01*
X374650Y114300D02*
X381000Y120650D01*
X381000Y133350D01*
D11*
X385445Y48260D02*
X387985Y45085D01*
X385445Y48260D02*
X396875Y48260D01*
X396875Y45085D02*
X396875Y51435D01*
X351155Y146685D02*
X351155Y150495D01*
X351153Y150595D01*
X351147Y150694D01*
X351137Y150794D01*
X351124Y150892D01*
X351106Y150991D01*
X351085Y151088D01*
X351060Y151184D01*
X351031Y151280D01*
X350998Y151374D01*
X350962Y151467D01*
X350922Y151558D01*
X350878Y151648D01*
X350831Y151736D01*
X350781Y151822D01*
X350727Y151906D01*
X350670Y151988D01*
X350610Y152067D01*
X350546Y152145D01*
X350480Y152219D01*
X350411Y152291D01*
X350339Y152360D01*
X350265Y152426D01*
X350187Y152490D01*
X350108Y152550D01*
X350026Y152607D01*
X349942Y152661D01*
X349856Y152711D01*
X349768Y152758D01*
X349678Y152802D01*
X349587Y152842D01*
X349494Y152878D01*
X349400Y152911D01*
X349304Y152940D01*
X349208Y152965D01*
X349111Y152986D01*
X349012Y153004D01*
X348914Y153017D01*
X348814Y153027D01*
X348715Y153033D01*
X348615Y153035D01*
X347345Y153035D01*
X347245Y153033D01*
X347146Y153027D01*
X347046Y153017D01*
X346948Y153004D01*
X346849Y152986D01*
X346752Y152965D01*
X346656Y152940D01*
X346560Y152911D01*
X346466Y152878D01*
X346373Y152842D01*
X346282Y152802D01*
X346192Y152758D01*
X346104Y152711D01*
X346018Y152661D01*
X345934Y152607D01*
X345852Y152550D01*
X345773Y152490D01*
X345695Y152426D01*
X345621Y152360D01*
X345549Y152291D01*
X345480Y152219D01*
X345414Y152145D01*
X345350Y152067D01*
X345290Y151988D01*
X345233Y151906D01*
X345179Y151822D01*
X345129Y151736D01*
X345082Y151648D01*
X345038Y151558D01*
X344998Y151467D01*
X344962Y151374D01*
X344929Y151280D01*
X344900Y151184D01*
X344875Y151088D01*
X344854Y150991D01*
X344836Y150892D01*
X344823Y150794D01*
X344813Y150694D01*
X344807Y150595D01*
X344805Y150495D01*
X344805Y146685D01*
X339725Y146685D01*
X339725Y153035D01*
D10*
X291230Y8890D02*
X191410Y8890D01*
X291230Y98810D02*
X291230Y100840D01*
X191410Y100840D01*
X191410Y32770D02*
X191410Y8890D01*
X191410Y32770D02*
X207410Y32770D01*
X225190Y32770D02*
X257450Y32770D01*
X275230Y32770D02*
X291230Y32770D01*
X191410Y32770D02*
X191410Y98810D01*
X291230Y32770D02*
X291230Y8890D01*
X291230Y98810D02*
X191410Y98810D01*
X191410Y100840D01*
X291230Y98810D02*
X291230Y32770D01*
X211220Y85598D02*
X211222Y85740D01*
X211228Y85883D01*
X211238Y86025D01*
X211252Y86167D01*
X211270Y86308D01*
X211292Y86449D01*
X211318Y86589D01*
X211347Y86728D01*
X211381Y86867D01*
X211419Y87004D01*
X211460Y87141D01*
X211505Y87276D01*
X211554Y87410D01*
X211607Y87542D01*
X211663Y87673D01*
X211723Y87802D01*
X211787Y87930D01*
X211854Y88055D01*
X211925Y88179D01*
X211999Y88301D01*
X212076Y88420D01*
X212157Y88538D01*
X212241Y88653D01*
X212328Y88765D01*
X212419Y88875D01*
X212512Y88983D01*
X212609Y89088D01*
X212708Y89190D01*
X212810Y89289D01*
X212915Y89386D01*
X213023Y89479D01*
X213133Y89570D01*
X213245Y89657D01*
X213360Y89741D01*
X213478Y89822D01*
X213597Y89899D01*
X213719Y89973D01*
X213843Y90044D01*
X213968Y90111D01*
X214096Y90175D01*
X214225Y90235D01*
X214356Y90291D01*
X214488Y90344D01*
X214622Y90393D01*
X214757Y90438D01*
X214894Y90479D01*
X215031Y90517D01*
X215170Y90551D01*
X215309Y90580D01*
X215449Y90606D01*
X215590Y90628D01*
X215731Y90646D01*
X215873Y90660D01*
X216015Y90670D01*
X216158Y90676D01*
X216300Y90678D01*
X216442Y90676D01*
X216585Y90670D01*
X216727Y90660D01*
X216869Y90646D01*
X217010Y90628D01*
X217151Y90606D01*
X217291Y90580D01*
X217430Y90551D01*
X217569Y90517D01*
X217706Y90479D01*
X217843Y90438D01*
X217978Y90393D01*
X218112Y90344D01*
X218244Y90291D01*
X218375Y90235D01*
X218504Y90175D01*
X218632Y90111D01*
X218757Y90044D01*
X218881Y89973D01*
X219003Y89899D01*
X219122Y89822D01*
X219240Y89741D01*
X219355Y89657D01*
X219467Y89570D01*
X219577Y89479D01*
X219685Y89386D01*
X219790Y89289D01*
X219892Y89190D01*
X219991Y89088D01*
X220088Y88983D01*
X220181Y88875D01*
X220272Y88765D01*
X220359Y88653D01*
X220443Y88538D01*
X220524Y88420D01*
X220601Y88301D01*
X220675Y88179D01*
X220746Y88055D01*
X220813Y87930D01*
X220877Y87802D01*
X220937Y87673D01*
X220993Y87542D01*
X221046Y87410D01*
X221095Y87276D01*
X221140Y87141D01*
X221181Y87004D01*
X221219Y86867D01*
X221253Y86728D01*
X221282Y86589D01*
X221308Y86449D01*
X221330Y86308D01*
X221348Y86167D01*
X221362Y86025D01*
X221372Y85883D01*
X221378Y85740D01*
X221380Y85598D01*
X221378Y85456D01*
X221372Y85313D01*
X221362Y85171D01*
X221348Y85029D01*
X221330Y84888D01*
X221308Y84747D01*
X221282Y84607D01*
X221253Y84468D01*
X221219Y84329D01*
X221181Y84192D01*
X221140Y84055D01*
X221095Y83920D01*
X221046Y83786D01*
X220993Y83654D01*
X220937Y83523D01*
X220877Y83394D01*
X220813Y83266D01*
X220746Y83141D01*
X220675Y83017D01*
X220601Y82895D01*
X220524Y82776D01*
X220443Y82658D01*
X220359Y82543D01*
X220272Y82431D01*
X220181Y82321D01*
X220088Y82213D01*
X219991Y82108D01*
X219892Y82006D01*
X219790Y81907D01*
X219685Y81810D01*
X219577Y81717D01*
X219467Y81626D01*
X219355Y81539D01*
X219240Y81455D01*
X219122Y81374D01*
X219003Y81297D01*
X218881Y81223D01*
X218757Y81152D01*
X218632Y81085D01*
X218504Y81021D01*
X218375Y80961D01*
X218244Y80905D01*
X218112Y80852D01*
X217978Y80803D01*
X217843Y80758D01*
X217706Y80717D01*
X217569Y80679D01*
X217430Y80645D01*
X217291Y80616D01*
X217151Y80590D01*
X217010Y80568D01*
X216869Y80550D01*
X216727Y80536D01*
X216585Y80526D01*
X216442Y80520D01*
X216300Y80518D01*
X216158Y80520D01*
X216015Y80526D01*
X215873Y80536D01*
X215731Y80550D01*
X215590Y80568D01*
X215449Y80590D01*
X215309Y80616D01*
X215170Y80645D01*
X215031Y80679D01*
X214894Y80717D01*
X214757Y80758D01*
X214622Y80803D01*
X214488Y80852D01*
X214356Y80905D01*
X214225Y80961D01*
X214096Y81021D01*
X213968Y81085D01*
X213843Y81152D01*
X213719Y81223D01*
X213597Y81297D01*
X213478Y81374D01*
X213360Y81455D01*
X213245Y81539D01*
X213133Y81626D01*
X213023Y81717D01*
X212915Y81810D01*
X212810Y81907D01*
X212708Y82006D01*
X212609Y82108D01*
X212512Y82213D01*
X212419Y82321D01*
X212328Y82431D01*
X212241Y82543D01*
X212157Y82658D01*
X212076Y82776D01*
X211999Y82895D01*
X211925Y83017D01*
X211854Y83141D01*
X211787Y83266D01*
X211723Y83394D01*
X211663Y83523D01*
X211607Y83654D01*
X211554Y83786D01*
X211505Y83920D01*
X211460Y84055D01*
X211419Y84192D01*
X211381Y84329D01*
X211347Y84468D01*
X211318Y84607D01*
X211292Y84747D01*
X211270Y84888D01*
X211252Y85029D01*
X211238Y85171D01*
X211228Y85313D01*
X211222Y85456D01*
X211220Y85598D01*
X261258Y85598D02*
X261260Y85740D01*
X261266Y85883D01*
X261276Y86025D01*
X261290Y86167D01*
X261308Y86308D01*
X261330Y86449D01*
X261356Y86589D01*
X261385Y86728D01*
X261419Y86867D01*
X261457Y87004D01*
X261498Y87141D01*
X261543Y87276D01*
X261592Y87410D01*
X261645Y87542D01*
X261701Y87673D01*
X261761Y87802D01*
X261825Y87930D01*
X261892Y88055D01*
X261963Y88179D01*
X262037Y88301D01*
X262114Y88420D01*
X262195Y88538D01*
X262279Y88653D01*
X262366Y88765D01*
X262457Y88875D01*
X262550Y88983D01*
X262647Y89088D01*
X262746Y89190D01*
X262848Y89289D01*
X262953Y89386D01*
X263061Y89479D01*
X263171Y89570D01*
X263283Y89657D01*
X263398Y89741D01*
X263516Y89822D01*
X263635Y89899D01*
X263757Y89973D01*
X263881Y90044D01*
X264006Y90111D01*
X264134Y90175D01*
X264263Y90235D01*
X264394Y90291D01*
X264526Y90344D01*
X264660Y90393D01*
X264795Y90438D01*
X264932Y90479D01*
X265069Y90517D01*
X265208Y90551D01*
X265347Y90580D01*
X265487Y90606D01*
X265628Y90628D01*
X265769Y90646D01*
X265911Y90660D01*
X266053Y90670D01*
X266196Y90676D01*
X266338Y90678D01*
X266480Y90676D01*
X266623Y90670D01*
X266765Y90660D01*
X266907Y90646D01*
X267048Y90628D01*
X267189Y90606D01*
X267329Y90580D01*
X267468Y90551D01*
X267607Y90517D01*
X267744Y90479D01*
X267881Y90438D01*
X268016Y90393D01*
X268150Y90344D01*
X268282Y90291D01*
X268413Y90235D01*
X268542Y90175D01*
X268670Y90111D01*
X268795Y90044D01*
X268919Y89973D01*
X269041Y89899D01*
X269160Y89822D01*
X269278Y89741D01*
X269393Y89657D01*
X269505Y89570D01*
X269615Y89479D01*
X269723Y89386D01*
X269828Y89289D01*
X269930Y89190D01*
X270029Y89088D01*
X270126Y88983D01*
X270219Y88875D01*
X270310Y88765D01*
X270397Y88653D01*
X270481Y88538D01*
X270562Y88420D01*
X270639Y88301D01*
X270713Y88179D01*
X270784Y88055D01*
X270851Y87930D01*
X270915Y87802D01*
X270975Y87673D01*
X271031Y87542D01*
X271084Y87410D01*
X271133Y87276D01*
X271178Y87141D01*
X271219Y87004D01*
X271257Y86867D01*
X271291Y86728D01*
X271320Y86589D01*
X271346Y86449D01*
X271368Y86308D01*
X271386Y86167D01*
X271400Y86025D01*
X271410Y85883D01*
X271416Y85740D01*
X271418Y85598D01*
X271416Y85456D01*
X271410Y85313D01*
X271400Y85171D01*
X271386Y85029D01*
X271368Y84888D01*
X271346Y84747D01*
X271320Y84607D01*
X271291Y84468D01*
X271257Y84329D01*
X271219Y84192D01*
X271178Y84055D01*
X271133Y83920D01*
X271084Y83786D01*
X271031Y83654D01*
X270975Y83523D01*
X270915Y83394D01*
X270851Y83266D01*
X270784Y83141D01*
X270713Y83017D01*
X270639Y82895D01*
X270562Y82776D01*
X270481Y82658D01*
X270397Y82543D01*
X270310Y82431D01*
X270219Y82321D01*
X270126Y82213D01*
X270029Y82108D01*
X269930Y82006D01*
X269828Y81907D01*
X269723Y81810D01*
X269615Y81717D01*
X269505Y81626D01*
X269393Y81539D01*
X269278Y81455D01*
X269160Y81374D01*
X269041Y81297D01*
X268919Y81223D01*
X268795Y81152D01*
X268670Y81085D01*
X268542Y81021D01*
X268413Y80961D01*
X268282Y80905D01*
X268150Y80852D01*
X268016Y80803D01*
X267881Y80758D01*
X267744Y80717D01*
X267607Y80679D01*
X267468Y80645D01*
X267329Y80616D01*
X267189Y80590D01*
X267048Y80568D01*
X266907Y80550D01*
X266765Y80536D01*
X266623Y80526D01*
X266480Y80520D01*
X266338Y80518D01*
X266196Y80520D01*
X266053Y80526D01*
X265911Y80536D01*
X265769Y80550D01*
X265628Y80568D01*
X265487Y80590D01*
X265347Y80616D01*
X265208Y80645D01*
X265069Y80679D01*
X264932Y80717D01*
X264795Y80758D01*
X264660Y80803D01*
X264526Y80852D01*
X264394Y80905D01*
X264263Y80961D01*
X264134Y81021D01*
X264006Y81085D01*
X263881Y81152D01*
X263757Y81223D01*
X263635Y81297D01*
X263516Y81374D01*
X263398Y81455D01*
X263283Y81539D01*
X263171Y81626D01*
X263061Y81717D01*
X262953Y81810D01*
X262848Y81907D01*
X262746Y82006D01*
X262647Y82108D01*
X262550Y82213D01*
X262457Y82321D01*
X262366Y82431D01*
X262279Y82543D01*
X262195Y82658D01*
X262114Y82776D01*
X262037Y82895D01*
X261963Y83017D01*
X261892Y83141D01*
X261825Y83266D01*
X261761Y83394D01*
X261701Y83523D01*
X261645Y83654D01*
X261592Y83786D01*
X261543Y83920D01*
X261498Y84055D01*
X261457Y84192D01*
X261419Y84329D01*
X261385Y84468D01*
X261356Y84607D01*
X261330Y84747D01*
X261308Y84888D01*
X261290Y85029D01*
X261276Y85171D01*
X261266Y85313D01*
X261260Y85456D01*
X261258Y85598D01*
D11*
X199790Y81915D02*
X196615Y79375D01*
X199790Y81915D02*
X199790Y70485D01*
X196615Y70485D02*
X202965Y70485D01*
X249638Y81916D02*
X249742Y81914D01*
X249847Y81908D01*
X249951Y81899D01*
X250054Y81886D01*
X250157Y81868D01*
X250259Y81848D01*
X250361Y81823D01*
X250461Y81795D01*
X250561Y81763D01*
X250659Y81727D01*
X250756Y81688D01*
X250851Y81646D01*
X250945Y81600D01*
X251037Y81550D01*
X251127Y81498D01*
X251215Y81442D01*
X251301Y81382D01*
X251385Y81320D01*
X251466Y81255D01*
X251545Y81187D01*
X251622Y81115D01*
X251695Y81042D01*
X251767Y80965D01*
X251835Y80886D01*
X251900Y80805D01*
X251962Y80721D01*
X252022Y80635D01*
X252078Y80547D01*
X252130Y80457D01*
X252180Y80365D01*
X252226Y80271D01*
X252268Y80176D01*
X252307Y80079D01*
X252343Y79981D01*
X252375Y79881D01*
X252403Y79781D01*
X252428Y79679D01*
X252448Y79577D01*
X252466Y79474D01*
X252479Y79371D01*
X252488Y79267D01*
X252494Y79162D01*
X252496Y79058D01*
X249638Y81915D02*
X249520Y81913D01*
X249401Y81907D01*
X249283Y81898D01*
X249166Y81885D01*
X249049Y81867D01*
X248932Y81847D01*
X248816Y81822D01*
X248701Y81794D01*
X248588Y81761D01*
X248475Y81726D01*
X248363Y81686D01*
X248253Y81644D01*
X248144Y81597D01*
X248036Y81547D01*
X247931Y81494D01*
X247827Y81437D01*
X247725Y81377D01*
X247625Y81314D01*
X247527Y81247D01*
X247431Y81178D01*
X247338Y81105D01*
X247247Y81029D01*
X247158Y80951D01*
X247072Y80869D01*
X246989Y80785D01*
X246908Y80699D01*
X246831Y80609D01*
X246756Y80518D01*
X246684Y80424D01*
X246615Y80327D01*
X246550Y80229D01*
X246487Y80128D01*
X246428Y80025D01*
X246372Y79921D01*
X246320Y79815D01*
X246271Y79707D01*
X246226Y79598D01*
X246184Y79487D01*
X246146Y79375D01*
X251543Y76836D02*
X251619Y76911D01*
X251694Y76990D01*
X251765Y77071D01*
X251834Y77155D01*
X251899Y77241D01*
X251961Y77329D01*
X252021Y77419D01*
X252077Y77511D01*
X252130Y77606D01*
X252179Y77702D01*
X252225Y77800D01*
X252268Y77899D01*
X252307Y78000D01*
X252342Y78102D01*
X252374Y78205D01*
X252402Y78309D01*
X252427Y78414D01*
X252448Y78521D01*
X252465Y78627D01*
X252478Y78734D01*
X252487Y78842D01*
X252493Y78950D01*
X252495Y79058D01*
X251543Y76835D02*
X246145Y70485D01*
X252495Y70485D01*
D12*
X65850Y57150D02*
X65850Y44450D01*
X-6900Y600D02*
X-6900Y202600D01*
X83100Y202600D02*
X83100Y123600D01*
X83100Y79600D01*
X83100Y600D01*
X-5900Y600D01*
X-6900Y202600D02*
X83100Y202600D01*
X83100Y79600D02*
X68100Y79600D01*
X68100Y123600D01*
X83100Y123600D01*
X472250Y57150D02*
X472250Y44450D01*
X399500Y600D02*
X399500Y202600D01*
X489500Y202600D02*
X489500Y123600D01*
X489500Y79600D01*
X489500Y600D01*
X400500Y600D01*
X399500Y202600D02*
X489500Y202600D01*
X489500Y79600D02*
X474500Y79600D01*
X474500Y123600D01*
X489500Y123600D01*
M02*
