G04 EAGLE Gerber X2 export*
%TF.Part,Single*%
%TF.FileFunction,Other,Top Copper*%
%TF.FilePolarity,Positive*%
%TF.GenerationSoftware,Autodesk,EAGLE,8.7.1*%
%TF.CreationDate,2018-03-29T20:09:45Z*%
G75*
%MOMM*%
%FSLAX34Y34*%
%LPD*%
%AMOC8*
5,1,8,0,0,1.08239X$1,22.5*%
G01*
%ADD10P,1.649562X8X22.500000*%
%ADD11P,1.649562X8X202.500000*%
%ADD12P,1.938236X8X112.500000*%
%ADD13P,2.034460X8X112.500000*%
%ADD14C,0.203200*%

G36*
X469956Y2549D02*
X469956Y2549D01*
X470000Y2546D01*
X471276Y2671D01*
X471552Y2739D01*
X471559Y2742D01*
X471565Y2744D01*
X473924Y3721D01*
X473951Y3737D01*
X473980Y3746D01*
X474044Y3792D01*
X474169Y3865D01*
X474213Y3912D01*
X474254Y3941D01*
X476059Y5746D01*
X476078Y5771D01*
X476101Y5791D01*
X476143Y5858D01*
X476230Y5974D01*
X476253Y6034D01*
X476279Y6076D01*
X477256Y8435D01*
X477327Y8710D01*
X477327Y8718D01*
X477329Y8724D01*
X477454Y10000D01*
X477452Y10057D01*
X477459Y10100D01*
X477459Y203200D01*
X477449Y203276D01*
X477451Y203333D01*
X477340Y204172D01*
X477332Y204202D01*
X477330Y204233D01*
X477303Y204306D01*
X477264Y204446D01*
X477230Y204501D01*
X477213Y204547D01*
X476373Y206001D01*
X476313Y206078D01*
X476260Y206159D01*
X476229Y206185D01*
X476198Y206225D01*
X476058Y206326D01*
X476001Y206373D01*
X474547Y207213D01*
X474519Y207224D01*
X474493Y207242D01*
X474418Y207265D01*
X474284Y207319D01*
X474219Y207326D01*
X474172Y207340D01*
X473333Y207451D01*
X473256Y207450D01*
X473200Y207459D01*
X6800Y207459D01*
X6724Y207449D01*
X6668Y207451D01*
X5828Y207340D01*
X5798Y207332D01*
X5767Y207330D01*
X5694Y207303D01*
X5554Y207264D01*
X5499Y207230D01*
X5453Y207213D01*
X3999Y206373D01*
X3922Y206313D01*
X3841Y206260D01*
X3815Y206229D01*
X3775Y206198D01*
X3674Y206058D01*
X3627Y206001D01*
X2787Y204547D01*
X2776Y204519D01*
X2758Y204493D01*
X2735Y204418D01*
X2681Y204284D01*
X2674Y204219D01*
X2660Y204172D01*
X2549Y203333D01*
X2550Y203256D01*
X2541Y203200D01*
X2541Y12700D01*
X2549Y12644D01*
X2546Y12600D01*
X2721Y10817D01*
X2789Y10540D01*
X2792Y10534D01*
X2794Y10528D01*
X4159Y7231D01*
X4175Y7205D01*
X4184Y7175D01*
X4230Y7111D01*
X4304Y6987D01*
X4307Y6983D01*
X4308Y6981D01*
X4352Y6941D01*
X4379Y6902D01*
X6902Y4379D01*
X6927Y4361D01*
X6947Y4337D01*
X7014Y4295D01*
X7129Y4208D01*
X7189Y4185D01*
X7231Y4159D01*
X10528Y2794D01*
X10803Y2723D01*
X10810Y2723D01*
X10817Y2721D01*
X12600Y2546D01*
X12657Y2548D01*
X12700Y2541D01*
X469900Y2541D01*
X469956Y2549D01*
G37*
%LPC*%
G36*
X416567Y35051D02*
X416567Y35051D01*
X404165Y47454D01*
X404095Y47506D01*
X404031Y47566D01*
X403981Y47592D01*
X403937Y47625D01*
X403856Y47656D01*
X403778Y47696D01*
X403730Y47704D01*
X403672Y47726D01*
X403524Y47738D01*
X403447Y47751D01*
X378968Y47751D01*
X378910Y47743D01*
X378852Y47745D01*
X378770Y47723D01*
X378686Y47711D01*
X378633Y47688D01*
X378577Y47673D01*
X378504Y47630D01*
X378427Y47595D01*
X378382Y47557D01*
X378332Y47528D01*
X378274Y47466D01*
X378210Y47412D01*
X378178Y47363D01*
X378138Y47320D01*
X378099Y47245D01*
X378052Y47175D01*
X378035Y47119D01*
X378008Y47067D01*
X377997Y46999D01*
X377967Y46904D01*
X377964Y46813D01*
X372298Y41147D01*
X364302Y41147D01*
X358647Y46802D01*
X358647Y54798D01*
X364302Y60453D01*
X372298Y60453D01*
X377961Y54791D01*
X377959Y54748D01*
X377981Y54666D01*
X377993Y54582D01*
X378016Y54529D01*
X378031Y54473D01*
X378074Y54400D01*
X378109Y54323D01*
X378147Y54278D01*
X378176Y54228D01*
X378238Y54170D01*
X378292Y54106D01*
X378341Y54074D01*
X378384Y54034D01*
X378459Y53995D01*
X378529Y53948D01*
X378585Y53931D01*
X378637Y53904D01*
X378705Y53893D01*
X378800Y53863D01*
X378900Y53860D01*
X378968Y53849D01*
X406393Y53849D01*
X418795Y41446D01*
X418865Y41394D01*
X418929Y41334D01*
X418979Y41308D01*
X419023Y41275D01*
X419104Y41244D01*
X419182Y41204D01*
X419230Y41196D01*
X419288Y41174D01*
X419436Y41162D01*
X419513Y41149D01*
X422116Y41149D01*
X422145Y41153D01*
X422175Y41150D01*
X422286Y41173D01*
X422398Y41189D01*
X422425Y41201D01*
X422453Y41206D01*
X422554Y41259D01*
X422657Y41305D01*
X422680Y41324D01*
X422706Y41337D01*
X422788Y41415D01*
X422874Y41488D01*
X422891Y41513D01*
X422912Y41533D01*
X422969Y41631D01*
X423032Y41725D01*
X423041Y41753D01*
X423056Y41778D01*
X423083Y41888D01*
X423118Y41996D01*
X423118Y42026D01*
X423126Y42054D01*
X423122Y42167D01*
X423125Y42280D01*
X423118Y42309D01*
X423117Y42338D01*
X423082Y42446D01*
X423053Y42555D01*
X423038Y42581D01*
X423029Y42609D01*
X422984Y42672D01*
X422908Y42800D01*
X422862Y42843D01*
X422834Y42882D01*
X419861Y45855D01*
X419861Y48769D01*
X430784Y48769D01*
X430842Y48777D01*
X430900Y48775D01*
X430982Y48797D01*
X431065Y48809D01*
X431119Y48833D01*
X431175Y48847D01*
X431248Y48890D01*
X431325Y48925D01*
X431369Y48963D01*
X431420Y48993D01*
X431477Y49054D01*
X431542Y49109D01*
X431574Y49157D01*
X431614Y49200D01*
X431653Y49275D01*
X431699Y49345D01*
X431717Y49401D01*
X431744Y49453D01*
X431755Y49521D01*
X431785Y49616D01*
X431788Y49716D01*
X431799Y49784D01*
X431799Y51816D01*
X431791Y51874D01*
X431792Y51932D01*
X431771Y52014D01*
X431759Y52097D01*
X431735Y52151D01*
X431721Y52207D01*
X431678Y52280D01*
X431643Y52357D01*
X431605Y52402D01*
X431575Y52452D01*
X431514Y52510D01*
X431459Y52574D01*
X431411Y52606D01*
X431368Y52646D01*
X431293Y52685D01*
X431223Y52731D01*
X431167Y52749D01*
X431115Y52776D01*
X431047Y52787D01*
X430952Y52817D01*
X430852Y52820D01*
X430784Y52831D01*
X419861Y52831D01*
X419861Y55745D01*
X422834Y58718D01*
X422852Y58742D01*
X422874Y58761D01*
X422937Y58855D01*
X423005Y58945D01*
X423016Y58973D01*
X423032Y58997D01*
X423066Y59105D01*
X423106Y59211D01*
X423109Y59240D01*
X423118Y59268D01*
X423121Y59382D01*
X423130Y59494D01*
X423124Y59523D01*
X423125Y59552D01*
X423096Y59662D01*
X423074Y59773D01*
X423061Y59799D01*
X423053Y59827D01*
X422995Y59925D01*
X422943Y60025D01*
X422923Y60047D01*
X422908Y60072D01*
X422825Y60149D01*
X422747Y60231D01*
X422722Y60246D01*
X422701Y60266D01*
X422600Y60318D01*
X422502Y60375D01*
X422474Y60382D01*
X422447Y60396D01*
X422370Y60409D01*
X422226Y60445D01*
X422164Y60443D01*
X422116Y60451D01*
X416567Y60451D01*
X404165Y72854D01*
X404095Y72906D01*
X404031Y72966D01*
X403981Y72992D01*
X403937Y73025D01*
X403856Y73056D01*
X403778Y73096D01*
X403730Y73104D01*
X403672Y73126D01*
X403524Y73138D01*
X403447Y73151D01*
X378968Y73151D01*
X378910Y73143D01*
X378852Y73145D01*
X378770Y73123D01*
X378686Y73111D01*
X378633Y73088D01*
X378577Y73073D01*
X378504Y73030D01*
X378427Y72995D01*
X378382Y72957D01*
X378332Y72928D01*
X378274Y72866D01*
X378210Y72812D01*
X378178Y72763D01*
X378138Y72720D01*
X378099Y72645D01*
X378052Y72575D01*
X378035Y72519D01*
X378008Y72467D01*
X377997Y72399D01*
X377967Y72304D01*
X377964Y72213D01*
X372298Y66547D01*
X364302Y66547D01*
X358647Y72202D01*
X358647Y80198D01*
X364302Y85853D01*
X372298Y85853D01*
X377961Y80191D01*
X377959Y80148D01*
X377981Y80066D01*
X377993Y79982D01*
X378016Y79929D01*
X378031Y79873D01*
X378074Y79800D01*
X378109Y79723D01*
X378147Y79678D01*
X378176Y79628D01*
X378238Y79570D01*
X378292Y79506D01*
X378341Y79474D01*
X378384Y79434D01*
X378459Y79395D01*
X378529Y79348D01*
X378585Y79331D01*
X378637Y79304D01*
X378705Y79293D01*
X378800Y79263D01*
X378900Y79260D01*
X378968Y79249D01*
X406393Y79249D01*
X418795Y66846D01*
X418865Y66794D01*
X418929Y66734D01*
X418979Y66708D01*
X419023Y66675D01*
X419104Y66644D01*
X419182Y66604D01*
X419230Y66596D01*
X419288Y66574D01*
X419436Y66562D01*
X419513Y66549D01*
X422116Y66549D01*
X422145Y66553D01*
X422175Y66550D01*
X422286Y66573D01*
X422398Y66589D01*
X422425Y66601D01*
X422453Y66606D01*
X422554Y66659D01*
X422657Y66705D01*
X422680Y66724D01*
X422706Y66737D01*
X422788Y66815D01*
X422874Y66888D01*
X422891Y66913D01*
X422912Y66933D01*
X422969Y67031D01*
X423032Y67125D01*
X423041Y67153D01*
X423056Y67178D01*
X423083Y67288D01*
X423118Y67396D01*
X423118Y67426D01*
X423126Y67454D01*
X423122Y67567D01*
X423125Y67680D01*
X423118Y67709D01*
X423117Y67738D01*
X423082Y67846D01*
X423053Y67955D01*
X423038Y67981D01*
X423029Y68009D01*
X422984Y68072D01*
X422908Y68200D01*
X422862Y68243D01*
X422834Y68282D01*
X419861Y71255D01*
X419861Y74169D01*
X430784Y74169D01*
X430842Y74177D01*
X430900Y74175D01*
X430982Y74197D01*
X431065Y74209D01*
X431119Y74233D01*
X431175Y74247D01*
X431248Y74290D01*
X431325Y74325D01*
X431369Y74363D01*
X431420Y74393D01*
X431477Y74454D01*
X431542Y74509D01*
X431574Y74557D01*
X431614Y74600D01*
X431653Y74675D01*
X431699Y74745D01*
X431717Y74801D01*
X431744Y74853D01*
X431755Y74921D01*
X431785Y75016D01*
X431788Y75116D01*
X431799Y75184D01*
X431799Y77216D01*
X431791Y77274D01*
X431792Y77332D01*
X431771Y77414D01*
X431759Y77497D01*
X431735Y77551D01*
X431721Y77607D01*
X431678Y77680D01*
X431643Y77757D01*
X431605Y77802D01*
X431575Y77852D01*
X431514Y77910D01*
X431459Y77974D01*
X431411Y78006D01*
X431368Y78046D01*
X431293Y78085D01*
X431223Y78131D01*
X431167Y78149D01*
X431115Y78176D01*
X431047Y78187D01*
X430952Y78217D01*
X430852Y78220D01*
X430784Y78231D01*
X419861Y78231D01*
X419861Y81145D01*
X422834Y84118D01*
X422852Y84142D01*
X422874Y84161D01*
X422937Y84255D01*
X423005Y84345D01*
X423016Y84373D01*
X423032Y84397D01*
X423066Y84505D01*
X423106Y84611D01*
X423109Y84640D01*
X423118Y84668D01*
X423121Y84782D01*
X423130Y84894D01*
X423124Y84923D01*
X423125Y84952D01*
X423096Y85062D01*
X423074Y85173D01*
X423061Y85199D01*
X423053Y85227D01*
X422995Y85325D01*
X422943Y85425D01*
X422923Y85447D01*
X422908Y85472D01*
X422825Y85549D01*
X422747Y85631D01*
X422722Y85646D01*
X422701Y85666D01*
X422600Y85718D01*
X422502Y85775D01*
X422474Y85782D01*
X422447Y85796D01*
X422370Y85809D01*
X422226Y85845D01*
X422164Y85843D01*
X422116Y85851D01*
X416567Y85851D01*
X404165Y98254D01*
X404095Y98306D01*
X404031Y98366D01*
X403981Y98392D01*
X403937Y98425D01*
X403856Y98456D01*
X403778Y98496D01*
X403730Y98504D01*
X403672Y98526D01*
X403524Y98538D01*
X403447Y98551D01*
X378968Y98551D01*
X378910Y98543D01*
X378852Y98545D01*
X378770Y98523D01*
X378686Y98511D01*
X378633Y98488D01*
X378577Y98473D01*
X378504Y98430D01*
X378427Y98395D01*
X378382Y98357D01*
X378332Y98328D01*
X378274Y98266D01*
X378210Y98212D01*
X378178Y98163D01*
X378138Y98120D01*
X378099Y98045D01*
X378052Y97975D01*
X378035Y97919D01*
X378008Y97867D01*
X377997Y97799D01*
X377967Y97704D01*
X377964Y97613D01*
X372298Y91947D01*
X364302Y91947D01*
X358647Y97602D01*
X358647Y105598D01*
X364302Y111253D01*
X372298Y111253D01*
X377961Y105591D01*
X377959Y105548D01*
X377981Y105466D01*
X377993Y105382D01*
X378016Y105329D01*
X378031Y105273D01*
X378074Y105200D01*
X378109Y105123D01*
X378147Y105078D01*
X378176Y105028D01*
X378238Y104970D01*
X378292Y104906D01*
X378341Y104874D01*
X378384Y104834D01*
X378459Y104795D01*
X378529Y104748D01*
X378585Y104731D01*
X378637Y104704D01*
X378705Y104693D01*
X378800Y104663D01*
X378900Y104660D01*
X378968Y104649D01*
X406393Y104649D01*
X418795Y92246D01*
X418865Y92194D01*
X418929Y92134D01*
X418979Y92108D01*
X419023Y92075D01*
X419104Y92044D01*
X419182Y92004D01*
X419230Y91996D01*
X419288Y91974D01*
X419436Y91962D01*
X419513Y91949D01*
X422116Y91949D01*
X422145Y91953D01*
X422175Y91950D01*
X422286Y91973D01*
X422398Y91989D01*
X422425Y92001D01*
X422453Y92006D01*
X422554Y92059D01*
X422657Y92105D01*
X422680Y92124D01*
X422706Y92137D01*
X422788Y92215D01*
X422874Y92288D01*
X422891Y92313D01*
X422912Y92333D01*
X422969Y92431D01*
X423032Y92525D01*
X423041Y92553D01*
X423056Y92578D01*
X423083Y92688D01*
X423118Y92796D01*
X423118Y92826D01*
X423126Y92854D01*
X423122Y92967D01*
X423125Y93080D01*
X423118Y93109D01*
X423117Y93138D01*
X423082Y93246D01*
X423053Y93355D01*
X423038Y93381D01*
X423029Y93409D01*
X422984Y93472D01*
X422908Y93600D01*
X422862Y93643D01*
X422834Y93682D01*
X419861Y96655D01*
X419861Y99569D01*
X430784Y99569D01*
X430842Y99577D01*
X430900Y99575D01*
X430982Y99597D01*
X431065Y99609D01*
X431119Y99633D01*
X431175Y99647D01*
X431248Y99690D01*
X431325Y99725D01*
X431369Y99763D01*
X431420Y99793D01*
X431477Y99854D01*
X431542Y99909D01*
X431574Y99957D01*
X431614Y100000D01*
X431653Y100075D01*
X431699Y100145D01*
X431717Y100201D01*
X431744Y100253D01*
X431755Y100321D01*
X431785Y100416D01*
X431788Y100516D01*
X431799Y100584D01*
X431799Y102616D01*
X431791Y102674D01*
X431792Y102732D01*
X431771Y102814D01*
X431759Y102897D01*
X431735Y102951D01*
X431721Y103007D01*
X431678Y103080D01*
X431643Y103157D01*
X431605Y103202D01*
X431575Y103252D01*
X431514Y103310D01*
X431459Y103374D01*
X431411Y103406D01*
X431368Y103446D01*
X431293Y103485D01*
X431223Y103531D01*
X431167Y103549D01*
X431115Y103576D01*
X431047Y103587D01*
X430952Y103617D01*
X430852Y103620D01*
X430784Y103631D01*
X419861Y103631D01*
X419861Y106545D01*
X423749Y110433D01*
X423784Y110479D01*
X423826Y110520D01*
X423869Y110592D01*
X423920Y110660D01*
X423940Y110714D01*
X423970Y110765D01*
X423991Y110847D01*
X424021Y110925D01*
X424026Y110984D01*
X424040Y111040D01*
X424037Y111125D01*
X424044Y111209D01*
X424033Y111266D01*
X424031Y111325D01*
X424005Y111405D01*
X423989Y111488D01*
X423962Y111539D01*
X423944Y111595D01*
X423904Y111651D01*
X423858Y111740D01*
X423813Y111786D01*
X423800Y111808D01*
X423774Y111833D01*
X423749Y111868D01*
X411963Y123654D01*
X411893Y123706D01*
X411830Y123766D01*
X411780Y123792D01*
X411736Y123825D01*
X411654Y123856D01*
X411576Y123896D01*
X411529Y123904D01*
X411470Y123926D01*
X411323Y123938D01*
X411245Y123951D01*
X378968Y123951D01*
X378910Y123943D01*
X378852Y123945D01*
X378770Y123923D01*
X378686Y123911D01*
X378633Y123888D01*
X378577Y123873D01*
X378504Y123830D01*
X378427Y123795D01*
X378382Y123757D01*
X378332Y123728D01*
X378274Y123666D01*
X378210Y123612D01*
X378178Y123563D01*
X378138Y123520D01*
X378099Y123445D01*
X378052Y123375D01*
X378035Y123319D01*
X378008Y123267D01*
X377997Y123199D01*
X377967Y123104D01*
X377964Y123013D01*
X372298Y117347D01*
X364302Y117347D01*
X358647Y123002D01*
X358647Y130998D01*
X364302Y136653D01*
X372298Y136653D01*
X377961Y130991D01*
X377959Y130948D01*
X377981Y130866D01*
X377993Y130782D01*
X378016Y130729D01*
X378031Y130673D01*
X378074Y130600D01*
X378109Y130523D01*
X378147Y130478D01*
X378176Y130428D01*
X378238Y130370D01*
X378292Y130306D01*
X378341Y130274D01*
X378384Y130234D01*
X378459Y130195D01*
X378529Y130148D01*
X378585Y130131D01*
X378637Y130104D01*
X378705Y130093D01*
X378800Y130063D01*
X378900Y130060D01*
X378968Y130049D01*
X414192Y130049D01*
X418974Y125266D01*
X419044Y125214D01*
X419108Y125154D01*
X419157Y125128D01*
X419201Y125095D01*
X419283Y125064D01*
X419361Y125024D01*
X419409Y125016D01*
X419467Y124994D01*
X419615Y124982D01*
X419692Y124969D01*
X430784Y124969D01*
X430842Y124977D01*
X430900Y124975D01*
X430982Y124997D01*
X431065Y125009D01*
X431119Y125033D01*
X431175Y125047D01*
X431248Y125090D01*
X431325Y125125D01*
X431369Y125163D01*
X431420Y125193D01*
X431477Y125254D01*
X431542Y125309D01*
X431574Y125357D01*
X431614Y125400D01*
X431653Y125475D01*
X431699Y125545D01*
X431717Y125601D01*
X431744Y125653D01*
X431755Y125721D01*
X431785Y125816D01*
X431788Y125916D01*
X431799Y125984D01*
X431799Y128016D01*
X431791Y128074D01*
X431792Y128132D01*
X431771Y128214D01*
X431759Y128297D01*
X431735Y128351D01*
X431721Y128407D01*
X431678Y128480D01*
X431643Y128557D01*
X431605Y128602D01*
X431575Y128652D01*
X431514Y128710D01*
X431459Y128774D01*
X431411Y128806D01*
X431368Y128846D01*
X431293Y128885D01*
X431223Y128931D01*
X431167Y128949D01*
X431115Y128976D01*
X431047Y128987D01*
X430952Y129017D01*
X430852Y129020D01*
X430784Y129031D01*
X419861Y129031D01*
X419861Y131945D01*
X422834Y134918D01*
X422852Y134942D01*
X422874Y134961D01*
X422937Y135055D01*
X423005Y135145D01*
X423016Y135173D01*
X423032Y135197D01*
X423066Y135305D01*
X423106Y135411D01*
X423109Y135440D01*
X423118Y135468D01*
X423121Y135582D01*
X423130Y135694D01*
X423124Y135723D01*
X423125Y135752D01*
X423096Y135862D01*
X423074Y135973D01*
X423061Y135999D01*
X423053Y136027D01*
X422995Y136125D01*
X422943Y136225D01*
X422923Y136247D01*
X422908Y136272D01*
X422825Y136349D01*
X422747Y136431D01*
X422722Y136446D01*
X422701Y136466D01*
X422600Y136518D01*
X422502Y136575D01*
X422474Y136582D01*
X422447Y136596D01*
X422370Y136609D01*
X422226Y136645D01*
X422164Y136643D01*
X422116Y136651D01*
X416567Y136651D01*
X404165Y149054D01*
X404095Y149106D01*
X404031Y149166D01*
X403981Y149192D01*
X403937Y149225D01*
X403856Y149256D01*
X403778Y149296D01*
X403730Y149304D01*
X403672Y149326D01*
X403524Y149338D01*
X403447Y149351D01*
X378968Y149351D01*
X378910Y149343D01*
X378852Y149345D01*
X378770Y149323D01*
X378686Y149311D01*
X378633Y149288D01*
X378577Y149273D01*
X378504Y149230D01*
X378427Y149195D01*
X378382Y149157D01*
X378332Y149128D01*
X378274Y149066D01*
X378210Y149012D01*
X378178Y148963D01*
X378138Y148920D01*
X378099Y148845D01*
X378052Y148775D01*
X378035Y148719D01*
X378008Y148667D01*
X377997Y148599D01*
X377967Y148504D01*
X377964Y148413D01*
X372298Y142747D01*
X364302Y142747D01*
X358647Y148402D01*
X358647Y156398D01*
X364302Y162053D01*
X372298Y162053D01*
X377961Y156391D01*
X377959Y156348D01*
X377981Y156266D01*
X377993Y156182D01*
X378016Y156129D01*
X378031Y156073D01*
X378074Y156000D01*
X378109Y155923D01*
X378147Y155878D01*
X378176Y155828D01*
X378238Y155770D01*
X378292Y155706D01*
X378341Y155674D01*
X378384Y155634D01*
X378459Y155595D01*
X378529Y155548D01*
X378585Y155531D01*
X378637Y155504D01*
X378705Y155493D01*
X378800Y155463D01*
X378900Y155460D01*
X378968Y155449D01*
X406393Y155449D01*
X418795Y143046D01*
X418865Y142994D01*
X418929Y142934D01*
X418979Y142908D01*
X419023Y142875D01*
X419104Y142844D01*
X419182Y142804D01*
X419230Y142796D01*
X419288Y142774D01*
X419436Y142762D01*
X419513Y142749D01*
X422116Y142749D01*
X422145Y142753D01*
X422175Y142750D01*
X422286Y142773D01*
X422398Y142789D01*
X422425Y142801D01*
X422453Y142806D01*
X422554Y142859D01*
X422657Y142905D01*
X422680Y142924D01*
X422706Y142937D01*
X422788Y143015D01*
X422874Y143088D01*
X422891Y143113D01*
X422912Y143133D01*
X422969Y143231D01*
X423032Y143325D01*
X423041Y143353D01*
X423056Y143378D01*
X423083Y143488D01*
X423118Y143596D01*
X423118Y143626D01*
X423126Y143654D01*
X423122Y143767D01*
X423125Y143880D01*
X423118Y143909D01*
X423117Y143938D01*
X423082Y144046D01*
X423053Y144155D01*
X423038Y144181D01*
X423029Y144209D01*
X422984Y144272D01*
X422908Y144400D01*
X422862Y144443D01*
X422834Y144482D01*
X419861Y147455D01*
X419861Y150369D01*
X430784Y150369D01*
X430842Y150377D01*
X430900Y150375D01*
X430982Y150397D01*
X431065Y150409D01*
X431119Y150433D01*
X431175Y150447D01*
X431248Y150490D01*
X431325Y150525D01*
X431369Y150563D01*
X431420Y150593D01*
X431477Y150654D01*
X431542Y150709D01*
X431574Y150757D01*
X431614Y150800D01*
X431653Y150875D01*
X431699Y150945D01*
X431717Y151001D01*
X431744Y151053D01*
X431755Y151121D01*
X431785Y151216D01*
X431788Y151316D01*
X431799Y151384D01*
X431799Y152401D01*
X431801Y152401D01*
X431801Y151384D01*
X431809Y151326D01*
X431808Y151268D01*
X431829Y151186D01*
X431841Y151103D01*
X431865Y151049D01*
X431879Y150993D01*
X431922Y150920D01*
X431957Y150843D01*
X431995Y150798D01*
X432025Y150748D01*
X432086Y150690D01*
X432141Y150626D01*
X432189Y150594D01*
X432232Y150554D01*
X432307Y150515D01*
X432377Y150469D01*
X432433Y150451D01*
X432485Y150424D01*
X432553Y150413D01*
X432648Y150383D01*
X432748Y150380D01*
X432816Y150369D01*
X443739Y150369D01*
X443739Y147455D01*
X440766Y144482D01*
X440748Y144458D01*
X440726Y144439D01*
X440663Y144345D01*
X440595Y144255D01*
X440584Y144227D01*
X440568Y144203D01*
X440534Y144095D01*
X440494Y143989D01*
X440491Y143960D01*
X440482Y143932D01*
X440479Y143818D01*
X440470Y143706D01*
X440476Y143677D01*
X440475Y143648D01*
X440504Y143538D01*
X440526Y143427D01*
X440539Y143401D01*
X440547Y143373D01*
X440605Y143275D01*
X440657Y143175D01*
X440677Y143153D01*
X440692Y143128D01*
X440775Y143051D01*
X440853Y142969D01*
X440878Y142954D01*
X440899Y142934D01*
X441000Y142882D01*
X441098Y142825D01*
X441126Y142818D01*
X441153Y142804D01*
X441230Y142791D01*
X441374Y142755D01*
X441430Y142757D01*
X441437Y142755D01*
X441446Y142755D01*
X441484Y142749D01*
X441547Y142749D01*
X441633Y142761D01*
X441721Y142764D01*
X441773Y142781D01*
X441828Y142789D01*
X441908Y142824D01*
X441991Y142851D01*
X442030Y142879D01*
X442088Y142905D01*
X442201Y143001D01*
X442265Y143046D01*
X445609Y146390D01*
X445644Y146437D01*
X445686Y146477D01*
X445729Y146550D01*
X445779Y146617D01*
X445800Y146672D01*
X445830Y146722D01*
X445851Y146804D01*
X445881Y146883D01*
X445886Y146941D01*
X445900Y146998D01*
X445897Y147082D01*
X445904Y147166D01*
X445893Y147224D01*
X445891Y147282D01*
X445865Y147362D01*
X445848Y147445D01*
X445821Y147497D01*
X445803Y147553D01*
X445769Y147601D01*
X445769Y157135D01*
X452465Y163831D01*
X461935Y163831D01*
X468631Y157135D01*
X468631Y147665D01*
X461935Y140969D01*
X452465Y140969D01*
X451356Y142079D01*
X451309Y142114D01*
X451269Y142156D01*
X451196Y142199D01*
X451129Y142249D01*
X451074Y142270D01*
X451024Y142300D01*
X450942Y142321D01*
X450863Y142351D01*
X450805Y142356D01*
X450748Y142370D01*
X450664Y142367D01*
X450580Y142374D01*
X450522Y142363D01*
X450464Y142361D01*
X450384Y142335D01*
X450301Y142318D01*
X450249Y142291D01*
X450193Y142273D01*
X450137Y142233D01*
X450049Y142187D01*
X449976Y142119D01*
X449920Y142079D01*
X444493Y136651D01*
X441484Y136651D01*
X441455Y136647D01*
X441425Y136650D01*
X441314Y136627D01*
X441202Y136611D01*
X441175Y136599D01*
X441147Y136594D01*
X441046Y136541D01*
X440943Y136495D01*
X440920Y136476D01*
X440894Y136463D01*
X440812Y136385D01*
X440726Y136312D01*
X440709Y136287D01*
X440688Y136267D01*
X440631Y136169D01*
X440568Y136075D01*
X440559Y136047D01*
X440544Y136022D01*
X440517Y135912D01*
X440482Y135804D01*
X440482Y135774D01*
X440474Y135746D01*
X440478Y135633D01*
X440475Y135520D01*
X440482Y135491D01*
X440483Y135462D01*
X440518Y135354D01*
X440547Y135245D01*
X440562Y135219D01*
X440571Y135191D01*
X440616Y135128D01*
X440692Y135000D01*
X440738Y134957D01*
X440766Y134918D01*
X443739Y131945D01*
X443739Y129031D01*
X432816Y129031D01*
X432758Y129023D01*
X432700Y129025D01*
X432618Y129003D01*
X432535Y128991D01*
X432481Y128967D01*
X432425Y128953D01*
X432352Y128910D01*
X432275Y128875D01*
X432231Y128837D01*
X432180Y128807D01*
X432123Y128746D01*
X432058Y128691D01*
X432026Y128643D01*
X431986Y128600D01*
X431947Y128525D01*
X431901Y128455D01*
X431883Y128399D01*
X431856Y128347D01*
X431845Y128279D01*
X431815Y128184D01*
X431812Y128084D01*
X431801Y128016D01*
X431801Y125984D01*
X431809Y125926D01*
X431808Y125868D01*
X431829Y125786D01*
X431841Y125703D01*
X431865Y125649D01*
X431879Y125593D01*
X431922Y125520D01*
X431957Y125443D01*
X431995Y125398D01*
X432025Y125348D01*
X432086Y125290D01*
X432141Y125226D01*
X432189Y125194D01*
X432232Y125154D01*
X432307Y125115D01*
X432377Y125069D01*
X432433Y125051D01*
X432485Y125024D01*
X432553Y125013D01*
X432648Y124983D01*
X432748Y124980D01*
X432816Y124969D01*
X443739Y124969D01*
X443739Y122055D01*
X441020Y119336D01*
X441002Y119312D01*
X440980Y119293D01*
X440917Y119199D01*
X440849Y119109D01*
X440838Y119081D01*
X440822Y119057D01*
X440788Y118949D01*
X440748Y118843D01*
X440745Y118814D01*
X440736Y118786D01*
X440733Y118672D01*
X440724Y118560D01*
X440730Y118531D01*
X440729Y118502D01*
X440758Y118392D01*
X440780Y118281D01*
X440793Y118255D01*
X440801Y118227D01*
X440859Y118129D01*
X440911Y118029D01*
X440931Y118007D01*
X440946Y117982D01*
X441029Y117905D01*
X441107Y117823D01*
X441132Y117808D01*
X441153Y117788D01*
X441254Y117736D01*
X441352Y117679D01*
X441380Y117672D01*
X441407Y117658D01*
X441484Y117645D01*
X441628Y117609D01*
X441684Y117611D01*
X441691Y117609D01*
X441700Y117609D01*
X441738Y117603D01*
X441801Y117603D01*
X441887Y117615D01*
X441975Y117618D01*
X442027Y117635D01*
X442082Y117643D01*
X442162Y117678D01*
X442245Y117705D01*
X442284Y117733D01*
X442342Y117759D01*
X442455Y117855D01*
X442519Y117900D01*
X445609Y120990D01*
X445644Y121037D01*
X445686Y121077D01*
X445729Y121150D01*
X445779Y121217D01*
X445800Y121272D01*
X445830Y121323D01*
X445851Y121404D01*
X445881Y121483D01*
X445886Y121541D01*
X445900Y121598D01*
X445897Y121682D01*
X445904Y121766D01*
X445893Y121824D01*
X445891Y121882D01*
X445865Y121962D01*
X445848Y122045D01*
X445821Y122097D01*
X445803Y122153D01*
X445769Y122201D01*
X445769Y131735D01*
X452465Y138431D01*
X461935Y138431D01*
X468631Y131735D01*
X468631Y122265D01*
X461935Y115569D01*
X452465Y115569D01*
X451356Y116679D01*
X451309Y116714D01*
X451269Y116756D01*
X451196Y116799D01*
X451129Y116849D01*
X451074Y116870D01*
X451024Y116900D01*
X450942Y116921D01*
X450863Y116951D01*
X450805Y116956D01*
X450748Y116970D01*
X450664Y116967D01*
X450580Y116974D01*
X450523Y116963D01*
X450464Y116961D01*
X450384Y116935D01*
X450301Y116918D01*
X450249Y116891D01*
X450194Y116873D01*
X450137Y116833D01*
X450049Y116787D01*
X449976Y116719D01*
X449920Y116679D01*
X444493Y111251D01*
X441953Y111251D01*
X441941Y111260D01*
X441877Y111320D01*
X441827Y111346D01*
X441783Y111379D01*
X441702Y111410D01*
X441624Y111450D01*
X441576Y111458D01*
X441518Y111480D01*
X441370Y111492D01*
X441293Y111505D01*
X441230Y111505D01*
X441201Y111501D01*
X441171Y111504D01*
X441060Y111481D01*
X440948Y111465D01*
X440921Y111453D01*
X440893Y111448D01*
X440792Y111396D01*
X440689Y111349D01*
X440666Y111330D01*
X440640Y111317D01*
X440558Y111239D01*
X440472Y111166D01*
X440455Y111141D01*
X440434Y111121D01*
X440377Y111023D01*
X440314Y110929D01*
X440305Y110901D01*
X440290Y110876D01*
X440263Y110766D01*
X440228Y110658D01*
X440228Y110628D01*
X440220Y110600D01*
X440224Y110487D01*
X440221Y110374D01*
X440228Y110345D01*
X440229Y110316D01*
X440264Y110208D01*
X440293Y110099D01*
X440308Y110073D01*
X440317Y110045D01*
X440362Y109982D01*
X440438Y109854D01*
X440484Y109811D01*
X440512Y109772D01*
X443739Y106545D01*
X443739Y103631D01*
X432816Y103631D01*
X432758Y103623D01*
X432700Y103625D01*
X432618Y103603D01*
X432535Y103591D01*
X432481Y103567D01*
X432425Y103553D01*
X432352Y103510D01*
X432275Y103475D01*
X432231Y103437D01*
X432180Y103407D01*
X432123Y103346D01*
X432058Y103291D01*
X432026Y103243D01*
X431986Y103200D01*
X431947Y103125D01*
X431901Y103055D01*
X431883Y102999D01*
X431856Y102947D01*
X431845Y102879D01*
X431815Y102784D01*
X431812Y102684D01*
X431801Y102616D01*
X431801Y100584D01*
X431809Y100526D01*
X431808Y100468D01*
X431829Y100386D01*
X431841Y100303D01*
X431865Y100249D01*
X431879Y100193D01*
X431922Y100120D01*
X431957Y100043D01*
X431995Y99998D01*
X432025Y99948D01*
X432086Y99890D01*
X432141Y99826D01*
X432189Y99794D01*
X432232Y99754D01*
X432307Y99715D01*
X432377Y99669D01*
X432433Y99651D01*
X432485Y99624D01*
X432553Y99613D01*
X432648Y99583D01*
X432748Y99580D01*
X432816Y99569D01*
X443739Y99569D01*
X443739Y96655D01*
X440766Y93682D01*
X440748Y93658D01*
X440726Y93639D01*
X440663Y93545D01*
X440595Y93455D01*
X440584Y93427D01*
X440568Y93403D01*
X440534Y93295D01*
X440494Y93189D01*
X440491Y93160D01*
X440482Y93132D01*
X440479Y93018D01*
X440470Y92906D01*
X440476Y92877D01*
X440475Y92848D01*
X440504Y92738D01*
X440526Y92627D01*
X440539Y92601D01*
X440547Y92573D01*
X440605Y92475D01*
X440657Y92375D01*
X440677Y92353D01*
X440692Y92328D01*
X440775Y92251D01*
X440853Y92169D01*
X440878Y92154D01*
X440899Y92134D01*
X441000Y92082D01*
X441098Y92025D01*
X441126Y92018D01*
X441153Y92004D01*
X441230Y91991D01*
X441374Y91955D01*
X441430Y91957D01*
X441437Y91955D01*
X441446Y91955D01*
X441484Y91949D01*
X441547Y91949D01*
X441633Y91961D01*
X441721Y91964D01*
X441773Y91981D01*
X441828Y91989D01*
X441908Y92024D01*
X441991Y92051D01*
X442030Y92079D01*
X442088Y92105D01*
X442201Y92201D01*
X442265Y92246D01*
X445609Y95590D01*
X445644Y95637D01*
X445686Y95677D01*
X445729Y95750D01*
X445779Y95817D01*
X445800Y95872D01*
X445830Y95923D01*
X445851Y96004D01*
X445881Y96083D01*
X445886Y96141D01*
X445900Y96198D01*
X445897Y96282D01*
X445904Y96366D01*
X445893Y96424D01*
X445891Y96482D01*
X445865Y96562D01*
X445848Y96645D01*
X445821Y96697D01*
X445803Y96753D01*
X445769Y96801D01*
X445769Y106335D01*
X452465Y113031D01*
X461935Y113031D01*
X468631Y106335D01*
X468631Y96865D01*
X461935Y90169D01*
X452465Y90169D01*
X451356Y91279D01*
X451309Y91314D01*
X451269Y91356D01*
X451196Y91399D01*
X451129Y91449D01*
X451074Y91470D01*
X451024Y91500D01*
X450942Y91521D01*
X450863Y91551D01*
X450805Y91556D01*
X450748Y91570D01*
X450664Y91567D01*
X450580Y91574D01*
X450523Y91563D01*
X450464Y91561D01*
X450384Y91535D01*
X450301Y91518D01*
X450249Y91491D01*
X450194Y91473D01*
X450137Y91433D01*
X450049Y91387D01*
X449976Y91319D01*
X449920Y91279D01*
X444493Y85851D01*
X441484Y85851D01*
X441455Y85847D01*
X441425Y85850D01*
X441314Y85827D01*
X441202Y85811D01*
X441175Y85799D01*
X441147Y85794D01*
X441046Y85741D01*
X440943Y85695D01*
X440920Y85676D01*
X440894Y85663D01*
X440812Y85585D01*
X440726Y85512D01*
X440709Y85487D01*
X440688Y85467D01*
X440631Y85369D01*
X440568Y85275D01*
X440559Y85247D01*
X440544Y85222D01*
X440517Y85112D01*
X440482Y85004D01*
X440482Y84974D01*
X440474Y84946D01*
X440478Y84833D01*
X440475Y84720D01*
X440482Y84691D01*
X440483Y84662D01*
X440518Y84554D01*
X440547Y84445D01*
X440562Y84419D01*
X440571Y84391D01*
X440616Y84328D01*
X440692Y84200D01*
X440738Y84157D01*
X440766Y84118D01*
X443739Y81145D01*
X443739Y78231D01*
X432816Y78231D01*
X432758Y78223D01*
X432700Y78225D01*
X432618Y78203D01*
X432535Y78191D01*
X432481Y78167D01*
X432425Y78153D01*
X432352Y78110D01*
X432275Y78075D01*
X432231Y78037D01*
X432180Y78007D01*
X432123Y77946D01*
X432058Y77891D01*
X432026Y77843D01*
X431986Y77800D01*
X431947Y77725D01*
X431901Y77655D01*
X431883Y77599D01*
X431856Y77547D01*
X431845Y77479D01*
X431815Y77384D01*
X431812Y77284D01*
X431801Y77216D01*
X431801Y75184D01*
X431809Y75126D01*
X431808Y75068D01*
X431829Y74986D01*
X431841Y74903D01*
X431865Y74849D01*
X431879Y74793D01*
X431922Y74720D01*
X431957Y74643D01*
X431995Y74598D01*
X432025Y74548D01*
X432086Y74490D01*
X432141Y74426D01*
X432189Y74394D01*
X432232Y74354D01*
X432307Y74315D01*
X432377Y74269D01*
X432433Y74251D01*
X432485Y74224D01*
X432553Y74213D01*
X432648Y74183D01*
X432748Y74180D01*
X432816Y74169D01*
X443739Y74169D01*
X443739Y71255D01*
X440766Y68282D01*
X440748Y68258D01*
X440726Y68239D01*
X440663Y68145D01*
X440595Y68055D01*
X440584Y68027D01*
X440568Y68003D01*
X440534Y67895D01*
X440494Y67789D01*
X440491Y67760D01*
X440482Y67732D01*
X440479Y67618D01*
X440470Y67506D01*
X440476Y67477D01*
X440475Y67448D01*
X440504Y67338D01*
X440526Y67227D01*
X440539Y67201D01*
X440547Y67173D01*
X440605Y67075D01*
X440657Y66975D01*
X440677Y66953D01*
X440692Y66928D01*
X440775Y66851D01*
X440853Y66769D01*
X440878Y66754D01*
X440899Y66734D01*
X441000Y66682D01*
X441098Y66625D01*
X441126Y66618D01*
X441153Y66604D01*
X441230Y66591D01*
X441374Y66555D01*
X441430Y66557D01*
X441437Y66555D01*
X441446Y66555D01*
X441484Y66549D01*
X441547Y66549D01*
X441633Y66561D01*
X441721Y66564D01*
X441773Y66581D01*
X441828Y66589D01*
X441908Y66624D01*
X441991Y66651D01*
X442030Y66679D01*
X442088Y66705D01*
X442201Y66801D01*
X442265Y66846D01*
X445609Y70190D01*
X445644Y70237D01*
X445686Y70277D01*
X445729Y70350D01*
X445779Y70417D01*
X445800Y70472D01*
X445830Y70522D01*
X445851Y70604D01*
X445881Y70683D01*
X445886Y70741D01*
X445900Y70798D01*
X445897Y70882D01*
X445904Y70966D01*
X445893Y71024D01*
X445891Y71082D01*
X445865Y71162D01*
X445848Y71245D01*
X445821Y71297D01*
X445803Y71353D01*
X445769Y71401D01*
X445769Y80935D01*
X452465Y87631D01*
X461935Y87631D01*
X468631Y80935D01*
X468631Y71465D01*
X461935Y64769D01*
X452465Y64769D01*
X451356Y65879D01*
X451309Y65914D01*
X451269Y65956D01*
X451196Y65999D01*
X451129Y66049D01*
X451074Y66070D01*
X451024Y66100D01*
X450942Y66121D01*
X450863Y66151D01*
X450805Y66156D01*
X450748Y66170D01*
X450664Y66167D01*
X450580Y66174D01*
X450522Y66163D01*
X450464Y66161D01*
X450384Y66135D01*
X450301Y66118D01*
X450249Y66091D01*
X450193Y66073D01*
X450137Y66033D01*
X450049Y65987D01*
X449976Y65919D01*
X449920Y65879D01*
X444493Y60451D01*
X441484Y60451D01*
X441455Y60447D01*
X441425Y60450D01*
X441314Y60427D01*
X441202Y60411D01*
X441175Y60399D01*
X441147Y60394D01*
X441046Y60341D01*
X440943Y60295D01*
X440920Y60276D01*
X440894Y60263D01*
X440812Y60185D01*
X440726Y60112D01*
X440709Y60087D01*
X440688Y60067D01*
X440631Y59969D01*
X440568Y59875D01*
X440559Y59847D01*
X440544Y59822D01*
X440517Y59712D01*
X440482Y59604D01*
X440482Y59574D01*
X440474Y59546D01*
X440478Y59433D01*
X440475Y59320D01*
X440482Y59291D01*
X440483Y59262D01*
X440518Y59154D01*
X440547Y59045D01*
X440562Y59019D01*
X440571Y58991D01*
X440616Y58928D01*
X440692Y58800D01*
X440730Y58765D01*
X440733Y58759D01*
X440743Y58750D01*
X440766Y58718D01*
X443739Y55745D01*
X443739Y52831D01*
X432816Y52831D01*
X432758Y52823D01*
X432700Y52825D01*
X432618Y52803D01*
X432535Y52791D01*
X432481Y52767D01*
X432425Y52753D01*
X432352Y52710D01*
X432275Y52675D01*
X432231Y52637D01*
X432180Y52607D01*
X432123Y52546D01*
X432058Y52491D01*
X432026Y52443D01*
X431986Y52400D01*
X431947Y52325D01*
X431901Y52255D01*
X431883Y52199D01*
X431856Y52147D01*
X431845Y52079D01*
X431815Y51984D01*
X431812Y51884D01*
X431801Y51816D01*
X431801Y49784D01*
X431809Y49726D01*
X431808Y49668D01*
X431829Y49586D01*
X431841Y49503D01*
X431865Y49449D01*
X431879Y49393D01*
X431922Y49320D01*
X431957Y49243D01*
X431995Y49198D01*
X432025Y49148D01*
X432086Y49090D01*
X432141Y49026D01*
X432189Y48994D01*
X432232Y48954D01*
X432307Y48915D01*
X432377Y48869D01*
X432433Y48851D01*
X432485Y48824D01*
X432553Y48813D01*
X432648Y48783D01*
X432748Y48780D01*
X432816Y48769D01*
X443739Y48769D01*
X443739Y45855D01*
X440766Y42882D01*
X440748Y42858D01*
X440726Y42839D01*
X440663Y42745D01*
X440595Y42655D01*
X440584Y42627D01*
X440568Y42603D01*
X440534Y42495D01*
X440494Y42389D01*
X440491Y42360D01*
X440482Y42332D01*
X440479Y42218D01*
X440470Y42106D01*
X440476Y42077D01*
X440475Y42048D01*
X440504Y41938D01*
X440526Y41827D01*
X440539Y41801D01*
X440547Y41773D01*
X440605Y41675D01*
X440657Y41575D01*
X440677Y41553D01*
X440692Y41528D01*
X440775Y41451D01*
X440853Y41369D01*
X440878Y41354D01*
X440899Y41334D01*
X441000Y41282D01*
X441098Y41225D01*
X441126Y41218D01*
X441153Y41204D01*
X441230Y41191D01*
X441374Y41155D01*
X441430Y41157D01*
X441437Y41155D01*
X441446Y41155D01*
X441484Y41149D01*
X441547Y41149D01*
X441633Y41161D01*
X441721Y41164D01*
X441773Y41181D01*
X441828Y41189D01*
X441908Y41224D01*
X441991Y41251D01*
X442030Y41279D01*
X442088Y41305D01*
X442201Y41401D01*
X442265Y41446D01*
X445609Y44790D01*
X445644Y44837D01*
X445686Y44877D01*
X445729Y44950D01*
X445779Y45017D01*
X445800Y45072D01*
X445830Y45122D01*
X445851Y45204D01*
X445881Y45283D01*
X445886Y45341D01*
X445900Y45398D01*
X445897Y45482D01*
X445904Y45566D01*
X445893Y45624D01*
X445891Y45682D01*
X445865Y45762D01*
X445848Y45845D01*
X445821Y45897D01*
X445803Y45953D01*
X445769Y46001D01*
X445769Y55535D01*
X452465Y62231D01*
X461935Y62231D01*
X468631Y55535D01*
X468631Y46065D01*
X461935Y39369D01*
X452465Y39369D01*
X451356Y40479D01*
X451309Y40514D01*
X451269Y40556D01*
X451196Y40599D01*
X451129Y40649D01*
X451074Y40670D01*
X451024Y40700D01*
X450942Y40721D01*
X450863Y40751D01*
X450805Y40756D01*
X450748Y40770D01*
X450664Y40767D01*
X450580Y40774D01*
X450522Y40763D01*
X450464Y40761D01*
X450384Y40735D01*
X450301Y40718D01*
X450249Y40691D01*
X450193Y40673D01*
X450137Y40633D01*
X450049Y40587D01*
X449976Y40519D01*
X449920Y40479D01*
X444493Y35051D01*
X416567Y35051D01*
G37*
%LPD*%
%LPC*%
G36*
X237410Y145541D02*
X237410Y145541D01*
X230221Y148519D01*
X224719Y154021D01*
X221741Y161210D01*
X221741Y168990D01*
X224719Y176179D01*
X230221Y181681D01*
X237410Y184659D01*
X245190Y184659D01*
X252379Y181681D01*
X257881Y176179D01*
X260859Y168990D01*
X260859Y161210D01*
X257881Y154021D01*
X252379Y148519D01*
X245190Y145541D01*
X237410Y145541D01*
G37*
%LPD*%
%LPC*%
G36*
X46065Y64769D02*
X46065Y64769D01*
X39369Y71465D01*
X39369Y80935D01*
X46065Y87631D01*
X55535Y87631D01*
X62231Y80935D01*
X62231Y80264D01*
X62239Y80206D01*
X62237Y80148D01*
X62259Y80066D01*
X62271Y79982D01*
X62294Y79929D01*
X62309Y79873D01*
X62352Y79800D01*
X62387Y79723D01*
X62425Y79678D01*
X62454Y79628D01*
X62516Y79570D01*
X62570Y79506D01*
X62619Y79474D01*
X62662Y79434D01*
X62737Y79395D01*
X62807Y79348D01*
X62863Y79331D01*
X62915Y79304D01*
X62983Y79293D01*
X63078Y79263D01*
X63178Y79260D01*
X63246Y79249D01*
X103632Y79249D01*
X103690Y79257D01*
X103748Y79255D01*
X103830Y79277D01*
X103914Y79289D01*
X103967Y79312D01*
X104023Y79327D01*
X104096Y79370D01*
X104173Y79405D01*
X104218Y79443D01*
X104268Y79472D01*
X104326Y79534D01*
X104390Y79588D01*
X104422Y79637D01*
X104462Y79680D01*
X104501Y79755D01*
X104548Y79825D01*
X104565Y79881D01*
X104592Y79933D01*
X104603Y80001D01*
X104633Y80096D01*
X104636Y80187D01*
X110302Y85853D01*
X118298Y85853D01*
X123953Y80198D01*
X123953Y72202D01*
X118298Y66547D01*
X110302Y66547D01*
X104639Y72209D01*
X104641Y72252D01*
X104619Y72334D01*
X104607Y72418D01*
X104584Y72471D01*
X104569Y72527D01*
X104526Y72600D01*
X104491Y72677D01*
X104453Y72722D01*
X104424Y72772D01*
X104362Y72830D01*
X104308Y72894D01*
X104259Y72926D01*
X104216Y72966D01*
X104141Y73005D01*
X104071Y73052D01*
X104015Y73069D01*
X103963Y73096D01*
X103895Y73107D01*
X103800Y73137D01*
X103700Y73140D01*
X103632Y73151D01*
X63246Y73151D01*
X63188Y73143D01*
X63130Y73145D01*
X63048Y73123D01*
X62964Y73111D01*
X62911Y73088D01*
X62855Y73073D01*
X62782Y73030D01*
X62705Y72995D01*
X62660Y72957D01*
X62610Y72928D01*
X62552Y72866D01*
X62488Y72812D01*
X62456Y72763D01*
X62416Y72720D01*
X62377Y72645D01*
X62330Y72575D01*
X62313Y72519D01*
X62286Y72467D01*
X62275Y72399D01*
X62245Y72304D01*
X62242Y72204D01*
X62231Y72136D01*
X62231Y71465D01*
X55535Y64769D01*
X46065Y64769D01*
G37*
%LPD*%
%LPC*%
G36*
X46065Y90169D02*
X46065Y90169D01*
X39369Y96865D01*
X39369Y106335D01*
X46065Y113031D01*
X55535Y113031D01*
X62231Y106335D01*
X62231Y105664D01*
X62239Y105606D01*
X62237Y105548D01*
X62259Y105466D01*
X62271Y105382D01*
X62294Y105329D01*
X62309Y105273D01*
X62352Y105200D01*
X62387Y105123D01*
X62425Y105078D01*
X62454Y105028D01*
X62516Y104970D01*
X62570Y104906D01*
X62619Y104874D01*
X62662Y104834D01*
X62737Y104795D01*
X62807Y104748D01*
X62863Y104731D01*
X62915Y104704D01*
X62983Y104693D01*
X63078Y104663D01*
X63178Y104660D01*
X63246Y104649D01*
X103632Y104649D01*
X103690Y104657D01*
X103748Y104655D01*
X103830Y104677D01*
X103914Y104689D01*
X103967Y104712D01*
X104023Y104727D01*
X104096Y104770D01*
X104173Y104805D01*
X104218Y104843D01*
X104268Y104872D01*
X104326Y104934D01*
X104390Y104988D01*
X104422Y105037D01*
X104462Y105080D01*
X104501Y105155D01*
X104548Y105225D01*
X104565Y105281D01*
X104592Y105333D01*
X104603Y105401D01*
X104633Y105496D01*
X104636Y105587D01*
X110302Y111253D01*
X118298Y111253D01*
X123953Y105598D01*
X123953Y97602D01*
X118298Y91947D01*
X110302Y91947D01*
X104639Y97609D01*
X104641Y97652D01*
X104619Y97734D01*
X104607Y97818D01*
X104584Y97871D01*
X104569Y97927D01*
X104526Y98000D01*
X104491Y98077D01*
X104453Y98122D01*
X104424Y98172D01*
X104362Y98230D01*
X104308Y98294D01*
X104259Y98326D01*
X104216Y98366D01*
X104141Y98405D01*
X104071Y98452D01*
X104015Y98469D01*
X103963Y98496D01*
X103895Y98507D01*
X103800Y98537D01*
X103700Y98540D01*
X103632Y98551D01*
X63246Y98551D01*
X63188Y98543D01*
X63130Y98545D01*
X63048Y98523D01*
X62964Y98511D01*
X62911Y98488D01*
X62855Y98473D01*
X62782Y98430D01*
X62705Y98395D01*
X62660Y98357D01*
X62610Y98328D01*
X62552Y98266D01*
X62488Y98212D01*
X62456Y98163D01*
X62416Y98120D01*
X62377Y98045D01*
X62330Y97975D01*
X62313Y97919D01*
X62286Y97867D01*
X62275Y97799D01*
X62245Y97704D01*
X62242Y97604D01*
X62231Y97536D01*
X62231Y96865D01*
X55535Y90169D01*
X46065Y90169D01*
G37*
%LPD*%
%LPC*%
G36*
X46065Y39369D02*
X46065Y39369D01*
X39369Y46065D01*
X39369Y55535D01*
X46065Y62231D01*
X55535Y62231D01*
X62231Y55535D01*
X62231Y54864D01*
X62239Y54806D01*
X62237Y54748D01*
X62259Y54666D01*
X62271Y54582D01*
X62294Y54529D01*
X62309Y54473D01*
X62352Y54400D01*
X62387Y54323D01*
X62425Y54278D01*
X62454Y54228D01*
X62516Y54170D01*
X62570Y54106D01*
X62619Y54074D01*
X62662Y54034D01*
X62737Y53995D01*
X62807Y53948D01*
X62863Y53931D01*
X62915Y53904D01*
X62983Y53893D01*
X63078Y53863D01*
X63178Y53860D01*
X63246Y53849D01*
X103632Y53849D01*
X103690Y53857D01*
X103748Y53855D01*
X103830Y53877D01*
X103914Y53889D01*
X103967Y53912D01*
X104023Y53927D01*
X104096Y53970D01*
X104173Y54005D01*
X104218Y54043D01*
X104268Y54072D01*
X104326Y54134D01*
X104390Y54188D01*
X104422Y54237D01*
X104462Y54280D01*
X104501Y54355D01*
X104548Y54425D01*
X104565Y54481D01*
X104592Y54533D01*
X104603Y54601D01*
X104633Y54696D01*
X104636Y54787D01*
X110302Y60453D01*
X118298Y60453D01*
X123953Y54798D01*
X123953Y46802D01*
X118298Y41147D01*
X110302Y41147D01*
X104639Y46809D01*
X104641Y46852D01*
X104619Y46934D01*
X104607Y47018D01*
X104584Y47071D01*
X104569Y47127D01*
X104526Y47200D01*
X104491Y47277D01*
X104453Y47322D01*
X104424Y47372D01*
X104362Y47430D01*
X104308Y47494D01*
X104259Y47526D01*
X104216Y47566D01*
X104141Y47605D01*
X104071Y47652D01*
X104015Y47669D01*
X103963Y47696D01*
X103895Y47707D01*
X103800Y47737D01*
X103700Y47740D01*
X103632Y47751D01*
X63246Y47751D01*
X63188Y47743D01*
X63130Y47745D01*
X63048Y47723D01*
X62964Y47711D01*
X62911Y47688D01*
X62855Y47673D01*
X62782Y47630D01*
X62705Y47595D01*
X62660Y47557D01*
X62610Y47528D01*
X62552Y47466D01*
X62488Y47412D01*
X62456Y47363D01*
X62416Y47320D01*
X62377Y47245D01*
X62330Y47175D01*
X62313Y47119D01*
X62286Y47067D01*
X62275Y46999D01*
X62245Y46904D01*
X62242Y46804D01*
X62231Y46736D01*
X62231Y46065D01*
X55535Y39369D01*
X46065Y39369D01*
G37*
%LPD*%
%LPC*%
G36*
X46065Y140969D02*
X46065Y140969D01*
X39369Y147665D01*
X39369Y157135D01*
X46065Y163831D01*
X55535Y163831D01*
X62231Y157135D01*
X62231Y156464D01*
X62239Y156406D01*
X62237Y156348D01*
X62259Y156266D01*
X62271Y156182D01*
X62294Y156129D01*
X62309Y156073D01*
X62352Y156000D01*
X62387Y155923D01*
X62425Y155878D01*
X62454Y155828D01*
X62516Y155770D01*
X62570Y155706D01*
X62619Y155674D01*
X62662Y155634D01*
X62737Y155595D01*
X62807Y155548D01*
X62863Y155531D01*
X62915Y155504D01*
X62983Y155493D01*
X63078Y155463D01*
X63178Y155460D01*
X63246Y155449D01*
X103632Y155449D01*
X103690Y155457D01*
X103748Y155455D01*
X103830Y155477D01*
X103914Y155489D01*
X103967Y155512D01*
X104023Y155527D01*
X104096Y155570D01*
X104173Y155605D01*
X104218Y155643D01*
X104268Y155672D01*
X104326Y155734D01*
X104390Y155788D01*
X104422Y155837D01*
X104462Y155880D01*
X104501Y155955D01*
X104548Y156025D01*
X104565Y156081D01*
X104592Y156133D01*
X104603Y156201D01*
X104633Y156296D01*
X104636Y156387D01*
X110302Y162053D01*
X118298Y162053D01*
X123953Y156398D01*
X123953Y148402D01*
X118298Y142747D01*
X110302Y142747D01*
X104639Y148409D01*
X104641Y148452D01*
X104619Y148534D01*
X104607Y148618D01*
X104584Y148671D01*
X104569Y148727D01*
X104526Y148800D01*
X104491Y148877D01*
X104453Y148922D01*
X104424Y148972D01*
X104362Y149030D01*
X104308Y149094D01*
X104259Y149126D01*
X104216Y149166D01*
X104141Y149205D01*
X104071Y149252D01*
X104015Y149269D01*
X103963Y149296D01*
X103895Y149307D01*
X103800Y149337D01*
X103700Y149340D01*
X103632Y149351D01*
X63246Y149351D01*
X63188Y149343D01*
X63130Y149345D01*
X63048Y149323D01*
X62964Y149311D01*
X62911Y149288D01*
X62855Y149273D01*
X62782Y149230D01*
X62705Y149195D01*
X62660Y149157D01*
X62610Y149128D01*
X62552Y149066D01*
X62488Y149012D01*
X62456Y148963D01*
X62416Y148920D01*
X62377Y148845D01*
X62330Y148775D01*
X62313Y148719D01*
X62286Y148667D01*
X62275Y148599D01*
X62245Y148504D01*
X62242Y148404D01*
X62231Y148336D01*
X62231Y147665D01*
X55535Y140969D01*
X46065Y140969D01*
G37*
%LPD*%
%LPC*%
G36*
X46065Y115569D02*
X46065Y115569D01*
X39369Y122265D01*
X39369Y131735D01*
X46065Y138431D01*
X55535Y138431D01*
X62231Y131735D01*
X62231Y131064D01*
X62239Y131006D01*
X62237Y130948D01*
X62259Y130866D01*
X62271Y130782D01*
X62294Y130729D01*
X62309Y130673D01*
X62352Y130600D01*
X62387Y130523D01*
X62425Y130478D01*
X62454Y130428D01*
X62516Y130370D01*
X62570Y130306D01*
X62619Y130274D01*
X62662Y130234D01*
X62737Y130195D01*
X62807Y130148D01*
X62863Y130131D01*
X62915Y130104D01*
X62983Y130093D01*
X63078Y130063D01*
X63178Y130060D01*
X63246Y130049D01*
X103632Y130049D01*
X103690Y130057D01*
X103748Y130055D01*
X103830Y130077D01*
X103914Y130089D01*
X103967Y130112D01*
X104023Y130127D01*
X104096Y130170D01*
X104173Y130205D01*
X104218Y130243D01*
X104268Y130272D01*
X104326Y130334D01*
X104390Y130388D01*
X104422Y130437D01*
X104462Y130480D01*
X104501Y130555D01*
X104548Y130625D01*
X104565Y130681D01*
X104592Y130733D01*
X104603Y130801D01*
X104633Y130896D01*
X104636Y130987D01*
X110302Y136653D01*
X118298Y136653D01*
X123953Y130998D01*
X123953Y123002D01*
X118298Y117347D01*
X110302Y117347D01*
X104639Y123009D01*
X104641Y123052D01*
X104619Y123134D01*
X104607Y123218D01*
X104584Y123271D01*
X104569Y123327D01*
X104526Y123400D01*
X104491Y123477D01*
X104453Y123522D01*
X104424Y123572D01*
X104362Y123630D01*
X104308Y123694D01*
X104259Y123726D01*
X104216Y123766D01*
X104141Y123805D01*
X104071Y123852D01*
X104015Y123869D01*
X103963Y123896D01*
X103895Y123907D01*
X103800Y123937D01*
X103700Y123940D01*
X103632Y123951D01*
X63246Y123951D01*
X63188Y123943D01*
X63130Y123945D01*
X63048Y123923D01*
X62964Y123911D01*
X62911Y123888D01*
X62855Y123873D01*
X62782Y123830D01*
X62705Y123795D01*
X62660Y123757D01*
X62610Y123728D01*
X62552Y123666D01*
X62488Y123612D01*
X62456Y123563D01*
X62416Y123520D01*
X62377Y123445D01*
X62330Y123375D01*
X62313Y123319D01*
X62286Y123267D01*
X62275Y123199D01*
X62245Y123104D01*
X62242Y123004D01*
X62231Y122936D01*
X62231Y122265D01*
X55535Y115569D01*
X46065Y115569D01*
G37*
%LPD*%
%LPC*%
G36*
X211749Y39814D02*
X211749Y39814D01*
X205314Y46249D01*
X205314Y55351D01*
X211749Y61786D01*
X220851Y61786D01*
X227286Y55351D01*
X227286Y46249D01*
X220851Y39814D01*
X211749Y39814D01*
G37*
%LPD*%
%LPC*%
G36*
X161102Y66547D02*
X161102Y66547D01*
X155447Y72202D01*
X155447Y80198D01*
X161102Y85853D01*
X169098Y85853D01*
X174753Y80198D01*
X174753Y72202D01*
X169098Y66547D01*
X161102Y66547D01*
G37*
%LPD*%
%LPC*%
G36*
X313502Y41147D02*
X313502Y41147D01*
X307847Y46802D01*
X307847Y54798D01*
X313502Y60453D01*
X321498Y60453D01*
X327153Y54798D01*
X327153Y46802D01*
X321498Y41147D01*
X313502Y41147D01*
G37*
%LPD*%
%LPC*%
G36*
X161102Y41147D02*
X161102Y41147D01*
X155447Y46802D01*
X155447Y54798D01*
X161102Y60453D01*
X169098Y60453D01*
X174753Y54798D01*
X174753Y46802D01*
X169098Y41147D01*
X161102Y41147D01*
G37*
%LPD*%
%LPC*%
G36*
X161102Y117347D02*
X161102Y117347D01*
X155447Y123002D01*
X155447Y130998D01*
X161102Y136653D01*
X169098Y136653D01*
X174753Y130998D01*
X174753Y123002D01*
X169098Y117347D01*
X161102Y117347D01*
G37*
%LPD*%
%LPC*%
G36*
X161102Y91947D02*
X161102Y91947D01*
X155447Y97602D01*
X155447Y105598D01*
X161102Y111253D01*
X169098Y111253D01*
X174753Y105598D01*
X174753Y97602D01*
X169098Y91947D01*
X161102Y91947D01*
G37*
%LPD*%
%LPC*%
G36*
X313502Y91947D02*
X313502Y91947D01*
X307847Y97602D01*
X307847Y105598D01*
X313502Y111253D01*
X321498Y111253D01*
X327153Y105598D01*
X327153Y97602D01*
X321498Y91947D01*
X313502Y91947D01*
G37*
%LPD*%
%LPC*%
G36*
X313502Y117347D02*
X313502Y117347D01*
X307847Y123002D01*
X307847Y130998D01*
X313502Y136653D01*
X321498Y136653D01*
X327153Y130998D01*
X327153Y123002D01*
X321498Y117347D01*
X313502Y117347D01*
G37*
%LPD*%
%LPC*%
G36*
X313502Y66547D02*
X313502Y66547D01*
X307847Y72202D01*
X307847Y80198D01*
X313502Y85853D01*
X321498Y85853D01*
X327153Y80198D01*
X327153Y72202D01*
X321498Y66547D01*
X313502Y66547D01*
G37*
%LPD*%
%LPC*%
G36*
X161102Y142747D02*
X161102Y142747D01*
X155447Y148402D01*
X155447Y156398D01*
X161102Y162053D01*
X169098Y162053D01*
X174753Y156398D01*
X174753Y148402D01*
X169098Y142747D01*
X161102Y142747D01*
G37*
%LPD*%
%LPC*%
G36*
X313502Y142747D02*
X313502Y142747D01*
X307847Y148402D01*
X307847Y156398D01*
X313502Y162053D01*
X321498Y162053D01*
X327153Y156398D01*
X327153Y148402D01*
X321498Y142747D01*
X313502Y142747D01*
G37*
%LPD*%
%LPC*%
G36*
X27431Y129031D02*
X27431Y129031D01*
X27431Y150369D01*
X37339Y150369D01*
X37339Y147455D01*
X30302Y140418D01*
X30267Y140371D01*
X30224Y140331D01*
X30182Y140258D01*
X30131Y140191D01*
X30110Y140136D01*
X30081Y140086D01*
X30060Y140004D01*
X30030Y139925D01*
X30025Y139867D01*
X30010Y139810D01*
X30013Y139726D01*
X30006Y139642D01*
X30018Y139584D01*
X30019Y139526D01*
X30045Y139446D01*
X30062Y139363D01*
X30089Y139311D01*
X30107Y139255D01*
X30147Y139199D01*
X30193Y139111D01*
X30262Y139038D01*
X30302Y138982D01*
X37339Y131945D01*
X37339Y129031D01*
X27431Y129031D01*
G37*
%LPD*%
%LPC*%
G36*
X27431Y78231D02*
X27431Y78231D01*
X27431Y99569D01*
X37339Y99569D01*
X37339Y96655D01*
X30302Y89618D01*
X30267Y89571D01*
X30224Y89531D01*
X30182Y89458D01*
X30131Y89391D01*
X30110Y89336D01*
X30081Y89286D01*
X30060Y89204D01*
X30030Y89125D01*
X30025Y89067D01*
X30010Y89010D01*
X30013Y88926D01*
X30006Y88842D01*
X30018Y88784D01*
X30019Y88726D01*
X30045Y88646D01*
X30062Y88563D01*
X30089Y88511D01*
X30107Y88455D01*
X30147Y88399D01*
X30193Y88311D01*
X30262Y88238D01*
X30302Y88182D01*
X37339Y81145D01*
X37339Y78231D01*
X27431Y78231D01*
G37*
%LPD*%
%LPC*%
G36*
X27431Y103631D02*
X27431Y103631D01*
X27431Y124969D01*
X37339Y124969D01*
X37339Y122055D01*
X30302Y115018D01*
X30267Y114971D01*
X30224Y114931D01*
X30182Y114858D01*
X30131Y114791D01*
X30110Y114736D01*
X30081Y114686D01*
X30060Y114604D01*
X30030Y114525D01*
X30025Y114467D01*
X30010Y114410D01*
X30013Y114326D01*
X30006Y114242D01*
X30018Y114184D01*
X30019Y114126D01*
X30045Y114046D01*
X30062Y113963D01*
X30089Y113911D01*
X30107Y113855D01*
X30147Y113799D01*
X30193Y113711D01*
X30262Y113638D01*
X30302Y113582D01*
X37339Y106545D01*
X37339Y103631D01*
X27431Y103631D01*
G37*
%LPD*%
%LPC*%
G36*
X27431Y52831D02*
X27431Y52831D01*
X27431Y74169D01*
X37339Y74169D01*
X37339Y71255D01*
X30302Y64218D01*
X30267Y64171D01*
X30224Y64131D01*
X30182Y64058D01*
X30131Y63991D01*
X30110Y63936D01*
X30081Y63886D01*
X30060Y63804D01*
X30030Y63725D01*
X30025Y63667D01*
X30010Y63610D01*
X30013Y63526D01*
X30006Y63442D01*
X30018Y63384D01*
X30019Y63326D01*
X30045Y63246D01*
X30062Y63163D01*
X30089Y63111D01*
X30107Y63055D01*
X30147Y62999D01*
X30193Y62911D01*
X30261Y62839D01*
X30272Y62820D01*
X30280Y62813D01*
X30302Y62782D01*
X37339Y55745D01*
X37339Y52831D01*
X27431Y52831D01*
G37*
%LPD*%
%LPC*%
G36*
X13461Y52831D02*
X13461Y52831D01*
X13461Y55745D01*
X20498Y62782D01*
X20533Y62829D01*
X20576Y62869D01*
X20618Y62942D01*
X20669Y63009D01*
X20690Y63064D01*
X20719Y63114D01*
X20740Y63196D01*
X20770Y63275D01*
X20775Y63333D01*
X20790Y63390D01*
X20787Y63474D01*
X20794Y63558D01*
X20782Y63616D01*
X20781Y63674D01*
X20755Y63754D01*
X20738Y63837D01*
X20711Y63889D01*
X20693Y63945D01*
X20653Y64001D01*
X20607Y64089D01*
X20538Y64162D01*
X20498Y64218D01*
X13461Y71255D01*
X13461Y74169D01*
X23369Y74169D01*
X23369Y52831D01*
X13461Y52831D01*
G37*
%LPD*%
%LPC*%
G36*
X13461Y78231D02*
X13461Y78231D01*
X13461Y81145D01*
X20498Y88182D01*
X20533Y88229D01*
X20576Y88269D01*
X20618Y88342D01*
X20669Y88409D01*
X20690Y88464D01*
X20719Y88514D01*
X20740Y88596D01*
X20770Y88675D01*
X20775Y88733D01*
X20790Y88790D01*
X20787Y88874D01*
X20794Y88958D01*
X20782Y89016D01*
X20781Y89074D01*
X20755Y89154D01*
X20738Y89237D01*
X20711Y89289D01*
X20693Y89345D01*
X20653Y89401D01*
X20607Y89489D01*
X20538Y89562D01*
X20498Y89618D01*
X13461Y96655D01*
X13461Y99569D01*
X23369Y99569D01*
X23369Y78231D01*
X13461Y78231D01*
G37*
%LPD*%
%LPC*%
G36*
X13461Y129031D02*
X13461Y129031D01*
X13461Y131945D01*
X20498Y138982D01*
X20533Y139029D01*
X20576Y139069D01*
X20618Y139142D01*
X20669Y139209D01*
X20690Y139264D01*
X20719Y139314D01*
X20740Y139396D01*
X20770Y139475D01*
X20775Y139533D01*
X20790Y139590D01*
X20787Y139674D01*
X20794Y139758D01*
X20782Y139816D01*
X20781Y139874D01*
X20755Y139954D01*
X20738Y140037D01*
X20711Y140089D01*
X20693Y140145D01*
X20653Y140201D01*
X20607Y140289D01*
X20538Y140362D01*
X20498Y140418D01*
X13461Y147455D01*
X13461Y150369D01*
X23369Y150369D01*
X23369Y129031D01*
X13461Y129031D01*
G37*
%LPD*%
%LPC*%
G36*
X13461Y103631D02*
X13461Y103631D01*
X13461Y106545D01*
X20498Y113582D01*
X20533Y113629D01*
X20576Y113669D01*
X20618Y113742D01*
X20669Y113809D01*
X20690Y113864D01*
X20719Y113914D01*
X20740Y113996D01*
X20770Y114075D01*
X20775Y114133D01*
X20790Y114190D01*
X20787Y114274D01*
X20794Y114358D01*
X20782Y114416D01*
X20781Y114474D01*
X20755Y114554D01*
X20738Y114637D01*
X20711Y114689D01*
X20693Y114745D01*
X20653Y114801D01*
X20607Y114889D01*
X20538Y114962D01*
X20498Y115018D01*
X13461Y122055D01*
X13461Y124969D01*
X23369Y124969D01*
X23369Y103631D01*
X13461Y103631D01*
G37*
%LPD*%
%LPC*%
G36*
X433831Y154431D02*
X433831Y154431D01*
X433831Y164339D01*
X436745Y164339D01*
X443739Y157345D01*
X443739Y154431D01*
X433831Y154431D01*
G37*
%LPD*%
%LPC*%
G36*
X27431Y154431D02*
X27431Y154431D01*
X27431Y164339D01*
X30345Y164339D01*
X37339Y157345D01*
X37339Y154431D01*
X27431Y154431D01*
G37*
%LPD*%
%LPC*%
G36*
X419861Y154431D02*
X419861Y154431D01*
X419861Y157345D01*
X426855Y164339D01*
X429769Y164339D01*
X429769Y154431D01*
X419861Y154431D01*
G37*
%LPD*%
%LPC*%
G36*
X13461Y154431D02*
X13461Y154431D01*
X13461Y157345D01*
X20455Y164339D01*
X23369Y164339D01*
X23369Y154431D01*
X13461Y154431D01*
G37*
%LPD*%
%LPC*%
G36*
X27431Y38861D02*
X27431Y38861D01*
X27431Y48769D01*
X37339Y48769D01*
X37339Y45855D01*
X30345Y38861D01*
X27431Y38861D01*
G37*
%LPD*%
%LPC*%
G36*
X20455Y38861D02*
X20455Y38861D01*
X13461Y45855D01*
X13461Y48769D01*
X23369Y48769D01*
X23369Y38861D01*
X20455Y38861D01*
G37*
%LPD*%
%LPC*%
G36*
X268331Y52831D02*
X268331Y52831D01*
X268331Y62294D01*
X271061Y62294D01*
X277794Y55561D01*
X277794Y52831D01*
X268331Y52831D01*
G37*
%LPD*%
%LPC*%
G36*
X254806Y52831D02*
X254806Y52831D01*
X254806Y55561D01*
X261539Y62294D01*
X264269Y62294D01*
X264269Y52831D01*
X254806Y52831D01*
G37*
%LPD*%
%LPC*%
G36*
X268331Y39306D02*
X268331Y39306D01*
X268331Y48769D01*
X277794Y48769D01*
X277794Y46039D01*
X271061Y39306D01*
X268331Y39306D01*
G37*
%LPD*%
%LPC*%
G36*
X261539Y39306D02*
X261539Y39306D01*
X254806Y46039D01*
X254806Y48769D01*
X264269Y48769D01*
X264269Y39306D01*
X261539Y39306D01*
G37*
%LPD*%
%LPC*%
G36*
X344931Y154431D02*
X344931Y154431D01*
X344931Y162561D01*
X347109Y162561D01*
X353061Y156609D01*
X353061Y154431D01*
X344931Y154431D01*
G37*
%LPD*%
%LPC*%
G36*
X141731Y154431D02*
X141731Y154431D01*
X141731Y162561D01*
X143909Y162561D01*
X149861Y156609D01*
X149861Y154431D01*
X141731Y154431D01*
G37*
%LPD*%
%LPC*%
G36*
X344931Y78231D02*
X344931Y78231D01*
X344931Y86361D01*
X347109Y86361D01*
X353061Y80409D01*
X353061Y78231D01*
X344931Y78231D01*
G37*
%LPD*%
%LPC*%
G36*
X141731Y103631D02*
X141731Y103631D01*
X141731Y111761D01*
X143909Y111761D01*
X149861Y105809D01*
X149861Y103631D01*
X141731Y103631D01*
G37*
%LPD*%
%LPC*%
G36*
X141731Y78231D02*
X141731Y78231D01*
X141731Y86361D01*
X143909Y86361D01*
X149861Y80409D01*
X149861Y78231D01*
X141731Y78231D01*
G37*
%LPD*%
%LPC*%
G36*
X344931Y103631D02*
X344931Y103631D01*
X344931Y111761D01*
X347109Y111761D01*
X353061Y105809D01*
X353061Y103631D01*
X344931Y103631D01*
G37*
%LPD*%
%LPC*%
G36*
X344931Y52831D02*
X344931Y52831D01*
X344931Y60961D01*
X347109Y60961D01*
X353061Y55009D01*
X353061Y52831D01*
X344931Y52831D01*
G37*
%LPD*%
%LPC*%
G36*
X344931Y129031D02*
X344931Y129031D01*
X344931Y137161D01*
X347109Y137161D01*
X353061Y131209D01*
X353061Y129031D01*
X344931Y129031D01*
G37*
%LPD*%
%LPC*%
G36*
X141731Y129031D02*
X141731Y129031D01*
X141731Y137161D01*
X143909Y137161D01*
X149861Y131209D01*
X149861Y129031D01*
X141731Y129031D01*
G37*
%LPD*%
%LPC*%
G36*
X141731Y52831D02*
X141731Y52831D01*
X141731Y60961D01*
X143909Y60961D01*
X149861Y55009D01*
X149861Y52831D01*
X141731Y52831D01*
G37*
%LPD*%
%LPC*%
G36*
X332739Y103631D02*
X332739Y103631D01*
X332739Y105809D01*
X338691Y111761D01*
X340869Y111761D01*
X340869Y103631D01*
X332739Y103631D01*
G37*
%LPD*%
%LPC*%
G36*
X129539Y52831D02*
X129539Y52831D01*
X129539Y55009D01*
X135491Y60961D01*
X137669Y60961D01*
X137669Y52831D01*
X129539Y52831D01*
G37*
%LPD*%
%LPC*%
G36*
X332739Y129031D02*
X332739Y129031D01*
X332739Y131209D01*
X338691Y137161D01*
X340869Y137161D01*
X340869Y129031D01*
X332739Y129031D01*
G37*
%LPD*%
%LPC*%
G36*
X332739Y52831D02*
X332739Y52831D01*
X332739Y55009D01*
X338691Y60961D01*
X340869Y60961D01*
X340869Y52831D01*
X332739Y52831D01*
G37*
%LPD*%
%LPC*%
G36*
X129539Y129031D02*
X129539Y129031D01*
X129539Y131209D01*
X135491Y137161D01*
X137669Y137161D01*
X137669Y129031D01*
X129539Y129031D01*
G37*
%LPD*%
%LPC*%
G36*
X332739Y78231D02*
X332739Y78231D01*
X332739Y80409D01*
X338691Y86361D01*
X340869Y86361D01*
X340869Y78231D01*
X332739Y78231D01*
G37*
%LPD*%
%LPC*%
G36*
X129539Y154431D02*
X129539Y154431D01*
X129539Y156609D01*
X135491Y162561D01*
X137669Y162561D01*
X137669Y154431D01*
X129539Y154431D01*
G37*
%LPD*%
%LPC*%
G36*
X129539Y103631D02*
X129539Y103631D01*
X129539Y105809D01*
X135491Y111761D01*
X137669Y111761D01*
X137669Y103631D01*
X129539Y103631D01*
G37*
%LPD*%
%LPC*%
G36*
X332739Y154431D02*
X332739Y154431D01*
X332739Y156609D01*
X338691Y162561D01*
X340869Y162561D01*
X340869Y154431D01*
X332739Y154431D01*
G37*
%LPD*%
%LPC*%
G36*
X129539Y78231D02*
X129539Y78231D01*
X129539Y80409D01*
X135491Y86361D01*
X137669Y86361D01*
X137669Y78231D01*
X129539Y78231D01*
G37*
%LPD*%
%LPC*%
G36*
X344931Y66039D02*
X344931Y66039D01*
X344931Y74169D01*
X353061Y74169D01*
X353061Y71991D01*
X347109Y66039D01*
X344931Y66039D01*
G37*
%LPD*%
%LPC*%
G36*
X344931Y142239D02*
X344931Y142239D01*
X344931Y150369D01*
X353061Y150369D01*
X353061Y148191D01*
X347109Y142239D01*
X344931Y142239D01*
G37*
%LPD*%
%LPC*%
G36*
X141731Y40639D02*
X141731Y40639D01*
X141731Y48769D01*
X149861Y48769D01*
X149861Y46591D01*
X143909Y40639D01*
X141731Y40639D01*
G37*
%LPD*%
%LPC*%
G36*
X141731Y142239D02*
X141731Y142239D01*
X141731Y150369D01*
X149861Y150369D01*
X149861Y148191D01*
X143909Y142239D01*
X141731Y142239D01*
G37*
%LPD*%
%LPC*%
G36*
X344931Y91439D02*
X344931Y91439D01*
X344931Y99569D01*
X353061Y99569D01*
X353061Y97391D01*
X347109Y91439D01*
X344931Y91439D01*
G37*
%LPD*%
%LPC*%
G36*
X141731Y91439D02*
X141731Y91439D01*
X141731Y99569D01*
X149861Y99569D01*
X149861Y97391D01*
X143909Y91439D01*
X141731Y91439D01*
G37*
%LPD*%
%LPC*%
G36*
X141731Y116839D02*
X141731Y116839D01*
X141731Y124969D01*
X149861Y124969D01*
X149861Y122791D01*
X143909Y116839D01*
X141731Y116839D01*
G37*
%LPD*%
%LPC*%
G36*
X344931Y40639D02*
X344931Y40639D01*
X344931Y48769D01*
X353061Y48769D01*
X353061Y46591D01*
X347109Y40639D01*
X344931Y40639D01*
G37*
%LPD*%
%LPC*%
G36*
X344931Y116839D02*
X344931Y116839D01*
X344931Y124969D01*
X353061Y124969D01*
X353061Y122791D01*
X347109Y116839D01*
X344931Y116839D01*
G37*
%LPD*%
%LPC*%
G36*
X141731Y66039D02*
X141731Y66039D01*
X141731Y74169D01*
X149861Y74169D01*
X149861Y71991D01*
X143909Y66039D01*
X141731Y66039D01*
G37*
%LPD*%
%LPC*%
G36*
X338691Y91439D02*
X338691Y91439D01*
X332739Y97391D01*
X332739Y99569D01*
X340869Y99569D01*
X340869Y91439D01*
X338691Y91439D01*
G37*
%LPD*%
%LPC*%
G36*
X135491Y91439D02*
X135491Y91439D01*
X129539Y97391D01*
X129539Y99569D01*
X137669Y99569D01*
X137669Y91439D01*
X135491Y91439D01*
G37*
%LPD*%
%LPC*%
G36*
X338691Y66039D02*
X338691Y66039D01*
X332739Y71991D01*
X332739Y74169D01*
X340869Y74169D01*
X340869Y66039D01*
X338691Y66039D01*
G37*
%LPD*%
%LPC*%
G36*
X135491Y40639D02*
X135491Y40639D01*
X129539Y46591D01*
X129539Y48769D01*
X137669Y48769D01*
X137669Y40639D01*
X135491Y40639D01*
G37*
%LPD*%
%LPC*%
G36*
X338691Y142239D02*
X338691Y142239D01*
X332739Y148191D01*
X332739Y150369D01*
X340869Y150369D01*
X340869Y142239D01*
X338691Y142239D01*
G37*
%LPD*%
%LPC*%
G36*
X135491Y66039D02*
X135491Y66039D01*
X129539Y71991D01*
X129539Y74169D01*
X137669Y74169D01*
X137669Y66039D01*
X135491Y66039D01*
G37*
%LPD*%
%LPC*%
G36*
X135491Y142239D02*
X135491Y142239D01*
X129539Y148191D01*
X129539Y150369D01*
X137669Y150369D01*
X137669Y142239D01*
X135491Y142239D01*
G37*
%LPD*%
%LPC*%
G36*
X338691Y40639D02*
X338691Y40639D01*
X332739Y46591D01*
X332739Y48769D01*
X340869Y48769D01*
X340869Y40639D01*
X338691Y40639D01*
G37*
%LPD*%
%LPC*%
G36*
X135491Y116839D02*
X135491Y116839D01*
X129539Y122791D01*
X129539Y124969D01*
X137669Y124969D01*
X137669Y116839D01*
X135491Y116839D01*
G37*
%LPD*%
%LPC*%
G36*
X338691Y116839D02*
X338691Y116839D01*
X332739Y122791D01*
X332739Y124969D01*
X340869Y124969D01*
X340869Y116839D01*
X338691Y116839D01*
G37*
%LPD*%
%LPC*%
G36*
X342899Y126999D02*
X342899Y126999D01*
X342899Y127001D01*
X342901Y127001D01*
X342901Y126999D01*
X342899Y126999D01*
G37*
%LPD*%
%LPC*%
G36*
X342899Y152399D02*
X342899Y152399D01*
X342899Y152401D01*
X342901Y152401D01*
X342901Y152399D01*
X342899Y152399D01*
G37*
%LPD*%
%LPC*%
G36*
X139699Y152399D02*
X139699Y152399D01*
X139699Y152401D01*
X139701Y152401D01*
X139701Y152399D01*
X139699Y152399D01*
G37*
%LPD*%
%LPC*%
G36*
X25399Y152399D02*
X25399Y152399D01*
X25399Y152401D01*
X25401Y152401D01*
X25401Y152399D01*
X25399Y152399D01*
G37*
%LPD*%
%LPC*%
G36*
X139699Y101599D02*
X139699Y101599D01*
X139699Y101601D01*
X139701Y101601D01*
X139701Y101599D01*
X139699Y101599D01*
G37*
%LPD*%
%LPC*%
G36*
X266299Y50799D02*
X266299Y50799D01*
X266299Y50801D01*
X266301Y50801D01*
X266301Y50799D01*
X266299Y50799D01*
G37*
%LPD*%
%LPC*%
G36*
X139699Y50799D02*
X139699Y50799D01*
X139699Y50801D01*
X139701Y50801D01*
X139701Y50799D01*
X139699Y50799D01*
G37*
%LPD*%
%LPC*%
G36*
X25399Y50799D02*
X25399Y50799D01*
X25399Y50801D01*
X25401Y50801D01*
X25401Y50799D01*
X25399Y50799D01*
G37*
%LPD*%
%LPC*%
G36*
X25399Y126999D02*
X25399Y126999D01*
X25399Y127001D01*
X25401Y127001D01*
X25401Y126999D01*
X25399Y126999D01*
G37*
%LPD*%
%LPC*%
G36*
X25399Y101599D02*
X25399Y101599D01*
X25399Y101601D01*
X25401Y101601D01*
X25401Y101599D01*
X25399Y101599D01*
G37*
%LPD*%
%LPC*%
G36*
X139699Y126999D02*
X139699Y126999D01*
X139699Y127001D01*
X139701Y127001D01*
X139701Y126999D01*
X139699Y126999D01*
G37*
%LPD*%
%LPC*%
G36*
X342899Y101599D02*
X342899Y101599D01*
X342899Y101601D01*
X342901Y101601D01*
X342901Y101599D01*
X342899Y101599D01*
G37*
%LPD*%
%LPC*%
G36*
X342899Y76199D02*
X342899Y76199D01*
X342899Y76201D01*
X342901Y76201D01*
X342901Y76199D01*
X342899Y76199D01*
G37*
%LPD*%
%LPC*%
G36*
X139699Y76199D02*
X139699Y76199D01*
X139699Y76201D01*
X139701Y76201D01*
X139701Y76199D01*
X139699Y76199D01*
G37*
%LPD*%
%LPC*%
G36*
X25399Y76199D02*
X25399Y76199D01*
X25399Y76201D01*
X25401Y76201D01*
X25401Y76199D01*
X25399Y76199D01*
G37*
%LPD*%
%LPC*%
G36*
X342899Y50799D02*
X342899Y50799D01*
X342899Y50801D01*
X342901Y50801D01*
X342901Y50799D01*
X342899Y50799D01*
G37*
%LPD*%
D10*
X165100Y152400D03*
X165100Y127000D03*
X165100Y101600D03*
X165100Y76200D03*
X165100Y50800D03*
X139700Y152400D03*
X139700Y127000D03*
X139700Y101600D03*
X139700Y76200D03*
X139700Y50800D03*
D11*
X114300Y50800D03*
X114300Y76200D03*
X114300Y101600D03*
X114300Y127000D03*
X114300Y152400D03*
X317500Y50800D03*
X317500Y76200D03*
X317500Y101600D03*
X317500Y127000D03*
X317500Y152400D03*
X342900Y50800D03*
X342900Y76200D03*
X342900Y101600D03*
X342900Y127000D03*
X342900Y152400D03*
X368300Y50800D03*
X368300Y76200D03*
X368300Y101600D03*
X368300Y127000D03*
X368300Y152400D03*
D12*
X216300Y50800D03*
X266300Y50800D03*
D13*
X50800Y50800D03*
X25400Y50800D03*
X50800Y76200D03*
X25400Y76200D03*
X50800Y101600D03*
X25400Y101600D03*
X50800Y127000D03*
X25400Y127000D03*
X50800Y152400D03*
X25400Y152400D03*
X457200Y50800D03*
X431800Y50800D03*
X457200Y76200D03*
X431800Y76200D03*
X457200Y101600D03*
X431800Y101600D03*
X457200Y127000D03*
X431800Y127000D03*
X457200Y152400D03*
X431800Y152400D03*
D14*
X114300Y50800D02*
X50800Y50800D01*
X50800Y76200D02*
X114300Y76200D01*
X114300Y101600D02*
X50800Y101600D01*
X50800Y127000D02*
X114300Y127000D01*
X114300Y152400D02*
X50800Y152400D01*
X368300Y50800D02*
X405130Y50800D01*
X417830Y38100D01*
X443230Y38100D01*
X455930Y50800D02*
X457200Y50800D01*
X455930Y50800D02*
X443230Y38100D01*
X405130Y76200D02*
X368300Y76200D01*
X405130Y76200D02*
X417830Y63500D01*
X443230Y63500D01*
X455930Y76200D02*
X457200Y76200D01*
X455930Y76200D02*
X443230Y63500D01*
X405130Y101600D02*
X368300Y101600D01*
X405130Y101600D02*
X417830Y88900D01*
X443230Y88900D01*
X455930Y101600D02*
X457200Y101600D01*
X455930Y101600D02*
X443230Y88900D01*
X443230Y114300D02*
X442976Y114554D01*
X425375Y114554D01*
X412929Y127000D01*
X368300Y127000D01*
X455930Y127000D02*
X457200Y127000D01*
X455930Y127000D02*
X443230Y114300D01*
X405130Y152400D02*
X368300Y152400D01*
X405130Y152400D02*
X417830Y139700D01*
X443230Y139700D01*
X455930Y152400D02*
X457200Y152400D01*
X455930Y152400D02*
X443230Y139700D01*
M02*
