%
M48
M72
T01C0.0350
T02C0.0400
T03C0.0470
T04C0.2362
%
T01
X19898Y7650
T02
X2898Y2650
X3898Y2650
X3898Y3650
X2898Y3650
X2898Y4650
X3898Y4650
X3898Y5650
X2898Y5650
X2898Y6650
X3898Y6650
X6398Y6650
X7398Y6650
X8398Y6650
X8398Y5650
X7398Y5650
X6398Y5650
X6398Y4650
X7398Y4650
X8398Y4650
X8398Y3650
X7398Y3650
X6398Y3650
X6398Y2650
X7398Y2650
X8398Y2650
X14398Y2650
X15398Y2650
X16398Y2650
X16398Y3650
X15398Y3650
X14398Y3650
X14398Y4650
X15398Y4650
X16398Y4650
X16398Y5650
X15398Y5650
X14398Y5650
X14398Y6650
X15398Y6650
X16398Y6650
X18898Y6650
X19898Y6650
X19898Y5650
X18898Y5650
X18898Y4650
X19898Y4650
X19898Y3650
X18898Y3650
X18898Y2650
X19898Y2650
T03
X12382Y2650
X10414Y2650
T04
X11398Y6150
M30
