G04 EAGLE Gerber X2 export*
%TF.Part,Single*%
%TF.FileFunction,Other,Top Paste*%
%TF.FilePolarity,Positive*%
%TF.GenerationSoftware,Autodesk,EAGLE,8.7.1*%
%TF.CreationDate,2018-03-29T20:03:01Z*%
G75*
%MOMM*%
%FSLAX34Y34*%
%LPD*%
%AMOC8*
5,1,8,0,0,1.08239X$1,22.5*%
G01*
%ADD10R,2.400000X1.800000*%
%ADD11R,2.200000X0.500000*%
%ADD12R,0.650000X1.000000*%
%ADD13R,1.200000X0.800000*%


D10*
X133350Y293300D03*
X133350Y252800D03*
D11*
X253790Y361950D03*
X253790Y374550D03*
X253790Y387250D03*
X253790Y399950D03*
X190710Y361950D03*
X190710Y374650D03*
X190710Y387350D03*
X190710Y400050D03*
D12*
X317500Y416400D03*
X304800Y416400D03*
X292100Y416400D03*
X279400Y416400D03*
X317500Y396400D03*
X304800Y396400D03*
X292100Y396400D03*
X279400Y396400D03*
X317500Y359250D03*
X304800Y359250D03*
X292100Y359250D03*
X279400Y359250D03*
X317500Y339250D03*
X304800Y339250D03*
X292100Y339250D03*
X279400Y339250D03*
X120650Y339250D03*
X133350Y339250D03*
X146050Y339250D03*
X158750Y339250D03*
X120650Y359250D03*
X133350Y359250D03*
X146050Y359250D03*
X158750Y359250D03*
X120650Y396400D03*
X133350Y396400D03*
X146050Y396400D03*
X158750Y396400D03*
X120650Y416400D03*
X133350Y416400D03*
X146050Y416400D03*
X158750Y416400D03*
D11*
X253790Y450850D03*
X253790Y463450D03*
X253790Y476150D03*
X253790Y488850D03*
X190710Y450850D03*
X190710Y463550D03*
X190710Y476250D03*
X190710Y488950D03*
D12*
X317500Y524350D03*
X304800Y524350D03*
X292100Y524350D03*
X279400Y524350D03*
X317500Y504350D03*
X304800Y504350D03*
X292100Y504350D03*
X279400Y504350D03*
X317500Y473550D03*
X304800Y473550D03*
X292100Y473550D03*
X279400Y473550D03*
X317500Y453550D03*
X304800Y453550D03*
X292100Y453550D03*
X279400Y453550D03*
X127000Y453550D03*
X139700Y453550D03*
X152400Y453550D03*
X165100Y453550D03*
X127000Y473550D03*
X139700Y473550D03*
X152400Y473550D03*
X165100Y473550D03*
X127000Y504350D03*
X139700Y504350D03*
X152400Y504350D03*
X165100Y504350D03*
X127000Y524350D03*
X139700Y524350D03*
X152400Y524350D03*
X165100Y524350D03*
D11*
X501440Y444500D03*
X501440Y457100D03*
X501440Y469800D03*
X501440Y482500D03*
X438360Y444500D03*
X438360Y457200D03*
X438360Y469900D03*
X438360Y482600D03*
D12*
X565150Y505300D03*
X552450Y505300D03*
X539750Y505300D03*
X527050Y505300D03*
X565150Y485300D03*
X552450Y485300D03*
X539750Y485300D03*
X527050Y485300D03*
X565150Y454500D03*
X552450Y454500D03*
X539750Y454500D03*
X527050Y454500D03*
X565150Y434500D03*
X552450Y434500D03*
X539750Y434500D03*
X527050Y434500D03*
X374650Y434500D03*
X387350Y434500D03*
X400050Y434500D03*
X412750Y434500D03*
X374650Y454500D03*
X387350Y454500D03*
X400050Y454500D03*
X412750Y454500D03*
X374650Y485300D03*
X387350Y485300D03*
X400050Y485300D03*
X412750Y485300D03*
X374650Y505300D03*
X387350Y505300D03*
X400050Y505300D03*
X412750Y505300D03*
D11*
X501440Y355600D03*
X501440Y368200D03*
X501440Y380900D03*
X501440Y393600D03*
X438360Y355600D03*
X438360Y368300D03*
X438360Y381000D03*
X438360Y393700D03*
D12*
X565150Y410050D03*
X552450Y410050D03*
X539750Y410050D03*
X527050Y410050D03*
X565150Y390050D03*
X552450Y390050D03*
X539750Y390050D03*
X527050Y390050D03*
X565150Y352900D03*
X552450Y352900D03*
X539750Y352900D03*
X527050Y352900D03*
X565150Y332900D03*
X552450Y332900D03*
X539750Y332900D03*
X527050Y332900D03*
X374650Y339250D03*
X387350Y339250D03*
X400050Y339250D03*
X412750Y339250D03*
X374650Y359250D03*
X387350Y359250D03*
X400050Y359250D03*
X412750Y359250D03*
X374650Y390050D03*
X387350Y390050D03*
X400050Y390050D03*
X412750Y390050D03*
X374650Y410050D03*
X387350Y410050D03*
X400050Y410050D03*
X412750Y410050D03*
D11*
X723690Y444500D03*
X723690Y457100D03*
X723690Y469800D03*
X723690Y482500D03*
X660610Y444500D03*
X660610Y457200D03*
X660610Y469900D03*
X660610Y482600D03*
D12*
X787400Y498950D03*
X774700Y498950D03*
X762000Y498950D03*
X749300Y498950D03*
X787400Y478950D03*
X774700Y478950D03*
X762000Y478950D03*
X749300Y478950D03*
X787400Y448150D03*
X774700Y448150D03*
X762000Y448150D03*
X749300Y448150D03*
X787400Y428150D03*
X774700Y428150D03*
X762000Y428150D03*
X749300Y428150D03*
X596900Y428150D03*
X609600Y428150D03*
X622300Y428150D03*
X635000Y428150D03*
X596900Y448150D03*
X609600Y448150D03*
X622300Y448150D03*
X635000Y448150D03*
X596900Y478950D03*
X609600Y478950D03*
X622300Y478950D03*
X635000Y478950D03*
X596900Y498950D03*
X609600Y498950D03*
X622300Y498950D03*
X635000Y498950D03*
D11*
X216110Y311150D03*
X216110Y298550D03*
X216110Y285850D03*
X216110Y273150D03*
X279190Y311150D03*
X279190Y298450D03*
X279190Y285750D03*
X279190Y273050D03*
D13*
X190500Y314850D03*
X190500Y332850D03*
X190500Y264050D03*
X190500Y282050D03*
M02*
