G04 EAGLE Gerber X2 export*
%TF.Part,Single*%
%TF.FileFunction,Other,Top Soldermask*%
%TF.FilePolarity,Positive*%
%TF.GenerationSoftware,Autodesk,EAGLE,8.7.1*%
%TF.CreationDate,2018-03-29T20:03:01Z*%
G75*
%MOMM*%
%FSLAX34Y34*%
%LPD*%
%AMOC8*
5,1,8,0,0,1.08239X$1,22.5*%
G01*
%ADD10P,2.144431X8X112.500000*%
%ADD11C,3.301600*%
%ADD12P,2.048207X8X202.500000*%
%ADD13P,2.048207X8X22.500000*%
%ADD14P,2.144431X8X22.500000*%
%ADD15P,2.144431X8X202.500000*%
%ADD16R,2.501600X1.901600*%
%ADD17R,2.301600X0.601600*%
%ADD18R,0.751600X1.101600*%
%ADD19R,1.301600X0.901600*%


D10*
X704850Y139700D03*
X730250Y139700D03*
X755650Y139700D03*
X781050Y139700D03*
X679450Y139700D03*
X781050Y622300D03*
X806450Y622300D03*
X476250Y139700D03*
X501650Y139700D03*
X527050Y139700D03*
X552450Y139700D03*
X577850Y139700D03*
X603250Y139700D03*
X628650Y139700D03*
X450850Y139700D03*
X425450Y622300D03*
X450850Y622300D03*
X476250Y622300D03*
X501650Y622300D03*
X527050Y622300D03*
X552450Y622300D03*
X577850Y622300D03*
X400050Y622300D03*
X207010Y622300D03*
X232410Y622300D03*
X257810Y622300D03*
X283210Y622300D03*
X308610Y622300D03*
X334010Y622300D03*
X359410Y622300D03*
X181610Y622300D03*
X882650Y190500D03*
X908050Y190500D03*
X349250Y139700D03*
X374650Y139700D03*
X400050Y139700D03*
D11*
X95250Y622300D03*
X82550Y139700D03*
X844550Y622300D03*
X908050Y139700D03*
D12*
X933450Y433000D03*
X933450Y483000D03*
X933450Y533000D03*
X933450Y583000D03*
X933450Y229800D03*
X933450Y279800D03*
X933450Y329800D03*
X933450Y379800D03*
D13*
X57700Y519900D03*
X57700Y469900D03*
X57700Y419900D03*
X57700Y369900D03*
D14*
X796450Y685800D03*
X796450Y711200D03*
X821850Y685800D03*
X821850Y711200D03*
X847250Y685800D03*
X847250Y711200D03*
X872650Y685800D03*
X872650Y711200D03*
X898050Y685800D03*
X898050Y711200D03*
D15*
X898050Y76200D03*
X898050Y50800D03*
X872650Y76200D03*
X872650Y50800D03*
X847250Y76200D03*
X847250Y50800D03*
X821850Y76200D03*
X821850Y50800D03*
X796450Y76200D03*
X796450Y50800D03*
D14*
X588250Y685800D03*
X588250Y711200D03*
X613650Y685800D03*
X613650Y711200D03*
X639050Y685800D03*
X639050Y711200D03*
X664450Y685800D03*
X664450Y711200D03*
X689850Y685800D03*
X689850Y711200D03*
D15*
X691750Y76200D03*
X691750Y50800D03*
X666350Y76200D03*
X666350Y50800D03*
X640950Y76200D03*
X640950Y50800D03*
X615550Y76200D03*
X615550Y50800D03*
X590150Y76200D03*
X590150Y50800D03*
D14*
X382350Y685800D03*
X382350Y711200D03*
X407750Y685800D03*
X407750Y711200D03*
X433150Y685800D03*
X433150Y711200D03*
X458550Y685800D03*
X458550Y711200D03*
X483950Y685800D03*
X483950Y711200D03*
D15*
X485050Y76200D03*
X485050Y50800D03*
X459650Y76200D03*
X459650Y50800D03*
X434250Y76200D03*
X434250Y50800D03*
X408850Y76200D03*
X408850Y50800D03*
X383450Y76200D03*
X383450Y50800D03*
D14*
X176450Y685800D03*
X176450Y711200D03*
X201850Y685800D03*
X201850Y711200D03*
X227250Y685800D03*
X227250Y711200D03*
X252650Y685800D03*
X252650Y711200D03*
X278050Y685800D03*
X278050Y711200D03*
D15*
X276050Y76200D03*
X276050Y50800D03*
X250650Y76200D03*
X250650Y50800D03*
X225250Y76200D03*
X225250Y50800D03*
X199850Y76200D03*
X199850Y50800D03*
X174450Y76200D03*
X174450Y50800D03*
D13*
X57150Y304400D03*
X57150Y254400D03*
D16*
X133350Y293300D03*
X133350Y252800D03*
D17*
X253790Y361950D03*
X253790Y374550D03*
X253790Y387250D03*
X253790Y399950D03*
X190710Y361950D03*
X190710Y374650D03*
X190710Y387350D03*
X190710Y400050D03*
D18*
X317500Y416400D03*
X304800Y416400D03*
X292100Y416400D03*
X279400Y416400D03*
X317500Y396400D03*
X304800Y396400D03*
X292100Y396400D03*
X279400Y396400D03*
X317500Y359250D03*
X304800Y359250D03*
X292100Y359250D03*
X279400Y359250D03*
X317500Y339250D03*
X304800Y339250D03*
X292100Y339250D03*
X279400Y339250D03*
X120650Y339250D03*
X133350Y339250D03*
X146050Y339250D03*
X158750Y339250D03*
X120650Y359250D03*
X133350Y359250D03*
X146050Y359250D03*
X158750Y359250D03*
X120650Y396400D03*
X133350Y396400D03*
X146050Y396400D03*
X158750Y396400D03*
X120650Y416400D03*
X133350Y416400D03*
X146050Y416400D03*
X158750Y416400D03*
D17*
X253790Y450850D03*
X253790Y463450D03*
X253790Y476150D03*
X253790Y488850D03*
X190710Y450850D03*
X190710Y463550D03*
X190710Y476250D03*
X190710Y488950D03*
D18*
X317500Y524350D03*
X304800Y524350D03*
X292100Y524350D03*
X279400Y524350D03*
X317500Y504350D03*
X304800Y504350D03*
X292100Y504350D03*
X279400Y504350D03*
X317500Y473550D03*
X304800Y473550D03*
X292100Y473550D03*
X279400Y473550D03*
X317500Y453550D03*
X304800Y453550D03*
X292100Y453550D03*
X279400Y453550D03*
X127000Y453550D03*
X139700Y453550D03*
X152400Y453550D03*
X165100Y453550D03*
X127000Y473550D03*
X139700Y473550D03*
X152400Y473550D03*
X165100Y473550D03*
X127000Y504350D03*
X139700Y504350D03*
X152400Y504350D03*
X165100Y504350D03*
X127000Y524350D03*
X139700Y524350D03*
X152400Y524350D03*
X165100Y524350D03*
D17*
X501440Y444500D03*
X501440Y457100D03*
X501440Y469800D03*
X501440Y482500D03*
X438360Y444500D03*
X438360Y457200D03*
X438360Y469900D03*
X438360Y482600D03*
D18*
X565150Y505300D03*
X552450Y505300D03*
X539750Y505300D03*
X527050Y505300D03*
X565150Y485300D03*
X552450Y485300D03*
X539750Y485300D03*
X527050Y485300D03*
X565150Y454500D03*
X552450Y454500D03*
X539750Y454500D03*
X527050Y454500D03*
X565150Y434500D03*
X552450Y434500D03*
X539750Y434500D03*
X527050Y434500D03*
X374650Y434500D03*
X387350Y434500D03*
X400050Y434500D03*
X412750Y434500D03*
X374650Y454500D03*
X387350Y454500D03*
X400050Y454500D03*
X412750Y454500D03*
X374650Y485300D03*
X387350Y485300D03*
X400050Y485300D03*
X412750Y485300D03*
X374650Y505300D03*
X387350Y505300D03*
X400050Y505300D03*
X412750Y505300D03*
D17*
X501440Y355600D03*
X501440Y368200D03*
X501440Y380900D03*
X501440Y393600D03*
X438360Y355600D03*
X438360Y368300D03*
X438360Y381000D03*
X438360Y393700D03*
D18*
X565150Y410050D03*
X552450Y410050D03*
X539750Y410050D03*
X527050Y410050D03*
X565150Y390050D03*
X552450Y390050D03*
X539750Y390050D03*
X527050Y390050D03*
X565150Y352900D03*
X552450Y352900D03*
X539750Y352900D03*
X527050Y352900D03*
X565150Y332900D03*
X552450Y332900D03*
X539750Y332900D03*
X527050Y332900D03*
X374650Y339250D03*
X387350Y339250D03*
X400050Y339250D03*
X412750Y339250D03*
X374650Y359250D03*
X387350Y359250D03*
X400050Y359250D03*
X412750Y359250D03*
X374650Y390050D03*
X387350Y390050D03*
X400050Y390050D03*
X412750Y390050D03*
X374650Y410050D03*
X387350Y410050D03*
X400050Y410050D03*
X412750Y410050D03*
D17*
X723690Y444500D03*
X723690Y457100D03*
X723690Y469800D03*
X723690Y482500D03*
X660610Y444500D03*
X660610Y457200D03*
X660610Y469900D03*
X660610Y482600D03*
D18*
X787400Y498950D03*
X774700Y498950D03*
X762000Y498950D03*
X749300Y498950D03*
X787400Y478950D03*
X774700Y478950D03*
X762000Y478950D03*
X749300Y478950D03*
X787400Y448150D03*
X774700Y448150D03*
X762000Y448150D03*
X749300Y448150D03*
X787400Y428150D03*
X774700Y428150D03*
X762000Y428150D03*
X749300Y428150D03*
X596900Y428150D03*
X609600Y428150D03*
X622300Y428150D03*
X635000Y428150D03*
X596900Y448150D03*
X609600Y448150D03*
X622300Y448150D03*
X635000Y448150D03*
X596900Y478950D03*
X609600Y478950D03*
X622300Y478950D03*
X635000Y478950D03*
X596900Y498950D03*
X609600Y498950D03*
X622300Y498950D03*
X635000Y498950D03*
D17*
X216110Y311150D03*
X216110Y298550D03*
X216110Y285850D03*
X216110Y273150D03*
X279190Y311150D03*
X279190Y298450D03*
X279190Y285750D03*
X279190Y273050D03*
D19*
X190500Y314850D03*
X190500Y332850D03*
X190500Y264050D03*
X190500Y282050D03*
M02*
