M48
;GenerationSoftware,Autodesk,EAGLE,8.7.1*%
;CreationDate,2018-03-29T20:02:58Z*%
FMAT,2
ICI,OFF
METRIC,TZ,000.000
T5C0.381
T4C0.559
T3C1.016
T2C1.194
T1C3.200
%
G90
M71
T1
X90805Y13970
X9525Y62230
X8255Y13970
X84455Y62230
T2
X5715Y30440
X5715Y25440
X5770Y36990
X5770Y41990
X5770Y46990
X5770Y51990
X93345Y37980
X93345Y32980
X93345Y27980
X93345Y22980
X93345Y58300
X93345Y53300
X93345Y48300
X93345Y43300
T3
X63905Y71120
X66445Y68580
X66445Y71120
X68985Y68580
X68985Y71120
X69175Y7620
X66635Y7620
X66635Y5080
X64095Y7620
X64095Y5080
X61555Y7620
X61555Y5080
X59015Y7620
X59015Y5080
X38235Y68580
X38235Y71120
X40775Y68580
X40775Y71120
X43315Y68580
X43315Y71120
X45855Y68580
X45855Y71120
X48395Y68580
X48395Y71120
X48505Y7620
X33401Y62230
X48505Y5080
X45965Y7620
X45965Y5080
X43425Y7620
X43425Y5080
X40885Y5080
X38345Y7620
X38345Y5080
X17645Y68580
X17645Y71120
X20185Y68580
X20185Y71120
X22725Y68580
X22725Y71120
X25265Y68580
X25265Y71120
X27805Y68580
X27805Y71120
X27605Y7620
X27605Y5080
X25065Y7620
X25065Y5080
X22525Y7620
X22525Y5080
X19985Y7620
X19985Y5080
X17445Y7620
X17445Y5080
X40885Y7620
X70485Y13970
X73025Y13970
X75565Y13970
X78105Y13970
X67945Y13970
X78105Y62230
X80645Y62230
X47625Y13970
X50165Y13970
X52705Y13970
X55245Y13970
X57785Y13970
X60325Y13970
X62865Y13970
X45085Y13970
X42545Y62230
X45085Y62230
X47625Y62230
X50165Y62230
X52705Y62230
X55245Y62230
X57785Y62230
X40005Y62230
X20701Y62230
X23241Y62230
X25781Y62230
X28321Y62230
X30861Y62230
X69175Y5080
X35941Y62230
X18161Y62230
X88265Y19050
X90805Y19050
X34925Y13970
X37465Y13970
X40005Y13970
X79645Y68580
X79645Y71120
X82185Y68580
X82185Y71120
X84725Y68580
X84725Y71120
X87265Y68580
X87265Y71120
X89805Y68580
X89805Y71120
X89805Y7620
X89805Y5080
X87265Y7620
X87265Y5080
X84725Y7620
X84725Y5080
X82185Y7620
X82185Y5080
X79645Y7620
X79645Y5080
X58825Y68580
X58825Y71120
X61365Y68580
X61365Y71120
X63905Y68580
T4
X70485Y49530
X40640Y53340
X47625Y49530
X66675Y38100
X69215Y57150
X50165Y29845
X70485Y41275
X72390Y52070
X21590Y42545
X70117Y46088
X42545Y27305
X39370Y10160
X69888Y10122
X66675Y42545
X20955Y33020
X46990Y42545
X69215Y47625
T5
X16281Y24181
X16116Y32398
X15875Y44298
X46152Y43485
X59360Y51003
X64135Y26035
X30505Y44298
X35585Y56286
X15062Y42875
X13843Y27635
X48184Y28042
X49403Y16662
X33020Y55880
X51638Y43282
X62408Y53035
X14046Y44298
X15469Y28448
X32334Y43891
X38837Y27026
X60985Y25400
X29845Y26035
X22860Y26035
X27864Y44298
X27864Y55677
X50825Y41656
X74803Y55474
X37414Y28448
X60325Y41694
X23190Y34950
X20955Y37186
X20752Y38405
X46355Y32309
X41939Y36859
X37465Y37452
X61595Y22758
X31750Y29210
X29083Y44298
X10782Y36830
X12078Y38100
X28575Y32753
X14605Y31115
X33757Y41046
X35382Y30480
X36398Y30480
X42545Y33020
X51638Y51206
X56109Y16256
X31521Y57099
X73990Y60350
X60173Y53848
X68504Y62789
X57734Y41046
M30