G75*
%MOIN*%
%OFA0B0*%
%FSLAX25Y25*%
%IPPOS*%
%LPD*%
%AMOC8*
5,1,8,0,0,1.08239X$1,22.5*
%
%ADD10C,0.00000*%
D10*
X0011500Y0001500D02*
X0213000Y0001500D01*
X0213000Y0001501D02*
X0213270Y0001564D01*
X0213538Y0001634D01*
X0213805Y0001711D01*
X0214069Y0001794D01*
X0214332Y0001884D01*
X0214592Y0001979D01*
X0214850Y0002081D01*
X0215105Y0002190D01*
X0215358Y0002304D01*
X0215608Y0002424D01*
X0215855Y0002551D01*
X0216098Y0002683D01*
X0216339Y0002821D01*
X0216576Y0002965D01*
X0216809Y0003115D01*
X0217039Y0003270D01*
X0217265Y0003431D01*
X0217487Y0003597D01*
X0217705Y0003769D01*
X0217919Y0003945D01*
X0218128Y0004127D01*
X0218333Y0004314D01*
X0218533Y0004506D01*
X0218729Y0004702D01*
X0218920Y0004903D01*
X0219106Y0005109D01*
X0219287Y0005319D01*
X0219463Y0005534D01*
X0219633Y0005752D01*
X0219798Y0005975D01*
X0219958Y0006202D01*
X0220113Y0006432D01*
X0220261Y0006666D01*
X0220404Y0006904D01*
X0220541Y0007145D01*
X0220673Y0007389D01*
X0220798Y0007637D01*
X0220917Y0007887D01*
X0221031Y0008140D01*
X0221138Y0008396D01*
X0221239Y0008654D01*
X0221333Y0008915D01*
X0221422Y0009178D01*
X0221504Y0009443D01*
X0221579Y0009709D01*
X0221648Y0009978D01*
X0221711Y0010248D01*
X0221767Y0010520D01*
X0221816Y0010793D01*
X0221859Y0011067D01*
X0221895Y0011342D01*
X0221925Y0011617D01*
X0221948Y0011894D01*
X0221964Y0012171D01*
X0221973Y0012448D01*
X0221976Y0012725D01*
X0221972Y0013002D01*
X0221961Y0013280D01*
X0221944Y0013556D01*
X0221920Y0013833D01*
X0221889Y0014108D01*
X0221852Y0014383D01*
X0221808Y0014657D01*
X0221758Y0014930D01*
X0221700Y0015201D01*
X0221701Y0015201D02*
X0222201Y0072760D01*
X0222198Y0072970D01*
X0222191Y0073180D01*
X0222178Y0073390D01*
X0222160Y0073600D01*
X0222138Y0073809D01*
X0222110Y0074017D01*
X0222077Y0074225D01*
X0222039Y0074432D01*
X0221996Y0074638D01*
X0221948Y0074842D01*
X0221895Y0075046D01*
X0221838Y0075248D01*
X0221775Y0075449D01*
X0221708Y0075648D01*
X0221636Y0075845D01*
X0221559Y0076041D01*
X0221477Y0076235D01*
X0221391Y0076427D01*
X0221300Y0076616D01*
X0221204Y0076804D01*
X0221104Y0076989D01*
X0221000Y0077171D01*
X0220891Y0077351D01*
X0220778Y0077528D01*
X0220661Y0077703D01*
X0220539Y0077874D01*
X0220414Y0078043D01*
X0220284Y0078208D01*
X0220150Y0078371D01*
X0220013Y0078530D01*
X0219871Y0078686D01*
X0219726Y0078838D01*
X0219578Y0078986D01*
X0219426Y0079131D01*
X0219270Y0079273D01*
X0219111Y0079410D01*
X0218948Y0079544D01*
X0218783Y0079674D01*
X0218614Y0079799D01*
X0218443Y0079921D01*
X0218268Y0080038D01*
X0218091Y0080151D01*
X0217911Y0080260D01*
X0217729Y0080364D01*
X0217544Y0080464D01*
X0217356Y0080560D01*
X0217167Y0080651D01*
X0216975Y0080737D01*
X0216781Y0080819D01*
X0216585Y0080896D01*
X0216388Y0080968D01*
X0216189Y0081035D01*
X0215988Y0081098D01*
X0215786Y0081155D01*
X0215582Y0081208D01*
X0215378Y0081256D01*
X0215172Y0081299D01*
X0214965Y0081337D01*
X0214757Y0081370D01*
X0214549Y0081398D01*
X0214340Y0081420D01*
X0214130Y0081438D01*
X0213920Y0081451D01*
X0213710Y0081458D01*
X0213500Y0081461D01*
X0011461Y0081461D01*
X0011220Y0081458D01*
X0010980Y0081449D01*
X0010739Y0081435D01*
X0010500Y0081414D01*
X0010260Y0081388D01*
X0010022Y0081356D01*
X0009784Y0081319D01*
X0009547Y0081275D01*
X0009312Y0081226D01*
X0009077Y0081172D01*
X0008844Y0081111D01*
X0008613Y0081045D01*
X0008383Y0080973D01*
X0008155Y0080896D01*
X0007929Y0080814D01*
X0007705Y0080726D01*
X0007483Y0080632D01*
X0007263Y0080533D01*
X0007046Y0080429D01*
X0006832Y0080320D01*
X0006620Y0080206D01*
X0006411Y0080086D01*
X0006205Y0079962D01*
X0006002Y0079832D01*
X0005803Y0079698D01*
X0005606Y0079559D01*
X0005413Y0079415D01*
X0005224Y0079266D01*
X0005038Y0079113D01*
X0004856Y0078956D01*
X0004677Y0078794D01*
X0004503Y0078628D01*
X0004333Y0078458D01*
X0004167Y0078284D01*
X0004005Y0078105D01*
X0003848Y0077923D01*
X0003695Y0077737D01*
X0003546Y0077548D01*
X0003402Y0077355D01*
X0003263Y0077158D01*
X0003129Y0076959D01*
X0002999Y0076756D01*
X0002875Y0076550D01*
X0002755Y0076341D01*
X0002641Y0076129D01*
X0002532Y0075915D01*
X0002428Y0075698D01*
X0002329Y0075478D01*
X0002235Y0075256D01*
X0002147Y0075032D01*
X0002065Y0074806D01*
X0001988Y0074578D01*
X0001916Y0074348D01*
X0001850Y0074117D01*
X0001789Y0073884D01*
X0001735Y0073649D01*
X0001686Y0073414D01*
X0001642Y0073177D01*
X0001605Y0072939D01*
X0001573Y0072701D01*
X0001547Y0072461D01*
X0001526Y0072222D01*
X0001512Y0071981D01*
X0001503Y0071741D01*
X0001500Y0071500D01*
X0001500Y0011500D01*
X0001503Y0011258D01*
X0001512Y0011017D01*
X0001526Y0010776D01*
X0001547Y0010535D01*
X0001573Y0010295D01*
X0001605Y0010055D01*
X0001643Y0009816D01*
X0001686Y0009579D01*
X0001736Y0009342D01*
X0001791Y0009107D01*
X0001851Y0008873D01*
X0001918Y0008641D01*
X0001989Y0008410D01*
X0002067Y0008181D01*
X0002150Y0007954D01*
X0002238Y0007729D01*
X0002332Y0007506D01*
X0002431Y0007286D01*
X0002536Y0007068D01*
X0002645Y0006853D01*
X0002760Y0006640D01*
X0002880Y0006430D01*
X0003005Y0006224D01*
X0003135Y0006020D01*
X0003270Y0005819D01*
X0003410Y0005622D01*
X0003554Y0005428D01*
X0003703Y0005238D01*
X0003857Y0005052D01*
X0004015Y0004869D01*
X0004177Y0004690D01*
X0004344Y0004515D01*
X0004515Y0004344D01*
X0004690Y0004177D01*
X0004869Y0004015D01*
X0005052Y0003857D01*
X0005238Y0003703D01*
X0005428Y0003554D01*
X0005622Y0003410D01*
X0005819Y0003270D01*
X0006020Y0003135D01*
X0006224Y0003005D01*
X0006430Y0002880D01*
X0006640Y0002760D01*
X0006853Y0002645D01*
X0007068Y0002536D01*
X0007286Y0002431D01*
X0007506Y0002332D01*
X0007729Y0002238D01*
X0007954Y0002150D01*
X0008181Y0002067D01*
X0008410Y0001989D01*
X0008641Y0001918D01*
X0008873Y0001851D01*
X0009107Y0001791D01*
X0009342Y0001736D01*
X0009579Y0001686D01*
X0009816Y0001643D01*
X0010055Y0001605D01*
X0010295Y0001573D01*
X0010535Y0001547D01*
X0010776Y0001526D01*
X0011017Y0001512D01*
X0011258Y0001503D01*
X0011500Y0001500D01*
M02*
