G75*
%MOIN*%
%OFA0B0*%
%FSLAX25Y25*%
%IPPOS*%
%LPD*%
%AMOC8*
5,1,8,0,0,1.08239X$1,22.5*
%
%ADD10R,0.09449X0.07087*%
%ADD11R,0.08661X0.01969*%
%ADD12R,0.02559X0.03937*%
%ADD13R,0.04724X0.03150*%
D10*
X0103750Y0115928D03*
X0103750Y0131872D03*
D11*
X0126333Y0156400D03*
X0126333Y0161400D03*
X0126333Y0166400D03*
X0126333Y0171400D03*
X0151167Y0171361D03*
X0151167Y0166361D03*
X0151167Y0161361D03*
X0151167Y0156400D03*
X0151167Y0211400D03*
X0151167Y0216361D03*
X0151167Y0221361D03*
X0151167Y0226361D03*
X0126333Y0226400D03*
X0126333Y0221400D03*
X0126333Y0216400D03*
X0126333Y0211400D03*
X0221333Y0211400D03*
X0221333Y0216400D03*
X0221333Y0221400D03*
X0221333Y0226400D03*
X0246167Y0226361D03*
X0246167Y0221361D03*
X0246167Y0216361D03*
X0246167Y0211400D03*
X0246167Y0171361D03*
X0246167Y0166361D03*
X0246167Y0161361D03*
X0246167Y0156400D03*
X0221333Y0156400D03*
X0221333Y0161400D03*
X0221333Y0166400D03*
X0221333Y0171400D03*
X0311333Y0171400D03*
X0311333Y0166400D03*
X0311333Y0161400D03*
X0311333Y0156400D03*
X0336167Y0156400D03*
X0336167Y0161361D03*
X0336167Y0166361D03*
X0336167Y0171361D03*
X0336167Y0211400D03*
X0336167Y0216361D03*
X0336167Y0221361D03*
X0336167Y0226361D03*
X0311333Y0226400D03*
X0311333Y0221400D03*
X0311333Y0216400D03*
X0311333Y0211400D03*
D12*
X0301250Y0212837D03*
X0296250Y0212837D03*
X0291250Y0212837D03*
X0286250Y0212837D03*
X0286250Y0204963D03*
X0291250Y0204963D03*
X0296250Y0204963D03*
X0301250Y0204963D03*
X0301250Y0229963D03*
X0296250Y0229963D03*
X0291250Y0229963D03*
X0286250Y0229963D03*
X0286250Y0237837D03*
X0291250Y0237837D03*
X0296250Y0237837D03*
X0301250Y0237837D03*
X0271250Y0237837D03*
X0266250Y0237837D03*
X0261250Y0237837D03*
X0256250Y0237837D03*
X0256250Y0229963D03*
X0261250Y0229963D03*
X0266250Y0229963D03*
X0271250Y0229963D03*
X0271250Y0212837D03*
X0266250Y0212837D03*
X0261250Y0212837D03*
X0256250Y0212837D03*
X0256250Y0204963D03*
X0261250Y0204963D03*
X0266250Y0204963D03*
X0271250Y0204963D03*
X0271250Y0182837D03*
X0266250Y0182837D03*
X0261250Y0182837D03*
X0256250Y0182837D03*
X0256250Y0174963D03*
X0261250Y0174963D03*
X0266250Y0174963D03*
X0271250Y0174963D03*
X0271250Y0157837D03*
X0266250Y0157837D03*
X0261250Y0157837D03*
X0256250Y0157837D03*
X0256250Y0149963D03*
X0261250Y0149963D03*
X0266250Y0149963D03*
X0271250Y0149963D03*
X0211250Y0149963D03*
X0206250Y0149963D03*
X0201250Y0149963D03*
X0196250Y0149963D03*
X0196250Y0157837D03*
X0201250Y0157837D03*
X0206250Y0157837D03*
X0211250Y0157837D03*
X0211250Y0174963D03*
X0206250Y0174963D03*
X0201250Y0174963D03*
X0196250Y0174963D03*
X0196250Y0182837D03*
X0201250Y0182837D03*
X0206250Y0182837D03*
X0211250Y0182837D03*
X0211250Y0204963D03*
X0206250Y0204963D03*
X0201250Y0204963D03*
X0196250Y0204963D03*
X0196250Y0212837D03*
X0201250Y0212837D03*
X0206250Y0212837D03*
X0211250Y0212837D03*
X0211250Y0229963D03*
X0206250Y0229963D03*
X0201250Y0229963D03*
X0196250Y0229963D03*
X0196250Y0237837D03*
X0201250Y0237837D03*
X0206250Y0237837D03*
X0211250Y0237837D03*
X0176250Y0237837D03*
X0171250Y0237837D03*
X0166250Y0237837D03*
X0161250Y0237837D03*
X0161250Y0229963D03*
X0166250Y0229963D03*
X0171250Y0229963D03*
X0176250Y0229963D03*
X0176250Y0212837D03*
X0171250Y0212837D03*
X0166250Y0212837D03*
X0161250Y0212837D03*
X0161250Y0204963D03*
X0166250Y0204963D03*
X0171250Y0204963D03*
X0176250Y0204963D03*
X0176250Y0182837D03*
X0171250Y0182837D03*
X0166250Y0182837D03*
X0161250Y0182837D03*
X0161250Y0174963D03*
X0166250Y0174963D03*
X0171250Y0174963D03*
X0176250Y0174963D03*
X0176250Y0157837D03*
X0171250Y0157837D03*
X0166250Y0157837D03*
X0161250Y0157837D03*
X0161250Y0149963D03*
X0166250Y0149963D03*
X0171250Y0149963D03*
X0176250Y0149963D03*
X0116250Y0149963D03*
X0111250Y0149963D03*
X0106250Y0149963D03*
X0101250Y0149963D03*
X0101250Y0157837D03*
X0106250Y0157837D03*
X0111250Y0157837D03*
X0116250Y0157837D03*
X0116250Y0174963D03*
X0111250Y0174963D03*
X0106250Y0174963D03*
X0101250Y0174963D03*
X0101250Y0182837D03*
X0106250Y0182837D03*
X0111250Y0182837D03*
X0116250Y0182837D03*
X0116250Y0204963D03*
X0111250Y0204963D03*
X0106250Y0204963D03*
X0101250Y0204963D03*
X0101250Y0212837D03*
X0106250Y0212837D03*
X0111250Y0212837D03*
X0116250Y0212837D03*
X0116250Y0229963D03*
X0111250Y0229963D03*
X0106250Y0229963D03*
X0101250Y0229963D03*
X0101250Y0237837D03*
X0106250Y0237837D03*
X0111250Y0237837D03*
X0116250Y0237837D03*
X0346250Y0237837D03*
X0351250Y0237837D03*
X0356250Y0237837D03*
X0361250Y0237837D03*
X0361250Y0229963D03*
X0356250Y0229963D03*
X0351250Y0229963D03*
X0346250Y0229963D03*
X0346250Y0212837D03*
X0351250Y0212837D03*
X0356250Y0212837D03*
X0361250Y0212837D03*
X0361250Y0204963D03*
X0356250Y0204963D03*
X0351250Y0204963D03*
X0346250Y0204963D03*
D13*
X0293750Y0177443D03*
X0293750Y0170357D03*
X0293750Y0157443D03*
X0293750Y0150357D03*
M02*
