%
M48
M72
T01C0.0150
T02C0.0400
T03C0.0470
T04C0.1260
%
T01
X11875Y13390
X10635Y13810
X10635Y14210
X10155Y13810
X9035Y14450
X11875Y16375
X11875Y17890
X12375Y18390
X12555Y19730
X12875Y20390
X13875Y21390
X14875Y20210
X14375Y19390
X13875Y18390
X14875Y18390
X17115Y19090
X19115Y20370
X19115Y20770
X19275Y21410
X22375Y20390
X22555Y19090
X21995Y19090
X21435Y17890
X22795Y16530
X21875Y14890
X21115Y14450
X19275Y13650
X16395Y13090
X10555Y19330
X10555Y19970
X10155Y19970
X9995Y21730
X11915Y21650
X13875Y22890
X15515Y24130
X15835Y25170
X18315Y23810
X19275Y25570
X20795Y27330
X26555Y24290
X27595Y24130
X28235Y25010
X27515Y25730
X30375Y23390
X31875Y21890
X31115Y20770
X31375Y19890
X30375Y19390
X30375Y18390
X28375Y17390
X26875Y17890
X26375Y16390
X27835Y15090
X28375Y13890
X29375Y14390
X30375Y13390
X31515Y12210
X32635Y10290
X28375Y12390
X31375Y14890
X32375Y16881
X30375Y16890
X24875Y17890
X23875Y19390
X23595Y21330
X33195Y24690
X34875Y27390
X37375Y23890
X39875Y23390
X36875Y18890
X38875Y14390
X38375Y12390
X31915Y6370
X29115Y5650
X31915Y2690
X24235Y11890
X24235Y13090
X18375Y4890
X18395Y3410
T02
X19375Y3390
X20375Y3390
X21375Y3390
X22375Y3390
X22375Y4390
X21375Y4390
X20375Y4390
X19375Y4390
X19625Y7390
X18625Y7390
X17625Y7390
X16625Y7390
X14875Y4390
X14875Y3390
X13875Y3390
X12875Y3390
X11875Y3390
X10875Y3390
X10875Y4390
X11875Y4390
X12875Y4390
X13875Y4390
X20625Y7390
X22625Y7390
X23625Y7390
X24625Y7390
X25625Y7390
X26625Y7390
X27625Y7390
X28625Y7390
X29625Y7390
X31625Y7390
X32625Y7390
X33625Y7390
X34625Y7390
X35625Y7390
X36625Y7390
X37625Y7390
X38625Y7390
X39625Y9390
X40625Y9390
X39625Y10390
X40625Y11390
X40375Y4390
X40375Y3390
X39375Y3390
X38375Y3390
X37375Y3390
X36375Y3390
X36375Y4390
X37375Y4390
X38375Y4390
X39375Y4390
X31875Y4390
X31875Y3390
X30875Y3390
X29875Y3390
X28875Y3390
X27875Y3390
X27875Y4390
X28875Y4390
X29875Y4390
X30875Y4390
X23375Y4390
X23375Y3390
X23625Y26390
X22625Y26390
X21625Y26390
X20625Y26390
X19025Y26390
X18025Y26390
X17025Y26390
X16025Y26390
X15025Y26390
X14025Y26390
X13025Y26390
X12025Y26390
X11875Y28890
X10875Y28890
X10875Y29890
X11875Y29890
X12875Y29890
X13875Y29890
X13875Y28890
X12875Y28890
X14875Y28890
X14875Y29890
X19375Y29890
X20375Y29890
X21375Y29890
X22375Y29890
X22375Y28890
X21375Y28890
X20375Y28890
X19375Y28890
X23375Y28890
X23375Y29890
X24625Y26390
X25625Y26390
X26625Y26390
X27625Y26390
X27875Y28890
X28875Y28890
X29875Y28890
X30875Y28890
X30875Y29890
X29875Y29890
X28875Y29890
X27875Y29890
X31875Y29890
X31875Y28890
X35625Y26390
X36625Y26390
X36375Y28890
X37375Y28890
X38375Y28890
X39375Y28890
X39375Y29890
X38375Y29890
X37375Y29890
X36375Y29890
X40375Y29890
X40375Y28890
X40625Y26390
X39625Y26390
T03
X41375Y21343
X41375Y19374
X41375Y17406
X41375Y15437
X7375Y16437
X7375Y18406
X7375Y20374
X7375Y22343
X7375Y13874
X7375Y11906
T04
X8125Y7390
X8625Y26390
X38125Y26390
X40625Y7390
M30
