G75*
%MOIN*%
%OFA0B0*%
%FSLAX25Y25*%
%IPPOS*%
%LPD*%
%AMOC8*
5,1,8,0,0,1.08239X$1,22.5*
%
%ADD10C,0.00600*%
%ADD11C,0.00800*%
D10*
X0107838Y0094567D02*
X0109260Y0094567D01*
X0107838Y0094566D02*
X0107774Y0094568D01*
X0107709Y0094574D01*
X0107646Y0094583D01*
X0107583Y0094597D01*
X0107521Y0094614D01*
X0107460Y0094635D01*
X0107400Y0094660D01*
X0107342Y0094688D01*
X0107286Y0094720D01*
X0107232Y0094755D01*
X0107180Y0094793D01*
X0107130Y0094834D01*
X0107084Y0094879D01*
X0107039Y0094925D01*
X0106998Y0094975D01*
X0106960Y0095027D01*
X0106925Y0095081D01*
X0106893Y0095137D01*
X0106865Y0095195D01*
X0106840Y0095255D01*
X0106819Y0095316D01*
X0106802Y0095378D01*
X0106788Y0095441D01*
X0106779Y0095504D01*
X0106773Y0095569D01*
X0106771Y0095633D01*
X0106772Y0095633D02*
X0106772Y0100967D01*
X0108549Y0100967D01*
X0108613Y0100965D01*
X0108678Y0100959D01*
X0108741Y0100950D01*
X0108804Y0100936D01*
X0108866Y0100919D01*
X0108927Y0100898D01*
X0108987Y0100873D01*
X0109045Y0100845D01*
X0109101Y0100813D01*
X0109155Y0100778D01*
X0109207Y0100740D01*
X0109257Y0100699D01*
X0109303Y0100654D01*
X0109348Y0100608D01*
X0109389Y0100558D01*
X0109427Y0100506D01*
X0109462Y0100452D01*
X0109494Y0100396D01*
X0109522Y0100338D01*
X0109547Y0100278D01*
X0109568Y0100217D01*
X0109585Y0100155D01*
X0109599Y0100092D01*
X0109608Y0100029D01*
X0109614Y0099964D01*
X0109616Y0099900D01*
X0109616Y0097767D01*
X0109614Y0097703D01*
X0109608Y0097638D01*
X0109599Y0097575D01*
X0109585Y0097512D01*
X0109568Y0097450D01*
X0109547Y0097389D01*
X0109522Y0097329D01*
X0109494Y0097271D01*
X0109462Y0097215D01*
X0109427Y0097161D01*
X0109389Y0097109D01*
X0109348Y0097059D01*
X0109303Y0097013D01*
X0109257Y0096968D01*
X0109207Y0096927D01*
X0109155Y0096889D01*
X0109101Y0096854D01*
X0109045Y0096822D01*
X0108987Y0096794D01*
X0108927Y0096769D01*
X0108866Y0096748D01*
X0108804Y0096731D01*
X0108741Y0096717D01*
X0108678Y0096708D01*
X0108613Y0096702D01*
X0108549Y0096700D01*
X0106772Y0096700D01*
X0102833Y0096700D02*
X0101233Y0096700D01*
X0101233Y0099900D01*
X0101233Y0099189D02*
X0102833Y0099189D01*
X0101233Y0099900D02*
X0101235Y0099964D01*
X0101241Y0100029D01*
X0101250Y0100092D01*
X0101264Y0100155D01*
X0101281Y0100217D01*
X0101302Y0100278D01*
X0101327Y0100338D01*
X0101355Y0100396D01*
X0101387Y0100452D01*
X0101422Y0100506D01*
X0101460Y0100558D01*
X0101501Y0100608D01*
X0101546Y0100654D01*
X0101592Y0100699D01*
X0101642Y0100740D01*
X0101694Y0100778D01*
X0101748Y0100813D01*
X0101804Y0100845D01*
X0101862Y0100873D01*
X0101922Y0100898D01*
X0101983Y0100919D01*
X0102045Y0100936D01*
X0102108Y0100950D01*
X0102171Y0100959D01*
X0102236Y0100965D01*
X0102300Y0100967D01*
X0103722Y0100967D01*
X0102833Y0099188D02*
X0102903Y0099186D01*
X0102972Y0099180D01*
X0103041Y0099170D01*
X0103110Y0099157D01*
X0103177Y0099139D01*
X0103244Y0099118D01*
X0103309Y0099093D01*
X0103373Y0099065D01*
X0103435Y0099033D01*
X0103495Y0098997D01*
X0103553Y0098959D01*
X0103609Y0098917D01*
X0103662Y0098872D01*
X0103713Y0098824D01*
X0103761Y0098773D01*
X0103806Y0098720D01*
X0103848Y0098664D01*
X0103886Y0098606D01*
X0103922Y0098546D01*
X0103954Y0098484D01*
X0103982Y0098420D01*
X0104007Y0098355D01*
X0104028Y0098288D01*
X0104046Y0098221D01*
X0104059Y0098152D01*
X0104069Y0098083D01*
X0104075Y0098014D01*
X0104077Y0097944D01*
X0104075Y0097874D01*
X0104069Y0097805D01*
X0104059Y0097736D01*
X0104046Y0097667D01*
X0104028Y0097600D01*
X0104007Y0097533D01*
X0103982Y0097468D01*
X0103954Y0097404D01*
X0103922Y0097342D01*
X0103886Y0097282D01*
X0103848Y0097224D01*
X0103806Y0097168D01*
X0103761Y0097115D01*
X0103713Y0097064D01*
X0103662Y0097016D01*
X0103609Y0096971D01*
X0103553Y0096929D01*
X0103495Y0096891D01*
X0103435Y0096855D01*
X0103373Y0096823D01*
X0103309Y0096795D01*
X0103244Y0096770D01*
X0103177Y0096749D01*
X0103110Y0096731D01*
X0103041Y0096718D01*
X0102972Y0096708D01*
X0102903Y0096702D01*
X0102833Y0096700D01*
X0097621Y0100967D02*
X0097503Y0100963D01*
X0097386Y0100956D01*
X0097268Y0100946D01*
X0097151Y0100932D01*
X0097035Y0100915D01*
X0096919Y0100895D01*
X0096803Y0100871D01*
X0096688Y0100844D01*
X0096574Y0100813D01*
X0096462Y0100779D01*
X0096350Y0100742D01*
X0096239Y0100701D01*
X0096129Y0100658D01*
X0096021Y0100611D01*
X0097621Y0100967D02*
X0097680Y0100966D01*
X0097740Y0100961D01*
X0097798Y0100952D01*
X0097857Y0100940D01*
X0097914Y0100923D01*
X0097970Y0100904D01*
X0098025Y0100880D01*
X0098078Y0100853D01*
X0098129Y0100823D01*
X0098178Y0100789D01*
X0098225Y0100753D01*
X0098269Y0100713D01*
X0098311Y0100671D01*
X0098350Y0100626D01*
X0098386Y0100578D01*
X0098419Y0100529D01*
X0098448Y0100477D01*
X0098475Y0100424D01*
X0098497Y0100369D01*
X0098516Y0100312D01*
X0098532Y0100255D01*
X0098543Y0100197D01*
X0098551Y0100138D01*
X0098555Y0100078D01*
X0098556Y0100019D01*
X0098552Y0099959D01*
X0098545Y0099900D01*
X0098533Y0099842D01*
X0098518Y0099784D01*
X0098500Y0099728D01*
X0098477Y0099673D01*
X0098452Y0099619D01*
X0098422Y0099567D01*
X0098390Y0099517D01*
X0098354Y0099470D01*
X0098316Y0099424D01*
X0098274Y0099382D01*
X0098230Y0099342D01*
X0098184Y0099305D01*
X0098135Y0099271D01*
X0098084Y0099240D01*
X0098031Y0099213D01*
X0097976Y0099189D01*
X0097977Y0099189D02*
X0096199Y0098478D01*
X0096144Y0098454D01*
X0096091Y0098427D01*
X0096040Y0098396D01*
X0095991Y0098362D01*
X0095945Y0098325D01*
X0095901Y0098285D01*
X0095859Y0098243D01*
X0095821Y0098197D01*
X0095785Y0098150D01*
X0095753Y0098100D01*
X0095723Y0098048D01*
X0095698Y0097994D01*
X0095675Y0097939D01*
X0095657Y0097883D01*
X0095642Y0097825D01*
X0095630Y0097767D01*
X0095623Y0097708D01*
X0095619Y0097648D01*
X0095620Y0097589D01*
X0095624Y0097529D01*
X0095632Y0097470D01*
X0095643Y0097412D01*
X0095659Y0097355D01*
X0095678Y0097298D01*
X0095700Y0097243D01*
X0095727Y0097190D01*
X0095756Y0097138D01*
X0095789Y0097089D01*
X0095825Y0097041D01*
X0095864Y0096996D01*
X0095906Y0096954D01*
X0095950Y0096914D01*
X0095997Y0096878D01*
X0096046Y0096844D01*
X0096097Y0096814D01*
X0096150Y0096787D01*
X0096205Y0096763D01*
X0096261Y0096744D01*
X0096318Y0096727D01*
X0096377Y0096715D01*
X0096435Y0096706D01*
X0096495Y0096701D01*
X0096554Y0096700D01*
X0096708Y0096704D01*
X0096861Y0096712D01*
X0097014Y0096724D01*
X0097167Y0096740D01*
X0097319Y0096759D01*
X0097471Y0096783D01*
X0097622Y0096810D01*
X0097772Y0096842D01*
X0097922Y0096877D01*
X0098071Y0096916D01*
X0098218Y0096959D01*
X0098365Y0097005D01*
X0098510Y0097055D01*
X0112281Y0096700D02*
X0112281Y0100967D01*
X0115126Y0100967D02*
X0115126Y0097767D01*
X0115124Y0097703D01*
X0115118Y0097638D01*
X0115109Y0097575D01*
X0115095Y0097512D01*
X0115078Y0097450D01*
X0115057Y0097389D01*
X0115032Y0097329D01*
X0115004Y0097271D01*
X0114972Y0097215D01*
X0114937Y0097161D01*
X0114899Y0097109D01*
X0114858Y0097059D01*
X0114813Y0097013D01*
X0114767Y0096968D01*
X0114717Y0096927D01*
X0114665Y0096889D01*
X0114611Y0096854D01*
X0114555Y0096822D01*
X0114497Y0096794D01*
X0114437Y0096769D01*
X0114376Y0096748D01*
X0114314Y0096731D01*
X0114251Y0096717D01*
X0114188Y0096708D01*
X0114123Y0096702D01*
X0114059Y0096700D01*
X0112281Y0096700D01*
X0118080Y0098478D02*
X0118080Y0101322D01*
X0118082Y0101404D01*
X0118088Y0101486D01*
X0118097Y0101568D01*
X0118110Y0101649D01*
X0118127Y0101729D01*
X0118148Y0101809D01*
X0118172Y0101887D01*
X0118200Y0101964D01*
X0118231Y0102040D01*
X0118266Y0102115D01*
X0118305Y0102187D01*
X0118346Y0102258D01*
X0118391Y0102327D01*
X0118439Y0102393D01*
X0118490Y0102458D01*
X0118544Y0102520D01*
X0118601Y0102579D01*
X0118660Y0102636D01*
X0118722Y0102690D01*
X0118787Y0102741D01*
X0118853Y0102789D01*
X0118922Y0102834D01*
X0118993Y0102875D01*
X0119065Y0102914D01*
X0119140Y0102949D01*
X0119216Y0102980D01*
X0119293Y0103008D01*
X0119371Y0103032D01*
X0119451Y0103053D01*
X0119531Y0103070D01*
X0119612Y0103083D01*
X0119694Y0103092D01*
X0119776Y0103098D01*
X0119858Y0103100D01*
X0121635Y0103100D01*
X0121635Y0096700D01*
X0119858Y0096700D01*
X0119776Y0096702D01*
X0119694Y0096708D01*
X0119612Y0096717D01*
X0119531Y0096730D01*
X0119451Y0096747D01*
X0119371Y0096768D01*
X0119293Y0096792D01*
X0119216Y0096820D01*
X0119140Y0096851D01*
X0119065Y0096886D01*
X0118993Y0096925D01*
X0118922Y0096966D01*
X0118853Y0097011D01*
X0118787Y0097059D01*
X0118722Y0097110D01*
X0118660Y0097164D01*
X0118601Y0097221D01*
X0118544Y0097280D01*
X0118490Y0097342D01*
X0118439Y0097407D01*
X0118391Y0097473D01*
X0118346Y0097542D01*
X0118305Y0097613D01*
X0118266Y0097685D01*
X0118231Y0097760D01*
X0118200Y0097836D01*
X0118172Y0097913D01*
X0118148Y0097991D01*
X0118127Y0098071D01*
X0118110Y0098151D01*
X0118097Y0098232D01*
X0118088Y0098314D01*
X0118082Y0098396D01*
X0118080Y0098478D01*
X0127300Y0096700D02*
X0127364Y0096702D01*
X0127429Y0096708D01*
X0127492Y0096717D01*
X0127555Y0096731D01*
X0127617Y0096748D01*
X0127678Y0096769D01*
X0127738Y0096794D01*
X0127796Y0096822D01*
X0127852Y0096854D01*
X0127906Y0096889D01*
X0127958Y0096927D01*
X0128008Y0096968D01*
X0128054Y0097013D01*
X0128099Y0097059D01*
X0128140Y0097109D01*
X0128178Y0097161D01*
X0128213Y0097215D01*
X0128245Y0097271D01*
X0128273Y0097329D01*
X0128298Y0097389D01*
X0128319Y0097450D01*
X0128336Y0097512D01*
X0128350Y0097575D01*
X0128359Y0097638D01*
X0128365Y0097703D01*
X0128367Y0097767D01*
X0128366Y0097767D02*
X0128366Y0103100D01*
X0130949Y0099544D02*
X0130949Y0098833D01*
X0133793Y0098833D01*
X0133793Y0099544D02*
X0133793Y0097767D01*
X0133791Y0097703D01*
X0133785Y0097638D01*
X0133776Y0097575D01*
X0133762Y0097512D01*
X0133745Y0097450D01*
X0133724Y0097389D01*
X0133699Y0097329D01*
X0133671Y0097271D01*
X0133639Y0097215D01*
X0133604Y0097161D01*
X0133566Y0097109D01*
X0133525Y0097059D01*
X0133480Y0097013D01*
X0133434Y0096968D01*
X0133384Y0096927D01*
X0133332Y0096889D01*
X0133278Y0096854D01*
X0133222Y0096822D01*
X0133164Y0096794D01*
X0133104Y0096769D01*
X0133043Y0096748D01*
X0132981Y0096731D01*
X0132918Y0096717D01*
X0132855Y0096708D01*
X0132790Y0096702D01*
X0132726Y0096700D01*
X0130949Y0096700D01*
X0130949Y0099544D02*
X0130951Y0099618D01*
X0130957Y0099693D01*
X0130967Y0099766D01*
X0130980Y0099840D01*
X0130997Y0099912D01*
X0131019Y0099983D01*
X0131043Y0100054D01*
X0131072Y0100122D01*
X0131104Y0100190D01*
X0131140Y0100255D01*
X0131178Y0100318D01*
X0131221Y0100380D01*
X0131266Y0100439D01*
X0131314Y0100496D01*
X0131365Y0100550D01*
X0131419Y0100601D01*
X0131476Y0100649D01*
X0131535Y0100694D01*
X0131597Y0100737D01*
X0131660Y0100775D01*
X0131725Y0100811D01*
X0131793Y0100843D01*
X0131861Y0100872D01*
X0131932Y0100896D01*
X0132003Y0100918D01*
X0132075Y0100935D01*
X0132149Y0100948D01*
X0132222Y0100958D01*
X0132297Y0100964D01*
X0132371Y0100966D01*
X0132445Y0100964D01*
X0132520Y0100958D01*
X0132593Y0100948D01*
X0132667Y0100935D01*
X0132739Y0100918D01*
X0132810Y0100896D01*
X0132881Y0100872D01*
X0132949Y0100843D01*
X0133017Y0100811D01*
X0133082Y0100775D01*
X0133145Y0100737D01*
X0133207Y0100694D01*
X0133266Y0100649D01*
X0133323Y0100601D01*
X0133377Y0100550D01*
X0133428Y0100496D01*
X0133476Y0100439D01*
X0133521Y0100380D01*
X0133564Y0100318D01*
X0133602Y0100255D01*
X0133638Y0100190D01*
X0133670Y0100122D01*
X0133699Y0100054D01*
X0133723Y0099983D01*
X0133745Y0099912D01*
X0133762Y0099840D01*
X0133775Y0099766D01*
X0133785Y0099693D01*
X0133791Y0099618D01*
X0133793Y0099544D01*
X0136516Y0099189D02*
X0138116Y0099189D01*
X0136516Y0099900D02*
X0136518Y0099964D01*
X0136524Y0100029D01*
X0136533Y0100092D01*
X0136547Y0100155D01*
X0136564Y0100217D01*
X0136585Y0100278D01*
X0136610Y0100338D01*
X0136638Y0100396D01*
X0136670Y0100452D01*
X0136705Y0100506D01*
X0136743Y0100558D01*
X0136784Y0100608D01*
X0136829Y0100654D01*
X0136875Y0100699D01*
X0136925Y0100740D01*
X0136977Y0100778D01*
X0137031Y0100813D01*
X0137087Y0100845D01*
X0137145Y0100873D01*
X0137205Y0100898D01*
X0137266Y0100919D01*
X0137328Y0100936D01*
X0137391Y0100950D01*
X0137454Y0100959D01*
X0137519Y0100965D01*
X0137583Y0100967D01*
X0139005Y0100967D01*
X0136516Y0099900D02*
X0136516Y0096700D01*
X0138116Y0096700D01*
X0138186Y0096702D01*
X0138255Y0096708D01*
X0138324Y0096718D01*
X0138393Y0096731D01*
X0138460Y0096749D01*
X0138527Y0096770D01*
X0138592Y0096795D01*
X0138656Y0096823D01*
X0138718Y0096855D01*
X0138778Y0096891D01*
X0138836Y0096929D01*
X0138892Y0096971D01*
X0138945Y0097016D01*
X0138996Y0097064D01*
X0139044Y0097115D01*
X0139089Y0097168D01*
X0139131Y0097224D01*
X0139169Y0097282D01*
X0139205Y0097342D01*
X0139237Y0097404D01*
X0139265Y0097468D01*
X0139290Y0097533D01*
X0139311Y0097600D01*
X0139329Y0097667D01*
X0139342Y0097736D01*
X0139352Y0097805D01*
X0139358Y0097874D01*
X0139360Y0097944D01*
X0139358Y0098014D01*
X0139352Y0098083D01*
X0139342Y0098152D01*
X0139329Y0098221D01*
X0139311Y0098288D01*
X0139290Y0098355D01*
X0139265Y0098420D01*
X0139237Y0098484D01*
X0139205Y0098546D01*
X0139169Y0098606D01*
X0139131Y0098664D01*
X0139089Y0098720D01*
X0139044Y0098773D01*
X0138996Y0098824D01*
X0138945Y0098872D01*
X0138892Y0098917D01*
X0138836Y0098959D01*
X0138778Y0098997D01*
X0138718Y0099033D01*
X0138656Y0099065D01*
X0138592Y0099093D01*
X0138527Y0099118D01*
X0138460Y0099139D01*
X0138393Y0099157D01*
X0138324Y0099170D01*
X0138255Y0099180D01*
X0138186Y0099186D01*
X0138116Y0099188D01*
X0142026Y0099900D02*
X0142026Y0096700D01*
X0144870Y0096700D02*
X0144870Y0103100D01*
X0144870Y0100967D02*
X0143092Y0100967D01*
X0143028Y0100965D01*
X0142963Y0100959D01*
X0142900Y0100950D01*
X0142837Y0100936D01*
X0142775Y0100919D01*
X0142714Y0100898D01*
X0142654Y0100873D01*
X0142596Y0100845D01*
X0142540Y0100813D01*
X0142486Y0100778D01*
X0142434Y0100740D01*
X0142384Y0100699D01*
X0142338Y0100654D01*
X0142293Y0100608D01*
X0142252Y0100558D01*
X0142214Y0100506D01*
X0142179Y0100452D01*
X0142147Y0100396D01*
X0142119Y0100338D01*
X0142094Y0100278D01*
X0142073Y0100217D01*
X0142056Y0100155D01*
X0142042Y0100092D01*
X0142033Y0100029D01*
X0142027Y0099964D01*
X0142025Y0099900D01*
X0147298Y0100967D02*
X0148720Y0100967D01*
X0148784Y0100965D01*
X0148849Y0100959D01*
X0148912Y0100950D01*
X0148975Y0100936D01*
X0149037Y0100919D01*
X0149098Y0100898D01*
X0149158Y0100873D01*
X0149216Y0100845D01*
X0149272Y0100813D01*
X0149326Y0100778D01*
X0149378Y0100740D01*
X0149428Y0100699D01*
X0149474Y0100654D01*
X0149519Y0100608D01*
X0149560Y0100558D01*
X0149598Y0100506D01*
X0149633Y0100452D01*
X0149665Y0100396D01*
X0149693Y0100338D01*
X0149718Y0100278D01*
X0149739Y0100217D01*
X0149756Y0100155D01*
X0149770Y0100092D01*
X0149779Y0100029D01*
X0149785Y0099964D01*
X0149787Y0099900D01*
X0149787Y0097767D01*
X0149785Y0097703D01*
X0149779Y0097638D01*
X0149770Y0097575D01*
X0149756Y0097512D01*
X0149739Y0097450D01*
X0149718Y0097389D01*
X0149693Y0097329D01*
X0149665Y0097271D01*
X0149633Y0097215D01*
X0149598Y0097161D01*
X0149560Y0097109D01*
X0149519Y0097059D01*
X0149474Y0097013D01*
X0149428Y0096968D01*
X0149378Y0096927D01*
X0149326Y0096889D01*
X0149272Y0096854D01*
X0149216Y0096822D01*
X0149158Y0096794D01*
X0149098Y0096769D01*
X0149037Y0096748D01*
X0148975Y0096731D01*
X0148912Y0096717D01*
X0148849Y0096708D01*
X0148784Y0096702D01*
X0148720Y0096700D01*
X0147298Y0096700D01*
X0152269Y0096700D02*
X0152269Y0100967D01*
X0152091Y0102744D02*
X0152447Y0102744D01*
X0152447Y0103100D01*
X0152091Y0103100D01*
X0152091Y0102744D01*
X0155059Y0103100D02*
X0155059Y0096700D01*
X0157192Y0099544D02*
X0155059Y0103100D01*
X0157192Y0099544D02*
X0159325Y0103100D01*
X0159325Y0096700D01*
X0165241Y0096700D02*
X0165774Y0095278D01*
X0165596Y0096700D02*
X0165596Y0097056D01*
X0165241Y0097056D01*
X0165241Y0096700D01*
X0165596Y0096700D01*
X0168078Y0096700D02*
X0168078Y0099900D01*
X0168077Y0099900D02*
X0168079Y0099964D01*
X0168085Y0100029D01*
X0168094Y0100092D01*
X0168108Y0100155D01*
X0168125Y0100217D01*
X0168146Y0100278D01*
X0168171Y0100338D01*
X0168199Y0100396D01*
X0168231Y0100452D01*
X0168266Y0100506D01*
X0168304Y0100558D01*
X0168345Y0100608D01*
X0168390Y0100654D01*
X0168436Y0100699D01*
X0168486Y0100740D01*
X0168538Y0100778D01*
X0168592Y0100813D01*
X0168648Y0100845D01*
X0168706Y0100873D01*
X0168766Y0100898D01*
X0168827Y0100919D01*
X0168889Y0100936D01*
X0168952Y0100950D01*
X0169015Y0100959D01*
X0169080Y0100965D01*
X0169144Y0100967D01*
X0170922Y0100967D01*
X0170922Y0096700D01*
X0173850Y0096700D02*
X0173850Y0099900D01*
X0173850Y0099189D02*
X0175450Y0099189D01*
X0173850Y0099900D02*
X0173852Y0099964D01*
X0173858Y0100029D01*
X0173867Y0100092D01*
X0173881Y0100155D01*
X0173898Y0100217D01*
X0173919Y0100278D01*
X0173944Y0100338D01*
X0173972Y0100396D01*
X0174004Y0100452D01*
X0174039Y0100506D01*
X0174077Y0100558D01*
X0174118Y0100608D01*
X0174163Y0100654D01*
X0174209Y0100699D01*
X0174259Y0100740D01*
X0174311Y0100778D01*
X0174365Y0100813D01*
X0174421Y0100845D01*
X0174479Y0100873D01*
X0174539Y0100898D01*
X0174600Y0100919D01*
X0174662Y0100936D01*
X0174725Y0100950D01*
X0174788Y0100959D01*
X0174853Y0100965D01*
X0174917Y0100967D01*
X0176339Y0100967D01*
X0178888Y0100967D02*
X0180311Y0100967D01*
X0180375Y0100965D01*
X0180440Y0100959D01*
X0180503Y0100950D01*
X0180566Y0100936D01*
X0180628Y0100919D01*
X0180689Y0100898D01*
X0180749Y0100873D01*
X0180807Y0100845D01*
X0180863Y0100813D01*
X0180917Y0100778D01*
X0180969Y0100740D01*
X0181019Y0100699D01*
X0181065Y0100654D01*
X0181110Y0100608D01*
X0181151Y0100558D01*
X0181189Y0100506D01*
X0181224Y0100452D01*
X0181256Y0100396D01*
X0181284Y0100338D01*
X0181309Y0100278D01*
X0181330Y0100217D01*
X0181347Y0100155D01*
X0181361Y0100092D01*
X0181370Y0100029D01*
X0181376Y0099964D01*
X0181378Y0099900D01*
X0181377Y0099900D02*
X0181377Y0097767D01*
X0181378Y0097767D02*
X0181376Y0097703D01*
X0181370Y0097638D01*
X0181361Y0097575D01*
X0181347Y0097512D01*
X0181330Y0097450D01*
X0181309Y0097389D01*
X0181284Y0097329D01*
X0181256Y0097271D01*
X0181224Y0097215D01*
X0181189Y0097161D01*
X0181151Y0097109D01*
X0181110Y0097059D01*
X0181065Y0097013D01*
X0181019Y0096968D01*
X0180969Y0096927D01*
X0180917Y0096889D01*
X0180863Y0096854D01*
X0180807Y0096822D01*
X0180749Y0096794D01*
X0180689Y0096769D01*
X0180628Y0096748D01*
X0180566Y0096731D01*
X0180503Y0096717D01*
X0180440Y0096708D01*
X0180375Y0096702D01*
X0180311Y0096700D01*
X0178888Y0096700D01*
X0175450Y0096700D02*
X0173850Y0096700D01*
X0175450Y0096700D02*
X0175520Y0096702D01*
X0175589Y0096708D01*
X0175658Y0096718D01*
X0175727Y0096731D01*
X0175794Y0096749D01*
X0175861Y0096770D01*
X0175926Y0096795D01*
X0175990Y0096823D01*
X0176052Y0096855D01*
X0176112Y0096891D01*
X0176170Y0096929D01*
X0176226Y0096971D01*
X0176279Y0097016D01*
X0176330Y0097064D01*
X0176378Y0097115D01*
X0176423Y0097168D01*
X0176465Y0097224D01*
X0176503Y0097282D01*
X0176539Y0097342D01*
X0176571Y0097404D01*
X0176599Y0097468D01*
X0176624Y0097533D01*
X0176645Y0097600D01*
X0176663Y0097667D01*
X0176676Y0097736D01*
X0176686Y0097805D01*
X0176692Y0097874D01*
X0176694Y0097944D01*
X0176692Y0098014D01*
X0176686Y0098083D01*
X0176676Y0098152D01*
X0176663Y0098221D01*
X0176645Y0098288D01*
X0176624Y0098355D01*
X0176599Y0098420D01*
X0176571Y0098484D01*
X0176539Y0098546D01*
X0176503Y0098606D01*
X0176465Y0098664D01*
X0176423Y0098720D01*
X0176378Y0098773D01*
X0176330Y0098824D01*
X0176279Y0098872D01*
X0176226Y0098917D01*
X0176170Y0098959D01*
X0176112Y0098997D01*
X0176052Y0099033D01*
X0175990Y0099065D01*
X0175926Y0099093D01*
X0175861Y0099118D01*
X0175794Y0099139D01*
X0175727Y0099157D01*
X0175658Y0099170D01*
X0175589Y0099180D01*
X0175520Y0099186D01*
X0175450Y0099188D01*
X0184078Y0099900D02*
X0184078Y0096700D01*
X0186923Y0096700D02*
X0186923Y0100967D01*
X0185145Y0100967D01*
X0185081Y0100965D01*
X0185016Y0100959D01*
X0184953Y0100950D01*
X0184890Y0100936D01*
X0184828Y0100919D01*
X0184767Y0100898D01*
X0184707Y0100873D01*
X0184649Y0100845D01*
X0184593Y0100813D01*
X0184539Y0100778D01*
X0184487Y0100740D01*
X0184437Y0100699D01*
X0184391Y0100654D01*
X0184346Y0100608D01*
X0184305Y0100558D01*
X0184267Y0100506D01*
X0184232Y0100452D01*
X0184200Y0100396D01*
X0184172Y0100338D01*
X0184147Y0100278D01*
X0184126Y0100217D01*
X0184109Y0100155D01*
X0184095Y0100092D01*
X0184086Y0100029D01*
X0184080Y0099964D01*
X0184078Y0099900D01*
X0189822Y0100967D02*
X0189822Y0096700D01*
X0191600Y0096700D01*
X0191664Y0096702D01*
X0191729Y0096708D01*
X0191792Y0096717D01*
X0191855Y0096731D01*
X0191917Y0096748D01*
X0191978Y0096769D01*
X0192038Y0096794D01*
X0192096Y0096822D01*
X0192152Y0096854D01*
X0192206Y0096889D01*
X0192258Y0096927D01*
X0192308Y0096968D01*
X0192354Y0097013D01*
X0192399Y0097059D01*
X0192440Y0097109D01*
X0192478Y0097161D01*
X0192513Y0097215D01*
X0192545Y0097271D01*
X0192573Y0097329D01*
X0192598Y0097389D01*
X0192619Y0097450D01*
X0192636Y0097512D01*
X0192650Y0097575D01*
X0192659Y0097638D01*
X0192665Y0097703D01*
X0192667Y0097767D01*
X0192666Y0097767D02*
X0192666Y0100967D01*
X0195621Y0101322D02*
X0195621Y0098478D01*
X0195620Y0098478D02*
X0195622Y0098396D01*
X0195628Y0098314D01*
X0195637Y0098232D01*
X0195650Y0098151D01*
X0195667Y0098071D01*
X0195688Y0097991D01*
X0195712Y0097913D01*
X0195740Y0097836D01*
X0195771Y0097760D01*
X0195806Y0097685D01*
X0195845Y0097613D01*
X0195886Y0097542D01*
X0195931Y0097473D01*
X0195979Y0097407D01*
X0196030Y0097342D01*
X0196084Y0097280D01*
X0196141Y0097221D01*
X0196200Y0097164D01*
X0196262Y0097110D01*
X0196327Y0097059D01*
X0196393Y0097011D01*
X0196462Y0096966D01*
X0196533Y0096925D01*
X0196605Y0096886D01*
X0196680Y0096851D01*
X0196756Y0096820D01*
X0196833Y0096792D01*
X0196911Y0096768D01*
X0196991Y0096747D01*
X0197071Y0096730D01*
X0197152Y0096717D01*
X0197234Y0096708D01*
X0197316Y0096702D01*
X0197398Y0096700D01*
X0199176Y0096700D01*
X0199176Y0103100D01*
X0197398Y0103100D01*
X0197316Y0103098D01*
X0197234Y0103092D01*
X0197152Y0103083D01*
X0197071Y0103070D01*
X0196991Y0103053D01*
X0196911Y0103032D01*
X0196833Y0103008D01*
X0196756Y0102980D01*
X0196680Y0102949D01*
X0196605Y0102914D01*
X0196533Y0102875D01*
X0196462Y0102834D01*
X0196393Y0102789D01*
X0196327Y0102741D01*
X0196262Y0102690D01*
X0196200Y0102636D01*
X0196141Y0102579D01*
X0196084Y0102520D01*
X0196030Y0102458D01*
X0195979Y0102393D01*
X0195931Y0102327D01*
X0195886Y0102258D01*
X0195845Y0102187D01*
X0195806Y0102115D01*
X0195771Y0102040D01*
X0195740Y0101964D01*
X0195712Y0101887D01*
X0195688Y0101809D01*
X0195667Y0101729D01*
X0195650Y0101649D01*
X0195637Y0101568D01*
X0195628Y0101486D01*
X0195622Y0101404D01*
X0195620Y0101322D01*
X0205111Y0100967D02*
X0206178Y0096700D01*
X0207245Y0099544D01*
X0208311Y0096700D01*
X0209378Y0100967D01*
X0211771Y0099544D02*
X0211771Y0098833D01*
X0214616Y0098833D01*
X0214616Y0099544D02*
X0214616Y0097767D01*
X0214614Y0097703D01*
X0214608Y0097638D01*
X0214599Y0097575D01*
X0214585Y0097512D01*
X0214568Y0097450D01*
X0214547Y0097389D01*
X0214522Y0097329D01*
X0214494Y0097271D01*
X0214462Y0097215D01*
X0214427Y0097161D01*
X0214389Y0097109D01*
X0214348Y0097059D01*
X0214303Y0097013D01*
X0214257Y0096968D01*
X0214207Y0096927D01*
X0214155Y0096889D01*
X0214101Y0096854D01*
X0214045Y0096822D01*
X0213987Y0096794D01*
X0213927Y0096769D01*
X0213866Y0096748D01*
X0213804Y0096731D01*
X0213741Y0096717D01*
X0213678Y0096708D01*
X0213613Y0096702D01*
X0213549Y0096700D01*
X0211771Y0096700D01*
X0211772Y0099544D02*
X0211774Y0099618D01*
X0211780Y0099693D01*
X0211790Y0099766D01*
X0211803Y0099840D01*
X0211820Y0099912D01*
X0211842Y0099983D01*
X0211866Y0100054D01*
X0211895Y0100122D01*
X0211927Y0100190D01*
X0211963Y0100255D01*
X0212001Y0100318D01*
X0212044Y0100380D01*
X0212089Y0100439D01*
X0212137Y0100496D01*
X0212188Y0100550D01*
X0212242Y0100601D01*
X0212299Y0100649D01*
X0212358Y0100694D01*
X0212420Y0100737D01*
X0212483Y0100775D01*
X0212548Y0100811D01*
X0212616Y0100843D01*
X0212684Y0100872D01*
X0212755Y0100896D01*
X0212826Y0100918D01*
X0212898Y0100935D01*
X0212972Y0100948D01*
X0213045Y0100958D01*
X0213120Y0100964D01*
X0213194Y0100966D01*
X0213268Y0100964D01*
X0213343Y0100958D01*
X0213416Y0100948D01*
X0213490Y0100935D01*
X0213562Y0100918D01*
X0213633Y0100896D01*
X0213704Y0100872D01*
X0213772Y0100843D01*
X0213840Y0100811D01*
X0213905Y0100775D01*
X0213968Y0100737D01*
X0214030Y0100694D01*
X0214089Y0100649D01*
X0214146Y0100601D01*
X0214200Y0100550D01*
X0214251Y0100496D01*
X0214299Y0100439D01*
X0214344Y0100380D01*
X0214387Y0100318D01*
X0214425Y0100255D01*
X0214461Y0100190D01*
X0214493Y0100122D01*
X0214522Y0100054D01*
X0214546Y0099983D01*
X0214568Y0099912D01*
X0214585Y0099840D01*
X0214598Y0099766D01*
X0214608Y0099693D01*
X0214614Y0099618D01*
X0214616Y0099544D01*
X0217310Y0099900D02*
X0217310Y0096700D01*
X0220154Y0096700D02*
X0220154Y0103100D01*
X0220154Y0100967D02*
X0218377Y0100967D01*
X0218313Y0100965D01*
X0218248Y0100959D01*
X0218185Y0100950D01*
X0218122Y0100936D01*
X0218060Y0100919D01*
X0217999Y0100898D01*
X0217939Y0100873D01*
X0217881Y0100845D01*
X0217825Y0100813D01*
X0217771Y0100778D01*
X0217719Y0100740D01*
X0217669Y0100699D01*
X0217623Y0100654D01*
X0217578Y0100608D01*
X0217537Y0100558D01*
X0217499Y0100506D01*
X0217464Y0100452D01*
X0217432Y0100396D01*
X0217404Y0100338D01*
X0217379Y0100278D01*
X0217358Y0100217D01*
X0217341Y0100155D01*
X0217327Y0100092D01*
X0217318Y0100029D01*
X0217312Y0099964D01*
X0217310Y0099900D01*
X0222635Y0100967D02*
X0224768Y0100967D01*
X0226532Y0100967D02*
X0228665Y0100967D01*
X0227954Y0103100D02*
X0227954Y0097767D01*
X0227955Y0097767D02*
X0227953Y0097703D01*
X0227947Y0097638D01*
X0227938Y0097575D01*
X0227924Y0097512D01*
X0227907Y0097450D01*
X0227886Y0097389D01*
X0227861Y0097329D01*
X0227833Y0097271D01*
X0227801Y0097215D01*
X0227766Y0097161D01*
X0227728Y0097109D01*
X0227687Y0097059D01*
X0227642Y0097013D01*
X0227596Y0096968D01*
X0227546Y0096927D01*
X0227494Y0096889D01*
X0227440Y0096854D01*
X0227384Y0096822D01*
X0227326Y0096794D01*
X0227266Y0096769D01*
X0227205Y0096748D01*
X0227143Y0096731D01*
X0227080Y0096717D01*
X0227017Y0096708D01*
X0226952Y0096702D01*
X0226888Y0096700D01*
X0226532Y0096700D01*
X0224057Y0097767D02*
X0224057Y0103100D01*
X0230878Y0099900D02*
X0230878Y0096700D01*
X0232478Y0096700D01*
X0232548Y0096702D01*
X0232617Y0096708D01*
X0232686Y0096718D01*
X0232755Y0096731D01*
X0232822Y0096749D01*
X0232889Y0096770D01*
X0232954Y0096795D01*
X0233018Y0096823D01*
X0233080Y0096855D01*
X0233140Y0096891D01*
X0233198Y0096929D01*
X0233254Y0096971D01*
X0233307Y0097016D01*
X0233358Y0097064D01*
X0233406Y0097115D01*
X0233451Y0097168D01*
X0233493Y0097224D01*
X0233531Y0097282D01*
X0233567Y0097342D01*
X0233599Y0097404D01*
X0233627Y0097468D01*
X0233652Y0097533D01*
X0233673Y0097600D01*
X0233691Y0097667D01*
X0233704Y0097736D01*
X0233714Y0097805D01*
X0233720Y0097874D01*
X0233722Y0097944D01*
X0233720Y0098014D01*
X0233714Y0098083D01*
X0233704Y0098152D01*
X0233691Y0098221D01*
X0233673Y0098288D01*
X0233652Y0098355D01*
X0233627Y0098420D01*
X0233599Y0098484D01*
X0233567Y0098546D01*
X0233531Y0098606D01*
X0233493Y0098664D01*
X0233451Y0098720D01*
X0233406Y0098773D01*
X0233358Y0098824D01*
X0233307Y0098872D01*
X0233254Y0098917D01*
X0233198Y0098959D01*
X0233140Y0098997D01*
X0233080Y0099033D01*
X0233018Y0099065D01*
X0232954Y0099093D01*
X0232889Y0099118D01*
X0232822Y0099139D01*
X0232755Y0099157D01*
X0232686Y0099170D01*
X0232617Y0099180D01*
X0232548Y0099186D01*
X0232478Y0099188D01*
X0232478Y0099189D02*
X0230878Y0099189D01*
X0230877Y0099900D02*
X0230879Y0099964D01*
X0230885Y0100029D01*
X0230894Y0100092D01*
X0230908Y0100155D01*
X0230925Y0100217D01*
X0230946Y0100278D01*
X0230971Y0100338D01*
X0230999Y0100396D01*
X0231031Y0100452D01*
X0231066Y0100506D01*
X0231104Y0100558D01*
X0231145Y0100608D01*
X0231190Y0100654D01*
X0231236Y0100699D01*
X0231286Y0100740D01*
X0231338Y0100778D01*
X0231392Y0100813D01*
X0231448Y0100845D01*
X0231506Y0100873D01*
X0231566Y0100898D01*
X0231627Y0100919D01*
X0231689Y0100936D01*
X0231752Y0100950D01*
X0231815Y0100959D01*
X0231880Y0100965D01*
X0231944Y0100967D01*
X0233367Y0100967D01*
X0236497Y0103100D02*
X0236497Y0096700D01*
X0238630Y0099544D02*
X0236497Y0103100D01*
X0238630Y0099544D02*
X0240764Y0103100D01*
X0240764Y0096700D01*
X0246679Y0096700D02*
X0247212Y0095278D01*
X0247034Y0096700D02*
X0247034Y0097056D01*
X0246679Y0097056D01*
X0246679Y0096700D01*
X0247034Y0096700D01*
X0249516Y0096700D02*
X0249516Y0099900D01*
X0249518Y0099964D01*
X0249524Y0100029D01*
X0249533Y0100092D01*
X0249547Y0100155D01*
X0249564Y0100217D01*
X0249585Y0100278D01*
X0249610Y0100338D01*
X0249638Y0100396D01*
X0249670Y0100452D01*
X0249705Y0100506D01*
X0249743Y0100558D01*
X0249784Y0100608D01*
X0249829Y0100654D01*
X0249875Y0100699D01*
X0249925Y0100740D01*
X0249977Y0100778D01*
X0250031Y0100813D01*
X0250087Y0100845D01*
X0250145Y0100873D01*
X0250205Y0100898D01*
X0250266Y0100919D01*
X0250328Y0100936D01*
X0250391Y0100950D01*
X0250454Y0100959D01*
X0250519Y0100965D01*
X0250583Y0100967D01*
X0252360Y0100967D01*
X0252360Y0096700D01*
X0255041Y0096700D02*
X0255041Y0100967D01*
X0254863Y0102744D02*
X0255219Y0102744D01*
X0255219Y0103100D01*
X0254863Y0103100D01*
X0254863Y0102744D01*
X0257302Y0100967D02*
X0259436Y0100967D01*
X0258724Y0103100D02*
X0258724Y0097767D01*
X0258725Y0097767D02*
X0258723Y0097703D01*
X0258717Y0097638D01*
X0258708Y0097575D01*
X0258694Y0097512D01*
X0258677Y0097450D01*
X0258656Y0097389D01*
X0258631Y0097329D01*
X0258603Y0097271D01*
X0258571Y0097215D01*
X0258536Y0097161D01*
X0258498Y0097109D01*
X0258457Y0097059D01*
X0258412Y0097013D01*
X0258366Y0096968D01*
X0258316Y0096927D01*
X0258264Y0096889D01*
X0258210Y0096854D01*
X0258154Y0096822D01*
X0258096Y0096794D01*
X0258036Y0096769D01*
X0257975Y0096748D01*
X0257913Y0096731D01*
X0257850Y0096717D01*
X0257787Y0096708D01*
X0257722Y0096702D01*
X0257658Y0096700D01*
X0257302Y0096700D01*
X0261947Y0098478D02*
X0263725Y0099189D01*
X0263780Y0099213D01*
X0263833Y0099240D01*
X0263884Y0099271D01*
X0263933Y0099305D01*
X0263979Y0099342D01*
X0264023Y0099382D01*
X0264065Y0099424D01*
X0264103Y0099470D01*
X0264139Y0099517D01*
X0264171Y0099567D01*
X0264201Y0099619D01*
X0264226Y0099673D01*
X0264249Y0099728D01*
X0264267Y0099784D01*
X0264282Y0099842D01*
X0264294Y0099900D01*
X0264301Y0099959D01*
X0264305Y0100019D01*
X0264304Y0100078D01*
X0264300Y0100138D01*
X0264292Y0100197D01*
X0264281Y0100255D01*
X0264265Y0100312D01*
X0264246Y0100369D01*
X0264224Y0100424D01*
X0264197Y0100477D01*
X0264168Y0100529D01*
X0264135Y0100578D01*
X0264099Y0100626D01*
X0264060Y0100671D01*
X0264018Y0100713D01*
X0263974Y0100753D01*
X0263927Y0100789D01*
X0263878Y0100823D01*
X0263827Y0100853D01*
X0263774Y0100880D01*
X0263719Y0100904D01*
X0263663Y0100923D01*
X0263606Y0100940D01*
X0263547Y0100952D01*
X0263489Y0100961D01*
X0263429Y0100966D01*
X0263370Y0100967D01*
X0264259Y0097055D02*
X0264114Y0097005D01*
X0263967Y0096959D01*
X0263820Y0096916D01*
X0263671Y0096877D01*
X0263521Y0096842D01*
X0263371Y0096810D01*
X0263220Y0096783D01*
X0263068Y0096759D01*
X0262916Y0096740D01*
X0262763Y0096724D01*
X0262610Y0096712D01*
X0262457Y0096704D01*
X0262303Y0096700D01*
X0262244Y0096701D01*
X0262184Y0096706D01*
X0262126Y0096715D01*
X0262067Y0096727D01*
X0262010Y0096744D01*
X0261954Y0096763D01*
X0261899Y0096787D01*
X0261846Y0096814D01*
X0261795Y0096844D01*
X0261746Y0096878D01*
X0261699Y0096914D01*
X0261655Y0096954D01*
X0261613Y0096996D01*
X0261574Y0097041D01*
X0261538Y0097089D01*
X0261505Y0097138D01*
X0261476Y0097190D01*
X0261449Y0097243D01*
X0261427Y0097298D01*
X0261408Y0097355D01*
X0261392Y0097412D01*
X0261381Y0097470D01*
X0261373Y0097529D01*
X0261369Y0097589D01*
X0261368Y0097648D01*
X0261372Y0097708D01*
X0261379Y0097767D01*
X0261391Y0097825D01*
X0261406Y0097883D01*
X0261424Y0097939D01*
X0261447Y0097994D01*
X0261472Y0098048D01*
X0261502Y0098100D01*
X0261534Y0098150D01*
X0261570Y0098197D01*
X0261608Y0098243D01*
X0261650Y0098285D01*
X0261694Y0098325D01*
X0261740Y0098362D01*
X0261789Y0098396D01*
X0261840Y0098427D01*
X0261893Y0098454D01*
X0261948Y0098478D01*
X0261769Y0100611D02*
X0261877Y0100658D01*
X0261987Y0100701D01*
X0262098Y0100742D01*
X0262210Y0100779D01*
X0262322Y0100813D01*
X0262436Y0100844D01*
X0262551Y0100871D01*
X0262667Y0100895D01*
X0262783Y0100915D01*
X0262899Y0100932D01*
X0263016Y0100946D01*
X0263134Y0100956D01*
X0263251Y0100963D01*
X0263369Y0100967D01*
X0266952Y0100967D02*
X0266952Y0096700D01*
X0268730Y0096700D01*
X0268794Y0096702D01*
X0268859Y0096708D01*
X0268922Y0096717D01*
X0268985Y0096731D01*
X0269047Y0096748D01*
X0269108Y0096769D01*
X0269168Y0096794D01*
X0269226Y0096822D01*
X0269282Y0096854D01*
X0269336Y0096889D01*
X0269388Y0096927D01*
X0269438Y0096968D01*
X0269484Y0097013D01*
X0269529Y0097059D01*
X0269570Y0097109D01*
X0269608Y0097161D01*
X0269643Y0097215D01*
X0269675Y0097271D01*
X0269703Y0097329D01*
X0269728Y0097389D01*
X0269749Y0097450D01*
X0269766Y0097512D01*
X0269780Y0097575D01*
X0269789Y0097638D01*
X0269795Y0097703D01*
X0269797Y0097767D01*
X0269797Y0100967D01*
X0272724Y0098300D02*
X0275924Y0098300D01*
X0276457Y0096700D02*
X0274324Y0103100D01*
X0272190Y0096700D01*
X0282161Y0096700D02*
X0283939Y0096700D01*
X0284003Y0096702D01*
X0284068Y0096708D01*
X0284131Y0096717D01*
X0284194Y0096731D01*
X0284256Y0096748D01*
X0284317Y0096769D01*
X0284377Y0096794D01*
X0284435Y0096822D01*
X0284491Y0096854D01*
X0284545Y0096889D01*
X0284597Y0096927D01*
X0284647Y0096968D01*
X0284693Y0097013D01*
X0284738Y0097059D01*
X0284779Y0097109D01*
X0284817Y0097161D01*
X0284852Y0097215D01*
X0284884Y0097271D01*
X0284912Y0097329D01*
X0284937Y0097389D01*
X0284958Y0097450D01*
X0284975Y0097512D01*
X0284989Y0097575D01*
X0284998Y0097638D01*
X0285004Y0097703D01*
X0285006Y0097767D01*
X0285006Y0099900D01*
X0285004Y0099964D01*
X0284998Y0100029D01*
X0284989Y0100092D01*
X0284975Y0100155D01*
X0284958Y0100217D01*
X0284937Y0100278D01*
X0284912Y0100338D01*
X0284884Y0100396D01*
X0284852Y0100452D01*
X0284817Y0100506D01*
X0284779Y0100558D01*
X0284738Y0100608D01*
X0284693Y0100654D01*
X0284647Y0100699D01*
X0284597Y0100740D01*
X0284545Y0100778D01*
X0284491Y0100813D01*
X0284435Y0100845D01*
X0284377Y0100873D01*
X0284317Y0100898D01*
X0284256Y0100919D01*
X0284194Y0100936D01*
X0284131Y0100950D01*
X0284068Y0100959D01*
X0284003Y0100965D01*
X0283939Y0100967D01*
X0282161Y0100967D01*
X0282161Y0103100D02*
X0282161Y0096700D01*
X0287452Y0096700D02*
X0287452Y0100967D01*
X0287274Y0102744D02*
X0287630Y0102744D01*
X0287630Y0103100D01*
X0287274Y0103100D01*
X0287274Y0102744D01*
X0289722Y0100967D02*
X0291145Y0096700D01*
X0292567Y0100967D01*
X0295085Y0099900D02*
X0295085Y0096700D01*
X0296685Y0096700D01*
X0296755Y0096702D01*
X0296824Y0096708D01*
X0296893Y0096718D01*
X0296962Y0096731D01*
X0297029Y0096749D01*
X0297096Y0096770D01*
X0297161Y0096795D01*
X0297225Y0096823D01*
X0297287Y0096855D01*
X0297347Y0096891D01*
X0297405Y0096929D01*
X0297461Y0096971D01*
X0297514Y0097016D01*
X0297565Y0097064D01*
X0297613Y0097115D01*
X0297658Y0097168D01*
X0297700Y0097224D01*
X0297738Y0097282D01*
X0297774Y0097342D01*
X0297806Y0097404D01*
X0297834Y0097468D01*
X0297859Y0097533D01*
X0297880Y0097600D01*
X0297898Y0097667D01*
X0297911Y0097736D01*
X0297921Y0097805D01*
X0297927Y0097874D01*
X0297929Y0097944D01*
X0297927Y0098014D01*
X0297921Y0098083D01*
X0297911Y0098152D01*
X0297898Y0098221D01*
X0297880Y0098288D01*
X0297859Y0098355D01*
X0297834Y0098420D01*
X0297806Y0098484D01*
X0297774Y0098546D01*
X0297738Y0098606D01*
X0297700Y0098664D01*
X0297658Y0098720D01*
X0297613Y0098773D01*
X0297565Y0098824D01*
X0297514Y0098872D01*
X0297461Y0098917D01*
X0297405Y0098959D01*
X0297347Y0098997D01*
X0297287Y0099033D01*
X0297225Y0099065D01*
X0297161Y0099093D01*
X0297096Y0099118D01*
X0297029Y0099139D01*
X0296962Y0099157D01*
X0296893Y0099170D01*
X0296824Y0099180D01*
X0296755Y0099186D01*
X0296685Y0099188D01*
X0296685Y0099189D02*
X0295085Y0099189D01*
X0295084Y0099900D02*
X0295086Y0099964D01*
X0295092Y0100029D01*
X0295101Y0100092D01*
X0295115Y0100155D01*
X0295132Y0100217D01*
X0295153Y0100278D01*
X0295178Y0100338D01*
X0295206Y0100396D01*
X0295238Y0100452D01*
X0295273Y0100506D01*
X0295311Y0100558D01*
X0295352Y0100608D01*
X0295397Y0100654D01*
X0295443Y0100699D01*
X0295493Y0100740D01*
X0295545Y0100778D01*
X0295599Y0100813D01*
X0295655Y0100845D01*
X0295713Y0100873D01*
X0295773Y0100898D01*
X0295834Y0100919D01*
X0295896Y0100936D01*
X0295959Y0100950D01*
X0296022Y0100959D01*
X0296087Y0100965D01*
X0296151Y0100967D01*
X0297574Y0100967D01*
X0300649Y0101322D02*
X0300649Y0098478D01*
X0300651Y0098396D01*
X0300657Y0098314D01*
X0300666Y0098232D01*
X0300679Y0098151D01*
X0300696Y0098071D01*
X0300717Y0097991D01*
X0300741Y0097913D01*
X0300769Y0097836D01*
X0300800Y0097760D01*
X0300835Y0097685D01*
X0300874Y0097613D01*
X0300915Y0097542D01*
X0300960Y0097473D01*
X0301008Y0097407D01*
X0301059Y0097342D01*
X0301113Y0097280D01*
X0301170Y0097221D01*
X0301229Y0097164D01*
X0301291Y0097110D01*
X0301356Y0097059D01*
X0301422Y0097011D01*
X0301491Y0096966D01*
X0301562Y0096925D01*
X0301634Y0096886D01*
X0301709Y0096851D01*
X0301785Y0096820D01*
X0301862Y0096792D01*
X0301940Y0096768D01*
X0302020Y0096747D01*
X0302100Y0096730D01*
X0302181Y0096717D01*
X0302263Y0096708D01*
X0302345Y0096702D01*
X0302427Y0096700D01*
X0304205Y0096700D01*
X0304205Y0103100D01*
X0302427Y0103100D01*
X0302345Y0103098D01*
X0302263Y0103092D01*
X0302181Y0103083D01*
X0302100Y0103070D01*
X0302020Y0103053D01*
X0301940Y0103032D01*
X0301862Y0103008D01*
X0301785Y0102980D01*
X0301709Y0102949D01*
X0301634Y0102914D01*
X0301562Y0102875D01*
X0301491Y0102834D01*
X0301422Y0102789D01*
X0301356Y0102741D01*
X0301291Y0102690D01*
X0301229Y0102636D01*
X0301170Y0102579D01*
X0301113Y0102520D01*
X0301059Y0102458D01*
X0301008Y0102393D01*
X0300960Y0102327D01*
X0300915Y0102258D01*
X0300874Y0102187D01*
X0300835Y0102115D01*
X0300800Y0102040D01*
X0300769Y0101964D01*
X0300741Y0101887D01*
X0300717Y0101809D01*
X0300696Y0101729D01*
X0300679Y0101649D01*
X0300666Y0101568D01*
X0300657Y0101486D01*
X0300651Y0101404D01*
X0300649Y0101322D01*
X0310249Y0100433D02*
X0310249Y0100078D01*
X0310605Y0100078D01*
X0310605Y0100433D01*
X0310249Y0100433D01*
X0312902Y0100967D02*
X0315036Y0094567D01*
X0315747Y0094567D01*
X0314325Y0096700D02*
X0315747Y0100967D01*
X0318002Y0099900D02*
X0318002Y0097767D01*
X0318004Y0097703D01*
X0318010Y0097638D01*
X0318019Y0097575D01*
X0318033Y0097512D01*
X0318050Y0097450D01*
X0318071Y0097389D01*
X0318096Y0097329D01*
X0318124Y0097271D01*
X0318156Y0097215D01*
X0318191Y0097161D01*
X0318229Y0097109D01*
X0318270Y0097059D01*
X0318315Y0097013D01*
X0318361Y0096968D01*
X0318411Y0096927D01*
X0318463Y0096889D01*
X0318517Y0096854D01*
X0318573Y0096822D01*
X0318631Y0096794D01*
X0318691Y0096769D01*
X0318752Y0096748D01*
X0318814Y0096731D01*
X0318877Y0096717D01*
X0318940Y0096708D01*
X0319005Y0096702D01*
X0319069Y0096700D01*
X0320846Y0096700D01*
X0320846Y0103100D01*
X0320846Y0100967D02*
X0319069Y0100967D01*
X0319005Y0100965D01*
X0318940Y0100959D01*
X0318877Y0100950D01*
X0318814Y0100936D01*
X0318752Y0100919D01*
X0318691Y0100898D01*
X0318631Y0100873D01*
X0318573Y0100845D01*
X0318517Y0100813D01*
X0318463Y0100778D01*
X0318411Y0100740D01*
X0318361Y0100699D01*
X0318315Y0100654D01*
X0318270Y0100608D01*
X0318229Y0100558D01*
X0318191Y0100506D01*
X0318156Y0100452D01*
X0318124Y0100396D01*
X0318096Y0100338D01*
X0318071Y0100278D01*
X0318050Y0100217D01*
X0318033Y0100155D01*
X0318019Y0100092D01*
X0318010Y0100029D01*
X0318004Y0099964D01*
X0318002Y0099900D01*
X0310605Y0097589D02*
X0310249Y0097589D01*
X0310249Y0097233D01*
X0310605Y0097233D01*
X0310605Y0097589D01*
X0327086Y0096700D02*
X0328863Y0096700D01*
X0328927Y0096702D01*
X0328992Y0096708D01*
X0329055Y0096717D01*
X0329118Y0096731D01*
X0329180Y0096748D01*
X0329241Y0096769D01*
X0329301Y0096794D01*
X0329359Y0096822D01*
X0329415Y0096854D01*
X0329469Y0096889D01*
X0329521Y0096927D01*
X0329571Y0096968D01*
X0329617Y0097013D01*
X0329662Y0097059D01*
X0329703Y0097109D01*
X0329741Y0097161D01*
X0329776Y0097215D01*
X0329808Y0097271D01*
X0329836Y0097329D01*
X0329861Y0097389D01*
X0329882Y0097450D01*
X0329899Y0097512D01*
X0329913Y0097575D01*
X0329922Y0097638D01*
X0329928Y0097703D01*
X0329930Y0097767D01*
X0329930Y0099900D01*
X0329928Y0099964D01*
X0329922Y0100029D01*
X0329913Y0100092D01*
X0329899Y0100155D01*
X0329882Y0100217D01*
X0329861Y0100278D01*
X0329836Y0100338D01*
X0329808Y0100396D01*
X0329776Y0100452D01*
X0329741Y0100506D01*
X0329703Y0100558D01*
X0329662Y0100608D01*
X0329617Y0100654D01*
X0329571Y0100699D01*
X0329521Y0100740D01*
X0329469Y0100778D01*
X0329415Y0100813D01*
X0329359Y0100845D01*
X0329301Y0100873D01*
X0329241Y0100898D01*
X0329180Y0100919D01*
X0329118Y0100936D01*
X0329055Y0100950D01*
X0328992Y0100959D01*
X0328927Y0100965D01*
X0328863Y0100967D01*
X0327086Y0100967D01*
X0327086Y0103100D02*
X0327086Y0096700D01*
X0332390Y0096700D02*
X0334168Y0096700D01*
X0334232Y0096702D01*
X0334297Y0096708D01*
X0334360Y0096717D01*
X0334423Y0096731D01*
X0334485Y0096748D01*
X0334546Y0096769D01*
X0334606Y0096794D01*
X0334664Y0096822D01*
X0334720Y0096854D01*
X0334774Y0096889D01*
X0334826Y0096927D01*
X0334876Y0096968D01*
X0334922Y0097013D01*
X0334967Y0097059D01*
X0335008Y0097109D01*
X0335046Y0097161D01*
X0335081Y0097215D01*
X0335113Y0097271D01*
X0335141Y0097329D01*
X0335166Y0097389D01*
X0335187Y0097450D01*
X0335204Y0097512D01*
X0335218Y0097575D01*
X0335227Y0097638D01*
X0335233Y0097703D01*
X0335235Y0097767D01*
X0335235Y0099544D01*
X0335235Y0098833D02*
X0332390Y0098833D01*
X0332390Y0099544D01*
X0332392Y0099618D01*
X0332398Y0099693D01*
X0332408Y0099766D01*
X0332421Y0099840D01*
X0332438Y0099912D01*
X0332460Y0099983D01*
X0332484Y0100054D01*
X0332513Y0100122D01*
X0332545Y0100190D01*
X0332581Y0100255D01*
X0332619Y0100318D01*
X0332662Y0100380D01*
X0332707Y0100439D01*
X0332755Y0100496D01*
X0332806Y0100550D01*
X0332860Y0100601D01*
X0332917Y0100649D01*
X0332976Y0100694D01*
X0333038Y0100737D01*
X0333101Y0100775D01*
X0333166Y0100811D01*
X0333234Y0100843D01*
X0333302Y0100872D01*
X0333373Y0100896D01*
X0333444Y0100918D01*
X0333516Y0100935D01*
X0333590Y0100948D01*
X0333663Y0100958D01*
X0333738Y0100964D01*
X0333812Y0100966D01*
X0333886Y0100964D01*
X0333961Y0100958D01*
X0334034Y0100948D01*
X0334108Y0100935D01*
X0334180Y0100918D01*
X0334251Y0100896D01*
X0334322Y0100872D01*
X0334390Y0100843D01*
X0334458Y0100811D01*
X0334523Y0100775D01*
X0334586Y0100737D01*
X0334648Y0100694D01*
X0334707Y0100649D01*
X0334764Y0100601D01*
X0334818Y0100550D01*
X0334869Y0100496D01*
X0334917Y0100439D01*
X0334962Y0100380D01*
X0335005Y0100318D01*
X0335043Y0100255D01*
X0335079Y0100190D01*
X0335111Y0100122D01*
X0335140Y0100054D01*
X0335164Y0099983D01*
X0335186Y0099912D01*
X0335203Y0099840D01*
X0335216Y0099766D01*
X0335226Y0099693D01*
X0335232Y0099618D01*
X0335234Y0099544D01*
X0337929Y0099900D02*
X0337929Y0096700D01*
X0340773Y0096700D02*
X0340773Y0100967D01*
X0338995Y0100967D01*
X0338931Y0100965D01*
X0338866Y0100959D01*
X0338803Y0100950D01*
X0338740Y0100936D01*
X0338678Y0100919D01*
X0338617Y0100898D01*
X0338557Y0100873D01*
X0338499Y0100845D01*
X0338443Y0100813D01*
X0338389Y0100778D01*
X0338337Y0100740D01*
X0338287Y0100699D01*
X0338241Y0100654D01*
X0338196Y0100608D01*
X0338155Y0100558D01*
X0338117Y0100506D01*
X0338082Y0100452D01*
X0338050Y0100396D01*
X0338022Y0100338D01*
X0337997Y0100278D01*
X0337976Y0100217D01*
X0337959Y0100155D01*
X0337945Y0100092D01*
X0337936Y0100029D01*
X0337930Y0099964D01*
X0337928Y0099900D01*
X0343701Y0100967D02*
X0343701Y0095633D01*
X0343701Y0096700D02*
X0345479Y0096700D01*
X0345543Y0096702D01*
X0345608Y0096708D01*
X0345671Y0096717D01*
X0345734Y0096731D01*
X0345796Y0096748D01*
X0345857Y0096769D01*
X0345917Y0096794D01*
X0345975Y0096822D01*
X0346031Y0096854D01*
X0346085Y0096889D01*
X0346137Y0096927D01*
X0346187Y0096968D01*
X0346233Y0097013D01*
X0346278Y0097059D01*
X0346319Y0097109D01*
X0346357Y0097161D01*
X0346392Y0097215D01*
X0346424Y0097271D01*
X0346452Y0097329D01*
X0346477Y0097389D01*
X0346498Y0097450D01*
X0346515Y0097512D01*
X0346529Y0097575D01*
X0346538Y0097638D01*
X0346544Y0097703D01*
X0346546Y0097767D01*
X0346546Y0099900D01*
X0346544Y0099964D01*
X0346538Y0100029D01*
X0346529Y0100092D01*
X0346515Y0100155D01*
X0346498Y0100217D01*
X0346477Y0100278D01*
X0346452Y0100338D01*
X0346424Y0100396D01*
X0346392Y0100452D01*
X0346357Y0100506D01*
X0346319Y0100558D01*
X0346278Y0100608D01*
X0346233Y0100654D01*
X0346187Y0100699D01*
X0346137Y0100740D01*
X0346085Y0100778D01*
X0346031Y0100813D01*
X0345975Y0100845D01*
X0345917Y0100873D01*
X0345857Y0100898D01*
X0345796Y0100919D01*
X0345734Y0100936D01*
X0345671Y0100950D01*
X0345608Y0100959D01*
X0345543Y0100965D01*
X0345479Y0100967D01*
X0343701Y0100967D01*
X0348992Y0100967D02*
X0348992Y0096700D01*
X0352356Y0096700D02*
X0352297Y0096701D01*
X0352237Y0096706D01*
X0352179Y0096715D01*
X0352120Y0096727D01*
X0352063Y0096744D01*
X0352007Y0096763D01*
X0351952Y0096787D01*
X0351899Y0096814D01*
X0351848Y0096844D01*
X0351799Y0096878D01*
X0351752Y0096914D01*
X0351708Y0096954D01*
X0351666Y0096996D01*
X0351627Y0097041D01*
X0351591Y0097089D01*
X0351558Y0097138D01*
X0351529Y0097190D01*
X0351502Y0097243D01*
X0351480Y0097298D01*
X0351461Y0097355D01*
X0351445Y0097412D01*
X0351434Y0097470D01*
X0351426Y0097529D01*
X0351422Y0097589D01*
X0351421Y0097648D01*
X0351425Y0097708D01*
X0351432Y0097767D01*
X0351444Y0097825D01*
X0351459Y0097883D01*
X0351477Y0097939D01*
X0351500Y0097994D01*
X0351525Y0098048D01*
X0351555Y0098100D01*
X0351587Y0098150D01*
X0351623Y0098197D01*
X0351661Y0098243D01*
X0351703Y0098285D01*
X0351747Y0098325D01*
X0351793Y0098362D01*
X0351842Y0098396D01*
X0351893Y0098427D01*
X0351946Y0098454D01*
X0352001Y0098478D01*
X0353779Y0099189D01*
X0353778Y0099189D02*
X0353833Y0099213D01*
X0353886Y0099240D01*
X0353937Y0099271D01*
X0353986Y0099305D01*
X0354032Y0099342D01*
X0354076Y0099382D01*
X0354118Y0099424D01*
X0354156Y0099470D01*
X0354192Y0099517D01*
X0354224Y0099567D01*
X0354254Y0099619D01*
X0354279Y0099673D01*
X0354302Y0099728D01*
X0354320Y0099784D01*
X0354335Y0099842D01*
X0354347Y0099900D01*
X0354354Y0099959D01*
X0354358Y0100019D01*
X0354357Y0100078D01*
X0354353Y0100138D01*
X0354345Y0100197D01*
X0354334Y0100255D01*
X0354318Y0100312D01*
X0354299Y0100369D01*
X0354277Y0100424D01*
X0354250Y0100477D01*
X0354221Y0100529D01*
X0354188Y0100578D01*
X0354152Y0100626D01*
X0354113Y0100671D01*
X0354071Y0100713D01*
X0354027Y0100753D01*
X0353980Y0100789D01*
X0353931Y0100823D01*
X0353880Y0100853D01*
X0353827Y0100880D01*
X0353772Y0100904D01*
X0353716Y0100923D01*
X0353659Y0100940D01*
X0353600Y0100952D01*
X0353542Y0100961D01*
X0353482Y0100966D01*
X0353423Y0100967D01*
X0354312Y0097055D02*
X0354167Y0097005D01*
X0354020Y0096959D01*
X0353873Y0096916D01*
X0353724Y0096877D01*
X0353574Y0096842D01*
X0353424Y0096810D01*
X0353273Y0096783D01*
X0353121Y0096759D01*
X0352969Y0096740D01*
X0352816Y0096724D01*
X0352663Y0096712D01*
X0352510Y0096704D01*
X0352356Y0096700D01*
X0351823Y0100611D02*
X0351931Y0100658D01*
X0352041Y0100701D01*
X0352152Y0100742D01*
X0352264Y0100779D01*
X0352376Y0100813D01*
X0352490Y0100844D01*
X0352605Y0100871D01*
X0352721Y0100895D01*
X0352837Y0100915D01*
X0352953Y0100932D01*
X0353070Y0100946D01*
X0353188Y0100956D01*
X0353305Y0100963D01*
X0353423Y0100967D01*
X0356801Y0099544D02*
X0356801Y0098833D01*
X0359646Y0098833D01*
X0359646Y0099544D02*
X0359646Y0097767D01*
X0359644Y0097703D01*
X0359638Y0097638D01*
X0359629Y0097575D01*
X0359615Y0097512D01*
X0359598Y0097450D01*
X0359577Y0097389D01*
X0359552Y0097329D01*
X0359524Y0097271D01*
X0359492Y0097215D01*
X0359457Y0097161D01*
X0359419Y0097109D01*
X0359378Y0097059D01*
X0359333Y0097013D01*
X0359287Y0096968D01*
X0359237Y0096927D01*
X0359185Y0096889D01*
X0359131Y0096854D01*
X0359075Y0096822D01*
X0359017Y0096794D01*
X0358957Y0096769D01*
X0358896Y0096748D01*
X0358834Y0096731D01*
X0358771Y0096717D01*
X0358708Y0096708D01*
X0358643Y0096702D01*
X0358579Y0096700D01*
X0356801Y0096700D01*
X0356801Y0099544D02*
X0356803Y0099618D01*
X0356809Y0099693D01*
X0356819Y0099766D01*
X0356832Y0099840D01*
X0356849Y0099912D01*
X0356871Y0099983D01*
X0356895Y0100054D01*
X0356924Y0100122D01*
X0356956Y0100190D01*
X0356992Y0100255D01*
X0357030Y0100318D01*
X0357073Y0100380D01*
X0357118Y0100439D01*
X0357166Y0100496D01*
X0357217Y0100550D01*
X0357271Y0100601D01*
X0357328Y0100649D01*
X0357387Y0100694D01*
X0357449Y0100737D01*
X0357512Y0100775D01*
X0357577Y0100811D01*
X0357645Y0100843D01*
X0357713Y0100872D01*
X0357784Y0100896D01*
X0357855Y0100918D01*
X0357927Y0100935D01*
X0358001Y0100948D01*
X0358074Y0100958D01*
X0358149Y0100964D01*
X0358223Y0100966D01*
X0358297Y0100964D01*
X0358372Y0100958D01*
X0358445Y0100948D01*
X0358519Y0100935D01*
X0358591Y0100918D01*
X0358662Y0100896D01*
X0358733Y0100872D01*
X0358801Y0100843D01*
X0358869Y0100811D01*
X0358934Y0100775D01*
X0358997Y0100737D01*
X0359059Y0100694D01*
X0359118Y0100649D01*
X0359175Y0100601D01*
X0359229Y0100550D01*
X0359280Y0100496D01*
X0359328Y0100439D01*
X0359373Y0100380D01*
X0359416Y0100318D01*
X0359454Y0100255D01*
X0359490Y0100190D01*
X0359522Y0100122D01*
X0359551Y0100054D01*
X0359575Y0099983D01*
X0359597Y0099912D01*
X0359614Y0099840D01*
X0359627Y0099766D01*
X0359637Y0099693D01*
X0359643Y0099618D01*
X0359645Y0099544D01*
X0362394Y0098478D02*
X0362394Y0101322D01*
X0362396Y0101404D01*
X0362402Y0101486D01*
X0362411Y0101568D01*
X0362424Y0101649D01*
X0362441Y0101729D01*
X0362462Y0101809D01*
X0362486Y0101887D01*
X0362514Y0101964D01*
X0362545Y0102040D01*
X0362580Y0102115D01*
X0362619Y0102187D01*
X0362660Y0102258D01*
X0362705Y0102327D01*
X0362753Y0102393D01*
X0362804Y0102458D01*
X0362858Y0102520D01*
X0362915Y0102579D01*
X0362974Y0102636D01*
X0363036Y0102690D01*
X0363101Y0102741D01*
X0363167Y0102789D01*
X0363236Y0102834D01*
X0363307Y0102875D01*
X0363379Y0102914D01*
X0363454Y0102949D01*
X0363530Y0102980D01*
X0363607Y0103008D01*
X0363685Y0103032D01*
X0363765Y0103053D01*
X0363845Y0103070D01*
X0363926Y0103083D01*
X0364008Y0103092D01*
X0364090Y0103098D01*
X0364172Y0103100D01*
X0365950Y0103100D01*
X0365950Y0096700D01*
X0364172Y0096700D01*
X0364090Y0096702D01*
X0364008Y0096708D01*
X0363926Y0096717D01*
X0363845Y0096730D01*
X0363765Y0096747D01*
X0363685Y0096768D01*
X0363607Y0096792D01*
X0363530Y0096820D01*
X0363454Y0096851D01*
X0363379Y0096886D01*
X0363307Y0096925D01*
X0363236Y0096966D01*
X0363167Y0097011D01*
X0363101Y0097059D01*
X0363036Y0097110D01*
X0362974Y0097164D01*
X0362915Y0097221D01*
X0362858Y0097280D01*
X0362804Y0097342D01*
X0362753Y0097407D01*
X0362705Y0097473D01*
X0362660Y0097542D01*
X0362619Y0097613D01*
X0362580Y0097685D01*
X0362545Y0097760D01*
X0362514Y0097836D01*
X0362486Y0097913D01*
X0362462Y0097991D01*
X0362441Y0098071D01*
X0362424Y0098151D01*
X0362411Y0098232D01*
X0362402Y0098314D01*
X0362396Y0098396D01*
X0362394Y0098478D01*
X0349170Y0102744D02*
X0348815Y0102744D01*
X0348815Y0103100D01*
X0349170Y0103100D01*
X0349170Y0102744D01*
X0343701Y0095633D02*
X0343703Y0095569D01*
X0343709Y0095504D01*
X0343718Y0095441D01*
X0343732Y0095378D01*
X0343749Y0095316D01*
X0343770Y0095255D01*
X0343795Y0095195D01*
X0343823Y0095137D01*
X0343855Y0095081D01*
X0343890Y0095027D01*
X0343928Y0094975D01*
X0343969Y0094925D01*
X0344014Y0094879D01*
X0344060Y0094834D01*
X0344110Y0094793D01*
X0344162Y0094755D01*
X0344216Y0094720D01*
X0344272Y0094688D01*
X0344330Y0094660D01*
X0344390Y0094635D01*
X0344451Y0094614D01*
X0344513Y0094597D01*
X0344576Y0094583D01*
X0344639Y0094574D01*
X0344704Y0094568D01*
X0344768Y0094566D01*
X0344768Y0094567D02*
X0346190Y0094567D01*
X0222990Y0096700D02*
X0222635Y0096700D01*
X0222990Y0096700D02*
X0223054Y0096702D01*
X0223119Y0096708D01*
X0223182Y0096717D01*
X0223245Y0096731D01*
X0223307Y0096748D01*
X0223368Y0096769D01*
X0223428Y0096794D01*
X0223486Y0096822D01*
X0223542Y0096854D01*
X0223596Y0096889D01*
X0223648Y0096927D01*
X0223698Y0096968D01*
X0223744Y0097013D01*
X0223789Y0097059D01*
X0223830Y0097109D01*
X0223868Y0097161D01*
X0223903Y0097215D01*
X0223935Y0097271D01*
X0223963Y0097329D01*
X0223988Y0097389D01*
X0224009Y0097450D01*
X0224026Y0097512D01*
X0224040Y0097575D01*
X0224049Y0097638D01*
X0224055Y0097703D01*
X0224057Y0097767D01*
D11*
X0231250Y0049975D02*
X0236250Y0049975D01*
X0316250Y0049975D02*
X0321250Y0049975D01*
X0401250Y0049975D02*
X0406250Y0049975D01*
X0151250Y0049975D02*
X0146250Y0049975D01*
X0111250Y0282825D02*
X0106250Y0282825D01*
X0191250Y0282825D02*
X0196250Y0282825D01*
X0276250Y0282825D02*
X0281250Y0282825D01*
X0361250Y0282825D02*
X0366250Y0282825D01*
M02*
