G04 EAGLE Gerber X2 export*
%TF.Part,Single*%
%TF.FileFunction,Other,outline*%
%TF.FilePolarity,Positive*%
%TF.GenerationSoftware,Autodesk,EAGLE,8.7.1*%
%TF.CreationDate,2018-03-26T18:39:30Z*%
G75*
%MOMM*%
%FSLAX34Y34*%
%LPD*%
%AMOC8*
5,1,8,0,0,1.08239X$1,22.5*%
G01*
%ADD10C,0.000000*%


D10*
X38100Y-25400D02*
X524510Y-25400D01*
X525196Y-25238D01*
X525877Y-25060D01*
X526554Y-24865D01*
X527226Y-24654D01*
X527893Y-24427D01*
X528554Y-24184D01*
X529209Y-23925D01*
X529858Y-23650D01*
X530499Y-23359D01*
X531134Y-23054D01*
X531761Y-22732D01*
X532380Y-22396D01*
X532991Y-22045D01*
X533593Y-21680D01*
X534186Y-21299D01*
X534770Y-20905D01*
X535344Y-20497D01*
X535907Y-20075D01*
X536461Y-19639D01*
X537004Y-19190D01*
X537536Y-18728D01*
X538056Y-18254D01*
X538565Y-17767D01*
X539063Y-17268D01*
X539547Y-16757D01*
X540020Y-16234D01*
X540479Y-15700D01*
X540926Y-15155D01*
X541359Y-14600D01*
X541779Y-14034D01*
X542185Y-13459D01*
X542577Y-12873D01*
X542954Y-12279D01*
X543317Y-11675D01*
X543666Y-11063D01*
X543999Y-10442D01*
X544318Y-9814D01*
X544621Y-9178D01*
X544909Y-8535D01*
X545181Y-7885D01*
X545437Y-7229D01*
X545678Y-6567D01*
X545902Y-5899D01*
X546110Y-5227D01*
X546302Y-4549D01*
X546478Y-3866D01*
X546636Y-3180D01*
X546779Y-2490D01*
X546904Y-1797D01*
X547013Y-1101D01*
X547105Y-403D01*
X547180Y298D01*
X547238Y1000D01*
X547279Y1703D01*
X547303Y2407D01*
X547310Y3111D01*
X547300Y3816D01*
X547273Y4520D01*
X547229Y5223D01*
X547168Y5924D01*
X547090Y6625D01*
X546995Y7323D01*
X546884Y8018D01*
X546755Y8711D01*
X546610Y9400D01*
X547880Y168300D01*
X548025Y168989D01*
X548154Y169682D01*
X548265Y170377D01*
X548360Y171075D01*
X548438Y171776D01*
X548499Y172477D01*
X548543Y173180D01*
X548570Y173884D01*
X548580Y174589D01*
X548573Y175293D01*
X548549Y175997D01*
X548508Y176700D01*
X548450Y177402D01*
X548375Y178103D01*
X548283Y178801D01*
X548174Y179497D01*
X548049Y180190D01*
X547906Y180880D01*
X547748Y181566D01*
X547572Y182249D01*
X547380Y182927D01*
X547172Y183599D01*
X546948Y184267D01*
X546707Y184929D01*
X546451Y185585D01*
X546179Y186235D01*
X545891Y186878D01*
X545588Y187514D01*
X545269Y188142D01*
X544936Y188763D01*
X544587Y189375D01*
X544224Y189979D01*
X543847Y190573D01*
X543455Y191159D01*
X543049Y191734D01*
X542629Y192300D01*
X542196Y192855D01*
X541749Y193400D01*
X541290Y193934D01*
X540817Y194457D01*
X540333Y194968D01*
X539835Y195467D01*
X539326Y195954D01*
X538806Y196428D01*
X538274Y196890D01*
X537731Y197339D01*
X537177Y197775D01*
X536614Y198197D01*
X536040Y198605D01*
X535456Y198999D01*
X534863Y199380D01*
X534261Y199745D01*
X533650Y200096D01*
X533031Y200432D01*
X532404Y200754D01*
X531769Y201059D01*
X531128Y201350D01*
X530479Y201625D01*
X529824Y201884D01*
X529163Y202127D01*
X528496Y202354D01*
X527824Y202565D01*
X527147Y202760D01*
X526466Y202938D01*
X525780Y203100D01*
X38000Y203100D01*
X37389Y203093D01*
X36778Y203070D01*
X36167Y203034D01*
X35558Y202982D01*
X34950Y202916D01*
X34344Y202835D01*
X33741Y202739D01*
X33139Y202629D01*
X32541Y202504D01*
X31945Y202365D01*
X31354Y202211D01*
X30766Y202044D01*
X30182Y201862D01*
X29603Y201666D01*
X29028Y201456D01*
X28460Y201232D01*
X27896Y200995D01*
X27339Y200744D01*
X26787Y200480D01*
X26243Y200202D01*
X25705Y199911D01*
X25174Y199608D01*
X24651Y199292D01*
X24135Y198963D01*
X23628Y198621D01*
X23129Y198268D01*
X22639Y197903D01*
X22158Y197526D01*
X21685Y197137D01*
X21223Y196737D01*
X20770Y196326D01*
X20328Y195905D01*
X19895Y195472D01*
X19474Y195030D01*
X19063Y194577D01*
X18663Y194115D01*
X18274Y193642D01*
X17897Y193161D01*
X17532Y192671D01*
X17179Y192172D01*
X16837Y191665D01*
X16508Y191149D01*
X16192Y190626D01*
X15889Y190095D01*
X15598Y189557D01*
X15320Y189013D01*
X15056Y188461D01*
X14805Y187904D01*
X14568Y187340D01*
X14344Y186772D01*
X14134Y186197D01*
X13938Y185618D01*
X13756Y185034D01*
X13589Y184446D01*
X13435Y183855D01*
X13296Y183259D01*
X13171Y182661D01*
X13061Y182059D01*
X12965Y181456D01*
X12884Y180850D01*
X12818Y180242D01*
X12766Y179633D01*
X12730Y179022D01*
X12707Y178411D01*
X12700Y177800D01*
X12700Y0D01*
X12707Y-614D01*
X12730Y-1227D01*
X12767Y-1840D01*
X12819Y-2451D01*
X12885Y-3062D01*
X12967Y-3670D01*
X13063Y-4276D01*
X13173Y-4880D01*
X13298Y-5481D01*
X13438Y-6079D01*
X13592Y-6673D01*
X13761Y-7263D01*
X13943Y-7849D01*
X14140Y-8430D01*
X14351Y-9007D01*
X14575Y-9578D01*
X14813Y-10144D01*
X15065Y-10704D01*
X15331Y-11257D01*
X15609Y-11804D01*
X15901Y-12344D01*
X16206Y-12877D01*
X16524Y-13402D01*
X16854Y-13920D01*
X17196Y-14429D01*
X17551Y-14930D01*
X17918Y-15422D01*
X18296Y-15905D01*
X18686Y-16379D01*
X19088Y-16843D01*
X19500Y-17298D01*
X19924Y-17742D01*
X20358Y-18176D01*
X20802Y-18600D01*
X21257Y-19012D01*
X21721Y-19414D01*
X22195Y-19804D01*
X22678Y-20182D01*
X23170Y-20549D01*
X23671Y-20904D01*
X24180Y-21246D01*
X24698Y-21576D01*
X25223Y-21894D01*
X25756Y-22199D01*
X26296Y-22491D01*
X26843Y-22769D01*
X27396Y-23035D01*
X27956Y-23287D01*
X28522Y-23525D01*
X29093Y-23749D01*
X29670Y-23960D01*
X30251Y-24157D01*
X30837Y-24339D01*
X31427Y-24508D01*
X32021Y-24662D01*
X32619Y-24802D01*
X33220Y-24927D01*
X33824Y-25037D01*
X34430Y-25133D01*
X35038Y-25215D01*
X35649Y-25281D01*
X36260Y-25333D01*
X36873Y-25370D01*
X37486Y-25393D01*
X38100Y-25400D01*
X262890Y152400D02*
X262895Y152805D01*
X262910Y153210D01*
X262935Y153615D01*
X262970Y154018D01*
X263014Y154421D01*
X263069Y154823D01*
X263133Y155223D01*
X263207Y155621D01*
X263291Y156017D01*
X263385Y156412D01*
X263488Y156803D01*
X263601Y157193D01*
X263723Y157579D01*
X263855Y157962D01*
X263996Y158342D01*
X264147Y158718D01*
X264306Y159091D01*
X264475Y159459D01*
X264653Y159823D01*
X264839Y160183D01*
X265035Y160538D01*
X265239Y160888D01*
X265451Y161233D01*
X265672Y161572D01*
X265902Y161907D01*
X266139Y162235D01*
X266384Y162557D01*
X266638Y162874D01*
X266898Y163184D01*
X267167Y163487D01*
X267443Y163784D01*
X267726Y164074D01*
X268016Y164357D01*
X268313Y164633D01*
X268616Y164902D01*
X268926Y165162D01*
X269243Y165416D01*
X269565Y165661D01*
X269893Y165898D01*
X270228Y166128D01*
X270567Y166349D01*
X270912Y166561D01*
X271262Y166765D01*
X271617Y166961D01*
X271977Y167147D01*
X272341Y167325D01*
X272709Y167494D01*
X273082Y167653D01*
X273458Y167804D01*
X273838Y167945D01*
X274221Y168077D01*
X274607Y168199D01*
X274997Y168312D01*
X275388Y168415D01*
X275783Y168509D01*
X276179Y168593D01*
X276577Y168667D01*
X276977Y168731D01*
X277379Y168786D01*
X277782Y168830D01*
X278185Y168865D01*
X278590Y168890D01*
X278995Y168905D01*
X279400Y168910D01*
X279805Y168905D01*
X280210Y168890D01*
X280615Y168865D01*
X281018Y168830D01*
X281421Y168786D01*
X281823Y168731D01*
X282223Y168667D01*
X282621Y168593D01*
X283017Y168509D01*
X283412Y168415D01*
X283803Y168312D01*
X284193Y168199D01*
X284579Y168077D01*
X284962Y167945D01*
X285342Y167804D01*
X285718Y167653D01*
X286091Y167494D01*
X286459Y167325D01*
X286823Y167147D01*
X287183Y166961D01*
X287538Y166765D01*
X287888Y166561D01*
X288233Y166349D01*
X288572Y166128D01*
X288907Y165898D01*
X289235Y165661D01*
X289557Y165416D01*
X289874Y165162D01*
X290184Y164902D01*
X290487Y164633D01*
X290784Y164357D01*
X291074Y164074D01*
X291357Y163784D01*
X291633Y163487D01*
X291902Y163184D01*
X292162Y162874D01*
X292416Y162557D01*
X292661Y162235D01*
X292898Y161907D01*
X293128Y161572D01*
X293349Y161233D01*
X293561Y160888D01*
X293765Y160538D01*
X293961Y160183D01*
X294147Y159823D01*
X294325Y159459D01*
X294494Y159091D01*
X294653Y158718D01*
X294804Y158342D01*
X294945Y157962D01*
X295077Y157579D01*
X295199Y157193D01*
X295312Y156803D01*
X295415Y156412D01*
X295509Y156017D01*
X295593Y155621D01*
X295667Y155223D01*
X295731Y154823D01*
X295786Y154421D01*
X295830Y154018D01*
X295865Y153615D01*
X295890Y153210D01*
X295905Y152805D01*
X295910Y152400D01*
X295905Y151995D01*
X295890Y151590D01*
X295865Y151185D01*
X295830Y150782D01*
X295786Y150379D01*
X295731Y149977D01*
X295667Y149577D01*
X295593Y149179D01*
X295509Y148783D01*
X295415Y148388D01*
X295312Y147997D01*
X295199Y147607D01*
X295077Y147221D01*
X294945Y146838D01*
X294804Y146458D01*
X294653Y146082D01*
X294494Y145709D01*
X294325Y145341D01*
X294147Y144977D01*
X293961Y144617D01*
X293765Y144262D01*
X293561Y143912D01*
X293349Y143567D01*
X293128Y143228D01*
X292898Y142893D01*
X292661Y142565D01*
X292416Y142243D01*
X292162Y141926D01*
X291902Y141616D01*
X291633Y141313D01*
X291357Y141016D01*
X291074Y140726D01*
X290784Y140443D01*
X290487Y140167D01*
X290184Y139898D01*
X289874Y139638D01*
X289557Y139384D01*
X289235Y139139D01*
X288907Y138902D01*
X288572Y138672D01*
X288233Y138451D01*
X287888Y138239D01*
X287538Y138035D01*
X287183Y137839D01*
X286823Y137653D01*
X286459Y137475D01*
X286091Y137306D01*
X285718Y137147D01*
X285342Y136996D01*
X284962Y136855D01*
X284579Y136723D01*
X284193Y136601D01*
X283803Y136488D01*
X283412Y136385D01*
X283017Y136291D01*
X282621Y136207D01*
X282223Y136133D01*
X281823Y136069D01*
X281421Y136014D01*
X281018Y135970D01*
X280615Y135935D01*
X280210Y135910D01*
X279805Y135895D01*
X279400Y135890D01*
X278995Y135895D01*
X278590Y135910D01*
X278185Y135935D01*
X277782Y135970D01*
X277379Y136014D01*
X276977Y136069D01*
X276577Y136133D01*
X276179Y136207D01*
X275783Y136291D01*
X275388Y136385D01*
X274997Y136488D01*
X274607Y136601D01*
X274221Y136723D01*
X273838Y136855D01*
X273458Y136996D01*
X273082Y137147D01*
X272709Y137306D01*
X272341Y137475D01*
X271977Y137653D01*
X271617Y137839D01*
X271262Y138035D01*
X270912Y138239D01*
X270567Y138451D01*
X270228Y138672D01*
X269893Y138902D01*
X269565Y139139D01*
X269243Y139384D01*
X268926Y139638D01*
X268616Y139898D01*
X268313Y140167D01*
X268016Y140443D01*
X267726Y140726D01*
X267443Y141016D01*
X267167Y141313D01*
X266898Y141616D01*
X266638Y141926D01*
X266384Y142243D01*
X266139Y142565D01*
X265902Y142893D01*
X265672Y143228D01*
X265451Y143567D01*
X265239Y143912D01*
X265035Y144262D01*
X264839Y144617D01*
X264653Y144977D01*
X264475Y145341D01*
X264306Y145709D01*
X264147Y146082D01*
X263996Y146458D01*
X263855Y146838D01*
X263723Y147221D01*
X263601Y147607D01*
X263488Y147997D01*
X263385Y148388D01*
X263291Y148783D01*
X263207Y149179D01*
X263133Y149577D01*
X263069Y149977D01*
X263014Y150379D01*
X262970Y150782D01*
X262935Y151185D01*
X262910Y151590D01*
X262895Y151995D01*
X262890Y152400D01*
M02*
