%
M48
M72
T01C0.0400
T02C0.0470
T03C0.1300
%
T01
X2898Y2650
X3898Y2650
X6154Y2748
X7138Y2748
X8122Y2748
X8122Y3748
X7138Y3748
X6154Y3748
X3898Y3650
X2898Y3650
X2898Y4650
X3898Y4650
X3898Y5650
X2898Y5650
X2898Y6650
X3898Y6650
X6154Y6748
X7138Y6748
X8122Y6748
X8122Y5748
X7138Y5748
X6154Y5748
X6154Y4748
X7138Y4748
X8122Y4748
X14815Y4748
X15800Y4748
X16784Y4748
X16784Y5748
X15800Y5748
X14815Y5748
X14815Y6748
X15800Y6748
X16784Y6748
X19040Y6650
X20040Y6650
X20040Y5650
X19040Y5650
X19040Y4650
X20040Y4650
X20040Y3650
X19040Y3650
X16784Y3748
X15800Y3748
X14815Y3748
X14815Y2748
X15800Y2748
X16784Y2748
X19040Y2650
X20040Y2650
T02
X12453Y2575
X10485Y2575
T03
X11469Y7209
M30
