G75*
%MOIN*%
%OFA0B0*%
%FSLAX25Y25*%
%IPPOS*%
%LPD*%
%AMOC8*
5,1,8,0,0,1.08239X$1,22.5*
%
%ADD10C,0.00600*%
%ADD11C,0.00500*%
D10*
X0061500Y0015500D02*
X0061500Y0020500D01*
X0064000Y0023000D01*
X0061500Y0025500D01*
X0061500Y0030500D01*
X0064000Y0033000D01*
X0061500Y0035500D01*
X0061500Y0040500D01*
X0064000Y0043000D01*
X0061500Y0045500D01*
X0061500Y0050500D01*
X0064000Y0053000D01*
X0061500Y0055500D01*
X0061500Y0060500D01*
X0064000Y0063000D01*
X0069000Y0063000D01*
X0071500Y0060500D01*
X0071500Y0055500D01*
X0069000Y0053000D01*
X0071500Y0050500D01*
X0071500Y0045500D01*
X0069000Y0043000D01*
X0071500Y0040500D01*
X0071500Y0035500D01*
X0069000Y0033000D01*
X0071500Y0030500D01*
X0071500Y0025500D01*
X0069000Y0023000D01*
X0071500Y0020500D01*
X0071500Y0015500D01*
X0069000Y0013000D01*
X0064000Y0013000D01*
X0061500Y0015500D01*
X0071500Y0015500D02*
X0071500Y0020500D01*
X0074000Y0023000D01*
X0071500Y0025500D01*
X0071500Y0030500D01*
X0074000Y0033000D01*
X0071500Y0035500D01*
X0071500Y0040500D01*
X0074000Y0043000D01*
X0071500Y0045500D01*
X0071500Y0050500D01*
X0074000Y0053000D01*
X0071500Y0055500D01*
X0071500Y0060500D01*
X0074000Y0063000D01*
X0079000Y0063000D01*
X0081500Y0060500D01*
X0081500Y0055500D01*
X0079000Y0053000D01*
X0081500Y0050500D01*
X0081500Y0045500D01*
X0079000Y0043000D01*
X0081500Y0040500D01*
X0081500Y0035500D01*
X0079000Y0033000D01*
X0081500Y0030500D01*
X0081500Y0025500D01*
X0079000Y0023000D01*
X0081500Y0020500D01*
X0081500Y0015500D01*
X0079000Y0013000D01*
X0074000Y0013000D01*
X0071500Y0015500D01*
X0081500Y0015500D02*
X0081500Y0020500D01*
X0084000Y0023000D01*
X0081500Y0025500D01*
X0081500Y0030500D01*
X0084000Y0033000D01*
X0081500Y0035500D01*
X0081500Y0040500D01*
X0084000Y0043000D01*
X0081500Y0045500D01*
X0081500Y0050500D01*
X0084000Y0053000D01*
X0081500Y0055500D01*
X0081500Y0060500D01*
X0084000Y0063000D01*
X0089000Y0063000D01*
X0091500Y0060500D01*
X0091500Y0055500D01*
X0089000Y0053000D01*
X0091500Y0050500D01*
X0091500Y0045500D01*
X0089000Y0043000D01*
X0091500Y0040500D01*
X0091500Y0035500D01*
X0089000Y0033000D01*
X0091500Y0030500D01*
X0091500Y0025500D01*
X0089000Y0023000D01*
X0091500Y0020500D01*
X0091500Y0015500D01*
X0089000Y0013000D01*
X0084000Y0013000D01*
X0081500Y0015500D01*
X0096858Y0015902D02*
X0096858Y0041902D01*
X0096858Y0042701D01*
X0136157Y0042701D01*
X0136157Y0041902D01*
X0136157Y0015902D01*
X0136157Y0006500D01*
X0096858Y0006500D01*
X0096858Y0015902D01*
X0103157Y0015902D01*
X0110157Y0015902D02*
X0122858Y0015902D01*
X0129858Y0015902D02*
X0136157Y0015902D01*
X0141500Y0015500D02*
X0144000Y0013000D01*
X0149000Y0013000D01*
X0151500Y0015500D01*
X0154000Y0013000D01*
X0159000Y0013000D01*
X0161500Y0015500D01*
X0164000Y0013000D01*
X0169000Y0013000D01*
X0171500Y0015500D01*
X0171500Y0020500D01*
X0169000Y0023000D01*
X0171500Y0025500D01*
X0171500Y0030500D01*
X0169000Y0033000D01*
X0171500Y0035500D01*
X0171500Y0040500D01*
X0169000Y0043000D01*
X0171500Y0045500D01*
X0171500Y0050500D01*
X0169000Y0053000D01*
X0171500Y0055500D01*
X0171500Y0060500D01*
X0169000Y0063000D01*
X0164000Y0063000D01*
X0161500Y0060500D01*
X0161500Y0055500D01*
X0164000Y0053000D01*
X0161500Y0050500D01*
X0161500Y0045500D01*
X0164000Y0043000D01*
X0161500Y0040500D01*
X0161500Y0035500D01*
X0164000Y0033000D01*
X0161500Y0030500D01*
X0161500Y0025500D01*
X0164000Y0023000D01*
X0161500Y0020500D01*
X0161500Y0015500D01*
X0161500Y0020500D01*
X0159000Y0023000D01*
X0161500Y0025500D01*
X0161500Y0030500D01*
X0159000Y0033000D01*
X0161500Y0035500D01*
X0161500Y0040500D01*
X0159000Y0043000D01*
X0161500Y0045500D01*
X0161500Y0050500D01*
X0159000Y0053000D01*
X0161500Y0055500D01*
X0161500Y0060500D01*
X0159000Y0063000D01*
X0154000Y0063000D01*
X0151500Y0060500D01*
X0151500Y0055500D01*
X0154000Y0053000D01*
X0151500Y0050500D01*
X0151500Y0045500D01*
X0154000Y0043000D01*
X0151500Y0040500D01*
X0151500Y0035500D01*
X0154000Y0033000D01*
X0151500Y0030500D01*
X0151500Y0025500D01*
X0154000Y0023000D01*
X0151500Y0020500D01*
X0151500Y0015500D01*
X0151500Y0020500D01*
X0149000Y0023000D01*
X0151500Y0025500D01*
X0151500Y0030500D01*
X0149000Y0033000D01*
X0151500Y0035500D01*
X0151500Y0040500D01*
X0149000Y0043000D01*
X0151500Y0045500D01*
X0151500Y0050500D01*
X0149000Y0053000D01*
X0151500Y0055500D01*
X0151500Y0060500D01*
X0149000Y0063000D01*
X0144000Y0063000D01*
X0141500Y0060500D01*
X0141500Y0055500D01*
X0144000Y0053000D01*
X0141500Y0050500D01*
X0141500Y0045500D01*
X0144000Y0043000D01*
X0141500Y0040500D01*
X0141500Y0035500D01*
X0144000Y0033000D01*
X0141500Y0030500D01*
X0141500Y0025500D01*
X0144000Y0023000D01*
X0141500Y0020500D01*
X0141500Y0015500D01*
X0124357Y0036700D02*
X0124359Y0036789D01*
X0124365Y0036878D01*
X0124375Y0036967D01*
X0124389Y0037055D01*
X0124406Y0037142D01*
X0124428Y0037228D01*
X0124454Y0037314D01*
X0124483Y0037398D01*
X0124516Y0037481D01*
X0124552Y0037562D01*
X0124593Y0037642D01*
X0124636Y0037719D01*
X0124683Y0037795D01*
X0124734Y0037868D01*
X0124787Y0037939D01*
X0124844Y0038008D01*
X0124904Y0038074D01*
X0124967Y0038138D01*
X0125032Y0038198D01*
X0125100Y0038256D01*
X0125171Y0038310D01*
X0125244Y0038361D01*
X0125319Y0038409D01*
X0125396Y0038454D01*
X0125475Y0038495D01*
X0125556Y0038532D01*
X0125638Y0038566D01*
X0125722Y0038597D01*
X0125807Y0038623D01*
X0125893Y0038646D01*
X0125980Y0038664D01*
X0126068Y0038679D01*
X0126157Y0038690D01*
X0126246Y0038697D01*
X0126335Y0038700D01*
X0126424Y0038699D01*
X0126513Y0038694D01*
X0126601Y0038685D01*
X0126690Y0038672D01*
X0126777Y0038655D01*
X0126864Y0038635D01*
X0126950Y0038610D01*
X0127034Y0038582D01*
X0127117Y0038550D01*
X0127199Y0038514D01*
X0127279Y0038475D01*
X0127357Y0038432D01*
X0127433Y0038386D01*
X0127507Y0038336D01*
X0127579Y0038283D01*
X0127648Y0038227D01*
X0127715Y0038168D01*
X0127779Y0038106D01*
X0127840Y0038042D01*
X0127899Y0037974D01*
X0127954Y0037904D01*
X0128006Y0037832D01*
X0128055Y0037757D01*
X0128100Y0037681D01*
X0128142Y0037602D01*
X0128180Y0037522D01*
X0128215Y0037440D01*
X0128246Y0037356D01*
X0128274Y0037271D01*
X0128297Y0037185D01*
X0128317Y0037098D01*
X0128333Y0037011D01*
X0128345Y0036922D01*
X0128353Y0036834D01*
X0128357Y0036745D01*
X0128357Y0036655D01*
X0128353Y0036566D01*
X0128345Y0036478D01*
X0128333Y0036389D01*
X0128317Y0036302D01*
X0128297Y0036215D01*
X0128274Y0036129D01*
X0128246Y0036044D01*
X0128215Y0035960D01*
X0128180Y0035878D01*
X0128142Y0035798D01*
X0128100Y0035719D01*
X0128055Y0035643D01*
X0128006Y0035568D01*
X0127954Y0035496D01*
X0127899Y0035426D01*
X0127840Y0035358D01*
X0127779Y0035294D01*
X0127715Y0035232D01*
X0127648Y0035173D01*
X0127579Y0035117D01*
X0127507Y0035064D01*
X0127433Y0035014D01*
X0127357Y0034968D01*
X0127279Y0034925D01*
X0127199Y0034886D01*
X0127117Y0034850D01*
X0127034Y0034818D01*
X0126950Y0034790D01*
X0126864Y0034765D01*
X0126777Y0034745D01*
X0126690Y0034728D01*
X0126601Y0034715D01*
X0126513Y0034706D01*
X0126424Y0034701D01*
X0126335Y0034700D01*
X0126246Y0034703D01*
X0126157Y0034710D01*
X0126068Y0034721D01*
X0125980Y0034736D01*
X0125893Y0034754D01*
X0125807Y0034777D01*
X0125722Y0034803D01*
X0125638Y0034834D01*
X0125556Y0034868D01*
X0125475Y0034905D01*
X0125396Y0034946D01*
X0125319Y0034991D01*
X0125244Y0035039D01*
X0125171Y0035090D01*
X0125100Y0035144D01*
X0125032Y0035202D01*
X0124967Y0035262D01*
X0124904Y0035326D01*
X0124844Y0035392D01*
X0124787Y0035461D01*
X0124734Y0035532D01*
X0124683Y0035605D01*
X0124636Y0035681D01*
X0124593Y0035758D01*
X0124552Y0035838D01*
X0124516Y0035919D01*
X0124483Y0036002D01*
X0124454Y0036086D01*
X0124428Y0036172D01*
X0124406Y0036258D01*
X0124389Y0036345D01*
X0124375Y0036433D01*
X0124365Y0036522D01*
X0124359Y0036611D01*
X0124357Y0036700D01*
X0136157Y0041902D02*
X0096858Y0041902D01*
X0104657Y0036700D02*
X0104659Y0036789D01*
X0104665Y0036878D01*
X0104675Y0036967D01*
X0104689Y0037055D01*
X0104706Y0037142D01*
X0104728Y0037228D01*
X0104754Y0037314D01*
X0104783Y0037398D01*
X0104816Y0037481D01*
X0104852Y0037562D01*
X0104893Y0037642D01*
X0104936Y0037719D01*
X0104983Y0037795D01*
X0105034Y0037868D01*
X0105087Y0037939D01*
X0105144Y0038008D01*
X0105204Y0038074D01*
X0105267Y0038138D01*
X0105332Y0038198D01*
X0105400Y0038256D01*
X0105471Y0038310D01*
X0105544Y0038361D01*
X0105619Y0038409D01*
X0105696Y0038454D01*
X0105775Y0038495D01*
X0105856Y0038532D01*
X0105938Y0038566D01*
X0106022Y0038597D01*
X0106107Y0038623D01*
X0106193Y0038646D01*
X0106280Y0038664D01*
X0106368Y0038679D01*
X0106457Y0038690D01*
X0106546Y0038697D01*
X0106635Y0038700D01*
X0106724Y0038699D01*
X0106813Y0038694D01*
X0106901Y0038685D01*
X0106990Y0038672D01*
X0107077Y0038655D01*
X0107164Y0038635D01*
X0107250Y0038610D01*
X0107334Y0038582D01*
X0107417Y0038550D01*
X0107499Y0038514D01*
X0107579Y0038475D01*
X0107657Y0038432D01*
X0107733Y0038386D01*
X0107807Y0038336D01*
X0107879Y0038283D01*
X0107948Y0038227D01*
X0108015Y0038168D01*
X0108079Y0038106D01*
X0108140Y0038042D01*
X0108199Y0037974D01*
X0108254Y0037904D01*
X0108306Y0037832D01*
X0108355Y0037757D01*
X0108400Y0037681D01*
X0108442Y0037602D01*
X0108480Y0037522D01*
X0108515Y0037440D01*
X0108546Y0037356D01*
X0108574Y0037271D01*
X0108597Y0037185D01*
X0108617Y0037098D01*
X0108633Y0037011D01*
X0108645Y0036922D01*
X0108653Y0036834D01*
X0108657Y0036745D01*
X0108657Y0036655D01*
X0108653Y0036566D01*
X0108645Y0036478D01*
X0108633Y0036389D01*
X0108617Y0036302D01*
X0108597Y0036215D01*
X0108574Y0036129D01*
X0108546Y0036044D01*
X0108515Y0035960D01*
X0108480Y0035878D01*
X0108442Y0035798D01*
X0108400Y0035719D01*
X0108355Y0035643D01*
X0108306Y0035568D01*
X0108254Y0035496D01*
X0108199Y0035426D01*
X0108140Y0035358D01*
X0108079Y0035294D01*
X0108015Y0035232D01*
X0107948Y0035173D01*
X0107879Y0035117D01*
X0107807Y0035064D01*
X0107733Y0035014D01*
X0107657Y0034968D01*
X0107579Y0034925D01*
X0107499Y0034886D01*
X0107417Y0034850D01*
X0107334Y0034818D01*
X0107250Y0034790D01*
X0107164Y0034765D01*
X0107077Y0034745D01*
X0106990Y0034728D01*
X0106901Y0034715D01*
X0106813Y0034706D01*
X0106724Y0034701D01*
X0106635Y0034700D01*
X0106546Y0034703D01*
X0106457Y0034710D01*
X0106368Y0034721D01*
X0106280Y0034736D01*
X0106193Y0034754D01*
X0106107Y0034777D01*
X0106022Y0034803D01*
X0105938Y0034834D01*
X0105856Y0034868D01*
X0105775Y0034905D01*
X0105696Y0034946D01*
X0105619Y0034991D01*
X0105544Y0035039D01*
X0105471Y0035090D01*
X0105400Y0035144D01*
X0105332Y0035202D01*
X0105267Y0035262D01*
X0105204Y0035326D01*
X0105144Y0035392D01*
X0105087Y0035461D01*
X0105034Y0035532D01*
X0104983Y0035605D01*
X0104936Y0035681D01*
X0104893Y0035758D01*
X0104852Y0035838D01*
X0104816Y0035919D01*
X0104783Y0036002D01*
X0104754Y0036086D01*
X0104728Y0036172D01*
X0104706Y0036258D01*
X0104689Y0036345D01*
X0104675Y0036433D01*
X0104665Y0036522D01*
X0104659Y0036611D01*
X0104657Y0036700D01*
D11*
X0100157Y0035250D02*
X0100157Y0030750D01*
X0098907Y0030750D02*
X0101407Y0030750D01*
X0098907Y0034250D02*
X0100157Y0035250D01*
X0118407Y0030750D02*
X0120907Y0030750D01*
X0118407Y0030750D02*
X0120532Y0033250D01*
X0119782Y0035250D02*
X0119709Y0035248D01*
X0119637Y0035243D01*
X0119565Y0035234D01*
X0119493Y0035221D01*
X0119422Y0035205D01*
X0119352Y0035185D01*
X0119284Y0035161D01*
X0119216Y0035135D01*
X0119150Y0035104D01*
X0119085Y0035071D01*
X0119023Y0035034D01*
X0118962Y0034995D01*
X0118903Y0034952D01*
X0118846Y0034906D01*
X0118792Y0034858D01*
X0118741Y0034807D01*
X0118691Y0034753D01*
X0118645Y0034697D01*
X0118602Y0034639D01*
X0118561Y0034578D01*
X0118524Y0034516D01*
X0118490Y0034452D01*
X0118459Y0034386D01*
X0118431Y0034319D01*
X0118407Y0034250D01*
X0120532Y0033250D02*
X0120578Y0033296D01*
X0120622Y0033345D01*
X0120662Y0033396D01*
X0120700Y0033449D01*
X0120735Y0033504D01*
X0120767Y0033561D01*
X0120796Y0033619D01*
X0120822Y0033679D01*
X0120844Y0033741D01*
X0120863Y0033803D01*
X0120879Y0033866D01*
X0120891Y0033930D01*
X0120900Y0033995D01*
X0120905Y0034060D01*
X0120907Y0034125D01*
X0120905Y0034190D01*
X0120899Y0034256D01*
X0120890Y0034320D01*
X0120877Y0034384D01*
X0120860Y0034448D01*
X0120839Y0034510D01*
X0120815Y0034571D01*
X0120787Y0034630D01*
X0120756Y0034688D01*
X0120722Y0034743D01*
X0120684Y0034797D01*
X0120644Y0034848D01*
X0120600Y0034897D01*
X0120554Y0034943D01*
X0120505Y0034987D01*
X0120454Y0035027D01*
X0120400Y0035065D01*
X0120345Y0035099D01*
X0120287Y0035130D01*
X0120228Y0035158D01*
X0120167Y0035182D01*
X0120105Y0035203D01*
X0120041Y0035220D01*
X0119977Y0035233D01*
X0119913Y0035242D01*
X0119847Y0035248D01*
X0119782Y0035250D01*
X0096750Y0020250D02*
X0096250Y0020250D01*
X0096190Y0020248D01*
X0096129Y0020243D01*
X0096070Y0020234D01*
X0096011Y0020221D01*
X0095952Y0020205D01*
X0095895Y0020185D01*
X0095840Y0020162D01*
X0095785Y0020135D01*
X0095733Y0020106D01*
X0095682Y0020073D01*
X0095633Y0020037D01*
X0095587Y0019999D01*
X0095543Y0019957D01*
X0095501Y0019913D01*
X0095463Y0019867D01*
X0095427Y0019818D01*
X0095394Y0019767D01*
X0095365Y0019715D01*
X0095338Y0019660D01*
X0095315Y0019605D01*
X0095295Y0019548D01*
X0095279Y0019489D01*
X0095266Y0019430D01*
X0095257Y0019371D01*
X0095252Y0019310D01*
X0095250Y0019250D01*
X0095250Y0017750D01*
X0093250Y0017750D01*
X0093250Y0020250D01*
X0096750Y0020250D02*
X0096810Y0020248D01*
X0096871Y0020243D01*
X0096930Y0020234D01*
X0096989Y0020221D01*
X0097048Y0020205D01*
X0097105Y0020185D01*
X0097160Y0020162D01*
X0097215Y0020135D01*
X0097267Y0020106D01*
X0097318Y0020073D01*
X0097367Y0020037D01*
X0097413Y0019999D01*
X0097457Y0019957D01*
X0097499Y0019913D01*
X0097537Y0019867D01*
X0097573Y0019818D01*
X0097606Y0019767D01*
X0097635Y0019715D01*
X0097662Y0019660D01*
X0097685Y0019605D01*
X0097705Y0019548D01*
X0097721Y0019489D01*
X0097734Y0019430D01*
X0097743Y0019371D01*
X0097748Y0019310D01*
X0097750Y0019250D01*
X0097750Y0017750D01*
X0087750Y0017750D02*
X0087750Y0019250D01*
X0087748Y0019310D01*
X0087743Y0019371D01*
X0087734Y0019430D01*
X0087721Y0019489D01*
X0087705Y0019548D01*
X0087685Y0019605D01*
X0087662Y0019660D01*
X0087635Y0019715D01*
X0087606Y0019767D01*
X0087573Y0019818D01*
X0087537Y0019867D01*
X0087499Y0019913D01*
X0087457Y0019957D01*
X0087413Y0019999D01*
X0087367Y0020037D01*
X0087318Y0020073D01*
X0087267Y0020106D01*
X0087215Y0020135D01*
X0087160Y0020162D01*
X0087105Y0020185D01*
X0087048Y0020205D01*
X0086989Y0020221D01*
X0086930Y0020234D01*
X0086871Y0020243D01*
X0086810Y0020248D01*
X0086750Y0020250D01*
X0086250Y0020250D01*
X0086190Y0020248D01*
X0086129Y0020243D01*
X0086070Y0020234D01*
X0086011Y0020221D01*
X0085952Y0020205D01*
X0085895Y0020185D01*
X0085840Y0020162D01*
X0085785Y0020135D01*
X0085733Y0020106D01*
X0085682Y0020073D01*
X0085633Y0020037D01*
X0085587Y0019999D01*
X0085543Y0019957D01*
X0085501Y0019913D01*
X0085463Y0019867D01*
X0085427Y0019818D01*
X0085394Y0019767D01*
X0085365Y0019715D01*
X0085338Y0019660D01*
X0085315Y0019605D01*
X0085295Y0019548D01*
X0085279Y0019489D01*
X0085266Y0019430D01*
X0085257Y0019371D01*
X0085252Y0019310D01*
X0085250Y0019250D01*
X0085250Y0017750D01*
X0083250Y0017750D01*
X0083250Y0020250D01*
X0077750Y0019250D02*
X0077750Y0017750D01*
X0075250Y0017750D02*
X0073250Y0017750D01*
X0073250Y0020250D01*
X0075250Y0019250D02*
X0075250Y0017750D01*
X0075250Y0019250D02*
X0075252Y0019310D01*
X0075257Y0019371D01*
X0075266Y0019430D01*
X0075279Y0019489D01*
X0075295Y0019548D01*
X0075315Y0019605D01*
X0075338Y0019660D01*
X0075365Y0019715D01*
X0075394Y0019767D01*
X0075427Y0019818D01*
X0075463Y0019867D01*
X0075501Y0019913D01*
X0075543Y0019957D01*
X0075587Y0019999D01*
X0075633Y0020037D01*
X0075682Y0020073D01*
X0075733Y0020106D01*
X0075785Y0020135D01*
X0075840Y0020162D01*
X0075895Y0020185D01*
X0075952Y0020205D01*
X0076011Y0020221D01*
X0076070Y0020234D01*
X0076129Y0020243D01*
X0076190Y0020248D01*
X0076250Y0020250D01*
X0076750Y0020250D01*
X0076810Y0020248D01*
X0076871Y0020243D01*
X0076930Y0020234D01*
X0076989Y0020221D01*
X0077048Y0020205D01*
X0077105Y0020185D01*
X0077160Y0020162D01*
X0077215Y0020135D01*
X0077267Y0020106D01*
X0077318Y0020073D01*
X0077367Y0020037D01*
X0077413Y0019999D01*
X0077457Y0019957D01*
X0077499Y0019913D01*
X0077537Y0019867D01*
X0077573Y0019818D01*
X0077606Y0019767D01*
X0077635Y0019715D01*
X0077662Y0019660D01*
X0077685Y0019605D01*
X0077705Y0019548D01*
X0077721Y0019489D01*
X0077734Y0019430D01*
X0077743Y0019371D01*
X0077748Y0019310D01*
X0077750Y0019250D01*
X0153250Y0017000D02*
X0157750Y0017000D01*
X0157750Y0015750D02*
X0157750Y0018250D01*
X0154250Y0015750D02*
X0153250Y0017000D01*
X0163250Y0017000D02*
X0164250Y0015750D01*
X0163250Y0017000D02*
X0167750Y0017000D01*
X0167750Y0015750D02*
X0167750Y0018250D01*
X0173250Y0017000D02*
X0174250Y0015750D01*
X0173250Y0017000D02*
X0177750Y0017000D01*
X0177750Y0015750D02*
X0177750Y0018250D01*
X0159750Y0055750D02*
X0159750Y0057250D01*
X0159748Y0057310D01*
X0159743Y0057371D01*
X0159734Y0057430D01*
X0159721Y0057489D01*
X0159705Y0057548D01*
X0159685Y0057605D01*
X0159662Y0057660D01*
X0159635Y0057715D01*
X0159606Y0057767D01*
X0159573Y0057818D01*
X0159537Y0057867D01*
X0159499Y0057913D01*
X0159457Y0057957D01*
X0159413Y0057999D01*
X0159367Y0058037D01*
X0159318Y0058073D01*
X0159267Y0058106D01*
X0159215Y0058135D01*
X0159160Y0058162D01*
X0159105Y0058185D01*
X0159048Y0058205D01*
X0158989Y0058221D01*
X0158930Y0058234D01*
X0158871Y0058243D01*
X0158810Y0058248D01*
X0158750Y0058250D01*
X0158250Y0058250D01*
X0158190Y0058248D01*
X0158129Y0058243D01*
X0158070Y0058234D01*
X0158011Y0058221D01*
X0157952Y0058205D01*
X0157895Y0058185D01*
X0157840Y0058162D01*
X0157785Y0058135D01*
X0157733Y0058106D01*
X0157682Y0058073D01*
X0157633Y0058037D01*
X0157587Y0057999D01*
X0157543Y0057957D01*
X0157501Y0057913D01*
X0157463Y0057867D01*
X0157427Y0057818D01*
X0157394Y0057767D01*
X0157365Y0057715D01*
X0157338Y0057660D01*
X0157315Y0057605D01*
X0157295Y0057548D01*
X0157279Y0057489D01*
X0157266Y0057430D01*
X0157257Y0057371D01*
X0157252Y0057310D01*
X0157250Y0057250D01*
X0157250Y0055750D01*
X0155250Y0055750D01*
X0155250Y0058250D01*
X0149750Y0057250D02*
X0149750Y0055750D01*
X0147250Y0055750D02*
X0145250Y0055750D01*
X0145250Y0058250D01*
X0147250Y0057250D02*
X0147250Y0055750D01*
X0147250Y0057250D02*
X0147252Y0057310D01*
X0147257Y0057371D01*
X0147266Y0057430D01*
X0147279Y0057489D01*
X0147295Y0057548D01*
X0147315Y0057605D01*
X0147338Y0057660D01*
X0147365Y0057715D01*
X0147394Y0057767D01*
X0147427Y0057818D01*
X0147463Y0057867D01*
X0147501Y0057913D01*
X0147543Y0057957D01*
X0147587Y0057999D01*
X0147633Y0058037D01*
X0147682Y0058073D01*
X0147733Y0058106D01*
X0147785Y0058135D01*
X0147840Y0058162D01*
X0147895Y0058185D01*
X0147952Y0058205D01*
X0148011Y0058221D01*
X0148070Y0058234D01*
X0148129Y0058243D01*
X0148190Y0058248D01*
X0148250Y0058250D01*
X0148750Y0058250D01*
X0148810Y0058248D01*
X0148871Y0058243D01*
X0148930Y0058234D01*
X0148989Y0058221D01*
X0149048Y0058205D01*
X0149105Y0058185D01*
X0149160Y0058162D01*
X0149215Y0058135D01*
X0149267Y0058106D01*
X0149318Y0058073D01*
X0149367Y0058037D01*
X0149413Y0057999D01*
X0149457Y0057957D01*
X0149499Y0057913D01*
X0149537Y0057867D01*
X0149573Y0057818D01*
X0149606Y0057767D01*
X0149635Y0057715D01*
X0149662Y0057660D01*
X0149685Y0057605D01*
X0149705Y0057548D01*
X0149721Y0057489D01*
X0149734Y0057430D01*
X0149743Y0057371D01*
X0149748Y0057310D01*
X0149750Y0057250D01*
X0139750Y0057250D02*
X0139750Y0055750D01*
X0137250Y0055750D02*
X0135250Y0055750D01*
X0135250Y0058250D01*
X0137250Y0057250D02*
X0137250Y0055750D01*
X0137250Y0057250D02*
X0137252Y0057310D01*
X0137257Y0057371D01*
X0137266Y0057430D01*
X0137279Y0057489D01*
X0137295Y0057548D01*
X0137315Y0057605D01*
X0137338Y0057660D01*
X0137365Y0057715D01*
X0137394Y0057767D01*
X0137427Y0057818D01*
X0137463Y0057867D01*
X0137501Y0057913D01*
X0137543Y0057957D01*
X0137587Y0057999D01*
X0137633Y0058037D01*
X0137682Y0058073D01*
X0137733Y0058106D01*
X0137785Y0058135D01*
X0137840Y0058162D01*
X0137895Y0058185D01*
X0137952Y0058205D01*
X0138011Y0058221D01*
X0138070Y0058234D01*
X0138129Y0058243D01*
X0138190Y0058248D01*
X0138250Y0058250D01*
X0138750Y0058250D01*
X0138810Y0058248D01*
X0138871Y0058243D01*
X0138930Y0058234D01*
X0138989Y0058221D01*
X0139048Y0058205D01*
X0139105Y0058185D01*
X0139160Y0058162D01*
X0139215Y0058135D01*
X0139267Y0058106D01*
X0139318Y0058073D01*
X0139367Y0058037D01*
X0139413Y0057999D01*
X0139457Y0057957D01*
X0139499Y0057913D01*
X0139537Y0057867D01*
X0139573Y0057818D01*
X0139606Y0057767D01*
X0139635Y0057715D01*
X0139662Y0057660D01*
X0139685Y0057605D01*
X0139705Y0057548D01*
X0139721Y0057489D01*
X0139734Y0057430D01*
X0139743Y0057371D01*
X0139748Y0057310D01*
X0139750Y0057250D01*
X0079750Y0057750D02*
X0079750Y0060250D01*
X0079750Y0059000D02*
X0075250Y0059000D01*
X0076250Y0057750D01*
X0069750Y0057750D02*
X0069750Y0060250D01*
X0069750Y0059000D02*
X0065250Y0059000D01*
X0066250Y0057750D01*
X0059750Y0057750D02*
X0059750Y0060250D01*
X0059750Y0059000D02*
X0055250Y0059000D01*
X0056250Y0057750D01*
M02*
