G75*
%MOIN*%
%OFA0B0*%
%FSLAX25Y25*%
%IPPOS*%
%LPD*%
%AMOC8*
5,1,8,0,0,1.08239X$1,22.5*
%
%ADD10C,0.07900*%
%ADD11OC8,0.07900*%
%ADD12C,0.13098*%
%ADD13C,0.07550*%
%ADD14OC8,0.03000*%
D10*
X0108750Y0033900D03*
X0118750Y0033900D03*
X0128750Y0033900D03*
X0138750Y0033900D03*
X0138750Y0043900D03*
X0128750Y0043900D03*
X0118750Y0043900D03*
X0108750Y0043900D03*
X0148750Y0043900D03*
X0148750Y0033900D03*
X0193750Y0033900D03*
X0203750Y0033900D03*
X0213750Y0033900D03*
X0223750Y0033900D03*
X0223750Y0043900D03*
X0213750Y0043900D03*
X0203750Y0043900D03*
X0193750Y0043900D03*
X0196250Y0073900D03*
X0186250Y0073900D03*
X0176250Y0073900D03*
X0166250Y0073900D03*
X0206250Y0073900D03*
X0226250Y0073900D03*
X0236250Y0073900D03*
X0246250Y0073900D03*
X0256250Y0073900D03*
X0266250Y0073900D03*
X0276250Y0073900D03*
X0286250Y0073900D03*
X0296250Y0073900D03*
X0316250Y0073900D03*
X0326250Y0073900D03*
X0336250Y0073900D03*
X0346250Y0073900D03*
X0356250Y0073900D03*
X0366250Y0073900D03*
X0376250Y0073900D03*
X0386250Y0073900D03*
X0396250Y0093900D03*
X0406250Y0093900D03*
X0403750Y0043900D03*
X0403750Y0033900D03*
X0393750Y0033900D03*
X0383750Y0033900D03*
X0373750Y0033900D03*
X0363750Y0033900D03*
X0363750Y0043900D03*
X0373750Y0043900D03*
X0383750Y0043900D03*
X0393750Y0043900D03*
X0318750Y0043900D03*
X0318750Y0033900D03*
X0308750Y0033900D03*
X0298750Y0033900D03*
X0288750Y0033900D03*
X0278750Y0033900D03*
X0278750Y0043900D03*
X0288750Y0043900D03*
X0298750Y0043900D03*
X0308750Y0043900D03*
X0233750Y0043900D03*
X0233750Y0033900D03*
X0236250Y0263900D03*
X0226250Y0263900D03*
X0216250Y0263900D03*
X0206250Y0263900D03*
X0190250Y0263900D03*
X0180250Y0263900D03*
X0170250Y0263900D03*
X0160250Y0263900D03*
X0150250Y0263900D03*
X0140250Y0263900D03*
X0130250Y0263900D03*
X0120250Y0263900D03*
X0118750Y0288900D03*
X0108750Y0288900D03*
X0108750Y0298900D03*
X0118750Y0298900D03*
X0128750Y0298900D03*
X0138750Y0298900D03*
X0138750Y0288900D03*
X0128750Y0288900D03*
X0148750Y0288900D03*
X0148750Y0298900D03*
X0193750Y0298900D03*
X0203750Y0298900D03*
X0213750Y0298900D03*
X0223750Y0298900D03*
X0223750Y0288900D03*
X0213750Y0288900D03*
X0203750Y0288900D03*
X0193750Y0288900D03*
X0233750Y0288900D03*
X0233750Y0298900D03*
X0246250Y0263900D03*
X0256250Y0263900D03*
X0266250Y0263900D03*
X0276250Y0263900D03*
X0278750Y0288900D03*
X0288750Y0288900D03*
X0298750Y0288900D03*
X0308750Y0288900D03*
X0308750Y0298900D03*
X0298750Y0298900D03*
X0288750Y0298900D03*
X0278750Y0298900D03*
X0318750Y0298900D03*
X0318750Y0288900D03*
X0356250Y0263900D03*
X0366250Y0263900D03*
X0363750Y0288900D03*
X0373750Y0288900D03*
X0383750Y0288900D03*
X0393750Y0288900D03*
X0393750Y0298900D03*
X0383750Y0298900D03*
X0373750Y0298900D03*
X0363750Y0298900D03*
X0403750Y0298900D03*
X0403750Y0288900D03*
X0406250Y0263900D03*
X0396250Y0263900D03*
D11*
X0406250Y0113900D03*
X0396250Y0103900D03*
D12*
X0081250Y0073900D03*
X0086250Y0263900D03*
X0381250Y0263900D03*
X0406250Y0073900D03*
D13*
X0410225Y0154372D02*
X0417275Y0154372D01*
X0417275Y0174057D02*
X0410225Y0174057D01*
X0410225Y0193743D02*
X0417275Y0193743D01*
X0417275Y0213428D02*
X0410225Y0213428D01*
X0077275Y0203743D02*
X0070225Y0203743D01*
X0070225Y0184057D02*
X0077275Y0184057D01*
X0077275Y0164372D02*
X0070225Y0164372D01*
X0070225Y0138743D02*
X0077275Y0138743D01*
X0077275Y0119057D02*
X0070225Y0119057D01*
X0070225Y0223428D02*
X0077275Y0223428D01*
D14*
X0099950Y0217300D03*
X0119150Y0216500D03*
X0128750Y0203900D03*
X0125550Y0197300D03*
X0123750Y0183900D03*
X0118750Y0178900D03*
X0118750Y0163750D03*
X0106350Y0142100D03*
X0106350Y0138100D03*
X0101550Y0138100D03*
X0090350Y0144500D03*
X0118750Y0133900D03*
X0163950Y0130900D03*
X0192750Y0136500D03*
X0211150Y0144500D03*
X0218750Y0148900D03*
X0227950Y0165300D03*
X0214350Y0178900D03*
X0219950Y0190900D03*
X0225550Y0190900D03*
X0223750Y0203900D03*
X0235950Y0213300D03*
X0238750Y0193900D03*
X0248750Y0178900D03*
X0263750Y0163900D03*
X0268750Y0178900D03*
X0283750Y0173900D03*
X0303750Y0168900D03*
X0303750Y0183900D03*
X0303750Y0193900D03*
X0313750Y0198900D03*
X0311150Y0207700D03*
X0318750Y0218900D03*
X0303750Y0233900D03*
X0282350Y0250100D03*
X0275150Y0257300D03*
X0275950Y0241300D03*
X0265550Y0242900D03*
X0207950Y0273300D03*
X0192750Y0255700D03*
X0183150Y0238100D03*
X0158350Y0251700D03*
X0155150Y0241300D03*
X0138750Y0228900D03*
X0138750Y0213900D03*
X0148750Y0202100D03*
X0143750Y0193900D03*
X0138750Y0183900D03*
X0148750Y0183900D03*
X0171150Y0190900D03*
X0191150Y0203700D03*
X0191150Y0207700D03*
X0192750Y0214100D03*
X0278350Y0150900D03*
X0283750Y0138900D03*
X0293750Y0143900D03*
X0303750Y0133900D03*
X0315150Y0122100D03*
X0326350Y0102900D03*
X0283750Y0123900D03*
X0313750Y0148900D03*
X0323750Y0168811D03*
X0368750Y0188900D03*
X0388750Y0143900D03*
X0383750Y0123900D03*
X0319150Y0063700D03*
X0291150Y0056500D03*
X0319150Y0026900D03*
X0242350Y0118900D03*
X0242350Y0130900D03*
X0183750Y0048900D03*
X0183950Y0034100D03*
X0105550Y0193300D03*
X0105550Y0199700D03*
X0101550Y0199700D03*
X0331950Y0246900D03*
X0348750Y0273900D03*
X0373750Y0238900D03*
X0398750Y0233900D03*
M02*
