G04 EAGLE Gerber X2 export*
%TF.Part,Single*%
%TF.FileFunction,Other,Bottom Copper Layer*%
%TF.FilePolarity,Positive*%
%TF.GenerationSoftware,Autodesk,EAGLE,8.7.1*%
%TF.CreationDate,2018-04-09T14:36:16Z*%
G75*
%MOMM*%
%FSLAX34Y34*%
%LPD*%
%AMOC8*
5,1,8,0,0,1.08239X$1,22.5*%
G01*
%ADD10C,1.879600*%
%ADD11C,1.790700*%

G36*
X469956Y3819D02*
X469956Y3819D01*
X470000Y3816D01*
X471028Y3917D01*
X471305Y3984D01*
X471311Y3988D01*
X471317Y3989D01*
X473219Y4777D01*
X473245Y4793D01*
X473275Y4802D01*
X473338Y4848D01*
X473463Y4921D01*
X473508Y4968D01*
X473548Y4997D01*
X475003Y6452D01*
X475022Y6477D01*
X475045Y6497D01*
X475087Y6564D01*
X475174Y6679D01*
X475197Y6739D01*
X475223Y6781D01*
X476011Y8683D01*
X476082Y8958D01*
X476081Y8965D01*
X476083Y8972D01*
X476184Y10000D01*
X476182Y10057D01*
X476189Y10100D01*
X476189Y203200D01*
X476179Y203276D01*
X476181Y203333D01*
X476113Y203843D01*
X476105Y203873D01*
X476103Y203904D01*
X476076Y203978D01*
X476037Y204117D01*
X476003Y204172D01*
X475986Y204219D01*
X475475Y205103D01*
X475415Y205180D01*
X475362Y205261D01*
X475331Y205287D01*
X475300Y205327D01*
X475160Y205428D01*
X475103Y205475D01*
X474219Y205986D01*
X474190Y205998D01*
X474164Y206015D01*
X474089Y206038D01*
X473955Y206092D01*
X473891Y206099D01*
X473843Y206113D01*
X473333Y206181D01*
X473256Y206180D01*
X473200Y206189D01*
X6800Y206189D01*
X6724Y206179D01*
X6668Y206181D01*
X6157Y206113D01*
X6127Y206105D01*
X6096Y206103D01*
X6022Y206076D01*
X5883Y206037D01*
X5828Y206003D01*
X5781Y205986D01*
X4897Y205475D01*
X4820Y205415D01*
X4739Y205362D01*
X4713Y205331D01*
X4673Y205300D01*
X4572Y205160D01*
X4525Y205103D01*
X4014Y204219D01*
X4002Y204190D01*
X3985Y204164D01*
X3962Y204089D01*
X3908Y203955D01*
X3901Y203891D01*
X3887Y203843D01*
X3819Y203333D01*
X3820Y203256D01*
X3811Y203200D01*
X3811Y12700D01*
X3819Y12644D01*
X3816Y12600D01*
X3967Y11064D01*
X4034Y10788D01*
X4038Y10782D01*
X4039Y10775D01*
X5215Y7937D01*
X5231Y7910D01*
X5240Y7881D01*
X5286Y7817D01*
X5360Y7692D01*
X5406Y7648D01*
X5435Y7608D01*
X7608Y5435D01*
X7632Y5417D01*
X7652Y5393D01*
X7719Y5351D01*
X7835Y5264D01*
X7895Y5241D01*
X7937Y5215D01*
X10775Y4039D01*
X11051Y3968D01*
X11058Y3969D01*
X11064Y3967D01*
X12600Y3816D01*
X12657Y3818D01*
X12700Y3811D01*
X469900Y3811D01*
X469956Y3819D01*
G37*
%LPC*%
G36*
X235958Y144679D02*
X235958Y144679D01*
X228489Y147773D01*
X222773Y153489D01*
X219679Y160958D01*
X219679Y169042D01*
X222773Y176511D01*
X228489Y182227D01*
X235958Y185321D01*
X244042Y185321D01*
X251511Y182227D01*
X257227Y176511D01*
X260321Y169042D01*
X260321Y160958D01*
X257227Y153489D01*
X251511Y147773D01*
X244042Y144679D01*
X235958Y144679D01*
G37*
%LPD*%
%LPC*%
G36*
X262916Y27868D02*
X262916Y27868D01*
X259064Y29464D01*
X256117Y32411D01*
X254522Y36262D01*
X254522Y58338D01*
X256117Y62189D01*
X259064Y65136D01*
X262916Y66732D01*
X267084Y66732D01*
X270936Y65136D01*
X273883Y62189D01*
X275478Y58338D01*
X275478Y36262D01*
X273883Y32411D01*
X270936Y29464D01*
X267084Y27868D01*
X262916Y27868D01*
G37*
%LPD*%
%LPC*%
G36*
X127827Y91577D02*
X127827Y91577D01*
X123813Y93240D01*
X120740Y96313D01*
X119077Y100327D01*
X119077Y104673D01*
X120740Y108687D01*
X123813Y111760D01*
X127827Y113423D01*
X132173Y113423D01*
X136187Y111760D01*
X139260Y108687D01*
X140923Y104673D01*
X140923Y100327D01*
X139260Y96313D01*
X136187Y93240D01*
X132173Y91577D01*
X127827Y91577D01*
G37*
%LPD*%
%LPC*%
G36*
X102827Y91577D02*
X102827Y91577D01*
X98813Y93240D01*
X95740Y96313D01*
X94077Y100327D01*
X94077Y104673D01*
X95740Y108687D01*
X98813Y111760D01*
X102827Y113423D01*
X107173Y113423D01*
X111187Y111760D01*
X114260Y108687D01*
X115923Y104673D01*
X115923Y100327D01*
X114260Y96313D01*
X111187Y93240D01*
X107173Y91577D01*
X102827Y91577D01*
G37*
%LPD*%
%LPC*%
G36*
X347827Y91577D02*
X347827Y91577D01*
X343813Y93240D01*
X340740Y96313D01*
X339077Y100327D01*
X339077Y104673D01*
X340740Y108687D01*
X343813Y111760D01*
X347827Y113423D01*
X352173Y113423D01*
X356187Y111760D01*
X359260Y108687D01*
X360923Y104673D01*
X360923Y100327D01*
X359260Y96313D01*
X356187Y93240D01*
X352173Y91577D01*
X347827Y91577D01*
G37*
%LPD*%
%LPC*%
G36*
X45527Y89077D02*
X45527Y89077D01*
X41513Y90740D01*
X38440Y93813D01*
X36777Y97827D01*
X36777Y102173D01*
X38440Y106187D01*
X41513Y109260D01*
X45527Y110923D01*
X49873Y110923D01*
X53887Y109260D01*
X56960Y106187D01*
X58623Y102173D01*
X58623Y97827D01*
X56960Y93813D01*
X53887Y90740D01*
X49873Y89077D01*
X45527Y89077D01*
G37*
%LPD*%
%LPC*%
G36*
X347827Y142377D02*
X347827Y142377D01*
X343813Y144040D01*
X340740Y147113D01*
X339077Y151127D01*
X339077Y155473D01*
X340740Y159487D01*
X343813Y162560D01*
X347827Y164223D01*
X352173Y164223D01*
X356187Y162560D01*
X359260Y159487D01*
X360923Y155473D01*
X360923Y151127D01*
X359260Y147113D01*
X356187Y144040D01*
X352173Y142377D01*
X347827Y142377D01*
G37*
%LPD*%
%LPC*%
G36*
X372827Y142377D02*
X372827Y142377D01*
X368813Y144040D01*
X365740Y147113D01*
X364077Y151127D01*
X364077Y155473D01*
X365740Y159487D01*
X368813Y162560D01*
X372827Y164223D01*
X377173Y164223D01*
X381187Y162560D01*
X384260Y159487D01*
X385923Y155473D01*
X385923Y151127D01*
X384260Y147113D01*
X381187Y144040D01*
X377173Y142377D01*
X372827Y142377D01*
G37*
%LPD*%
%LPC*%
G36*
X127827Y142377D02*
X127827Y142377D01*
X123813Y144040D01*
X120740Y147113D01*
X119077Y151127D01*
X119077Y155473D01*
X120740Y159487D01*
X123813Y162560D01*
X127827Y164223D01*
X132173Y164223D01*
X136187Y162560D01*
X139260Y159487D01*
X140923Y155473D01*
X140923Y151127D01*
X139260Y147113D01*
X136187Y144040D01*
X132173Y142377D01*
X127827Y142377D01*
G37*
%LPD*%
%LPC*%
G36*
X102827Y142377D02*
X102827Y142377D01*
X98813Y144040D01*
X95740Y147113D01*
X94077Y151127D01*
X94077Y155473D01*
X95740Y159487D01*
X98813Y162560D01*
X102827Y164223D01*
X107173Y164223D01*
X111187Y162560D01*
X114260Y159487D01*
X115923Y155473D01*
X115923Y151127D01*
X114260Y147113D01*
X111187Y144040D01*
X107173Y142377D01*
X102827Y142377D01*
G37*
%LPD*%
%LPC*%
G36*
X20127Y139877D02*
X20127Y139877D01*
X16113Y141540D01*
X13040Y144613D01*
X11377Y148627D01*
X11377Y152973D01*
X13040Y156987D01*
X16113Y160060D01*
X20127Y161723D01*
X24473Y161723D01*
X28487Y160060D01*
X31560Y156987D01*
X33223Y152973D01*
X33223Y148627D01*
X31560Y144613D01*
X28487Y141540D01*
X24473Y139877D01*
X20127Y139877D01*
G37*
%LPD*%
%LPC*%
G36*
X455527Y139877D02*
X455527Y139877D01*
X451513Y141540D01*
X448440Y144613D01*
X446777Y148627D01*
X446777Y152973D01*
X448440Y156987D01*
X451513Y160060D01*
X455527Y161723D01*
X459873Y161723D01*
X463887Y160060D01*
X466960Y156987D01*
X468623Y152973D01*
X468623Y148627D01*
X466960Y144613D01*
X463887Y141540D01*
X459873Y139877D01*
X455527Y139877D01*
G37*
%LPD*%
%LPC*%
G36*
X430127Y139877D02*
X430127Y139877D01*
X426113Y141540D01*
X423040Y144613D01*
X421377Y148627D01*
X421377Y152973D01*
X423040Y156987D01*
X426113Y160060D01*
X430127Y161723D01*
X434473Y161723D01*
X438487Y160060D01*
X441560Y156987D01*
X443223Y152973D01*
X443223Y148627D01*
X441560Y144613D01*
X438487Y141540D01*
X434473Y139877D01*
X430127Y139877D01*
G37*
%LPD*%
%LPC*%
G36*
X45527Y139877D02*
X45527Y139877D01*
X41513Y141540D01*
X38440Y144613D01*
X36777Y148627D01*
X36777Y152973D01*
X38440Y156987D01*
X41513Y160060D01*
X45527Y161723D01*
X49873Y161723D01*
X53887Y160060D01*
X56960Y156987D01*
X58623Y152973D01*
X58623Y148627D01*
X56960Y144613D01*
X53887Y141540D01*
X49873Y139877D01*
X45527Y139877D01*
G37*
%LPD*%
%LPC*%
G36*
X20127Y89077D02*
X20127Y89077D01*
X16113Y90740D01*
X13040Y93813D01*
X11377Y97827D01*
X11377Y102173D01*
X13040Y106187D01*
X16113Y109260D01*
X20127Y110923D01*
X24473Y110923D01*
X28487Y109260D01*
X31560Y106187D01*
X33223Y102173D01*
X33223Y97827D01*
X31560Y93813D01*
X28487Y90740D01*
X24473Y89077D01*
X20127Y89077D01*
G37*
%LPD*%
%LPC*%
G36*
X455527Y89077D02*
X455527Y89077D01*
X451513Y90740D01*
X448440Y93813D01*
X446777Y97827D01*
X446777Y102173D01*
X448440Y106187D01*
X451513Y109260D01*
X455527Y110923D01*
X459873Y110923D01*
X463887Y109260D01*
X466960Y106187D01*
X468623Y102173D01*
X468623Y97827D01*
X466960Y93813D01*
X463887Y90740D01*
X459873Y89077D01*
X455527Y89077D01*
G37*
%LPD*%
%LPC*%
G36*
X347827Y66177D02*
X347827Y66177D01*
X343813Y67840D01*
X340740Y70913D01*
X339077Y74927D01*
X339077Y79273D01*
X340740Y83287D01*
X343813Y86360D01*
X347827Y88023D01*
X352173Y88023D01*
X356187Y86360D01*
X359260Y83287D01*
X360923Y79273D01*
X360923Y74927D01*
X359260Y70913D01*
X356187Y67840D01*
X352173Y66177D01*
X347827Y66177D01*
G37*
%LPD*%
%LPC*%
G36*
X372827Y66177D02*
X372827Y66177D01*
X368813Y67840D01*
X365740Y70913D01*
X364077Y74927D01*
X364077Y79273D01*
X365740Y83287D01*
X368813Y86360D01*
X372827Y88023D01*
X377173Y88023D01*
X381187Y86360D01*
X384260Y83287D01*
X385923Y79273D01*
X385923Y74927D01*
X384260Y70913D01*
X381187Y67840D01*
X377173Y66177D01*
X372827Y66177D01*
G37*
%LPD*%
%LPC*%
G36*
X127827Y66177D02*
X127827Y66177D01*
X123813Y67840D01*
X120740Y70913D01*
X119077Y74927D01*
X119077Y79273D01*
X120740Y83287D01*
X123813Y86360D01*
X127827Y88023D01*
X132173Y88023D01*
X136187Y86360D01*
X139260Y83287D01*
X140923Y79273D01*
X140923Y74927D01*
X139260Y70913D01*
X136187Y67840D01*
X132173Y66177D01*
X127827Y66177D01*
G37*
%LPD*%
%LPC*%
G36*
X102827Y66177D02*
X102827Y66177D01*
X98813Y67840D01*
X95740Y70913D01*
X94077Y74927D01*
X94077Y79273D01*
X95740Y83287D01*
X98813Y86360D01*
X102827Y88023D01*
X107173Y88023D01*
X111187Y86360D01*
X114260Y83287D01*
X115923Y79273D01*
X115923Y74927D01*
X114260Y70913D01*
X111187Y67840D01*
X107173Y66177D01*
X102827Y66177D01*
G37*
%LPD*%
%LPC*%
G36*
X45527Y63677D02*
X45527Y63677D01*
X41513Y65340D01*
X38440Y68413D01*
X36777Y72427D01*
X36777Y76773D01*
X38440Y80787D01*
X41513Y83860D01*
X45527Y85523D01*
X49873Y85523D01*
X53887Y83860D01*
X56960Y80787D01*
X58623Y76773D01*
X58623Y72427D01*
X56960Y68413D01*
X53887Y65340D01*
X49873Y63677D01*
X45527Y63677D01*
G37*
%LPD*%
%LPC*%
G36*
X20127Y63677D02*
X20127Y63677D01*
X16113Y65340D01*
X13040Y68413D01*
X11377Y72427D01*
X11377Y76773D01*
X13040Y80787D01*
X16113Y83860D01*
X20127Y85523D01*
X24473Y85523D01*
X28487Y83860D01*
X31560Y80787D01*
X33223Y76773D01*
X33223Y72427D01*
X31560Y68413D01*
X28487Y65340D01*
X24473Y63677D01*
X20127Y63677D01*
G37*
%LPD*%
%LPC*%
G36*
X455527Y63677D02*
X455527Y63677D01*
X451513Y65340D01*
X448440Y68413D01*
X446777Y72427D01*
X446777Y76773D01*
X448440Y80787D01*
X451513Y83860D01*
X455527Y85523D01*
X459873Y85523D01*
X463887Y83860D01*
X466960Y80787D01*
X468623Y76773D01*
X468623Y72427D01*
X466960Y68413D01*
X463887Y65340D01*
X459873Y63677D01*
X455527Y63677D01*
G37*
%LPD*%
%LPC*%
G36*
X430127Y63677D02*
X430127Y63677D01*
X426113Y65340D01*
X423040Y68413D01*
X421377Y72427D01*
X421377Y76773D01*
X423040Y80787D01*
X426113Y83860D01*
X430127Y85523D01*
X434473Y85523D01*
X438487Y83860D01*
X441560Y80787D01*
X443223Y76773D01*
X443223Y72427D01*
X441560Y68413D01*
X438487Y65340D01*
X434473Y63677D01*
X430127Y63677D01*
G37*
%LPD*%
%LPC*%
G36*
X347827Y116977D02*
X347827Y116977D01*
X343813Y118640D01*
X340740Y121713D01*
X339077Y125727D01*
X339077Y130073D01*
X340740Y134087D01*
X343813Y137160D01*
X347827Y138823D01*
X352173Y138823D01*
X356187Y137160D01*
X359260Y134087D01*
X360923Y130073D01*
X360923Y125727D01*
X359260Y121713D01*
X356187Y118640D01*
X352173Y116977D01*
X347827Y116977D01*
G37*
%LPD*%
%LPC*%
G36*
X372827Y116977D02*
X372827Y116977D01*
X368813Y118640D01*
X365740Y121713D01*
X364077Y125727D01*
X364077Y130073D01*
X365740Y134087D01*
X368813Y137160D01*
X372827Y138823D01*
X377173Y138823D01*
X381187Y137160D01*
X384260Y134087D01*
X385923Y130073D01*
X385923Y125727D01*
X384260Y121713D01*
X381187Y118640D01*
X377173Y116977D01*
X372827Y116977D01*
G37*
%LPD*%
%LPC*%
G36*
X127827Y116977D02*
X127827Y116977D01*
X123813Y118640D01*
X120740Y121713D01*
X119077Y125727D01*
X119077Y130073D01*
X120740Y134087D01*
X123813Y137160D01*
X127827Y138823D01*
X132173Y138823D01*
X136187Y137160D01*
X139260Y134087D01*
X140923Y130073D01*
X140923Y125727D01*
X139260Y121713D01*
X136187Y118640D01*
X132173Y116977D01*
X127827Y116977D01*
G37*
%LPD*%
%LPC*%
G36*
X102827Y116977D02*
X102827Y116977D01*
X98813Y118640D01*
X95740Y121713D01*
X94077Y125727D01*
X94077Y130073D01*
X95740Y134087D01*
X98813Y137160D01*
X102827Y138823D01*
X107173Y138823D01*
X111187Y137160D01*
X114260Y134087D01*
X115923Y130073D01*
X115923Y125727D01*
X114260Y121713D01*
X111187Y118640D01*
X107173Y116977D01*
X102827Y116977D01*
G37*
%LPD*%
%LPC*%
G36*
X455527Y114477D02*
X455527Y114477D01*
X451513Y116140D01*
X448440Y119213D01*
X446777Y123227D01*
X446777Y127573D01*
X448440Y131587D01*
X451513Y134660D01*
X455527Y136323D01*
X459873Y136323D01*
X463887Y134660D01*
X466960Y131587D01*
X468623Y127573D01*
X468623Y123227D01*
X466960Y119213D01*
X463887Y116140D01*
X459873Y114477D01*
X455527Y114477D01*
G37*
%LPD*%
%LPC*%
G36*
X430127Y114477D02*
X430127Y114477D01*
X426113Y116140D01*
X423040Y119213D01*
X421377Y123227D01*
X421377Y127573D01*
X423040Y131587D01*
X426113Y134660D01*
X430127Y136323D01*
X434473Y136323D01*
X438487Y134660D01*
X441560Y131587D01*
X443223Y127573D01*
X443223Y123227D01*
X441560Y119213D01*
X438487Y116140D01*
X434473Y114477D01*
X430127Y114477D01*
G37*
%LPD*%
%LPC*%
G36*
X45527Y114477D02*
X45527Y114477D01*
X41513Y116140D01*
X38440Y119213D01*
X36777Y123227D01*
X36777Y127573D01*
X38440Y131587D01*
X41513Y134660D01*
X45527Y136323D01*
X49873Y136323D01*
X53887Y134660D01*
X56960Y131587D01*
X58623Y127573D01*
X58623Y123227D01*
X56960Y119213D01*
X53887Y116140D01*
X49873Y114477D01*
X45527Y114477D01*
G37*
%LPD*%
%LPC*%
G36*
X20127Y114477D02*
X20127Y114477D01*
X16113Y116140D01*
X13040Y119213D01*
X11377Y123227D01*
X11377Y127573D01*
X13040Y131587D01*
X16113Y134660D01*
X20127Y136323D01*
X24473Y136323D01*
X28487Y134660D01*
X31560Y131587D01*
X33223Y127573D01*
X33223Y123227D01*
X31560Y119213D01*
X28487Y116140D01*
X24473Y114477D01*
X20127Y114477D01*
G37*
%LPD*%
%LPC*%
G36*
X455527Y38277D02*
X455527Y38277D01*
X451513Y39940D01*
X448440Y43013D01*
X446777Y47027D01*
X446777Y51373D01*
X448440Y55387D01*
X451513Y58460D01*
X455527Y60123D01*
X459873Y60123D01*
X463887Y58460D01*
X466960Y55387D01*
X468623Y51373D01*
X468623Y47027D01*
X466960Y43013D01*
X463887Y39940D01*
X459873Y38277D01*
X455527Y38277D01*
G37*
%LPD*%
%LPC*%
G36*
X372827Y40777D02*
X372827Y40777D01*
X368813Y42440D01*
X365740Y45513D01*
X364077Y49527D01*
X364077Y53873D01*
X365740Y57887D01*
X368813Y60960D01*
X372827Y62623D01*
X377173Y62623D01*
X381187Y60960D01*
X384260Y57887D01*
X385923Y53873D01*
X385923Y49527D01*
X384260Y45513D01*
X381187Y42440D01*
X377173Y40777D01*
X372827Y40777D01*
G37*
%LPD*%
%LPC*%
G36*
X347827Y40777D02*
X347827Y40777D01*
X343813Y42440D01*
X340740Y45513D01*
X339077Y49527D01*
X339077Y53873D01*
X340740Y57887D01*
X343813Y60960D01*
X347827Y62623D01*
X352173Y62623D01*
X356187Y60960D01*
X359260Y57887D01*
X360923Y53873D01*
X360923Y49527D01*
X359260Y45513D01*
X356187Y42440D01*
X352173Y40777D01*
X347827Y40777D01*
G37*
%LPD*%
%LPC*%
G36*
X127827Y40777D02*
X127827Y40777D01*
X123813Y42440D01*
X120740Y45513D01*
X119077Y49527D01*
X119077Y53873D01*
X120740Y57887D01*
X123813Y60960D01*
X127827Y62623D01*
X132173Y62623D01*
X136187Y60960D01*
X139260Y57887D01*
X140923Y53873D01*
X140923Y49527D01*
X139260Y45513D01*
X136187Y42440D01*
X132173Y40777D01*
X127827Y40777D01*
G37*
%LPD*%
%LPC*%
G36*
X102827Y40777D02*
X102827Y40777D01*
X98813Y42440D01*
X95740Y45513D01*
X94077Y49527D01*
X94077Y53873D01*
X95740Y57887D01*
X98813Y60960D01*
X102827Y62623D01*
X107173Y62623D01*
X111187Y60960D01*
X114260Y57887D01*
X115923Y53873D01*
X115923Y49527D01*
X114260Y45513D01*
X111187Y42440D01*
X107173Y40777D01*
X102827Y40777D01*
G37*
%LPD*%
%LPC*%
G36*
X430127Y89077D02*
X430127Y89077D01*
X426113Y90740D01*
X423040Y93813D01*
X421377Y97827D01*
X421377Y102173D01*
X423040Y106187D01*
X426113Y109260D01*
X430127Y110923D01*
X434473Y110923D01*
X438487Y109260D01*
X441560Y106187D01*
X443223Y102173D01*
X443223Y97827D01*
X441560Y93813D01*
X438487Y90740D01*
X434473Y89077D01*
X430127Y89077D01*
G37*
%LPD*%
%LPC*%
G36*
X430127Y38277D02*
X430127Y38277D01*
X426113Y39940D01*
X423040Y43013D01*
X421377Y47027D01*
X421377Y51373D01*
X423040Y55387D01*
X426113Y58460D01*
X430127Y60123D01*
X434473Y60123D01*
X438487Y58460D01*
X441560Y55387D01*
X443223Y51373D01*
X443223Y47027D01*
X441560Y43013D01*
X438487Y39940D01*
X434473Y38277D01*
X430127Y38277D01*
G37*
%LPD*%
%LPC*%
G36*
X45527Y38277D02*
X45527Y38277D01*
X41513Y39940D01*
X38440Y43013D01*
X36777Y47027D01*
X36777Y51373D01*
X38440Y55387D01*
X41513Y58460D01*
X45527Y60123D01*
X49873Y60123D01*
X53887Y58460D01*
X56960Y55387D01*
X58623Y51373D01*
X58623Y47027D01*
X56960Y43013D01*
X53887Y39940D01*
X49873Y38277D01*
X45527Y38277D01*
G37*
%LPD*%
%LPC*%
G36*
X20127Y38277D02*
X20127Y38277D01*
X16113Y39940D01*
X13040Y43013D01*
X11377Y47027D01*
X11377Y51373D01*
X13040Y55387D01*
X16113Y58460D01*
X20127Y60123D01*
X24473Y60123D01*
X28487Y58460D01*
X31560Y55387D01*
X33223Y51373D01*
X33223Y47027D01*
X31560Y43013D01*
X28487Y39940D01*
X24473Y38277D01*
X20127Y38277D01*
G37*
%LPD*%
%LPC*%
G36*
X372827Y91577D02*
X372827Y91577D01*
X368813Y93240D01*
X365740Y96313D01*
X364077Y100327D01*
X364077Y104673D01*
X365740Y108687D01*
X368813Y111760D01*
X372827Y113423D01*
X377173Y113423D01*
X381187Y111760D01*
X384260Y108687D01*
X385923Y104673D01*
X385923Y100327D01*
X384260Y96313D01*
X381187Y93240D01*
X377173Y91577D01*
X372827Y91577D01*
G37*
%LPD*%
%LPC*%
G36*
X217031Y49331D02*
X217031Y49331D01*
X217031Y67569D01*
X217692Y67465D01*
X219412Y66906D01*
X221024Y66084D01*
X222488Y65021D01*
X223767Y63742D01*
X224831Y62278D01*
X225652Y60666D01*
X226211Y58945D01*
X226494Y57158D01*
X226494Y49331D01*
X217031Y49331D01*
G37*
%LPD*%
%LPC*%
G36*
X217031Y45269D02*
X217031Y45269D01*
X226494Y45269D01*
X226494Y37442D01*
X226211Y35655D01*
X225652Y33934D01*
X224831Y32322D01*
X223767Y30858D01*
X222488Y29579D01*
X221024Y28516D01*
X219412Y27694D01*
X217692Y27135D01*
X217031Y27031D01*
X217031Y45269D01*
G37*
%LPD*%
%LPC*%
G36*
X203506Y49331D02*
X203506Y49331D01*
X203506Y57158D01*
X203789Y58945D01*
X204348Y60666D01*
X205169Y62278D01*
X206233Y63742D01*
X207512Y65021D01*
X208976Y66084D01*
X210588Y66906D01*
X212308Y67465D01*
X212969Y67569D01*
X212969Y49331D01*
X203506Y49331D01*
G37*
%LPD*%
%LPC*%
G36*
X212308Y27135D02*
X212308Y27135D01*
X210588Y27694D01*
X208976Y28516D01*
X207512Y29579D01*
X206233Y30858D01*
X205169Y32322D01*
X204348Y33934D01*
X203789Y35655D01*
X203506Y37442D01*
X203506Y45269D01*
X212969Y45269D01*
X212969Y27031D01*
X212308Y27135D01*
G37*
%LPD*%
%LPC*%
G36*
X157031Y79131D02*
X157031Y79131D01*
X157031Y88987D01*
X157044Y88978D01*
X157146Y88904D01*
X157161Y88899D01*
X157176Y88888D01*
X157446Y88800D01*
X157455Y88800D01*
X157464Y88797D01*
X157796Y88745D01*
X159583Y88164D01*
X161257Y87311D01*
X162778Y86206D01*
X164106Y84878D01*
X165211Y83357D01*
X166064Y81683D01*
X166645Y79896D01*
X166766Y79131D01*
X157031Y79131D01*
G37*
%LPD*%
%LPC*%
G36*
X157031Y104531D02*
X157031Y104531D01*
X157031Y114387D01*
X157044Y114378D01*
X157146Y114304D01*
X157161Y114299D01*
X157176Y114288D01*
X157446Y114200D01*
X157455Y114200D01*
X157464Y114197D01*
X157796Y114145D01*
X159583Y113564D01*
X161257Y112711D01*
X162778Y111606D01*
X164106Y110278D01*
X165211Y108757D01*
X166064Y107083D01*
X166645Y105296D01*
X166766Y104531D01*
X157031Y104531D01*
G37*
%LPD*%
%LPC*%
G36*
X327031Y129931D02*
X327031Y129931D01*
X327031Y139787D01*
X327045Y139778D01*
X327146Y139704D01*
X327161Y139699D01*
X327176Y139688D01*
X327446Y139600D01*
X327455Y139600D01*
X327464Y139597D01*
X327796Y139545D01*
X329583Y138964D01*
X331257Y138111D01*
X332778Y137006D01*
X334106Y135678D01*
X335211Y134157D01*
X336064Y132483D01*
X336645Y130696D01*
X336766Y129931D01*
X327031Y129931D01*
G37*
%LPD*%
%LPC*%
G36*
X157031Y129931D02*
X157031Y129931D01*
X157031Y139787D01*
X157045Y139778D01*
X157146Y139704D01*
X157161Y139699D01*
X157176Y139688D01*
X157446Y139600D01*
X157455Y139600D01*
X157464Y139597D01*
X157796Y139545D01*
X159583Y138964D01*
X161257Y138111D01*
X162778Y137006D01*
X164106Y135678D01*
X165211Y134157D01*
X166064Y132483D01*
X166645Y130696D01*
X166766Y129931D01*
X157031Y129931D01*
G37*
%LPD*%
%LPC*%
G36*
X327031Y104531D02*
X327031Y104531D01*
X327031Y114387D01*
X327045Y114378D01*
X327146Y114304D01*
X327161Y114299D01*
X327176Y114288D01*
X327446Y114200D01*
X327455Y114200D01*
X327464Y114197D01*
X327796Y114145D01*
X329583Y113564D01*
X331257Y112711D01*
X332778Y111606D01*
X334106Y110278D01*
X335211Y108757D01*
X336064Y107083D01*
X336645Y105296D01*
X336766Y104531D01*
X327031Y104531D01*
G37*
%LPD*%
%LPC*%
G36*
X327031Y53731D02*
X327031Y53731D01*
X327031Y63587D01*
X327045Y63578D01*
X327146Y63504D01*
X327160Y63499D01*
X327176Y63489D01*
X327446Y63400D01*
X327455Y63400D01*
X327464Y63397D01*
X327796Y63345D01*
X329583Y62764D01*
X331257Y61911D01*
X332778Y60806D01*
X334106Y59478D01*
X335211Y57957D01*
X336064Y56283D01*
X336645Y54496D01*
X336766Y53731D01*
X327031Y53731D01*
G37*
%LPD*%
%LPC*%
G36*
X157031Y53731D02*
X157031Y53731D01*
X157031Y63587D01*
X157045Y63578D01*
X157146Y63504D01*
X157160Y63499D01*
X157176Y63489D01*
X157446Y63400D01*
X157455Y63400D01*
X157464Y63397D01*
X157796Y63345D01*
X159583Y62764D01*
X161257Y61911D01*
X162778Y60806D01*
X164106Y59478D01*
X165211Y57957D01*
X166064Y56283D01*
X166645Y54496D01*
X166766Y53731D01*
X157031Y53731D01*
G37*
%LPD*%
%LPC*%
G36*
X327031Y79131D02*
X327031Y79131D01*
X327031Y88987D01*
X327045Y88978D01*
X327146Y88904D01*
X327160Y88899D01*
X327176Y88889D01*
X327446Y88800D01*
X327455Y88800D01*
X327464Y88797D01*
X327796Y88745D01*
X329583Y88164D01*
X331257Y87311D01*
X332778Y86206D01*
X334106Y84878D01*
X335211Y83357D01*
X336064Y81683D01*
X336645Y79896D01*
X336766Y79131D01*
X327031Y79131D01*
G37*
%LPD*%
%LPC*%
G36*
X143234Y104531D02*
X143234Y104531D01*
X143355Y105296D01*
X143936Y107083D01*
X144789Y108757D01*
X145894Y110278D01*
X147222Y111606D01*
X148743Y112711D01*
X150417Y113564D01*
X152204Y114145D01*
X152536Y114197D01*
X152656Y114234D01*
X152777Y114267D01*
X152791Y114276D01*
X152808Y114281D01*
X152913Y114349D01*
X152969Y114383D01*
X152969Y104531D01*
X143234Y104531D01*
G37*
%LPD*%
%LPC*%
G36*
X313234Y129931D02*
X313234Y129931D01*
X313355Y130696D01*
X313936Y132483D01*
X314789Y134157D01*
X315894Y135678D01*
X317222Y137006D01*
X318743Y138111D01*
X320417Y138964D01*
X322204Y139545D01*
X322536Y139597D01*
X322656Y139634D01*
X322777Y139667D01*
X322791Y139676D01*
X322808Y139681D01*
X322912Y139749D01*
X322969Y139783D01*
X322969Y129931D01*
X313234Y129931D01*
G37*
%LPD*%
%LPC*%
G36*
X143234Y53731D02*
X143234Y53731D01*
X143355Y54496D01*
X143936Y56283D01*
X144789Y57957D01*
X145894Y59478D01*
X147222Y60806D01*
X148743Y61911D01*
X150417Y62764D01*
X152204Y63345D01*
X152536Y63397D01*
X152655Y63434D01*
X152777Y63467D01*
X152791Y63476D01*
X152807Y63481D01*
X152913Y63549D01*
X152969Y63583D01*
X152969Y53731D01*
X143234Y53731D01*
G37*
%LPD*%
%LPC*%
G36*
X313234Y104531D02*
X313234Y104531D01*
X313355Y105296D01*
X313936Y107083D01*
X314789Y108757D01*
X315894Y110278D01*
X317222Y111606D01*
X318743Y112711D01*
X320417Y113564D01*
X322204Y114145D01*
X322536Y114197D01*
X322656Y114234D01*
X322777Y114267D01*
X322791Y114276D01*
X322808Y114281D01*
X322913Y114349D01*
X322969Y114383D01*
X322969Y104531D01*
X313234Y104531D01*
G37*
%LPD*%
%LPC*%
G36*
X143234Y129931D02*
X143234Y129931D01*
X143355Y130696D01*
X143936Y132483D01*
X144789Y134157D01*
X145894Y135678D01*
X147222Y137006D01*
X148743Y138111D01*
X150417Y138964D01*
X152204Y139545D01*
X152536Y139597D01*
X152656Y139634D01*
X152777Y139667D01*
X152791Y139676D01*
X152808Y139681D01*
X152913Y139749D01*
X152969Y139783D01*
X152969Y129931D01*
X143234Y129931D01*
G37*
%LPD*%
%LPC*%
G36*
X143234Y79131D02*
X143234Y79131D01*
X143355Y79896D01*
X143936Y81683D01*
X144789Y83357D01*
X145894Y84878D01*
X147222Y86206D01*
X148743Y87311D01*
X150417Y88164D01*
X152204Y88745D01*
X152536Y88797D01*
X152656Y88834D01*
X152777Y88867D01*
X152791Y88876D01*
X152808Y88881D01*
X152913Y88949D01*
X152969Y88983D01*
X152969Y79131D01*
X143234Y79131D01*
G37*
%LPD*%
%LPC*%
G36*
X313234Y53731D02*
X313234Y53731D01*
X313355Y54496D01*
X313936Y56283D01*
X314789Y57957D01*
X315894Y59478D01*
X317222Y60806D01*
X318743Y61911D01*
X320417Y62764D01*
X322204Y63345D01*
X322536Y63397D01*
X322656Y63434D01*
X322777Y63467D01*
X322791Y63476D01*
X322808Y63481D01*
X322913Y63549D01*
X322969Y63583D01*
X322969Y53731D01*
X313234Y53731D01*
G37*
%LPD*%
%LPC*%
G36*
X313234Y79131D02*
X313234Y79131D01*
X313355Y79896D01*
X313936Y81683D01*
X314789Y83357D01*
X315894Y84878D01*
X317222Y86206D01*
X318743Y87311D01*
X320417Y88164D01*
X322204Y88745D01*
X322536Y88797D01*
X322656Y88834D01*
X322777Y88867D01*
X322791Y88876D01*
X322808Y88881D01*
X322913Y88949D01*
X322969Y88983D01*
X322969Y79131D01*
X313234Y79131D01*
G37*
%LPD*%
%LPC*%
G36*
X327031Y100469D02*
X327031Y100469D01*
X336766Y100469D01*
X336645Y99704D01*
X336064Y97917D01*
X335211Y96243D01*
X334106Y94722D01*
X332778Y93394D01*
X331257Y92289D01*
X329583Y91436D01*
X327796Y90855D01*
X327464Y90803D01*
X327344Y90766D01*
X327223Y90733D01*
X327209Y90724D01*
X327192Y90719D01*
X327087Y90651D01*
X327031Y90617D01*
X327031Y100469D01*
G37*
%LPD*%
%LPC*%
G36*
X327031Y75069D02*
X327031Y75069D01*
X336766Y75069D01*
X336645Y74304D01*
X336064Y72517D01*
X335211Y70843D01*
X334106Y69322D01*
X332778Y67994D01*
X331257Y66889D01*
X329583Y66036D01*
X327796Y65455D01*
X327464Y65403D01*
X327344Y65366D01*
X327223Y65333D01*
X327209Y65324D01*
X327192Y65319D01*
X327087Y65251D01*
X327031Y65217D01*
X327031Y75069D01*
G37*
%LPD*%
%LPC*%
G36*
X157031Y75069D02*
X157031Y75069D01*
X166766Y75069D01*
X166645Y74304D01*
X166064Y72517D01*
X165211Y70843D01*
X164106Y69322D01*
X162778Y67994D01*
X161257Y66889D01*
X159583Y66036D01*
X157796Y65455D01*
X157464Y65403D01*
X157344Y65366D01*
X157223Y65333D01*
X157209Y65324D01*
X157192Y65319D01*
X157087Y65251D01*
X157031Y65217D01*
X157031Y75069D01*
G37*
%LPD*%
%LPC*%
G36*
X327031Y125869D02*
X327031Y125869D01*
X336766Y125869D01*
X336645Y125104D01*
X336064Y123317D01*
X335211Y121643D01*
X334106Y120122D01*
X332778Y118794D01*
X331257Y117689D01*
X329583Y116836D01*
X327796Y116255D01*
X327464Y116203D01*
X327344Y116166D01*
X327223Y116133D01*
X327209Y116124D01*
X327192Y116119D01*
X327087Y116051D01*
X327031Y116017D01*
X327031Y125869D01*
G37*
%LPD*%
%LPC*%
G36*
X327031Y151269D02*
X327031Y151269D01*
X336766Y151269D01*
X336645Y150504D01*
X336064Y148717D01*
X335211Y147043D01*
X334106Y145522D01*
X332778Y144194D01*
X331257Y143089D01*
X329583Y142236D01*
X327796Y141655D01*
X327464Y141603D01*
X327344Y141566D01*
X327223Y141533D01*
X327209Y141524D01*
X327192Y141519D01*
X327087Y141451D01*
X327031Y141417D01*
X327031Y151269D01*
G37*
%LPD*%
%LPC*%
G36*
X157031Y151269D02*
X157031Y151269D01*
X166766Y151269D01*
X166645Y150504D01*
X166064Y148717D01*
X165211Y147043D01*
X164106Y145522D01*
X162778Y144194D01*
X161257Y143089D01*
X159583Y142236D01*
X157796Y141655D01*
X157464Y141603D01*
X157344Y141566D01*
X157223Y141533D01*
X157209Y141524D01*
X157192Y141519D01*
X157087Y141451D01*
X157031Y141417D01*
X157031Y151269D01*
G37*
%LPD*%
%LPC*%
G36*
X157031Y100469D02*
X157031Y100469D01*
X166766Y100469D01*
X166645Y99704D01*
X166064Y97917D01*
X165211Y96243D01*
X164106Y94722D01*
X162778Y93394D01*
X161257Y92289D01*
X159583Y91436D01*
X157796Y90855D01*
X157464Y90803D01*
X157344Y90766D01*
X157223Y90733D01*
X157209Y90724D01*
X157192Y90719D01*
X157087Y90650D01*
X157031Y90617D01*
X157031Y100469D01*
G37*
%LPD*%
%LPC*%
G36*
X157031Y125869D02*
X157031Y125869D01*
X166766Y125869D01*
X166645Y125104D01*
X166064Y123317D01*
X165211Y121643D01*
X164106Y120122D01*
X162778Y118794D01*
X161257Y117689D01*
X159583Y116836D01*
X157796Y116255D01*
X157464Y116203D01*
X157344Y116166D01*
X157223Y116133D01*
X157209Y116124D01*
X157192Y116119D01*
X157087Y116050D01*
X157031Y116017D01*
X157031Y125869D01*
G37*
%LPD*%
%LPC*%
G36*
X152956Y65222D02*
X152956Y65222D01*
X152854Y65296D01*
X152839Y65301D01*
X152824Y65311D01*
X152554Y65400D01*
X152545Y65400D01*
X152536Y65403D01*
X152204Y65455D01*
X150417Y66036D01*
X148743Y66889D01*
X147222Y67994D01*
X145894Y69322D01*
X144789Y70843D01*
X143936Y72517D01*
X143355Y74304D01*
X143234Y75069D01*
X152969Y75069D01*
X152969Y65213D01*
X152956Y65222D01*
G37*
%LPD*%
%LPC*%
G36*
X322955Y141422D02*
X322955Y141422D01*
X322854Y141496D01*
X322839Y141501D01*
X322824Y141512D01*
X322554Y141600D01*
X322544Y141600D01*
X322536Y141603D01*
X322204Y141655D01*
X320417Y142236D01*
X318743Y143089D01*
X317222Y144194D01*
X315894Y145522D01*
X314789Y147043D01*
X313936Y148717D01*
X313355Y150504D01*
X313234Y151269D01*
X322969Y151269D01*
X322969Y141413D01*
X322955Y141422D01*
G37*
%LPD*%
%LPC*%
G36*
X322956Y90622D02*
X322956Y90622D01*
X322854Y90696D01*
X322839Y90701D01*
X322824Y90712D01*
X322554Y90800D01*
X322545Y90800D01*
X322536Y90803D01*
X322204Y90855D01*
X320417Y91436D01*
X318743Y92289D01*
X317222Y93394D01*
X315894Y94722D01*
X314789Y96243D01*
X313936Y97917D01*
X313355Y99704D01*
X313234Y100469D01*
X322969Y100469D01*
X322969Y90613D01*
X322956Y90622D01*
G37*
%LPD*%
%LPC*%
G36*
X152955Y90622D02*
X152955Y90622D01*
X152854Y90696D01*
X152839Y90701D01*
X152824Y90712D01*
X152554Y90800D01*
X152545Y90800D01*
X152536Y90803D01*
X152204Y90855D01*
X150417Y91436D01*
X148743Y92289D01*
X147222Y93394D01*
X145894Y94722D01*
X144789Y96243D01*
X143936Y97917D01*
X143355Y99704D01*
X143234Y100469D01*
X152969Y100469D01*
X152969Y90613D01*
X152955Y90622D01*
G37*
%LPD*%
%LPC*%
G36*
X322955Y65222D02*
X322955Y65222D01*
X322854Y65296D01*
X322839Y65301D01*
X322824Y65312D01*
X322554Y65400D01*
X322545Y65400D01*
X322536Y65403D01*
X322204Y65455D01*
X320417Y66036D01*
X318743Y66889D01*
X317222Y67994D01*
X315894Y69322D01*
X314789Y70843D01*
X313936Y72517D01*
X313355Y74304D01*
X313234Y75069D01*
X322969Y75069D01*
X322969Y65213D01*
X322955Y65222D01*
G37*
%LPD*%
%LPC*%
G36*
X322955Y116022D02*
X322955Y116022D01*
X322854Y116096D01*
X322840Y116101D01*
X322824Y116111D01*
X322554Y116200D01*
X322545Y116200D01*
X322536Y116203D01*
X322204Y116255D01*
X320417Y116836D01*
X318743Y117689D01*
X317222Y118794D01*
X315894Y120122D01*
X314789Y121643D01*
X313936Y123317D01*
X313355Y125104D01*
X313234Y125869D01*
X322969Y125869D01*
X322969Y116013D01*
X322955Y116022D01*
G37*
%LPD*%
%LPC*%
G36*
X152955Y141422D02*
X152955Y141422D01*
X152854Y141496D01*
X152840Y141501D01*
X152824Y141511D01*
X152554Y141600D01*
X152545Y141600D01*
X152536Y141603D01*
X152204Y141655D01*
X150417Y142236D01*
X148743Y143089D01*
X147222Y144194D01*
X145894Y145522D01*
X144789Y147043D01*
X143936Y148717D01*
X143355Y150504D01*
X143234Y151269D01*
X152969Y151269D01*
X152969Y141413D01*
X152955Y141422D01*
G37*
%LPD*%
%LPC*%
G36*
X152955Y116022D02*
X152955Y116022D01*
X152854Y116096D01*
X152840Y116101D01*
X152824Y116111D01*
X152554Y116200D01*
X152545Y116200D01*
X152536Y116203D01*
X152204Y116255D01*
X150417Y116836D01*
X148743Y117689D01*
X147222Y118794D01*
X145894Y120122D01*
X144789Y121643D01*
X143936Y123317D01*
X143355Y125104D01*
X143234Y125869D01*
X152969Y125869D01*
X152969Y116013D01*
X152955Y116022D01*
G37*
%LPD*%
%LPC*%
G36*
X327031Y155331D02*
X327031Y155331D01*
X327031Y165066D01*
X327796Y164945D01*
X329583Y164364D01*
X331257Y163511D01*
X332778Y162406D01*
X334106Y161078D01*
X335211Y159557D01*
X336064Y157883D01*
X336645Y156096D01*
X336766Y155331D01*
X327031Y155331D01*
G37*
%LPD*%
%LPC*%
G36*
X157031Y155331D02*
X157031Y155331D01*
X157031Y165066D01*
X157796Y164945D01*
X159583Y164364D01*
X161257Y163511D01*
X162778Y162406D01*
X164106Y161078D01*
X165211Y159557D01*
X166064Y157883D01*
X166645Y156096D01*
X166766Y155331D01*
X157031Y155331D01*
G37*
%LPD*%
%LPC*%
G36*
X143234Y155331D02*
X143234Y155331D01*
X143355Y156096D01*
X143936Y157883D01*
X144789Y159557D01*
X145894Y161078D01*
X147222Y162406D01*
X148743Y163511D01*
X150417Y164364D01*
X152204Y164945D01*
X152969Y165066D01*
X152969Y155331D01*
X143234Y155331D01*
G37*
%LPD*%
%LPC*%
G36*
X313234Y155331D02*
X313234Y155331D01*
X313355Y156096D01*
X313936Y157883D01*
X314789Y159557D01*
X315894Y161078D01*
X317222Y162406D01*
X318743Y163511D01*
X320417Y164364D01*
X322204Y164945D01*
X322969Y165066D01*
X322969Y155331D01*
X313234Y155331D01*
G37*
%LPD*%
%LPC*%
G36*
X157031Y49669D02*
X157031Y49669D01*
X166766Y49669D01*
X166645Y48904D01*
X166064Y47117D01*
X165211Y45443D01*
X164106Y43922D01*
X162778Y42594D01*
X161257Y41489D01*
X159583Y40636D01*
X157796Y40055D01*
X157031Y39934D01*
X157031Y49669D01*
G37*
%LPD*%
%LPC*%
G36*
X327031Y49669D02*
X327031Y49669D01*
X336766Y49669D01*
X336645Y48904D01*
X336064Y47117D01*
X335211Y45443D01*
X334106Y43922D01*
X332778Y42594D01*
X331257Y41489D01*
X329583Y40636D01*
X327796Y40055D01*
X327031Y39934D01*
X327031Y49669D01*
G37*
%LPD*%
%LPC*%
G36*
X322204Y40055D02*
X322204Y40055D01*
X320417Y40636D01*
X318743Y41489D01*
X317222Y42594D01*
X315894Y43922D01*
X314789Y45443D01*
X313936Y47117D01*
X313355Y48904D01*
X313234Y49669D01*
X322969Y49669D01*
X322969Y39934D01*
X322204Y40055D01*
G37*
%LPD*%
%LPC*%
G36*
X152204Y40055D02*
X152204Y40055D01*
X150417Y40636D01*
X148743Y41489D01*
X147222Y42594D01*
X145894Y43922D01*
X144789Y45443D01*
X143936Y47117D01*
X143355Y48904D01*
X143234Y49669D01*
X152969Y49669D01*
X152969Y39934D01*
X152204Y40055D01*
G37*
%LPD*%
%LPC*%
G36*
X154999Y77099D02*
X154999Y77099D01*
X154999Y77101D01*
X155001Y77101D01*
X155001Y77099D01*
X154999Y77099D01*
G37*
%LPD*%
%LPC*%
G36*
X324999Y77099D02*
X324999Y77099D01*
X324999Y77101D01*
X325001Y77101D01*
X325001Y77099D01*
X324999Y77099D01*
G37*
%LPD*%
%LPC*%
G36*
X154999Y127899D02*
X154999Y127899D01*
X154999Y127901D01*
X155001Y127901D01*
X155001Y127899D01*
X154999Y127899D01*
G37*
%LPD*%
%LPC*%
G36*
X324999Y127899D02*
X324999Y127899D01*
X324999Y127901D01*
X325001Y127901D01*
X325001Y127899D01*
X324999Y127899D01*
G37*
%LPD*%
%LPC*%
G36*
X324999Y102499D02*
X324999Y102499D01*
X324999Y102501D01*
X325001Y102501D01*
X325001Y102499D01*
X324999Y102499D01*
G37*
%LPD*%
%LPC*%
G36*
X154999Y153299D02*
X154999Y153299D01*
X154999Y153301D01*
X155001Y153301D01*
X155001Y153299D01*
X154999Y153299D01*
G37*
%LPD*%
%LPC*%
G36*
X154999Y102499D02*
X154999Y102499D01*
X154999Y102501D01*
X155001Y102501D01*
X155001Y102499D01*
X154999Y102499D01*
G37*
%LPD*%
%LPC*%
G36*
X324999Y153299D02*
X324999Y153299D01*
X324999Y153301D01*
X325001Y153301D01*
X325001Y153299D01*
X324999Y153299D01*
G37*
%LPD*%
%LPC*%
G36*
X324999Y51699D02*
X324999Y51699D01*
X324999Y51701D01*
X325001Y51701D01*
X325001Y51699D01*
X324999Y51699D01*
G37*
%LPD*%
%LPC*%
G36*
X154999Y51699D02*
X154999Y51699D01*
X154999Y51701D01*
X155001Y51701D01*
X155001Y51699D01*
X154999Y51699D01*
G37*
%LPD*%
%LPC*%
G36*
X214999Y47299D02*
X214999Y47299D01*
X214999Y47301D01*
X215001Y47301D01*
X215001Y47299D01*
X214999Y47299D01*
G37*
%LPD*%
D10*
X155000Y51700D03*
X155000Y77100D03*
X155000Y102500D03*
X155000Y127900D03*
X155000Y153300D03*
X130000Y51700D03*
X130000Y77100D03*
X130000Y102500D03*
X130000Y127900D03*
X130000Y153300D03*
X105000Y51700D03*
X105000Y77100D03*
X105000Y102500D03*
X105000Y127900D03*
X105000Y153300D03*
X325000Y153300D03*
X325000Y127900D03*
X325000Y102500D03*
X325000Y77100D03*
X325000Y51700D03*
X350000Y153300D03*
X350000Y127900D03*
X350000Y102500D03*
X350000Y77100D03*
X350000Y51700D03*
X375000Y153300D03*
X375000Y127900D03*
X375000Y102500D03*
X375000Y77100D03*
X375000Y51700D03*
D11*
X215000Y56254D02*
X215000Y38347D01*
X265000Y38347D02*
X265000Y56254D01*
D10*
X47700Y49200D03*
X22300Y49200D03*
X47700Y74600D03*
X22300Y74600D03*
X47700Y100000D03*
X22300Y100000D03*
X47700Y125400D03*
X22300Y125400D03*
X47700Y150800D03*
X22300Y150800D03*
X432300Y150800D03*
X457700Y150800D03*
X432300Y125400D03*
X457700Y125400D03*
X432300Y100000D03*
X457700Y100000D03*
X432300Y74600D03*
X457700Y74600D03*
X432300Y49200D03*
X457700Y49200D03*
M02*
