M48
;GenerationSoftware,Autodesk,EAGLE,8.7.1*%
;CreationDate,2018-04-09T14:36:15Z*%
FMAT,2
ICI,OFF
METRIC,TZ,000.000
T3C1.016
T2C1.194
T1C3.302
%
G90
M71
T1
X24000Y16500
T2
X26500Y4730
X21500Y4730
T3
X15500Y7710
X15500Y10250
X15500Y12790
X15500Y15330
X13000Y5170
X13000Y7710
X13000Y10250
X13000Y12790
X13000Y15330
X10500Y5170
X10500Y7710
X10500Y10250
X10500Y12790
X10500Y15330
X32500Y15330
X32500Y12790
X32500Y10250
X32500Y7710
X35000Y15330
X35000Y12790
X35000Y10250
X35000Y7710
X35000Y5170
X32500Y5170
X37500Y12790
X37500Y10250
X37500Y7710
X37500Y5170
X15500Y5170
X37500Y15330
X4770Y4920
X2230Y4920
X4770Y7460
X2230Y7460
X4770Y10000
X2230Y10000
X4770Y12540
X2230Y12540
X4770Y15080
X2230Y15080
X43230Y15080
X45770Y15080
X43230Y12540
X45770Y12540
X43230Y10000
X45770Y10000
X43230Y7460
X45770Y7460
X43230Y4920
X45770Y4920
M30