G04 EAGLE Gerber X2 export*
%TF.Part,Single*%
%TF.FileFunction,Other,Top Copper Layer*%
%TF.FilePolarity,Positive*%
%TF.GenerationSoftware,Autodesk,EAGLE,8.7.1*%
%TF.CreationDate,2018-04-09T14:36:16Z*%
G75*
%MOMM*%
%FSLAX34Y34*%
%LPD*%
%AMOC8*
5,1,8,0,0,1.08239X$1,22.5*%
G01*
%ADD10C,1.879600*%
%ADD11C,1.790700*%
%ADD12C,0.203200*%

G36*
X469956Y3819D02*
X469956Y3819D01*
X470000Y3816D01*
X471028Y3917D01*
X471305Y3984D01*
X471311Y3988D01*
X471317Y3989D01*
X473219Y4777D01*
X473245Y4793D01*
X473275Y4802D01*
X473338Y4848D01*
X473463Y4921D01*
X473508Y4968D01*
X473548Y4997D01*
X475003Y6452D01*
X475022Y6477D01*
X475045Y6497D01*
X475087Y6564D01*
X475174Y6679D01*
X475197Y6739D01*
X475223Y6781D01*
X476011Y8683D01*
X476082Y8958D01*
X476081Y8965D01*
X476083Y8972D01*
X476184Y10000D01*
X476182Y10057D01*
X476189Y10100D01*
X476189Y203200D01*
X476179Y203276D01*
X476181Y203333D01*
X476113Y203843D01*
X476105Y203873D01*
X476103Y203904D01*
X476076Y203978D01*
X476037Y204117D01*
X476003Y204172D01*
X475986Y204219D01*
X475475Y205103D01*
X475415Y205180D01*
X475362Y205261D01*
X475331Y205287D01*
X475300Y205327D01*
X475160Y205428D01*
X475103Y205475D01*
X474219Y205986D01*
X474190Y205998D01*
X474164Y206015D01*
X474089Y206038D01*
X473955Y206092D01*
X473891Y206099D01*
X473843Y206113D01*
X473333Y206181D01*
X473256Y206180D01*
X473200Y206189D01*
X6800Y206189D01*
X6724Y206179D01*
X6668Y206181D01*
X6157Y206113D01*
X6127Y206105D01*
X6096Y206103D01*
X6022Y206076D01*
X5883Y206037D01*
X5828Y206003D01*
X5781Y205986D01*
X4897Y205475D01*
X4820Y205415D01*
X4739Y205362D01*
X4713Y205331D01*
X4673Y205300D01*
X4572Y205160D01*
X4525Y205103D01*
X4014Y204219D01*
X4002Y204190D01*
X3985Y204164D01*
X3962Y204089D01*
X3908Y203955D01*
X3901Y203891D01*
X3887Y203843D01*
X3819Y203333D01*
X3820Y203256D01*
X3811Y203200D01*
X3811Y12700D01*
X3819Y12644D01*
X3816Y12600D01*
X3967Y11064D01*
X4034Y10788D01*
X4038Y10782D01*
X4039Y10775D01*
X5215Y7937D01*
X5231Y7910D01*
X5240Y7881D01*
X5286Y7817D01*
X5360Y7692D01*
X5406Y7648D01*
X5435Y7608D01*
X7608Y5435D01*
X7632Y5417D01*
X7652Y5393D01*
X7719Y5351D01*
X7835Y5264D01*
X7895Y5241D01*
X7937Y5215D01*
X10775Y4039D01*
X11051Y3968D01*
X11058Y3969D01*
X11064Y3967D01*
X12600Y3816D01*
X12657Y3818D01*
X12700Y3811D01*
X469900Y3811D01*
X469956Y3819D01*
G37*
%LPC*%
G36*
X235958Y144679D02*
X235958Y144679D01*
X228489Y147773D01*
X222773Y153489D01*
X219679Y160958D01*
X219679Y169042D01*
X222773Y176511D01*
X228489Y182227D01*
X235958Y185321D01*
X244042Y185321D01*
X251511Y182227D01*
X257227Y176511D01*
X260321Y169042D01*
X260321Y160958D01*
X257227Y153489D01*
X251511Y147773D01*
X244042Y144679D01*
X235958Y144679D01*
G37*
%LPD*%
%LPC*%
G36*
X45527Y139877D02*
X45527Y139877D01*
X41513Y141540D01*
X38440Y144613D01*
X36777Y148627D01*
X36777Y152973D01*
X38440Y156987D01*
X41513Y160060D01*
X45527Y161723D01*
X49873Y161723D01*
X53887Y160060D01*
X56960Y156987D01*
X58542Y153167D01*
X58543Y153166D01*
X58543Y153165D01*
X58613Y153046D01*
X58687Y152923D01*
X58688Y152922D01*
X58689Y152920D01*
X58794Y152821D01*
X58893Y152727D01*
X58895Y152727D01*
X58896Y152726D01*
X59022Y152661D01*
X59146Y152597D01*
X59148Y152597D01*
X59149Y152596D01*
X59164Y152594D01*
X59425Y152542D01*
X59455Y152545D01*
X59480Y152541D01*
X78527Y152541D01*
X78614Y152553D01*
X78701Y152556D01*
X78754Y152573D01*
X78809Y152581D01*
X78888Y152616D01*
X78972Y152643D01*
X79011Y152671D01*
X79068Y152697D01*
X79181Y152793D01*
X79245Y152838D01*
X82248Y155841D01*
X93551Y155841D01*
X93553Y155841D01*
X93555Y155841D01*
X93695Y155861D01*
X93833Y155881D01*
X93834Y155881D01*
X93836Y155881D01*
X93962Y155938D01*
X94092Y155997D01*
X94094Y155998D01*
X94095Y155999D01*
X94202Y156090D01*
X94309Y156180D01*
X94310Y156182D01*
X94311Y156183D01*
X94320Y156196D01*
X94467Y156417D01*
X94476Y156446D01*
X94489Y156467D01*
X95740Y159487D01*
X98813Y162560D01*
X102827Y164223D01*
X107173Y164223D01*
X111187Y162560D01*
X114260Y159487D01*
X115923Y155473D01*
X115923Y151127D01*
X114260Y147113D01*
X111187Y144040D01*
X107173Y142377D01*
X102827Y142377D01*
X98813Y144040D01*
X95740Y147113D01*
X94489Y150133D01*
X94489Y150134D01*
X94488Y150135D01*
X94417Y150256D01*
X94345Y150377D01*
X94344Y150378D01*
X94343Y150380D01*
X94239Y150477D01*
X94138Y150573D01*
X94137Y150573D01*
X94136Y150574D01*
X94010Y150639D01*
X93885Y150703D01*
X93884Y150703D01*
X93882Y150704D01*
X93868Y150706D01*
X93606Y150758D01*
X93576Y150755D01*
X93551Y150759D01*
X84773Y150759D01*
X84686Y150747D01*
X84599Y150744D01*
X84546Y150727D01*
X84491Y150719D01*
X84412Y150684D01*
X84328Y150657D01*
X84289Y150629D01*
X84232Y150603D01*
X84119Y150507D01*
X84055Y150462D01*
X81052Y147459D01*
X58817Y147459D01*
X58816Y147459D01*
X58814Y147459D01*
X58674Y147439D01*
X58536Y147419D01*
X58534Y147419D01*
X58533Y147419D01*
X58407Y147362D01*
X58276Y147303D01*
X58275Y147302D01*
X58274Y147301D01*
X58167Y147210D01*
X58059Y147120D01*
X58058Y147118D01*
X58057Y147117D01*
X58049Y147104D01*
X57902Y146883D01*
X57893Y146854D01*
X57879Y146833D01*
X56960Y144613D01*
X53887Y141540D01*
X49873Y139877D01*
X45527Y139877D01*
G37*
%LPD*%
%LPC*%
G36*
X430127Y139877D02*
X430127Y139877D01*
X426113Y141540D01*
X423040Y144613D01*
X422121Y146833D01*
X422120Y146834D01*
X422119Y146835D01*
X422048Y146956D01*
X421976Y147077D01*
X421975Y147078D01*
X421974Y147080D01*
X421870Y147177D01*
X421770Y147273D01*
X421768Y147273D01*
X421767Y147274D01*
X421641Y147339D01*
X421517Y147403D01*
X421515Y147403D01*
X421514Y147404D01*
X421499Y147406D01*
X421238Y147458D01*
X421207Y147455D01*
X421183Y147459D01*
X398948Y147459D01*
X395945Y150462D01*
X395875Y150514D01*
X395811Y150574D01*
X395762Y150600D01*
X395718Y150633D01*
X395636Y150664D01*
X395558Y150704D01*
X395511Y150712D01*
X395452Y150734D01*
X395304Y150746D01*
X395227Y150759D01*
X386449Y150759D01*
X386447Y150759D01*
X386445Y150759D01*
X386305Y150739D01*
X386167Y150719D01*
X386166Y150719D01*
X386164Y150719D01*
X386038Y150662D01*
X385908Y150603D01*
X385906Y150602D01*
X385905Y150601D01*
X385798Y150510D01*
X385691Y150420D01*
X385690Y150418D01*
X385689Y150417D01*
X385680Y150404D01*
X385533Y150183D01*
X385524Y150154D01*
X385511Y150133D01*
X384260Y147113D01*
X381187Y144040D01*
X377173Y142377D01*
X372827Y142377D01*
X368813Y144040D01*
X365740Y147113D01*
X364077Y151127D01*
X364077Y155473D01*
X365740Y159487D01*
X368813Y162560D01*
X372827Y164223D01*
X377173Y164223D01*
X381187Y162560D01*
X384260Y159487D01*
X385511Y156467D01*
X385511Y156466D01*
X385512Y156465D01*
X385583Y156344D01*
X385655Y156223D01*
X385656Y156222D01*
X385657Y156220D01*
X385761Y156123D01*
X385862Y156027D01*
X385863Y156027D01*
X385864Y156026D01*
X385990Y155961D01*
X386115Y155897D01*
X386116Y155897D01*
X386118Y155896D01*
X386132Y155894D01*
X386394Y155842D01*
X386424Y155845D01*
X386449Y155841D01*
X397752Y155841D01*
X400755Y152838D01*
X400825Y152786D01*
X400889Y152726D01*
X400938Y152700D01*
X400982Y152667D01*
X401064Y152636D01*
X401142Y152596D01*
X401189Y152588D01*
X401248Y152566D01*
X401396Y152554D01*
X401473Y152541D01*
X420520Y152541D01*
X420522Y152541D01*
X420523Y152541D01*
X420663Y152561D01*
X420801Y152581D01*
X420803Y152581D01*
X420804Y152581D01*
X420930Y152638D01*
X421061Y152697D01*
X421062Y152698D01*
X421064Y152699D01*
X421171Y152790D01*
X421278Y152880D01*
X421279Y152882D01*
X421280Y152883D01*
X421288Y152896D01*
X421435Y153117D01*
X421445Y153146D01*
X421458Y153167D01*
X423040Y156987D01*
X426113Y160060D01*
X430127Y161723D01*
X434473Y161723D01*
X438487Y160060D01*
X441560Y156987D01*
X443223Y152973D01*
X443223Y148627D01*
X441560Y144613D01*
X438487Y141540D01*
X434473Y139877D01*
X430127Y139877D01*
G37*
%LPD*%
%LPC*%
G36*
X45527Y114477D02*
X45527Y114477D01*
X41513Y116140D01*
X38440Y119213D01*
X36777Y123227D01*
X36777Y127573D01*
X38440Y131587D01*
X41513Y134660D01*
X45527Y136323D01*
X49873Y136323D01*
X53887Y134660D01*
X56960Y131587D01*
X58376Y128167D01*
X58377Y128166D01*
X58378Y128165D01*
X58448Y128046D01*
X58521Y127923D01*
X58522Y127922D01*
X58523Y127920D01*
X58627Y127823D01*
X58728Y127727D01*
X58729Y127727D01*
X58730Y127726D01*
X58856Y127661D01*
X58980Y127597D01*
X58982Y127597D01*
X58983Y127596D01*
X58998Y127594D01*
X59259Y127542D01*
X59290Y127545D01*
X59314Y127541D01*
X78527Y127541D01*
X78614Y127553D01*
X78701Y127556D01*
X78754Y127573D01*
X78809Y127581D01*
X78888Y127616D01*
X78972Y127643D01*
X79011Y127671D01*
X79068Y127697D01*
X79181Y127793D01*
X79245Y127838D01*
X81848Y130441D01*
X93551Y130441D01*
X93553Y130441D01*
X93555Y130441D01*
X93695Y130461D01*
X93833Y130481D01*
X93834Y130481D01*
X93836Y130481D01*
X93962Y130538D01*
X94092Y130597D01*
X94094Y130598D01*
X94095Y130599D01*
X94202Y130690D01*
X94309Y130780D01*
X94310Y130782D01*
X94311Y130783D01*
X94320Y130796D01*
X94467Y131017D01*
X94476Y131046D01*
X94489Y131067D01*
X95740Y134087D01*
X98813Y137160D01*
X102827Y138823D01*
X107173Y138823D01*
X111187Y137160D01*
X114260Y134087D01*
X115923Y130073D01*
X115923Y125727D01*
X114260Y121713D01*
X111187Y118640D01*
X107173Y116977D01*
X102827Y116977D01*
X98813Y118640D01*
X95740Y121713D01*
X94489Y124733D01*
X94489Y124734D01*
X94488Y124735D01*
X94417Y124856D01*
X94345Y124977D01*
X94344Y124978D01*
X94343Y124980D01*
X94239Y125077D01*
X94138Y125173D01*
X94137Y125173D01*
X94136Y125174D01*
X94010Y125239D01*
X93885Y125303D01*
X93884Y125303D01*
X93882Y125304D01*
X93868Y125306D01*
X93606Y125358D01*
X93576Y125355D01*
X93551Y125359D01*
X84373Y125359D01*
X84286Y125347D01*
X84199Y125344D01*
X84146Y125327D01*
X84091Y125319D01*
X84012Y125284D01*
X83928Y125257D01*
X83889Y125229D01*
X83832Y125203D01*
X83719Y125107D01*
X83655Y125062D01*
X81052Y122459D01*
X58983Y122459D01*
X58981Y122459D01*
X58980Y122459D01*
X58840Y122439D01*
X58701Y122419D01*
X58700Y122419D01*
X58698Y122419D01*
X58573Y122362D01*
X58442Y122303D01*
X58441Y122302D01*
X58439Y122301D01*
X58329Y122208D01*
X58225Y122120D01*
X58224Y122118D01*
X58223Y122117D01*
X58215Y122104D01*
X58067Y121883D01*
X58058Y121854D01*
X58045Y121833D01*
X56960Y119213D01*
X53887Y116140D01*
X49873Y114477D01*
X45527Y114477D01*
G37*
%LPD*%
%LPC*%
G36*
X430127Y114477D02*
X430127Y114477D01*
X426113Y116140D01*
X423040Y119213D01*
X421955Y121833D01*
X421954Y121834D01*
X421954Y121835D01*
X421882Y121956D01*
X421811Y122077D01*
X421809Y122078D01*
X421809Y122080D01*
X421705Y122177D01*
X421604Y122273D01*
X421602Y122273D01*
X421601Y122274D01*
X421476Y122339D01*
X421351Y122403D01*
X421350Y122403D01*
X421348Y122404D01*
X421333Y122406D01*
X421072Y122458D01*
X421042Y122455D01*
X421017Y122459D01*
X398948Y122459D01*
X397162Y124245D01*
X396345Y125062D01*
X396275Y125114D01*
X396211Y125174D01*
X396162Y125200D01*
X396118Y125233D01*
X396036Y125264D01*
X395958Y125304D01*
X395911Y125312D01*
X395852Y125334D01*
X395704Y125346D01*
X395627Y125359D01*
X386449Y125359D01*
X386447Y125359D01*
X386445Y125359D01*
X386305Y125339D01*
X386167Y125319D01*
X386166Y125319D01*
X386164Y125319D01*
X386037Y125261D01*
X385908Y125203D01*
X385906Y125202D01*
X385905Y125201D01*
X385798Y125110D01*
X385691Y125020D01*
X385690Y125018D01*
X385689Y125017D01*
X385680Y125004D01*
X385533Y124783D01*
X385524Y124754D01*
X385511Y124733D01*
X384260Y121713D01*
X381187Y118640D01*
X377173Y116977D01*
X372827Y116977D01*
X368813Y118640D01*
X365740Y121713D01*
X364077Y125727D01*
X364077Y130073D01*
X365740Y134087D01*
X368813Y137160D01*
X372827Y138823D01*
X377173Y138823D01*
X381187Y137160D01*
X384260Y134087D01*
X385511Y131067D01*
X385511Y131066D01*
X385512Y131065D01*
X385583Y130944D01*
X385655Y130823D01*
X385656Y130822D01*
X385657Y130820D01*
X385761Y130723D01*
X385862Y130627D01*
X385863Y130627D01*
X385864Y130626D01*
X385991Y130561D01*
X386115Y130497D01*
X386116Y130497D01*
X386118Y130496D01*
X386132Y130494D01*
X386394Y130442D01*
X386424Y130445D01*
X386449Y130441D01*
X398152Y130441D01*
X399938Y128655D01*
X400755Y127838D01*
X400825Y127786D01*
X400889Y127726D01*
X400938Y127700D01*
X400982Y127667D01*
X401064Y127636D01*
X401142Y127596D01*
X401189Y127588D01*
X401248Y127566D01*
X401396Y127554D01*
X401473Y127541D01*
X420686Y127541D01*
X420687Y127541D01*
X420689Y127541D01*
X420829Y127561D01*
X420967Y127581D01*
X420969Y127581D01*
X420970Y127581D01*
X421096Y127638D01*
X421227Y127697D01*
X421228Y127698D01*
X421229Y127699D01*
X421336Y127790D01*
X421444Y127880D01*
X421444Y127882D01*
X421446Y127883D01*
X421454Y127896D01*
X421601Y128117D01*
X421610Y128146D01*
X421624Y128167D01*
X423040Y131587D01*
X426113Y134660D01*
X430127Y136323D01*
X434473Y136323D01*
X438487Y134660D01*
X441560Y131587D01*
X443223Y127573D01*
X443223Y123227D01*
X441560Y119213D01*
X438487Y116140D01*
X434473Y114477D01*
X430127Y114477D01*
G37*
%LPD*%
%LPC*%
G36*
X45527Y89077D02*
X45527Y89077D01*
X41513Y90740D01*
X38440Y93813D01*
X36777Y97827D01*
X36777Y102173D01*
X38440Y106187D01*
X41513Y109260D01*
X45527Y110923D01*
X49873Y110923D01*
X53887Y109260D01*
X56960Y106187D01*
X58211Y103167D01*
X58211Y103166D01*
X58212Y103165D01*
X58283Y103044D01*
X58355Y102923D01*
X58356Y102922D01*
X58357Y102920D01*
X58461Y102823D01*
X58562Y102727D01*
X58563Y102727D01*
X58564Y102726D01*
X58690Y102661D01*
X58815Y102597D01*
X58816Y102597D01*
X58818Y102596D01*
X58832Y102594D01*
X59094Y102542D01*
X59124Y102545D01*
X59149Y102541D01*
X78527Y102541D01*
X78614Y102553D01*
X78701Y102556D01*
X78754Y102573D01*
X78809Y102581D01*
X78888Y102616D01*
X78972Y102643D01*
X79011Y102671D01*
X79068Y102697D01*
X79181Y102793D01*
X79245Y102838D01*
X81448Y105041D01*
X93551Y105041D01*
X93553Y105041D01*
X93555Y105041D01*
X93695Y105061D01*
X93833Y105081D01*
X93834Y105081D01*
X93836Y105081D01*
X93962Y105138D01*
X94092Y105197D01*
X94094Y105198D01*
X94095Y105199D01*
X94202Y105290D01*
X94309Y105380D01*
X94310Y105382D01*
X94311Y105383D01*
X94320Y105396D01*
X94467Y105617D01*
X94476Y105646D01*
X94489Y105667D01*
X95740Y108687D01*
X98813Y111760D01*
X102827Y113423D01*
X107173Y113423D01*
X111187Y111760D01*
X114260Y108687D01*
X115923Y104673D01*
X115923Y100327D01*
X114260Y96313D01*
X111187Y93240D01*
X107173Y91577D01*
X102827Y91577D01*
X98813Y93240D01*
X95740Y96313D01*
X94489Y99333D01*
X94489Y99334D01*
X94488Y99335D01*
X94417Y99456D01*
X94345Y99577D01*
X94344Y99578D01*
X94343Y99580D01*
X94239Y99677D01*
X94138Y99773D01*
X94137Y99773D01*
X94136Y99774D01*
X94010Y99839D01*
X93885Y99903D01*
X93884Y99903D01*
X93882Y99904D01*
X93868Y99906D01*
X93606Y99958D01*
X93576Y99955D01*
X93551Y99959D01*
X83973Y99959D01*
X83886Y99947D01*
X83799Y99944D01*
X83746Y99927D01*
X83691Y99919D01*
X83612Y99884D01*
X83528Y99857D01*
X83489Y99829D01*
X83432Y99803D01*
X83319Y99707D01*
X83255Y99662D01*
X81052Y97459D01*
X59149Y97459D01*
X59147Y97459D01*
X59145Y97459D01*
X59005Y97439D01*
X58867Y97419D01*
X58866Y97419D01*
X58864Y97419D01*
X58738Y97362D01*
X58608Y97303D01*
X58606Y97302D01*
X58605Y97301D01*
X58498Y97210D01*
X58391Y97120D01*
X58390Y97118D01*
X58389Y97117D01*
X58380Y97104D01*
X58233Y96883D01*
X58224Y96854D01*
X58211Y96833D01*
X56960Y93813D01*
X53887Y90740D01*
X49873Y89077D01*
X45527Y89077D01*
G37*
%LPD*%
%LPC*%
G36*
X430127Y89077D02*
X430127Y89077D01*
X426113Y90740D01*
X423040Y93813D01*
X421789Y96833D01*
X421789Y96834D01*
X421788Y96835D01*
X421717Y96956D01*
X421645Y97077D01*
X421644Y97078D01*
X421643Y97080D01*
X421539Y97177D01*
X421438Y97273D01*
X421437Y97273D01*
X421436Y97274D01*
X421310Y97339D01*
X421185Y97403D01*
X421184Y97403D01*
X421182Y97404D01*
X421168Y97406D01*
X420906Y97458D01*
X420876Y97455D01*
X420851Y97459D01*
X398948Y97459D01*
X396745Y99662D01*
X396675Y99714D01*
X396611Y99774D01*
X396562Y99800D01*
X396518Y99833D01*
X396436Y99864D01*
X396358Y99904D01*
X396311Y99912D01*
X396252Y99934D01*
X396104Y99946D01*
X396027Y99959D01*
X386449Y99959D01*
X386447Y99959D01*
X386445Y99959D01*
X386305Y99939D01*
X386167Y99919D01*
X386166Y99919D01*
X386164Y99919D01*
X386038Y99862D01*
X385908Y99803D01*
X385906Y99802D01*
X385905Y99801D01*
X385798Y99710D01*
X385691Y99620D01*
X385690Y99618D01*
X385689Y99617D01*
X385680Y99604D01*
X385533Y99383D01*
X385524Y99354D01*
X385511Y99333D01*
X384260Y96313D01*
X381187Y93240D01*
X377173Y91577D01*
X372827Y91577D01*
X368813Y93240D01*
X365740Y96313D01*
X364077Y100327D01*
X364077Y104673D01*
X365740Y108687D01*
X368813Y111760D01*
X372827Y113423D01*
X377173Y113423D01*
X381187Y111760D01*
X384260Y108687D01*
X385511Y105667D01*
X385511Y105666D01*
X385512Y105665D01*
X385583Y105544D01*
X385655Y105423D01*
X385656Y105422D01*
X385657Y105420D01*
X385761Y105323D01*
X385862Y105227D01*
X385863Y105227D01*
X385864Y105226D01*
X385990Y105161D01*
X386115Y105097D01*
X386116Y105097D01*
X386118Y105096D01*
X386132Y105094D01*
X386394Y105042D01*
X386424Y105045D01*
X386449Y105041D01*
X398552Y105041D01*
X400755Y102838D01*
X400825Y102786D01*
X400889Y102726D01*
X400938Y102700D01*
X400982Y102667D01*
X401064Y102636D01*
X401142Y102596D01*
X401189Y102588D01*
X401248Y102566D01*
X401396Y102554D01*
X401473Y102541D01*
X420851Y102541D01*
X420853Y102541D01*
X420855Y102541D01*
X420995Y102561D01*
X421133Y102581D01*
X421134Y102581D01*
X421136Y102581D01*
X421262Y102638D01*
X421392Y102697D01*
X421394Y102698D01*
X421395Y102699D01*
X421502Y102790D01*
X421609Y102880D01*
X421610Y102882D01*
X421611Y102883D01*
X421620Y102896D01*
X421767Y103117D01*
X421776Y103146D01*
X421789Y103167D01*
X423040Y106187D01*
X426113Y109260D01*
X430127Y110923D01*
X434473Y110923D01*
X438487Y109260D01*
X441560Y106187D01*
X443223Y102173D01*
X443223Y97827D01*
X441560Y93813D01*
X438487Y90740D01*
X434473Y89077D01*
X430127Y89077D01*
G37*
%LPD*%
%LPC*%
G36*
X430127Y38277D02*
X430127Y38277D01*
X426113Y39940D01*
X423040Y43013D01*
X421789Y46033D01*
X421789Y46034D01*
X421788Y46035D01*
X421717Y46156D01*
X421645Y46277D01*
X421644Y46278D01*
X421643Y46280D01*
X421539Y46377D01*
X421438Y46473D01*
X421437Y46473D01*
X421436Y46474D01*
X421310Y46539D01*
X421185Y46603D01*
X421184Y46603D01*
X421182Y46604D01*
X421168Y46606D01*
X420906Y46658D01*
X420876Y46655D01*
X420851Y46659D01*
X399748Y46659D01*
X397545Y48862D01*
X397475Y48914D01*
X397411Y48974D01*
X397362Y49000D01*
X397318Y49033D01*
X397236Y49064D01*
X397158Y49104D01*
X397111Y49112D01*
X397052Y49134D01*
X396904Y49146D01*
X396827Y49159D01*
X386449Y49159D01*
X386447Y49159D01*
X386445Y49159D01*
X386305Y49139D01*
X386167Y49119D01*
X386166Y49119D01*
X386164Y49119D01*
X386038Y49062D01*
X385908Y49003D01*
X385906Y49002D01*
X385905Y49001D01*
X385798Y48910D01*
X385691Y48820D01*
X385690Y48818D01*
X385689Y48817D01*
X385680Y48804D01*
X385533Y48583D01*
X385524Y48554D01*
X385511Y48533D01*
X384260Y45513D01*
X381187Y42440D01*
X377173Y40777D01*
X372827Y40777D01*
X368813Y42440D01*
X365740Y45513D01*
X364077Y49527D01*
X364077Y53873D01*
X365740Y57887D01*
X368813Y60960D01*
X372827Y62623D01*
X377173Y62623D01*
X381187Y60960D01*
X384260Y57887D01*
X385511Y54867D01*
X385511Y54866D01*
X385512Y54865D01*
X385583Y54744D01*
X385655Y54623D01*
X385656Y54622D01*
X385657Y54620D01*
X385761Y54523D01*
X385862Y54427D01*
X385863Y54427D01*
X385864Y54426D01*
X385990Y54361D01*
X386115Y54297D01*
X386116Y54297D01*
X386118Y54296D01*
X386132Y54294D01*
X386394Y54242D01*
X386424Y54245D01*
X386449Y54241D01*
X399352Y54241D01*
X401555Y52038D01*
X401625Y51986D01*
X401689Y51926D01*
X401738Y51900D01*
X401782Y51867D01*
X401864Y51836D01*
X401942Y51796D01*
X401989Y51788D01*
X402048Y51766D01*
X402196Y51754D01*
X402273Y51741D01*
X420851Y51741D01*
X420853Y51741D01*
X420855Y51741D01*
X420995Y51761D01*
X421133Y51781D01*
X421134Y51781D01*
X421136Y51781D01*
X421262Y51838D01*
X421392Y51897D01*
X421394Y51898D01*
X421395Y51899D01*
X421502Y51990D01*
X421609Y52080D01*
X421610Y52082D01*
X421611Y52083D01*
X421620Y52096D01*
X421767Y52317D01*
X421776Y52346D01*
X421789Y52367D01*
X423040Y55387D01*
X426113Y58460D01*
X430127Y60123D01*
X434473Y60123D01*
X438487Y58460D01*
X441560Y55387D01*
X443223Y51373D01*
X443223Y47027D01*
X441560Y43013D01*
X438487Y39940D01*
X434473Y38277D01*
X430127Y38277D01*
G37*
%LPD*%
%LPC*%
G36*
X45527Y63677D02*
X45527Y63677D01*
X41513Y65340D01*
X38440Y68413D01*
X36777Y72427D01*
X36777Y76773D01*
X38440Y80787D01*
X41513Y83860D01*
X45527Y85523D01*
X49873Y85523D01*
X53887Y83860D01*
X56960Y80787D01*
X58045Y78167D01*
X58046Y78166D01*
X58046Y78165D01*
X58118Y78044D01*
X58189Y77923D01*
X58191Y77922D01*
X58191Y77920D01*
X58295Y77823D01*
X58396Y77727D01*
X58398Y77727D01*
X58399Y77726D01*
X58524Y77661D01*
X58649Y77597D01*
X58650Y77597D01*
X58652Y77596D01*
X58667Y77594D01*
X58928Y77542D01*
X58958Y77545D01*
X58983Y77541D01*
X78527Y77541D01*
X78614Y77553D01*
X78701Y77556D01*
X78754Y77573D01*
X78809Y77581D01*
X78888Y77616D01*
X78972Y77643D01*
X79011Y77671D01*
X79068Y77697D01*
X79181Y77793D01*
X79245Y77838D01*
X81048Y79641D01*
X93551Y79641D01*
X93553Y79641D01*
X93555Y79641D01*
X93695Y79661D01*
X93833Y79681D01*
X93834Y79681D01*
X93836Y79681D01*
X93962Y79738D01*
X94092Y79797D01*
X94094Y79798D01*
X94095Y79799D01*
X94202Y79890D01*
X94309Y79980D01*
X94310Y79982D01*
X94311Y79983D01*
X94320Y79996D01*
X94467Y80217D01*
X94476Y80246D01*
X94489Y80267D01*
X95740Y83287D01*
X98813Y86360D01*
X102827Y88023D01*
X107173Y88023D01*
X111187Y86360D01*
X114260Y83287D01*
X115923Y79273D01*
X115923Y74927D01*
X114260Y70913D01*
X111187Y67840D01*
X107173Y66177D01*
X102827Y66177D01*
X98813Y67840D01*
X95740Y70913D01*
X94489Y73933D01*
X94489Y73934D01*
X94488Y73935D01*
X94417Y74056D01*
X94345Y74177D01*
X94344Y74178D01*
X94343Y74180D01*
X94239Y74277D01*
X94138Y74373D01*
X94137Y74373D01*
X94136Y74374D01*
X94010Y74439D01*
X93885Y74503D01*
X93884Y74503D01*
X93882Y74504D01*
X93868Y74506D01*
X93606Y74558D01*
X93576Y74555D01*
X93551Y74559D01*
X83573Y74559D01*
X83486Y74547D01*
X83399Y74544D01*
X83346Y74527D01*
X83291Y74519D01*
X83212Y74484D01*
X83128Y74457D01*
X83089Y74429D01*
X83032Y74403D01*
X82919Y74307D01*
X82855Y74262D01*
X81052Y72459D01*
X59314Y72459D01*
X59313Y72459D01*
X59311Y72459D01*
X59171Y72439D01*
X59033Y72419D01*
X59031Y72419D01*
X59030Y72419D01*
X58904Y72362D01*
X58773Y72303D01*
X58772Y72302D01*
X58771Y72301D01*
X58664Y72210D01*
X58556Y72120D01*
X58556Y72118D01*
X58554Y72117D01*
X58546Y72104D01*
X58399Y71883D01*
X58390Y71854D01*
X58376Y71833D01*
X56960Y68413D01*
X53887Y65340D01*
X49873Y63677D01*
X45527Y63677D01*
G37*
%LPD*%
%LPC*%
G36*
X45527Y38277D02*
X45527Y38277D01*
X41513Y39940D01*
X38440Y43013D01*
X36777Y47027D01*
X36777Y51373D01*
X38440Y55387D01*
X41513Y58460D01*
X45527Y60123D01*
X49873Y60123D01*
X53887Y58460D01*
X56960Y55387D01*
X57879Y53167D01*
X57880Y53167D01*
X57880Y53166D01*
X57881Y53165D01*
X57952Y53044D01*
X58024Y52923D01*
X58025Y52922D01*
X58026Y52920D01*
X58130Y52823D01*
X58230Y52727D01*
X58232Y52727D01*
X58233Y52726D01*
X58359Y52661D01*
X58483Y52597D01*
X58485Y52597D01*
X58486Y52596D01*
X58501Y52594D01*
X58762Y52542D01*
X58793Y52545D01*
X58817Y52541D01*
X78527Y52541D01*
X78614Y52553D01*
X78701Y52556D01*
X78754Y52573D01*
X78809Y52581D01*
X78888Y52616D01*
X78972Y52643D01*
X79011Y52671D01*
X79068Y52697D01*
X79181Y52793D01*
X79245Y52838D01*
X80648Y54241D01*
X93551Y54241D01*
X93553Y54241D01*
X93555Y54241D01*
X93695Y54261D01*
X93833Y54281D01*
X93834Y54281D01*
X93836Y54281D01*
X93962Y54338D01*
X94092Y54397D01*
X94094Y54398D01*
X94095Y54399D01*
X94202Y54490D01*
X94309Y54580D01*
X94310Y54582D01*
X94311Y54583D01*
X94320Y54596D01*
X94467Y54817D01*
X94476Y54846D01*
X94489Y54867D01*
X95740Y57887D01*
X98813Y60960D01*
X102827Y62623D01*
X107173Y62623D01*
X111187Y60960D01*
X114260Y57887D01*
X115923Y53873D01*
X115923Y49527D01*
X114260Y45513D01*
X111187Y42440D01*
X107173Y40777D01*
X102827Y40777D01*
X98813Y42440D01*
X95740Y45513D01*
X94489Y48533D01*
X94489Y48534D01*
X94488Y48535D01*
X94417Y48656D01*
X94345Y48777D01*
X94344Y48778D01*
X94343Y48780D01*
X94239Y48877D01*
X94138Y48973D01*
X94137Y48973D01*
X94136Y48974D01*
X94010Y49039D01*
X93885Y49103D01*
X93884Y49103D01*
X93882Y49104D01*
X93868Y49106D01*
X93606Y49158D01*
X93576Y49155D01*
X93551Y49159D01*
X83173Y49159D01*
X83086Y49147D01*
X82999Y49144D01*
X82946Y49127D01*
X82891Y49119D01*
X82812Y49084D01*
X82728Y49057D01*
X82689Y49029D01*
X82632Y49003D01*
X82519Y48907D01*
X82455Y48862D01*
X81052Y47459D01*
X59480Y47459D01*
X59478Y47459D01*
X59477Y47459D01*
X59337Y47439D01*
X59199Y47419D01*
X59197Y47419D01*
X59196Y47419D01*
X59070Y47362D01*
X58939Y47303D01*
X58938Y47302D01*
X58936Y47301D01*
X58829Y47210D01*
X58722Y47120D01*
X58721Y47118D01*
X58720Y47117D01*
X58712Y47104D01*
X58565Y46883D01*
X58555Y46854D01*
X58542Y46833D01*
X56960Y43013D01*
X53887Y39940D01*
X49873Y38277D01*
X45527Y38277D01*
G37*
%LPD*%
%LPC*%
G36*
X430127Y63677D02*
X430127Y63677D01*
X426113Y65340D01*
X423040Y68413D01*
X421624Y71833D01*
X421623Y71834D01*
X421622Y71835D01*
X421552Y71954D01*
X421479Y72077D01*
X421478Y72078D01*
X421477Y72080D01*
X421373Y72177D01*
X421272Y72273D01*
X421271Y72273D01*
X421270Y72274D01*
X421144Y72339D01*
X421020Y72403D01*
X421018Y72403D01*
X421017Y72404D01*
X421002Y72406D01*
X420741Y72458D01*
X420710Y72455D01*
X420686Y72459D01*
X385579Y72459D01*
X385577Y72459D01*
X385576Y72459D01*
X385436Y72439D01*
X385297Y72419D01*
X385296Y72419D01*
X385294Y72419D01*
X385168Y72362D01*
X385038Y72303D01*
X385037Y72302D01*
X385035Y72301D01*
X384928Y72210D01*
X384821Y72120D01*
X384820Y72118D01*
X384819Y72117D01*
X384811Y72104D01*
X384663Y71883D01*
X384654Y71854D01*
X384641Y71833D01*
X384260Y70913D01*
X381187Y67840D01*
X377173Y66177D01*
X372827Y66177D01*
X368813Y67840D01*
X365740Y70913D01*
X364077Y74927D01*
X364077Y79273D01*
X365740Y83287D01*
X368813Y86360D01*
X372827Y88023D01*
X377173Y88023D01*
X381187Y86360D01*
X384260Y83287D01*
X385923Y79273D01*
X385923Y78556D01*
X385931Y78498D01*
X385929Y78440D01*
X385951Y78358D01*
X385963Y78274D01*
X385986Y78221D01*
X386001Y78165D01*
X386044Y78092D01*
X386079Y78015D01*
X386117Y77970D01*
X386146Y77920D01*
X386208Y77862D01*
X386262Y77798D01*
X386311Y77766D01*
X386354Y77726D01*
X386429Y77687D01*
X386499Y77640D01*
X386555Y77623D01*
X386607Y77596D01*
X386675Y77585D01*
X386770Y77555D01*
X386870Y77552D01*
X386938Y77541D01*
X421017Y77541D01*
X421019Y77541D01*
X421020Y77541D01*
X421160Y77561D01*
X421299Y77581D01*
X421300Y77581D01*
X421302Y77581D01*
X421427Y77638D01*
X421558Y77697D01*
X421559Y77698D01*
X421561Y77699D01*
X421668Y77790D01*
X421775Y77880D01*
X421776Y77882D01*
X421777Y77883D01*
X421785Y77896D01*
X421933Y78117D01*
X421942Y78146D01*
X421955Y78167D01*
X423040Y80787D01*
X426113Y83860D01*
X430127Y85523D01*
X434473Y85523D01*
X438487Y83860D01*
X441560Y80787D01*
X443223Y76773D01*
X443223Y72427D01*
X441560Y68413D01*
X438487Y65340D01*
X434473Y63677D01*
X430127Y63677D01*
G37*
%LPD*%
%LPC*%
G36*
X212916Y27868D02*
X212916Y27868D01*
X209064Y29464D01*
X206117Y32411D01*
X204522Y36262D01*
X204522Y58338D01*
X206117Y62189D01*
X209064Y65136D01*
X212916Y66732D01*
X217084Y66732D01*
X220936Y65136D01*
X223883Y62189D01*
X225478Y58338D01*
X225478Y36262D01*
X223883Y32411D01*
X220936Y29464D01*
X217084Y27868D01*
X212916Y27868D01*
G37*
%LPD*%
%LPC*%
G36*
X322827Y40777D02*
X322827Y40777D01*
X318813Y42440D01*
X315740Y45513D01*
X314077Y49527D01*
X314077Y53873D01*
X315740Y57887D01*
X318813Y60960D01*
X322827Y62623D01*
X327173Y62623D01*
X331187Y60960D01*
X334260Y57887D01*
X335923Y53873D01*
X335923Y49527D01*
X334260Y45513D01*
X331187Y42440D01*
X327173Y40777D01*
X322827Y40777D01*
G37*
%LPD*%
%LPC*%
G36*
X322827Y66177D02*
X322827Y66177D01*
X318813Y67840D01*
X315740Y70913D01*
X314077Y74927D01*
X314077Y79273D01*
X315740Y83287D01*
X318813Y86360D01*
X322827Y88023D01*
X327173Y88023D01*
X331187Y86360D01*
X334260Y83287D01*
X335923Y79273D01*
X335923Y74927D01*
X334260Y70913D01*
X331187Y67840D01*
X327173Y66177D01*
X322827Y66177D01*
G37*
%LPD*%
%LPC*%
G36*
X152827Y40777D02*
X152827Y40777D01*
X148813Y42440D01*
X145740Y45513D01*
X144077Y49527D01*
X144077Y53873D01*
X145740Y57887D01*
X148813Y60960D01*
X152827Y62623D01*
X157173Y62623D01*
X161187Y60960D01*
X164260Y57887D01*
X165923Y53873D01*
X165923Y49527D01*
X164260Y45513D01*
X161187Y42440D01*
X157173Y40777D01*
X152827Y40777D01*
G37*
%LPD*%
%LPC*%
G36*
X152827Y91577D02*
X152827Y91577D01*
X148813Y93240D01*
X145740Y96313D01*
X144077Y100327D01*
X144077Y104673D01*
X145740Y108687D01*
X148813Y111760D01*
X152827Y113423D01*
X157173Y113423D01*
X161187Y111760D01*
X164260Y108687D01*
X165923Y104673D01*
X165923Y100327D01*
X164260Y96313D01*
X161187Y93240D01*
X157173Y91577D01*
X152827Y91577D01*
G37*
%LPD*%
%LPC*%
G36*
X322827Y142377D02*
X322827Y142377D01*
X318813Y144040D01*
X315740Y147113D01*
X314077Y151127D01*
X314077Y155473D01*
X315740Y159487D01*
X318813Y162560D01*
X322827Y164223D01*
X327173Y164223D01*
X331187Y162560D01*
X334260Y159487D01*
X335923Y155473D01*
X335923Y151127D01*
X334260Y147113D01*
X331187Y144040D01*
X327173Y142377D01*
X322827Y142377D01*
G37*
%LPD*%
%LPC*%
G36*
X322827Y91577D02*
X322827Y91577D01*
X318813Y93240D01*
X315740Y96313D01*
X314077Y100327D01*
X314077Y104673D01*
X315740Y108687D01*
X318813Y111760D01*
X322827Y113423D01*
X327173Y113423D01*
X331187Y111760D01*
X334260Y108687D01*
X335923Y104673D01*
X335923Y100327D01*
X334260Y96313D01*
X331187Y93240D01*
X327173Y91577D01*
X322827Y91577D01*
G37*
%LPD*%
%LPC*%
G36*
X152827Y142377D02*
X152827Y142377D01*
X148813Y144040D01*
X145740Y147113D01*
X144077Y151127D01*
X144077Y155473D01*
X145740Y159487D01*
X148813Y162560D01*
X152827Y164223D01*
X157173Y164223D01*
X161187Y162560D01*
X164260Y159487D01*
X165923Y155473D01*
X165923Y151127D01*
X164260Y147113D01*
X161187Y144040D01*
X157173Y142377D01*
X152827Y142377D01*
G37*
%LPD*%
%LPC*%
G36*
X322827Y116977D02*
X322827Y116977D01*
X318813Y118640D01*
X315740Y121713D01*
X314077Y125727D01*
X314077Y130073D01*
X315740Y134087D01*
X318813Y137160D01*
X322827Y138823D01*
X327173Y138823D01*
X331187Y137160D01*
X334260Y134087D01*
X335923Y130073D01*
X335923Y125727D01*
X334260Y121713D01*
X331187Y118640D01*
X327173Y116977D01*
X322827Y116977D01*
G37*
%LPD*%
%LPC*%
G36*
X152827Y116977D02*
X152827Y116977D01*
X148813Y118640D01*
X145740Y121713D01*
X144077Y125727D01*
X144077Y130073D01*
X145740Y134087D01*
X148813Y137160D01*
X152827Y138823D01*
X157173Y138823D01*
X161187Y137160D01*
X164260Y134087D01*
X165923Y130073D01*
X165923Y125727D01*
X164260Y121713D01*
X161187Y118640D01*
X157173Y116977D01*
X152827Y116977D01*
G37*
%LPD*%
%LPC*%
G36*
X152827Y66177D02*
X152827Y66177D01*
X148813Y67840D01*
X145740Y70913D01*
X144077Y74927D01*
X144077Y79273D01*
X145740Y83287D01*
X148813Y86360D01*
X152827Y88023D01*
X157173Y88023D01*
X161187Y86360D01*
X164260Y83287D01*
X165923Y79273D01*
X165923Y74927D01*
X164260Y70913D01*
X161187Y67840D01*
X157173Y66177D01*
X152827Y66177D01*
G37*
%LPD*%
%LPC*%
G36*
X267031Y49331D02*
X267031Y49331D01*
X267031Y67569D01*
X267692Y67465D01*
X269412Y66906D01*
X271024Y66084D01*
X272488Y65021D01*
X273767Y63742D01*
X274831Y62278D01*
X275652Y60666D01*
X276211Y58945D01*
X276494Y57158D01*
X276494Y49331D01*
X267031Y49331D01*
G37*
%LPD*%
%LPC*%
G36*
X267031Y45269D02*
X267031Y45269D01*
X276494Y45269D01*
X276494Y37442D01*
X276211Y35655D01*
X275652Y33934D01*
X274831Y32322D01*
X273767Y30858D01*
X272488Y29579D01*
X271024Y28516D01*
X269412Y27694D01*
X267692Y27135D01*
X267031Y27031D01*
X267031Y45269D01*
G37*
%LPD*%
%LPC*%
G36*
X253506Y49331D02*
X253506Y49331D01*
X253506Y57158D01*
X253789Y58945D01*
X254348Y60666D01*
X255169Y62278D01*
X256233Y63742D01*
X257512Y65021D01*
X258976Y66084D01*
X260588Y66906D01*
X262308Y67465D01*
X262969Y67569D01*
X262969Y49331D01*
X253506Y49331D01*
G37*
%LPD*%
%LPC*%
G36*
X262308Y27135D02*
X262308Y27135D01*
X260588Y27694D01*
X258976Y28516D01*
X257512Y29579D01*
X256233Y30858D01*
X255169Y32322D01*
X254348Y33934D01*
X253789Y35655D01*
X253506Y37442D01*
X253506Y45269D01*
X262969Y45269D01*
X262969Y27031D01*
X262308Y27135D01*
G37*
%LPD*%
%LPC*%
G36*
X459731Y127431D02*
X459731Y127431D01*
X459731Y137287D01*
X459744Y137278D01*
X459846Y137204D01*
X459861Y137199D01*
X459876Y137189D01*
X460146Y137100D01*
X460155Y137100D01*
X460164Y137097D01*
X460496Y137045D01*
X462283Y136464D01*
X463957Y135611D01*
X465478Y134506D01*
X466806Y133178D01*
X467911Y131657D01*
X468764Y129983D01*
X469345Y128196D01*
X469466Y127431D01*
X459731Y127431D01*
G37*
%LPD*%
%LPC*%
G36*
X132031Y53731D02*
X132031Y53731D01*
X132031Y63587D01*
X132044Y63578D01*
X132146Y63504D01*
X132161Y63499D01*
X132176Y63488D01*
X132446Y63400D01*
X132455Y63400D01*
X132464Y63397D01*
X132796Y63345D01*
X134583Y62764D01*
X136257Y61911D01*
X137778Y60806D01*
X139106Y59478D01*
X140211Y57957D01*
X141064Y56283D01*
X141645Y54496D01*
X141766Y53731D01*
X132031Y53731D01*
G37*
%LPD*%
%LPC*%
G36*
X24331Y76631D02*
X24331Y76631D01*
X24331Y86487D01*
X24344Y86478D01*
X24446Y86404D01*
X24461Y86399D01*
X24476Y86388D01*
X24746Y86300D01*
X24755Y86300D01*
X24764Y86297D01*
X25096Y86245D01*
X26883Y85664D01*
X28557Y84811D01*
X30078Y83706D01*
X31406Y82378D01*
X32511Y80857D01*
X33364Y79183D01*
X33945Y77396D01*
X34066Y76631D01*
X24331Y76631D01*
G37*
%LPD*%
%LPC*%
G36*
X132031Y79131D02*
X132031Y79131D01*
X132031Y88987D01*
X132044Y88978D01*
X132146Y88904D01*
X132161Y88899D01*
X132176Y88888D01*
X132446Y88800D01*
X132455Y88800D01*
X132464Y88797D01*
X132796Y88745D01*
X134583Y88164D01*
X136257Y87311D01*
X137778Y86206D01*
X139106Y84878D01*
X140211Y83357D01*
X141064Y81683D01*
X141645Y79896D01*
X141766Y79131D01*
X132031Y79131D01*
G37*
%LPD*%
%LPC*%
G36*
X132031Y104531D02*
X132031Y104531D01*
X132031Y114387D01*
X132045Y114378D01*
X132146Y114304D01*
X132161Y114299D01*
X132176Y114288D01*
X132446Y114200D01*
X132455Y114200D01*
X132464Y114197D01*
X132796Y114145D01*
X134583Y113564D01*
X136257Y112711D01*
X137778Y111606D01*
X139106Y110278D01*
X140211Y108757D01*
X141064Y107083D01*
X141645Y105296D01*
X141766Y104531D01*
X132031Y104531D01*
G37*
%LPD*%
%LPC*%
G36*
X24331Y102031D02*
X24331Y102031D01*
X24331Y111887D01*
X24345Y111878D01*
X24446Y111804D01*
X24461Y111799D01*
X24476Y111788D01*
X24746Y111700D01*
X24755Y111700D01*
X24764Y111697D01*
X25096Y111645D01*
X26883Y111064D01*
X28557Y110211D01*
X30078Y109106D01*
X31406Y107778D01*
X32511Y106257D01*
X33364Y104583D01*
X33945Y102796D01*
X34066Y102031D01*
X24331Y102031D01*
G37*
%LPD*%
%LPC*%
G36*
X132031Y129931D02*
X132031Y129931D01*
X132031Y139787D01*
X132045Y139778D01*
X132146Y139704D01*
X132161Y139699D01*
X132176Y139688D01*
X132446Y139600D01*
X132455Y139600D01*
X132464Y139597D01*
X132796Y139545D01*
X134583Y138964D01*
X136257Y138111D01*
X137778Y137006D01*
X139106Y135678D01*
X140211Y134157D01*
X141064Y132483D01*
X141645Y130696D01*
X141766Y129931D01*
X132031Y129931D01*
G37*
%LPD*%
%LPC*%
G36*
X24331Y127431D02*
X24331Y127431D01*
X24331Y137287D01*
X24345Y137278D01*
X24446Y137204D01*
X24461Y137199D01*
X24476Y137188D01*
X24746Y137100D01*
X24755Y137100D01*
X24764Y137097D01*
X25096Y137045D01*
X26883Y136464D01*
X28557Y135611D01*
X30078Y134506D01*
X31406Y133178D01*
X32511Y131657D01*
X33364Y129983D01*
X33945Y128196D01*
X34066Y127431D01*
X24331Y127431D01*
G37*
%LPD*%
%LPC*%
G36*
X352031Y129931D02*
X352031Y129931D01*
X352031Y139787D01*
X352045Y139778D01*
X352146Y139704D01*
X352161Y139699D01*
X352176Y139688D01*
X352446Y139600D01*
X352455Y139600D01*
X352464Y139597D01*
X352796Y139545D01*
X354583Y138964D01*
X356257Y138111D01*
X357778Y137006D01*
X359106Y135678D01*
X360211Y134157D01*
X361064Y132483D01*
X361645Y130696D01*
X361766Y129931D01*
X352031Y129931D01*
G37*
%LPD*%
%LPC*%
G36*
X352031Y79131D02*
X352031Y79131D01*
X352031Y88987D01*
X352045Y88978D01*
X352146Y88904D01*
X352160Y88899D01*
X352176Y88889D01*
X352446Y88800D01*
X352455Y88800D01*
X352464Y88797D01*
X352796Y88745D01*
X354583Y88164D01*
X356257Y87311D01*
X357778Y86206D01*
X359106Y84878D01*
X360211Y83357D01*
X361064Y81683D01*
X361645Y79896D01*
X361766Y79131D01*
X352031Y79131D01*
G37*
%LPD*%
%LPC*%
G36*
X459731Y51231D02*
X459731Y51231D01*
X459731Y61087D01*
X459745Y61078D01*
X459846Y61004D01*
X459860Y60999D01*
X459876Y60989D01*
X460146Y60900D01*
X460155Y60900D01*
X460164Y60897D01*
X460496Y60845D01*
X462283Y60264D01*
X463957Y59411D01*
X465478Y58306D01*
X466806Y56978D01*
X467911Y55457D01*
X468764Y53783D01*
X469345Y51996D01*
X469466Y51231D01*
X459731Y51231D01*
G37*
%LPD*%
%LPC*%
G36*
X24331Y51231D02*
X24331Y51231D01*
X24331Y61087D01*
X24345Y61078D01*
X24446Y61004D01*
X24460Y60999D01*
X24476Y60989D01*
X24746Y60900D01*
X24755Y60900D01*
X24764Y60897D01*
X25096Y60845D01*
X26883Y60264D01*
X28557Y59411D01*
X30078Y58306D01*
X31406Y56978D01*
X32511Y55457D01*
X33364Y53783D01*
X33945Y51996D01*
X34066Y51231D01*
X24331Y51231D01*
G37*
%LPD*%
%LPC*%
G36*
X352031Y53731D02*
X352031Y53731D01*
X352031Y63587D01*
X352045Y63578D01*
X352146Y63504D01*
X352160Y63499D01*
X352176Y63489D01*
X352446Y63400D01*
X352455Y63400D01*
X352464Y63397D01*
X352796Y63345D01*
X354583Y62764D01*
X356257Y61911D01*
X357778Y60806D01*
X359106Y59478D01*
X360211Y57957D01*
X361064Y56283D01*
X361645Y54496D01*
X361766Y53731D01*
X352031Y53731D01*
G37*
%LPD*%
%LPC*%
G36*
X459731Y102031D02*
X459731Y102031D01*
X459731Y111887D01*
X459745Y111878D01*
X459846Y111804D01*
X459860Y111799D01*
X459876Y111789D01*
X460146Y111700D01*
X460155Y111700D01*
X460164Y111697D01*
X460496Y111645D01*
X462283Y111064D01*
X463957Y110211D01*
X465478Y109106D01*
X466806Y107778D01*
X467911Y106257D01*
X468764Y104583D01*
X469345Y102796D01*
X469466Y102031D01*
X459731Y102031D01*
G37*
%LPD*%
%LPC*%
G36*
X352031Y104531D02*
X352031Y104531D01*
X352031Y114387D01*
X352045Y114378D01*
X352146Y114304D01*
X352160Y114299D01*
X352176Y114289D01*
X352446Y114200D01*
X352455Y114200D01*
X352464Y114197D01*
X352796Y114145D01*
X354583Y113564D01*
X356257Y112711D01*
X357778Y111606D01*
X359106Y110278D01*
X360211Y108757D01*
X361064Y107083D01*
X361645Y105296D01*
X361766Y104531D01*
X352031Y104531D01*
G37*
%LPD*%
%LPC*%
G36*
X459731Y76631D02*
X459731Y76631D01*
X459731Y86487D01*
X459745Y86478D01*
X459846Y86404D01*
X459860Y86399D01*
X459876Y86389D01*
X460146Y86300D01*
X460155Y86300D01*
X460164Y86297D01*
X460496Y86245D01*
X462283Y85664D01*
X463957Y84811D01*
X465478Y83706D01*
X466806Y82378D01*
X467911Y80857D01*
X468764Y79183D01*
X469345Y77396D01*
X469466Y76631D01*
X459731Y76631D01*
G37*
%LPD*%
%LPC*%
G36*
X118234Y79131D02*
X118234Y79131D01*
X118355Y79896D01*
X118936Y81683D01*
X119789Y83357D01*
X120894Y84878D01*
X122222Y86206D01*
X123743Y87311D01*
X125417Y88164D01*
X127204Y88745D01*
X127536Y88797D01*
X127656Y88834D01*
X127777Y88867D01*
X127791Y88876D01*
X127808Y88881D01*
X127913Y88949D01*
X127969Y88983D01*
X127969Y79131D01*
X118234Y79131D01*
G37*
%LPD*%
%LPC*%
G36*
X10534Y76631D02*
X10534Y76631D01*
X10655Y77396D01*
X11236Y79183D01*
X12089Y80857D01*
X13194Y82378D01*
X14522Y83706D01*
X16043Y84811D01*
X17717Y85664D01*
X19504Y86245D01*
X19836Y86297D01*
X19956Y86334D01*
X20077Y86367D01*
X20091Y86376D01*
X20108Y86381D01*
X20213Y86449D01*
X20269Y86483D01*
X20269Y76631D01*
X10534Y76631D01*
G37*
%LPD*%
%LPC*%
G36*
X445934Y127431D02*
X445934Y127431D01*
X446055Y128196D01*
X446636Y129983D01*
X447489Y131657D01*
X448594Y133178D01*
X449922Y134506D01*
X451443Y135611D01*
X453117Y136464D01*
X454904Y137045D01*
X455236Y137097D01*
X455356Y137134D01*
X455477Y137167D01*
X455491Y137176D01*
X455508Y137181D01*
X455612Y137249D01*
X455669Y137283D01*
X455669Y127431D01*
X445934Y127431D01*
G37*
%LPD*%
%LPC*%
G36*
X118234Y104531D02*
X118234Y104531D01*
X118355Y105296D01*
X118936Y107083D01*
X119789Y108757D01*
X120894Y110278D01*
X122222Y111606D01*
X123743Y112711D01*
X125417Y113564D01*
X127204Y114145D01*
X127536Y114197D01*
X127656Y114234D01*
X127777Y114267D01*
X127791Y114276D01*
X127808Y114281D01*
X127913Y114349D01*
X127969Y114383D01*
X127969Y104531D01*
X118234Y104531D01*
G37*
%LPD*%
%LPC*%
G36*
X118234Y129931D02*
X118234Y129931D01*
X118355Y130696D01*
X118936Y132483D01*
X119789Y134157D01*
X120894Y135678D01*
X122222Y137006D01*
X123743Y138111D01*
X125417Y138964D01*
X127204Y139545D01*
X127536Y139597D01*
X127656Y139634D01*
X127777Y139667D01*
X127791Y139676D01*
X127808Y139681D01*
X127913Y139749D01*
X127969Y139783D01*
X127969Y129931D01*
X118234Y129931D01*
G37*
%LPD*%
%LPC*%
G36*
X338234Y129931D02*
X338234Y129931D01*
X338355Y130696D01*
X338936Y132483D01*
X339789Y134157D01*
X340894Y135678D01*
X342222Y137006D01*
X343743Y138111D01*
X345417Y138964D01*
X347204Y139545D01*
X347536Y139597D01*
X347656Y139634D01*
X347777Y139667D01*
X347791Y139676D01*
X347808Y139681D01*
X347913Y139749D01*
X347969Y139783D01*
X347969Y129931D01*
X338234Y129931D01*
G37*
%LPD*%
%LPC*%
G36*
X10534Y127431D02*
X10534Y127431D01*
X10655Y128196D01*
X11236Y129983D01*
X12089Y131657D01*
X13194Y133178D01*
X14522Y134506D01*
X16043Y135611D01*
X17717Y136464D01*
X19504Y137045D01*
X19836Y137097D01*
X19956Y137134D01*
X20077Y137167D01*
X20091Y137176D01*
X20108Y137181D01*
X20213Y137249D01*
X20269Y137283D01*
X20269Y127431D01*
X10534Y127431D01*
G37*
%LPD*%
%LPC*%
G36*
X10534Y102031D02*
X10534Y102031D01*
X10655Y102796D01*
X11236Y104583D01*
X12089Y106257D01*
X13194Y107778D01*
X14522Y109106D01*
X16043Y110211D01*
X17717Y111064D01*
X19504Y111645D01*
X19836Y111697D01*
X19956Y111734D01*
X20077Y111767D01*
X20091Y111776D01*
X20108Y111781D01*
X20213Y111849D01*
X20269Y111883D01*
X20269Y102031D01*
X10534Y102031D01*
G37*
%LPD*%
%LPC*%
G36*
X118234Y53731D02*
X118234Y53731D01*
X118355Y54496D01*
X118936Y56283D01*
X119789Y57957D01*
X120894Y59478D01*
X122222Y60806D01*
X123743Y61911D01*
X125417Y62764D01*
X127204Y63345D01*
X127536Y63397D01*
X127656Y63434D01*
X127777Y63467D01*
X127791Y63476D01*
X127808Y63481D01*
X127913Y63549D01*
X127969Y63583D01*
X127969Y53731D01*
X118234Y53731D01*
G37*
%LPD*%
%LPC*%
G36*
X338234Y53731D02*
X338234Y53731D01*
X338355Y54496D01*
X338936Y56283D01*
X339789Y57957D01*
X340894Y59478D01*
X342222Y60806D01*
X343743Y61911D01*
X345417Y62764D01*
X347204Y63345D01*
X347536Y63397D01*
X347656Y63434D01*
X347777Y63467D01*
X347791Y63476D01*
X347808Y63481D01*
X347913Y63549D01*
X347969Y63583D01*
X347969Y53731D01*
X338234Y53731D01*
G37*
%LPD*%
%LPC*%
G36*
X445934Y51231D02*
X445934Y51231D01*
X446055Y51996D01*
X446636Y53783D01*
X447489Y55457D01*
X448594Y56978D01*
X449922Y58306D01*
X451443Y59411D01*
X453117Y60264D01*
X454904Y60845D01*
X455236Y60897D01*
X455356Y60934D01*
X455477Y60967D01*
X455491Y60976D01*
X455508Y60981D01*
X455613Y61049D01*
X455669Y61083D01*
X455669Y51231D01*
X445934Y51231D01*
G37*
%LPD*%
%LPC*%
G36*
X10534Y51231D02*
X10534Y51231D01*
X10655Y51996D01*
X11236Y53783D01*
X12089Y55457D01*
X13194Y56978D01*
X14522Y58306D01*
X16043Y59411D01*
X17717Y60264D01*
X19504Y60845D01*
X19836Y60897D01*
X19956Y60934D01*
X20077Y60967D01*
X20091Y60976D01*
X20108Y60981D01*
X20213Y61049D01*
X20269Y61083D01*
X20269Y51231D01*
X10534Y51231D01*
G37*
%LPD*%
%LPC*%
G36*
X338234Y79131D02*
X338234Y79131D01*
X338355Y79896D01*
X338936Y81683D01*
X339789Y83357D01*
X340894Y84878D01*
X342222Y86206D01*
X343743Y87311D01*
X345417Y88164D01*
X347204Y88745D01*
X347536Y88797D01*
X347656Y88834D01*
X347777Y88867D01*
X347791Y88876D01*
X347808Y88881D01*
X347913Y88949D01*
X347969Y88983D01*
X347969Y79131D01*
X338234Y79131D01*
G37*
%LPD*%
%LPC*%
G36*
X445934Y76631D02*
X445934Y76631D01*
X446055Y77396D01*
X446636Y79183D01*
X447489Y80857D01*
X448594Y82378D01*
X449922Y83706D01*
X451443Y84811D01*
X453117Y85664D01*
X454904Y86245D01*
X455236Y86297D01*
X455356Y86334D01*
X455477Y86367D01*
X455491Y86376D01*
X455508Y86381D01*
X455613Y86449D01*
X455669Y86483D01*
X455669Y76631D01*
X445934Y76631D01*
G37*
%LPD*%
%LPC*%
G36*
X338234Y104531D02*
X338234Y104531D01*
X338355Y105296D01*
X338936Y107083D01*
X339789Y108757D01*
X340894Y110278D01*
X342222Y111606D01*
X343743Y112711D01*
X345417Y113564D01*
X347204Y114145D01*
X347536Y114197D01*
X347656Y114234D01*
X347777Y114267D01*
X347791Y114276D01*
X347808Y114281D01*
X347913Y114350D01*
X347969Y114383D01*
X347969Y104531D01*
X338234Y104531D01*
G37*
%LPD*%
%LPC*%
G36*
X445934Y102031D02*
X445934Y102031D01*
X446055Y102796D01*
X446636Y104583D01*
X447489Y106257D01*
X448594Y107778D01*
X449922Y109106D01*
X451443Y110211D01*
X453117Y111064D01*
X454904Y111645D01*
X455236Y111697D01*
X455356Y111734D01*
X455477Y111767D01*
X455491Y111776D01*
X455508Y111781D01*
X455613Y111850D01*
X455669Y111883D01*
X455669Y102031D01*
X445934Y102031D01*
G37*
%LPD*%
%LPC*%
G36*
X459731Y148769D02*
X459731Y148769D01*
X469466Y148769D01*
X469345Y148004D01*
X468764Y146217D01*
X467911Y144543D01*
X466806Y143022D01*
X465478Y141694D01*
X463957Y140589D01*
X462283Y139736D01*
X460496Y139155D01*
X460164Y139103D01*
X460045Y139066D01*
X459923Y139033D01*
X459909Y139024D01*
X459893Y139019D01*
X459787Y138951D01*
X459731Y138917D01*
X459731Y148769D01*
G37*
%LPD*%
%LPC*%
G36*
X352031Y125869D02*
X352031Y125869D01*
X361766Y125869D01*
X361645Y125104D01*
X361064Y123317D01*
X360211Y121643D01*
X359106Y120122D01*
X357778Y118794D01*
X356257Y117689D01*
X354583Y116836D01*
X352796Y116255D01*
X352464Y116203D01*
X352344Y116166D01*
X352223Y116133D01*
X352209Y116124D01*
X352192Y116119D01*
X352087Y116051D01*
X352031Y116017D01*
X352031Y125869D01*
G37*
%LPD*%
%LPC*%
G36*
X459731Y123369D02*
X459731Y123369D01*
X469466Y123369D01*
X469345Y122604D01*
X468764Y120817D01*
X467911Y119143D01*
X466806Y117622D01*
X465478Y116294D01*
X463957Y115189D01*
X462283Y114336D01*
X460496Y113755D01*
X460164Y113703D01*
X460044Y113666D01*
X459923Y113633D01*
X459909Y113624D01*
X459892Y113619D01*
X459787Y113551D01*
X459731Y113517D01*
X459731Y123369D01*
G37*
%LPD*%
%LPC*%
G36*
X459731Y97969D02*
X459731Y97969D01*
X469466Y97969D01*
X469345Y97204D01*
X468764Y95417D01*
X467911Y93743D01*
X466806Y92222D01*
X465478Y90894D01*
X463957Y89789D01*
X462283Y88936D01*
X460496Y88355D01*
X460164Y88303D01*
X460044Y88266D01*
X459923Y88233D01*
X459909Y88224D01*
X459892Y88219D01*
X459787Y88151D01*
X459731Y88117D01*
X459731Y97969D01*
G37*
%LPD*%
%LPC*%
G36*
X24331Y72569D02*
X24331Y72569D01*
X34066Y72569D01*
X33945Y71804D01*
X33364Y70017D01*
X32511Y68343D01*
X31406Y66822D01*
X30078Y65494D01*
X28557Y64389D01*
X26883Y63536D01*
X25096Y62955D01*
X24764Y62903D01*
X24644Y62866D01*
X24523Y62833D01*
X24509Y62824D01*
X24492Y62819D01*
X24387Y62751D01*
X24331Y62717D01*
X24331Y72569D01*
G37*
%LPD*%
%LPC*%
G36*
X459731Y72569D02*
X459731Y72569D01*
X469466Y72569D01*
X469345Y71804D01*
X468764Y70017D01*
X467911Y68343D01*
X466806Y66822D01*
X465478Y65494D01*
X463957Y64389D01*
X462283Y63536D01*
X460496Y62955D01*
X460164Y62903D01*
X460044Y62866D01*
X459923Y62833D01*
X459909Y62824D01*
X459892Y62819D01*
X459787Y62751D01*
X459731Y62717D01*
X459731Y72569D01*
G37*
%LPD*%
%LPC*%
G36*
X352031Y75069D02*
X352031Y75069D01*
X361766Y75069D01*
X361645Y74304D01*
X361064Y72517D01*
X360211Y70843D01*
X359106Y69322D01*
X357778Y67994D01*
X356257Y66889D01*
X354583Y66036D01*
X352796Y65455D01*
X352464Y65403D01*
X352344Y65366D01*
X352223Y65333D01*
X352209Y65324D01*
X352192Y65319D01*
X352087Y65251D01*
X352031Y65217D01*
X352031Y75069D01*
G37*
%LPD*%
%LPC*%
G36*
X352031Y100469D02*
X352031Y100469D01*
X361766Y100469D01*
X361645Y99704D01*
X361064Y97917D01*
X360211Y96243D01*
X359106Y94722D01*
X357778Y93394D01*
X356257Y92289D01*
X354583Y91436D01*
X352796Y90855D01*
X352464Y90803D01*
X352344Y90766D01*
X352223Y90733D01*
X352209Y90724D01*
X352192Y90719D01*
X352087Y90651D01*
X352031Y90617D01*
X352031Y100469D01*
G37*
%LPD*%
%LPC*%
G36*
X352031Y151269D02*
X352031Y151269D01*
X361766Y151269D01*
X361645Y150504D01*
X361064Y148717D01*
X360211Y147043D01*
X359106Y145522D01*
X357778Y144194D01*
X356257Y143089D01*
X354583Y142236D01*
X352796Y141655D01*
X352464Y141603D01*
X352344Y141566D01*
X352223Y141533D01*
X352209Y141524D01*
X352192Y141519D01*
X352087Y141451D01*
X352031Y141417D01*
X352031Y151269D01*
G37*
%LPD*%
%LPC*%
G36*
X132031Y125869D02*
X132031Y125869D01*
X141766Y125869D01*
X141645Y125104D01*
X141064Y123317D01*
X140211Y121643D01*
X139106Y120122D01*
X137778Y118794D01*
X136257Y117689D01*
X134583Y116836D01*
X132796Y116255D01*
X132464Y116203D01*
X132344Y116166D01*
X132223Y116133D01*
X132209Y116124D01*
X132192Y116119D01*
X132087Y116051D01*
X132031Y116017D01*
X132031Y125869D01*
G37*
%LPD*%
%LPC*%
G36*
X132031Y151269D02*
X132031Y151269D01*
X141766Y151269D01*
X141645Y150504D01*
X141064Y148717D01*
X140211Y147043D01*
X139106Y145522D01*
X137778Y144194D01*
X136257Y143089D01*
X134583Y142236D01*
X132796Y141655D01*
X132464Y141603D01*
X132344Y141566D01*
X132223Y141533D01*
X132209Y141524D01*
X132192Y141519D01*
X132087Y141451D01*
X132031Y141417D01*
X132031Y151269D01*
G37*
%LPD*%
%LPC*%
G36*
X24331Y123369D02*
X24331Y123369D01*
X34066Y123369D01*
X33945Y122604D01*
X33364Y120817D01*
X32511Y119143D01*
X31406Y117622D01*
X30078Y116294D01*
X28557Y115189D01*
X26883Y114336D01*
X25096Y113755D01*
X24764Y113703D01*
X24644Y113666D01*
X24523Y113633D01*
X24509Y113624D01*
X24492Y113619D01*
X24387Y113551D01*
X24331Y113517D01*
X24331Y123369D01*
G37*
%LPD*%
%LPC*%
G36*
X24331Y148769D02*
X24331Y148769D01*
X34066Y148769D01*
X33945Y148004D01*
X33364Y146217D01*
X32511Y144543D01*
X31406Y143022D01*
X30078Y141694D01*
X28557Y140589D01*
X26883Y139736D01*
X25096Y139155D01*
X24764Y139103D01*
X24644Y139066D01*
X24523Y139033D01*
X24509Y139024D01*
X24492Y139019D01*
X24387Y138951D01*
X24331Y138917D01*
X24331Y148769D01*
G37*
%LPD*%
%LPC*%
G36*
X132031Y75069D02*
X132031Y75069D01*
X141766Y75069D01*
X141645Y74304D01*
X141064Y72517D01*
X140211Y70843D01*
X139106Y69322D01*
X137778Y67994D01*
X136257Y66889D01*
X134583Y66036D01*
X132796Y65455D01*
X132464Y65403D01*
X132344Y65366D01*
X132223Y65333D01*
X132209Y65324D01*
X132192Y65319D01*
X132087Y65250D01*
X132031Y65217D01*
X132031Y75069D01*
G37*
%LPD*%
%LPC*%
G36*
X24331Y97969D02*
X24331Y97969D01*
X34066Y97969D01*
X33945Y97204D01*
X33364Y95417D01*
X32511Y93743D01*
X31406Y92222D01*
X30078Y90894D01*
X28557Y89789D01*
X26883Y88936D01*
X25096Y88355D01*
X24764Y88303D01*
X24644Y88266D01*
X24523Y88233D01*
X24509Y88224D01*
X24492Y88219D01*
X24387Y88150D01*
X24331Y88117D01*
X24331Y97969D01*
G37*
%LPD*%
%LPC*%
G36*
X132031Y100469D02*
X132031Y100469D01*
X141766Y100469D01*
X141645Y99704D01*
X141064Y97917D01*
X140211Y96243D01*
X139106Y94722D01*
X137778Y93394D01*
X136257Y92289D01*
X134583Y91436D01*
X132796Y90855D01*
X132464Y90803D01*
X132344Y90766D01*
X132223Y90733D01*
X132209Y90724D01*
X132192Y90719D01*
X132087Y90650D01*
X132031Y90617D01*
X132031Y100469D01*
G37*
%LPD*%
%LPC*%
G36*
X455655Y138922D02*
X455655Y138922D01*
X455554Y138996D01*
X455539Y139001D01*
X455524Y139012D01*
X455254Y139100D01*
X455244Y139100D01*
X455236Y139103D01*
X454904Y139155D01*
X453117Y139736D01*
X451443Y140589D01*
X449922Y141694D01*
X448594Y143022D01*
X447489Y144543D01*
X446636Y146217D01*
X446055Y148004D01*
X445934Y148769D01*
X455669Y148769D01*
X455669Y138913D01*
X455655Y138922D01*
G37*
%LPD*%
%LPC*%
G36*
X455656Y113522D02*
X455656Y113522D01*
X455554Y113596D01*
X455539Y113601D01*
X455524Y113612D01*
X455254Y113700D01*
X455245Y113700D01*
X455236Y113703D01*
X454904Y113755D01*
X453117Y114336D01*
X451443Y115189D01*
X449922Y116294D01*
X448594Y117622D01*
X447489Y119143D01*
X446636Y120817D01*
X446055Y122604D01*
X445934Y123369D01*
X455669Y123369D01*
X455669Y113513D01*
X455656Y113522D01*
G37*
%LPD*%
%LPC*%
G36*
X347956Y116022D02*
X347956Y116022D01*
X347854Y116096D01*
X347839Y116101D01*
X347824Y116112D01*
X347554Y116200D01*
X347545Y116200D01*
X347536Y116203D01*
X347204Y116255D01*
X345417Y116836D01*
X343743Y117689D01*
X342222Y118794D01*
X340894Y120122D01*
X339789Y121643D01*
X338936Y123317D01*
X338355Y125104D01*
X338234Y125869D01*
X347969Y125869D01*
X347969Y116013D01*
X347956Y116022D01*
G37*
%LPD*%
%LPC*%
G36*
X455656Y88122D02*
X455656Y88122D01*
X455554Y88196D01*
X455539Y88201D01*
X455524Y88212D01*
X455254Y88300D01*
X455245Y88300D01*
X455236Y88303D01*
X454904Y88355D01*
X453117Y88936D01*
X451443Y89789D01*
X449922Y90894D01*
X448594Y92222D01*
X447489Y93743D01*
X446636Y95417D01*
X446055Y97204D01*
X445934Y97969D01*
X455669Y97969D01*
X455669Y88113D01*
X455656Y88122D01*
G37*
%LPD*%
%LPC*%
G36*
X455655Y62722D02*
X455655Y62722D01*
X455554Y62796D01*
X455539Y62801D01*
X455524Y62812D01*
X455254Y62900D01*
X455245Y62900D01*
X455236Y62903D01*
X454904Y62955D01*
X453117Y63536D01*
X451443Y64389D01*
X449922Y65494D01*
X448594Y66822D01*
X447489Y68343D01*
X446636Y70017D01*
X446055Y71804D01*
X445934Y72569D01*
X455669Y72569D01*
X455669Y62713D01*
X455655Y62722D01*
G37*
%LPD*%
%LPC*%
G36*
X127955Y65222D02*
X127955Y65222D01*
X127854Y65296D01*
X127839Y65301D01*
X127824Y65312D01*
X127554Y65400D01*
X127545Y65400D01*
X127536Y65403D01*
X127204Y65455D01*
X125417Y66036D01*
X123743Y66889D01*
X122222Y67994D01*
X120894Y69322D01*
X119789Y70843D01*
X118936Y72517D01*
X118355Y74304D01*
X118234Y75069D01*
X127969Y75069D01*
X127969Y65213D01*
X127955Y65222D01*
G37*
%LPD*%
%LPC*%
G36*
X347955Y90622D02*
X347955Y90622D01*
X347854Y90696D01*
X347839Y90701D01*
X347824Y90712D01*
X347554Y90800D01*
X347545Y90800D01*
X347536Y90803D01*
X347204Y90855D01*
X345417Y91436D01*
X343743Y92289D01*
X342222Y93394D01*
X340894Y94722D01*
X339789Y96243D01*
X338936Y97917D01*
X338355Y99704D01*
X338234Y100469D01*
X347969Y100469D01*
X347969Y90613D01*
X347955Y90622D01*
G37*
%LPD*%
%LPC*%
G36*
X347955Y65222D02*
X347955Y65222D01*
X347854Y65296D01*
X347839Y65301D01*
X347824Y65312D01*
X347554Y65400D01*
X347545Y65400D01*
X347536Y65403D01*
X347204Y65455D01*
X345417Y66036D01*
X343743Y66889D01*
X342222Y67994D01*
X340894Y69322D01*
X339789Y70843D01*
X338936Y72517D01*
X338355Y74304D01*
X338234Y75069D01*
X347969Y75069D01*
X347969Y65213D01*
X347955Y65222D01*
G37*
%LPD*%
%LPC*%
G36*
X20255Y62722D02*
X20255Y62722D01*
X20154Y62796D01*
X20139Y62801D01*
X20124Y62812D01*
X19854Y62900D01*
X19845Y62900D01*
X19836Y62903D01*
X19504Y62955D01*
X17717Y63536D01*
X16043Y64389D01*
X14522Y65494D01*
X13194Y66822D01*
X12089Y68343D01*
X11236Y70017D01*
X10655Y71804D01*
X10534Y72569D01*
X20269Y72569D01*
X20269Y62713D01*
X20255Y62722D01*
G37*
%LPD*%
%LPC*%
G36*
X20255Y113522D02*
X20255Y113522D01*
X20154Y113596D01*
X20140Y113601D01*
X20124Y113611D01*
X19854Y113700D01*
X19845Y113700D01*
X19836Y113703D01*
X19504Y113755D01*
X17717Y114336D01*
X16043Y115189D01*
X14522Y116294D01*
X13194Y117622D01*
X12089Y119143D01*
X11236Y120817D01*
X10655Y122604D01*
X10534Y123369D01*
X20269Y123369D01*
X20269Y113513D01*
X20255Y113522D01*
G37*
%LPD*%
%LPC*%
G36*
X127955Y116022D02*
X127955Y116022D01*
X127854Y116096D01*
X127840Y116101D01*
X127824Y116111D01*
X127554Y116200D01*
X127545Y116200D01*
X127536Y116203D01*
X127204Y116255D01*
X125417Y116836D01*
X123743Y117689D01*
X122222Y118794D01*
X120894Y120122D01*
X119789Y121643D01*
X118936Y123317D01*
X118355Y125104D01*
X118234Y125869D01*
X127969Y125869D01*
X127969Y116013D01*
X127955Y116022D01*
G37*
%LPD*%
%LPC*%
G36*
X347955Y141422D02*
X347955Y141422D01*
X347854Y141496D01*
X347840Y141501D01*
X347824Y141511D01*
X347554Y141600D01*
X347545Y141600D01*
X347536Y141603D01*
X347204Y141655D01*
X345417Y142236D01*
X343743Y143089D01*
X342222Y144194D01*
X340894Y145522D01*
X339789Y147043D01*
X338936Y148717D01*
X338355Y150504D01*
X338234Y151269D01*
X347969Y151269D01*
X347969Y141413D01*
X347955Y141422D01*
G37*
%LPD*%
%LPC*%
G36*
X127955Y141422D02*
X127955Y141422D01*
X127854Y141496D01*
X127840Y141501D01*
X127824Y141511D01*
X127554Y141600D01*
X127545Y141600D01*
X127536Y141603D01*
X127204Y141655D01*
X125417Y142236D01*
X123743Y143089D01*
X122222Y144194D01*
X120894Y145522D01*
X119789Y147043D01*
X118936Y148717D01*
X118355Y150504D01*
X118234Y151269D01*
X127969Y151269D01*
X127969Y141413D01*
X127955Y141422D01*
G37*
%LPD*%
%LPC*%
G36*
X20255Y138922D02*
X20255Y138922D01*
X20154Y138996D01*
X20140Y139001D01*
X20124Y139011D01*
X19854Y139100D01*
X19845Y139100D01*
X19836Y139103D01*
X19504Y139155D01*
X17717Y139736D01*
X16043Y140589D01*
X14522Y141694D01*
X13194Y143022D01*
X12089Y144543D01*
X11236Y146217D01*
X10655Y148004D01*
X10534Y148769D01*
X20269Y148769D01*
X20269Y138913D01*
X20255Y138922D01*
G37*
%LPD*%
%LPC*%
G36*
X127955Y90622D02*
X127955Y90622D01*
X127854Y90696D01*
X127840Y90701D01*
X127824Y90711D01*
X127554Y90800D01*
X127545Y90800D01*
X127536Y90803D01*
X127204Y90855D01*
X125417Y91436D01*
X123743Y92289D01*
X122222Y93394D01*
X120894Y94722D01*
X119789Y96243D01*
X118936Y97917D01*
X118355Y99704D01*
X118234Y100469D01*
X127969Y100469D01*
X127969Y90613D01*
X127955Y90622D01*
G37*
%LPD*%
%LPC*%
G36*
X20255Y88122D02*
X20255Y88122D01*
X20154Y88196D01*
X20140Y88201D01*
X20124Y88211D01*
X19854Y88300D01*
X19845Y88300D01*
X19836Y88303D01*
X19504Y88355D01*
X17717Y88936D01*
X16043Y89789D01*
X14522Y90894D01*
X13194Y92222D01*
X12089Y93743D01*
X11236Y95417D01*
X10655Y97204D01*
X10534Y97969D01*
X20269Y97969D01*
X20269Y88113D01*
X20255Y88122D01*
G37*
%LPD*%
%LPC*%
G36*
X24331Y152831D02*
X24331Y152831D01*
X24331Y162566D01*
X25096Y162445D01*
X26883Y161864D01*
X28557Y161011D01*
X30078Y159906D01*
X31406Y158578D01*
X32511Y157057D01*
X33364Y155383D01*
X33945Y153596D01*
X34066Y152831D01*
X24331Y152831D01*
G37*
%LPD*%
%LPC*%
G36*
X459731Y152831D02*
X459731Y152831D01*
X459731Y162566D01*
X460496Y162445D01*
X462283Y161864D01*
X463957Y161011D01*
X465478Y159906D01*
X466806Y158578D01*
X467911Y157057D01*
X468764Y155383D01*
X469345Y153596D01*
X469466Y152831D01*
X459731Y152831D01*
G37*
%LPD*%
%LPC*%
G36*
X132031Y155331D02*
X132031Y155331D01*
X132031Y165066D01*
X132796Y164945D01*
X134583Y164364D01*
X136257Y163511D01*
X137778Y162406D01*
X139106Y161078D01*
X140211Y159557D01*
X141064Y157883D01*
X141645Y156096D01*
X141766Y155331D01*
X132031Y155331D01*
G37*
%LPD*%
%LPC*%
G36*
X352031Y155331D02*
X352031Y155331D01*
X352031Y165066D01*
X352796Y164945D01*
X354583Y164364D01*
X356257Y163511D01*
X357778Y162406D01*
X359106Y161078D01*
X360211Y159557D01*
X361064Y157883D01*
X361645Y156096D01*
X361766Y155331D01*
X352031Y155331D01*
G37*
%LPD*%
%LPC*%
G36*
X10534Y152831D02*
X10534Y152831D01*
X10655Y153596D01*
X11236Y155383D01*
X12089Y157057D01*
X13194Y158578D01*
X14522Y159906D01*
X16043Y161011D01*
X17717Y161864D01*
X19504Y162445D01*
X20269Y162566D01*
X20269Y152831D01*
X10534Y152831D01*
G37*
%LPD*%
%LPC*%
G36*
X118234Y155331D02*
X118234Y155331D01*
X118355Y156096D01*
X118936Y157883D01*
X119789Y159557D01*
X120894Y161078D01*
X122222Y162406D01*
X123743Y163511D01*
X125417Y164364D01*
X127204Y164945D01*
X127969Y165066D01*
X127969Y155331D01*
X118234Y155331D01*
G37*
%LPD*%
%LPC*%
G36*
X338234Y155331D02*
X338234Y155331D01*
X338355Y156096D01*
X338936Y157883D01*
X339789Y159557D01*
X340894Y161078D01*
X342222Y162406D01*
X343743Y163511D01*
X345417Y164364D01*
X347204Y164945D01*
X347969Y165066D01*
X347969Y155331D01*
X338234Y155331D01*
G37*
%LPD*%
%LPC*%
G36*
X445934Y152831D02*
X445934Y152831D01*
X446055Y153596D01*
X446636Y155383D01*
X447489Y157057D01*
X448594Y158578D01*
X449922Y159906D01*
X451443Y161011D01*
X453117Y161864D01*
X454904Y162445D01*
X455669Y162566D01*
X455669Y152831D01*
X445934Y152831D01*
G37*
%LPD*%
%LPC*%
G36*
X352031Y49669D02*
X352031Y49669D01*
X361766Y49669D01*
X361645Y48904D01*
X361064Y47117D01*
X360211Y45443D01*
X359106Y43922D01*
X357778Y42594D01*
X356257Y41489D01*
X354583Y40636D01*
X352796Y40055D01*
X352031Y39934D01*
X352031Y49669D01*
G37*
%LPD*%
%LPC*%
G36*
X132031Y49669D02*
X132031Y49669D01*
X141766Y49669D01*
X141645Y48904D01*
X141064Y47117D01*
X140211Y45443D01*
X139106Y43922D01*
X137778Y42594D01*
X136257Y41489D01*
X134583Y40636D01*
X132796Y40055D01*
X132031Y39934D01*
X132031Y49669D01*
G37*
%LPD*%
%LPC*%
G36*
X459731Y47169D02*
X459731Y47169D01*
X469466Y47169D01*
X469345Y46404D01*
X468764Y44617D01*
X467911Y42943D01*
X466806Y41422D01*
X465478Y40094D01*
X463957Y38989D01*
X462283Y38136D01*
X460496Y37555D01*
X459731Y37434D01*
X459731Y47169D01*
G37*
%LPD*%
%LPC*%
G36*
X24331Y47169D02*
X24331Y47169D01*
X34066Y47169D01*
X33945Y46404D01*
X33364Y44617D01*
X32511Y42943D01*
X31406Y41422D01*
X30078Y40094D01*
X28557Y38989D01*
X26883Y38136D01*
X25096Y37555D01*
X24331Y37434D01*
X24331Y47169D01*
G37*
%LPD*%
%LPC*%
G36*
X347204Y40055D02*
X347204Y40055D01*
X345417Y40636D01*
X343743Y41489D01*
X342222Y42594D01*
X340894Y43922D01*
X339789Y45443D01*
X338936Y47117D01*
X338355Y48904D01*
X338234Y49669D01*
X347969Y49669D01*
X347969Y39934D01*
X347204Y40055D01*
G37*
%LPD*%
%LPC*%
G36*
X454904Y37555D02*
X454904Y37555D01*
X453117Y38136D01*
X451443Y38989D01*
X449922Y40094D01*
X448594Y41422D01*
X447489Y42943D01*
X446636Y44617D01*
X446055Y46404D01*
X445934Y47169D01*
X455669Y47169D01*
X455669Y37434D01*
X454904Y37555D01*
G37*
%LPD*%
%LPC*%
G36*
X19504Y37555D02*
X19504Y37555D01*
X17717Y38136D01*
X16043Y38989D01*
X14522Y40094D01*
X13194Y41422D01*
X12089Y42943D01*
X11236Y44617D01*
X10655Y46404D01*
X10534Y47169D01*
X20269Y47169D01*
X20269Y37434D01*
X19504Y37555D01*
G37*
%LPD*%
%LPC*%
G36*
X127204Y40055D02*
X127204Y40055D01*
X125417Y40636D01*
X123743Y41489D01*
X122222Y42594D01*
X120894Y43922D01*
X119789Y45443D01*
X118936Y47117D01*
X118355Y48904D01*
X118234Y49669D01*
X127969Y49669D01*
X127969Y39934D01*
X127204Y40055D01*
G37*
%LPD*%
%LPC*%
G36*
X457699Y99999D02*
X457699Y99999D01*
X457699Y100001D01*
X457701Y100001D01*
X457701Y99999D01*
X457699Y99999D01*
G37*
%LPD*%
%LPC*%
G36*
X129999Y102499D02*
X129999Y102499D01*
X129999Y102501D01*
X130001Y102501D01*
X130001Y102499D01*
X129999Y102499D01*
G37*
%LPD*%
%LPC*%
G36*
X349999Y102499D02*
X349999Y102499D01*
X349999Y102501D01*
X350001Y102501D01*
X350001Y102499D01*
X349999Y102499D01*
G37*
%LPD*%
%LPC*%
G36*
X22299Y150799D02*
X22299Y150799D01*
X22299Y150801D01*
X22301Y150801D01*
X22301Y150799D01*
X22299Y150799D01*
G37*
%LPD*%
%LPC*%
G36*
X457699Y125399D02*
X457699Y125399D01*
X457699Y125401D01*
X457701Y125401D01*
X457701Y125399D01*
X457699Y125399D01*
G37*
%LPD*%
%LPC*%
G36*
X22299Y99999D02*
X22299Y99999D01*
X22299Y100001D01*
X22301Y100001D01*
X22301Y99999D01*
X22299Y99999D01*
G37*
%LPD*%
%LPC*%
G36*
X349999Y51699D02*
X349999Y51699D01*
X349999Y51701D01*
X350001Y51701D01*
X350001Y51699D01*
X349999Y51699D01*
G37*
%LPD*%
%LPC*%
G36*
X129999Y51699D02*
X129999Y51699D01*
X129999Y51701D01*
X130001Y51701D01*
X130001Y51699D01*
X129999Y51699D01*
G37*
%LPD*%
%LPC*%
G36*
X22299Y125399D02*
X22299Y125399D01*
X22299Y125401D01*
X22301Y125401D01*
X22301Y125399D01*
X22299Y125399D01*
G37*
%LPD*%
%LPC*%
G36*
X349999Y77099D02*
X349999Y77099D01*
X349999Y77101D01*
X350001Y77101D01*
X350001Y77099D01*
X349999Y77099D01*
G37*
%LPD*%
%LPC*%
G36*
X349999Y127899D02*
X349999Y127899D01*
X349999Y127901D01*
X350001Y127901D01*
X350001Y127899D01*
X349999Y127899D01*
G37*
%LPD*%
%LPC*%
G36*
X22299Y74599D02*
X22299Y74599D01*
X22299Y74601D01*
X22301Y74601D01*
X22301Y74599D01*
X22299Y74599D01*
G37*
%LPD*%
%LPC*%
G36*
X457699Y49199D02*
X457699Y49199D01*
X457699Y49201D01*
X457701Y49201D01*
X457701Y49199D01*
X457699Y49199D01*
G37*
%LPD*%
%LPC*%
G36*
X22299Y49199D02*
X22299Y49199D01*
X22299Y49201D01*
X22301Y49201D01*
X22301Y49199D01*
X22299Y49199D01*
G37*
%LPD*%
%LPC*%
G36*
X264999Y47299D02*
X264999Y47299D01*
X264999Y47301D01*
X265001Y47301D01*
X265001Y47299D01*
X264999Y47299D01*
G37*
%LPD*%
%LPC*%
G36*
X129999Y127899D02*
X129999Y127899D01*
X129999Y127901D01*
X130001Y127901D01*
X130001Y127899D01*
X129999Y127899D01*
G37*
%LPD*%
%LPC*%
G36*
X129999Y77099D02*
X129999Y77099D01*
X129999Y77101D01*
X130001Y77101D01*
X130001Y77099D01*
X129999Y77099D01*
G37*
%LPD*%
%LPC*%
G36*
X129999Y153299D02*
X129999Y153299D01*
X129999Y153301D01*
X130001Y153301D01*
X130001Y153299D01*
X129999Y153299D01*
G37*
%LPD*%
%LPC*%
G36*
X457699Y74599D02*
X457699Y74599D01*
X457699Y74601D01*
X457701Y74601D01*
X457701Y74599D01*
X457699Y74599D01*
G37*
%LPD*%
%LPC*%
G36*
X457699Y150799D02*
X457699Y150799D01*
X457699Y150801D01*
X457701Y150801D01*
X457701Y150799D01*
X457699Y150799D01*
G37*
%LPD*%
%LPC*%
G36*
X349999Y153299D02*
X349999Y153299D01*
X349999Y153301D01*
X350001Y153301D01*
X350001Y153299D01*
X349999Y153299D01*
G37*
%LPD*%
D10*
X155000Y51700D03*
X155000Y77100D03*
X155000Y102500D03*
X155000Y127900D03*
X155000Y153300D03*
X130000Y51700D03*
X130000Y77100D03*
X130000Y102500D03*
X130000Y127900D03*
X130000Y153300D03*
X105000Y51700D03*
X105000Y77100D03*
X105000Y102500D03*
X105000Y127900D03*
X105000Y153300D03*
X325000Y153300D03*
X325000Y127900D03*
X325000Y102500D03*
X325000Y77100D03*
X325000Y51700D03*
X350000Y153300D03*
X350000Y127900D03*
X350000Y102500D03*
X350000Y77100D03*
X350000Y51700D03*
X375000Y153300D03*
X375000Y127900D03*
X375000Y102500D03*
X375000Y77100D03*
X375000Y51700D03*
D11*
X215000Y56254D02*
X215000Y38347D01*
X265000Y38347D02*
X265000Y56254D01*
D10*
X47700Y49200D03*
X22300Y49200D03*
X47700Y74600D03*
X22300Y74600D03*
X47700Y100000D03*
X22300Y100000D03*
X47700Y125400D03*
X22300Y125400D03*
X47700Y150800D03*
X22300Y150800D03*
X432300Y150800D03*
X457700Y150800D03*
X432300Y125400D03*
X457700Y125400D03*
X432300Y100000D03*
X457700Y100000D03*
X432300Y74600D03*
X457700Y74600D03*
X432300Y49200D03*
X457700Y49200D03*
D12*
X48500Y50000D02*
X47700Y49200D01*
X81700Y51700D02*
X105000Y51700D01*
X81700Y51700D02*
X80000Y50000D01*
X48500Y50000D01*
X47700Y74600D02*
X48500Y75400D01*
X82100Y77100D02*
X105000Y77100D01*
X82100Y77100D02*
X80000Y75000D01*
X48900Y75000D01*
X48500Y75400D01*
X47700Y100000D02*
X48500Y100800D01*
X82500Y102500D02*
X105000Y102500D01*
X82500Y102500D02*
X80000Y100000D01*
X47700Y100000D01*
X47700Y125400D02*
X48500Y126200D01*
X82900Y127900D02*
X105000Y127900D01*
X82900Y127900D02*
X80000Y125000D01*
X49700Y125000D01*
X48500Y126200D01*
X99200Y150800D02*
X105000Y153300D01*
X83300Y153300D01*
X80000Y150000D01*
X48500Y150000D01*
X47700Y150800D01*
X375000Y153300D02*
X396700Y153300D01*
X400000Y150000D01*
X431500Y150000D01*
X432300Y150800D01*
X397100Y127900D02*
X375000Y127900D01*
X397100Y127900D02*
X400000Y125000D01*
X431900Y125000D01*
X432300Y125400D01*
X397500Y102500D02*
X375000Y102500D01*
X397500Y102500D02*
X400000Y100000D01*
X432300Y100000D01*
X377100Y75000D02*
X375000Y77100D01*
X431900Y75000D02*
X432300Y74600D01*
X431900Y75000D02*
X377100Y75000D01*
X375000Y51700D02*
X398300Y51700D01*
X400800Y49200D02*
X432300Y49200D01*
X400800Y49200D02*
X398300Y51700D01*
M02*
