G04 EAGLE Gerber X2 export*
%TF.Part,Single*%
%TF.FileFunction,Other,Top Silkscreen *%
%TF.FilePolarity,Positive*%
%TF.GenerationSoftware,Autodesk,EAGLE,8.7.1*%
%TF.CreationDate,2018-04-09T14:36:16Z*%
G75*
%MOMM*%
%FSLAX34Y34*%
%LPD*%
%AMOC8*
5,1,8,0,0,1.08239X$1,22.5*%
G01*
%ADD10C,0.152400*%
%ADD11C,0.050800*%
%ADD12C,0.203200*%
%ADD13C,0.127000*%


D10*
X170762Y22084D02*
X181599Y22084D01*
X176181Y16665D02*
X176181Y27502D01*
X300762Y27084D02*
X311599Y27084D01*
D11*
X380254Y177750D02*
X381751Y177750D01*
X381751Y177749D02*
X381811Y177747D01*
X381871Y177742D01*
X381931Y177733D01*
X381990Y177720D01*
X382048Y177704D01*
X382105Y177684D01*
X382161Y177661D01*
X382215Y177635D01*
X382267Y177605D01*
X382318Y177572D01*
X382366Y177537D01*
X382413Y177498D01*
X382457Y177457D01*
X382498Y177413D01*
X382537Y177366D01*
X382572Y177318D01*
X382605Y177267D01*
X382635Y177215D01*
X382661Y177161D01*
X382684Y177105D01*
X382704Y177048D01*
X382720Y176990D01*
X382733Y176931D01*
X382742Y176871D01*
X382747Y176811D01*
X382749Y176751D01*
X382750Y176751D02*
X382750Y176502D01*
X382748Y176433D01*
X382742Y176365D01*
X382733Y176297D01*
X382720Y176229D01*
X382703Y176162D01*
X382682Y176097D01*
X382658Y176032D01*
X382631Y175969D01*
X382600Y175908D01*
X382565Y175848D01*
X382528Y175791D01*
X382487Y175735D01*
X382443Y175682D01*
X382397Y175632D01*
X382347Y175584D01*
X382295Y175539D01*
X382241Y175496D01*
X382185Y175457D01*
X382126Y175421D01*
X382066Y175388D01*
X382003Y175359D01*
X381940Y175333D01*
X381875Y175311D01*
X381808Y175292D01*
X381741Y175277D01*
X381673Y175266D01*
X381605Y175258D01*
X381536Y175254D01*
X381468Y175254D01*
X381399Y175258D01*
X381331Y175266D01*
X381263Y175277D01*
X381196Y175292D01*
X381129Y175311D01*
X381064Y175333D01*
X381001Y175359D01*
X380938Y175388D01*
X380878Y175421D01*
X380819Y175457D01*
X380763Y175496D01*
X380709Y175539D01*
X380657Y175584D01*
X380607Y175632D01*
X380561Y175682D01*
X380517Y175735D01*
X380476Y175791D01*
X380439Y175848D01*
X380404Y175908D01*
X380373Y175969D01*
X380346Y176032D01*
X380322Y176097D01*
X380301Y176162D01*
X380284Y176229D01*
X380271Y176297D01*
X380262Y176365D01*
X380256Y176433D01*
X380254Y176502D01*
X380254Y177750D01*
X380256Y177837D01*
X380262Y177924D01*
X380271Y178011D01*
X380284Y178097D01*
X380301Y178182D01*
X380322Y178267D01*
X380346Y178350D01*
X380374Y178433D01*
X380406Y178514D01*
X380441Y178594D01*
X380480Y178672D01*
X380521Y178748D01*
X380567Y178822D01*
X380615Y178895D01*
X380666Y178965D01*
X380721Y179033D01*
X380778Y179098D01*
X380839Y179161D01*
X380902Y179222D01*
X380967Y179279D01*
X381035Y179334D01*
X381105Y179385D01*
X381178Y179433D01*
X381252Y179479D01*
X381328Y179520D01*
X381406Y179559D01*
X381486Y179594D01*
X381567Y179626D01*
X381650Y179654D01*
X381733Y179678D01*
X381818Y179699D01*
X381903Y179716D01*
X381989Y179729D01*
X382076Y179738D01*
X382163Y179744D01*
X382250Y179746D01*
X381502Y29746D02*
X380254Y28748D01*
X381502Y29746D02*
X381502Y25254D01*
X380254Y25254D02*
X382750Y25254D01*
X384754Y27500D02*
X384756Y27620D01*
X384762Y27740D01*
X384771Y27859D01*
X384785Y27978D01*
X384802Y28097D01*
X384824Y28215D01*
X384849Y28332D01*
X384878Y28449D01*
X384910Y28564D01*
X384947Y28679D01*
X384987Y28792D01*
X385030Y28903D01*
X385078Y29014D01*
X385128Y29122D01*
X385129Y29122D02*
X385150Y29179D01*
X385175Y29233D01*
X385204Y29287D01*
X385236Y29338D01*
X385271Y29387D01*
X385309Y29433D01*
X385351Y29477D01*
X385395Y29518D01*
X385441Y29556D01*
X385490Y29591D01*
X385542Y29623D01*
X385595Y29651D01*
X385650Y29676D01*
X385706Y29697D01*
X385764Y29715D01*
X385822Y29728D01*
X385882Y29738D01*
X385942Y29744D01*
X386002Y29746D01*
X386062Y29744D01*
X386122Y29738D01*
X386182Y29728D01*
X386240Y29715D01*
X386298Y29697D01*
X386354Y29676D01*
X386409Y29651D01*
X386462Y29623D01*
X386514Y29591D01*
X386563Y29556D01*
X386609Y29518D01*
X386653Y29477D01*
X386695Y29433D01*
X386733Y29387D01*
X386768Y29338D01*
X386800Y29287D01*
X386829Y29233D01*
X386854Y29179D01*
X386875Y29122D01*
X386876Y29122D02*
X386926Y29014D01*
X386974Y28903D01*
X387017Y28792D01*
X387057Y28679D01*
X387094Y28564D01*
X387126Y28449D01*
X387155Y28332D01*
X387180Y28215D01*
X387202Y28097D01*
X387219Y27978D01*
X387233Y27859D01*
X387242Y27740D01*
X387248Y27620D01*
X387250Y27500D01*
X384754Y27500D02*
X384756Y27380D01*
X384762Y27260D01*
X384771Y27141D01*
X384785Y27022D01*
X384802Y26903D01*
X384824Y26785D01*
X384849Y26668D01*
X384878Y26551D01*
X384910Y26436D01*
X384947Y26322D01*
X384987Y26208D01*
X385030Y26097D01*
X385078Y25987D01*
X385128Y25878D01*
X385129Y25878D02*
X385150Y25821D01*
X385175Y25767D01*
X385204Y25713D01*
X385236Y25662D01*
X385271Y25613D01*
X385309Y25567D01*
X385351Y25523D01*
X385395Y25482D01*
X385441Y25444D01*
X385490Y25409D01*
X385542Y25377D01*
X385595Y25349D01*
X385650Y25324D01*
X385706Y25303D01*
X385764Y25285D01*
X385822Y25272D01*
X385882Y25262D01*
X385942Y25256D01*
X386002Y25254D01*
X386876Y25878D02*
X386926Y25987D01*
X386974Y26097D01*
X387017Y26208D01*
X387057Y26322D01*
X387094Y26436D01*
X387126Y26551D01*
X387155Y26668D01*
X387180Y26785D01*
X387202Y26903D01*
X387219Y27022D01*
X387233Y27141D01*
X387242Y27260D01*
X387248Y27380D01*
X387250Y27500D01*
X386875Y25878D02*
X386854Y25821D01*
X386829Y25766D01*
X386800Y25713D01*
X386768Y25662D01*
X386733Y25613D01*
X386695Y25567D01*
X386653Y25523D01*
X386609Y25482D01*
X386563Y25444D01*
X386514Y25409D01*
X386462Y25377D01*
X386409Y25349D01*
X386354Y25324D01*
X386298Y25303D01*
X386240Y25285D01*
X386182Y25272D01*
X386122Y25262D01*
X386062Y25256D01*
X386002Y25254D01*
X385004Y26252D02*
X387000Y28748D01*
X101751Y175254D02*
X100254Y175254D01*
X101751Y175254D02*
X101811Y175256D01*
X101871Y175261D01*
X101931Y175270D01*
X101990Y175283D01*
X102048Y175299D01*
X102105Y175319D01*
X102161Y175342D01*
X102215Y175368D01*
X102267Y175398D01*
X102318Y175431D01*
X102366Y175466D01*
X102413Y175505D01*
X102457Y175546D01*
X102498Y175590D01*
X102537Y175637D01*
X102572Y175685D01*
X102605Y175736D01*
X102635Y175788D01*
X102661Y175842D01*
X102684Y175898D01*
X102704Y175955D01*
X102720Y176013D01*
X102733Y176072D01*
X102742Y176132D01*
X102747Y176192D01*
X102749Y176252D01*
X102750Y176252D02*
X102750Y176751D01*
X102749Y176751D02*
X102747Y176811D01*
X102742Y176871D01*
X102733Y176931D01*
X102720Y176990D01*
X102704Y177048D01*
X102684Y177105D01*
X102661Y177161D01*
X102635Y177215D01*
X102605Y177267D01*
X102572Y177318D01*
X102537Y177366D01*
X102498Y177413D01*
X102457Y177457D01*
X102413Y177498D01*
X102366Y177537D01*
X102318Y177572D01*
X102267Y177605D01*
X102215Y177635D01*
X102161Y177661D01*
X102105Y177684D01*
X102048Y177704D01*
X101990Y177720D01*
X101931Y177733D01*
X101871Y177742D01*
X101811Y177747D01*
X101751Y177749D01*
X101751Y177750D02*
X100254Y177750D01*
X100254Y179746D01*
X102750Y179746D01*
X101502Y34746D02*
X100254Y33748D01*
X101502Y34746D02*
X101502Y30254D01*
X100254Y30254D02*
X102750Y30254D01*
D12*
X142300Y121550D02*
X142300Y134250D01*
X148650Y140600D01*
X161350Y140600D02*
X167700Y134250D01*
X148650Y140600D02*
X142300Y146950D01*
X142300Y159650D01*
X148650Y166000D01*
X161350Y166000D02*
X167700Y159650D01*
X167700Y146950D01*
X161350Y140600D01*
X142300Y96150D02*
X148650Y89800D01*
X142300Y96150D02*
X142300Y108850D01*
X148650Y115200D01*
X161350Y115200D02*
X167700Y108850D01*
X167700Y96150D01*
X161350Y89800D01*
X148650Y115200D02*
X142300Y121550D01*
X161350Y115200D02*
X167700Y121550D01*
X167700Y134250D01*
X142300Y58050D02*
X142300Y45350D01*
X142300Y58050D02*
X148650Y64400D01*
X161350Y64400D02*
X167700Y58050D01*
X148650Y64400D02*
X142300Y70750D01*
X142300Y83450D01*
X148650Y89800D01*
X161350Y89800D02*
X167700Y83450D01*
X167700Y70750D01*
X161350Y64400D01*
X161350Y39000D02*
X148650Y39000D01*
X142300Y45350D01*
X161350Y39000D02*
X167700Y45350D01*
X167700Y58050D01*
X161350Y166000D02*
X148650Y166000D01*
D13*
X139323Y42316D02*
X139388Y42314D01*
X139452Y42308D01*
X139516Y42298D01*
X139580Y42285D01*
X139642Y42267D01*
X139703Y42246D01*
X139763Y42222D01*
X139821Y42193D01*
X139878Y42161D01*
X139932Y42126D01*
X139984Y42088D01*
X140034Y42046D01*
X140081Y42002D01*
X140125Y41955D01*
X140167Y41905D01*
X140205Y41853D01*
X140240Y41799D01*
X140272Y41742D01*
X140301Y41684D01*
X140325Y41624D01*
X140346Y41563D01*
X140364Y41501D01*
X140377Y41437D01*
X140387Y41373D01*
X140393Y41309D01*
X140395Y41244D01*
X140393Y41150D01*
X140387Y41056D01*
X140377Y40962D01*
X140364Y40869D01*
X140346Y40777D01*
X140325Y40685D01*
X140300Y40594D01*
X140271Y40504D01*
X140238Y40416D01*
X140202Y40329D01*
X140162Y40244D01*
X140119Y40160D01*
X140072Y40079D01*
X140022Y39999D01*
X139969Y39921D01*
X139912Y39846D01*
X139853Y39773D01*
X139790Y39703D01*
X139725Y39635D01*
X136641Y39770D02*
X136576Y39772D01*
X136512Y39778D01*
X136448Y39788D01*
X136384Y39801D01*
X136322Y39819D01*
X136261Y39840D01*
X136201Y39864D01*
X136143Y39893D01*
X136086Y39925D01*
X136032Y39960D01*
X135980Y39998D01*
X135930Y40040D01*
X135883Y40084D01*
X135839Y40131D01*
X135797Y40181D01*
X135759Y40233D01*
X135724Y40287D01*
X135692Y40344D01*
X135663Y40402D01*
X135639Y40462D01*
X135618Y40523D01*
X135600Y40585D01*
X135587Y40649D01*
X135577Y40713D01*
X135571Y40777D01*
X135569Y40842D01*
X135571Y40928D01*
X135576Y41014D01*
X135586Y41100D01*
X135599Y41185D01*
X135615Y41270D01*
X135635Y41354D01*
X135659Y41437D01*
X135686Y41519D01*
X135717Y41599D01*
X135751Y41679D01*
X135789Y41756D01*
X135830Y41832D01*
X135874Y41906D01*
X135921Y41979D01*
X135971Y42049D01*
X137579Y40305D02*
X137546Y40252D01*
X137509Y40201D01*
X137470Y40152D01*
X137428Y40105D01*
X137383Y40061D01*
X137336Y40020D01*
X137287Y39981D01*
X137235Y39945D01*
X137181Y39912D01*
X137126Y39883D01*
X137069Y39857D01*
X137010Y39834D01*
X136951Y39814D01*
X136890Y39798D01*
X136829Y39785D01*
X136766Y39776D01*
X136704Y39771D01*
X136641Y39769D01*
X138385Y41780D02*
X138418Y41833D01*
X138455Y41884D01*
X138494Y41933D01*
X138536Y41980D01*
X138581Y42024D01*
X138628Y42065D01*
X138677Y42104D01*
X138729Y42140D01*
X138783Y42173D01*
X138838Y42202D01*
X138895Y42228D01*
X138954Y42251D01*
X139013Y42271D01*
X139074Y42287D01*
X139135Y42300D01*
X139198Y42309D01*
X139260Y42314D01*
X139323Y42316D01*
X138384Y41780D02*
X137580Y40305D01*
X135569Y44670D02*
X140395Y46279D01*
X135569Y47888D01*
X136641Y50425D02*
X135569Y51765D01*
X140395Y51765D01*
X140395Y50425D02*
X140395Y53106D01*
D12*
X117300Y121550D02*
X117300Y134250D01*
X123650Y140600D01*
X136350Y140600D02*
X142700Y134250D01*
X123650Y140600D02*
X117300Y146950D01*
X117300Y159650D01*
X123650Y166000D01*
X136350Y166000D02*
X142700Y159650D01*
X142700Y146950D01*
X136350Y140600D01*
X117300Y96150D02*
X123650Y89800D01*
X117300Y96150D02*
X117300Y108850D01*
X123650Y115200D01*
X136350Y115200D02*
X142700Y108850D01*
X142700Y96150D01*
X136350Y89800D01*
X123650Y115200D02*
X117300Y121550D01*
X136350Y115200D02*
X142700Y121550D01*
X142700Y134250D01*
X117300Y58050D02*
X117300Y45350D01*
X117300Y58050D02*
X123650Y64400D01*
X136350Y64400D02*
X142700Y58050D01*
X123650Y64400D02*
X117300Y70750D01*
X117300Y83450D01*
X123650Y89800D01*
X136350Y89800D02*
X142700Y83450D01*
X142700Y70750D01*
X136350Y64400D01*
X136350Y39000D02*
X123650Y39000D01*
X117300Y45350D01*
X136350Y39000D02*
X142700Y45350D01*
X142700Y58050D01*
X136350Y166000D02*
X123650Y166000D01*
D13*
X114323Y42316D02*
X114388Y42314D01*
X114452Y42308D01*
X114516Y42298D01*
X114580Y42285D01*
X114642Y42267D01*
X114703Y42246D01*
X114763Y42222D01*
X114821Y42193D01*
X114878Y42161D01*
X114932Y42126D01*
X114984Y42088D01*
X115034Y42046D01*
X115081Y42002D01*
X115125Y41955D01*
X115167Y41905D01*
X115205Y41853D01*
X115240Y41799D01*
X115272Y41742D01*
X115301Y41684D01*
X115325Y41624D01*
X115346Y41563D01*
X115364Y41501D01*
X115377Y41437D01*
X115387Y41373D01*
X115393Y41309D01*
X115395Y41244D01*
X115393Y41150D01*
X115387Y41056D01*
X115377Y40962D01*
X115364Y40869D01*
X115346Y40777D01*
X115325Y40685D01*
X115300Y40594D01*
X115271Y40504D01*
X115238Y40416D01*
X115202Y40329D01*
X115162Y40244D01*
X115119Y40160D01*
X115072Y40079D01*
X115022Y39999D01*
X114969Y39921D01*
X114912Y39846D01*
X114853Y39773D01*
X114790Y39703D01*
X114725Y39635D01*
X111641Y39770D02*
X111576Y39772D01*
X111512Y39778D01*
X111448Y39788D01*
X111384Y39801D01*
X111322Y39819D01*
X111261Y39840D01*
X111201Y39864D01*
X111143Y39893D01*
X111086Y39925D01*
X111032Y39960D01*
X110980Y39998D01*
X110930Y40040D01*
X110883Y40084D01*
X110839Y40131D01*
X110797Y40181D01*
X110759Y40233D01*
X110724Y40287D01*
X110692Y40344D01*
X110663Y40402D01*
X110639Y40462D01*
X110618Y40523D01*
X110600Y40585D01*
X110587Y40649D01*
X110577Y40713D01*
X110571Y40777D01*
X110569Y40842D01*
X110571Y40928D01*
X110576Y41014D01*
X110586Y41100D01*
X110599Y41185D01*
X110615Y41270D01*
X110635Y41354D01*
X110659Y41437D01*
X110686Y41519D01*
X110717Y41599D01*
X110751Y41679D01*
X110789Y41756D01*
X110830Y41832D01*
X110874Y41906D01*
X110921Y41979D01*
X110971Y42049D01*
X112579Y40305D02*
X112546Y40252D01*
X112509Y40201D01*
X112470Y40152D01*
X112428Y40105D01*
X112383Y40061D01*
X112336Y40020D01*
X112287Y39981D01*
X112235Y39945D01*
X112181Y39912D01*
X112126Y39883D01*
X112069Y39857D01*
X112010Y39834D01*
X111951Y39814D01*
X111890Y39798D01*
X111829Y39785D01*
X111766Y39776D01*
X111704Y39771D01*
X111641Y39769D01*
X113385Y41780D02*
X113418Y41833D01*
X113455Y41884D01*
X113494Y41933D01*
X113536Y41980D01*
X113581Y42024D01*
X113628Y42065D01*
X113677Y42104D01*
X113729Y42140D01*
X113783Y42173D01*
X113838Y42202D01*
X113895Y42228D01*
X113954Y42251D01*
X114013Y42271D01*
X114074Y42287D01*
X114135Y42300D01*
X114198Y42309D01*
X114260Y42314D01*
X114323Y42316D01*
X113384Y41780D02*
X112580Y40305D01*
X110569Y44670D02*
X115395Y46279D01*
X110569Y47888D01*
X110569Y51899D02*
X110571Y51967D01*
X110577Y52034D01*
X110586Y52101D01*
X110599Y52168D01*
X110616Y52233D01*
X110637Y52298D01*
X110661Y52361D01*
X110689Y52423D01*
X110720Y52483D01*
X110754Y52541D01*
X110792Y52597D01*
X110832Y52652D01*
X110876Y52703D01*
X110923Y52752D01*
X110972Y52799D01*
X111023Y52843D01*
X111078Y52883D01*
X111134Y52921D01*
X111192Y52955D01*
X111252Y52986D01*
X111314Y53014D01*
X111377Y53038D01*
X111442Y53059D01*
X111507Y53076D01*
X111574Y53089D01*
X111641Y53098D01*
X111708Y53104D01*
X111776Y53106D01*
X110569Y51899D02*
X110571Y51821D01*
X110577Y51743D01*
X110587Y51666D01*
X110600Y51589D01*
X110618Y51513D01*
X110639Y51438D01*
X110664Y51364D01*
X110693Y51292D01*
X110725Y51221D01*
X110761Y51152D01*
X110800Y51084D01*
X110843Y51019D01*
X110889Y50956D01*
X110938Y50895D01*
X110990Y50837D01*
X111045Y50782D01*
X111102Y50729D01*
X111162Y50680D01*
X111225Y50633D01*
X111290Y50590D01*
X111356Y50550D01*
X111425Y50513D01*
X111496Y50480D01*
X111568Y50450D01*
X111642Y50424D01*
X112714Y52704D02*
X112665Y52753D01*
X112613Y52800D01*
X112558Y52843D01*
X112501Y52884D01*
X112442Y52922D01*
X112381Y52956D01*
X112318Y52987D01*
X112254Y53015D01*
X112188Y53039D01*
X112122Y53059D01*
X112054Y53076D01*
X111985Y53089D01*
X111916Y53098D01*
X111846Y53104D01*
X111776Y53106D01*
X112714Y52704D02*
X115395Y50425D01*
X115395Y53106D01*
D12*
X92300Y121550D02*
X92300Y134250D01*
X98650Y140600D01*
X111350Y140600D02*
X117700Y134250D01*
X98650Y140600D02*
X92300Y146950D01*
X92300Y159650D01*
X98650Y166000D01*
X111350Y166000D02*
X117700Y159650D01*
X117700Y146950D01*
X111350Y140600D01*
X92300Y96150D02*
X98650Y89800D01*
X92300Y96150D02*
X92300Y108850D01*
X98650Y115200D01*
X111350Y115200D02*
X117700Y108850D01*
X117700Y96150D01*
X111350Y89800D01*
X98650Y115200D02*
X92300Y121550D01*
X111350Y115200D02*
X117700Y121550D01*
X117700Y134250D01*
X92300Y58050D02*
X92300Y45350D01*
X92300Y58050D02*
X98650Y64400D01*
X111350Y64400D02*
X117700Y58050D01*
X98650Y64400D02*
X92300Y70750D01*
X92300Y83450D01*
X98650Y89800D01*
X111350Y89800D02*
X117700Y83450D01*
X117700Y70750D01*
X111350Y64400D01*
X111350Y39000D02*
X98650Y39000D01*
X92300Y45350D01*
X111350Y39000D02*
X117700Y45350D01*
X117700Y58050D01*
X111350Y166000D02*
X98650Y166000D01*
D13*
X89323Y42316D02*
X89388Y42314D01*
X89452Y42308D01*
X89516Y42298D01*
X89580Y42285D01*
X89642Y42267D01*
X89703Y42246D01*
X89763Y42222D01*
X89821Y42193D01*
X89878Y42161D01*
X89932Y42126D01*
X89984Y42088D01*
X90034Y42046D01*
X90081Y42002D01*
X90125Y41955D01*
X90167Y41905D01*
X90205Y41853D01*
X90240Y41799D01*
X90272Y41742D01*
X90301Y41684D01*
X90325Y41624D01*
X90346Y41563D01*
X90364Y41501D01*
X90377Y41437D01*
X90387Y41373D01*
X90393Y41309D01*
X90395Y41244D01*
X90393Y41150D01*
X90387Y41056D01*
X90377Y40962D01*
X90364Y40869D01*
X90346Y40777D01*
X90325Y40685D01*
X90300Y40594D01*
X90271Y40504D01*
X90238Y40416D01*
X90202Y40329D01*
X90162Y40244D01*
X90119Y40160D01*
X90072Y40079D01*
X90022Y39999D01*
X89969Y39921D01*
X89912Y39846D01*
X89853Y39773D01*
X89790Y39703D01*
X89725Y39635D01*
X86641Y39770D02*
X86576Y39772D01*
X86512Y39778D01*
X86448Y39788D01*
X86384Y39801D01*
X86322Y39819D01*
X86261Y39840D01*
X86201Y39864D01*
X86143Y39893D01*
X86086Y39925D01*
X86032Y39960D01*
X85980Y39998D01*
X85930Y40040D01*
X85883Y40084D01*
X85839Y40131D01*
X85797Y40181D01*
X85759Y40233D01*
X85724Y40287D01*
X85692Y40344D01*
X85663Y40402D01*
X85639Y40462D01*
X85618Y40523D01*
X85600Y40585D01*
X85587Y40649D01*
X85577Y40713D01*
X85571Y40777D01*
X85569Y40842D01*
X85571Y40928D01*
X85576Y41014D01*
X85586Y41100D01*
X85599Y41185D01*
X85615Y41270D01*
X85635Y41354D01*
X85659Y41437D01*
X85686Y41519D01*
X85717Y41599D01*
X85751Y41679D01*
X85789Y41756D01*
X85830Y41832D01*
X85874Y41906D01*
X85921Y41979D01*
X85971Y42049D01*
X87579Y40305D02*
X87546Y40252D01*
X87509Y40201D01*
X87470Y40152D01*
X87428Y40105D01*
X87383Y40061D01*
X87336Y40020D01*
X87287Y39981D01*
X87235Y39945D01*
X87181Y39912D01*
X87126Y39883D01*
X87069Y39857D01*
X87010Y39834D01*
X86951Y39814D01*
X86890Y39798D01*
X86829Y39785D01*
X86766Y39776D01*
X86704Y39771D01*
X86641Y39769D01*
X88385Y41780D02*
X88418Y41833D01*
X88455Y41884D01*
X88494Y41933D01*
X88536Y41980D01*
X88581Y42024D01*
X88628Y42065D01*
X88677Y42104D01*
X88729Y42140D01*
X88783Y42173D01*
X88838Y42202D01*
X88895Y42228D01*
X88954Y42251D01*
X89013Y42271D01*
X89074Y42287D01*
X89135Y42300D01*
X89198Y42309D01*
X89260Y42314D01*
X89323Y42316D01*
X88384Y41780D02*
X87580Y40305D01*
X85569Y44670D02*
X90395Y46279D01*
X85569Y47888D01*
X90395Y50425D02*
X90395Y51765D01*
X90393Y51836D01*
X90387Y51908D01*
X90378Y51978D01*
X90365Y52048D01*
X90348Y52118D01*
X90327Y52186D01*
X90303Y52253D01*
X90275Y52319D01*
X90244Y52383D01*
X90209Y52446D01*
X90171Y52506D01*
X90130Y52565D01*
X90086Y52621D01*
X90039Y52675D01*
X89990Y52726D01*
X89937Y52774D01*
X89882Y52820D01*
X89825Y52862D01*
X89765Y52902D01*
X89704Y52938D01*
X89640Y52971D01*
X89575Y53000D01*
X89509Y53026D01*
X89441Y53049D01*
X89372Y53068D01*
X89302Y53083D01*
X89232Y53094D01*
X89161Y53102D01*
X89090Y53106D01*
X89018Y53106D01*
X88947Y53102D01*
X88876Y53094D01*
X88806Y53083D01*
X88736Y53068D01*
X88667Y53049D01*
X88599Y53026D01*
X88533Y53000D01*
X88468Y52971D01*
X88404Y52938D01*
X88343Y52902D01*
X88283Y52862D01*
X88226Y52820D01*
X88171Y52774D01*
X88118Y52726D01*
X88069Y52675D01*
X88022Y52621D01*
X87978Y52565D01*
X87937Y52506D01*
X87899Y52446D01*
X87864Y52383D01*
X87833Y52319D01*
X87805Y52253D01*
X87781Y52186D01*
X87760Y52118D01*
X87743Y52048D01*
X87730Y51978D01*
X87721Y51908D01*
X87715Y51836D01*
X87713Y51765D01*
X85569Y52034D02*
X85569Y50425D01*
X85569Y52034D02*
X85571Y52099D01*
X85577Y52163D01*
X85587Y52227D01*
X85600Y52291D01*
X85618Y52353D01*
X85639Y52414D01*
X85663Y52474D01*
X85692Y52532D01*
X85724Y52589D01*
X85759Y52643D01*
X85797Y52695D01*
X85839Y52745D01*
X85883Y52792D01*
X85930Y52836D01*
X85980Y52878D01*
X86032Y52916D01*
X86086Y52951D01*
X86143Y52983D01*
X86201Y53012D01*
X86261Y53036D01*
X86322Y53057D01*
X86384Y53075D01*
X86448Y53088D01*
X86512Y53098D01*
X86576Y53104D01*
X86641Y53106D01*
X86706Y53104D01*
X86770Y53098D01*
X86834Y53088D01*
X86898Y53075D01*
X86960Y53057D01*
X87021Y53036D01*
X87081Y53012D01*
X87139Y52983D01*
X87196Y52951D01*
X87250Y52916D01*
X87302Y52878D01*
X87352Y52836D01*
X87399Y52792D01*
X87443Y52745D01*
X87485Y52695D01*
X87523Y52643D01*
X87558Y52589D01*
X87590Y52532D01*
X87619Y52474D01*
X87643Y52414D01*
X87664Y52353D01*
X87682Y52291D01*
X87695Y52227D01*
X87705Y52163D01*
X87711Y52099D01*
X87713Y52034D01*
X87714Y52034D02*
X87714Y50961D01*
D12*
X337700Y70750D02*
X337700Y83450D01*
X337700Y70750D02*
X331350Y64400D01*
X318650Y64400D02*
X312300Y70750D01*
X331350Y64400D02*
X337700Y58050D01*
X337700Y45350D01*
X331350Y39000D01*
X318650Y39000D02*
X312300Y45350D01*
X312300Y58050D01*
X318650Y64400D01*
X337700Y108850D02*
X331350Y115200D01*
X337700Y108850D02*
X337700Y96150D01*
X331350Y89800D01*
X318650Y89800D02*
X312300Y96150D01*
X312300Y108850D01*
X318650Y115200D01*
X331350Y89800D02*
X337700Y83450D01*
X318650Y89800D02*
X312300Y83450D01*
X312300Y70750D01*
X337700Y146950D02*
X337700Y159650D01*
X337700Y146950D02*
X331350Y140600D01*
X318650Y140600D02*
X312300Y146950D01*
X331350Y140600D02*
X337700Y134250D01*
X337700Y121550D01*
X331350Y115200D01*
X318650Y115200D02*
X312300Y121550D01*
X312300Y134250D01*
X318650Y140600D01*
X318650Y166000D02*
X331350Y166000D01*
X337700Y159650D01*
X318650Y166000D02*
X312300Y159650D01*
X312300Y146950D01*
X318650Y39000D02*
X331350Y39000D01*
D13*
X344431Y153503D02*
X344429Y153568D01*
X344423Y153632D01*
X344413Y153696D01*
X344400Y153760D01*
X344382Y153822D01*
X344361Y153883D01*
X344337Y153943D01*
X344308Y154001D01*
X344276Y154058D01*
X344241Y154112D01*
X344203Y154164D01*
X344161Y154214D01*
X344117Y154261D01*
X344070Y154305D01*
X344020Y154347D01*
X343968Y154385D01*
X343914Y154420D01*
X343857Y154452D01*
X343799Y154481D01*
X343739Y154505D01*
X343678Y154526D01*
X343616Y154544D01*
X343552Y154557D01*
X343488Y154567D01*
X343424Y154573D01*
X343359Y154575D01*
X344431Y153503D02*
X344429Y153409D01*
X344423Y153315D01*
X344413Y153221D01*
X344400Y153128D01*
X344382Y153036D01*
X344361Y152944D01*
X344336Y152853D01*
X344307Y152763D01*
X344274Y152675D01*
X344238Y152588D01*
X344198Y152503D01*
X344155Y152419D01*
X344108Y152338D01*
X344058Y152258D01*
X344005Y152180D01*
X343948Y152105D01*
X343889Y152032D01*
X343826Y151962D01*
X343761Y151894D01*
X340677Y152029D02*
X340612Y152031D01*
X340548Y152037D01*
X340484Y152047D01*
X340420Y152060D01*
X340358Y152078D01*
X340297Y152099D01*
X340237Y152123D01*
X340179Y152152D01*
X340122Y152184D01*
X340068Y152219D01*
X340016Y152257D01*
X339966Y152299D01*
X339919Y152343D01*
X339875Y152390D01*
X339833Y152440D01*
X339795Y152492D01*
X339760Y152546D01*
X339728Y152603D01*
X339699Y152661D01*
X339675Y152721D01*
X339654Y152782D01*
X339636Y152844D01*
X339623Y152908D01*
X339613Y152972D01*
X339607Y153036D01*
X339605Y153101D01*
X339607Y153187D01*
X339612Y153273D01*
X339622Y153359D01*
X339635Y153444D01*
X339651Y153529D01*
X339671Y153613D01*
X339695Y153696D01*
X339722Y153778D01*
X339753Y153858D01*
X339787Y153938D01*
X339825Y154015D01*
X339866Y154091D01*
X339910Y154165D01*
X339957Y154238D01*
X340007Y154308D01*
X341615Y152564D02*
X341582Y152511D01*
X341545Y152460D01*
X341506Y152411D01*
X341464Y152364D01*
X341419Y152320D01*
X341372Y152279D01*
X341323Y152240D01*
X341271Y152204D01*
X341217Y152171D01*
X341162Y152142D01*
X341105Y152116D01*
X341046Y152093D01*
X340987Y152073D01*
X340926Y152057D01*
X340865Y152044D01*
X340802Y152035D01*
X340740Y152030D01*
X340677Y152028D01*
X342421Y154039D02*
X342454Y154092D01*
X342491Y154143D01*
X342530Y154192D01*
X342572Y154239D01*
X342617Y154283D01*
X342664Y154324D01*
X342713Y154363D01*
X342765Y154399D01*
X342819Y154432D01*
X342874Y154461D01*
X342931Y154487D01*
X342990Y154510D01*
X343049Y154530D01*
X343110Y154546D01*
X343171Y154559D01*
X343234Y154568D01*
X343296Y154573D01*
X343359Y154575D01*
X342420Y154039D02*
X341616Y152564D01*
X339605Y156929D02*
X344431Y158538D01*
X339605Y160147D01*
X339605Y163756D02*
X343359Y162684D01*
X343359Y165365D01*
X342286Y164561D02*
X344431Y164561D01*
D12*
X362700Y83450D02*
X362700Y70750D01*
X356350Y64400D01*
X343650Y64400D02*
X337300Y70750D01*
X356350Y64400D02*
X362700Y58050D01*
X362700Y45350D01*
X356350Y39000D01*
X343650Y39000D02*
X337300Y45350D01*
X337300Y58050D01*
X343650Y64400D01*
X362700Y108850D02*
X356350Y115200D01*
X362700Y108850D02*
X362700Y96150D01*
X356350Y89800D01*
X343650Y89800D02*
X337300Y96150D01*
X337300Y108850D01*
X343650Y115200D01*
X356350Y89800D02*
X362700Y83450D01*
X343650Y89800D02*
X337300Y83450D01*
X337300Y70750D01*
X362700Y146950D02*
X362700Y159650D01*
X362700Y146950D02*
X356350Y140600D01*
X343650Y140600D02*
X337300Y146950D01*
X356350Y140600D02*
X362700Y134250D01*
X362700Y121550D01*
X356350Y115200D01*
X343650Y115200D02*
X337300Y121550D01*
X337300Y134250D01*
X343650Y140600D01*
X343650Y166000D02*
X356350Y166000D01*
X362700Y159650D01*
X343650Y166000D02*
X337300Y159650D01*
X337300Y146950D01*
X343650Y39000D02*
X356350Y39000D01*
D13*
X369431Y153503D02*
X369429Y153568D01*
X369423Y153632D01*
X369413Y153696D01*
X369400Y153760D01*
X369382Y153822D01*
X369361Y153883D01*
X369337Y153943D01*
X369308Y154001D01*
X369276Y154058D01*
X369241Y154112D01*
X369203Y154164D01*
X369161Y154214D01*
X369117Y154261D01*
X369070Y154305D01*
X369020Y154347D01*
X368968Y154385D01*
X368914Y154420D01*
X368857Y154452D01*
X368799Y154481D01*
X368739Y154505D01*
X368678Y154526D01*
X368616Y154544D01*
X368552Y154557D01*
X368488Y154567D01*
X368424Y154573D01*
X368359Y154575D01*
X369431Y153503D02*
X369429Y153409D01*
X369423Y153315D01*
X369413Y153221D01*
X369400Y153128D01*
X369382Y153036D01*
X369361Y152944D01*
X369336Y152853D01*
X369307Y152763D01*
X369274Y152675D01*
X369238Y152588D01*
X369198Y152503D01*
X369155Y152419D01*
X369108Y152338D01*
X369058Y152258D01*
X369005Y152180D01*
X368948Y152105D01*
X368889Y152032D01*
X368826Y151962D01*
X368761Y151894D01*
X365677Y152029D02*
X365612Y152031D01*
X365548Y152037D01*
X365484Y152047D01*
X365420Y152060D01*
X365358Y152078D01*
X365297Y152099D01*
X365237Y152123D01*
X365179Y152152D01*
X365122Y152184D01*
X365068Y152219D01*
X365016Y152257D01*
X364966Y152299D01*
X364919Y152343D01*
X364875Y152390D01*
X364833Y152440D01*
X364795Y152492D01*
X364760Y152546D01*
X364728Y152603D01*
X364699Y152661D01*
X364675Y152721D01*
X364654Y152782D01*
X364636Y152844D01*
X364623Y152908D01*
X364613Y152972D01*
X364607Y153036D01*
X364605Y153101D01*
X364607Y153187D01*
X364612Y153273D01*
X364622Y153359D01*
X364635Y153444D01*
X364651Y153529D01*
X364671Y153613D01*
X364695Y153696D01*
X364722Y153778D01*
X364753Y153858D01*
X364787Y153938D01*
X364825Y154015D01*
X364866Y154091D01*
X364910Y154165D01*
X364957Y154238D01*
X365007Y154308D01*
X366615Y152564D02*
X366582Y152511D01*
X366545Y152460D01*
X366506Y152411D01*
X366464Y152364D01*
X366419Y152320D01*
X366372Y152279D01*
X366323Y152240D01*
X366271Y152204D01*
X366217Y152171D01*
X366162Y152142D01*
X366105Y152116D01*
X366046Y152093D01*
X365987Y152073D01*
X365926Y152057D01*
X365865Y152044D01*
X365802Y152035D01*
X365740Y152030D01*
X365677Y152028D01*
X367421Y154039D02*
X367454Y154092D01*
X367491Y154143D01*
X367530Y154192D01*
X367572Y154239D01*
X367617Y154283D01*
X367664Y154324D01*
X367713Y154363D01*
X367765Y154399D01*
X367819Y154432D01*
X367874Y154461D01*
X367931Y154487D01*
X367990Y154510D01*
X368049Y154530D01*
X368110Y154546D01*
X368171Y154559D01*
X368234Y154568D01*
X368296Y154573D01*
X368359Y154575D01*
X367420Y154039D02*
X366616Y152564D01*
X364605Y156929D02*
X369431Y158538D01*
X364605Y160147D01*
X369431Y162684D02*
X369431Y164293D01*
X369429Y164358D01*
X369423Y164422D01*
X369413Y164486D01*
X369400Y164550D01*
X369382Y164612D01*
X369361Y164673D01*
X369337Y164733D01*
X369308Y164791D01*
X369276Y164848D01*
X369241Y164902D01*
X369203Y164954D01*
X369161Y165004D01*
X369117Y165051D01*
X369070Y165095D01*
X369020Y165137D01*
X368968Y165175D01*
X368914Y165210D01*
X368857Y165242D01*
X368799Y165271D01*
X368739Y165295D01*
X368678Y165316D01*
X368616Y165334D01*
X368552Y165347D01*
X368488Y165357D01*
X368424Y165363D01*
X368359Y165365D01*
X367822Y165365D01*
X367757Y165363D01*
X367693Y165357D01*
X367629Y165347D01*
X367565Y165334D01*
X367503Y165316D01*
X367442Y165295D01*
X367382Y165271D01*
X367324Y165242D01*
X367267Y165210D01*
X367213Y165175D01*
X367161Y165137D01*
X367111Y165095D01*
X367064Y165051D01*
X367020Y165004D01*
X366978Y164954D01*
X366940Y164902D01*
X366905Y164848D01*
X366873Y164791D01*
X366844Y164733D01*
X366820Y164673D01*
X366799Y164612D01*
X366781Y164550D01*
X366768Y164486D01*
X366758Y164422D01*
X366752Y164358D01*
X366750Y164293D01*
X366750Y162684D01*
X364605Y162684D01*
X364605Y165365D01*
D12*
X387700Y83450D02*
X387700Y70750D01*
X381350Y64400D01*
X368650Y64400D02*
X362300Y70750D01*
X381350Y64400D02*
X387700Y58050D01*
X387700Y45350D01*
X381350Y39000D01*
X368650Y39000D02*
X362300Y45350D01*
X362300Y58050D01*
X368650Y64400D01*
X387700Y108850D02*
X381350Y115200D01*
X387700Y108850D02*
X387700Y96150D01*
X381350Y89800D01*
X368650Y89800D02*
X362300Y96150D01*
X362300Y108850D01*
X368650Y115200D01*
X381350Y89800D02*
X387700Y83450D01*
X368650Y89800D02*
X362300Y83450D01*
X362300Y70750D01*
X387700Y146950D02*
X387700Y159650D01*
X387700Y146950D02*
X381350Y140600D01*
X368650Y140600D02*
X362300Y146950D01*
X381350Y140600D02*
X387700Y134250D01*
X387700Y121550D01*
X381350Y115200D01*
X368650Y115200D02*
X362300Y121550D01*
X362300Y134250D01*
X368650Y140600D01*
X368650Y166000D02*
X381350Y166000D01*
X387700Y159650D01*
X368650Y166000D02*
X362300Y159650D01*
X362300Y146950D01*
X368650Y39000D02*
X381350Y39000D01*
D13*
X394431Y153503D02*
X394429Y153568D01*
X394423Y153632D01*
X394413Y153696D01*
X394400Y153760D01*
X394382Y153822D01*
X394361Y153883D01*
X394337Y153943D01*
X394308Y154001D01*
X394276Y154058D01*
X394241Y154112D01*
X394203Y154164D01*
X394161Y154214D01*
X394117Y154261D01*
X394070Y154305D01*
X394020Y154347D01*
X393968Y154385D01*
X393914Y154420D01*
X393857Y154452D01*
X393799Y154481D01*
X393739Y154505D01*
X393678Y154526D01*
X393616Y154544D01*
X393552Y154557D01*
X393488Y154567D01*
X393424Y154573D01*
X393359Y154575D01*
X394431Y153503D02*
X394429Y153409D01*
X394423Y153315D01*
X394413Y153221D01*
X394400Y153128D01*
X394382Y153036D01*
X394361Y152944D01*
X394336Y152853D01*
X394307Y152763D01*
X394274Y152675D01*
X394238Y152588D01*
X394198Y152503D01*
X394155Y152419D01*
X394108Y152338D01*
X394058Y152258D01*
X394005Y152180D01*
X393948Y152105D01*
X393889Y152032D01*
X393826Y151962D01*
X393761Y151894D01*
X390677Y152029D02*
X390612Y152031D01*
X390548Y152037D01*
X390484Y152047D01*
X390420Y152060D01*
X390358Y152078D01*
X390297Y152099D01*
X390237Y152123D01*
X390179Y152152D01*
X390122Y152184D01*
X390068Y152219D01*
X390016Y152257D01*
X389966Y152299D01*
X389919Y152343D01*
X389875Y152390D01*
X389833Y152440D01*
X389795Y152492D01*
X389760Y152546D01*
X389728Y152603D01*
X389699Y152661D01*
X389675Y152721D01*
X389654Y152782D01*
X389636Y152844D01*
X389623Y152908D01*
X389613Y152972D01*
X389607Y153036D01*
X389605Y153101D01*
X389607Y153187D01*
X389612Y153273D01*
X389622Y153359D01*
X389635Y153444D01*
X389651Y153529D01*
X389671Y153613D01*
X389695Y153696D01*
X389722Y153778D01*
X389753Y153858D01*
X389787Y153938D01*
X389825Y154015D01*
X389866Y154091D01*
X389910Y154165D01*
X389957Y154238D01*
X390007Y154308D01*
X391615Y152564D02*
X391582Y152511D01*
X391545Y152460D01*
X391506Y152411D01*
X391464Y152364D01*
X391419Y152320D01*
X391372Y152279D01*
X391323Y152240D01*
X391271Y152204D01*
X391217Y152171D01*
X391162Y152142D01*
X391105Y152116D01*
X391046Y152093D01*
X390987Y152073D01*
X390926Y152057D01*
X390865Y152044D01*
X390802Y152035D01*
X390740Y152030D01*
X390677Y152028D01*
X392421Y154039D02*
X392454Y154092D01*
X392491Y154143D01*
X392530Y154192D01*
X392572Y154239D01*
X392617Y154283D01*
X392664Y154324D01*
X392713Y154363D01*
X392765Y154399D01*
X392819Y154432D01*
X392874Y154461D01*
X392931Y154487D01*
X392990Y154510D01*
X393049Y154530D01*
X393110Y154546D01*
X393171Y154559D01*
X393234Y154568D01*
X393296Y154573D01*
X393359Y154575D01*
X392420Y154039D02*
X391616Y152564D01*
X389605Y156929D02*
X394431Y158538D01*
X389605Y160147D01*
X389605Y162684D02*
X390141Y162684D01*
X389605Y162684D02*
X389605Y165365D01*
X394431Y164024D01*
D10*
X289930Y5390D02*
X190110Y5390D01*
X289930Y95310D02*
X289930Y97340D01*
X190110Y97340D01*
X190110Y29270D02*
X190110Y5390D01*
X190110Y29270D02*
X206110Y29270D01*
X223890Y29270D02*
X256150Y29270D01*
X273930Y29270D02*
X289930Y29270D01*
X190110Y29270D02*
X190110Y95310D01*
X289930Y29270D02*
X289930Y5390D01*
X289930Y95310D02*
X190110Y95310D01*
X190110Y97340D01*
X289930Y95310D02*
X289930Y29270D01*
X209920Y82098D02*
X209922Y82240D01*
X209928Y82383D01*
X209938Y82525D01*
X209952Y82667D01*
X209970Y82808D01*
X209992Y82949D01*
X210018Y83089D01*
X210047Y83228D01*
X210081Y83367D01*
X210119Y83504D01*
X210160Y83641D01*
X210205Y83776D01*
X210254Y83910D01*
X210307Y84042D01*
X210363Y84173D01*
X210423Y84302D01*
X210487Y84430D01*
X210554Y84555D01*
X210625Y84679D01*
X210699Y84801D01*
X210776Y84920D01*
X210857Y85038D01*
X210941Y85153D01*
X211028Y85265D01*
X211119Y85375D01*
X211212Y85483D01*
X211309Y85588D01*
X211408Y85690D01*
X211510Y85789D01*
X211615Y85886D01*
X211723Y85979D01*
X211833Y86070D01*
X211945Y86157D01*
X212060Y86241D01*
X212178Y86322D01*
X212297Y86399D01*
X212419Y86473D01*
X212543Y86544D01*
X212668Y86611D01*
X212796Y86675D01*
X212925Y86735D01*
X213056Y86791D01*
X213188Y86844D01*
X213322Y86893D01*
X213457Y86938D01*
X213594Y86979D01*
X213731Y87017D01*
X213870Y87051D01*
X214009Y87080D01*
X214149Y87106D01*
X214290Y87128D01*
X214431Y87146D01*
X214573Y87160D01*
X214715Y87170D01*
X214858Y87176D01*
X215000Y87178D01*
X215142Y87176D01*
X215285Y87170D01*
X215427Y87160D01*
X215569Y87146D01*
X215710Y87128D01*
X215851Y87106D01*
X215991Y87080D01*
X216130Y87051D01*
X216269Y87017D01*
X216406Y86979D01*
X216543Y86938D01*
X216678Y86893D01*
X216812Y86844D01*
X216944Y86791D01*
X217075Y86735D01*
X217204Y86675D01*
X217332Y86611D01*
X217457Y86544D01*
X217581Y86473D01*
X217703Y86399D01*
X217822Y86322D01*
X217940Y86241D01*
X218055Y86157D01*
X218167Y86070D01*
X218277Y85979D01*
X218385Y85886D01*
X218490Y85789D01*
X218592Y85690D01*
X218691Y85588D01*
X218788Y85483D01*
X218881Y85375D01*
X218972Y85265D01*
X219059Y85153D01*
X219143Y85038D01*
X219224Y84920D01*
X219301Y84801D01*
X219375Y84679D01*
X219446Y84555D01*
X219513Y84430D01*
X219577Y84302D01*
X219637Y84173D01*
X219693Y84042D01*
X219746Y83910D01*
X219795Y83776D01*
X219840Y83641D01*
X219881Y83504D01*
X219919Y83367D01*
X219953Y83228D01*
X219982Y83089D01*
X220008Y82949D01*
X220030Y82808D01*
X220048Y82667D01*
X220062Y82525D01*
X220072Y82383D01*
X220078Y82240D01*
X220080Y82098D01*
X220078Y81956D01*
X220072Y81813D01*
X220062Y81671D01*
X220048Y81529D01*
X220030Y81388D01*
X220008Y81247D01*
X219982Y81107D01*
X219953Y80968D01*
X219919Y80829D01*
X219881Y80692D01*
X219840Y80555D01*
X219795Y80420D01*
X219746Y80286D01*
X219693Y80154D01*
X219637Y80023D01*
X219577Y79894D01*
X219513Y79766D01*
X219446Y79641D01*
X219375Y79517D01*
X219301Y79395D01*
X219224Y79276D01*
X219143Y79158D01*
X219059Y79043D01*
X218972Y78931D01*
X218881Y78821D01*
X218788Y78713D01*
X218691Y78608D01*
X218592Y78506D01*
X218490Y78407D01*
X218385Y78310D01*
X218277Y78217D01*
X218167Y78126D01*
X218055Y78039D01*
X217940Y77955D01*
X217822Y77874D01*
X217703Y77797D01*
X217581Y77723D01*
X217457Y77652D01*
X217332Y77585D01*
X217204Y77521D01*
X217075Y77461D01*
X216944Y77405D01*
X216812Y77352D01*
X216678Y77303D01*
X216543Y77258D01*
X216406Y77217D01*
X216269Y77179D01*
X216130Y77145D01*
X215991Y77116D01*
X215851Y77090D01*
X215710Y77068D01*
X215569Y77050D01*
X215427Y77036D01*
X215285Y77026D01*
X215142Y77020D01*
X215000Y77018D01*
X214858Y77020D01*
X214715Y77026D01*
X214573Y77036D01*
X214431Y77050D01*
X214290Y77068D01*
X214149Y77090D01*
X214009Y77116D01*
X213870Y77145D01*
X213731Y77179D01*
X213594Y77217D01*
X213457Y77258D01*
X213322Y77303D01*
X213188Y77352D01*
X213056Y77405D01*
X212925Y77461D01*
X212796Y77521D01*
X212668Y77585D01*
X212543Y77652D01*
X212419Y77723D01*
X212297Y77797D01*
X212178Y77874D01*
X212060Y77955D01*
X211945Y78039D01*
X211833Y78126D01*
X211723Y78217D01*
X211615Y78310D01*
X211510Y78407D01*
X211408Y78506D01*
X211309Y78608D01*
X211212Y78713D01*
X211119Y78821D01*
X211028Y78931D01*
X210941Y79043D01*
X210857Y79158D01*
X210776Y79276D01*
X210699Y79395D01*
X210625Y79517D01*
X210554Y79641D01*
X210487Y79766D01*
X210423Y79894D01*
X210363Y80023D01*
X210307Y80154D01*
X210254Y80286D01*
X210205Y80420D01*
X210160Y80555D01*
X210119Y80692D01*
X210081Y80829D01*
X210047Y80968D01*
X210018Y81107D01*
X209992Y81247D01*
X209970Y81388D01*
X209952Y81529D01*
X209938Y81671D01*
X209928Y81813D01*
X209922Y81956D01*
X209920Y82098D01*
X259958Y82098D02*
X259960Y82240D01*
X259966Y82383D01*
X259976Y82525D01*
X259990Y82667D01*
X260008Y82808D01*
X260030Y82949D01*
X260056Y83089D01*
X260085Y83228D01*
X260119Y83367D01*
X260157Y83504D01*
X260198Y83641D01*
X260243Y83776D01*
X260292Y83910D01*
X260345Y84042D01*
X260401Y84173D01*
X260461Y84302D01*
X260525Y84430D01*
X260592Y84555D01*
X260663Y84679D01*
X260737Y84801D01*
X260814Y84920D01*
X260895Y85038D01*
X260979Y85153D01*
X261066Y85265D01*
X261157Y85375D01*
X261250Y85483D01*
X261347Y85588D01*
X261446Y85690D01*
X261548Y85789D01*
X261653Y85886D01*
X261761Y85979D01*
X261871Y86070D01*
X261983Y86157D01*
X262098Y86241D01*
X262216Y86322D01*
X262335Y86399D01*
X262457Y86473D01*
X262581Y86544D01*
X262706Y86611D01*
X262834Y86675D01*
X262963Y86735D01*
X263094Y86791D01*
X263226Y86844D01*
X263360Y86893D01*
X263495Y86938D01*
X263632Y86979D01*
X263769Y87017D01*
X263908Y87051D01*
X264047Y87080D01*
X264187Y87106D01*
X264328Y87128D01*
X264469Y87146D01*
X264611Y87160D01*
X264753Y87170D01*
X264896Y87176D01*
X265038Y87178D01*
X265180Y87176D01*
X265323Y87170D01*
X265465Y87160D01*
X265607Y87146D01*
X265748Y87128D01*
X265889Y87106D01*
X266029Y87080D01*
X266168Y87051D01*
X266307Y87017D01*
X266444Y86979D01*
X266581Y86938D01*
X266716Y86893D01*
X266850Y86844D01*
X266982Y86791D01*
X267113Y86735D01*
X267242Y86675D01*
X267370Y86611D01*
X267495Y86544D01*
X267619Y86473D01*
X267741Y86399D01*
X267860Y86322D01*
X267978Y86241D01*
X268093Y86157D01*
X268205Y86070D01*
X268315Y85979D01*
X268423Y85886D01*
X268528Y85789D01*
X268630Y85690D01*
X268729Y85588D01*
X268826Y85483D01*
X268919Y85375D01*
X269010Y85265D01*
X269097Y85153D01*
X269181Y85038D01*
X269262Y84920D01*
X269339Y84801D01*
X269413Y84679D01*
X269484Y84555D01*
X269551Y84430D01*
X269615Y84302D01*
X269675Y84173D01*
X269731Y84042D01*
X269784Y83910D01*
X269833Y83776D01*
X269878Y83641D01*
X269919Y83504D01*
X269957Y83367D01*
X269991Y83228D01*
X270020Y83089D01*
X270046Y82949D01*
X270068Y82808D01*
X270086Y82667D01*
X270100Y82525D01*
X270110Y82383D01*
X270116Y82240D01*
X270118Y82098D01*
X270116Y81956D01*
X270110Y81813D01*
X270100Y81671D01*
X270086Y81529D01*
X270068Y81388D01*
X270046Y81247D01*
X270020Y81107D01*
X269991Y80968D01*
X269957Y80829D01*
X269919Y80692D01*
X269878Y80555D01*
X269833Y80420D01*
X269784Y80286D01*
X269731Y80154D01*
X269675Y80023D01*
X269615Y79894D01*
X269551Y79766D01*
X269484Y79641D01*
X269413Y79517D01*
X269339Y79395D01*
X269262Y79276D01*
X269181Y79158D01*
X269097Y79043D01*
X269010Y78931D01*
X268919Y78821D01*
X268826Y78713D01*
X268729Y78608D01*
X268630Y78506D01*
X268528Y78407D01*
X268423Y78310D01*
X268315Y78217D01*
X268205Y78126D01*
X268093Y78039D01*
X267978Y77955D01*
X267860Y77874D01*
X267741Y77797D01*
X267619Y77723D01*
X267495Y77652D01*
X267370Y77585D01*
X267242Y77521D01*
X267113Y77461D01*
X266982Y77405D01*
X266850Y77352D01*
X266716Y77303D01*
X266581Y77258D01*
X266444Y77217D01*
X266307Y77179D01*
X266168Y77145D01*
X266029Y77116D01*
X265889Y77090D01*
X265748Y77068D01*
X265607Y77050D01*
X265465Y77036D01*
X265323Y77026D01*
X265180Y77020D01*
X265038Y77018D01*
X264896Y77020D01*
X264753Y77026D01*
X264611Y77036D01*
X264469Y77050D01*
X264328Y77068D01*
X264187Y77090D01*
X264047Y77116D01*
X263908Y77145D01*
X263769Y77179D01*
X263632Y77217D01*
X263495Y77258D01*
X263360Y77303D01*
X263226Y77352D01*
X263094Y77405D01*
X262963Y77461D01*
X262834Y77521D01*
X262706Y77585D01*
X262581Y77652D01*
X262457Y77723D01*
X262335Y77797D01*
X262216Y77874D01*
X262098Y77955D01*
X261983Y78039D01*
X261871Y78126D01*
X261761Y78217D01*
X261653Y78310D01*
X261548Y78407D01*
X261446Y78506D01*
X261347Y78608D01*
X261250Y78713D01*
X261157Y78821D01*
X261066Y78931D01*
X260979Y79043D01*
X260895Y79158D01*
X260814Y79276D01*
X260737Y79395D01*
X260663Y79517D01*
X260592Y79641D01*
X260525Y79766D01*
X260461Y79894D01*
X260401Y80023D01*
X260345Y80154D01*
X260292Y80286D01*
X260243Y80420D01*
X260198Y80555D01*
X260157Y80692D01*
X260119Y80829D01*
X260085Y80968D01*
X260056Y81107D01*
X260030Y81247D01*
X260008Y81388D01*
X259990Y81529D01*
X259976Y81671D01*
X259966Y81813D01*
X259960Y81956D01*
X259958Y82098D01*
D13*
X209793Y22027D02*
X202173Y10597D01*
X209793Y10597D02*
X202173Y22027D01*
X214238Y19487D02*
X217413Y22027D01*
X217413Y10597D01*
X214238Y10597D02*
X220588Y10597D01*
X195315Y75875D02*
X198490Y78415D01*
X198490Y66985D01*
X195315Y66985D02*
X201665Y66985D01*
X248338Y78416D02*
X248442Y78414D01*
X248547Y78408D01*
X248651Y78399D01*
X248754Y78386D01*
X248857Y78368D01*
X248959Y78348D01*
X249061Y78323D01*
X249161Y78295D01*
X249261Y78263D01*
X249359Y78227D01*
X249456Y78188D01*
X249551Y78146D01*
X249645Y78100D01*
X249737Y78050D01*
X249827Y77998D01*
X249915Y77942D01*
X250001Y77882D01*
X250085Y77820D01*
X250166Y77755D01*
X250245Y77687D01*
X250322Y77615D01*
X250395Y77542D01*
X250467Y77465D01*
X250535Y77386D01*
X250600Y77305D01*
X250662Y77221D01*
X250722Y77135D01*
X250778Y77047D01*
X250830Y76957D01*
X250880Y76865D01*
X250926Y76771D01*
X250968Y76676D01*
X251007Y76579D01*
X251043Y76481D01*
X251075Y76381D01*
X251103Y76281D01*
X251128Y76179D01*
X251148Y76077D01*
X251166Y75974D01*
X251179Y75871D01*
X251188Y75767D01*
X251194Y75662D01*
X251196Y75558D01*
X248338Y78415D02*
X248220Y78413D01*
X248101Y78407D01*
X247983Y78398D01*
X247866Y78385D01*
X247749Y78367D01*
X247632Y78347D01*
X247516Y78322D01*
X247401Y78294D01*
X247288Y78261D01*
X247175Y78226D01*
X247063Y78186D01*
X246953Y78144D01*
X246844Y78097D01*
X246736Y78047D01*
X246631Y77994D01*
X246527Y77937D01*
X246425Y77877D01*
X246325Y77814D01*
X246227Y77747D01*
X246131Y77678D01*
X246038Y77605D01*
X245947Y77529D01*
X245858Y77451D01*
X245772Y77369D01*
X245689Y77285D01*
X245608Y77199D01*
X245531Y77109D01*
X245456Y77018D01*
X245384Y76924D01*
X245315Y76827D01*
X245250Y76729D01*
X245187Y76628D01*
X245128Y76525D01*
X245072Y76421D01*
X245020Y76315D01*
X244971Y76207D01*
X244926Y76098D01*
X244884Y75987D01*
X244846Y75875D01*
X250243Y73336D02*
X250319Y73411D01*
X250394Y73490D01*
X250465Y73571D01*
X250534Y73655D01*
X250599Y73741D01*
X250661Y73829D01*
X250721Y73919D01*
X250777Y74011D01*
X250830Y74106D01*
X250879Y74202D01*
X250925Y74300D01*
X250968Y74399D01*
X251007Y74500D01*
X251042Y74602D01*
X251074Y74705D01*
X251102Y74809D01*
X251127Y74914D01*
X251148Y75021D01*
X251165Y75127D01*
X251178Y75234D01*
X251187Y75342D01*
X251193Y75450D01*
X251195Y75558D01*
X250243Y73335D02*
X244845Y66985D01*
X251195Y66985D01*
D12*
X62750Y55550D02*
X62750Y42850D01*
X-10000Y-1000D02*
X-10000Y201000D01*
X80000Y201000D02*
X80000Y122000D01*
X80000Y78000D01*
X80000Y-1000D01*
X-9000Y-1000D01*
X-10000Y201000D02*
X80000Y201000D01*
X80000Y78000D02*
X65000Y78000D01*
X65000Y122000D01*
X80000Y122000D01*
D13*
X71916Y-4775D02*
X71916Y-8529D01*
X71914Y-8594D01*
X71908Y-8658D01*
X71898Y-8722D01*
X71885Y-8786D01*
X71867Y-8848D01*
X71846Y-8909D01*
X71822Y-8969D01*
X71793Y-9027D01*
X71761Y-9084D01*
X71726Y-9138D01*
X71688Y-9190D01*
X71646Y-9240D01*
X71602Y-9287D01*
X71555Y-9331D01*
X71505Y-9373D01*
X71453Y-9411D01*
X71399Y-9446D01*
X71342Y-9478D01*
X71284Y-9507D01*
X71224Y-9531D01*
X71163Y-9552D01*
X71101Y-9570D01*
X71037Y-9583D01*
X70973Y-9593D01*
X70909Y-9599D01*
X70844Y-9601D01*
X70307Y-9601D01*
X74864Y-5847D02*
X76204Y-4775D01*
X76204Y-9601D01*
X74864Y-9601D02*
X77545Y-9601D01*
D12*
X417250Y144450D02*
X417250Y157150D01*
X490000Y201000D02*
X490000Y-1000D01*
X400000Y-1000D02*
X400000Y78000D01*
X400000Y122000D01*
X400000Y201000D01*
X489000Y201000D01*
X490000Y-1000D02*
X400000Y-1000D01*
X400000Y122000D02*
X415000Y122000D01*
X415000Y78000D01*
X400000Y78000D01*
D13*
X404064Y205847D02*
X404064Y209601D01*
X404063Y205847D02*
X404061Y205782D01*
X404055Y205718D01*
X404045Y205654D01*
X404032Y205590D01*
X404014Y205528D01*
X403993Y205467D01*
X403969Y205407D01*
X403940Y205349D01*
X403908Y205292D01*
X403873Y205238D01*
X403835Y205186D01*
X403793Y205136D01*
X403749Y205089D01*
X403702Y205045D01*
X403652Y205003D01*
X403600Y204965D01*
X403546Y204930D01*
X403489Y204898D01*
X403431Y204869D01*
X403371Y204845D01*
X403310Y204824D01*
X403248Y204806D01*
X403184Y204793D01*
X403120Y204783D01*
X403056Y204777D01*
X402991Y204775D01*
X402455Y204775D01*
X408486Y209601D02*
X408554Y209599D01*
X408621Y209593D01*
X408688Y209584D01*
X408755Y209571D01*
X408820Y209554D01*
X408885Y209533D01*
X408948Y209509D01*
X409010Y209481D01*
X409070Y209450D01*
X409128Y209416D01*
X409184Y209378D01*
X409239Y209338D01*
X409290Y209294D01*
X409339Y209247D01*
X409386Y209198D01*
X409430Y209147D01*
X409470Y209092D01*
X409508Y209036D01*
X409542Y208978D01*
X409573Y208918D01*
X409601Y208856D01*
X409625Y208793D01*
X409646Y208728D01*
X409663Y208663D01*
X409676Y208596D01*
X409685Y208529D01*
X409691Y208462D01*
X409693Y208394D01*
X408486Y209601D02*
X408408Y209599D01*
X408330Y209593D01*
X408253Y209583D01*
X408176Y209570D01*
X408100Y209552D01*
X408025Y209531D01*
X407951Y209506D01*
X407879Y209477D01*
X407808Y209445D01*
X407739Y209409D01*
X407671Y209370D01*
X407606Y209327D01*
X407543Y209281D01*
X407482Y209232D01*
X407424Y209180D01*
X407369Y209125D01*
X407316Y209068D01*
X407267Y209008D01*
X407220Y208945D01*
X407177Y208881D01*
X407137Y208814D01*
X407100Y208745D01*
X407067Y208674D01*
X407037Y208602D01*
X407011Y208529D01*
X409291Y207456D02*
X409340Y207505D01*
X409387Y207557D01*
X409430Y207612D01*
X409471Y207669D01*
X409509Y207728D01*
X409543Y207789D01*
X409574Y207852D01*
X409602Y207916D01*
X409626Y207982D01*
X409646Y208048D01*
X409663Y208116D01*
X409676Y208185D01*
X409685Y208254D01*
X409691Y208324D01*
X409693Y208394D01*
X409291Y207456D02*
X407012Y204775D01*
X409693Y204775D01*
X235825Y190781D02*
X235825Y185955D01*
X235825Y188636D02*
X238506Y188636D01*
X238506Y190781D02*
X238506Y185955D01*
X241494Y189709D02*
X242835Y190781D01*
X242835Y185955D01*
X244175Y185955D02*
X241494Y185955D01*
M02*
