G75*
%MOIN*%
%OFA0B0*%
%FSLAX25Y25*%
%IPPOS*%
%LPD*%
%AMOC8*
5,1,8,0,0,1.08239X$1,22.5*
%
%ADD10OC8,0.06000*%
%ADD11OC8,0.07050*%
%ADD12OC8,0.07400*%
%ADD13C,0.01000*%
%ADD14C,0.03000*%
%ADD15OC8,0.05250*%
D10*
X0063981Y0026500D03*
X0073981Y0026500D03*
X0083981Y0026500D03*
X0083981Y0036500D03*
X0073981Y0036500D03*
X0063981Y0036500D03*
X0063981Y0046500D03*
X0073981Y0046500D03*
X0083981Y0046500D03*
X0083981Y0056500D03*
X0073981Y0056500D03*
X0063981Y0056500D03*
X0063981Y0066500D03*
X0073981Y0066500D03*
X0083981Y0066500D03*
X0143981Y0066500D03*
X0153981Y0066500D03*
X0163981Y0066500D03*
X0163981Y0056500D03*
X0153981Y0056500D03*
X0143981Y0056500D03*
X0143981Y0046500D03*
X0153981Y0046500D03*
X0163981Y0046500D03*
X0163981Y0036500D03*
X0153981Y0036500D03*
X0143981Y0036500D03*
X0143981Y0026500D03*
X0153981Y0026500D03*
X0163981Y0026500D03*
D11*
X0123823Y0026500D03*
X0104138Y0026500D03*
D12*
X0038981Y0026500D03*
X0028981Y0026500D03*
X0028981Y0036500D03*
X0038981Y0036500D03*
X0038981Y0046500D03*
X0028981Y0046500D03*
X0028981Y0056500D03*
X0038981Y0056500D03*
X0038981Y0066500D03*
X0028981Y0066500D03*
X0188981Y0066500D03*
X0198981Y0066500D03*
X0198981Y0056500D03*
X0188981Y0056500D03*
X0188981Y0046500D03*
X0198981Y0046500D03*
X0198981Y0036500D03*
X0188981Y0036500D03*
X0188981Y0026500D03*
X0198981Y0026500D03*
D13*
X0012970Y0005490D02*
X0011407Y0007641D01*
X0010585Y0010170D01*
X0010481Y0011500D01*
X0185021Y0011500D01*
X0186019Y0010501D02*
X0010559Y0010501D01*
X0010481Y0011500D02*
X0010481Y0081500D01*
X0010585Y0082824D01*
X0011403Y0085341D01*
X0012959Y0087483D01*
X0015100Y0089038D01*
X0017618Y0089856D01*
X0018941Y0089961D01*
X0210771Y0089961D01*
X0212150Y0089537D01*
X0214838Y0087949D01*
X0216902Y0085608D01*
X0218143Y0082744D01*
X0218438Y0079637D01*
X0218273Y0078478D01*
X0218187Y0078393D01*
X0218183Y0077931D01*
X0218082Y0077480D01*
X0218178Y0077329D01*
X0217685Y0015642D01*
X0217582Y0015480D01*
X0217680Y0015041D01*
X0217677Y0014591D01*
X0217771Y0014495D01*
X0217938Y0013324D01*
X0217643Y0010217D01*
X0216402Y0007353D01*
X0214338Y0005012D01*
X0211650Y0003424D01*
X0210271Y0003000D01*
X0018981Y0003000D01*
X0017651Y0003105D01*
X0015122Y0003926D01*
X0012970Y0005490D01*
X0012956Y0005509D02*
X0214776Y0005509D01*
X0215657Y0006507D02*
X0012231Y0006507D01*
X0011505Y0007506D02*
X0216469Y0007506D01*
X0216901Y0008504D02*
X0011127Y0008504D01*
X0010802Y0009503D02*
X0187018Y0009503D01*
X0187395Y0009126D02*
X0186607Y0009914D01*
X0168281Y0028240D01*
X0168281Y0024719D01*
X0165762Y0022200D01*
X0162200Y0022200D01*
X0159681Y0024719D01*
X0159681Y0028281D01*
X0162200Y0030800D01*
X0165721Y0030800D01*
X0164321Y0032200D01*
X0162200Y0032200D01*
X0159681Y0034719D01*
X0159681Y0038281D01*
X0162200Y0040800D01*
X0165762Y0040800D01*
X0168281Y0038281D01*
X0168281Y0036160D01*
X0190141Y0014300D01*
X0202821Y0014300D01*
X0211181Y0022660D01*
X0211181Y0030340D01*
X0207821Y0033700D01*
X0203252Y0033700D01*
X0201052Y0031500D01*
X0196910Y0031500D01*
X0194122Y0034288D01*
X0191335Y0031500D01*
X0194122Y0028712D01*
X0196910Y0031500D01*
X0201052Y0031500D01*
X0203981Y0028571D01*
X0203981Y0024429D01*
X0201052Y0021500D01*
X0196910Y0021500D01*
X0194122Y0024288D01*
X0191135Y0021300D01*
X0189481Y0021300D01*
X0189481Y0026000D01*
X0188481Y0026000D01*
X0188481Y0021300D01*
X0186827Y0021300D01*
X0183781Y0024346D01*
X0183781Y0026000D01*
X0188481Y0026000D01*
X0188481Y0027000D01*
X0188481Y0036000D01*
X0189481Y0036000D01*
X0189481Y0031700D01*
X0189481Y0027000D01*
X0188481Y0027000D01*
X0183781Y0027000D01*
X0183781Y0028654D01*
X0186627Y0031500D01*
X0183781Y0034346D01*
X0183781Y0036000D01*
X0188481Y0036000D01*
X0188481Y0037000D01*
X0188481Y0046000D01*
X0189481Y0046000D01*
X0189481Y0041300D01*
X0189481Y0037000D01*
X0188481Y0037000D01*
X0183781Y0037000D01*
X0183781Y0038654D01*
X0186627Y0041500D01*
X0183781Y0044346D01*
X0183781Y0046000D01*
X0188481Y0046000D01*
X0188481Y0047000D01*
X0188481Y0056000D01*
X0189481Y0056000D01*
X0189481Y0051300D01*
X0189481Y0047000D01*
X0188481Y0047000D01*
X0183781Y0047000D01*
X0183781Y0048654D01*
X0186627Y0051500D01*
X0183781Y0054346D01*
X0183781Y0056000D01*
X0188481Y0056000D01*
X0188481Y0057000D01*
X0188481Y0066000D01*
X0189481Y0066000D01*
X0189481Y0061300D01*
X0189481Y0057000D01*
X0188481Y0057000D01*
X0183781Y0057000D01*
X0183781Y0058654D01*
X0186627Y0061500D01*
X0183781Y0064346D01*
X0183781Y0066000D01*
X0188481Y0066000D01*
X0188481Y0067000D01*
X0188481Y0071700D01*
X0186827Y0071700D01*
X0183781Y0068654D01*
X0183781Y0067000D01*
X0188481Y0067000D01*
X0189481Y0067000D01*
X0189481Y0071700D01*
X0191135Y0071700D01*
X0194122Y0068712D01*
X0196910Y0071500D01*
X0201052Y0071500D01*
X0203981Y0068571D01*
X0203981Y0064429D01*
X0203852Y0064300D01*
X0211181Y0064300D01*
X0211181Y0070340D01*
X0202821Y0078700D01*
X0202332Y0078700D01*
X0202906Y0078126D01*
X0202906Y0074874D01*
X0200607Y0072575D01*
X0197355Y0072575D01*
X0196230Y0073700D01*
X0185515Y0073700D01*
X0181781Y0069966D01*
X0181781Y0060943D01*
X0181355Y0059914D01*
X0180567Y0059126D01*
X0168281Y0046840D01*
X0168281Y0044719D01*
X0165762Y0042200D01*
X0162200Y0042200D01*
X0159681Y0044719D01*
X0159681Y0048281D01*
X0162200Y0050800D01*
X0164321Y0050800D01*
X0165721Y0052200D01*
X0162200Y0052200D01*
X0159681Y0054719D01*
X0159681Y0058281D01*
X0162200Y0060800D01*
X0164321Y0060800D01*
X0165721Y0062200D01*
X0162200Y0062200D01*
X0159681Y0064719D01*
X0159681Y0068281D01*
X0162200Y0070800D01*
X0165762Y0070800D01*
X0168281Y0068281D01*
X0168281Y0064760D01*
X0171181Y0067660D01*
X0171181Y0072057D01*
X0171607Y0073086D01*
X0181607Y0083086D01*
X0181607Y0083086D01*
X0182395Y0083874D01*
X0183424Y0084300D01*
X0204538Y0084300D01*
X0205567Y0083874D01*
X0206355Y0083086D01*
X0206355Y0083086D01*
X0215567Y0073874D01*
X0216355Y0073086D01*
X0216781Y0072057D01*
X0216781Y0060943D01*
X0216355Y0059914D01*
X0215567Y0059126D01*
X0214538Y0058700D01*
X0205141Y0058700D01*
X0203981Y0057540D01*
X0203981Y0054429D01*
X0201052Y0051500D01*
X0196910Y0051500D01*
X0194122Y0054288D01*
X0191335Y0051500D01*
X0194122Y0048712D01*
X0196910Y0051500D01*
X0201052Y0051500D01*
X0203981Y0048571D01*
X0203981Y0044429D01*
X0201052Y0041500D01*
X0196910Y0041500D01*
X0194122Y0044288D01*
X0191335Y0041500D01*
X0194122Y0038712D01*
X0196910Y0041500D01*
X0201052Y0041500D01*
X0203252Y0039300D01*
X0209538Y0039300D01*
X0210567Y0038874D01*
X0211355Y0038086D01*
X0215567Y0033874D01*
X0216355Y0033086D01*
X0216781Y0032057D01*
X0216781Y0020943D01*
X0216355Y0019914D01*
X0215567Y0019126D01*
X0205567Y0009126D01*
X0204538Y0008700D01*
X0188424Y0008700D01*
X0187395Y0009126D01*
X0184022Y0012499D02*
X0010481Y0012499D01*
X0010481Y0013497D02*
X0183024Y0013497D01*
X0182025Y0014496D02*
X0010481Y0014496D01*
X0010481Y0015494D02*
X0181027Y0015494D01*
X0180028Y0016493D02*
X0010481Y0016493D01*
X0010481Y0017491D02*
X0179030Y0017491D01*
X0178031Y0018490D02*
X0010481Y0018490D01*
X0010481Y0019488D02*
X0177033Y0019488D01*
X0176034Y0020487D02*
X0010481Y0020487D01*
X0010481Y0021485D02*
X0026642Y0021485D01*
X0026827Y0021300D02*
X0023781Y0024346D01*
X0023781Y0026000D01*
X0028481Y0026000D01*
X0029481Y0026000D01*
X0029481Y0021300D01*
X0031135Y0021300D01*
X0034122Y0024288D01*
X0036910Y0021500D01*
X0041052Y0021500D01*
X0043981Y0024429D01*
X0043981Y0028571D01*
X0041052Y0031500D01*
X0043981Y0034429D01*
X0043981Y0038571D01*
X0041052Y0041500D01*
X0043981Y0044429D01*
X0043981Y0048571D01*
X0041052Y0051500D01*
X0043981Y0054429D01*
X0043981Y0058571D01*
X0041052Y0061500D01*
X0043981Y0064429D01*
X0043981Y0068571D01*
X0041052Y0071500D01*
X0036910Y0071500D01*
X0034122Y0068712D01*
X0031135Y0071700D01*
X0029481Y0071700D01*
X0029481Y0067000D01*
X0028481Y0067000D01*
X0028481Y0071700D01*
X0026827Y0071700D01*
X0023781Y0068654D01*
X0023781Y0067000D01*
X0028481Y0067000D01*
X0028481Y0066000D01*
X0029481Y0066000D01*
X0029481Y0061300D01*
X0029481Y0057000D01*
X0028481Y0057000D01*
X0028481Y0066000D01*
X0023781Y0066000D01*
X0023781Y0064346D01*
X0026627Y0061500D01*
X0023781Y0058654D01*
X0023781Y0057000D01*
X0028481Y0057000D01*
X0028481Y0056000D01*
X0029481Y0056000D01*
X0029481Y0051300D01*
X0029481Y0047000D01*
X0028481Y0047000D01*
X0028481Y0056000D01*
X0023781Y0056000D01*
X0023781Y0054346D01*
X0026627Y0051500D01*
X0023781Y0048654D01*
X0023781Y0047000D01*
X0028481Y0047000D01*
X0028481Y0046000D01*
X0029481Y0046000D01*
X0029481Y0041300D01*
X0029481Y0037000D01*
X0028481Y0037000D01*
X0028481Y0046000D01*
X0023781Y0046000D01*
X0023781Y0044346D01*
X0026627Y0041500D01*
X0023781Y0038654D01*
X0023781Y0037000D01*
X0028481Y0037000D01*
X0028481Y0036000D01*
X0029481Y0036000D01*
X0029481Y0031300D01*
X0029481Y0027000D01*
X0028481Y0027000D01*
X0028481Y0036000D01*
X0023781Y0036000D01*
X0023781Y0034346D01*
X0026627Y0031500D01*
X0023781Y0028654D01*
X0023781Y0027000D01*
X0028481Y0027000D01*
X0028481Y0026000D01*
X0028481Y0021300D01*
X0026827Y0021300D01*
X0028481Y0021485D02*
X0029481Y0021485D01*
X0029481Y0022484D02*
X0028481Y0022484D01*
X0028481Y0023482D02*
X0029481Y0023482D01*
X0029481Y0024481D02*
X0028481Y0024481D01*
X0028481Y0025479D02*
X0029481Y0025479D01*
X0028481Y0026478D02*
X0010481Y0026478D01*
X0010481Y0027476D02*
X0023781Y0027476D01*
X0023781Y0028475D02*
X0010481Y0028475D01*
X0010481Y0029473D02*
X0024600Y0029473D01*
X0025599Y0030472D02*
X0010481Y0030472D01*
X0010481Y0031470D02*
X0026597Y0031470D01*
X0025658Y0032469D02*
X0010481Y0032469D01*
X0010481Y0033467D02*
X0024660Y0033467D01*
X0028481Y0033467D02*
X0029481Y0033467D01*
X0029481Y0032469D02*
X0028481Y0032469D01*
X0028481Y0031470D02*
X0029481Y0031470D01*
X0029481Y0030472D02*
X0028481Y0030472D01*
X0028481Y0029473D02*
X0029481Y0029473D01*
X0029481Y0028475D02*
X0028481Y0028475D01*
X0028481Y0027476D02*
X0029481Y0027476D01*
X0033361Y0029473D02*
X0034883Y0029473D01*
X0034122Y0028712D02*
X0031335Y0031500D01*
X0034122Y0034288D01*
X0036910Y0031500D01*
X0041052Y0031500D01*
X0036910Y0031500D01*
X0034122Y0028712D01*
X0032363Y0030472D02*
X0035881Y0030472D01*
X0036880Y0031470D02*
X0031364Y0031470D01*
X0032303Y0032469D02*
X0035941Y0032469D01*
X0034942Y0033467D02*
X0033302Y0033467D01*
X0029481Y0034466D02*
X0028481Y0034466D01*
X0028481Y0035464D02*
X0029481Y0035464D01*
X0028481Y0036463D02*
X0010481Y0036463D01*
X0010481Y0037461D02*
X0023781Y0037461D01*
X0023781Y0038460D02*
X0010481Y0038460D01*
X0010481Y0039458D02*
X0024585Y0039458D01*
X0025584Y0040457D02*
X0010481Y0040457D01*
X0010481Y0041455D02*
X0026582Y0041455D01*
X0025673Y0042454D02*
X0010481Y0042454D01*
X0010481Y0043452D02*
X0024675Y0043452D01*
X0023781Y0044451D02*
X0010481Y0044451D01*
X0010481Y0045449D02*
X0023781Y0045449D01*
X0028481Y0045449D02*
X0029481Y0045449D01*
X0029481Y0044451D02*
X0028481Y0044451D01*
X0028481Y0043452D02*
X0029481Y0043452D01*
X0029481Y0042454D02*
X0028481Y0042454D01*
X0028481Y0041455D02*
X0029481Y0041455D01*
X0029481Y0040457D02*
X0028481Y0040457D01*
X0028481Y0039458D02*
X0029481Y0039458D01*
X0029481Y0038460D02*
X0028481Y0038460D01*
X0028481Y0037461D02*
X0029481Y0037461D01*
X0033376Y0039458D02*
X0034868Y0039458D01*
X0034122Y0038712D02*
X0031335Y0041500D01*
X0034122Y0044288D01*
X0036910Y0041500D01*
X0041052Y0041500D01*
X0036910Y0041500D01*
X0034122Y0038712D01*
X0032378Y0040457D02*
X0035867Y0040457D01*
X0036865Y0041455D02*
X0031379Y0041455D01*
X0032289Y0042454D02*
X0035956Y0042454D01*
X0034957Y0043452D02*
X0033287Y0043452D01*
X0028481Y0046448D02*
X0010481Y0046448D01*
X0010481Y0047446D02*
X0023781Y0047446D01*
X0023781Y0048445D02*
X0010481Y0048445D01*
X0010481Y0049443D02*
X0024570Y0049443D01*
X0025569Y0050442D02*
X0010481Y0050442D01*
X0010481Y0051440D02*
X0026567Y0051440D01*
X0025688Y0052439D02*
X0010481Y0052439D01*
X0010481Y0053437D02*
X0024689Y0053437D01*
X0023781Y0054436D02*
X0010481Y0054436D01*
X0010481Y0055434D02*
X0023781Y0055434D01*
X0023781Y0057432D02*
X0010481Y0057432D01*
X0010481Y0058430D02*
X0023781Y0058430D01*
X0024555Y0059429D02*
X0010481Y0059429D01*
X0010481Y0060427D02*
X0025554Y0060427D01*
X0028481Y0060427D02*
X0029481Y0060427D01*
X0029481Y0059429D02*
X0028481Y0059429D01*
X0028481Y0058430D02*
X0029481Y0058430D01*
X0029481Y0057432D02*
X0028481Y0057432D01*
X0028481Y0056433D02*
X0010481Y0056433D01*
X0010481Y0061426D02*
X0026552Y0061426D01*
X0025703Y0062424D02*
X0010481Y0062424D01*
X0010481Y0063423D02*
X0024704Y0063423D01*
X0023781Y0064421D02*
X0010481Y0064421D01*
X0010481Y0065420D02*
X0023781Y0065420D01*
X0023781Y0067417D02*
X0010481Y0067417D01*
X0010481Y0068415D02*
X0023781Y0068415D01*
X0024541Y0069414D02*
X0010481Y0069414D01*
X0010481Y0070412D02*
X0025539Y0070412D01*
X0026538Y0071411D02*
X0010481Y0071411D01*
X0010481Y0072409D02*
X0106254Y0072409D01*
X0105808Y0072151D02*
X0103329Y0069673D01*
X0101577Y0066638D01*
X0100670Y0063252D01*
X0100670Y0059748D01*
X0101577Y0056362D01*
X0103329Y0053327D01*
X0105808Y0050849D01*
X0108843Y0049096D01*
X0112228Y0048189D01*
X0115733Y0048189D01*
X0119119Y0049096D01*
X0122154Y0050849D01*
X0124632Y0053327D01*
X0126385Y0056362D01*
X0127292Y0059748D01*
X0127292Y0063252D01*
X0126385Y0066638D01*
X0124632Y0069673D01*
X0122154Y0072151D01*
X0119119Y0073904D01*
X0115733Y0074811D01*
X0112228Y0074811D01*
X0108843Y0073904D01*
X0105808Y0072151D01*
X0105067Y0071411D02*
X0041141Y0071411D01*
X0042140Y0070412D02*
X0061812Y0070412D01*
X0062200Y0070800D02*
X0059681Y0068281D01*
X0059681Y0064719D01*
X0062200Y0062200D01*
X0065762Y0062200D01*
X0068281Y0064719D01*
X0068281Y0068281D01*
X0065762Y0070800D01*
X0062200Y0070800D01*
X0066150Y0070412D02*
X0071529Y0070412D01*
X0072117Y0071000D02*
X0069481Y0068364D01*
X0069481Y0067000D01*
X0073481Y0067000D01*
X0073481Y0071000D01*
X0072117Y0071000D01*
X0073481Y0070412D02*
X0074481Y0070412D01*
X0074481Y0071000D02*
X0075845Y0071000D01*
X0078481Y0068364D01*
X0078481Y0067000D01*
X0074481Y0067000D01*
X0074481Y0066000D01*
X0078481Y0066000D01*
X0078481Y0064636D01*
X0075845Y0062000D01*
X0074481Y0062000D01*
X0074481Y0066000D01*
X0073481Y0066000D01*
X0073481Y0062000D01*
X0072117Y0062000D01*
X0069481Y0064636D01*
X0069481Y0066000D01*
X0073481Y0066000D01*
X0073481Y0067000D01*
X0074481Y0067000D01*
X0074481Y0071000D01*
X0076433Y0070412D02*
X0081812Y0070412D01*
X0082200Y0070800D02*
X0079681Y0068281D01*
X0079681Y0064719D01*
X0082200Y0062200D01*
X0085762Y0062200D01*
X0088281Y0064719D01*
X0088281Y0068281D01*
X0085762Y0070800D01*
X0082200Y0070800D01*
X0086150Y0070412D02*
X0104068Y0070412D01*
X0103180Y0069414D02*
X0087148Y0069414D01*
X0088147Y0068415D02*
X0102603Y0068415D01*
X0102027Y0067417D02*
X0088281Y0067417D01*
X0088281Y0066418D02*
X0101518Y0066418D01*
X0101250Y0065420D02*
X0088281Y0065420D01*
X0087983Y0064421D02*
X0100983Y0064421D01*
X0100715Y0063423D02*
X0086984Y0063423D01*
X0085986Y0062424D02*
X0100670Y0062424D01*
X0100670Y0061426D02*
X0041126Y0061426D01*
X0041052Y0061500D02*
X0036910Y0061500D01*
X0041052Y0061500D01*
X0041976Y0062424D02*
X0061976Y0062424D01*
X0060977Y0063423D02*
X0042974Y0063423D01*
X0043973Y0064421D02*
X0059979Y0064421D01*
X0059681Y0065420D02*
X0043981Y0065420D01*
X0043981Y0066418D02*
X0059681Y0066418D01*
X0059681Y0067417D02*
X0043981Y0067417D01*
X0043981Y0068415D02*
X0059815Y0068415D01*
X0060813Y0069414D02*
X0043138Y0069414D01*
X0036820Y0071411D02*
X0031424Y0071411D01*
X0032423Y0070412D02*
X0035822Y0070412D01*
X0034823Y0069414D02*
X0033421Y0069414D01*
X0029481Y0069414D02*
X0028481Y0069414D01*
X0028481Y0070412D02*
X0029481Y0070412D01*
X0029481Y0071411D02*
X0028481Y0071411D01*
X0028481Y0068415D02*
X0029481Y0068415D01*
X0029481Y0067417D02*
X0028481Y0067417D01*
X0028481Y0066418D02*
X0010481Y0066418D01*
X0010481Y0073408D02*
X0107984Y0073408D01*
X0110718Y0074406D02*
X0010481Y0074406D01*
X0010481Y0075405D02*
X0173926Y0075405D01*
X0174924Y0076403D02*
X0010481Y0076403D01*
X0010481Y0077402D02*
X0175923Y0077402D01*
X0176921Y0078400D02*
X0010481Y0078400D01*
X0010481Y0079399D02*
X0177920Y0079399D01*
X0178918Y0080397D02*
X0010481Y0080397D01*
X0010481Y0081396D02*
X0179917Y0081396D01*
X0180915Y0082394D02*
X0010551Y0082394D01*
X0010770Y0083393D02*
X0181914Y0083393D01*
X0172927Y0074406D02*
X0117244Y0074406D01*
X0119978Y0073408D02*
X0171929Y0073408D01*
X0171327Y0072409D02*
X0121707Y0072409D01*
X0122895Y0071411D02*
X0171181Y0071411D01*
X0171181Y0070412D02*
X0166150Y0070412D01*
X0167148Y0069414D02*
X0171181Y0069414D01*
X0171181Y0068415D02*
X0168147Y0068415D01*
X0168281Y0067417D02*
X0170938Y0067417D01*
X0169939Y0066418D02*
X0168281Y0066418D01*
X0168281Y0065420D02*
X0168941Y0065420D01*
X0161976Y0062424D02*
X0156269Y0062424D01*
X0155845Y0062000D02*
X0154481Y0062000D01*
X0154481Y0066000D01*
X0154481Y0067000D01*
X0158481Y0067000D01*
X0158481Y0068364D01*
X0155845Y0071000D01*
X0154481Y0071000D01*
X0154481Y0067000D01*
X0153481Y0067000D01*
X0153481Y0071000D01*
X0152117Y0071000D01*
X0149481Y0068364D01*
X0149481Y0067000D01*
X0153481Y0067000D01*
X0153481Y0066000D01*
X0154481Y0066000D01*
X0158481Y0066000D01*
X0158481Y0064636D01*
X0155845Y0062000D01*
X0155845Y0061000D02*
X0154481Y0061000D01*
X0154481Y0057000D01*
X0158481Y0057000D01*
X0158481Y0058364D01*
X0155845Y0061000D01*
X0156418Y0060427D02*
X0161827Y0060427D01*
X0160828Y0059429D02*
X0157416Y0059429D01*
X0158415Y0058430D02*
X0159830Y0058430D01*
X0159681Y0057432D02*
X0158481Y0057432D01*
X0158481Y0056000D02*
X0154481Y0056000D01*
X0154481Y0057000D01*
X0153481Y0057000D01*
X0153481Y0061000D01*
X0152117Y0061000D01*
X0149481Y0058364D01*
X0149481Y0057000D01*
X0153481Y0057000D01*
X0153481Y0056000D01*
X0154481Y0056000D01*
X0154481Y0052000D01*
X0155845Y0052000D01*
X0158481Y0054636D01*
X0158481Y0056000D01*
X0158481Y0055434D02*
X0159681Y0055434D01*
X0159681Y0056433D02*
X0154481Y0056433D01*
X0154481Y0055434D02*
X0153481Y0055434D01*
X0153481Y0056000D02*
X0153481Y0052000D01*
X0152117Y0052000D01*
X0149481Y0054636D01*
X0149481Y0056000D01*
X0153481Y0056000D01*
X0153481Y0056433D02*
X0148281Y0056433D01*
X0148281Y0055434D02*
X0149481Y0055434D01*
X0149681Y0054436D02*
X0147998Y0054436D01*
X0148281Y0054719D02*
X0145762Y0052200D01*
X0142200Y0052200D01*
X0139681Y0054719D01*
X0139681Y0058281D01*
X0142200Y0060800D01*
X0145762Y0060800D01*
X0148281Y0058281D01*
X0148281Y0054719D01*
X0146999Y0053437D02*
X0150679Y0053437D01*
X0151678Y0052439D02*
X0146001Y0052439D01*
X0145762Y0050800D02*
X0142200Y0050800D01*
X0139681Y0048281D01*
X0139681Y0044719D01*
X0142200Y0042200D01*
X0145762Y0042200D01*
X0148281Y0044719D01*
X0148281Y0048281D01*
X0145762Y0050800D01*
X0146120Y0050442D02*
X0151559Y0050442D01*
X0152117Y0051000D02*
X0149481Y0048364D01*
X0149481Y0047000D01*
X0153481Y0047000D01*
X0153481Y0051000D01*
X0152117Y0051000D01*
X0153481Y0050442D02*
X0154481Y0050442D01*
X0154481Y0051000D02*
X0155845Y0051000D01*
X0158481Y0048364D01*
X0158481Y0047000D01*
X0154481Y0047000D01*
X0154481Y0046000D01*
X0158481Y0046000D01*
X0158481Y0044636D01*
X0155845Y0042000D01*
X0154481Y0042000D01*
X0154481Y0046000D01*
X0153481Y0046000D01*
X0153481Y0042000D01*
X0152117Y0042000D01*
X0149481Y0044636D01*
X0149481Y0046000D01*
X0153481Y0046000D01*
X0153481Y0047000D01*
X0154481Y0047000D01*
X0154481Y0051000D01*
X0154481Y0049443D02*
X0153481Y0049443D01*
X0153481Y0048445D02*
X0154481Y0048445D01*
X0154481Y0047446D02*
X0153481Y0047446D01*
X0153481Y0046448D02*
X0148281Y0046448D01*
X0148281Y0045449D02*
X0149481Y0045449D01*
X0149666Y0044451D02*
X0148013Y0044451D01*
X0147014Y0043452D02*
X0150664Y0043452D01*
X0151663Y0042454D02*
X0146016Y0042454D01*
X0145762Y0040800D02*
X0142200Y0040800D01*
X0139681Y0038281D01*
X0139681Y0034719D01*
X0142200Y0032200D01*
X0145762Y0032200D01*
X0148281Y0034719D01*
X0148281Y0038281D01*
X0145762Y0040800D01*
X0146105Y0040457D02*
X0151574Y0040457D01*
X0152117Y0041000D02*
X0149481Y0038364D01*
X0149481Y0037000D01*
X0153481Y0037000D01*
X0153481Y0041000D01*
X0152117Y0041000D01*
X0153481Y0040457D02*
X0154481Y0040457D01*
X0154481Y0041000D02*
X0155845Y0041000D01*
X0158481Y0038364D01*
X0158481Y0037000D01*
X0154481Y0037000D01*
X0154481Y0036000D01*
X0158481Y0036000D01*
X0158481Y0034636D01*
X0155845Y0032000D01*
X0154481Y0032000D01*
X0154481Y0036000D01*
X0153481Y0036000D01*
X0153481Y0032000D01*
X0152117Y0032000D01*
X0149481Y0034636D01*
X0149481Y0036000D01*
X0153481Y0036000D01*
X0153481Y0037000D01*
X0154481Y0037000D01*
X0154481Y0041000D01*
X0154481Y0042454D02*
X0153481Y0042454D01*
X0153481Y0043452D02*
X0154481Y0043452D01*
X0154481Y0044451D02*
X0153481Y0044451D01*
X0153481Y0045449D02*
X0154481Y0045449D01*
X0154481Y0046448D02*
X0159681Y0046448D01*
X0159681Y0045449D02*
X0158481Y0045449D01*
X0158296Y0044451D02*
X0159949Y0044451D01*
X0160947Y0043452D02*
X0157297Y0043452D01*
X0156299Y0042454D02*
X0161946Y0042454D01*
X0161857Y0040457D02*
X0156388Y0040457D01*
X0157386Y0039458D02*
X0160858Y0039458D01*
X0159859Y0038460D02*
X0158385Y0038460D01*
X0158481Y0037461D02*
X0159681Y0037461D01*
X0159681Y0036463D02*
X0154481Y0036463D01*
X0154481Y0037461D02*
X0153481Y0037461D01*
X0153481Y0036463D02*
X0148281Y0036463D01*
X0148281Y0037461D02*
X0149481Y0037461D01*
X0149577Y0038460D02*
X0148102Y0038460D01*
X0147104Y0039458D02*
X0150575Y0039458D01*
X0153481Y0039458D02*
X0154481Y0039458D01*
X0154481Y0038460D02*
X0153481Y0038460D01*
X0153481Y0035464D02*
X0154481Y0035464D01*
X0154481Y0034466D02*
X0153481Y0034466D01*
X0153481Y0033467D02*
X0154481Y0033467D01*
X0154481Y0032469D02*
X0153481Y0032469D01*
X0153481Y0031000D02*
X0152117Y0031000D01*
X0149481Y0028364D01*
X0149481Y0027000D01*
X0153481Y0027000D01*
X0153481Y0031000D01*
X0153481Y0030472D02*
X0154481Y0030472D01*
X0154481Y0031000D02*
X0155845Y0031000D01*
X0158481Y0028364D01*
X0158481Y0027000D01*
X0154481Y0027000D01*
X0154481Y0026000D01*
X0158481Y0026000D01*
X0158481Y0024636D01*
X0155845Y0022000D01*
X0154481Y0022000D01*
X0154481Y0026000D01*
X0153481Y0026000D01*
X0153481Y0022000D01*
X0152117Y0022000D01*
X0149481Y0024636D01*
X0149481Y0026000D01*
X0153481Y0026000D01*
X0153481Y0027000D01*
X0154481Y0027000D01*
X0154481Y0031000D01*
X0156373Y0030472D02*
X0161871Y0030472D01*
X0160873Y0029473D02*
X0157372Y0029473D01*
X0158370Y0028475D02*
X0159874Y0028475D01*
X0159681Y0027476D02*
X0158481Y0027476D01*
X0159681Y0026478D02*
X0154481Y0026478D01*
X0154481Y0027476D02*
X0153481Y0027476D01*
X0153481Y0026478D02*
X0148281Y0026478D01*
X0148281Y0027476D02*
X0149481Y0027476D01*
X0149592Y0028475D02*
X0148087Y0028475D01*
X0148281Y0028281D02*
X0145762Y0030800D01*
X0142200Y0030800D01*
X0139681Y0028281D01*
X0139681Y0024719D01*
X0142200Y0022200D01*
X0145762Y0022200D01*
X0148281Y0024719D01*
X0148281Y0028281D01*
X0147089Y0029473D02*
X0150590Y0029473D01*
X0151589Y0030472D02*
X0146090Y0030472D01*
X0146031Y0032469D02*
X0151648Y0032469D01*
X0150650Y0033467D02*
X0147029Y0033467D01*
X0148028Y0034466D02*
X0149651Y0034466D01*
X0149481Y0035464D02*
X0148281Y0035464D01*
X0141931Y0032469D02*
X0086031Y0032469D01*
X0085762Y0032200D02*
X0088281Y0034719D01*
X0088281Y0038281D01*
X0085762Y0040800D01*
X0082200Y0040800D01*
X0079681Y0038281D01*
X0079681Y0034719D01*
X0082200Y0032200D01*
X0085762Y0032200D01*
X0085762Y0030800D02*
X0082200Y0030800D01*
X0079681Y0028281D01*
X0079681Y0024719D01*
X0082200Y0022200D01*
X0085762Y0022200D01*
X0088281Y0024719D01*
X0088281Y0028281D01*
X0085762Y0030800D01*
X0086090Y0030472D02*
X0101286Y0030472D01*
X0102140Y0031325D02*
X0099313Y0028499D01*
X0099313Y0024501D01*
X0102140Y0021675D01*
X0106137Y0021675D01*
X0108963Y0024501D01*
X0108963Y0028499D01*
X0106137Y0031325D01*
X0102140Y0031325D01*
X0100288Y0029473D02*
X0087089Y0029473D01*
X0088087Y0028475D02*
X0099313Y0028475D01*
X0099313Y0027476D02*
X0088281Y0027476D01*
X0088281Y0026478D02*
X0099313Y0026478D01*
X0099313Y0025479D02*
X0088281Y0025479D01*
X0088043Y0024481D02*
X0099334Y0024481D01*
X0100333Y0023482D02*
X0087044Y0023482D01*
X0086046Y0022484D02*
X0101331Y0022484D01*
X0106945Y0022484D02*
X0120733Y0022484D01*
X0119735Y0023482D02*
X0107944Y0023482D01*
X0108942Y0024481D02*
X0118798Y0024481D01*
X0118798Y0024419D02*
X0121742Y0021475D01*
X0123323Y0021475D01*
X0123323Y0026000D01*
X0118798Y0026000D01*
X0118798Y0024419D01*
X0118798Y0025479D02*
X0108963Y0025479D01*
X0108963Y0026478D02*
X0123323Y0026478D01*
X0123323Y0026000D02*
X0123323Y0027000D01*
X0118798Y0027000D01*
X0118798Y0028581D01*
X0121742Y0031525D01*
X0123323Y0031525D01*
X0123323Y0027000D01*
X0124323Y0027000D01*
X0124323Y0031525D01*
X0125905Y0031525D01*
X0128848Y0028581D01*
X0128848Y0027000D01*
X0124323Y0027000D01*
X0124323Y0026000D01*
X0124323Y0021475D01*
X0125905Y0021475D01*
X0128848Y0024419D01*
X0128848Y0026000D01*
X0124323Y0026000D01*
X0123323Y0026000D01*
X0123323Y0025479D02*
X0124323Y0025479D01*
X0124323Y0024481D02*
X0123323Y0024481D01*
X0123323Y0023482D02*
X0124323Y0023482D01*
X0124323Y0022484D02*
X0123323Y0022484D01*
X0123323Y0021485D02*
X0124323Y0021485D01*
X0125915Y0021485D02*
X0175036Y0021485D01*
X0174037Y0022484D02*
X0166046Y0022484D01*
X0167044Y0023482D02*
X0173039Y0023482D01*
X0172040Y0024481D02*
X0168043Y0024481D01*
X0168281Y0025479D02*
X0171042Y0025479D01*
X0170043Y0026478D02*
X0168281Y0026478D01*
X0168281Y0027476D02*
X0169045Y0027476D01*
X0173969Y0030472D02*
X0185599Y0030472D01*
X0186597Y0031470D02*
X0172970Y0031470D01*
X0171972Y0032469D02*
X0185658Y0032469D01*
X0184660Y0033467D02*
X0170973Y0033467D01*
X0169975Y0034466D02*
X0183781Y0034466D01*
X0183781Y0035464D02*
X0168976Y0035464D01*
X0168281Y0036463D02*
X0188481Y0036463D01*
X0188481Y0037461D02*
X0189481Y0037461D01*
X0189481Y0038460D02*
X0188481Y0038460D01*
X0188481Y0039458D02*
X0189481Y0039458D01*
X0189481Y0040457D02*
X0188481Y0040457D01*
X0188481Y0041455D02*
X0189481Y0041455D01*
X0189481Y0042454D02*
X0188481Y0042454D01*
X0188481Y0043452D02*
X0189481Y0043452D01*
X0189481Y0044451D02*
X0188481Y0044451D01*
X0188481Y0045449D02*
X0189481Y0045449D01*
X0188481Y0046448D02*
X0168281Y0046448D01*
X0168281Y0045449D02*
X0183781Y0045449D01*
X0183781Y0044451D02*
X0168013Y0044451D01*
X0167014Y0043452D02*
X0184675Y0043452D01*
X0185673Y0042454D02*
X0166016Y0042454D01*
X0166105Y0040457D02*
X0185584Y0040457D01*
X0186582Y0041455D02*
X0041096Y0041455D01*
X0042006Y0042454D02*
X0061946Y0042454D01*
X0062200Y0042200D02*
X0065762Y0042200D01*
X0068281Y0044719D01*
X0068281Y0048281D01*
X0065762Y0050800D01*
X0062200Y0050800D01*
X0059681Y0048281D01*
X0059681Y0044719D01*
X0062200Y0042200D01*
X0060947Y0043452D02*
X0043004Y0043452D01*
X0043981Y0044451D02*
X0059949Y0044451D01*
X0059681Y0045449D02*
X0043981Y0045449D01*
X0043981Y0046448D02*
X0059681Y0046448D01*
X0059681Y0047446D02*
X0043981Y0047446D01*
X0043981Y0048445D02*
X0059845Y0048445D01*
X0060843Y0049443D02*
X0043108Y0049443D01*
X0042110Y0050442D02*
X0061842Y0050442D01*
X0062200Y0052200D02*
X0065762Y0052200D01*
X0068281Y0054719D01*
X0068281Y0058281D01*
X0065762Y0060800D01*
X0062200Y0060800D01*
X0059681Y0058281D01*
X0059681Y0054719D01*
X0062200Y0052200D01*
X0061961Y0052439D02*
X0041991Y0052439D01*
X0041052Y0051500D02*
X0036910Y0051500D01*
X0034122Y0054288D01*
X0031335Y0051500D01*
X0034122Y0048712D01*
X0036910Y0051500D01*
X0041052Y0051500D01*
X0041111Y0051440D02*
X0105216Y0051440D01*
X0104217Y0052439D02*
X0086001Y0052439D01*
X0085762Y0052200D02*
X0088281Y0054719D01*
X0088281Y0058281D01*
X0085762Y0060800D01*
X0082200Y0060800D01*
X0079681Y0058281D01*
X0079681Y0054719D01*
X0082200Y0052200D01*
X0085762Y0052200D01*
X0086999Y0053437D02*
X0103265Y0053437D01*
X0102689Y0054436D02*
X0087998Y0054436D01*
X0088281Y0055434D02*
X0102112Y0055434D01*
X0101558Y0056433D02*
X0088281Y0056433D01*
X0088281Y0057432D02*
X0101290Y0057432D01*
X0101023Y0058430D02*
X0088132Y0058430D01*
X0087133Y0059429D02*
X0100755Y0059429D01*
X0100670Y0060427D02*
X0086135Y0060427D01*
X0081827Y0060427D02*
X0076418Y0060427D01*
X0075845Y0061000D02*
X0074481Y0061000D01*
X0074481Y0057000D01*
X0078481Y0057000D01*
X0078481Y0058364D01*
X0075845Y0061000D01*
X0074481Y0060427D02*
X0073481Y0060427D01*
X0073481Y0061000D02*
X0072117Y0061000D01*
X0069481Y0058364D01*
X0069481Y0057000D01*
X0073481Y0057000D01*
X0073481Y0061000D01*
X0071544Y0060427D02*
X0066135Y0060427D01*
X0067133Y0059429D02*
X0070545Y0059429D01*
X0069547Y0058430D02*
X0068132Y0058430D01*
X0068281Y0057432D02*
X0069481Y0057432D01*
X0069481Y0056000D02*
X0069481Y0054636D01*
X0072117Y0052000D01*
X0073481Y0052000D01*
X0073481Y0056000D01*
X0074481Y0056000D01*
X0074481Y0057000D01*
X0073481Y0057000D01*
X0073481Y0056000D01*
X0069481Y0056000D01*
X0069481Y0055434D02*
X0068281Y0055434D01*
X0068281Y0056433D02*
X0073481Y0056433D01*
X0073481Y0055434D02*
X0074481Y0055434D01*
X0074481Y0056000D02*
X0074481Y0052000D01*
X0075845Y0052000D01*
X0078481Y0054636D01*
X0078481Y0056000D01*
X0074481Y0056000D01*
X0074481Y0056433D02*
X0079681Y0056433D01*
X0079681Y0055434D02*
X0078481Y0055434D01*
X0078281Y0054436D02*
X0079964Y0054436D01*
X0080962Y0053437D02*
X0077282Y0053437D01*
X0076284Y0052439D02*
X0081961Y0052439D01*
X0082200Y0050800D02*
X0079681Y0048281D01*
X0079681Y0044719D01*
X0082200Y0042200D01*
X0085762Y0042200D01*
X0088281Y0044719D01*
X0088281Y0048281D01*
X0085762Y0050800D01*
X0082200Y0050800D01*
X0081842Y0050442D02*
X0076403Y0050442D01*
X0075845Y0051000D02*
X0074481Y0051000D01*
X0074481Y0047000D01*
X0078481Y0047000D01*
X0078481Y0048364D01*
X0075845Y0051000D01*
X0074481Y0050442D02*
X0073481Y0050442D01*
X0073481Y0051000D02*
X0072117Y0051000D01*
X0069481Y0048364D01*
X0069481Y0047000D01*
X0073481Y0047000D01*
X0073481Y0051000D01*
X0073481Y0049443D02*
X0074481Y0049443D01*
X0074481Y0048445D02*
X0073481Y0048445D01*
X0073481Y0047446D02*
X0074481Y0047446D01*
X0074481Y0047000D02*
X0073481Y0047000D01*
X0073481Y0046000D01*
X0074481Y0046000D01*
X0074481Y0047000D01*
X0074481Y0046448D02*
X0079681Y0046448D01*
X0079681Y0045449D02*
X0078481Y0045449D01*
X0078481Y0046000D02*
X0078481Y0044636D01*
X0075845Y0042000D01*
X0074481Y0042000D01*
X0074481Y0046000D01*
X0078481Y0046000D01*
X0078481Y0047446D02*
X0079681Y0047446D01*
X0079845Y0048445D02*
X0078400Y0048445D01*
X0077401Y0049443D02*
X0080843Y0049443D01*
X0086120Y0050442D02*
X0106512Y0050442D01*
X0108241Y0049443D02*
X0087118Y0049443D01*
X0088117Y0048445D02*
X0111273Y0048445D01*
X0116688Y0048445D02*
X0139845Y0048445D01*
X0139681Y0047446D02*
X0088281Y0047446D01*
X0088281Y0046448D02*
X0139681Y0046448D01*
X0139681Y0045449D02*
X0088281Y0045449D01*
X0088013Y0044451D02*
X0139949Y0044451D01*
X0140947Y0043452D02*
X0087014Y0043452D01*
X0086016Y0042454D02*
X0141946Y0042454D01*
X0141857Y0040457D02*
X0086105Y0040457D01*
X0087104Y0039458D02*
X0140858Y0039458D01*
X0139859Y0038460D02*
X0088102Y0038460D01*
X0088281Y0037461D02*
X0139681Y0037461D01*
X0139681Y0036463D02*
X0088281Y0036463D01*
X0088281Y0035464D02*
X0139681Y0035464D01*
X0139934Y0034466D02*
X0088028Y0034466D01*
X0087029Y0033467D02*
X0140932Y0033467D01*
X0141871Y0030472D02*
X0126958Y0030472D01*
X0125959Y0031470D02*
X0165051Y0031470D01*
X0161931Y0032469D02*
X0156313Y0032469D01*
X0157312Y0033467D02*
X0160932Y0033467D01*
X0159934Y0034466D02*
X0158310Y0034466D01*
X0158481Y0035464D02*
X0159681Y0035464D01*
X0167104Y0039458D02*
X0184585Y0039458D01*
X0183781Y0038460D02*
X0168102Y0038460D01*
X0168281Y0037461D02*
X0183781Y0037461D01*
X0188481Y0035464D02*
X0189481Y0035464D01*
X0189481Y0034466D02*
X0188481Y0034466D01*
X0188481Y0033467D02*
X0189481Y0033467D01*
X0189481Y0032469D02*
X0188481Y0032469D01*
X0188481Y0031470D02*
X0189481Y0031470D01*
X0189481Y0030472D02*
X0188481Y0030472D01*
X0188481Y0029473D02*
X0189481Y0029473D01*
X0189481Y0028475D02*
X0188481Y0028475D01*
X0188481Y0027476D02*
X0189481Y0027476D01*
X0188481Y0026478D02*
X0177963Y0026478D01*
X0176964Y0027476D02*
X0183781Y0027476D01*
X0183781Y0028475D02*
X0175966Y0028475D01*
X0174967Y0029473D02*
X0184600Y0029473D01*
X0191364Y0031470D02*
X0196880Y0031470D01*
X0195941Y0032469D02*
X0192303Y0032469D01*
X0193302Y0033467D02*
X0194942Y0033467D01*
X0195881Y0030472D02*
X0192363Y0030472D01*
X0193361Y0029473D02*
X0194883Y0029473D01*
X0201082Y0031470D02*
X0210051Y0031470D01*
X0211049Y0030472D02*
X0202080Y0030472D01*
X0203079Y0029473D02*
X0211181Y0029473D01*
X0211181Y0028475D02*
X0203981Y0028475D01*
X0203981Y0027476D02*
X0211181Y0027476D01*
X0211181Y0026478D02*
X0203981Y0026478D01*
X0203981Y0025479D02*
X0211181Y0025479D01*
X0211181Y0024481D02*
X0203981Y0024481D01*
X0203034Y0023482D02*
X0211181Y0023482D01*
X0211005Y0022484D02*
X0202035Y0022484D01*
X0195926Y0022484D02*
X0192318Y0022484D01*
X0193317Y0023482D02*
X0194928Y0023482D01*
X0191320Y0021485D02*
X0210006Y0021485D01*
X0209008Y0020487D02*
X0183954Y0020487D01*
X0182955Y0021485D02*
X0186642Y0021485D01*
X0185643Y0022484D02*
X0181957Y0022484D01*
X0180958Y0023482D02*
X0184645Y0023482D01*
X0183781Y0024481D02*
X0179960Y0024481D01*
X0178961Y0025479D02*
X0183781Y0025479D01*
X0188481Y0025479D02*
X0189481Y0025479D01*
X0189481Y0024481D02*
X0188481Y0024481D01*
X0188481Y0023482D02*
X0189481Y0023482D01*
X0189481Y0022484D02*
X0188481Y0022484D01*
X0188481Y0021485D02*
X0189481Y0021485D01*
X0184952Y0019488D02*
X0208009Y0019488D01*
X0207011Y0018490D02*
X0185951Y0018490D01*
X0186949Y0017491D02*
X0206012Y0017491D01*
X0205014Y0016493D02*
X0187948Y0016493D01*
X0188947Y0015494D02*
X0204015Y0015494D01*
X0203017Y0014496D02*
X0189945Y0014496D01*
X0205944Y0009503D02*
X0217334Y0009503D01*
X0217670Y0010501D02*
X0206942Y0010501D01*
X0207941Y0011500D02*
X0217765Y0011500D01*
X0217859Y0012499D02*
X0208939Y0012499D01*
X0209938Y0013497D02*
X0217913Y0013497D01*
X0217771Y0014496D02*
X0210936Y0014496D01*
X0211935Y0015494D02*
X0217591Y0015494D01*
X0217692Y0016493D02*
X0212933Y0016493D01*
X0213932Y0017491D02*
X0217700Y0017491D01*
X0217708Y0018490D02*
X0214930Y0018490D01*
X0215929Y0019488D02*
X0217716Y0019488D01*
X0217724Y0020487D02*
X0216592Y0020487D01*
X0216781Y0021485D02*
X0217732Y0021485D01*
X0217740Y0022484D02*
X0216781Y0022484D01*
X0216781Y0023482D02*
X0217748Y0023482D01*
X0217756Y0024481D02*
X0216781Y0024481D01*
X0216781Y0025479D02*
X0217764Y0025479D01*
X0217772Y0026478D02*
X0216781Y0026478D01*
X0216781Y0027476D02*
X0217780Y0027476D01*
X0217788Y0028475D02*
X0216781Y0028475D01*
X0216781Y0029473D02*
X0217796Y0029473D01*
X0217804Y0030472D02*
X0216781Y0030472D01*
X0216781Y0031470D02*
X0217812Y0031470D01*
X0217820Y0032469D02*
X0216610Y0032469D01*
X0215973Y0033467D02*
X0217828Y0033467D01*
X0217836Y0034466D02*
X0214975Y0034466D01*
X0213976Y0035464D02*
X0217843Y0035464D01*
X0217851Y0036463D02*
X0212978Y0036463D01*
X0211979Y0037461D02*
X0217859Y0037461D01*
X0217867Y0038460D02*
X0210981Y0038460D01*
X0217875Y0039458D02*
X0203094Y0039458D01*
X0202095Y0040457D02*
X0217883Y0040457D01*
X0217891Y0041455D02*
X0201096Y0041455D01*
X0202006Y0042454D02*
X0217899Y0042454D01*
X0217907Y0043452D02*
X0203004Y0043452D01*
X0203981Y0044451D02*
X0217915Y0044451D01*
X0217923Y0045449D02*
X0203981Y0045449D01*
X0203981Y0046448D02*
X0217931Y0046448D01*
X0217939Y0047446D02*
X0203981Y0047446D01*
X0203981Y0048445D02*
X0217947Y0048445D01*
X0217955Y0049443D02*
X0203108Y0049443D01*
X0202110Y0050442D02*
X0217963Y0050442D01*
X0217971Y0051440D02*
X0201111Y0051440D01*
X0201991Y0052439D02*
X0217979Y0052439D01*
X0217987Y0053437D02*
X0202989Y0053437D01*
X0203981Y0054436D02*
X0217995Y0054436D01*
X0218003Y0055434D02*
X0203981Y0055434D01*
X0203981Y0056433D02*
X0218011Y0056433D01*
X0218019Y0057432D02*
X0203981Y0057432D01*
X0204871Y0058430D02*
X0218027Y0058430D01*
X0218035Y0059429D02*
X0215869Y0059429D01*
X0216567Y0060427D02*
X0218043Y0060427D01*
X0218051Y0061426D02*
X0216781Y0061426D01*
X0216781Y0062424D02*
X0218059Y0062424D01*
X0218067Y0063423D02*
X0216781Y0063423D01*
X0216781Y0064421D02*
X0218075Y0064421D01*
X0218083Y0065420D02*
X0216781Y0065420D01*
X0216781Y0066418D02*
X0218091Y0066418D01*
X0218099Y0067417D02*
X0216781Y0067417D01*
X0216781Y0068415D02*
X0218107Y0068415D01*
X0218115Y0069414D02*
X0216781Y0069414D01*
X0216781Y0070412D02*
X0218123Y0070412D01*
X0218131Y0071411D02*
X0216781Y0071411D01*
X0216635Y0072409D02*
X0218139Y0072409D01*
X0218147Y0073408D02*
X0216033Y0073408D01*
X0215034Y0074406D02*
X0218155Y0074406D01*
X0218163Y0075405D02*
X0214036Y0075405D01*
X0213037Y0076403D02*
X0218171Y0076403D01*
X0218132Y0077402D02*
X0212039Y0077402D01*
X0211040Y0078400D02*
X0218194Y0078400D01*
X0218404Y0079399D02*
X0210042Y0079399D01*
X0209043Y0080397D02*
X0218366Y0080397D01*
X0218271Y0081396D02*
X0208045Y0081396D01*
X0207046Y0082394D02*
X0218176Y0082394D01*
X0217862Y0083393D02*
X0206048Y0083393D01*
X0215333Y0087387D02*
X0012889Y0087387D01*
X0012164Y0086388D02*
X0216214Y0086388D01*
X0216997Y0085390D02*
X0011438Y0085390D01*
X0011094Y0084391D02*
X0217429Y0084391D01*
X0214099Y0088385D02*
X0014201Y0088385D01*
X0016163Y0089384D02*
X0212409Y0089384D01*
X0203121Y0078400D02*
X0202631Y0078400D01*
X0202906Y0077402D02*
X0204119Y0077402D01*
X0205118Y0076403D02*
X0202906Y0076403D01*
X0202906Y0075405D02*
X0206116Y0075405D01*
X0207115Y0074406D02*
X0202438Y0074406D01*
X0201439Y0073408D02*
X0208113Y0073408D01*
X0209112Y0072409D02*
X0184224Y0072409D01*
X0185222Y0073408D02*
X0196522Y0073408D01*
X0196820Y0071411D02*
X0191424Y0071411D01*
X0192423Y0070412D02*
X0195822Y0070412D01*
X0194823Y0069414D02*
X0193421Y0069414D01*
X0189481Y0069414D02*
X0188481Y0069414D01*
X0188481Y0070412D02*
X0189481Y0070412D01*
X0189481Y0071411D02*
X0188481Y0071411D01*
X0186538Y0071411D02*
X0183225Y0071411D01*
X0182227Y0070412D02*
X0185539Y0070412D01*
X0184541Y0069414D02*
X0181781Y0069414D01*
X0181781Y0068415D02*
X0183781Y0068415D01*
X0183781Y0067417D02*
X0181781Y0067417D01*
X0181781Y0066418D02*
X0188481Y0066418D01*
X0188481Y0065420D02*
X0189481Y0065420D01*
X0189481Y0064421D02*
X0188481Y0064421D01*
X0188481Y0063423D02*
X0189481Y0063423D01*
X0189481Y0062424D02*
X0188481Y0062424D01*
X0188481Y0061426D02*
X0189481Y0061426D01*
X0186552Y0061426D02*
X0181781Y0061426D01*
X0181781Y0062424D02*
X0185703Y0062424D01*
X0184704Y0063423D02*
X0181781Y0063423D01*
X0181781Y0064421D02*
X0183781Y0064421D01*
X0183781Y0065420D02*
X0181781Y0065420D01*
X0188481Y0067417D02*
X0189481Y0067417D01*
X0189481Y0068415D02*
X0188481Y0068415D01*
X0201141Y0071411D02*
X0210110Y0071411D01*
X0211109Y0070412D02*
X0202140Y0070412D01*
X0203138Y0069414D02*
X0211181Y0069414D01*
X0211181Y0068415D02*
X0203981Y0068415D01*
X0203981Y0067417D02*
X0211181Y0067417D01*
X0211181Y0066418D02*
X0203981Y0066418D01*
X0203981Y0065420D02*
X0211181Y0065420D01*
X0211181Y0064421D02*
X0203973Y0064421D01*
X0189481Y0060427D02*
X0188481Y0060427D01*
X0188481Y0059429D02*
X0189481Y0059429D01*
X0189481Y0058430D02*
X0188481Y0058430D01*
X0188481Y0057432D02*
X0189481Y0057432D01*
X0188481Y0056433D02*
X0177874Y0056433D01*
X0178872Y0057432D02*
X0183781Y0057432D01*
X0183781Y0058430D02*
X0179871Y0058430D01*
X0180869Y0059429D02*
X0184555Y0059429D01*
X0185554Y0060427D02*
X0181567Y0060427D01*
X0183781Y0055434D02*
X0176875Y0055434D01*
X0175877Y0054436D02*
X0183781Y0054436D01*
X0184689Y0053437D02*
X0174878Y0053437D01*
X0173880Y0052439D02*
X0185688Y0052439D01*
X0186567Y0051440D02*
X0172881Y0051440D01*
X0171883Y0050442D02*
X0185569Y0050442D01*
X0184570Y0049443D02*
X0170884Y0049443D01*
X0169885Y0048445D02*
X0183781Y0048445D01*
X0183781Y0047446D02*
X0168887Y0047446D01*
X0161842Y0050442D02*
X0156403Y0050442D01*
X0157401Y0049443D02*
X0160843Y0049443D01*
X0159845Y0048445D02*
X0158400Y0048445D01*
X0158481Y0047446D02*
X0159681Y0047446D01*
X0164961Y0051440D02*
X0122746Y0051440D01*
X0123744Y0052439D02*
X0141961Y0052439D01*
X0140962Y0053437D02*
X0124696Y0053437D01*
X0125273Y0054436D02*
X0139964Y0054436D01*
X0139681Y0055434D02*
X0125849Y0055434D01*
X0126404Y0056433D02*
X0139681Y0056433D01*
X0139681Y0057432D02*
X0126671Y0057432D01*
X0126939Y0058430D02*
X0139830Y0058430D01*
X0140828Y0059429D02*
X0127206Y0059429D01*
X0127292Y0060427D02*
X0141827Y0060427D01*
X0142200Y0062200D02*
X0145762Y0062200D01*
X0148281Y0064719D01*
X0148281Y0068281D01*
X0145762Y0070800D01*
X0142200Y0070800D01*
X0139681Y0068281D01*
X0139681Y0064719D01*
X0142200Y0062200D01*
X0141976Y0062424D02*
X0127292Y0062424D01*
X0127292Y0061426D02*
X0164947Y0061426D01*
X0160977Y0063423D02*
X0157267Y0063423D01*
X0158266Y0064421D02*
X0159979Y0064421D01*
X0159681Y0065420D02*
X0158481Y0065420D01*
X0159681Y0066418D02*
X0154481Y0066418D01*
X0154481Y0065420D02*
X0153481Y0065420D01*
X0153481Y0066000D02*
X0153481Y0062000D01*
X0152117Y0062000D01*
X0149481Y0064636D01*
X0149481Y0066000D01*
X0153481Y0066000D01*
X0153481Y0066418D02*
X0148281Y0066418D01*
X0148281Y0065420D02*
X0149481Y0065420D01*
X0149696Y0064421D02*
X0147983Y0064421D01*
X0146984Y0063423D02*
X0150694Y0063423D01*
X0151693Y0062424D02*
X0145986Y0062424D01*
X0146135Y0060427D02*
X0151544Y0060427D01*
X0150545Y0059429D02*
X0147133Y0059429D01*
X0148132Y0058430D02*
X0149547Y0058430D01*
X0149481Y0057432D02*
X0148281Y0057432D01*
X0153481Y0057432D02*
X0154481Y0057432D01*
X0154481Y0058430D02*
X0153481Y0058430D01*
X0153481Y0059429D02*
X0154481Y0059429D01*
X0154481Y0060427D02*
X0153481Y0060427D01*
X0153481Y0062424D02*
X0154481Y0062424D01*
X0154481Y0063423D02*
X0153481Y0063423D01*
X0153481Y0064421D02*
X0154481Y0064421D01*
X0154481Y0067417D02*
X0153481Y0067417D01*
X0153481Y0068415D02*
X0154481Y0068415D01*
X0154481Y0069414D02*
X0153481Y0069414D01*
X0153481Y0070412D02*
X0154481Y0070412D01*
X0156433Y0070412D02*
X0161812Y0070412D01*
X0160813Y0069414D02*
X0157431Y0069414D01*
X0158430Y0068415D02*
X0159815Y0068415D01*
X0159681Y0067417D02*
X0158481Y0067417D01*
X0151529Y0070412D02*
X0146150Y0070412D01*
X0147148Y0069414D02*
X0150530Y0069414D01*
X0149532Y0068415D02*
X0148147Y0068415D01*
X0148281Y0067417D02*
X0149481Y0067417D01*
X0141812Y0070412D02*
X0123893Y0070412D01*
X0124782Y0069414D02*
X0140813Y0069414D01*
X0139815Y0068415D02*
X0125359Y0068415D01*
X0125935Y0067417D02*
X0139681Y0067417D01*
X0139681Y0066418D02*
X0126444Y0066418D01*
X0126711Y0065420D02*
X0139681Y0065420D01*
X0139979Y0064421D02*
X0126979Y0064421D01*
X0127246Y0063423D02*
X0140977Y0063423D01*
X0153481Y0054436D02*
X0154481Y0054436D01*
X0154481Y0053437D02*
X0153481Y0053437D01*
X0153481Y0052439D02*
X0154481Y0052439D01*
X0156284Y0052439D02*
X0161961Y0052439D01*
X0160962Y0053437D02*
X0157282Y0053437D01*
X0158281Y0054436D02*
X0159964Y0054436D01*
X0150560Y0049443D02*
X0147118Y0049443D01*
X0148117Y0048445D02*
X0149562Y0048445D01*
X0149481Y0047446D02*
X0148281Y0047446D01*
X0141842Y0050442D02*
X0121450Y0050442D01*
X0119720Y0049443D02*
X0140843Y0049443D01*
X0124323Y0031470D02*
X0123323Y0031470D01*
X0123323Y0030472D02*
X0124323Y0030472D01*
X0124323Y0029473D02*
X0123323Y0029473D01*
X0123323Y0028475D02*
X0124323Y0028475D01*
X0124323Y0027476D02*
X0123323Y0027476D01*
X0124323Y0026478D02*
X0139681Y0026478D01*
X0139681Y0027476D02*
X0128848Y0027476D01*
X0128848Y0028475D02*
X0139874Y0028475D01*
X0140873Y0029473D02*
X0127956Y0029473D01*
X0121687Y0031470D02*
X0041082Y0031470D01*
X0042021Y0032469D02*
X0061931Y0032469D01*
X0062200Y0032200D02*
X0065762Y0032200D01*
X0068281Y0034719D01*
X0068281Y0038281D01*
X0065762Y0040800D01*
X0062200Y0040800D01*
X0059681Y0038281D01*
X0059681Y0034719D01*
X0062200Y0032200D01*
X0062200Y0030800D02*
X0059681Y0028281D01*
X0059681Y0024719D01*
X0062200Y0022200D01*
X0065762Y0022200D01*
X0068281Y0024719D01*
X0068281Y0028281D01*
X0065762Y0030800D01*
X0062200Y0030800D01*
X0061871Y0030472D02*
X0042080Y0030472D01*
X0043079Y0029473D02*
X0060873Y0029473D01*
X0059874Y0028475D02*
X0043981Y0028475D01*
X0043981Y0027476D02*
X0059681Y0027476D01*
X0059681Y0026478D02*
X0043981Y0026478D01*
X0043981Y0025479D02*
X0059681Y0025479D01*
X0059919Y0024481D02*
X0043981Y0024481D01*
X0043034Y0023482D02*
X0060918Y0023482D01*
X0061916Y0022484D02*
X0042035Y0022484D01*
X0035926Y0022484D02*
X0032318Y0022484D01*
X0033317Y0023482D02*
X0034928Y0023482D01*
X0031320Y0021485D02*
X0121732Y0021485D01*
X0126913Y0022484D02*
X0141916Y0022484D01*
X0140918Y0023482D02*
X0127912Y0023482D01*
X0128848Y0024481D02*
X0139919Y0024481D01*
X0139681Y0025479D02*
X0128848Y0025479D01*
X0119690Y0029473D02*
X0107989Y0029473D01*
X0108963Y0028475D02*
X0118798Y0028475D01*
X0118798Y0027476D02*
X0108963Y0027476D01*
X0106990Y0030472D02*
X0120689Y0030472D01*
X0146046Y0022484D02*
X0151633Y0022484D01*
X0150635Y0023482D02*
X0147044Y0023482D01*
X0148043Y0024481D02*
X0149636Y0024481D01*
X0149481Y0025479D02*
X0148281Y0025479D01*
X0153481Y0025479D02*
X0154481Y0025479D01*
X0154481Y0024481D02*
X0153481Y0024481D01*
X0153481Y0023482D02*
X0154481Y0023482D01*
X0154481Y0022484D02*
X0153481Y0022484D01*
X0156328Y0022484D02*
X0161916Y0022484D01*
X0160918Y0023482D02*
X0157327Y0023482D01*
X0158325Y0024481D02*
X0159919Y0024481D01*
X0159681Y0025479D02*
X0158481Y0025479D01*
X0154481Y0028475D02*
X0153481Y0028475D01*
X0153481Y0029473D02*
X0154481Y0029473D01*
X0191379Y0041455D02*
X0196865Y0041455D01*
X0195956Y0042454D02*
X0192289Y0042454D01*
X0193287Y0043452D02*
X0194957Y0043452D01*
X0195867Y0040457D02*
X0192378Y0040457D01*
X0193376Y0039458D02*
X0194868Y0039458D01*
X0203019Y0033467D02*
X0208054Y0033467D01*
X0209052Y0032469D02*
X0202021Y0032469D01*
X0189481Y0047446D02*
X0188481Y0047446D01*
X0188481Y0048445D02*
X0189481Y0048445D01*
X0189481Y0049443D02*
X0188481Y0049443D01*
X0188481Y0050442D02*
X0189481Y0050442D01*
X0189481Y0051440D02*
X0188481Y0051440D01*
X0188481Y0052439D02*
X0189481Y0052439D01*
X0189481Y0053437D02*
X0188481Y0053437D01*
X0188481Y0054436D02*
X0189481Y0054436D01*
X0189481Y0055434D02*
X0188481Y0055434D01*
X0193272Y0053437D02*
X0194972Y0053437D01*
X0195971Y0052439D02*
X0192274Y0052439D01*
X0191394Y0051440D02*
X0196850Y0051440D01*
X0195852Y0050442D02*
X0192393Y0050442D01*
X0193391Y0049443D02*
X0194853Y0049443D01*
X0213489Y0004510D02*
X0014318Y0004510D01*
X0016398Y0003512D02*
X0211800Y0003512D01*
X0081916Y0022484D02*
X0076328Y0022484D01*
X0075845Y0022000D02*
X0074481Y0022000D01*
X0074481Y0026000D01*
X0074481Y0027000D01*
X0078481Y0027000D01*
X0078481Y0028364D01*
X0075845Y0031000D01*
X0074481Y0031000D01*
X0074481Y0027000D01*
X0073481Y0027000D01*
X0073481Y0031000D01*
X0072117Y0031000D01*
X0069481Y0028364D01*
X0069481Y0027000D01*
X0073481Y0027000D01*
X0073481Y0026000D01*
X0074481Y0026000D01*
X0078481Y0026000D01*
X0078481Y0024636D01*
X0075845Y0022000D01*
X0074481Y0022484D02*
X0073481Y0022484D01*
X0073481Y0022000D02*
X0072117Y0022000D01*
X0069481Y0024636D01*
X0069481Y0026000D01*
X0073481Y0026000D01*
X0073481Y0022000D01*
X0071633Y0022484D02*
X0066046Y0022484D01*
X0067044Y0023482D02*
X0070635Y0023482D01*
X0069636Y0024481D02*
X0068043Y0024481D01*
X0068281Y0025479D02*
X0069481Y0025479D01*
X0068281Y0026478D02*
X0073481Y0026478D01*
X0073481Y0027476D02*
X0074481Y0027476D01*
X0074481Y0026478D02*
X0079681Y0026478D01*
X0079681Y0027476D02*
X0078481Y0027476D01*
X0078370Y0028475D02*
X0079874Y0028475D01*
X0080873Y0029473D02*
X0077372Y0029473D01*
X0076373Y0030472D02*
X0081871Y0030472D01*
X0081931Y0032469D02*
X0076313Y0032469D01*
X0075845Y0032000D02*
X0078481Y0034636D01*
X0078481Y0036000D01*
X0074481Y0036000D01*
X0074481Y0037000D01*
X0078481Y0037000D01*
X0078481Y0038364D01*
X0075845Y0041000D01*
X0074481Y0041000D01*
X0074481Y0037000D01*
X0073481Y0037000D01*
X0073481Y0041000D01*
X0072117Y0041000D01*
X0069481Y0038364D01*
X0069481Y0037000D01*
X0073481Y0037000D01*
X0073481Y0036000D01*
X0074481Y0036000D01*
X0074481Y0032000D01*
X0075845Y0032000D01*
X0074481Y0032469D02*
X0073481Y0032469D01*
X0073481Y0032000D02*
X0073481Y0036000D01*
X0069481Y0036000D01*
X0069481Y0034636D01*
X0072117Y0032000D01*
X0073481Y0032000D01*
X0073481Y0033467D02*
X0074481Y0033467D01*
X0077312Y0033467D02*
X0080932Y0033467D01*
X0079934Y0034466D02*
X0078310Y0034466D01*
X0078481Y0035464D02*
X0079681Y0035464D01*
X0079681Y0036463D02*
X0074481Y0036463D01*
X0074481Y0037461D02*
X0073481Y0037461D01*
X0073481Y0036463D02*
X0068281Y0036463D01*
X0068281Y0037461D02*
X0069481Y0037461D01*
X0069577Y0038460D02*
X0068102Y0038460D01*
X0067104Y0039458D02*
X0070575Y0039458D01*
X0071574Y0040457D02*
X0066105Y0040457D01*
X0066016Y0042454D02*
X0071663Y0042454D01*
X0072117Y0042000D02*
X0073481Y0042000D01*
X0073481Y0046000D01*
X0069481Y0046000D01*
X0069481Y0044636D01*
X0072117Y0042000D01*
X0073481Y0042454D02*
X0074481Y0042454D01*
X0074481Y0043452D02*
X0073481Y0043452D01*
X0073481Y0044451D02*
X0074481Y0044451D01*
X0074481Y0045449D02*
X0073481Y0045449D01*
X0073481Y0046448D02*
X0068281Y0046448D01*
X0068281Y0045449D02*
X0069481Y0045449D01*
X0069666Y0044451D02*
X0068013Y0044451D01*
X0067014Y0043452D02*
X0070664Y0043452D01*
X0073481Y0040457D02*
X0074481Y0040457D01*
X0074481Y0039458D02*
X0073481Y0039458D01*
X0073481Y0038460D02*
X0074481Y0038460D01*
X0076388Y0040457D02*
X0081857Y0040457D01*
X0080858Y0039458D02*
X0077386Y0039458D01*
X0078385Y0038460D02*
X0079859Y0038460D01*
X0079681Y0037461D02*
X0078481Y0037461D01*
X0074481Y0035464D02*
X0073481Y0035464D01*
X0073481Y0034466D02*
X0074481Y0034466D01*
X0070650Y0033467D02*
X0067029Y0033467D01*
X0066031Y0032469D02*
X0071648Y0032469D01*
X0071589Y0030472D02*
X0066090Y0030472D01*
X0067089Y0029473D02*
X0070590Y0029473D01*
X0069592Y0028475D02*
X0068087Y0028475D01*
X0068281Y0027476D02*
X0069481Y0027476D01*
X0073481Y0028475D02*
X0074481Y0028475D01*
X0074481Y0029473D02*
X0073481Y0029473D01*
X0073481Y0030472D02*
X0074481Y0030472D01*
X0074481Y0025479D02*
X0073481Y0025479D01*
X0073481Y0024481D02*
X0074481Y0024481D01*
X0074481Y0023482D02*
X0073481Y0023482D01*
X0077327Y0023482D02*
X0080918Y0023482D01*
X0079919Y0024481D02*
X0078325Y0024481D01*
X0078481Y0025479D02*
X0079681Y0025479D01*
X0060932Y0033467D02*
X0043019Y0033467D01*
X0043981Y0034466D02*
X0059934Y0034466D01*
X0059681Y0035464D02*
X0043981Y0035464D01*
X0043981Y0036463D02*
X0059681Y0036463D01*
X0059681Y0037461D02*
X0043981Y0037461D01*
X0043981Y0038460D02*
X0059859Y0038460D01*
X0060858Y0039458D02*
X0043094Y0039458D01*
X0042095Y0040457D02*
X0061857Y0040457D01*
X0068281Y0035464D02*
X0069481Y0035464D01*
X0069651Y0034466D02*
X0068028Y0034466D01*
X0076299Y0042454D02*
X0081946Y0042454D01*
X0080947Y0043452D02*
X0077297Y0043452D01*
X0078296Y0044451D02*
X0079949Y0044451D01*
X0069481Y0047446D02*
X0068281Y0047446D01*
X0068117Y0048445D02*
X0069562Y0048445D01*
X0070560Y0049443D02*
X0067118Y0049443D01*
X0066120Y0050442D02*
X0071559Y0050442D01*
X0071678Y0052439D02*
X0066001Y0052439D01*
X0066999Y0053437D02*
X0070679Y0053437D01*
X0069681Y0054436D02*
X0067998Y0054436D01*
X0073481Y0054436D02*
X0074481Y0054436D01*
X0074481Y0053437D02*
X0073481Y0053437D01*
X0073481Y0052439D02*
X0074481Y0052439D01*
X0074481Y0057432D02*
X0073481Y0057432D01*
X0073481Y0058430D02*
X0074481Y0058430D01*
X0074481Y0059429D02*
X0073481Y0059429D01*
X0077416Y0059429D02*
X0080828Y0059429D01*
X0079830Y0058430D02*
X0078415Y0058430D01*
X0078481Y0057432D02*
X0079681Y0057432D01*
X0081976Y0062424D02*
X0076269Y0062424D01*
X0077267Y0063423D02*
X0080977Y0063423D01*
X0079979Y0064421D02*
X0078266Y0064421D01*
X0078481Y0065420D02*
X0079681Y0065420D01*
X0079681Y0066418D02*
X0074481Y0066418D01*
X0074481Y0065420D02*
X0073481Y0065420D01*
X0073481Y0066418D02*
X0068281Y0066418D01*
X0068281Y0065420D02*
X0069481Y0065420D01*
X0069696Y0064421D02*
X0067983Y0064421D01*
X0066984Y0063423D02*
X0070694Y0063423D01*
X0071693Y0062424D02*
X0065986Y0062424D01*
X0061827Y0060427D02*
X0042125Y0060427D01*
X0043123Y0059429D02*
X0060828Y0059429D01*
X0059830Y0058430D02*
X0043981Y0058430D01*
X0043981Y0057432D02*
X0059681Y0057432D01*
X0059681Y0056433D02*
X0043981Y0056433D01*
X0043981Y0055434D02*
X0059681Y0055434D01*
X0059964Y0054436D02*
X0043981Y0054436D01*
X0042989Y0053437D02*
X0060962Y0053437D01*
X0073481Y0062424D02*
X0074481Y0062424D01*
X0074481Y0063423D02*
X0073481Y0063423D01*
X0073481Y0064421D02*
X0074481Y0064421D01*
X0074481Y0067417D02*
X0073481Y0067417D01*
X0073481Y0068415D02*
X0074481Y0068415D01*
X0074481Y0069414D02*
X0073481Y0069414D01*
X0070530Y0069414D02*
X0067148Y0069414D01*
X0068147Y0068415D02*
X0069532Y0068415D01*
X0069481Y0067417D02*
X0068281Y0067417D01*
X0077431Y0069414D02*
X0080813Y0069414D01*
X0079815Y0068415D02*
X0078430Y0068415D01*
X0078481Y0067417D02*
X0079681Y0067417D01*
X0036910Y0061500D02*
X0034122Y0064288D01*
X0031335Y0061500D01*
X0034122Y0058712D01*
X0036910Y0061500D01*
X0036835Y0061426D02*
X0031409Y0061426D01*
X0032259Y0062424D02*
X0035986Y0062424D01*
X0034987Y0063423D02*
X0033257Y0063423D01*
X0029481Y0063423D02*
X0028481Y0063423D01*
X0028481Y0064421D02*
X0029481Y0064421D01*
X0029481Y0065420D02*
X0028481Y0065420D01*
X0028481Y0062424D02*
X0029481Y0062424D01*
X0029481Y0061426D02*
X0028481Y0061426D01*
X0032408Y0060427D02*
X0035837Y0060427D01*
X0034838Y0059429D02*
X0033406Y0059429D01*
X0029481Y0055434D02*
X0028481Y0055434D01*
X0028481Y0054436D02*
X0029481Y0054436D01*
X0029481Y0053437D02*
X0028481Y0053437D01*
X0028481Y0052439D02*
X0029481Y0052439D01*
X0029481Y0051440D02*
X0028481Y0051440D01*
X0028481Y0050442D02*
X0029481Y0050442D01*
X0029481Y0049443D02*
X0028481Y0049443D01*
X0028481Y0048445D02*
X0029481Y0048445D01*
X0029481Y0047446D02*
X0028481Y0047446D01*
X0032393Y0050442D02*
X0035852Y0050442D01*
X0036850Y0051440D02*
X0031394Y0051440D01*
X0032274Y0052439D02*
X0035971Y0052439D01*
X0034972Y0053437D02*
X0033272Y0053437D01*
X0033391Y0049443D02*
X0034853Y0049443D01*
X0023781Y0035464D02*
X0010481Y0035464D01*
X0010481Y0034466D02*
X0023781Y0034466D01*
X0023781Y0025479D02*
X0010481Y0025479D01*
X0010481Y0024481D02*
X0023781Y0024481D01*
X0024645Y0023482D02*
X0010481Y0023482D01*
X0010481Y0022484D02*
X0025643Y0022484D01*
D14*
X0163981Y0036500D02*
X0188981Y0011500D01*
X0203981Y0011500D01*
X0213981Y0021500D01*
X0213981Y0031500D01*
X0208981Y0036500D01*
X0198981Y0036500D01*
X0178981Y0061500D02*
X0163981Y0046500D01*
X0163981Y0056500D02*
X0173981Y0066500D01*
X0173981Y0071500D01*
X0183981Y0081500D01*
X0203981Y0081500D01*
X0213981Y0071500D01*
X0213981Y0061500D01*
X0203981Y0061500D01*
X0198981Y0056500D01*
X0178981Y0061500D02*
X0178981Y0071126D01*
X0179168Y0071313D01*
X0184355Y0076500D01*
X0198981Y0076500D01*
D15*
X0198981Y0076500D03*
M02*
