G75*
%MOIN*%
%OFA0B0*%
%FSLAX25Y25*%
%IPPOS*%
%LPD*%
%AMOC8*
5,1,8,0,0,1.08239X$1,22.5*
%
%ADD10C,0.00000*%
D10*
X0018981Y0001500D02*
X0210481Y0001500D01*
X0210481Y0001501D02*
X0210751Y0001564D01*
X0211019Y0001634D01*
X0211286Y0001711D01*
X0211550Y0001794D01*
X0211813Y0001884D01*
X0212073Y0001979D01*
X0212331Y0002081D01*
X0212586Y0002190D01*
X0212839Y0002304D01*
X0213089Y0002424D01*
X0213336Y0002551D01*
X0213579Y0002683D01*
X0213820Y0002821D01*
X0214057Y0002965D01*
X0214290Y0003115D01*
X0214520Y0003270D01*
X0214746Y0003431D01*
X0214968Y0003597D01*
X0215186Y0003769D01*
X0215400Y0003945D01*
X0215609Y0004127D01*
X0215814Y0004314D01*
X0216014Y0004506D01*
X0216210Y0004702D01*
X0216401Y0004903D01*
X0216587Y0005109D01*
X0216768Y0005319D01*
X0216944Y0005534D01*
X0217114Y0005752D01*
X0217279Y0005975D01*
X0217439Y0006202D01*
X0217594Y0006432D01*
X0217742Y0006666D01*
X0217885Y0006904D01*
X0218022Y0007145D01*
X0218154Y0007389D01*
X0218279Y0007637D01*
X0218398Y0007887D01*
X0218512Y0008140D01*
X0218619Y0008396D01*
X0218720Y0008654D01*
X0218814Y0008915D01*
X0218903Y0009178D01*
X0218985Y0009443D01*
X0219060Y0009709D01*
X0219129Y0009978D01*
X0219192Y0010248D01*
X0219248Y0010520D01*
X0219297Y0010793D01*
X0219340Y0011067D01*
X0219376Y0011342D01*
X0219406Y0011617D01*
X0219429Y0011894D01*
X0219445Y0012171D01*
X0219454Y0012448D01*
X0219457Y0012725D01*
X0219453Y0013002D01*
X0219442Y0013280D01*
X0219425Y0013556D01*
X0219401Y0013833D01*
X0219370Y0014108D01*
X0219333Y0014383D01*
X0219289Y0014657D01*
X0219239Y0014930D01*
X0219181Y0015201D01*
X0219182Y0015201D02*
X0219682Y0077760D01*
X0219681Y0077760D02*
X0219739Y0078031D01*
X0219789Y0078304D01*
X0219833Y0078578D01*
X0219870Y0078853D01*
X0219901Y0079128D01*
X0219925Y0079405D01*
X0219942Y0079681D01*
X0219953Y0079959D01*
X0219957Y0080236D01*
X0219954Y0080513D01*
X0219945Y0080790D01*
X0219929Y0081067D01*
X0219906Y0081344D01*
X0219876Y0081619D01*
X0219840Y0081894D01*
X0219797Y0082168D01*
X0219748Y0082441D01*
X0219692Y0082713D01*
X0219629Y0082983D01*
X0219560Y0083252D01*
X0219485Y0083518D01*
X0219403Y0083783D01*
X0219314Y0084046D01*
X0219220Y0084307D01*
X0219119Y0084565D01*
X0219012Y0084821D01*
X0218898Y0085074D01*
X0218779Y0085324D01*
X0218654Y0085572D01*
X0218522Y0085816D01*
X0218385Y0086057D01*
X0218242Y0086295D01*
X0218094Y0086529D01*
X0217939Y0086759D01*
X0217779Y0086986D01*
X0217614Y0087209D01*
X0217444Y0087427D01*
X0217268Y0087642D01*
X0217087Y0087852D01*
X0216901Y0088058D01*
X0216710Y0088259D01*
X0216514Y0088455D01*
X0216314Y0088647D01*
X0216109Y0088834D01*
X0215900Y0089016D01*
X0215686Y0089192D01*
X0215468Y0089364D01*
X0215246Y0089530D01*
X0215020Y0089691D01*
X0214790Y0089846D01*
X0214557Y0089996D01*
X0214320Y0090140D01*
X0214079Y0090278D01*
X0213836Y0090410D01*
X0213589Y0090537D01*
X0213339Y0090657D01*
X0213086Y0090771D01*
X0212831Y0090880D01*
X0212573Y0090982D01*
X0212313Y0091077D01*
X0212050Y0091167D01*
X0211786Y0091250D01*
X0211519Y0091327D01*
X0211251Y0091397D01*
X0210981Y0091460D01*
X0210981Y0091461D02*
X0018941Y0091461D01*
X0018700Y0091458D01*
X0018460Y0091449D01*
X0018219Y0091435D01*
X0017980Y0091414D01*
X0017740Y0091388D01*
X0017502Y0091356D01*
X0017264Y0091319D01*
X0017027Y0091275D01*
X0016792Y0091226D01*
X0016557Y0091172D01*
X0016324Y0091111D01*
X0016093Y0091045D01*
X0015863Y0090973D01*
X0015635Y0090896D01*
X0015409Y0090814D01*
X0015185Y0090726D01*
X0014963Y0090632D01*
X0014743Y0090533D01*
X0014526Y0090429D01*
X0014312Y0090320D01*
X0014100Y0090206D01*
X0013891Y0090086D01*
X0013685Y0089962D01*
X0013482Y0089832D01*
X0013283Y0089698D01*
X0013086Y0089559D01*
X0012893Y0089415D01*
X0012704Y0089266D01*
X0012518Y0089113D01*
X0012336Y0088956D01*
X0012157Y0088794D01*
X0011983Y0088628D01*
X0011813Y0088458D01*
X0011647Y0088284D01*
X0011485Y0088105D01*
X0011328Y0087923D01*
X0011175Y0087737D01*
X0011026Y0087548D01*
X0010882Y0087355D01*
X0010743Y0087158D01*
X0010609Y0086959D01*
X0010479Y0086756D01*
X0010355Y0086550D01*
X0010235Y0086341D01*
X0010121Y0086129D01*
X0010012Y0085915D01*
X0009908Y0085698D01*
X0009809Y0085478D01*
X0009715Y0085256D01*
X0009627Y0085032D01*
X0009545Y0084806D01*
X0009468Y0084578D01*
X0009396Y0084348D01*
X0009330Y0084117D01*
X0009269Y0083884D01*
X0009215Y0083649D01*
X0009166Y0083414D01*
X0009122Y0083177D01*
X0009085Y0082939D01*
X0009053Y0082701D01*
X0009027Y0082461D01*
X0009006Y0082222D01*
X0008992Y0081981D01*
X0008983Y0081741D01*
X0008980Y0081500D01*
X0008981Y0081500D02*
X0008981Y0011500D01*
X0008984Y0011258D01*
X0008993Y0011017D01*
X0009007Y0010776D01*
X0009028Y0010535D01*
X0009054Y0010295D01*
X0009086Y0010055D01*
X0009124Y0009816D01*
X0009167Y0009579D01*
X0009217Y0009342D01*
X0009272Y0009107D01*
X0009332Y0008873D01*
X0009399Y0008641D01*
X0009470Y0008410D01*
X0009548Y0008181D01*
X0009631Y0007954D01*
X0009719Y0007729D01*
X0009813Y0007506D01*
X0009912Y0007286D01*
X0010017Y0007068D01*
X0010126Y0006853D01*
X0010241Y0006640D01*
X0010361Y0006430D01*
X0010486Y0006224D01*
X0010616Y0006020D01*
X0010751Y0005819D01*
X0010891Y0005622D01*
X0011035Y0005428D01*
X0011184Y0005238D01*
X0011338Y0005052D01*
X0011496Y0004869D01*
X0011658Y0004690D01*
X0011825Y0004515D01*
X0011996Y0004344D01*
X0012171Y0004177D01*
X0012350Y0004015D01*
X0012533Y0003857D01*
X0012719Y0003703D01*
X0012909Y0003554D01*
X0013103Y0003410D01*
X0013300Y0003270D01*
X0013501Y0003135D01*
X0013705Y0003005D01*
X0013911Y0002880D01*
X0014121Y0002760D01*
X0014334Y0002645D01*
X0014549Y0002536D01*
X0014767Y0002431D01*
X0014987Y0002332D01*
X0015210Y0002238D01*
X0015435Y0002150D01*
X0015662Y0002067D01*
X0015891Y0001989D01*
X0016122Y0001918D01*
X0016354Y0001851D01*
X0016588Y0001791D01*
X0016823Y0001736D01*
X0017060Y0001686D01*
X0017297Y0001643D01*
X0017536Y0001605D01*
X0017776Y0001573D01*
X0018016Y0001547D01*
X0018257Y0001526D01*
X0018498Y0001512D01*
X0018739Y0001503D01*
X0018981Y0001500D01*
X0102170Y0061500D02*
X0102174Y0061790D01*
X0102184Y0062080D01*
X0102202Y0062369D01*
X0102227Y0062658D01*
X0102259Y0062946D01*
X0102298Y0063233D01*
X0102344Y0063519D01*
X0102397Y0063804D01*
X0102457Y0064088D01*
X0102524Y0064370D01*
X0102598Y0064650D01*
X0102679Y0064929D01*
X0102766Y0065205D01*
X0102860Y0065479D01*
X0102961Y0065751D01*
X0103069Y0066020D01*
X0103183Y0066286D01*
X0103304Y0066550D01*
X0103431Y0066810D01*
X0103565Y0067068D01*
X0103704Y0067322D01*
X0103850Y0067572D01*
X0104002Y0067819D01*
X0104161Y0068062D01*
X0104325Y0068301D01*
X0104494Y0068536D01*
X0104670Y0068767D01*
X0104851Y0068993D01*
X0105038Y0069215D01*
X0105230Y0069432D01*
X0105427Y0069644D01*
X0105629Y0069852D01*
X0105837Y0070054D01*
X0106049Y0070251D01*
X0106266Y0070443D01*
X0106488Y0070630D01*
X0106714Y0070811D01*
X0106945Y0070987D01*
X0107180Y0071156D01*
X0107419Y0071320D01*
X0107662Y0071479D01*
X0107909Y0071631D01*
X0108159Y0071777D01*
X0108413Y0071916D01*
X0108671Y0072050D01*
X0108931Y0072177D01*
X0109195Y0072298D01*
X0109461Y0072412D01*
X0109730Y0072520D01*
X0110002Y0072621D01*
X0110276Y0072715D01*
X0110552Y0072802D01*
X0110831Y0072883D01*
X0111111Y0072957D01*
X0111393Y0073024D01*
X0111677Y0073084D01*
X0111962Y0073137D01*
X0112248Y0073183D01*
X0112535Y0073222D01*
X0112823Y0073254D01*
X0113112Y0073279D01*
X0113401Y0073297D01*
X0113691Y0073307D01*
X0113981Y0073311D01*
X0114271Y0073307D01*
X0114561Y0073297D01*
X0114850Y0073279D01*
X0115139Y0073254D01*
X0115427Y0073222D01*
X0115714Y0073183D01*
X0116000Y0073137D01*
X0116285Y0073084D01*
X0116569Y0073024D01*
X0116851Y0072957D01*
X0117131Y0072883D01*
X0117410Y0072802D01*
X0117686Y0072715D01*
X0117960Y0072621D01*
X0118232Y0072520D01*
X0118501Y0072412D01*
X0118767Y0072298D01*
X0119031Y0072177D01*
X0119291Y0072050D01*
X0119549Y0071916D01*
X0119803Y0071777D01*
X0120053Y0071631D01*
X0120300Y0071479D01*
X0120543Y0071320D01*
X0120782Y0071156D01*
X0121017Y0070987D01*
X0121248Y0070811D01*
X0121474Y0070630D01*
X0121696Y0070443D01*
X0121913Y0070251D01*
X0122125Y0070054D01*
X0122333Y0069852D01*
X0122535Y0069644D01*
X0122732Y0069432D01*
X0122924Y0069215D01*
X0123111Y0068993D01*
X0123292Y0068767D01*
X0123468Y0068536D01*
X0123637Y0068301D01*
X0123801Y0068062D01*
X0123960Y0067819D01*
X0124112Y0067572D01*
X0124258Y0067322D01*
X0124397Y0067068D01*
X0124531Y0066810D01*
X0124658Y0066550D01*
X0124779Y0066286D01*
X0124893Y0066020D01*
X0125001Y0065751D01*
X0125102Y0065479D01*
X0125196Y0065205D01*
X0125283Y0064929D01*
X0125364Y0064650D01*
X0125438Y0064370D01*
X0125505Y0064088D01*
X0125565Y0063804D01*
X0125618Y0063519D01*
X0125664Y0063233D01*
X0125703Y0062946D01*
X0125735Y0062658D01*
X0125760Y0062369D01*
X0125778Y0062080D01*
X0125788Y0061790D01*
X0125792Y0061500D01*
X0125788Y0061210D01*
X0125778Y0060920D01*
X0125760Y0060631D01*
X0125735Y0060342D01*
X0125703Y0060054D01*
X0125664Y0059767D01*
X0125618Y0059481D01*
X0125565Y0059196D01*
X0125505Y0058912D01*
X0125438Y0058630D01*
X0125364Y0058350D01*
X0125283Y0058071D01*
X0125196Y0057795D01*
X0125102Y0057521D01*
X0125001Y0057249D01*
X0124893Y0056980D01*
X0124779Y0056714D01*
X0124658Y0056450D01*
X0124531Y0056190D01*
X0124397Y0055932D01*
X0124258Y0055678D01*
X0124112Y0055428D01*
X0123960Y0055181D01*
X0123801Y0054938D01*
X0123637Y0054699D01*
X0123468Y0054464D01*
X0123292Y0054233D01*
X0123111Y0054007D01*
X0122924Y0053785D01*
X0122732Y0053568D01*
X0122535Y0053356D01*
X0122333Y0053148D01*
X0122125Y0052946D01*
X0121913Y0052749D01*
X0121696Y0052557D01*
X0121474Y0052370D01*
X0121248Y0052189D01*
X0121017Y0052013D01*
X0120782Y0051844D01*
X0120543Y0051680D01*
X0120300Y0051521D01*
X0120053Y0051369D01*
X0119803Y0051223D01*
X0119549Y0051084D01*
X0119291Y0050950D01*
X0119031Y0050823D01*
X0118767Y0050702D01*
X0118501Y0050588D01*
X0118232Y0050480D01*
X0117960Y0050379D01*
X0117686Y0050285D01*
X0117410Y0050198D01*
X0117131Y0050117D01*
X0116851Y0050043D01*
X0116569Y0049976D01*
X0116285Y0049916D01*
X0116000Y0049863D01*
X0115714Y0049817D01*
X0115427Y0049778D01*
X0115139Y0049746D01*
X0114850Y0049721D01*
X0114561Y0049703D01*
X0114271Y0049693D01*
X0113981Y0049689D01*
X0113691Y0049693D01*
X0113401Y0049703D01*
X0113112Y0049721D01*
X0112823Y0049746D01*
X0112535Y0049778D01*
X0112248Y0049817D01*
X0111962Y0049863D01*
X0111677Y0049916D01*
X0111393Y0049976D01*
X0111111Y0050043D01*
X0110831Y0050117D01*
X0110552Y0050198D01*
X0110276Y0050285D01*
X0110002Y0050379D01*
X0109730Y0050480D01*
X0109461Y0050588D01*
X0109195Y0050702D01*
X0108931Y0050823D01*
X0108671Y0050950D01*
X0108413Y0051084D01*
X0108159Y0051223D01*
X0107909Y0051369D01*
X0107662Y0051521D01*
X0107419Y0051680D01*
X0107180Y0051844D01*
X0106945Y0052013D01*
X0106714Y0052189D01*
X0106488Y0052370D01*
X0106266Y0052557D01*
X0106049Y0052749D01*
X0105837Y0052946D01*
X0105629Y0053148D01*
X0105427Y0053356D01*
X0105230Y0053568D01*
X0105038Y0053785D01*
X0104851Y0054007D01*
X0104670Y0054233D01*
X0104494Y0054464D01*
X0104325Y0054699D01*
X0104161Y0054938D01*
X0104002Y0055181D01*
X0103850Y0055428D01*
X0103704Y0055678D01*
X0103565Y0055932D01*
X0103431Y0056190D01*
X0103304Y0056450D01*
X0103183Y0056714D01*
X0103069Y0056980D01*
X0102961Y0057249D01*
X0102860Y0057521D01*
X0102766Y0057795D01*
X0102679Y0058071D01*
X0102598Y0058350D01*
X0102524Y0058630D01*
X0102457Y0058912D01*
X0102397Y0059196D01*
X0102344Y0059481D01*
X0102298Y0059767D01*
X0102259Y0060054D01*
X0102227Y0060342D01*
X0102202Y0060631D01*
X0102184Y0060920D01*
X0102174Y0061210D01*
X0102170Y0061500D01*
M02*
