G75*
%MOIN*%
%OFA0B0*%
%FSLAX25Y25*%
%IPPOS*%
%LPD*%
%AMOC8*
5,1,8,0,0,1.08239X$1,22.5*
%
%ADD10OC8,0.06400*%
%ADD11OC8,0.07450*%
D10*
X0021500Y0021500D03*
X0031500Y0021500D03*
X0031500Y0031500D03*
X0021500Y0031500D03*
X0021500Y0041500D03*
X0031500Y0041500D03*
X0031500Y0051500D03*
X0021500Y0051500D03*
X0021500Y0061500D03*
X0031500Y0061500D03*
X0061500Y0061500D03*
X0071500Y0061500D03*
X0081500Y0061500D03*
X0081500Y0051500D03*
X0071500Y0051500D03*
X0061500Y0051500D03*
X0061500Y0041500D03*
X0071500Y0041500D03*
X0081500Y0041500D03*
X0081500Y0031500D03*
X0071500Y0031500D03*
X0061500Y0031500D03*
X0061500Y0021500D03*
X0071500Y0021500D03*
X0081500Y0021500D03*
X0141500Y0021500D03*
X0151500Y0021500D03*
X0161500Y0021500D03*
X0161500Y0031500D03*
X0151500Y0031500D03*
X0141500Y0031500D03*
X0141500Y0041500D03*
X0151500Y0041500D03*
X0161500Y0041500D03*
X0161500Y0051500D03*
X0151500Y0051500D03*
X0141500Y0051500D03*
X0141500Y0061500D03*
X0151500Y0061500D03*
X0161500Y0061500D03*
X0191500Y0061500D03*
X0201500Y0061500D03*
X0201500Y0051500D03*
X0191500Y0051500D03*
X0191500Y0041500D03*
X0201500Y0041500D03*
X0201500Y0031500D03*
X0191500Y0031500D03*
X0191500Y0021500D03*
X0201500Y0021500D03*
D11*
X0121343Y0021500D03*
X0101657Y0021500D03*
M02*
