G04 EAGLE Gerber X2 export*
%TF.Part,Single*%
%TF.FileFunction,Other,Bottom Soldermask*%
%TF.FilePolarity,Positive*%
%TF.GenerationSoftware,Autodesk,EAGLE,8.7.1*%
%TF.CreationDate,2018-04-02T18:03:59Z*%
G75*
%MOMM*%
%FSLAX34Y34*%
%LPD*%
%AMOC8*
5,1,8,0,0,1.08239X$1,22.5*%
G01*
%ADD10P,2.144431X8X112.500000*%
%ADD11C,3.301600*%
%ADD12P,2.048207X8X202.500000*%
%ADD13P,2.048207X8X22.500000*%
%ADD14P,2.144431X8X22.500000*%
%ADD15P,2.144431X8X202.500000*%


D10*
X704850Y139700D03*
X730250Y139700D03*
X755650Y139700D03*
X781050Y139700D03*
X679450Y139700D03*
X781050Y622300D03*
X806450Y622300D03*
X476250Y139700D03*
X501650Y139700D03*
X527050Y139700D03*
X552450Y139700D03*
X577850Y139700D03*
X603250Y139700D03*
X628650Y139700D03*
X450850Y139700D03*
X425450Y622300D03*
X450850Y622300D03*
X476250Y622300D03*
X501650Y622300D03*
X527050Y622300D03*
X552450Y622300D03*
X577850Y622300D03*
X400050Y622300D03*
X207010Y622300D03*
X232410Y622300D03*
X257810Y622300D03*
X283210Y622300D03*
X308610Y622300D03*
X334010Y622300D03*
X359410Y622300D03*
X181610Y622300D03*
X882650Y190500D03*
X908050Y190500D03*
X349250Y139700D03*
X374650Y139700D03*
X400050Y139700D03*
D11*
X95250Y622300D03*
X82550Y139700D03*
X844550Y622300D03*
X908050Y139700D03*
D12*
X927100Y433000D03*
X927100Y483000D03*
X927100Y533000D03*
X927100Y583000D03*
X927100Y229800D03*
X927100Y279800D03*
X927100Y329800D03*
X927100Y379800D03*
D13*
X63500Y519500D03*
X63500Y469500D03*
X63500Y419500D03*
X63500Y369500D03*
D14*
X800100Y685800D03*
X800100Y711200D03*
X825500Y685800D03*
X825500Y711200D03*
X850900Y685800D03*
X850900Y711200D03*
X876300Y685800D03*
X876300Y711200D03*
X901700Y685800D03*
X901700Y711200D03*
D15*
X901700Y63500D03*
X901700Y38100D03*
X876300Y63500D03*
X876300Y38100D03*
X850900Y63500D03*
X850900Y38100D03*
X825500Y63500D03*
X825500Y38100D03*
X800100Y63500D03*
X800100Y38100D03*
D14*
X584200Y685800D03*
X584200Y711200D03*
X609600Y685800D03*
X609600Y711200D03*
X635000Y685800D03*
X635000Y711200D03*
X660400Y685800D03*
X660400Y711200D03*
X685800Y685800D03*
X685800Y711200D03*
D15*
X685800Y63500D03*
X685800Y38100D03*
X660400Y63500D03*
X660400Y38100D03*
X635000Y63500D03*
X635000Y38100D03*
X609600Y63500D03*
X609600Y38100D03*
X584200Y63500D03*
X584200Y38100D03*
D14*
X368300Y685800D03*
X368300Y711200D03*
X393700Y685800D03*
X393700Y711200D03*
X419100Y685800D03*
X419100Y711200D03*
X444500Y685800D03*
X444500Y711200D03*
X469900Y685800D03*
X469900Y711200D03*
D15*
X469900Y63500D03*
X469900Y38100D03*
X444500Y63500D03*
X444500Y38100D03*
X419100Y63500D03*
X419100Y38100D03*
X393700Y63500D03*
X393700Y38100D03*
X368300Y63500D03*
X368300Y38100D03*
D14*
X152400Y685800D03*
X152400Y711200D03*
X177800Y685800D03*
X177800Y711200D03*
X203200Y685800D03*
X203200Y711200D03*
X228600Y685800D03*
X228600Y711200D03*
X254000Y685800D03*
X254000Y711200D03*
D15*
X254000Y63500D03*
X254000Y38100D03*
X228600Y63500D03*
X228600Y38100D03*
X203200Y63500D03*
X203200Y38100D03*
X177800Y63500D03*
X177800Y38100D03*
X152400Y63500D03*
X152400Y38100D03*
D13*
X63500Y304400D03*
X63500Y254400D03*
M02*
