G75*
%MOIN*%
%OFA0B0*%
%FSLAX25Y25*%
%IPPOS*%
%LPD*%
%AMOC8*
5,1,8,0,0,1.08239X$1,22.5*
%
%ADD10C,0.00800*%
D10*
X0014965Y0003630D02*
X0048035Y0003630D01*
X0048035Y0019622D01*
X0046854Y0019622D01*
X0046854Y0025445D01*
X0048035Y0025445D01*
X0048035Y0035587D01*
X0048035Y0050413D01*
X0048035Y0082370D01*
X0014965Y0082370D01*
X0014965Y0003630D01*
X0018606Y0008059D02*
X0044394Y0008059D01*
X0044394Y0035587D01*
X0041933Y0035587D02*
X0048035Y0035587D01*
X0041933Y0035587D02*
X0041933Y0050413D01*
X0048035Y0050413D01*
X0044394Y0050413D02*
X0044394Y0077941D01*
X0018606Y0077941D01*
X0018606Y0008059D01*
X0184965Y0003630D02*
X0218035Y0003630D01*
X0218035Y0082370D01*
X0184965Y0082370D01*
X0184965Y0066378D01*
X0186146Y0066378D01*
X0186146Y0060555D01*
X0184965Y0060555D01*
X0184965Y0050413D01*
X0184965Y0035587D01*
X0184965Y0003630D01*
X0188606Y0008059D02*
X0214394Y0008059D01*
X0214394Y0077941D01*
X0188606Y0077941D01*
X0188606Y0050413D01*
X0191067Y0050413D02*
X0184965Y0050413D01*
X0191067Y0050413D02*
X0191067Y0035587D01*
X0184965Y0035587D01*
X0188606Y0035587D02*
X0188606Y0008059D01*
M02*
