%
M48
M72
T01C0.0394
T02C0.0400
T03C0.0470
%
T01
X2650Y2300
X3650Y2300
X3650Y3300
X2650Y3300
X2650Y4300
X3650Y4300
X3650Y5300
X2650Y5300
X2650Y6300
X3650Y6300
X19650Y6300
X20650Y6300
X20650Y5300
X19650Y5300
X19650Y4300
X20650Y4300
X20650Y3300
X19650Y3300
X19650Y2300
X20650Y2300
T02
X16650Y1800
X15650Y1800
X14650Y1800
X14650Y2800
X15650Y2800
X16650Y2800
X16650Y3800
X15650Y3800
X14650Y3800
X14650Y4800
X15650Y4800
X16650Y4800
X16650Y5800
X15650Y5800
X14650Y5800
X8650Y5800
X7650Y5800
X6650Y5800
X6650Y4800
X7650Y4800
X8650Y4800
X8650Y3800
X7650Y3800
X6650Y3800
X6650Y2800
X7650Y2800
X8650Y2800
X8650Y1800
X7650Y1800
X6650Y1800
T03
X10666Y2300
X12634Y2300
M30
