G75*
%MOIN*%
%OFA0B0*%
%FSLAX25Y25*%
%IPPOS*%
%LPD*%
%AMOC8*
5,1,8,0,0,1.08239X$1,22.5*
%
%ADD10OC8,0.06400*%
%ADD11OC8,0.07450*%
%ADD12OC8,0.06337*%
D10*
X0066500Y0018000D03*
X0076500Y0018000D03*
X0086500Y0018000D03*
X0086500Y0028000D03*
X0076500Y0028000D03*
X0066500Y0028000D03*
X0066500Y0038000D03*
X0076500Y0038000D03*
X0086500Y0038000D03*
X0086500Y0048000D03*
X0076500Y0048000D03*
X0066500Y0048000D03*
X0066500Y0058000D03*
X0076500Y0058000D03*
X0086500Y0058000D03*
X0146500Y0058000D03*
X0156500Y0058000D03*
X0166500Y0058000D03*
X0166500Y0048000D03*
X0156500Y0048000D03*
X0146500Y0048000D03*
X0146500Y0038000D03*
X0156500Y0038000D03*
X0166500Y0038000D03*
X0166500Y0028000D03*
X0156500Y0028000D03*
X0146500Y0028000D03*
X0146500Y0018000D03*
X0156500Y0018000D03*
X0166500Y0018000D03*
D11*
X0126343Y0023000D03*
X0106657Y0023000D03*
D12*
X0026500Y0023000D03*
X0036500Y0023000D03*
X0036500Y0033000D03*
X0026500Y0033000D03*
X0026500Y0043000D03*
X0036500Y0043000D03*
X0036500Y0053000D03*
X0026500Y0053000D03*
X0026500Y0063000D03*
X0036500Y0063000D03*
X0196500Y0063000D03*
X0206500Y0063000D03*
X0206500Y0053000D03*
X0196500Y0053000D03*
X0196500Y0043000D03*
X0206500Y0043000D03*
X0206500Y0033000D03*
X0196500Y0033000D03*
X0196500Y0023000D03*
X0206500Y0023000D03*
M02*
