G75*
%MOIN*%
%OFA0B0*%
%FSLAX25Y25*%
%IPPOS*%
%LPD*%
%AMOC8*
5,1,8,0,0,1.08239X$1,22.5*
%
%ADD10OC8,0.06000*%
%ADD11OC8,0.07050*%
%ADD12OC8,0.05937*%
%ADD13C,0.01000*%
D10*
X0066500Y0018000D03*
X0076500Y0018000D03*
X0086500Y0018000D03*
X0086500Y0028000D03*
X0076500Y0028000D03*
X0066500Y0028000D03*
X0066500Y0038000D03*
X0076500Y0038000D03*
X0086500Y0038000D03*
X0086500Y0048000D03*
X0076500Y0048000D03*
X0066500Y0048000D03*
X0066500Y0058000D03*
X0076500Y0058000D03*
X0086500Y0058000D03*
X0146500Y0058000D03*
X0156500Y0058000D03*
X0166500Y0058000D03*
X0166500Y0048000D03*
X0156500Y0048000D03*
X0146500Y0048000D03*
X0146500Y0038000D03*
X0156500Y0038000D03*
X0166500Y0038000D03*
X0166500Y0028000D03*
X0156500Y0028000D03*
X0146500Y0028000D03*
X0146500Y0018000D03*
X0156500Y0018000D03*
X0166500Y0018000D03*
D11*
X0126343Y0023000D03*
X0106657Y0023000D03*
D12*
X0036500Y0023000D03*
X0026500Y0023000D03*
X0026500Y0033000D03*
X0036500Y0033000D03*
X0036500Y0043000D03*
X0026500Y0043000D03*
X0026500Y0053000D03*
X0036500Y0053000D03*
X0036500Y0063000D03*
X0026500Y0063000D03*
X0196500Y0063000D03*
X0206500Y0063000D03*
X0206500Y0053000D03*
X0196500Y0053000D03*
X0196500Y0043000D03*
X0206500Y0043000D03*
X0206500Y0033000D03*
X0196500Y0033000D03*
X0196500Y0023000D03*
X0206500Y0023000D03*
D13*
X0011500Y0005100D02*
X0010264Y0005197D01*
X0007913Y0005961D01*
X0005914Y0007414D01*
X0004461Y0009413D01*
X0003697Y0011764D01*
X0003600Y0013000D01*
X0003600Y0073000D01*
X0003697Y0074230D01*
X0004457Y0076569D01*
X0005902Y0078558D01*
X0007892Y0080004D01*
X0010231Y0080764D01*
X0011461Y0080861D01*
X0223500Y0080861D01*
X0224533Y0080779D01*
X0226497Y0080141D01*
X0228167Y0078927D01*
X0229381Y0077257D01*
X0230020Y0075292D01*
X0230101Y0074261D01*
X0229608Y0012578D01*
X0229601Y0012571D01*
X0229601Y0011710D01*
X0229601Y0011700D01*
X0229520Y0010668D01*
X0228881Y0008704D01*
X0227667Y0007033D01*
X0225997Y0005819D01*
X0224033Y0005181D01*
X0223000Y0005100D01*
X0011500Y0005100D01*
X0007856Y0006003D02*
X0226249Y0006003D01*
X0227624Y0007001D02*
X0006481Y0007001D01*
X0005488Y0008000D02*
X0228370Y0008000D01*
X0228977Y0008999D02*
X0004763Y0008999D01*
X0004271Y0009997D02*
X0229301Y0009997D01*
X0229545Y0010996D02*
X0003947Y0010996D01*
X0003679Y0011994D02*
X0229601Y0011994D01*
X0229611Y0012993D02*
X0168705Y0012993D01*
X0168612Y0012900D02*
X0171600Y0015888D01*
X0171600Y0020112D01*
X0168712Y0023000D01*
X0171600Y0025888D01*
X0171600Y0030112D01*
X0168712Y0033000D01*
X0171600Y0035888D01*
X0171600Y0040112D01*
X0168712Y0043000D01*
X0171600Y0045888D01*
X0171600Y0050112D01*
X0168712Y0053000D01*
X0171600Y0055888D01*
X0171600Y0060112D01*
X0168612Y0063100D01*
X0164388Y0063100D01*
X0161400Y0060112D01*
X0161400Y0055888D01*
X0164288Y0053000D01*
X0161400Y0050112D01*
X0161400Y0045888D01*
X0164288Y0043000D01*
X0161400Y0040112D01*
X0161400Y0035888D01*
X0164288Y0033000D01*
X0161400Y0030112D01*
X0161400Y0025888D01*
X0164288Y0023000D01*
X0161400Y0020112D01*
X0161400Y0015888D01*
X0164388Y0012900D01*
X0168612Y0012900D01*
X0169704Y0013991D02*
X0229619Y0013991D01*
X0229627Y0014990D02*
X0170702Y0014990D01*
X0171600Y0015988D02*
X0229635Y0015988D01*
X0229643Y0016987D02*
X0171600Y0016987D01*
X0171600Y0017985D02*
X0194347Y0017985D01*
X0194401Y0017931D02*
X0198599Y0017931D01*
X0201568Y0020901D01*
X0201568Y0025099D01*
X0198668Y0028000D01*
X0201568Y0030901D01*
X0201568Y0035099D01*
X0198668Y0038000D01*
X0201568Y0040901D01*
X0201568Y0045099D01*
X0198668Y0048000D01*
X0201568Y0050901D01*
X0201568Y0055099D01*
X0198668Y0058000D01*
X0201568Y0060901D01*
X0201568Y0065099D01*
X0198599Y0068068D01*
X0194401Y0068068D01*
X0191431Y0065099D01*
X0191431Y0060901D01*
X0194332Y0058000D01*
X0191431Y0055099D01*
X0191431Y0050901D01*
X0194332Y0048000D01*
X0191431Y0045099D01*
X0191431Y0040901D01*
X0194332Y0038000D01*
X0191431Y0035099D01*
X0191431Y0030901D01*
X0194332Y0028000D01*
X0191431Y0025099D01*
X0191431Y0020901D01*
X0194401Y0017931D01*
X0193348Y0018984D02*
X0171600Y0018984D01*
X0171600Y0019982D02*
X0192350Y0019982D01*
X0191431Y0020981D02*
X0170732Y0020981D01*
X0169733Y0021979D02*
X0191431Y0021979D01*
X0191431Y0022978D02*
X0168735Y0022978D01*
X0169689Y0023976D02*
X0191431Y0023976D01*
X0191431Y0024975D02*
X0170687Y0024975D01*
X0171600Y0025973D02*
X0192305Y0025973D01*
X0193304Y0026972D02*
X0171600Y0026972D01*
X0171600Y0027970D02*
X0194302Y0027970D01*
X0193363Y0028969D02*
X0171600Y0028969D01*
X0171600Y0029967D02*
X0192365Y0029967D01*
X0191431Y0030966D02*
X0170747Y0030966D01*
X0169748Y0031964D02*
X0191431Y0031964D01*
X0191431Y0032963D02*
X0168750Y0032963D01*
X0169674Y0033961D02*
X0191431Y0033961D01*
X0191431Y0034960D02*
X0170672Y0034960D01*
X0171600Y0035958D02*
X0192290Y0035958D01*
X0193289Y0036957D02*
X0171600Y0036957D01*
X0171600Y0037955D02*
X0194287Y0037955D01*
X0193378Y0038954D02*
X0171600Y0038954D01*
X0171600Y0039952D02*
X0192380Y0039952D01*
X0191431Y0040951D02*
X0170762Y0040951D01*
X0169763Y0041949D02*
X0191431Y0041949D01*
X0191431Y0042948D02*
X0168765Y0042948D01*
X0169659Y0043946D02*
X0191431Y0043946D01*
X0191431Y0044945D02*
X0170657Y0044945D01*
X0171600Y0045943D02*
X0192276Y0045943D01*
X0193274Y0046942D02*
X0171600Y0046942D01*
X0171600Y0047940D02*
X0194273Y0047940D01*
X0193393Y0048939D02*
X0171600Y0048939D01*
X0171600Y0049937D02*
X0192395Y0049937D01*
X0191431Y0050936D02*
X0170776Y0050936D01*
X0169778Y0051934D02*
X0191431Y0051934D01*
X0191431Y0052933D02*
X0168779Y0052933D01*
X0169644Y0053932D02*
X0191431Y0053932D01*
X0191431Y0054930D02*
X0170643Y0054930D01*
X0171600Y0055929D02*
X0192261Y0055929D01*
X0193259Y0056927D02*
X0171600Y0056927D01*
X0171600Y0057926D02*
X0194258Y0057926D01*
X0193408Y0058924D02*
X0171600Y0058924D01*
X0171600Y0059923D02*
X0192409Y0059923D01*
X0191431Y0060921D02*
X0170791Y0060921D01*
X0169793Y0061920D02*
X0191431Y0061920D01*
X0191431Y0062918D02*
X0168794Y0062918D01*
X0164206Y0062918D02*
X0148794Y0062918D01*
X0148612Y0063100D02*
X0144388Y0063100D01*
X0141400Y0060112D01*
X0141400Y0055888D01*
X0144288Y0053000D01*
X0141400Y0050112D01*
X0141400Y0045888D01*
X0144288Y0043000D01*
X0141400Y0040112D01*
X0141400Y0035888D01*
X0144288Y0033000D01*
X0141400Y0030112D01*
X0141400Y0025888D01*
X0144288Y0023000D01*
X0141400Y0020112D01*
X0141400Y0015888D01*
X0144388Y0012900D01*
X0148612Y0012900D01*
X0151600Y0015888D01*
X0151600Y0020112D01*
X0148712Y0023000D01*
X0151600Y0025888D01*
X0151600Y0030112D01*
X0148712Y0033000D01*
X0151600Y0035888D01*
X0151600Y0040112D01*
X0148712Y0043000D01*
X0151600Y0045888D01*
X0151600Y0050112D01*
X0148712Y0053000D01*
X0151600Y0055888D01*
X0151600Y0060112D01*
X0148612Y0063100D01*
X0149793Y0061920D02*
X0154056Y0061920D01*
X0154636Y0062500D02*
X0152000Y0059864D01*
X0152000Y0058500D01*
X0156000Y0058500D01*
X0156000Y0062500D01*
X0154636Y0062500D01*
X0156000Y0061920D02*
X0157000Y0061920D01*
X0157000Y0062500D02*
X0158364Y0062500D01*
X0161000Y0059864D01*
X0161000Y0058500D01*
X0157000Y0058500D01*
X0157000Y0057500D01*
X0161000Y0057500D01*
X0161000Y0056136D01*
X0158364Y0053500D01*
X0157000Y0053500D01*
X0157000Y0057500D01*
X0156000Y0057500D01*
X0156000Y0053500D01*
X0154636Y0053500D01*
X0152000Y0056136D01*
X0152000Y0057500D01*
X0156000Y0057500D01*
X0156000Y0058500D01*
X0157000Y0058500D01*
X0157000Y0062500D01*
X0158944Y0061920D02*
X0163207Y0061920D01*
X0162209Y0060921D02*
X0159943Y0060921D01*
X0160941Y0059923D02*
X0161400Y0059923D01*
X0161400Y0058924D02*
X0161000Y0058924D01*
X0161400Y0057926D02*
X0157000Y0057926D01*
X0157000Y0058924D02*
X0156000Y0058924D01*
X0156000Y0057926D02*
X0151600Y0057926D01*
X0151600Y0058924D02*
X0152000Y0058924D01*
X0152059Y0059923D02*
X0151600Y0059923D01*
X0150791Y0060921D02*
X0153057Y0060921D01*
X0156000Y0060921D02*
X0157000Y0060921D01*
X0157000Y0059923D02*
X0156000Y0059923D01*
X0156000Y0056927D02*
X0157000Y0056927D01*
X0157000Y0055929D02*
X0156000Y0055929D01*
X0152207Y0055929D02*
X0151600Y0055929D01*
X0151600Y0056927D02*
X0152000Y0056927D01*
X0153206Y0054930D02*
X0150643Y0054930D01*
X0149644Y0053932D02*
X0154205Y0053932D01*
X0154636Y0052500D02*
X0152000Y0049864D01*
X0152000Y0048500D01*
X0156000Y0048500D01*
X0156000Y0052500D01*
X0154636Y0052500D01*
X0154071Y0051934D02*
X0149778Y0051934D01*
X0150776Y0050936D02*
X0153072Y0050936D01*
X0152074Y0049937D02*
X0151600Y0049937D01*
X0156000Y0049937D02*
X0157000Y0049937D01*
X0157000Y0050936D02*
X0156000Y0050936D01*
X0156000Y0051934D02*
X0157000Y0051934D01*
X0157000Y0052500D02*
X0158364Y0052500D01*
X0161000Y0049864D01*
X0161000Y0048500D01*
X0157000Y0048500D01*
X0157000Y0047500D01*
X0161000Y0047500D01*
X0161000Y0046136D01*
X0158364Y0043500D01*
X0157000Y0043500D01*
X0157000Y0047500D01*
X0156000Y0047500D01*
X0156000Y0043500D01*
X0154636Y0043500D01*
X0152000Y0046136D01*
X0152000Y0047500D01*
X0156000Y0047500D01*
X0156000Y0048500D01*
X0157000Y0048500D01*
X0157000Y0052500D01*
X0157000Y0053932D02*
X0156000Y0053932D01*
X0156000Y0054930D02*
X0157000Y0054930D01*
X0158795Y0053932D02*
X0163356Y0053932D01*
X0164221Y0052933D02*
X0148779Y0052933D01*
X0144221Y0052933D02*
X0088779Y0052933D01*
X0088712Y0053000D02*
X0091600Y0055888D01*
X0091600Y0060112D01*
X0088612Y0063100D01*
X0084388Y0063100D01*
X0081400Y0060112D01*
X0081400Y0055888D01*
X0084288Y0053000D01*
X0081400Y0050112D01*
X0081400Y0045888D01*
X0084288Y0043000D01*
X0081400Y0040112D01*
X0081400Y0035888D01*
X0084288Y0033000D01*
X0081400Y0030112D01*
X0081400Y0025888D01*
X0084288Y0023000D01*
X0081400Y0020112D01*
X0081400Y0015888D01*
X0084388Y0012900D01*
X0088612Y0012900D01*
X0091600Y0015888D01*
X0091600Y0020112D01*
X0088712Y0023000D01*
X0091600Y0025888D01*
X0091600Y0030112D01*
X0088712Y0033000D01*
X0091600Y0035888D01*
X0091600Y0040112D01*
X0088712Y0043000D01*
X0091600Y0045888D01*
X0091600Y0050112D01*
X0088712Y0053000D01*
X0089644Y0053932D02*
X0143356Y0053932D01*
X0142357Y0054930D02*
X0090643Y0054930D01*
X0091600Y0055929D02*
X0141400Y0055929D01*
X0141400Y0056927D02*
X0091600Y0056927D01*
X0091600Y0057926D02*
X0141400Y0057926D01*
X0141400Y0058924D02*
X0091600Y0058924D01*
X0091600Y0059923D02*
X0141400Y0059923D01*
X0142209Y0060921D02*
X0090791Y0060921D01*
X0089793Y0061920D02*
X0143207Y0061920D01*
X0144206Y0062918D02*
X0088794Y0062918D01*
X0084206Y0062918D02*
X0068794Y0062918D01*
X0068612Y0063100D02*
X0064388Y0063100D01*
X0061400Y0060112D01*
X0061400Y0055888D01*
X0064288Y0053000D01*
X0061400Y0050112D01*
X0061400Y0045888D01*
X0064288Y0043000D01*
X0061400Y0040112D01*
X0061400Y0035888D01*
X0064288Y0033000D01*
X0061400Y0030112D01*
X0061400Y0025888D01*
X0064288Y0023000D01*
X0061400Y0020112D01*
X0061400Y0015888D01*
X0064388Y0012900D01*
X0068612Y0012900D01*
X0071600Y0015888D01*
X0071600Y0020112D01*
X0068712Y0023000D01*
X0071600Y0025888D01*
X0071600Y0030112D01*
X0068712Y0033000D01*
X0071600Y0035888D01*
X0071600Y0040112D01*
X0068712Y0043000D01*
X0071600Y0045888D01*
X0071600Y0050112D01*
X0068712Y0053000D01*
X0071600Y0055888D01*
X0071600Y0060112D01*
X0068612Y0063100D01*
X0069793Y0061920D02*
X0074056Y0061920D01*
X0074636Y0062500D02*
X0072000Y0059864D01*
X0072000Y0058500D01*
X0076000Y0058500D01*
X0076000Y0062500D01*
X0074636Y0062500D01*
X0076000Y0061920D02*
X0077000Y0061920D01*
X0077000Y0062500D02*
X0078364Y0062500D01*
X0081000Y0059864D01*
X0081000Y0058500D01*
X0077000Y0058500D01*
X0077000Y0057500D01*
X0081000Y0057500D01*
X0081000Y0056136D01*
X0078364Y0053500D01*
X0077000Y0053500D01*
X0077000Y0057500D01*
X0076000Y0057500D01*
X0076000Y0053500D01*
X0074636Y0053500D01*
X0072000Y0056136D01*
X0072000Y0057500D01*
X0076000Y0057500D01*
X0076000Y0058500D01*
X0077000Y0058500D01*
X0077000Y0062500D01*
X0078944Y0061920D02*
X0083207Y0061920D01*
X0082209Y0060921D02*
X0079943Y0060921D01*
X0080941Y0059923D02*
X0081400Y0059923D01*
X0081400Y0058924D02*
X0081000Y0058924D01*
X0081400Y0057926D02*
X0077000Y0057926D01*
X0077000Y0058924D02*
X0076000Y0058924D01*
X0076000Y0057926D02*
X0071600Y0057926D01*
X0071600Y0058924D02*
X0072000Y0058924D01*
X0072059Y0059923D02*
X0071600Y0059923D01*
X0070791Y0060921D02*
X0073057Y0060921D01*
X0076000Y0060921D02*
X0077000Y0060921D01*
X0077000Y0059923D02*
X0076000Y0059923D01*
X0076000Y0056927D02*
X0077000Y0056927D01*
X0077000Y0055929D02*
X0076000Y0055929D01*
X0076000Y0054930D02*
X0077000Y0054930D01*
X0077000Y0053932D02*
X0076000Y0053932D01*
X0076000Y0052500D02*
X0074636Y0052500D01*
X0072000Y0049864D01*
X0072000Y0048500D01*
X0076000Y0048500D01*
X0076000Y0052500D01*
X0076000Y0051934D02*
X0077000Y0051934D01*
X0077000Y0052500D02*
X0078364Y0052500D01*
X0081000Y0049864D01*
X0081000Y0048500D01*
X0077000Y0048500D01*
X0077000Y0047500D01*
X0081000Y0047500D01*
X0081000Y0046136D01*
X0078364Y0043500D01*
X0077000Y0043500D01*
X0077000Y0047500D01*
X0076000Y0047500D01*
X0076000Y0043500D01*
X0074636Y0043500D01*
X0072000Y0046136D01*
X0072000Y0047500D01*
X0076000Y0047500D01*
X0076000Y0048500D01*
X0077000Y0048500D01*
X0077000Y0052500D01*
X0078929Y0051934D02*
X0083222Y0051934D01*
X0082224Y0050936D02*
X0079928Y0050936D01*
X0080926Y0049937D02*
X0081400Y0049937D01*
X0077000Y0049937D02*
X0076000Y0049937D01*
X0076000Y0050936D02*
X0077000Y0050936D01*
X0074071Y0051934D02*
X0069778Y0051934D01*
X0070776Y0050936D02*
X0073072Y0050936D01*
X0072074Y0049937D02*
X0071600Y0049937D01*
X0071600Y0048939D02*
X0072000Y0048939D01*
X0071600Y0047940D02*
X0076000Y0047940D01*
X0076000Y0046942D02*
X0077000Y0046942D01*
X0077000Y0047940D02*
X0081400Y0047940D01*
X0081400Y0046942D02*
X0081000Y0046942D01*
X0080807Y0045943D02*
X0081400Y0045943D01*
X0082343Y0044945D02*
X0079809Y0044945D01*
X0078810Y0043946D02*
X0083341Y0043946D01*
X0084235Y0042948D02*
X0068765Y0042948D01*
X0069763Y0041949D02*
X0074085Y0041949D01*
X0074636Y0042500D02*
X0072000Y0039864D01*
X0072000Y0038500D01*
X0076000Y0038500D01*
X0076000Y0042500D01*
X0074636Y0042500D01*
X0076000Y0041949D02*
X0077000Y0041949D01*
X0077000Y0042500D02*
X0078364Y0042500D01*
X0081000Y0039864D01*
X0081000Y0038500D01*
X0077000Y0038500D01*
X0077000Y0037500D01*
X0081000Y0037500D01*
X0081000Y0036136D01*
X0078364Y0033500D01*
X0077000Y0033500D01*
X0077000Y0037500D01*
X0076000Y0037500D01*
X0076000Y0033500D01*
X0074636Y0033500D01*
X0072000Y0036136D01*
X0072000Y0037500D01*
X0076000Y0037500D01*
X0076000Y0038500D01*
X0077000Y0038500D01*
X0077000Y0042500D01*
X0078915Y0041949D02*
X0083237Y0041949D01*
X0082238Y0040951D02*
X0079913Y0040951D01*
X0080912Y0039952D02*
X0081400Y0039952D01*
X0081400Y0038954D02*
X0081000Y0038954D01*
X0081400Y0037955D02*
X0077000Y0037955D01*
X0077000Y0038954D02*
X0076000Y0038954D01*
X0076000Y0039952D02*
X0077000Y0039952D01*
X0077000Y0040951D02*
X0076000Y0040951D01*
X0073087Y0040951D02*
X0070762Y0040951D01*
X0071600Y0039952D02*
X0072088Y0039952D01*
X0072000Y0038954D02*
X0071600Y0038954D01*
X0071600Y0037955D02*
X0076000Y0037955D01*
X0076000Y0036957D02*
X0077000Y0036957D01*
X0077000Y0035958D02*
X0076000Y0035958D01*
X0076000Y0034960D02*
X0077000Y0034960D01*
X0077000Y0033961D02*
X0076000Y0033961D01*
X0074175Y0033961D02*
X0069674Y0033961D01*
X0068750Y0032963D02*
X0084250Y0032963D01*
X0083326Y0033961D02*
X0078825Y0033961D01*
X0079824Y0034960D02*
X0082328Y0034960D01*
X0081400Y0035958D02*
X0080822Y0035958D01*
X0081000Y0036957D02*
X0081400Y0036957D01*
X0073176Y0034960D02*
X0070672Y0034960D01*
X0071600Y0035958D02*
X0072178Y0035958D01*
X0072000Y0036957D02*
X0071600Y0036957D01*
X0063326Y0033961D02*
X0041568Y0033961D01*
X0041568Y0032963D02*
X0064250Y0032963D01*
X0063252Y0031964D02*
X0041568Y0031964D01*
X0041568Y0030966D02*
X0062253Y0030966D01*
X0061400Y0029967D02*
X0040635Y0029967D01*
X0041568Y0030901D02*
X0041568Y0035099D01*
X0038668Y0038000D01*
X0041568Y0040901D01*
X0041568Y0045099D01*
X0038668Y0048000D01*
X0041568Y0050901D01*
X0041568Y0055099D01*
X0038668Y0058000D01*
X0041568Y0060901D01*
X0041568Y0065099D01*
X0038599Y0068068D01*
X0034401Y0068068D01*
X0031431Y0065099D01*
X0031431Y0060901D01*
X0034332Y0058000D01*
X0031431Y0055099D01*
X0031431Y0050901D01*
X0034332Y0048000D01*
X0031431Y0045099D01*
X0031431Y0040901D01*
X0034332Y0038000D01*
X0031431Y0035099D01*
X0031431Y0030901D01*
X0034332Y0028000D01*
X0031431Y0025099D01*
X0031431Y0020901D01*
X0034401Y0017931D01*
X0038599Y0017931D01*
X0041568Y0020901D01*
X0041568Y0025099D01*
X0038668Y0028000D01*
X0041568Y0030901D01*
X0039637Y0028969D02*
X0061400Y0028969D01*
X0061400Y0027970D02*
X0038698Y0027970D01*
X0039696Y0026972D02*
X0061400Y0026972D01*
X0061400Y0025973D02*
X0040695Y0025973D01*
X0041568Y0024975D02*
X0062313Y0024975D01*
X0063311Y0023976D02*
X0041568Y0023976D01*
X0041568Y0022978D02*
X0064265Y0022978D01*
X0063267Y0021979D02*
X0041568Y0021979D01*
X0041568Y0020981D02*
X0062268Y0020981D01*
X0061400Y0019982D02*
X0040650Y0019982D01*
X0039652Y0018984D02*
X0061400Y0018984D01*
X0061400Y0017985D02*
X0038653Y0017985D01*
X0034347Y0017985D02*
X0003600Y0017985D01*
X0003600Y0016987D02*
X0061400Y0016987D01*
X0061400Y0015988D02*
X0003600Y0015988D01*
X0003600Y0014990D02*
X0062298Y0014990D01*
X0063296Y0013991D02*
X0003600Y0013991D01*
X0003601Y0012993D02*
X0064295Y0012993D01*
X0068705Y0012993D02*
X0084295Y0012993D01*
X0083296Y0013991D02*
X0078855Y0013991D01*
X0078364Y0013500D02*
X0081000Y0016136D01*
X0081000Y0017500D01*
X0077000Y0017500D01*
X0077000Y0018500D01*
X0081000Y0018500D01*
X0081000Y0019864D01*
X0078364Y0022500D01*
X0077000Y0022500D01*
X0077000Y0018500D01*
X0076000Y0018500D01*
X0076000Y0022500D01*
X0074636Y0022500D01*
X0072000Y0019864D01*
X0072000Y0018500D01*
X0076000Y0018500D01*
X0076000Y0017500D01*
X0077000Y0017500D01*
X0077000Y0013500D01*
X0078364Y0013500D01*
X0077000Y0013991D02*
X0076000Y0013991D01*
X0076000Y0013500D02*
X0076000Y0017500D01*
X0072000Y0017500D01*
X0072000Y0016136D01*
X0074636Y0013500D01*
X0076000Y0013500D01*
X0074145Y0013991D02*
X0069704Y0013991D01*
X0070702Y0014990D02*
X0073146Y0014990D01*
X0072148Y0015988D02*
X0071600Y0015988D01*
X0071600Y0016987D02*
X0072000Y0016987D01*
X0071600Y0017985D02*
X0076000Y0017985D01*
X0076000Y0016987D02*
X0077000Y0016987D01*
X0077000Y0017985D02*
X0081400Y0017985D01*
X0081400Y0016987D02*
X0081000Y0016987D01*
X0080852Y0015988D02*
X0081400Y0015988D01*
X0082298Y0014990D02*
X0079854Y0014990D01*
X0077000Y0014990D02*
X0076000Y0014990D01*
X0076000Y0015988D02*
X0077000Y0015988D01*
X0077000Y0018984D02*
X0076000Y0018984D01*
X0076000Y0019982D02*
X0077000Y0019982D01*
X0077000Y0020981D02*
X0076000Y0020981D01*
X0076000Y0021979D02*
X0077000Y0021979D01*
X0078885Y0021979D02*
X0083267Y0021979D01*
X0084265Y0022978D02*
X0068735Y0022978D01*
X0069689Y0023976D02*
X0074160Y0023976D01*
X0074636Y0023500D02*
X0076000Y0023500D01*
X0076000Y0027500D01*
X0077000Y0027500D01*
X0077000Y0028500D01*
X0081000Y0028500D01*
X0081000Y0029864D01*
X0078364Y0032500D01*
X0077000Y0032500D01*
X0077000Y0028500D01*
X0076000Y0028500D01*
X0076000Y0032500D01*
X0074636Y0032500D01*
X0072000Y0029864D01*
X0072000Y0028500D01*
X0076000Y0028500D01*
X0076000Y0027500D01*
X0072000Y0027500D01*
X0072000Y0026136D01*
X0074636Y0023500D01*
X0076000Y0023976D02*
X0077000Y0023976D01*
X0077000Y0023500D02*
X0078364Y0023500D01*
X0081000Y0026136D01*
X0081000Y0027500D01*
X0077000Y0027500D01*
X0077000Y0023500D01*
X0078840Y0023976D02*
X0083311Y0023976D01*
X0082313Y0024975D02*
X0079839Y0024975D01*
X0080837Y0025973D02*
X0081400Y0025973D01*
X0081400Y0026972D02*
X0081000Y0026972D01*
X0081400Y0027970D02*
X0077000Y0027970D01*
X0077000Y0026972D02*
X0076000Y0026972D01*
X0076000Y0027970D02*
X0071600Y0027970D01*
X0071600Y0026972D02*
X0072000Y0026972D01*
X0072163Y0025973D02*
X0071600Y0025973D01*
X0070687Y0024975D02*
X0073161Y0024975D01*
X0076000Y0024975D02*
X0077000Y0024975D01*
X0077000Y0025973D02*
X0076000Y0025973D01*
X0076000Y0028969D02*
X0077000Y0028969D01*
X0077000Y0029967D02*
X0076000Y0029967D01*
X0076000Y0030966D02*
X0077000Y0030966D01*
X0077000Y0031964D02*
X0076000Y0031964D01*
X0074100Y0031964D02*
X0069748Y0031964D01*
X0070747Y0030966D02*
X0073102Y0030966D01*
X0072103Y0029967D02*
X0071600Y0029967D01*
X0071600Y0028969D02*
X0072000Y0028969D01*
X0078900Y0031964D02*
X0083252Y0031964D01*
X0082253Y0030966D02*
X0079898Y0030966D01*
X0080897Y0029967D02*
X0081400Y0029967D01*
X0081400Y0028969D02*
X0081000Y0028969D01*
X0089748Y0031964D02*
X0143252Y0031964D01*
X0142253Y0030966D02*
X0090747Y0030966D01*
X0091600Y0029967D02*
X0141400Y0029967D01*
X0141400Y0028969D02*
X0091600Y0028969D01*
X0091600Y0027970D02*
X0103673Y0027970D01*
X0104328Y0028625D02*
X0101032Y0025330D01*
X0101032Y0020670D01*
X0104328Y0017375D01*
X0108987Y0017375D01*
X0112282Y0020670D01*
X0112282Y0025330D01*
X0108987Y0028625D01*
X0104328Y0028625D01*
X0102674Y0026972D02*
X0091600Y0026972D01*
X0091600Y0025973D02*
X0101676Y0025973D01*
X0101032Y0024975D02*
X0090687Y0024975D01*
X0089689Y0023976D02*
X0101032Y0023976D01*
X0101032Y0022978D02*
X0088735Y0022978D01*
X0089733Y0021979D02*
X0101032Y0021979D01*
X0101032Y0020981D02*
X0090732Y0020981D01*
X0091600Y0019982D02*
X0101720Y0019982D01*
X0102719Y0018984D02*
X0091600Y0018984D01*
X0091600Y0017985D02*
X0103717Y0017985D01*
X0109598Y0017985D02*
X0124251Y0017985D01*
X0124261Y0017975D02*
X0121318Y0020919D01*
X0121318Y0022500D01*
X0125842Y0022500D01*
X0125842Y0023500D01*
X0121318Y0023500D01*
X0121318Y0025081D01*
X0124261Y0028025D01*
X0125843Y0028025D01*
X0125843Y0023500D01*
X0126842Y0023500D01*
X0126842Y0028025D01*
X0128424Y0028025D01*
X0131368Y0025081D01*
X0131368Y0023500D01*
X0126843Y0023500D01*
X0126843Y0022500D01*
X0131367Y0022500D01*
X0131368Y0020919D01*
X0128424Y0017975D01*
X0126842Y0017975D01*
X0126842Y0022500D01*
X0125843Y0022500D01*
X0125843Y0017975D01*
X0124261Y0017975D01*
X0125843Y0017985D02*
X0126842Y0017985D01*
X0128434Y0017985D02*
X0141400Y0017985D01*
X0141400Y0016987D02*
X0091600Y0016987D01*
X0091600Y0015988D02*
X0141400Y0015988D01*
X0142298Y0014990D02*
X0090702Y0014990D01*
X0089704Y0013991D02*
X0143296Y0013991D01*
X0144295Y0012993D02*
X0088705Y0012993D01*
X0081400Y0018984D02*
X0081000Y0018984D01*
X0080882Y0019982D02*
X0081400Y0019982D01*
X0082268Y0020981D02*
X0079883Y0020981D01*
X0074115Y0021979D02*
X0069733Y0021979D01*
X0070732Y0020981D02*
X0073117Y0020981D01*
X0072118Y0019982D02*
X0071600Y0019982D01*
X0071600Y0018984D02*
X0072000Y0018984D01*
X0088750Y0032963D02*
X0144250Y0032963D01*
X0143326Y0033961D02*
X0089674Y0033961D01*
X0090672Y0034960D02*
X0142328Y0034960D01*
X0141400Y0035958D02*
X0091600Y0035958D01*
X0091600Y0036957D02*
X0141400Y0036957D01*
X0141400Y0037955D02*
X0091600Y0037955D01*
X0091600Y0038954D02*
X0141400Y0038954D01*
X0141400Y0039952D02*
X0091600Y0039952D01*
X0090762Y0040951D02*
X0142238Y0040951D01*
X0143237Y0041949D02*
X0089763Y0041949D01*
X0088765Y0042948D02*
X0144235Y0042948D01*
X0143341Y0043946D02*
X0089659Y0043946D01*
X0090657Y0044945D02*
X0142343Y0044945D01*
X0141400Y0045943D02*
X0091600Y0045943D01*
X0091600Y0046942D02*
X0141400Y0046942D01*
X0141400Y0047940D02*
X0091600Y0047940D01*
X0091600Y0048939D02*
X0141400Y0048939D01*
X0141400Y0049937D02*
X0091600Y0049937D01*
X0090776Y0050936D02*
X0142224Y0050936D01*
X0143222Y0051934D02*
X0089778Y0051934D01*
X0084221Y0052933D02*
X0068779Y0052933D01*
X0069644Y0053932D02*
X0074205Y0053932D01*
X0073206Y0054930D02*
X0070642Y0054930D01*
X0071600Y0055929D02*
X0072207Y0055929D01*
X0072000Y0056927D02*
X0071600Y0056927D01*
X0078795Y0053932D02*
X0083356Y0053932D01*
X0082357Y0054930D02*
X0079794Y0054930D01*
X0080792Y0055929D02*
X0081400Y0055929D01*
X0081400Y0056927D02*
X0081000Y0056927D01*
X0064221Y0052933D02*
X0041568Y0052933D01*
X0041568Y0051934D02*
X0063222Y0051934D01*
X0062224Y0050936D02*
X0041568Y0050936D01*
X0040605Y0049937D02*
X0061400Y0049937D01*
X0061400Y0048939D02*
X0039607Y0048939D01*
X0038727Y0047940D02*
X0061400Y0047940D01*
X0061400Y0046942D02*
X0039726Y0046942D01*
X0040724Y0045943D02*
X0061400Y0045943D01*
X0062343Y0044945D02*
X0041568Y0044945D01*
X0041568Y0043946D02*
X0063341Y0043946D01*
X0064235Y0042948D02*
X0041568Y0042948D01*
X0041568Y0041949D02*
X0063237Y0041949D01*
X0062238Y0040951D02*
X0041568Y0040951D01*
X0040620Y0039952D02*
X0061400Y0039952D01*
X0061400Y0038954D02*
X0039622Y0038954D01*
X0038713Y0037955D02*
X0061400Y0037955D01*
X0061400Y0036957D02*
X0039711Y0036957D01*
X0040710Y0035958D02*
X0061400Y0035958D01*
X0062328Y0034960D02*
X0041568Y0034960D01*
X0033289Y0036957D02*
X0028863Y0036957D01*
X0028351Y0037468D02*
X0026984Y0037468D01*
X0026984Y0033484D01*
X0026016Y0033484D01*
X0026016Y0032516D01*
X0022031Y0032516D01*
X0022031Y0031149D01*
X0024649Y0028531D01*
X0026016Y0028531D01*
X0026016Y0032516D01*
X0026984Y0032516D01*
X0026984Y0028531D01*
X0028351Y0028531D01*
X0030968Y0031149D01*
X0030968Y0032516D01*
X0026984Y0032516D01*
X0026984Y0033484D01*
X0030968Y0033484D01*
X0030968Y0034851D01*
X0028351Y0037468D01*
X0028351Y0038531D02*
X0026984Y0038531D01*
X0026984Y0042516D01*
X0026016Y0042516D01*
X0022031Y0042516D01*
X0022031Y0041149D01*
X0024649Y0038531D01*
X0026016Y0038531D01*
X0026016Y0042516D01*
X0026016Y0043484D01*
X0022031Y0043484D01*
X0022031Y0044851D01*
X0024649Y0047468D01*
X0026016Y0047468D01*
X0026016Y0043484D01*
X0026984Y0043484D01*
X0026984Y0047468D01*
X0028351Y0047468D01*
X0030968Y0044851D01*
X0030968Y0043484D01*
X0026984Y0043484D01*
X0026984Y0042516D01*
X0030968Y0042516D01*
X0030968Y0041149D01*
X0028351Y0038531D01*
X0028773Y0038954D02*
X0033378Y0038954D01*
X0034287Y0037955D02*
X0003600Y0037955D01*
X0003600Y0038954D02*
X0024227Y0038954D01*
X0023228Y0039952D02*
X0003600Y0039952D01*
X0003600Y0040951D02*
X0022230Y0040951D01*
X0022031Y0041949D02*
X0003600Y0041949D01*
X0003600Y0042948D02*
X0026016Y0042948D01*
X0026984Y0042948D02*
X0031431Y0042948D01*
X0031431Y0041949D02*
X0030968Y0041949D01*
X0030770Y0040951D02*
X0031431Y0040951D01*
X0032380Y0039952D02*
X0029772Y0039952D01*
X0026984Y0039952D02*
X0026016Y0039952D01*
X0026016Y0038954D02*
X0026984Y0038954D01*
X0026016Y0037468D02*
X0024649Y0037468D01*
X0022031Y0034851D01*
X0022031Y0033484D01*
X0026016Y0033484D01*
X0026016Y0037468D01*
X0026016Y0036957D02*
X0026984Y0036957D01*
X0026984Y0035958D02*
X0026016Y0035958D01*
X0026016Y0034960D02*
X0026984Y0034960D01*
X0026984Y0033961D02*
X0026016Y0033961D01*
X0026016Y0032963D02*
X0003600Y0032963D01*
X0003600Y0033961D02*
X0022031Y0033961D01*
X0022140Y0034960D02*
X0003600Y0034960D01*
X0003600Y0035958D02*
X0023139Y0035958D01*
X0024137Y0036957D02*
X0003600Y0036957D01*
X0003600Y0031964D02*
X0022031Y0031964D01*
X0022215Y0030966D02*
X0003600Y0030966D01*
X0003600Y0029967D02*
X0023213Y0029967D01*
X0024212Y0028969D02*
X0003600Y0028969D01*
X0003600Y0027970D02*
X0034302Y0027970D01*
X0033363Y0028969D02*
X0028788Y0028969D01*
X0029787Y0029967D02*
X0032365Y0029967D01*
X0031431Y0030966D02*
X0030785Y0030966D01*
X0030968Y0031964D02*
X0031431Y0031964D01*
X0031431Y0032963D02*
X0026984Y0032963D01*
X0026984Y0031964D02*
X0026016Y0031964D01*
X0026016Y0030966D02*
X0026984Y0030966D01*
X0026984Y0029967D02*
X0026016Y0029967D01*
X0026016Y0028969D02*
X0026984Y0028969D01*
X0026984Y0027468D02*
X0026984Y0023484D01*
X0026016Y0023484D01*
X0026016Y0022516D01*
X0022031Y0022516D01*
X0022031Y0021149D01*
X0024649Y0018531D01*
X0026016Y0018531D01*
X0026016Y0022516D01*
X0026984Y0022516D01*
X0026984Y0018531D01*
X0028351Y0018531D01*
X0030968Y0021149D01*
X0030968Y0022516D01*
X0026984Y0022516D01*
X0026984Y0023484D01*
X0030968Y0023484D01*
X0030968Y0024851D01*
X0028351Y0027468D01*
X0026984Y0027468D01*
X0026984Y0026972D02*
X0026016Y0026972D01*
X0026016Y0027468D02*
X0024649Y0027468D01*
X0022031Y0024851D01*
X0022031Y0023484D01*
X0026016Y0023484D01*
X0026016Y0027468D01*
X0026016Y0025973D02*
X0026984Y0025973D01*
X0026984Y0024975D02*
X0026016Y0024975D01*
X0029846Y0025973D02*
X0032305Y0025973D01*
X0031431Y0024975D02*
X0030845Y0024975D01*
X0030968Y0023976D02*
X0031431Y0023976D01*
X0031431Y0022978D02*
X0026984Y0022978D01*
X0026016Y0022978D02*
X0003600Y0022978D01*
X0003600Y0023976D02*
X0022031Y0023976D01*
X0022155Y0024975D02*
X0003600Y0024975D01*
X0003600Y0025973D02*
X0023154Y0025973D01*
X0024152Y0026972D02*
X0003600Y0026972D01*
X0003600Y0021979D02*
X0022031Y0021979D01*
X0022200Y0020981D02*
X0003600Y0020981D01*
X0003600Y0019982D02*
X0023198Y0019982D01*
X0024197Y0018984D02*
X0003600Y0018984D01*
X0026016Y0018984D02*
X0026984Y0018984D01*
X0026984Y0019982D02*
X0026016Y0019982D01*
X0026016Y0020981D02*
X0026984Y0020981D01*
X0026984Y0021979D02*
X0026016Y0021979D01*
X0026016Y0023976D02*
X0026984Y0023976D01*
X0030968Y0021979D02*
X0031431Y0021979D01*
X0031431Y0020981D02*
X0030800Y0020981D01*
X0029802Y0019982D02*
X0032350Y0019982D01*
X0033348Y0018984D02*
X0028803Y0018984D01*
X0028848Y0026972D02*
X0033304Y0026972D01*
X0031431Y0033961D02*
X0030968Y0033961D01*
X0030860Y0034960D02*
X0031431Y0034960D01*
X0032290Y0035958D02*
X0029861Y0035958D01*
X0026984Y0040951D02*
X0026016Y0040951D01*
X0026016Y0041949D02*
X0026984Y0041949D01*
X0026984Y0043946D02*
X0026016Y0043946D01*
X0026016Y0044945D02*
X0026984Y0044945D01*
X0026984Y0045943D02*
X0026016Y0045943D01*
X0026016Y0046942D02*
X0026984Y0046942D01*
X0028877Y0046942D02*
X0033274Y0046942D01*
X0034273Y0047940D02*
X0003600Y0047940D01*
X0003600Y0046942D02*
X0024123Y0046942D01*
X0023124Y0045943D02*
X0003600Y0045943D01*
X0003600Y0044945D02*
X0022126Y0044945D01*
X0022031Y0043946D02*
X0003600Y0043946D01*
X0003600Y0048939D02*
X0024242Y0048939D01*
X0024649Y0048531D02*
X0022031Y0051149D01*
X0022031Y0052516D01*
X0026016Y0052516D01*
X0026016Y0053484D01*
X0022031Y0053484D01*
X0022031Y0054851D01*
X0024649Y0057468D01*
X0026016Y0057468D01*
X0026016Y0053484D01*
X0026984Y0053484D01*
X0026984Y0057468D01*
X0028351Y0057468D01*
X0030968Y0054851D01*
X0030968Y0053484D01*
X0026984Y0053484D01*
X0026984Y0052516D01*
X0026984Y0048531D01*
X0028351Y0048531D01*
X0030968Y0051149D01*
X0030968Y0052516D01*
X0026984Y0052516D01*
X0026016Y0052516D01*
X0026016Y0048531D01*
X0024649Y0048531D01*
X0026016Y0048939D02*
X0026984Y0048939D01*
X0028758Y0048939D02*
X0033393Y0048939D01*
X0032395Y0049937D02*
X0029757Y0049937D01*
X0030755Y0050936D02*
X0031431Y0050936D01*
X0031431Y0051934D02*
X0030968Y0051934D01*
X0031431Y0052933D02*
X0026984Y0052933D01*
X0026016Y0052933D02*
X0003600Y0052933D01*
X0003600Y0051934D02*
X0022031Y0051934D01*
X0022245Y0050936D02*
X0003600Y0050936D01*
X0003600Y0049937D02*
X0023243Y0049937D01*
X0026016Y0049937D02*
X0026984Y0049937D01*
X0026984Y0050936D02*
X0026016Y0050936D01*
X0026016Y0051934D02*
X0026984Y0051934D01*
X0026984Y0053932D02*
X0026016Y0053932D01*
X0026016Y0054930D02*
X0026984Y0054930D01*
X0026984Y0055929D02*
X0026016Y0055929D01*
X0026016Y0056927D02*
X0026984Y0056927D01*
X0028892Y0056927D02*
X0033259Y0056927D01*
X0032261Y0055929D02*
X0029891Y0055929D01*
X0030889Y0054930D02*
X0031431Y0054930D01*
X0031431Y0053932D02*
X0030968Y0053932D01*
X0024108Y0056927D02*
X0003600Y0056927D01*
X0003600Y0055929D02*
X0023109Y0055929D01*
X0022111Y0054930D02*
X0003600Y0054930D01*
X0003600Y0053932D02*
X0022031Y0053932D01*
X0034258Y0057926D02*
X0003600Y0057926D01*
X0003600Y0058924D02*
X0024257Y0058924D01*
X0024649Y0058531D02*
X0022031Y0061149D01*
X0022031Y0062516D01*
X0026016Y0062516D01*
X0026016Y0063484D01*
X0022031Y0063484D01*
X0022031Y0064851D01*
X0024649Y0067468D01*
X0026016Y0067468D01*
X0026016Y0063484D01*
X0026984Y0063484D01*
X0026984Y0067468D01*
X0028351Y0067468D01*
X0030968Y0064851D01*
X0030968Y0063484D01*
X0026984Y0063484D01*
X0026984Y0062516D01*
X0026984Y0058531D01*
X0028351Y0058531D01*
X0030968Y0061149D01*
X0030968Y0062516D01*
X0026984Y0062516D01*
X0026016Y0062516D01*
X0026016Y0058531D01*
X0024649Y0058531D01*
X0026016Y0058924D02*
X0026984Y0058924D01*
X0026984Y0059923D02*
X0026016Y0059923D01*
X0026016Y0060921D02*
X0026984Y0060921D01*
X0029742Y0059923D02*
X0032409Y0059923D01*
X0031431Y0060921D02*
X0030741Y0060921D01*
X0030968Y0061920D02*
X0031431Y0061920D01*
X0031431Y0062918D02*
X0026984Y0062918D01*
X0026016Y0062918D02*
X0003600Y0062918D01*
X0003600Y0061920D02*
X0022031Y0061920D01*
X0022259Y0060921D02*
X0003600Y0060921D01*
X0003600Y0059923D02*
X0023258Y0059923D01*
X0026016Y0061920D02*
X0026984Y0061920D01*
X0026984Y0063917D02*
X0026016Y0063917D01*
X0026016Y0064915D02*
X0026984Y0064915D01*
X0026984Y0065914D02*
X0026016Y0065914D01*
X0026016Y0066912D02*
X0026984Y0066912D01*
X0028907Y0066912D02*
X0033244Y0066912D01*
X0032246Y0065914D02*
X0029906Y0065914D01*
X0030904Y0064915D02*
X0031431Y0064915D01*
X0031431Y0063917D02*
X0030968Y0063917D01*
X0024093Y0066912D02*
X0003600Y0066912D01*
X0003600Y0065914D02*
X0023094Y0065914D01*
X0022096Y0064915D02*
X0003600Y0064915D01*
X0003600Y0063917D02*
X0022031Y0063917D01*
X0034243Y0067911D02*
X0003600Y0067911D01*
X0003600Y0068909D02*
X0230058Y0068909D01*
X0230066Y0069908D02*
X0003600Y0069908D01*
X0003600Y0070906D02*
X0230074Y0070906D01*
X0230082Y0071905D02*
X0003600Y0071905D01*
X0003600Y0072903D02*
X0230090Y0072903D01*
X0230098Y0073902D02*
X0003671Y0073902D01*
X0003915Y0074900D02*
X0230050Y0074900D01*
X0229823Y0075899D02*
X0004239Y0075899D01*
X0004696Y0076897D02*
X0229498Y0076897D01*
X0228917Y0077896D02*
X0005421Y0077896D01*
X0006365Y0078894D02*
X0228191Y0078894D01*
X0226839Y0079893D02*
X0007739Y0079893D01*
X0038757Y0067911D02*
X0194243Y0067911D01*
X0193244Y0066912D02*
X0039756Y0066912D01*
X0040754Y0065914D02*
X0192246Y0065914D01*
X0191431Y0064915D02*
X0041568Y0064915D01*
X0041568Y0063917D02*
X0191431Y0063917D01*
X0199756Y0066912D02*
X0204093Y0066912D01*
X0204649Y0067468D02*
X0202031Y0064851D01*
X0202031Y0063484D01*
X0206016Y0063484D01*
X0206016Y0062516D01*
X0202031Y0062516D01*
X0202031Y0061149D01*
X0204649Y0058531D01*
X0206016Y0058531D01*
X0206016Y0062516D01*
X0206984Y0062516D01*
X0206984Y0058531D01*
X0208351Y0058531D01*
X0210968Y0061149D01*
X0210968Y0062516D01*
X0206984Y0062516D01*
X0206984Y0063484D01*
X0206016Y0063484D01*
X0206016Y0067468D01*
X0204649Y0067468D01*
X0206016Y0066912D02*
X0206984Y0066912D01*
X0206984Y0067468D02*
X0206984Y0063484D01*
X0210968Y0063484D01*
X0210968Y0064851D01*
X0208351Y0067468D01*
X0206984Y0067468D01*
X0208907Y0066912D02*
X0230042Y0066912D01*
X0230034Y0065914D02*
X0209906Y0065914D01*
X0210904Y0064915D02*
X0230026Y0064915D01*
X0230018Y0063917D02*
X0210968Y0063917D01*
X0210968Y0061920D02*
X0230002Y0061920D01*
X0230010Y0062918D02*
X0206984Y0062918D01*
X0206016Y0062918D02*
X0201568Y0062918D01*
X0201568Y0061920D02*
X0202031Y0061920D01*
X0202259Y0060921D02*
X0201568Y0060921D01*
X0200591Y0059923D02*
X0203258Y0059923D01*
X0204257Y0058924D02*
X0199592Y0058924D01*
X0198742Y0057926D02*
X0229970Y0057926D01*
X0229978Y0058924D02*
X0208743Y0058924D01*
X0209742Y0059923D02*
X0229986Y0059923D01*
X0229994Y0060921D02*
X0210741Y0060921D01*
X0206984Y0060921D02*
X0206016Y0060921D01*
X0206016Y0059923D02*
X0206984Y0059923D01*
X0206984Y0058924D02*
X0206016Y0058924D01*
X0206016Y0057468D02*
X0204649Y0057468D01*
X0202031Y0054851D01*
X0202031Y0053484D01*
X0206016Y0053484D01*
X0206016Y0052516D01*
X0202031Y0052516D01*
X0202031Y0051149D01*
X0204649Y0048531D01*
X0206016Y0048531D01*
X0206016Y0052516D01*
X0206984Y0052516D01*
X0206984Y0048531D01*
X0208351Y0048531D01*
X0210968Y0051149D01*
X0210968Y0052516D01*
X0206984Y0052516D01*
X0206984Y0053484D01*
X0206016Y0053484D01*
X0206016Y0057468D01*
X0206016Y0056927D02*
X0206984Y0056927D01*
X0206984Y0057468D02*
X0206984Y0053484D01*
X0210968Y0053484D01*
X0210968Y0054851D01*
X0208351Y0057468D01*
X0206984Y0057468D01*
X0206984Y0055929D02*
X0206016Y0055929D01*
X0204108Y0056927D02*
X0199741Y0056927D01*
X0200739Y0055929D02*
X0203109Y0055929D01*
X0202111Y0054930D02*
X0201568Y0054930D01*
X0201568Y0053932D02*
X0202031Y0053932D01*
X0201568Y0052933D02*
X0206016Y0052933D01*
X0206984Y0052933D02*
X0229930Y0052933D01*
X0229922Y0051934D02*
X0210968Y0051934D01*
X0210755Y0050936D02*
X0229914Y0050936D01*
X0229906Y0049937D02*
X0209757Y0049937D01*
X0206984Y0049937D02*
X0206016Y0049937D01*
X0206016Y0050936D02*
X0206984Y0050936D01*
X0206984Y0051934D02*
X0206016Y0051934D01*
X0206016Y0053932D02*
X0206984Y0053932D01*
X0206984Y0054930D02*
X0206016Y0054930D01*
X0209891Y0055929D02*
X0229954Y0055929D01*
X0229962Y0056927D02*
X0208892Y0056927D01*
X0210889Y0054930D02*
X0229946Y0054930D01*
X0229938Y0053932D02*
X0210968Y0053932D01*
X0203243Y0049937D02*
X0200605Y0049937D01*
X0201568Y0050936D02*
X0202245Y0050936D01*
X0202031Y0051934D02*
X0201568Y0051934D01*
X0199607Y0048939D02*
X0204242Y0048939D01*
X0204649Y0047468D02*
X0202031Y0044851D01*
X0202031Y0043484D01*
X0206016Y0043484D01*
X0206016Y0042516D01*
X0202031Y0042516D01*
X0202031Y0041149D01*
X0204649Y0038531D01*
X0206016Y0038531D01*
X0206016Y0042516D01*
X0206984Y0042516D01*
X0206984Y0038531D01*
X0208351Y0038531D01*
X0210968Y0041149D01*
X0210968Y0042516D01*
X0206984Y0042516D01*
X0206984Y0043484D01*
X0206016Y0043484D01*
X0206016Y0047468D01*
X0204649Y0047468D01*
X0204123Y0046942D02*
X0199726Y0046942D01*
X0198727Y0047940D02*
X0229890Y0047940D01*
X0229882Y0046942D02*
X0208877Y0046942D01*
X0208351Y0047468D02*
X0206984Y0047468D01*
X0206984Y0043484D01*
X0210968Y0043484D01*
X0210968Y0044851D01*
X0208351Y0047468D01*
X0206984Y0046942D02*
X0206016Y0046942D01*
X0206016Y0045943D02*
X0206984Y0045943D01*
X0206984Y0044945D02*
X0206016Y0044945D01*
X0206016Y0043946D02*
X0206984Y0043946D01*
X0206984Y0042948D02*
X0229850Y0042948D01*
X0229842Y0041949D02*
X0210968Y0041949D01*
X0210770Y0040951D02*
X0229835Y0040951D01*
X0229827Y0039952D02*
X0209772Y0039952D01*
X0208773Y0038954D02*
X0229819Y0038954D01*
X0229811Y0037955D02*
X0198713Y0037955D01*
X0199622Y0038954D02*
X0204227Y0038954D01*
X0203228Y0039952D02*
X0200620Y0039952D01*
X0201568Y0040951D02*
X0202230Y0040951D01*
X0202031Y0041949D02*
X0201568Y0041949D01*
X0201568Y0042948D02*
X0206016Y0042948D01*
X0206016Y0041949D02*
X0206984Y0041949D01*
X0206984Y0040951D02*
X0206016Y0040951D01*
X0206016Y0039952D02*
X0206984Y0039952D01*
X0206984Y0038954D02*
X0206016Y0038954D01*
X0206016Y0037468D02*
X0204649Y0037468D01*
X0202031Y0034851D01*
X0202031Y0033484D01*
X0206016Y0033484D01*
X0206016Y0032516D01*
X0202031Y0032516D01*
X0202031Y0031149D01*
X0204649Y0028531D01*
X0206016Y0028531D01*
X0206016Y0032516D01*
X0206984Y0032516D01*
X0206984Y0028531D01*
X0208351Y0028531D01*
X0210968Y0031149D01*
X0210968Y0032516D01*
X0206984Y0032516D01*
X0206984Y0033484D01*
X0206016Y0033484D01*
X0206016Y0037468D01*
X0206016Y0036957D02*
X0206984Y0036957D01*
X0206984Y0037468D02*
X0206984Y0033484D01*
X0210968Y0033484D01*
X0210968Y0034851D01*
X0208351Y0037468D01*
X0206984Y0037468D01*
X0208863Y0036957D02*
X0229803Y0036957D01*
X0229795Y0035958D02*
X0209861Y0035958D01*
X0210860Y0034960D02*
X0229787Y0034960D01*
X0229779Y0033961D02*
X0210968Y0033961D01*
X0210968Y0031964D02*
X0229763Y0031964D01*
X0229755Y0030966D02*
X0210785Y0030966D01*
X0209787Y0029967D02*
X0229747Y0029967D01*
X0229739Y0028969D02*
X0208788Y0028969D01*
X0206984Y0028969D02*
X0206016Y0028969D01*
X0206016Y0029967D02*
X0206984Y0029967D01*
X0204212Y0028969D02*
X0199637Y0028969D01*
X0198698Y0027970D02*
X0229731Y0027970D01*
X0229723Y0026972D02*
X0208848Y0026972D01*
X0208351Y0027468D02*
X0206984Y0027468D01*
X0206984Y0023484D01*
X0206016Y0023484D01*
X0206016Y0022516D01*
X0202031Y0022516D01*
X0202031Y0021149D01*
X0204649Y0018531D01*
X0206016Y0018531D01*
X0206016Y0022516D01*
X0206984Y0022516D01*
X0206984Y0018531D01*
X0208351Y0018531D01*
X0210968Y0021149D01*
X0210968Y0022516D01*
X0206984Y0022516D01*
X0206984Y0023484D01*
X0210968Y0023484D01*
X0210968Y0024851D01*
X0208351Y0027468D01*
X0206984Y0026972D02*
X0206016Y0026972D01*
X0206016Y0027468D02*
X0204649Y0027468D01*
X0202031Y0024851D01*
X0202031Y0023484D01*
X0206016Y0023484D01*
X0206016Y0027468D01*
X0206016Y0025973D02*
X0206984Y0025973D01*
X0206984Y0024975D02*
X0206016Y0024975D01*
X0203154Y0025973D02*
X0200695Y0025973D01*
X0201568Y0024975D02*
X0202155Y0024975D01*
X0202031Y0023976D02*
X0201568Y0023976D01*
X0201568Y0022978D02*
X0206016Y0022978D01*
X0206984Y0022978D02*
X0229691Y0022978D01*
X0229699Y0023976D02*
X0210968Y0023976D01*
X0210845Y0024975D02*
X0229707Y0024975D01*
X0229715Y0025973D02*
X0209846Y0025973D01*
X0204152Y0026972D02*
X0199696Y0026972D01*
X0200635Y0029967D02*
X0203213Y0029967D01*
X0202215Y0030966D02*
X0201568Y0030966D01*
X0201568Y0031964D02*
X0202031Y0031964D01*
X0201568Y0032963D02*
X0206016Y0032963D01*
X0206984Y0032963D02*
X0229771Y0032963D01*
X0206984Y0033961D02*
X0206016Y0033961D01*
X0206016Y0034960D02*
X0206984Y0034960D01*
X0206984Y0035958D02*
X0206016Y0035958D01*
X0204137Y0036957D02*
X0199711Y0036957D01*
X0200710Y0035958D02*
X0203139Y0035958D01*
X0202140Y0034960D02*
X0201568Y0034960D01*
X0201568Y0033961D02*
X0202031Y0033961D01*
X0206016Y0031964D02*
X0206984Y0031964D01*
X0206984Y0030966D02*
X0206016Y0030966D01*
X0206016Y0023976D02*
X0206984Y0023976D01*
X0206984Y0021979D02*
X0206016Y0021979D01*
X0206016Y0020981D02*
X0206984Y0020981D01*
X0206984Y0019982D02*
X0206016Y0019982D01*
X0206016Y0018984D02*
X0206984Y0018984D01*
X0208803Y0018984D02*
X0229659Y0018984D01*
X0229667Y0019982D02*
X0209802Y0019982D01*
X0210800Y0020981D02*
X0229675Y0020981D01*
X0229683Y0021979D02*
X0210968Y0021979D01*
X0204197Y0018984D02*
X0199652Y0018984D01*
X0200650Y0019982D02*
X0203198Y0019982D01*
X0202200Y0020981D02*
X0201568Y0020981D01*
X0201568Y0021979D02*
X0202031Y0021979D01*
X0198653Y0017985D02*
X0229651Y0017985D01*
X0164295Y0012993D02*
X0148705Y0012993D01*
X0149704Y0013991D02*
X0154145Y0013991D01*
X0154636Y0013500D02*
X0156000Y0013500D01*
X0156000Y0017500D01*
X0157000Y0017500D01*
X0157000Y0018500D01*
X0161000Y0018500D01*
X0161000Y0019864D01*
X0158364Y0022500D01*
X0157000Y0022500D01*
X0157000Y0018500D01*
X0156000Y0018500D01*
X0156000Y0022500D01*
X0154636Y0022500D01*
X0152000Y0019864D01*
X0152000Y0018500D01*
X0156000Y0018500D01*
X0156000Y0017500D01*
X0152000Y0017500D01*
X0152000Y0016136D01*
X0154636Y0013500D01*
X0156000Y0013991D02*
X0157000Y0013991D01*
X0157000Y0013500D02*
X0158364Y0013500D01*
X0161000Y0016136D01*
X0161000Y0017500D01*
X0157000Y0017500D01*
X0157000Y0013500D01*
X0158855Y0013991D02*
X0163296Y0013991D01*
X0162298Y0014990D02*
X0159854Y0014990D01*
X0160852Y0015988D02*
X0161400Y0015988D01*
X0161400Y0016987D02*
X0161000Y0016987D01*
X0161400Y0017985D02*
X0157000Y0017985D01*
X0157000Y0016987D02*
X0156000Y0016987D01*
X0156000Y0017985D02*
X0151600Y0017985D01*
X0151600Y0016987D02*
X0152000Y0016987D01*
X0152148Y0015988D02*
X0151600Y0015988D01*
X0150702Y0014990D02*
X0153146Y0014990D01*
X0156000Y0014990D02*
X0157000Y0014990D01*
X0157000Y0015988D02*
X0156000Y0015988D01*
X0156000Y0018984D02*
X0157000Y0018984D01*
X0157000Y0019982D02*
X0156000Y0019982D01*
X0156000Y0020981D02*
X0157000Y0020981D01*
X0157000Y0021979D02*
X0156000Y0021979D01*
X0154115Y0021979D02*
X0149733Y0021979D01*
X0148735Y0022978D02*
X0164265Y0022978D01*
X0163311Y0023976D02*
X0158840Y0023976D01*
X0158364Y0023500D02*
X0161000Y0026136D01*
X0161000Y0027500D01*
X0157000Y0027500D01*
X0157000Y0028500D01*
X0161000Y0028500D01*
X0161000Y0029864D01*
X0158364Y0032500D01*
X0157000Y0032500D01*
X0157000Y0028500D01*
X0156000Y0028500D01*
X0156000Y0032500D01*
X0154636Y0032500D01*
X0152000Y0029864D01*
X0152000Y0028500D01*
X0156000Y0028500D01*
X0156000Y0027500D01*
X0157000Y0027500D01*
X0157000Y0023500D01*
X0158364Y0023500D01*
X0157000Y0023976D02*
X0156000Y0023976D01*
X0156000Y0023500D02*
X0156000Y0027500D01*
X0152000Y0027500D01*
X0152000Y0026136D01*
X0154636Y0023500D01*
X0156000Y0023500D01*
X0154160Y0023976D02*
X0149689Y0023976D01*
X0150687Y0024975D02*
X0153161Y0024975D01*
X0152163Y0025973D02*
X0151600Y0025973D01*
X0151600Y0026972D02*
X0152000Y0026972D01*
X0151600Y0027970D02*
X0156000Y0027970D01*
X0156000Y0026972D02*
X0157000Y0026972D01*
X0157000Y0027970D02*
X0161400Y0027970D01*
X0161400Y0026972D02*
X0161000Y0026972D01*
X0160837Y0025973D02*
X0161400Y0025973D01*
X0162313Y0024975D02*
X0159839Y0024975D01*
X0157000Y0024975D02*
X0156000Y0024975D01*
X0156000Y0025973D02*
X0157000Y0025973D01*
X0157000Y0028969D02*
X0156000Y0028969D01*
X0156000Y0029967D02*
X0157000Y0029967D01*
X0160897Y0029967D02*
X0161400Y0029967D01*
X0161400Y0028969D02*
X0161000Y0028969D01*
X0159898Y0030966D02*
X0162253Y0030966D01*
X0163252Y0031964D02*
X0158900Y0031964D01*
X0158364Y0033500D02*
X0161000Y0036136D01*
X0161000Y0037500D01*
X0157000Y0037500D01*
X0157000Y0038500D01*
X0161000Y0038500D01*
X0161000Y0039864D01*
X0158364Y0042500D01*
X0157000Y0042500D01*
X0157000Y0038500D01*
X0156000Y0038500D01*
X0156000Y0042500D01*
X0154636Y0042500D01*
X0152000Y0039864D01*
X0152000Y0038500D01*
X0156000Y0038500D01*
X0156000Y0037500D01*
X0157000Y0037500D01*
X0157000Y0033500D01*
X0158364Y0033500D01*
X0158825Y0033961D02*
X0163326Y0033961D01*
X0164250Y0032963D02*
X0148750Y0032963D01*
X0149674Y0033961D02*
X0154175Y0033961D01*
X0154636Y0033500D02*
X0156000Y0033500D01*
X0156000Y0037500D01*
X0152000Y0037500D01*
X0152000Y0036136D01*
X0154636Y0033500D01*
X0156000Y0033961D02*
X0157000Y0033961D01*
X0157000Y0034960D02*
X0156000Y0034960D01*
X0156000Y0035958D02*
X0157000Y0035958D01*
X0157000Y0036957D02*
X0156000Y0036957D01*
X0152178Y0035958D02*
X0151600Y0035958D01*
X0151600Y0036957D02*
X0152000Y0036957D01*
X0151600Y0037955D02*
X0156000Y0037955D01*
X0156000Y0038954D02*
X0157000Y0038954D01*
X0157000Y0039952D02*
X0156000Y0039952D01*
X0156000Y0040951D02*
X0157000Y0040951D01*
X0157000Y0041949D02*
X0156000Y0041949D01*
X0154085Y0041949D02*
X0149763Y0041949D01*
X0150762Y0040951D02*
X0153087Y0040951D01*
X0152088Y0039952D02*
X0151600Y0039952D01*
X0151600Y0038954D02*
X0152000Y0038954D01*
X0157000Y0037955D02*
X0161400Y0037955D01*
X0161400Y0038954D02*
X0161000Y0038954D01*
X0160912Y0039952D02*
X0161400Y0039952D01*
X0162238Y0040951D02*
X0159913Y0040951D01*
X0158915Y0041949D02*
X0163237Y0041949D01*
X0164235Y0042948D02*
X0148765Y0042948D01*
X0149659Y0043946D02*
X0154190Y0043946D01*
X0153191Y0044945D02*
X0150657Y0044945D01*
X0151600Y0045943D02*
X0152193Y0045943D01*
X0152000Y0046942D02*
X0151600Y0046942D01*
X0151600Y0047940D02*
X0156000Y0047940D01*
X0156000Y0046942D02*
X0157000Y0046942D01*
X0157000Y0047940D02*
X0161400Y0047940D01*
X0161400Y0046942D02*
X0161000Y0046942D01*
X0160807Y0045943D02*
X0161400Y0045943D01*
X0162343Y0044945D02*
X0159809Y0044945D01*
X0158810Y0043946D02*
X0163341Y0043946D01*
X0157000Y0043946D02*
X0156000Y0043946D01*
X0156000Y0044945D02*
X0157000Y0044945D01*
X0157000Y0045943D02*
X0156000Y0045943D01*
X0156000Y0048939D02*
X0157000Y0048939D01*
X0161000Y0048939D02*
X0161400Y0048939D01*
X0161400Y0049937D02*
X0160926Y0049937D01*
X0159928Y0050936D02*
X0162224Y0050936D01*
X0163222Y0051934D02*
X0158929Y0051934D01*
X0159794Y0054930D02*
X0162357Y0054930D01*
X0161400Y0055929D02*
X0160792Y0055929D01*
X0161000Y0056927D02*
X0161400Y0056927D01*
X0152000Y0048939D02*
X0151600Y0048939D01*
X0161000Y0036957D02*
X0161400Y0036957D01*
X0161400Y0035958D02*
X0160822Y0035958D01*
X0159824Y0034960D02*
X0162328Y0034960D01*
X0157000Y0031964D02*
X0156000Y0031964D01*
X0156000Y0030966D02*
X0157000Y0030966D01*
X0154100Y0031964D02*
X0149748Y0031964D01*
X0150747Y0030966D02*
X0153102Y0030966D01*
X0152103Y0029967D02*
X0151600Y0029967D01*
X0151600Y0028969D02*
X0152000Y0028969D01*
X0142313Y0024975D02*
X0131368Y0024975D01*
X0130476Y0025973D02*
X0141400Y0025973D01*
X0141400Y0026972D02*
X0129477Y0026972D01*
X0128479Y0027970D02*
X0141400Y0027970D01*
X0143311Y0023976D02*
X0131368Y0023976D01*
X0131368Y0021979D02*
X0143267Y0021979D01*
X0144265Y0022978D02*
X0126843Y0022978D01*
X0126842Y0023976D02*
X0125843Y0023976D01*
X0125842Y0022978D02*
X0112282Y0022978D01*
X0112282Y0023976D02*
X0121318Y0023976D01*
X0121318Y0024975D02*
X0112282Y0024975D01*
X0111639Y0025973D02*
X0122209Y0025973D01*
X0123208Y0026972D02*
X0110641Y0026972D01*
X0109642Y0027970D02*
X0124206Y0027970D01*
X0125843Y0027970D02*
X0126842Y0027970D01*
X0126842Y0026972D02*
X0125843Y0026972D01*
X0125843Y0025973D02*
X0126842Y0025973D01*
X0126842Y0024975D02*
X0125843Y0024975D01*
X0125843Y0021979D02*
X0126842Y0021979D01*
X0126842Y0020981D02*
X0125843Y0020981D01*
X0125843Y0019982D02*
X0126842Y0019982D01*
X0126842Y0018984D02*
X0125843Y0018984D01*
X0123252Y0018984D02*
X0110596Y0018984D01*
X0111595Y0019982D02*
X0122254Y0019982D01*
X0121318Y0020981D02*
X0112282Y0020981D01*
X0112282Y0021979D02*
X0121318Y0021979D01*
X0129433Y0018984D02*
X0141400Y0018984D01*
X0141400Y0019982D02*
X0130431Y0019982D01*
X0131368Y0020981D02*
X0142268Y0020981D01*
X0150732Y0020981D02*
X0153117Y0020981D01*
X0152118Y0019982D02*
X0151600Y0019982D01*
X0151600Y0018984D02*
X0152000Y0018984D01*
X0158885Y0021979D02*
X0163267Y0021979D01*
X0162268Y0020981D02*
X0159883Y0020981D01*
X0160882Y0019982D02*
X0161400Y0019982D01*
X0161400Y0018984D02*
X0161000Y0018984D01*
X0153176Y0034960D02*
X0150672Y0034960D01*
X0200724Y0045943D02*
X0203124Y0045943D01*
X0202126Y0044945D02*
X0201568Y0044945D01*
X0201568Y0043946D02*
X0202031Y0043946D01*
X0209876Y0045943D02*
X0229874Y0045943D01*
X0229866Y0044945D02*
X0210874Y0044945D01*
X0210968Y0043946D02*
X0229858Y0043946D01*
X0229898Y0048939D02*
X0208758Y0048939D01*
X0206984Y0048939D02*
X0206016Y0048939D01*
X0206016Y0061920D02*
X0206984Y0061920D01*
X0206984Y0063917D02*
X0206016Y0063917D01*
X0206016Y0064915D02*
X0206984Y0064915D01*
X0206984Y0065914D02*
X0206016Y0065914D01*
X0203094Y0065914D02*
X0200754Y0065914D01*
X0201568Y0064915D02*
X0202096Y0064915D01*
X0202031Y0063917D02*
X0201568Y0063917D01*
X0198757Y0067911D02*
X0230050Y0067911D01*
X0081400Y0048939D02*
X0081000Y0048939D01*
X0077000Y0048939D02*
X0076000Y0048939D01*
X0072000Y0046942D02*
X0071600Y0046942D01*
X0071600Y0045943D02*
X0072193Y0045943D01*
X0073191Y0044945D02*
X0070657Y0044945D01*
X0069659Y0043946D02*
X0074190Y0043946D01*
X0076000Y0043946D02*
X0077000Y0043946D01*
X0077000Y0044945D02*
X0076000Y0044945D01*
X0076000Y0045943D02*
X0077000Y0045943D01*
X0063356Y0053932D02*
X0041568Y0053932D01*
X0041568Y0054930D02*
X0062357Y0054930D01*
X0061400Y0055929D02*
X0040739Y0055929D01*
X0039741Y0056927D02*
X0061400Y0056927D01*
X0061400Y0057926D02*
X0038742Y0057926D01*
X0039592Y0058924D02*
X0061400Y0058924D01*
X0061400Y0059923D02*
X0040591Y0059923D01*
X0041568Y0060921D02*
X0062209Y0060921D01*
X0063207Y0061920D02*
X0041568Y0061920D01*
X0041568Y0062918D02*
X0064206Y0062918D01*
X0033408Y0058924D02*
X0028743Y0058924D01*
X0029876Y0045943D02*
X0032275Y0045943D01*
X0031431Y0044945D02*
X0030874Y0044945D01*
X0030968Y0043946D02*
X0031431Y0043946D01*
M02*
