G75*
%MOIN*%
%OFA0B0*%
%FSLAX25Y25*%
%IPPOS*%
%LPD*%
%AMOC8*
5,1,8,0,0,1.08239X$1,22.5*
%
%ADD10C,0.01600*%
%ADD11C,0.00600*%
%ADD12C,0.00500*%
D10*
X0011500Y0006500D02*
X0041500Y0006500D01*
X0046500Y0011500D01*
X0046500Y0071500D01*
X0041500Y0076500D01*
X0011500Y0076500D01*
X0006500Y0071500D01*
X0006500Y0011500D01*
X0011500Y0006500D01*
X0176500Y0011500D02*
X0181500Y0006500D01*
X0211500Y0006500D01*
X0216500Y0011500D01*
X0216500Y0071500D01*
X0211500Y0076500D01*
X0181500Y0076500D01*
X0176500Y0071500D01*
X0176500Y0011500D01*
D11*
X0166500Y0019000D02*
X0164000Y0016500D01*
X0159000Y0016500D01*
X0156500Y0019000D01*
X0156500Y0024000D01*
X0159000Y0026500D01*
X0156500Y0029000D01*
X0156500Y0034000D01*
X0159000Y0036500D01*
X0156500Y0039000D01*
X0156500Y0044000D01*
X0159000Y0046500D01*
X0156500Y0049000D01*
X0156500Y0054000D01*
X0159000Y0056500D01*
X0156500Y0059000D01*
X0156500Y0064000D01*
X0159000Y0066500D01*
X0164000Y0066500D01*
X0166500Y0064000D01*
X0166500Y0059000D01*
X0164000Y0056500D01*
X0166500Y0054000D01*
X0166500Y0049000D01*
X0164000Y0046500D01*
X0166500Y0044000D01*
X0166500Y0039000D01*
X0164000Y0036500D01*
X0166500Y0034000D01*
X0166500Y0029000D01*
X0164000Y0026500D01*
X0166500Y0024000D01*
X0166500Y0019000D01*
X0156500Y0019000D02*
X0156500Y0024000D01*
X0154000Y0026500D01*
X0156500Y0029000D01*
X0156500Y0034000D01*
X0154000Y0036500D01*
X0156500Y0039000D01*
X0156500Y0044000D01*
X0154000Y0046500D01*
X0156500Y0049000D01*
X0156500Y0054000D01*
X0154000Y0056500D01*
X0156500Y0059000D01*
X0156500Y0064000D01*
X0154000Y0066500D01*
X0149000Y0066500D01*
X0146500Y0064000D01*
X0146500Y0059000D01*
X0149000Y0056500D01*
X0146500Y0054000D01*
X0146500Y0049000D01*
X0149000Y0046500D01*
X0146500Y0044000D01*
X0146500Y0039000D01*
X0149000Y0036500D01*
X0146500Y0034000D01*
X0146500Y0029000D01*
X0149000Y0026500D01*
X0146500Y0024000D01*
X0146500Y0019000D01*
X0149000Y0016500D01*
X0154000Y0016500D01*
X0156500Y0019000D01*
X0146500Y0019000D02*
X0146500Y0024000D01*
X0144000Y0026500D01*
X0146500Y0029000D01*
X0146500Y0034000D01*
X0144000Y0036500D01*
X0146500Y0039000D01*
X0146500Y0044000D01*
X0144000Y0046500D01*
X0146500Y0049000D01*
X0146500Y0054000D01*
X0144000Y0056500D01*
X0146500Y0059000D01*
X0146500Y0064000D01*
X0144000Y0066500D01*
X0139000Y0066500D01*
X0136500Y0064000D01*
X0136500Y0059000D01*
X0139000Y0056500D01*
X0136500Y0054000D01*
X0136500Y0049000D01*
X0139000Y0046500D01*
X0136500Y0044000D01*
X0136500Y0039000D01*
X0139000Y0036500D01*
X0136500Y0034000D01*
X0136500Y0029000D01*
X0139000Y0026500D01*
X0136500Y0024000D01*
X0136500Y0019000D01*
X0139000Y0016500D01*
X0144000Y0016500D01*
X0146500Y0019000D01*
X0131157Y0014402D02*
X0131157Y0040402D01*
X0091858Y0040402D01*
X0091858Y0041201D01*
X0131157Y0041201D01*
X0131157Y0040402D01*
X0119357Y0035200D02*
X0119359Y0035289D01*
X0119365Y0035378D01*
X0119375Y0035467D01*
X0119389Y0035555D01*
X0119406Y0035642D01*
X0119428Y0035728D01*
X0119454Y0035814D01*
X0119483Y0035898D01*
X0119516Y0035981D01*
X0119552Y0036062D01*
X0119593Y0036142D01*
X0119636Y0036219D01*
X0119683Y0036295D01*
X0119734Y0036368D01*
X0119787Y0036439D01*
X0119844Y0036508D01*
X0119904Y0036574D01*
X0119967Y0036638D01*
X0120032Y0036698D01*
X0120100Y0036756D01*
X0120171Y0036810D01*
X0120244Y0036861D01*
X0120319Y0036909D01*
X0120396Y0036954D01*
X0120475Y0036995D01*
X0120556Y0037032D01*
X0120638Y0037066D01*
X0120722Y0037097D01*
X0120807Y0037123D01*
X0120893Y0037146D01*
X0120980Y0037164D01*
X0121068Y0037179D01*
X0121157Y0037190D01*
X0121246Y0037197D01*
X0121335Y0037200D01*
X0121424Y0037199D01*
X0121513Y0037194D01*
X0121601Y0037185D01*
X0121690Y0037172D01*
X0121777Y0037155D01*
X0121864Y0037135D01*
X0121950Y0037110D01*
X0122034Y0037082D01*
X0122117Y0037050D01*
X0122199Y0037014D01*
X0122279Y0036975D01*
X0122357Y0036932D01*
X0122433Y0036886D01*
X0122507Y0036836D01*
X0122579Y0036783D01*
X0122648Y0036727D01*
X0122715Y0036668D01*
X0122779Y0036606D01*
X0122840Y0036542D01*
X0122899Y0036474D01*
X0122954Y0036404D01*
X0123006Y0036332D01*
X0123055Y0036257D01*
X0123100Y0036181D01*
X0123142Y0036102D01*
X0123180Y0036022D01*
X0123215Y0035940D01*
X0123246Y0035856D01*
X0123274Y0035771D01*
X0123297Y0035685D01*
X0123317Y0035598D01*
X0123333Y0035511D01*
X0123345Y0035422D01*
X0123353Y0035334D01*
X0123357Y0035245D01*
X0123357Y0035155D01*
X0123353Y0035066D01*
X0123345Y0034978D01*
X0123333Y0034889D01*
X0123317Y0034802D01*
X0123297Y0034715D01*
X0123274Y0034629D01*
X0123246Y0034544D01*
X0123215Y0034460D01*
X0123180Y0034378D01*
X0123142Y0034298D01*
X0123100Y0034219D01*
X0123055Y0034143D01*
X0123006Y0034068D01*
X0122954Y0033996D01*
X0122899Y0033926D01*
X0122840Y0033858D01*
X0122779Y0033794D01*
X0122715Y0033732D01*
X0122648Y0033673D01*
X0122579Y0033617D01*
X0122507Y0033564D01*
X0122433Y0033514D01*
X0122357Y0033468D01*
X0122279Y0033425D01*
X0122199Y0033386D01*
X0122117Y0033350D01*
X0122034Y0033318D01*
X0121950Y0033290D01*
X0121864Y0033265D01*
X0121777Y0033245D01*
X0121690Y0033228D01*
X0121601Y0033215D01*
X0121513Y0033206D01*
X0121424Y0033201D01*
X0121335Y0033200D01*
X0121246Y0033203D01*
X0121157Y0033210D01*
X0121068Y0033221D01*
X0120980Y0033236D01*
X0120893Y0033254D01*
X0120807Y0033277D01*
X0120722Y0033303D01*
X0120638Y0033334D01*
X0120556Y0033368D01*
X0120475Y0033405D01*
X0120396Y0033446D01*
X0120319Y0033491D01*
X0120244Y0033539D01*
X0120171Y0033590D01*
X0120100Y0033644D01*
X0120032Y0033702D01*
X0119967Y0033762D01*
X0119904Y0033826D01*
X0119844Y0033892D01*
X0119787Y0033961D01*
X0119734Y0034032D01*
X0119683Y0034105D01*
X0119636Y0034181D01*
X0119593Y0034258D01*
X0119552Y0034338D01*
X0119516Y0034419D01*
X0119483Y0034502D01*
X0119454Y0034586D01*
X0119428Y0034672D01*
X0119406Y0034758D01*
X0119389Y0034845D01*
X0119375Y0034933D01*
X0119365Y0035022D01*
X0119359Y0035111D01*
X0119357Y0035200D01*
X0099657Y0035200D02*
X0099659Y0035289D01*
X0099665Y0035378D01*
X0099675Y0035467D01*
X0099689Y0035555D01*
X0099706Y0035642D01*
X0099728Y0035728D01*
X0099754Y0035814D01*
X0099783Y0035898D01*
X0099816Y0035981D01*
X0099852Y0036062D01*
X0099893Y0036142D01*
X0099936Y0036219D01*
X0099983Y0036295D01*
X0100034Y0036368D01*
X0100087Y0036439D01*
X0100144Y0036508D01*
X0100204Y0036574D01*
X0100267Y0036638D01*
X0100332Y0036698D01*
X0100400Y0036756D01*
X0100471Y0036810D01*
X0100544Y0036861D01*
X0100619Y0036909D01*
X0100696Y0036954D01*
X0100775Y0036995D01*
X0100856Y0037032D01*
X0100938Y0037066D01*
X0101022Y0037097D01*
X0101107Y0037123D01*
X0101193Y0037146D01*
X0101280Y0037164D01*
X0101368Y0037179D01*
X0101457Y0037190D01*
X0101546Y0037197D01*
X0101635Y0037200D01*
X0101724Y0037199D01*
X0101813Y0037194D01*
X0101901Y0037185D01*
X0101990Y0037172D01*
X0102077Y0037155D01*
X0102164Y0037135D01*
X0102250Y0037110D01*
X0102334Y0037082D01*
X0102417Y0037050D01*
X0102499Y0037014D01*
X0102579Y0036975D01*
X0102657Y0036932D01*
X0102733Y0036886D01*
X0102807Y0036836D01*
X0102879Y0036783D01*
X0102948Y0036727D01*
X0103015Y0036668D01*
X0103079Y0036606D01*
X0103140Y0036542D01*
X0103199Y0036474D01*
X0103254Y0036404D01*
X0103306Y0036332D01*
X0103355Y0036257D01*
X0103400Y0036181D01*
X0103442Y0036102D01*
X0103480Y0036022D01*
X0103515Y0035940D01*
X0103546Y0035856D01*
X0103574Y0035771D01*
X0103597Y0035685D01*
X0103617Y0035598D01*
X0103633Y0035511D01*
X0103645Y0035422D01*
X0103653Y0035334D01*
X0103657Y0035245D01*
X0103657Y0035155D01*
X0103653Y0035066D01*
X0103645Y0034978D01*
X0103633Y0034889D01*
X0103617Y0034802D01*
X0103597Y0034715D01*
X0103574Y0034629D01*
X0103546Y0034544D01*
X0103515Y0034460D01*
X0103480Y0034378D01*
X0103442Y0034298D01*
X0103400Y0034219D01*
X0103355Y0034143D01*
X0103306Y0034068D01*
X0103254Y0033996D01*
X0103199Y0033926D01*
X0103140Y0033858D01*
X0103079Y0033794D01*
X0103015Y0033732D01*
X0102948Y0033673D01*
X0102879Y0033617D01*
X0102807Y0033564D01*
X0102733Y0033514D01*
X0102657Y0033468D01*
X0102579Y0033425D01*
X0102499Y0033386D01*
X0102417Y0033350D01*
X0102334Y0033318D01*
X0102250Y0033290D01*
X0102164Y0033265D01*
X0102077Y0033245D01*
X0101990Y0033228D01*
X0101901Y0033215D01*
X0101813Y0033206D01*
X0101724Y0033201D01*
X0101635Y0033200D01*
X0101546Y0033203D01*
X0101457Y0033210D01*
X0101368Y0033221D01*
X0101280Y0033236D01*
X0101193Y0033254D01*
X0101107Y0033277D01*
X0101022Y0033303D01*
X0100938Y0033334D01*
X0100856Y0033368D01*
X0100775Y0033405D01*
X0100696Y0033446D01*
X0100619Y0033491D01*
X0100544Y0033539D01*
X0100471Y0033590D01*
X0100400Y0033644D01*
X0100332Y0033702D01*
X0100267Y0033762D01*
X0100204Y0033826D01*
X0100144Y0033892D01*
X0100087Y0033961D01*
X0100034Y0034032D01*
X0099983Y0034105D01*
X0099936Y0034181D01*
X0099893Y0034258D01*
X0099852Y0034338D01*
X0099816Y0034419D01*
X0099783Y0034502D01*
X0099754Y0034586D01*
X0099728Y0034672D01*
X0099706Y0034758D01*
X0099689Y0034845D01*
X0099675Y0034933D01*
X0099665Y0035022D01*
X0099659Y0035111D01*
X0099657Y0035200D01*
X0091858Y0040402D02*
X0091858Y0014402D01*
X0098157Y0014402D01*
X0091858Y0014402D02*
X0091858Y0005000D01*
X0131157Y0005000D01*
X0131157Y0014402D01*
X0124858Y0014402D01*
X0117858Y0014402D02*
X0105157Y0014402D01*
X0086500Y0019000D02*
X0084000Y0016500D01*
X0079000Y0016500D01*
X0076500Y0019000D01*
X0074000Y0016500D01*
X0069000Y0016500D01*
X0066500Y0019000D01*
X0064000Y0016500D01*
X0059000Y0016500D01*
X0056500Y0019000D01*
X0056500Y0024000D01*
X0059000Y0026500D01*
X0056500Y0029000D01*
X0056500Y0034000D01*
X0059000Y0036500D01*
X0056500Y0039000D01*
X0056500Y0044000D01*
X0059000Y0046500D01*
X0056500Y0049000D01*
X0056500Y0054000D01*
X0059000Y0056500D01*
X0056500Y0059000D01*
X0056500Y0064000D01*
X0059000Y0066500D01*
X0064000Y0066500D01*
X0066500Y0064000D01*
X0066500Y0059000D01*
X0064000Y0056500D01*
X0066500Y0054000D01*
X0066500Y0049000D01*
X0064000Y0046500D01*
X0066500Y0044000D01*
X0066500Y0039000D01*
X0064000Y0036500D01*
X0066500Y0034000D01*
X0066500Y0029000D01*
X0064000Y0026500D01*
X0066500Y0024000D01*
X0066500Y0019000D01*
X0066500Y0024000D01*
X0069000Y0026500D01*
X0066500Y0029000D01*
X0066500Y0034000D01*
X0069000Y0036500D01*
X0066500Y0039000D01*
X0066500Y0044000D01*
X0069000Y0046500D01*
X0066500Y0049000D01*
X0066500Y0054000D01*
X0069000Y0056500D01*
X0066500Y0059000D01*
X0066500Y0064000D01*
X0069000Y0066500D01*
X0074000Y0066500D01*
X0076500Y0064000D01*
X0076500Y0059000D01*
X0074000Y0056500D01*
X0076500Y0054000D01*
X0076500Y0049000D01*
X0074000Y0046500D01*
X0076500Y0044000D01*
X0076500Y0039000D01*
X0074000Y0036500D01*
X0076500Y0034000D01*
X0076500Y0029000D01*
X0074000Y0026500D01*
X0076500Y0024000D01*
X0076500Y0019000D01*
X0076500Y0024000D01*
X0079000Y0026500D01*
X0076500Y0029000D01*
X0076500Y0034000D01*
X0079000Y0036500D01*
X0076500Y0039000D01*
X0076500Y0044000D01*
X0079000Y0046500D01*
X0076500Y0049000D01*
X0076500Y0054000D01*
X0079000Y0056500D01*
X0076500Y0059000D01*
X0076500Y0064000D01*
X0079000Y0066500D01*
X0084000Y0066500D01*
X0086500Y0064000D01*
X0086500Y0059000D01*
X0084000Y0056500D01*
X0086500Y0054000D01*
X0086500Y0049000D01*
X0084000Y0046500D01*
X0086500Y0044000D01*
X0086500Y0039000D01*
X0084000Y0036500D01*
X0086500Y0034000D01*
X0086500Y0029000D01*
X0084000Y0026500D01*
X0086500Y0024000D01*
X0086500Y0019000D01*
X0036500Y0019000D02*
X0036500Y0024000D01*
X0034000Y0026500D01*
X0036500Y0029000D01*
X0036500Y0034000D01*
X0034000Y0036500D01*
X0036500Y0039000D01*
X0036500Y0044000D01*
X0034000Y0046500D01*
X0036500Y0049000D01*
X0036500Y0054000D01*
X0034000Y0056500D01*
X0036500Y0059000D01*
X0036500Y0064000D01*
X0034000Y0066500D01*
X0019000Y0066500D01*
X0016500Y0064000D01*
X0016500Y0059000D01*
X0019000Y0056500D01*
X0016500Y0054000D01*
X0016500Y0049000D01*
X0019000Y0046500D01*
X0016500Y0044000D01*
X0016500Y0039000D01*
X0019000Y0036500D01*
X0016500Y0034000D01*
X0016500Y0029000D01*
X0019000Y0026500D01*
X0016500Y0024000D01*
X0016500Y0019000D01*
X0019000Y0016500D01*
X0034000Y0016500D01*
X0036500Y0019000D01*
X0186500Y0019000D02*
X0189000Y0016500D01*
X0204000Y0016500D01*
X0206500Y0019000D01*
X0206500Y0024000D01*
X0204000Y0026500D01*
X0206500Y0029000D01*
X0206500Y0034000D01*
X0204000Y0036500D01*
X0206500Y0039000D01*
X0206500Y0044000D01*
X0204000Y0046500D01*
X0206500Y0049000D01*
X0206500Y0054000D01*
X0204000Y0056500D01*
X0206500Y0059000D01*
X0206500Y0064000D01*
X0204000Y0066500D01*
X0189000Y0066500D01*
X0186500Y0064000D01*
X0186500Y0059000D01*
X0189000Y0056500D01*
X0186500Y0054000D01*
X0186500Y0049000D01*
X0189000Y0046500D01*
X0186500Y0044000D01*
X0186500Y0039000D01*
X0189000Y0036500D01*
X0186500Y0034000D01*
X0186500Y0029000D01*
X0189000Y0026500D01*
X0186500Y0024000D01*
X0186500Y0019000D01*
D12*
X0172750Y0019250D02*
X0172750Y0021750D01*
X0172750Y0020500D02*
X0168250Y0020500D01*
X0169250Y0019250D01*
X0162750Y0019250D02*
X0162750Y0021750D01*
X0162750Y0020500D02*
X0158250Y0020500D01*
X0159250Y0019250D01*
X0152750Y0019250D02*
X0152750Y0021750D01*
X0152750Y0020500D02*
X0148250Y0020500D01*
X0149250Y0019250D01*
X0115907Y0029250D02*
X0113407Y0029250D01*
X0115532Y0031750D01*
X0114782Y0033750D02*
X0114709Y0033748D01*
X0114637Y0033743D01*
X0114565Y0033734D01*
X0114493Y0033721D01*
X0114422Y0033705D01*
X0114352Y0033685D01*
X0114284Y0033661D01*
X0114216Y0033635D01*
X0114150Y0033604D01*
X0114085Y0033571D01*
X0114023Y0033534D01*
X0113962Y0033495D01*
X0113903Y0033452D01*
X0113846Y0033406D01*
X0113792Y0033358D01*
X0113741Y0033307D01*
X0113691Y0033253D01*
X0113645Y0033197D01*
X0113602Y0033139D01*
X0113561Y0033078D01*
X0113524Y0033016D01*
X0113490Y0032952D01*
X0113459Y0032886D01*
X0113431Y0032819D01*
X0113407Y0032750D01*
X0115532Y0031750D02*
X0115578Y0031796D01*
X0115622Y0031845D01*
X0115662Y0031896D01*
X0115700Y0031949D01*
X0115735Y0032004D01*
X0115767Y0032061D01*
X0115796Y0032119D01*
X0115822Y0032179D01*
X0115844Y0032241D01*
X0115863Y0032303D01*
X0115879Y0032366D01*
X0115891Y0032430D01*
X0115900Y0032495D01*
X0115905Y0032560D01*
X0115907Y0032625D01*
X0115905Y0032690D01*
X0115899Y0032756D01*
X0115890Y0032820D01*
X0115877Y0032884D01*
X0115860Y0032948D01*
X0115839Y0033010D01*
X0115815Y0033071D01*
X0115787Y0033130D01*
X0115756Y0033188D01*
X0115722Y0033243D01*
X0115684Y0033297D01*
X0115644Y0033348D01*
X0115600Y0033397D01*
X0115554Y0033443D01*
X0115505Y0033487D01*
X0115454Y0033527D01*
X0115400Y0033565D01*
X0115345Y0033599D01*
X0115287Y0033630D01*
X0115228Y0033658D01*
X0115167Y0033682D01*
X0115105Y0033703D01*
X0115041Y0033720D01*
X0114977Y0033733D01*
X0114913Y0033742D01*
X0114847Y0033748D01*
X0114782Y0033750D01*
X0096407Y0029250D02*
X0093907Y0029250D01*
X0095157Y0029250D02*
X0095157Y0033750D01*
X0093907Y0032750D01*
X0091750Y0023750D02*
X0091250Y0023750D01*
X0091190Y0023748D01*
X0091129Y0023743D01*
X0091070Y0023734D01*
X0091011Y0023721D01*
X0090952Y0023705D01*
X0090895Y0023685D01*
X0090840Y0023662D01*
X0090785Y0023635D01*
X0090733Y0023606D01*
X0090682Y0023573D01*
X0090633Y0023537D01*
X0090587Y0023499D01*
X0090543Y0023457D01*
X0090501Y0023413D01*
X0090463Y0023367D01*
X0090427Y0023318D01*
X0090394Y0023267D01*
X0090365Y0023215D01*
X0090338Y0023160D01*
X0090315Y0023105D01*
X0090295Y0023048D01*
X0090279Y0022989D01*
X0090266Y0022930D01*
X0090257Y0022871D01*
X0090252Y0022810D01*
X0090250Y0022750D01*
X0090250Y0021250D01*
X0088250Y0021250D01*
X0088250Y0023750D01*
X0091750Y0023750D02*
X0091810Y0023748D01*
X0091871Y0023743D01*
X0091930Y0023734D01*
X0091989Y0023721D01*
X0092048Y0023705D01*
X0092105Y0023685D01*
X0092160Y0023662D01*
X0092215Y0023635D01*
X0092267Y0023606D01*
X0092318Y0023573D01*
X0092367Y0023537D01*
X0092413Y0023499D01*
X0092457Y0023457D01*
X0092499Y0023413D01*
X0092537Y0023367D01*
X0092573Y0023318D01*
X0092606Y0023267D01*
X0092635Y0023215D01*
X0092662Y0023160D01*
X0092685Y0023105D01*
X0092705Y0023048D01*
X0092721Y0022989D01*
X0092734Y0022930D01*
X0092743Y0022871D01*
X0092748Y0022810D01*
X0092750Y0022750D01*
X0092750Y0021250D01*
X0082750Y0021250D02*
X0082750Y0022750D01*
X0082748Y0022810D01*
X0082743Y0022871D01*
X0082734Y0022930D01*
X0082721Y0022989D01*
X0082705Y0023048D01*
X0082685Y0023105D01*
X0082662Y0023160D01*
X0082635Y0023215D01*
X0082606Y0023267D01*
X0082573Y0023318D01*
X0082537Y0023367D01*
X0082499Y0023413D01*
X0082457Y0023457D01*
X0082413Y0023499D01*
X0082367Y0023537D01*
X0082318Y0023573D01*
X0082267Y0023606D01*
X0082215Y0023635D01*
X0082160Y0023662D01*
X0082105Y0023685D01*
X0082048Y0023705D01*
X0081989Y0023721D01*
X0081930Y0023734D01*
X0081871Y0023743D01*
X0081810Y0023748D01*
X0081750Y0023750D01*
X0081250Y0023750D01*
X0081190Y0023748D01*
X0081129Y0023743D01*
X0081070Y0023734D01*
X0081011Y0023721D01*
X0080952Y0023705D01*
X0080895Y0023685D01*
X0080840Y0023662D01*
X0080785Y0023635D01*
X0080733Y0023606D01*
X0080682Y0023573D01*
X0080633Y0023537D01*
X0080587Y0023499D01*
X0080543Y0023457D01*
X0080501Y0023413D01*
X0080463Y0023367D01*
X0080427Y0023318D01*
X0080394Y0023267D01*
X0080365Y0023215D01*
X0080338Y0023160D01*
X0080315Y0023105D01*
X0080295Y0023048D01*
X0080279Y0022989D01*
X0080266Y0022930D01*
X0080257Y0022871D01*
X0080252Y0022810D01*
X0080250Y0022750D01*
X0080250Y0021250D01*
X0078250Y0021250D01*
X0078250Y0023750D01*
X0072750Y0022750D02*
X0072750Y0021250D01*
X0070250Y0021250D02*
X0068250Y0021250D01*
X0068250Y0023750D01*
X0070250Y0022750D02*
X0070250Y0021250D01*
X0070250Y0022750D02*
X0070252Y0022810D01*
X0070257Y0022871D01*
X0070266Y0022930D01*
X0070279Y0022989D01*
X0070295Y0023048D01*
X0070315Y0023105D01*
X0070338Y0023160D01*
X0070365Y0023215D01*
X0070394Y0023267D01*
X0070427Y0023318D01*
X0070463Y0023367D01*
X0070501Y0023413D01*
X0070543Y0023457D01*
X0070587Y0023499D01*
X0070633Y0023537D01*
X0070682Y0023573D01*
X0070733Y0023606D01*
X0070785Y0023635D01*
X0070840Y0023662D01*
X0070895Y0023685D01*
X0070952Y0023705D01*
X0071011Y0023721D01*
X0071070Y0023734D01*
X0071129Y0023743D01*
X0071190Y0023748D01*
X0071250Y0023750D01*
X0071750Y0023750D01*
X0071810Y0023748D01*
X0071871Y0023743D01*
X0071930Y0023734D01*
X0071989Y0023721D01*
X0072048Y0023705D01*
X0072105Y0023685D01*
X0072160Y0023662D01*
X0072215Y0023635D01*
X0072267Y0023606D01*
X0072318Y0023573D01*
X0072367Y0023537D01*
X0072413Y0023499D01*
X0072457Y0023457D01*
X0072499Y0023413D01*
X0072537Y0023367D01*
X0072573Y0023318D01*
X0072606Y0023267D01*
X0072635Y0023215D01*
X0072662Y0023160D01*
X0072685Y0023105D01*
X0072705Y0023048D01*
X0072721Y0022989D01*
X0072734Y0022930D01*
X0072743Y0022871D01*
X0072748Y0022810D01*
X0072750Y0022750D01*
X0042750Y0022250D02*
X0042750Y0019750D01*
X0042750Y0021000D02*
X0038250Y0021000D01*
X0039250Y0019750D01*
X0014750Y0059750D02*
X0014750Y0062250D01*
X0014125Y0066375D02*
X0014016Y0066426D01*
X0013906Y0066473D01*
X0013794Y0066517D01*
X0013680Y0066557D01*
X0013566Y0066593D01*
X0013450Y0066626D01*
X0013334Y0066655D01*
X0013216Y0066680D01*
X0013098Y0066701D01*
X0012979Y0066719D01*
X0012860Y0066732D01*
X0012740Y0066742D01*
X0012620Y0066748D01*
X0012500Y0066750D01*
X0012500Y0064250D02*
X0012620Y0064252D01*
X0012740Y0064258D01*
X0012860Y0064268D01*
X0012979Y0064281D01*
X0013098Y0064299D01*
X0013216Y0064320D01*
X0013334Y0064345D01*
X0013450Y0064374D01*
X0013566Y0064407D01*
X0013680Y0064443D01*
X0013794Y0064483D01*
X0013906Y0064527D01*
X0014016Y0064574D01*
X0014125Y0064625D01*
X0013750Y0064500D02*
X0011250Y0066500D01*
X0010875Y0064625D02*
X0010984Y0064574D01*
X0011094Y0064527D01*
X0011206Y0064483D01*
X0011320Y0064443D01*
X0011434Y0064407D01*
X0011550Y0064374D01*
X0011666Y0064345D01*
X0011784Y0064320D01*
X0011902Y0064299D01*
X0012021Y0064281D01*
X0012140Y0064268D01*
X0012260Y0064258D01*
X0012380Y0064252D01*
X0012500Y0064250D01*
X0010250Y0065500D02*
X0010252Y0065560D01*
X0010258Y0065620D01*
X0010268Y0065680D01*
X0010281Y0065739D01*
X0010299Y0065797D01*
X0010320Y0065853D01*
X0010345Y0065908D01*
X0010373Y0065961D01*
X0010405Y0066013D01*
X0010440Y0066062D01*
X0010478Y0066109D01*
X0010520Y0066153D01*
X0010564Y0066194D01*
X0010610Y0066233D01*
X0010659Y0066268D01*
X0010710Y0066300D01*
X0010764Y0066328D01*
X0010819Y0066354D01*
X0010875Y0066375D01*
X0010250Y0065500D02*
X0010252Y0065440D01*
X0010258Y0065380D01*
X0010268Y0065320D01*
X0010281Y0065261D01*
X0010299Y0065203D01*
X0010320Y0065147D01*
X0010345Y0065092D01*
X0010373Y0065039D01*
X0010405Y0064987D01*
X0010440Y0064938D01*
X0010478Y0064891D01*
X0010520Y0064847D01*
X0010564Y0064806D01*
X0010610Y0064767D01*
X0010659Y0064732D01*
X0010710Y0064700D01*
X0010764Y0064672D01*
X0010819Y0064646D01*
X0010875Y0064625D01*
X0010875Y0066375D02*
X0010984Y0066426D01*
X0011094Y0066473D01*
X0011206Y0066517D01*
X0011320Y0066557D01*
X0011434Y0066593D01*
X0011550Y0066626D01*
X0011666Y0066655D01*
X0011784Y0066680D01*
X0011902Y0066701D01*
X0012021Y0066719D01*
X0012140Y0066732D01*
X0012260Y0066742D01*
X0012380Y0066748D01*
X0012500Y0066750D01*
X0014125Y0066375D02*
X0014181Y0066354D01*
X0014236Y0066328D01*
X0014290Y0066300D01*
X0014341Y0066268D01*
X0014390Y0066233D01*
X0014436Y0066194D01*
X0014480Y0066153D01*
X0014522Y0066109D01*
X0014560Y0066062D01*
X0014595Y0066013D01*
X0014627Y0065961D01*
X0014655Y0065908D01*
X0014680Y0065853D01*
X0014701Y0065797D01*
X0014719Y0065739D01*
X0014732Y0065680D01*
X0014742Y0065620D01*
X0014748Y0065560D01*
X0014750Y0065500D01*
X0014748Y0065440D01*
X0014742Y0065380D01*
X0014732Y0065320D01*
X0014719Y0065261D01*
X0014701Y0065203D01*
X0014680Y0065147D01*
X0014655Y0065092D01*
X0014627Y0065039D01*
X0014595Y0064987D01*
X0014560Y0064938D01*
X0014522Y0064891D01*
X0014480Y0064847D01*
X0014436Y0064806D01*
X0014390Y0064767D01*
X0014341Y0064732D01*
X0014290Y0064700D01*
X0014236Y0064672D01*
X0014181Y0064646D01*
X0014125Y0064625D01*
X0014750Y0061000D02*
X0010250Y0061000D01*
X0011250Y0059750D01*
X0050250Y0062500D02*
X0051250Y0061250D01*
X0050250Y0062500D02*
X0054750Y0062500D01*
X0054750Y0061250D02*
X0054750Y0063750D01*
X0060250Y0062500D02*
X0064750Y0062500D01*
X0064750Y0061250D02*
X0064750Y0063750D01*
X0070250Y0062500D02*
X0074750Y0062500D01*
X0074750Y0061250D02*
X0074750Y0063750D01*
X0071250Y0061250D02*
X0070250Y0062500D01*
X0061250Y0061250D02*
X0060250Y0062500D01*
X0130250Y0061750D02*
X0130250Y0059250D01*
X0132250Y0059250D01*
X0132250Y0060750D01*
X0132252Y0060810D01*
X0132257Y0060871D01*
X0132266Y0060930D01*
X0132279Y0060989D01*
X0132295Y0061048D01*
X0132315Y0061105D01*
X0132338Y0061160D01*
X0132365Y0061215D01*
X0132394Y0061267D01*
X0132427Y0061318D01*
X0132463Y0061367D01*
X0132501Y0061413D01*
X0132543Y0061457D01*
X0132587Y0061499D01*
X0132633Y0061537D01*
X0132682Y0061573D01*
X0132733Y0061606D01*
X0132785Y0061635D01*
X0132840Y0061662D01*
X0132895Y0061685D01*
X0132952Y0061705D01*
X0133011Y0061721D01*
X0133070Y0061734D01*
X0133129Y0061743D01*
X0133190Y0061748D01*
X0133250Y0061750D01*
X0133750Y0061750D01*
X0133810Y0061748D01*
X0133871Y0061743D01*
X0133930Y0061734D01*
X0133989Y0061721D01*
X0134048Y0061705D01*
X0134105Y0061685D01*
X0134160Y0061662D01*
X0134215Y0061635D01*
X0134267Y0061606D01*
X0134318Y0061573D01*
X0134367Y0061537D01*
X0134413Y0061499D01*
X0134457Y0061457D01*
X0134499Y0061413D01*
X0134537Y0061367D01*
X0134573Y0061318D01*
X0134606Y0061267D01*
X0134635Y0061215D01*
X0134662Y0061160D01*
X0134685Y0061105D01*
X0134705Y0061048D01*
X0134721Y0060989D01*
X0134734Y0060930D01*
X0134743Y0060871D01*
X0134748Y0060810D01*
X0134750Y0060750D01*
X0134750Y0059250D01*
X0140250Y0059250D02*
X0140250Y0061750D01*
X0142250Y0060750D02*
X0142250Y0059250D01*
X0140250Y0059250D01*
X0142250Y0060750D02*
X0142252Y0060810D01*
X0142257Y0060871D01*
X0142266Y0060930D01*
X0142279Y0060989D01*
X0142295Y0061048D01*
X0142315Y0061105D01*
X0142338Y0061160D01*
X0142365Y0061215D01*
X0142394Y0061267D01*
X0142427Y0061318D01*
X0142463Y0061367D01*
X0142501Y0061413D01*
X0142543Y0061457D01*
X0142587Y0061499D01*
X0142633Y0061537D01*
X0142682Y0061573D01*
X0142733Y0061606D01*
X0142785Y0061635D01*
X0142840Y0061662D01*
X0142895Y0061685D01*
X0142952Y0061705D01*
X0143011Y0061721D01*
X0143070Y0061734D01*
X0143129Y0061743D01*
X0143190Y0061748D01*
X0143250Y0061750D01*
X0143750Y0061750D01*
X0143810Y0061748D01*
X0143871Y0061743D01*
X0143930Y0061734D01*
X0143989Y0061721D01*
X0144048Y0061705D01*
X0144105Y0061685D01*
X0144160Y0061662D01*
X0144215Y0061635D01*
X0144267Y0061606D01*
X0144318Y0061573D01*
X0144367Y0061537D01*
X0144413Y0061499D01*
X0144457Y0061457D01*
X0144499Y0061413D01*
X0144537Y0061367D01*
X0144573Y0061318D01*
X0144606Y0061267D01*
X0144635Y0061215D01*
X0144662Y0061160D01*
X0144685Y0061105D01*
X0144705Y0061048D01*
X0144721Y0060989D01*
X0144734Y0060930D01*
X0144743Y0060871D01*
X0144748Y0060810D01*
X0144750Y0060750D01*
X0144750Y0059250D01*
X0150250Y0059250D02*
X0150250Y0061750D01*
X0152250Y0060750D02*
X0152250Y0059250D01*
X0150250Y0059250D01*
X0152250Y0060750D02*
X0152252Y0060810D01*
X0152257Y0060871D01*
X0152266Y0060930D01*
X0152279Y0060989D01*
X0152295Y0061048D01*
X0152315Y0061105D01*
X0152338Y0061160D01*
X0152365Y0061215D01*
X0152394Y0061267D01*
X0152427Y0061318D01*
X0152463Y0061367D01*
X0152501Y0061413D01*
X0152543Y0061457D01*
X0152587Y0061499D01*
X0152633Y0061537D01*
X0152682Y0061573D01*
X0152733Y0061606D01*
X0152785Y0061635D01*
X0152840Y0061662D01*
X0152895Y0061685D01*
X0152952Y0061705D01*
X0153011Y0061721D01*
X0153070Y0061734D01*
X0153129Y0061743D01*
X0153190Y0061748D01*
X0153250Y0061750D01*
X0153750Y0061750D01*
X0153810Y0061748D01*
X0153871Y0061743D01*
X0153930Y0061734D01*
X0153989Y0061721D01*
X0154048Y0061705D01*
X0154105Y0061685D01*
X0154160Y0061662D01*
X0154215Y0061635D01*
X0154267Y0061606D01*
X0154318Y0061573D01*
X0154367Y0061537D01*
X0154413Y0061499D01*
X0154457Y0061457D01*
X0154499Y0061413D01*
X0154537Y0061367D01*
X0154573Y0061318D01*
X0154606Y0061267D01*
X0154635Y0061215D01*
X0154662Y0061160D01*
X0154685Y0061105D01*
X0154705Y0061048D01*
X0154721Y0060989D01*
X0154734Y0060930D01*
X0154743Y0060871D01*
X0154748Y0060810D01*
X0154750Y0060750D01*
X0154750Y0059250D01*
X0180250Y0062000D02*
X0184750Y0062000D01*
X0184750Y0060750D02*
X0184750Y0063250D01*
X0181250Y0060750D02*
X0180250Y0062000D01*
X0210500Y0020750D02*
X0210620Y0020752D01*
X0210740Y0020758D01*
X0210860Y0020768D01*
X0210979Y0020781D01*
X0211098Y0020799D01*
X0211216Y0020820D01*
X0211334Y0020845D01*
X0211450Y0020874D01*
X0211566Y0020907D01*
X0211680Y0020943D01*
X0211794Y0020983D01*
X0211906Y0021027D01*
X0212016Y0021074D01*
X0212125Y0021125D01*
X0211750Y0021000D02*
X0209250Y0023000D01*
X0208875Y0022875D02*
X0208819Y0022854D01*
X0208764Y0022828D01*
X0208710Y0022800D01*
X0208659Y0022768D01*
X0208610Y0022733D01*
X0208564Y0022694D01*
X0208520Y0022653D01*
X0208478Y0022609D01*
X0208440Y0022562D01*
X0208405Y0022513D01*
X0208373Y0022461D01*
X0208345Y0022408D01*
X0208320Y0022353D01*
X0208299Y0022297D01*
X0208281Y0022239D01*
X0208268Y0022180D01*
X0208258Y0022120D01*
X0208252Y0022060D01*
X0208250Y0022000D01*
X0208252Y0021940D01*
X0208258Y0021880D01*
X0208268Y0021820D01*
X0208281Y0021761D01*
X0208299Y0021703D01*
X0208320Y0021647D01*
X0208345Y0021592D01*
X0208373Y0021539D01*
X0208405Y0021487D01*
X0208440Y0021438D01*
X0208478Y0021391D01*
X0208520Y0021347D01*
X0208564Y0021306D01*
X0208610Y0021267D01*
X0208659Y0021232D01*
X0208710Y0021200D01*
X0208764Y0021172D01*
X0208819Y0021146D01*
X0208875Y0021125D01*
X0212125Y0022875D02*
X0212181Y0022854D01*
X0212236Y0022828D01*
X0212290Y0022800D01*
X0212341Y0022768D01*
X0212390Y0022733D01*
X0212436Y0022694D01*
X0212480Y0022653D01*
X0212522Y0022609D01*
X0212560Y0022562D01*
X0212595Y0022513D01*
X0212627Y0022461D01*
X0212655Y0022408D01*
X0212680Y0022353D01*
X0212701Y0022297D01*
X0212719Y0022239D01*
X0212732Y0022180D01*
X0212742Y0022120D01*
X0212748Y0022060D01*
X0212750Y0022000D01*
X0212748Y0021940D01*
X0212742Y0021880D01*
X0212732Y0021820D01*
X0212719Y0021761D01*
X0212701Y0021703D01*
X0212680Y0021647D01*
X0212655Y0021592D01*
X0212627Y0021539D01*
X0212595Y0021487D01*
X0212560Y0021438D01*
X0212522Y0021391D01*
X0212480Y0021347D01*
X0212436Y0021306D01*
X0212390Y0021267D01*
X0212341Y0021232D01*
X0212290Y0021200D01*
X0212236Y0021172D01*
X0212181Y0021146D01*
X0212125Y0021125D01*
X0212125Y0022875D02*
X0212016Y0022926D01*
X0211906Y0022973D01*
X0211794Y0023017D01*
X0211680Y0023057D01*
X0211566Y0023093D01*
X0211450Y0023126D01*
X0211334Y0023155D01*
X0211216Y0023180D01*
X0211098Y0023201D01*
X0210979Y0023219D01*
X0210860Y0023232D01*
X0210740Y0023242D01*
X0210620Y0023248D01*
X0210500Y0023250D01*
X0210500Y0020750D02*
X0210380Y0020752D01*
X0210260Y0020758D01*
X0210140Y0020768D01*
X0210021Y0020781D01*
X0209902Y0020799D01*
X0209784Y0020820D01*
X0209666Y0020845D01*
X0209550Y0020874D01*
X0209434Y0020907D01*
X0209320Y0020943D01*
X0209206Y0020983D01*
X0209094Y0021027D01*
X0208984Y0021074D01*
X0208875Y0021125D01*
X0208875Y0022875D02*
X0208984Y0022926D01*
X0209094Y0022973D01*
X0209206Y0023017D01*
X0209320Y0023057D01*
X0209434Y0023093D01*
X0209550Y0023126D01*
X0209666Y0023155D01*
X0209784Y0023180D01*
X0209902Y0023201D01*
X0210021Y0023219D01*
X0210140Y0023232D01*
X0210260Y0023242D01*
X0210380Y0023248D01*
X0210500Y0023250D01*
X0212750Y0018750D02*
X0212750Y0016250D01*
X0212750Y0017500D02*
X0208250Y0017500D01*
X0209250Y0016250D01*
M02*
