G04 EAGLE Gerber X2 export*
%TF.Part,Single*%
%TF.FileFunction,Other,Bottom Silk screen*%
%TF.FilePolarity,Positive*%
%TF.GenerationSoftware,Autodesk,EAGLE,8.7.1*%
%TF.CreationDate,2018-04-09T14:30:11Z*%
G75*
%MOMM*%
%FSLAX34Y34*%
%LPD*%
%AMOC8*
5,1,8,0,0,1.08239X$1,22.5*%
G01*
%ADD10C,0.152400*%
%ADD11C,0.203200*%


D10*
X805688Y197612D02*
X805688Y213868D01*
X801172Y213868D01*
X801041Y213866D01*
X800909Y213860D01*
X800778Y213851D01*
X800648Y213837D01*
X800517Y213820D01*
X800388Y213799D01*
X800259Y213775D01*
X800131Y213746D01*
X800003Y213714D01*
X799877Y213678D01*
X799752Y213639D01*
X799627Y213596D01*
X799505Y213549D01*
X799383Y213499D01*
X799263Y213445D01*
X799145Y213388D01*
X799029Y213327D01*
X798914Y213263D01*
X798801Y213196D01*
X798690Y213125D01*
X798582Y213051D01*
X798475Y212974D01*
X798371Y212894D01*
X798269Y212811D01*
X798170Y212726D01*
X798073Y212637D01*
X797979Y212545D01*
X797887Y212451D01*
X797798Y212354D01*
X797713Y212255D01*
X797630Y212153D01*
X797550Y212049D01*
X797473Y211942D01*
X797399Y211834D01*
X797328Y211723D01*
X797261Y211610D01*
X797197Y211495D01*
X797136Y211379D01*
X797079Y211261D01*
X797025Y211141D01*
X796975Y211019D01*
X796928Y210897D01*
X796885Y210772D01*
X796846Y210647D01*
X796810Y210521D01*
X796778Y210393D01*
X796749Y210265D01*
X796725Y210136D01*
X796704Y210007D01*
X796687Y209876D01*
X796673Y209746D01*
X796664Y209615D01*
X796658Y209483D01*
X796656Y209352D01*
X796657Y209352D02*
X796657Y202128D01*
X796656Y202128D02*
X796658Y201997D01*
X796664Y201865D01*
X796673Y201734D01*
X796687Y201604D01*
X796704Y201473D01*
X796725Y201344D01*
X796749Y201215D01*
X796778Y201087D01*
X796810Y200959D01*
X796846Y200833D01*
X796885Y200708D01*
X796928Y200583D01*
X796975Y200461D01*
X797025Y200339D01*
X797079Y200219D01*
X797136Y200101D01*
X797197Y199985D01*
X797261Y199870D01*
X797328Y199757D01*
X797399Y199646D01*
X797473Y199538D01*
X797550Y199431D01*
X797630Y199327D01*
X797713Y199225D01*
X797798Y199126D01*
X797887Y199029D01*
X797979Y198935D01*
X798073Y198843D01*
X798170Y198754D01*
X798269Y198669D01*
X798371Y198586D01*
X798475Y198506D01*
X798582Y198429D01*
X798690Y198355D01*
X798801Y198284D01*
X798914Y198217D01*
X799029Y198153D01*
X799145Y198092D01*
X799263Y198035D01*
X799383Y197981D01*
X799505Y197931D01*
X799627Y197884D01*
X799752Y197841D01*
X799877Y197802D01*
X800003Y197766D01*
X800131Y197734D01*
X800259Y197705D01*
X800388Y197681D01*
X800517Y197660D01*
X800648Y197643D01*
X800778Y197629D01*
X800909Y197620D01*
X801041Y197614D01*
X801172Y197612D01*
X805688Y197612D01*
X786965Y197612D02*
X782450Y197612D01*
X786965Y197612D02*
X787066Y197614D01*
X787167Y197620D01*
X787268Y197629D01*
X787369Y197642D01*
X787469Y197659D01*
X787568Y197680D01*
X787666Y197704D01*
X787763Y197732D01*
X787860Y197764D01*
X787955Y197799D01*
X788048Y197838D01*
X788140Y197880D01*
X788231Y197926D01*
X788320Y197975D01*
X788406Y198027D01*
X788491Y198083D01*
X788574Y198141D01*
X788654Y198203D01*
X788732Y198268D01*
X788808Y198335D01*
X788881Y198405D01*
X788951Y198478D01*
X789018Y198554D01*
X789083Y198632D01*
X789145Y198712D01*
X789203Y198795D01*
X789259Y198880D01*
X789311Y198966D01*
X789360Y199055D01*
X789406Y199146D01*
X789448Y199238D01*
X789487Y199331D01*
X789522Y199426D01*
X789554Y199523D01*
X789582Y199620D01*
X789606Y199718D01*
X789627Y199817D01*
X789644Y199917D01*
X789657Y200018D01*
X789666Y200119D01*
X789672Y200220D01*
X789674Y200321D01*
X789675Y200321D02*
X789675Y204837D01*
X789674Y204837D02*
X789672Y204956D01*
X789666Y205076D01*
X789656Y205195D01*
X789642Y205313D01*
X789625Y205432D01*
X789603Y205549D01*
X789578Y205666D01*
X789548Y205781D01*
X789515Y205896D01*
X789478Y206010D01*
X789438Y206122D01*
X789393Y206233D01*
X789345Y206342D01*
X789294Y206450D01*
X789239Y206556D01*
X789180Y206660D01*
X789118Y206762D01*
X789053Y206862D01*
X788984Y206960D01*
X788912Y207056D01*
X788837Y207149D01*
X788760Y207239D01*
X788679Y207327D01*
X788595Y207412D01*
X788508Y207494D01*
X788419Y207574D01*
X788327Y207650D01*
X788233Y207724D01*
X788136Y207794D01*
X788038Y207861D01*
X787937Y207925D01*
X787833Y207985D01*
X787728Y208042D01*
X787621Y208095D01*
X787513Y208145D01*
X787403Y208191D01*
X787291Y208233D01*
X787178Y208272D01*
X787064Y208307D01*
X786949Y208338D01*
X786832Y208366D01*
X786715Y208389D01*
X786598Y208409D01*
X786479Y208425D01*
X786360Y208437D01*
X786241Y208445D01*
X786122Y208449D01*
X786002Y208449D01*
X785883Y208445D01*
X785764Y208437D01*
X785645Y208425D01*
X785526Y208409D01*
X785409Y208389D01*
X785292Y208366D01*
X785175Y208338D01*
X785060Y208307D01*
X784946Y208272D01*
X784833Y208233D01*
X784721Y208191D01*
X784611Y208145D01*
X784503Y208095D01*
X784396Y208042D01*
X784291Y207985D01*
X784187Y207925D01*
X784086Y207861D01*
X783988Y207794D01*
X783891Y207724D01*
X783797Y207650D01*
X783705Y207574D01*
X783616Y207494D01*
X783529Y207412D01*
X783445Y207327D01*
X783364Y207239D01*
X783287Y207149D01*
X783212Y207056D01*
X783140Y206960D01*
X783071Y206862D01*
X783006Y206762D01*
X782944Y206660D01*
X782885Y206556D01*
X782830Y206450D01*
X782779Y206342D01*
X782731Y206233D01*
X782686Y206122D01*
X782646Y206010D01*
X782609Y205896D01*
X782576Y205781D01*
X782546Y205666D01*
X782521Y205549D01*
X782499Y205432D01*
X782482Y205313D01*
X782468Y205195D01*
X782458Y205076D01*
X782452Y204956D01*
X782450Y204837D01*
X782450Y203031D01*
X789675Y203031D01*
X774773Y203934D02*
X770257Y202128D01*
X774773Y203934D02*
X774861Y203971D01*
X774947Y204012D01*
X775032Y204056D01*
X775115Y204104D01*
X775195Y204155D01*
X775274Y204209D01*
X775350Y204267D01*
X775424Y204327D01*
X775496Y204391D01*
X775564Y204457D01*
X775630Y204527D01*
X775693Y204598D01*
X775754Y204673D01*
X775811Y204749D01*
X775864Y204828D01*
X775915Y204909D01*
X775962Y204992D01*
X776006Y205077D01*
X776046Y205164D01*
X776083Y205252D01*
X776116Y205342D01*
X776146Y205433D01*
X776171Y205525D01*
X776193Y205618D01*
X776211Y205712D01*
X776226Y205806D01*
X776236Y205901D01*
X776242Y205997D01*
X776245Y206092D01*
X776244Y206188D01*
X776238Y206283D01*
X776229Y206379D01*
X776216Y206473D01*
X776200Y206567D01*
X776179Y206661D01*
X776154Y206753D01*
X776126Y206844D01*
X776094Y206934D01*
X776059Y207023D01*
X776020Y207110D01*
X775977Y207196D01*
X775931Y207280D01*
X775881Y207361D01*
X775829Y207441D01*
X775773Y207519D01*
X775713Y207594D01*
X775651Y207666D01*
X775586Y207736D01*
X775518Y207804D01*
X775448Y207868D01*
X775375Y207930D01*
X775299Y207988D01*
X775221Y208044D01*
X775141Y208096D01*
X775059Y208145D01*
X774975Y208190D01*
X774889Y208232D01*
X774802Y208271D01*
X774713Y208306D01*
X774622Y208337D01*
X774531Y208364D01*
X774438Y208388D01*
X774345Y208408D01*
X774251Y208424D01*
X774156Y208436D01*
X774061Y208445D01*
X773965Y208449D01*
X773870Y208450D01*
X773623Y208443D01*
X773377Y208431D01*
X773131Y208413D01*
X772885Y208388D01*
X772641Y208358D01*
X772397Y208322D01*
X772154Y208281D01*
X771912Y208233D01*
X771671Y208179D01*
X771432Y208120D01*
X771194Y208055D01*
X770958Y207984D01*
X770723Y207908D01*
X770490Y207826D01*
X770260Y207738D01*
X770032Y207645D01*
X769805Y207547D01*
X770257Y202127D02*
X770169Y202090D01*
X770083Y202049D01*
X769998Y202005D01*
X769915Y201957D01*
X769835Y201906D01*
X769756Y201852D01*
X769680Y201794D01*
X769606Y201734D01*
X769534Y201670D01*
X769466Y201604D01*
X769400Y201534D01*
X769337Y201463D01*
X769276Y201388D01*
X769219Y201312D01*
X769166Y201233D01*
X769115Y201152D01*
X769068Y201069D01*
X769024Y200984D01*
X768984Y200897D01*
X768947Y200809D01*
X768914Y200719D01*
X768884Y200628D01*
X768859Y200536D01*
X768837Y200443D01*
X768819Y200349D01*
X768804Y200255D01*
X768794Y200160D01*
X768788Y200064D01*
X768785Y199969D01*
X768786Y199873D01*
X768792Y199778D01*
X768801Y199682D01*
X768814Y199588D01*
X768830Y199494D01*
X768851Y199400D01*
X768876Y199308D01*
X768904Y199217D01*
X768936Y199127D01*
X768971Y199038D01*
X769010Y198951D01*
X769053Y198865D01*
X769099Y198781D01*
X769149Y198700D01*
X769201Y198620D01*
X769257Y198542D01*
X769317Y198467D01*
X769379Y198395D01*
X769444Y198325D01*
X769512Y198257D01*
X769582Y198193D01*
X769655Y198131D01*
X769731Y198073D01*
X769809Y198017D01*
X769889Y197965D01*
X769971Y197916D01*
X770055Y197871D01*
X770141Y197829D01*
X770228Y197790D01*
X770317Y197755D01*
X770408Y197724D01*
X770499Y197697D01*
X770592Y197673D01*
X770685Y197653D01*
X770779Y197637D01*
X770874Y197625D01*
X770969Y197616D01*
X771065Y197612D01*
X771160Y197611D01*
X771161Y197612D02*
X771523Y197621D01*
X771885Y197639D01*
X772246Y197666D01*
X772606Y197701D01*
X772966Y197744D01*
X773325Y197796D01*
X773682Y197857D01*
X774037Y197926D01*
X774391Y198003D01*
X774743Y198089D01*
X775093Y198183D01*
X775441Y198286D01*
X775786Y198396D01*
X776128Y198515D01*
X762615Y197612D02*
X762615Y208449D01*
X763067Y212965D02*
X763067Y213868D01*
X762164Y213868D01*
X762164Y212965D01*
X763067Y212965D01*
X753692Y197612D02*
X749177Y197612D01*
X753692Y197612D02*
X753793Y197614D01*
X753894Y197620D01*
X753995Y197629D01*
X754096Y197642D01*
X754196Y197659D01*
X754295Y197680D01*
X754393Y197704D01*
X754490Y197732D01*
X754587Y197764D01*
X754682Y197799D01*
X754775Y197838D01*
X754867Y197880D01*
X754958Y197926D01*
X755047Y197975D01*
X755133Y198027D01*
X755218Y198083D01*
X755301Y198141D01*
X755381Y198203D01*
X755459Y198268D01*
X755535Y198335D01*
X755608Y198405D01*
X755678Y198478D01*
X755745Y198554D01*
X755810Y198632D01*
X755872Y198712D01*
X755930Y198795D01*
X755986Y198880D01*
X756038Y198966D01*
X756087Y199055D01*
X756133Y199146D01*
X756175Y199238D01*
X756214Y199331D01*
X756249Y199426D01*
X756281Y199523D01*
X756309Y199620D01*
X756333Y199718D01*
X756354Y199817D01*
X756371Y199917D01*
X756384Y200018D01*
X756393Y200119D01*
X756399Y200220D01*
X756401Y200321D01*
X756401Y205740D01*
X756399Y205841D01*
X756393Y205942D01*
X756384Y206043D01*
X756371Y206144D01*
X756354Y206244D01*
X756333Y206343D01*
X756309Y206441D01*
X756281Y206538D01*
X756249Y206635D01*
X756214Y206730D01*
X756175Y206823D01*
X756133Y206915D01*
X756087Y207006D01*
X756038Y207095D01*
X755986Y207181D01*
X755930Y207266D01*
X755872Y207349D01*
X755810Y207429D01*
X755745Y207507D01*
X755678Y207583D01*
X755608Y207656D01*
X755535Y207726D01*
X755459Y207793D01*
X755381Y207858D01*
X755301Y207920D01*
X755218Y207978D01*
X755133Y208034D01*
X755047Y208086D01*
X754958Y208135D01*
X754867Y208181D01*
X754775Y208223D01*
X754682Y208262D01*
X754587Y208297D01*
X754490Y208329D01*
X754393Y208357D01*
X754295Y208381D01*
X754196Y208402D01*
X754096Y208419D01*
X753995Y208432D01*
X753894Y208441D01*
X753793Y208447D01*
X753692Y208449D01*
X749177Y208449D01*
X749177Y194903D01*
X749179Y194802D01*
X749185Y194701D01*
X749194Y194600D01*
X749207Y194499D01*
X749224Y194399D01*
X749245Y194300D01*
X749269Y194202D01*
X749297Y194105D01*
X749329Y194008D01*
X749364Y193913D01*
X749403Y193820D01*
X749445Y193728D01*
X749491Y193637D01*
X749540Y193549D01*
X749592Y193462D01*
X749648Y193377D01*
X749706Y193294D01*
X749768Y193214D01*
X749833Y193136D01*
X749900Y193060D01*
X749970Y192987D01*
X750043Y192917D01*
X750119Y192850D01*
X750197Y192785D01*
X750277Y192723D01*
X750360Y192665D01*
X750445Y192609D01*
X750532Y192557D01*
X750620Y192508D01*
X750711Y192462D01*
X750803Y192420D01*
X750896Y192381D01*
X750991Y192346D01*
X751088Y192314D01*
X751185Y192286D01*
X751283Y192262D01*
X751382Y192241D01*
X751482Y192224D01*
X751583Y192211D01*
X751684Y192202D01*
X751785Y192196D01*
X751886Y192194D01*
X751886Y192193D02*
X755498Y192193D01*
X741739Y197612D02*
X741739Y208449D01*
X737223Y208449D01*
X737119Y208447D01*
X737016Y208441D01*
X736912Y208431D01*
X736809Y208417D01*
X736707Y208399D01*
X736606Y208378D01*
X736505Y208352D01*
X736406Y208323D01*
X736307Y208290D01*
X736210Y208253D01*
X736115Y208212D01*
X736021Y208168D01*
X735929Y208120D01*
X735839Y208069D01*
X735750Y208014D01*
X735664Y207956D01*
X735581Y207894D01*
X735499Y207830D01*
X735421Y207762D01*
X735345Y207692D01*
X735271Y207619D01*
X735201Y207542D01*
X735133Y207464D01*
X735069Y207382D01*
X735007Y207299D01*
X734949Y207213D01*
X734894Y207124D01*
X734843Y207034D01*
X734795Y206942D01*
X734751Y206848D01*
X734710Y206753D01*
X734673Y206656D01*
X734640Y206557D01*
X734611Y206458D01*
X734585Y206357D01*
X734564Y206256D01*
X734546Y206154D01*
X734532Y206051D01*
X734522Y205947D01*
X734516Y205844D01*
X734514Y205740D01*
X734514Y197612D01*
X724962Y197612D02*
X720446Y197612D01*
X724962Y197612D02*
X725063Y197614D01*
X725164Y197620D01*
X725265Y197629D01*
X725366Y197642D01*
X725466Y197659D01*
X725565Y197680D01*
X725663Y197704D01*
X725760Y197732D01*
X725857Y197764D01*
X725952Y197799D01*
X726045Y197838D01*
X726137Y197880D01*
X726228Y197926D01*
X726317Y197975D01*
X726403Y198027D01*
X726488Y198083D01*
X726571Y198141D01*
X726651Y198203D01*
X726729Y198268D01*
X726805Y198335D01*
X726878Y198405D01*
X726948Y198478D01*
X727015Y198554D01*
X727080Y198632D01*
X727142Y198712D01*
X727200Y198795D01*
X727256Y198880D01*
X727308Y198966D01*
X727357Y199055D01*
X727403Y199146D01*
X727445Y199238D01*
X727484Y199331D01*
X727519Y199426D01*
X727551Y199523D01*
X727579Y199620D01*
X727603Y199718D01*
X727624Y199817D01*
X727641Y199917D01*
X727654Y200018D01*
X727663Y200119D01*
X727669Y200220D01*
X727671Y200321D01*
X727671Y204837D01*
X727670Y204837D02*
X727668Y204956D01*
X727662Y205076D01*
X727652Y205195D01*
X727638Y205313D01*
X727621Y205432D01*
X727599Y205549D01*
X727574Y205666D01*
X727544Y205781D01*
X727511Y205896D01*
X727474Y206010D01*
X727434Y206122D01*
X727389Y206233D01*
X727341Y206342D01*
X727290Y206450D01*
X727235Y206556D01*
X727176Y206660D01*
X727114Y206762D01*
X727049Y206862D01*
X726980Y206960D01*
X726908Y207056D01*
X726833Y207149D01*
X726756Y207239D01*
X726675Y207327D01*
X726591Y207412D01*
X726504Y207494D01*
X726415Y207574D01*
X726323Y207650D01*
X726229Y207724D01*
X726132Y207794D01*
X726034Y207861D01*
X725933Y207925D01*
X725829Y207985D01*
X725724Y208042D01*
X725617Y208095D01*
X725509Y208145D01*
X725399Y208191D01*
X725287Y208233D01*
X725174Y208272D01*
X725060Y208307D01*
X724945Y208338D01*
X724828Y208366D01*
X724711Y208389D01*
X724594Y208409D01*
X724475Y208425D01*
X724356Y208437D01*
X724237Y208445D01*
X724118Y208449D01*
X723998Y208449D01*
X723879Y208445D01*
X723760Y208437D01*
X723641Y208425D01*
X723522Y208409D01*
X723405Y208389D01*
X723288Y208366D01*
X723171Y208338D01*
X723056Y208307D01*
X722942Y208272D01*
X722829Y208233D01*
X722717Y208191D01*
X722607Y208145D01*
X722499Y208095D01*
X722392Y208042D01*
X722287Y207985D01*
X722183Y207925D01*
X722082Y207861D01*
X721984Y207794D01*
X721887Y207724D01*
X721793Y207650D01*
X721701Y207574D01*
X721612Y207494D01*
X721525Y207412D01*
X721441Y207327D01*
X721360Y207239D01*
X721283Y207149D01*
X721208Y207056D01*
X721136Y206960D01*
X721067Y206862D01*
X721002Y206762D01*
X720940Y206660D01*
X720881Y206556D01*
X720826Y206450D01*
X720775Y206342D01*
X720727Y206233D01*
X720682Y206122D01*
X720642Y206010D01*
X720605Y205896D01*
X720572Y205781D01*
X720542Y205666D01*
X720517Y205549D01*
X720495Y205432D01*
X720478Y205313D01*
X720464Y205195D01*
X720454Y205076D01*
X720448Y204956D01*
X720446Y204837D01*
X720446Y203031D01*
X727671Y203031D01*
X706972Y197612D02*
X706972Y213868D01*
X706972Y197612D02*
X711488Y197612D01*
X711589Y197614D01*
X711690Y197620D01*
X711791Y197629D01*
X711892Y197642D01*
X711992Y197659D01*
X712091Y197680D01*
X712189Y197704D01*
X712286Y197732D01*
X712383Y197764D01*
X712478Y197799D01*
X712571Y197838D01*
X712663Y197880D01*
X712754Y197926D01*
X712843Y197975D01*
X712929Y198027D01*
X713014Y198083D01*
X713097Y198141D01*
X713177Y198203D01*
X713255Y198268D01*
X713331Y198335D01*
X713404Y198405D01*
X713474Y198478D01*
X713541Y198554D01*
X713606Y198632D01*
X713668Y198712D01*
X713726Y198795D01*
X713782Y198880D01*
X713834Y198966D01*
X713883Y199055D01*
X713929Y199146D01*
X713971Y199238D01*
X714010Y199331D01*
X714045Y199426D01*
X714077Y199523D01*
X714105Y199620D01*
X714129Y199718D01*
X714150Y199817D01*
X714167Y199917D01*
X714180Y200018D01*
X714189Y200119D01*
X714195Y200220D01*
X714197Y200321D01*
X714197Y205740D01*
X714195Y205841D01*
X714189Y205942D01*
X714180Y206043D01*
X714167Y206144D01*
X714150Y206244D01*
X714129Y206343D01*
X714105Y206441D01*
X714077Y206538D01*
X714045Y206635D01*
X714010Y206730D01*
X713971Y206823D01*
X713929Y206915D01*
X713883Y207006D01*
X713834Y207095D01*
X713782Y207181D01*
X713726Y207266D01*
X713668Y207349D01*
X713606Y207429D01*
X713541Y207507D01*
X713474Y207583D01*
X713404Y207656D01*
X713331Y207726D01*
X713255Y207793D01*
X713177Y207858D01*
X713097Y207920D01*
X713014Y207978D01*
X712929Y208034D01*
X712843Y208086D01*
X712754Y208135D01*
X712663Y208181D01*
X712571Y208223D01*
X712478Y208262D01*
X712383Y208297D01*
X712286Y208329D01*
X712189Y208357D01*
X712091Y208381D01*
X711992Y208402D01*
X711892Y208419D01*
X711791Y208432D01*
X711690Y208441D01*
X711589Y208447D01*
X711488Y208449D01*
X706972Y208449D01*
X691125Y213868D02*
X691125Y197612D01*
X686609Y197612D01*
X686505Y197614D01*
X686402Y197620D01*
X686298Y197630D01*
X686195Y197644D01*
X686093Y197662D01*
X685992Y197683D01*
X685891Y197709D01*
X685792Y197738D01*
X685693Y197771D01*
X685596Y197808D01*
X685501Y197849D01*
X685407Y197893D01*
X685315Y197941D01*
X685225Y197992D01*
X685136Y198047D01*
X685050Y198105D01*
X684967Y198167D01*
X684885Y198231D01*
X684807Y198299D01*
X684731Y198369D01*
X684657Y198442D01*
X684587Y198519D01*
X684519Y198597D01*
X684455Y198679D01*
X684393Y198762D01*
X684335Y198848D01*
X684280Y198937D01*
X684229Y199027D01*
X684181Y199119D01*
X684137Y199213D01*
X684096Y199308D01*
X684059Y199405D01*
X684026Y199504D01*
X683997Y199603D01*
X683971Y199704D01*
X683950Y199805D01*
X683932Y199907D01*
X683918Y200010D01*
X683908Y200114D01*
X683902Y200217D01*
X683900Y200321D01*
X683900Y205740D01*
X683902Y205841D01*
X683908Y205942D01*
X683917Y206043D01*
X683930Y206144D01*
X683947Y206244D01*
X683968Y206343D01*
X683992Y206441D01*
X684020Y206538D01*
X684052Y206635D01*
X684087Y206730D01*
X684126Y206823D01*
X684168Y206915D01*
X684214Y207006D01*
X684263Y207095D01*
X684315Y207181D01*
X684371Y207266D01*
X684429Y207349D01*
X684491Y207429D01*
X684556Y207507D01*
X684623Y207583D01*
X684693Y207656D01*
X684766Y207726D01*
X684842Y207793D01*
X684920Y207858D01*
X685000Y207920D01*
X685083Y207978D01*
X685168Y208034D01*
X685255Y208086D01*
X685343Y208135D01*
X685434Y208181D01*
X685526Y208223D01*
X685619Y208262D01*
X685714Y208297D01*
X685811Y208329D01*
X685908Y208357D01*
X686006Y208381D01*
X686105Y208402D01*
X686205Y208419D01*
X686306Y208432D01*
X686407Y208441D01*
X686508Y208447D01*
X686609Y208449D01*
X691125Y208449D01*
X678172Y192193D02*
X676366Y192193D01*
X670947Y208449D01*
X678172Y208449D02*
X674560Y197612D01*
X665111Y198967D02*
X665111Y199870D01*
X664208Y199870D01*
X664208Y198967D01*
X665111Y198967D01*
X665111Y206192D02*
X665111Y207095D01*
X664208Y207095D01*
X664208Y206192D01*
X665111Y206192D01*
X648855Y213868D02*
X648855Y197612D01*
X648855Y213868D02*
X644339Y213868D01*
X644208Y213866D01*
X644076Y213860D01*
X643945Y213851D01*
X643815Y213837D01*
X643684Y213820D01*
X643555Y213799D01*
X643426Y213775D01*
X643298Y213746D01*
X643170Y213714D01*
X643044Y213678D01*
X642919Y213639D01*
X642794Y213596D01*
X642672Y213549D01*
X642550Y213499D01*
X642430Y213445D01*
X642312Y213388D01*
X642196Y213327D01*
X642081Y213263D01*
X641968Y213196D01*
X641857Y213125D01*
X641749Y213051D01*
X641642Y212974D01*
X641538Y212894D01*
X641436Y212811D01*
X641337Y212726D01*
X641240Y212637D01*
X641146Y212545D01*
X641054Y212451D01*
X640965Y212354D01*
X640880Y212255D01*
X640797Y212153D01*
X640717Y212049D01*
X640640Y211942D01*
X640566Y211834D01*
X640495Y211723D01*
X640428Y211610D01*
X640364Y211495D01*
X640303Y211379D01*
X640246Y211261D01*
X640192Y211141D01*
X640142Y211019D01*
X640095Y210897D01*
X640052Y210772D01*
X640013Y210647D01*
X639977Y210521D01*
X639945Y210393D01*
X639916Y210265D01*
X639892Y210136D01*
X639871Y210007D01*
X639854Y209876D01*
X639840Y209746D01*
X639831Y209615D01*
X639825Y209483D01*
X639823Y209352D01*
X639824Y209352D02*
X639824Y202128D01*
X639823Y202128D02*
X639825Y201997D01*
X639831Y201865D01*
X639840Y201734D01*
X639854Y201604D01*
X639871Y201473D01*
X639892Y201344D01*
X639916Y201215D01*
X639945Y201087D01*
X639977Y200959D01*
X640013Y200833D01*
X640052Y200708D01*
X640095Y200583D01*
X640142Y200461D01*
X640192Y200339D01*
X640246Y200219D01*
X640303Y200101D01*
X640364Y199985D01*
X640428Y199870D01*
X640495Y199757D01*
X640566Y199646D01*
X640640Y199538D01*
X640717Y199431D01*
X640797Y199327D01*
X640880Y199225D01*
X640965Y199126D01*
X641054Y199029D01*
X641146Y198935D01*
X641240Y198843D01*
X641337Y198754D01*
X641436Y198669D01*
X641538Y198586D01*
X641642Y198506D01*
X641749Y198429D01*
X641857Y198355D01*
X641968Y198284D01*
X642081Y198217D01*
X642196Y198153D01*
X642312Y198092D01*
X642430Y198035D01*
X642550Y197981D01*
X642672Y197931D01*
X642794Y197884D01*
X642919Y197841D01*
X643044Y197802D01*
X643170Y197766D01*
X643298Y197734D01*
X643426Y197705D01*
X643555Y197681D01*
X643684Y197660D01*
X643815Y197643D01*
X643945Y197629D01*
X644076Y197620D01*
X644208Y197614D01*
X644339Y197612D01*
X648855Y197612D01*
X629754Y203934D02*
X625690Y203934D01*
X629754Y203934D02*
X629866Y203932D01*
X629977Y203926D01*
X630088Y203916D01*
X630199Y203903D01*
X630309Y203885D01*
X630418Y203863D01*
X630527Y203838D01*
X630635Y203809D01*
X630741Y203776D01*
X630847Y203739D01*
X630951Y203699D01*
X631053Y203655D01*
X631154Y203607D01*
X631253Y203556D01*
X631351Y203501D01*
X631446Y203443D01*
X631539Y203382D01*
X631630Y203317D01*
X631719Y203249D01*
X631805Y203178D01*
X631888Y203105D01*
X631969Y203028D01*
X632048Y202948D01*
X632123Y202866D01*
X632195Y202781D01*
X632265Y202694D01*
X632331Y202604D01*
X632394Y202512D01*
X632454Y202417D01*
X632510Y202321D01*
X632563Y202223D01*
X632612Y202123D01*
X632658Y202021D01*
X632700Y201918D01*
X632739Y201813D01*
X632774Y201707D01*
X632805Y201600D01*
X632832Y201492D01*
X632856Y201383D01*
X632875Y201273D01*
X632891Y201163D01*
X632903Y201052D01*
X632911Y200940D01*
X632915Y200829D01*
X632915Y200717D01*
X632911Y200606D01*
X632903Y200494D01*
X632891Y200383D01*
X632875Y200273D01*
X632856Y200163D01*
X632832Y200054D01*
X632805Y199946D01*
X632774Y199839D01*
X632739Y199733D01*
X632700Y199628D01*
X632658Y199525D01*
X632612Y199423D01*
X632563Y199323D01*
X632510Y199225D01*
X632454Y199129D01*
X632394Y199034D01*
X632331Y198942D01*
X632265Y198852D01*
X632195Y198765D01*
X632123Y198680D01*
X632048Y198598D01*
X631969Y198518D01*
X631888Y198441D01*
X631805Y198368D01*
X631719Y198297D01*
X631630Y198229D01*
X631539Y198164D01*
X631446Y198103D01*
X631351Y198045D01*
X631253Y197990D01*
X631154Y197939D01*
X631053Y197891D01*
X630951Y197847D01*
X630847Y197807D01*
X630741Y197770D01*
X630635Y197737D01*
X630527Y197708D01*
X630418Y197683D01*
X630309Y197661D01*
X630199Y197643D01*
X630088Y197630D01*
X629977Y197620D01*
X629866Y197614D01*
X629754Y197612D01*
X625690Y197612D01*
X625690Y205740D01*
X625692Y205841D01*
X625698Y205942D01*
X625707Y206043D01*
X625720Y206144D01*
X625737Y206244D01*
X625758Y206343D01*
X625782Y206441D01*
X625810Y206538D01*
X625842Y206635D01*
X625877Y206730D01*
X625916Y206823D01*
X625958Y206915D01*
X626004Y207006D01*
X626053Y207095D01*
X626105Y207181D01*
X626161Y207266D01*
X626219Y207349D01*
X626281Y207429D01*
X626346Y207507D01*
X626413Y207583D01*
X626483Y207656D01*
X626556Y207726D01*
X626632Y207793D01*
X626710Y207858D01*
X626790Y207920D01*
X626873Y207978D01*
X626958Y208034D01*
X627045Y208086D01*
X627133Y208135D01*
X627224Y208181D01*
X627316Y208223D01*
X627409Y208262D01*
X627504Y208297D01*
X627601Y208329D01*
X627698Y208357D01*
X627796Y208381D01*
X627895Y208402D01*
X627995Y208419D01*
X628096Y208432D01*
X628197Y208441D01*
X628298Y208447D01*
X628399Y208449D01*
X632012Y208449D01*
X619295Y208449D02*
X615682Y197612D01*
X612070Y208449D01*
X606303Y208449D02*
X606303Y197612D01*
X606755Y212965D02*
X606755Y213868D01*
X605852Y213868D01*
X605852Y212965D01*
X606755Y212965D01*
X592864Y213868D02*
X592864Y197612D01*
X597380Y197612D01*
X597481Y197614D01*
X597582Y197620D01*
X597683Y197629D01*
X597784Y197642D01*
X597884Y197659D01*
X597983Y197680D01*
X598081Y197704D01*
X598178Y197732D01*
X598275Y197764D01*
X598370Y197799D01*
X598463Y197838D01*
X598555Y197880D01*
X598646Y197926D01*
X598735Y197975D01*
X598821Y198027D01*
X598906Y198083D01*
X598989Y198141D01*
X599069Y198203D01*
X599147Y198268D01*
X599223Y198335D01*
X599296Y198405D01*
X599366Y198478D01*
X599433Y198554D01*
X599498Y198632D01*
X599560Y198712D01*
X599618Y198795D01*
X599674Y198880D01*
X599726Y198966D01*
X599775Y199055D01*
X599821Y199146D01*
X599863Y199238D01*
X599902Y199331D01*
X599937Y199426D01*
X599969Y199523D01*
X599997Y199620D01*
X600021Y199718D01*
X600042Y199817D01*
X600059Y199917D01*
X600072Y200018D01*
X600081Y200119D01*
X600087Y200220D01*
X600089Y200321D01*
X600089Y205740D01*
X600087Y205841D01*
X600081Y205942D01*
X600072Y206043D01*
X600059Y206144D01*
X600042Y206244D01*
X600021Y206343D01*
X599997Y206441D01*
X599969Y206538D01*
X599937Y206635D01*
X599902Y206730D01*
X599863Y206823D01*
X599821Y206915D01*
X599775Y207006D01*
X599726Y207095D01*
X599674Y207181D01*
X599618Y207266D01*
X599560Y207349D01*
X599498Y207429D01*
X599433Y207507D01*
X599366Y207583D01*
X599296Y207656D01*
X599223Y207726D01*
X599147Y207793D01*
X599069Y207858D01*
X598989Y207920D01*
X598906Y207978D01*
X598821Y208034D01*
X598735Y208086D01*
X598646Y208135D01*
X598555Y208181D01*
X598463Y208223D01*
X598370Y208262D01*
X598275Y208297D01*
X598178Y208329D01*
X598081Y208357D01*
X597983Y208381D01*
X597884Y208402D01*
X597784Y208419D01*
X597683Y208432D01*
X597582Y208441D01*
X597481Y208447D01*
X597380Y208449D01*
X592864Y208449D01*
X578375Y197612D02*
X572957Y213868D01*
X567538Y197612D01*
X568893Y201676D02*
X577021Y201676D01*
X561459Y200321D02*
X561459Y208449D01*
X561459Y200321D02*
X561457Y200220D01*
X561451Y200119D01*
X561442Y200018D01*
X561429Y199917D01*
X561412Y199817D01*
X561391Y199718D01*
X561367Y199620D01*
X561339Y199523D01*
X561307Y199426D01*
X561272Y199331D01*
X561233Y199238D01*
X561191Y199146D01*
X561145Y199055D01*
X561096Y198966D01*
X561044Y198880D01*
X560988Y198795D01*
X560930Y198712D01*
X560868Y198632D01*
X560803Y198554D01*
X560736Y198478D01*
X560666Y198405D01*
X560593Y198335D01*
X560517Y198268D01*
X560439Y198203D01*
X560359Y198141D01*
X560276Y198083D01*
X560191Y198027D01*
X560105Y197975D01*
X560016Y197926D01*
X559925Y197880D01*
X559833Y197838D01*
X559740Y197799D01*
X559645Y197764D01*
X559548Y197732D01*
X559451Y197704D01*
X559353Y197680D01*
X559254Y197659D01*
X559154Y197642D01*
X559053Y197629D01*
X558952Y197620D01*
X558851Y197614D01*
X558750Y197612D01*
X554234Y197612D01*
X554234Y208449D01*
X546036Y203934D02*
X541521Y202128D01*
X546037Y203934D02*
X546125Y203971D01*
X546211Y204012D01*
X546296Y204056D01*
X546379Y204104D01*
X546459Y204155D01*
X546538Y204209D01*
X546614Y204267D01*
X546688Y204327D01*
X546760Y204391D01*
X546828Y204457D01*
X546894Y204527D01*
X546957Y204598D01*
X547018Y204673D01*
X547075Y204749D01*
X547128Y204828D01*
X547179Y204909D01*
X547226Y204992D01*
X547270Y205077D01*
X547310Y205164D01*
X547347Y205252D01*
X547380Y205342D01*
X547410Y205433D01*
X547435Y205525D01*
X547457Y205618D01*
X547475Y205712D01*
X547490Y205806D01*
X547500Y205901D01*
X547506Y205997D01*
X547509Y206092D01*
X547508Y206188D01*
X547502Y206283D01*
X547493Y206379D01*
X547480Y206473D01*
X547464Y206567D01*
X547443Y206661D01*
X547418Y206753D01*
X547390Y206844D01*
X547358Y206934D01*
X547323Y207023D01*
X547284Y207110D01*
X547241Y207196D01*
X547195Y207280D01*
X547145Y207361D01*
X547093Y207441D01*
X547037Y207519D01*
X546977Y207594D01*
X546915Y207666D01*
X546850Y207736D01*
X546782Y207804D01*
X546712Y207868D01*
X546639Y207930D01*
X546563Y207988D01*
X546485Y208044D01*
X546405Y208096D01*
X546323Y208145D01*
X546239Y208190D01*
X546153Y208232D01*
X546066Y208271D01*
X545977Y208306D01*
X545886Y208337D01*
X545795Y208364D01*
X545702Y208388D01*
X545609Y208408D01*
X545515Y208424D01*
X545420Y208436D01*
X545325Y208445D01*
X545229Y208449D01*
X545134Y208450D01*
X544887Y208443D01*
X544641Y208431D01*
X544395Y208413D01*
X544149Y208388D01*
X543905Y208358D01*
X543661Y208322D01*
X543418Y208281D01*
X543176Y208233D01*
X542935Y208179D01*
X542696Y208120D01*
X542458Y208055D01*
X542222Y207984D01*
X541987Y207908D01*
X541754Y207826D01*
X541524Y207738D01*
X541296Y207645D01*
X541069Y207547D01*
X541520Y202127D02*
X541432Y202090D01*
X541346Y202049D01*
X541261Y202005D01*
X541178Y201957D01*
X541098Y201906D01*
X541019Y201852D01*
X540943Y201794D01*
X540869Y201734D01*
X540797Y201670D01*
X540729Y201604D01*
X540663Y201534D01*
X540600Y201463D01*
X540539Y201388D01*
X540482Y201312D01*
X540429Y201233D01*
X540378Y201152D01*
X540331Y201069D01*
X540287Y200984D01*
X540247Y200897D01*
X540210Y200809D01*
X540177Y200719D01*
X540147Y200628D01*
X540122Y200536D01*
X540100Y200443D01*
X540082Y200349D01*
X540067Y200255D01*
X540057Y200160D01*
X540051Y200064D01*
X540048Y199969D01*
X540049Y199873D01*
X540055Y199778D01*
X540064Y199682D01*
X540077Y199588D01*
X540093Y199494D01*
X540114Y199400D01*
X540139Y199308D01*
X540167Y199217D01*
X540199Y199127D01*
X540234Y199038D01*
X540273Y198951D01*
X540316Y198865D01*
X540362Y198781D01*
X540412Y198700D01*
X540464Y198620D01*
X540520Y198542D01*
X540580Y198467D01*
X540642Y198395D01*
X540707Y198325D01*
X540775Y198257D01*
X540845Y198193D01*
X540918Y198131D01*
X540994Y198073D01*
X541072Y198017D01*
X541152Y197965D01*
X541234Y197916D01*
X541318Y197871D01*
X541404Y197829D01*
X541491Y197790D01*
X541580Y197755D01*
X541671Y197724D01*
X541762Y197697D01*
X541855Y197673D01*
X541948Y197653D01*
X542042Y197637D01*
X542137Y197625D01*
X542232Y197616D01*
X542328Y197612D01*
X542423Y197611D01*
X542424Y197612D02*
X542786Y197621D01*
X543148Y197639D01*
X543509Y197666D01*
X543869Y197701D01*
X544229Y197744D01*
X544588Y197796D01*
X544945Y197857D01*
X545300Y197926D01*
X545654Y198003D01*
X546006Y198089D01*
X546356Y198183D01*
X546704Y198286D01*
X547049Y198396D01*
X547391Y198515D01*
X535141Y208449D02*
X529723Y208449D01*
X533335Y213868D02*
X533335Y200321D01*
X533333Y200220D01*
X533327Y200119D01*
X533318Y200018D01*
X533305Y199917D01*
X533288Y199817D01*
X533267Y199718D01*
X533243Y199620D01*
X533215Y199523D01*
X533183Y199426D01*
X533148Y199331D01*
X533109Y199238D01*
X533067Y199146D01*
X533021Y199055D01*
X532972Y198966D01*
X532920Y198880D01*
X532864Y198795D01*
X532806Y198712D01*
X532744Y198632D01*
X532679Y198554D01*
X532612Y198478D01*
X532542Y198405D01*
X532469Y198335D01*
X532393Y198268D01*
X532315Y198203D01*
X532235Y198141D01*
X532152Y198083D01*
X532067Y198027D01*
X531981Y197975D01*
X531892Y197926D01*
X531801Y197880D01*
X531709Y197838D01*
X531616Y197799D01*
X531521Y197764D01*
X531424Y197732D01*
X531327Y197704D01*
X531229Y197680D01*
X531130Y197659D01*
X531030Y197642D01*
X530929Y197629D01*
X530828Y197620D01*
X530727Y197614D01*
X530626Y197612D01*
X529723Y197612D01*
X523979Y197612D02*
X523979Y208449D01*
X524431Y212965D02*
X524431Y213868D01*
X523527Y213868D01*
X523527Y212965D01*
X524431Y212965D01*
X517171Y208449D02*
X517171Y197612D01*
X517171Y208449D02*
X512655Y208449D01*
X512551Y208447D01*
X512448Y208441D01*
X512344Y208431D01*
X512241Y208417D01*
X512139Y208399D01*
X512038Y208378D01*
X511937Y208352D01*
X511838Y208323D01*
X511739Y208290D01*
X511642Y208253D01*
X511547Y208212D01*
X511453Y208168D01*
X511361Y208120D01*
X511271Y208069D01*
X511182Y208014D01*
X511096Y207956D01*
X511013Y207894D01*
X510931Y207830D01*
X510853Y207762D01*
X510777Y207692D01*
X510703Y207619D01*
X510633Y207542D01*
X510565Y207464D01*
X510501Y207382D01*
X510439Y207299D01*
X510381Y207213D01*
X510326Y207124D01*
X510275Y207034D01*
X510227Y206942D01*
X510183Y206848D01*
X510142Y206753D01*
X510105Y206656D01*
X510072Y206557D01*
X510043Y206458D01*
X510017Y206357D01*
X509996Y206256D01*
X509978Y206154D01*
X509964Y206051D01*
X509954Y205947D01*
X509948Y205844D01*
X509946Y205740D01*
X509946Y197612D01*
X503642Y197612D02*
X502739Y197612D01*
X503642Y197612D02*
X503642Y198515D01*
X502739Y198515D01*
X502739Y197612D01*
X504094Y194000D01*
X487714Y197612D02*
X487714Y213868D01*
X482296Y204837D01*
X476877Y213868D01*
X476877Y197612D01*
X466668Y203934D02*
X462604Y203934D01*
X466668Y203934D02*
X466780Y203932D01*
X466891Y203926D01*
X467002Y203916D01*
X467113Y203903D01*
X467223Y203885D01*
X467332Y203863D01*
X467441Y203838D01*
X467549Y203809D01*
X467655Y203776D01*
X467761Y203739D01*
X467865Y203699D01*
X467967Y203655D01*
X468068Y203607D01*
X468167Y203556D01*
X468265Y203501D01*
X468360Y203443D01*
X468453Y203382D01*
X468544Y203317D01*
X468633Y203249D01*
X468719Y203178D01*
X468802Y203105D01*
X468883Y203028D01*
X468962Y202948D01*
X469037Y202866D01*
X469109Y202781D01*
X469179Y202694D01*
X469245Y202604D01*
X469308Y202512D01*
X469368Y202417D01*
X469424Y202321D01*
X469477Y202223D01*
X469526Y202123D01*
X469572Y202021D01*
X469614Y201918D01*
X469653Y201813D01*
X469688Y201707D01*
X469719Y201600D01*
X469746Y201492D01*
X469770Y201383D01*
X469789Y201273D01*
X469805Y201163D01*
X469817Y201052D01*
X469825Y200940D01*
X469829Y200829D01*
X469829Y200717D01*
X469825Y200606D01*
X469817Y200494D01*
X469805Y200383D01*
X469789Y200273D01*
X469770Y200163D01*
X469746Y200054D01*
X469719Y199946D01*
X469688Y199839D01*
X469653Y199733D01*
X469614Y199628D01*
X469572Y199525D01*
X469526Y199423D01*
X469477Y199323D01*
X469424Y199225D01*
X469368Y199129D01*
X469308Y199034D01*
X469245Y198942D01*
X469179Y198852D01*
X469109Y198765D01*
X469037Y198680D01*
X468962Y198598D01*
X468883Y198518D01*
X468802Y198441D01*
X468719Y198368D01*
X468633Y198297D01*
X468544Y198229D01*
X468453Y198164D01*
X468360Y198103D01*
X468265Y198045D01*
X468167Y197990D01*
X468068Y197939D01*
X467967Y197891D01*
X467865Y197847D01*
X467761Y197807D01*
X467655Y197770D01*
X467549Y197737D01*
X467441Y197708D01*
X467332Y197683D01*
X467223Y197661D01*
X467113Y197643D01*
X467002Y197630D01*
X466891Y197620D01*
X466780Y197614D01*
X466668Y197612D01*
X462604Y197612D01*
X462604Y205740D01*
X462605Y205740D02*
X462607Y205841D01*
X462613Y205942D01*
X462622Y206043D01*
X462635Y206144D01*
X462652Y206244D01*
X462673Y206343D01*
X462697Y206441D01*
X462725Y206538D01*
X462757Y206635D01*
X462792Y206730D01*
X462831Y206823D01*
X462873Y206915D01*
X462919Y207006D01*
X462968Y207095D01*
X463020Y207181D01*
X463076Y207266D01*
X463134Y207349D01*
X463196Y207429D01*
X463261Y207507D01*
X463328Y207583D01*
X463398Y207656D01*
X463471Y207726D01*
X463547Y207793D01*
X463625Y207858D01*
X463705Y207920D01*
X463788Y207978D01*
X463873Y208034D01*
X463960Y208086D01*
X464048Y208135D01*
X464139Y208181D01*
X464231Y208223D01*
X464324Y208262D01*
X464419Y208297D01*
X464516Y208329D01*
X464613Y208357D01*
X464711Y208381D01*
X464810Y208402D01*
X464910Y208419D01*
X465011Y208432D01*
X465112Y208441D01*
X465213Y208447D01*
X465314Y208449D01*
X468926Y208449D01*
X456985Y208449D02*
X451566Y208449D01*
X455179Y213868D02*
X455179Y200321D01*
X455177Y200220D01*
X455171Y200119D01*
X455162Y200018D01*
X455149Y199917D01*
X455132Y199817D01*
X455111Y199718D01*
X455087Y199620D01*
X455059Y199523D01*
X455027Y199426D01*
X454992Y199331D01*
X454953Y199238D01*
X454911Y199146D01*
X454865Y199055D01*
X454816Y198966D01*
X454764Y198880D01*
X454708Y198795D01*
X454650Y198712D01*
X454588Y198632D01*
X454523Y198554D01*
X454456Y198478D01*
X454386Y198405D01*
X454313Y198335D01*
X454237Y198268D01*
X454159Y198203D01*
X454079Y198141D01*
X453996Y198083D01*
X453911Y198027D01*
X453825Y197975D01*
X453736Y197926D01*
X453645Y197880D01*
X453553Y197838D01*
X453460Y197799D01*
X453365Y197764D01*
X453268Y197732D01*
X453171Y197704D01*
X453073Y197680D01*
X452974Y197659D01*
X452874Y197642D01*
X452773Y197629D01*
X452672Y197620D01*
X452571Y197614D01*
X452470Y197612D01*
X451566Y197612D01*
X447085Y208449D02*
X441667Y208449D01*
X445279Y213868D02*
X445279Y200321D01*
X445277Y200220D01*
X445271Y200119D01*
X445262Y200018D01*
X445249Y199917D01*
X445232Y199817D01*
X445211Y199718D01*
X445187Y199620D01*
X445159Y199523D01*
X445127Y199426D01*
X445092Y199331D01*
X445053Y199238D01*
X445011Y199146D01*
X444965Y199055D01*
X444916Y198966D01*
X444864Y198880D01*
X444808Y198795D01*
X444750Y198712D01*
X444688Y198632D01*
X444623Y198554D01*
X444556Y198478D01*
X444486Y198405D01*
X444413Y198335D01*
X444337Y198268D01*
X444259Y198203D01*
X444179Y198141D01*
X444096Y198083D01*
X444011Y198027D01*
X443925Y197975D01*
X443836Y197926D01*
X443745Y197880D01*
X443653Y197838D01*
X443560Y197799D01*
X443465Y197764D01*
X443368Y197732D01*
X443271Y197704D01*
X443173Y197680D01*
X443074Y197659D01*
X442974Y197642D01*
X442873Y197629D01*
X442772Y197620D01*
X442671Y197614D01*
X442570Y197612D01*
X441667Y197612D01*
X435367Y197612D02*
X435367Y213868D01*
X435367Y208449D02*
X430852Y208449D01*
X430748Y208447D01*
X430645Y208441D01*
X430541Y208431D01*
X430438Y208417D01*
X430336Y208399D01*
X430235Y208378D01*
X430134Y208352D01*
X430035Y208323D01*
X429936Y208290D01*
X429839Y208253D01*
X429744Y208212D01*
X429650Y208168D01*
X429558Y208120D01*
X429468Y208069D01*
X429379Y208014D01*
X429293Y207956D01*
X429210Y207894D01*
X429128Y207830D01*
X429050Y207762D01*
X428974Y207692D01*
X428900Y207619D01*
X428830Y207542D01*
X428762Y207464D01*
X428698Y207382D01*
X428636Y207299D01*
X428578Y207213D01*
X428523Y207124D01*
X428472Y207034D01*
X428424Y206942D01*
X428380Y206848D01*
X428339Y206753D01*
X428302Y206656D01*
X428269Y206557D01*
X428240Y206458D01*
X428214Y206357D01*
X428193Y206256D01*
X428175Y206154D01*
X428161Y206051D01*
X428151Y205947D01*
X428145Y205844D01*
X428143Y205740D01*
X428142Y205740D02*
X428142Y197612D01*
X418590Y197612D02*
X414074Y197612D01*
X418590Y197612D02*
X418691Y197614D01*
X418792Y197620D01*
X418893Y197629D01*
X418994Y197642D01*
X419094Y197659D01*
X419193Y197680D01*
X419291Y197704D01*
X419388Y197732D01*
X419485Y197764D01*
X419580Y197799D01*
X419673Y197838D01*
X419765Y197880D01*
X419856Y197926D01*
X419945Y197975D01*
X420031Y198027D01*
X420116Y198083D01*
X420199Y198141D01*
X420279Y198203D01*
X420357Y198268D01*
X420433Y198335D01*
X420506Y198405D01*
X420576Y198478D01*
X420643Y198554D01*
X420708Y198632D01*
X420770Y198712D01*
X420828Y198795D01*
X420884Y198880D01*
X420936Y198966D01*
X420985Y199055D01*
X421031Y199146D01*
X421073Y199238D01*
X421112Y199331D01*
X421147Y199426D01*
X421179Y199523D01*
X421207Y199620D01*
X421231Y199718D01*
X421252Y199817D01*
X421269Y199917D01*
X421282Y200018D01*
X421291Y200119D01*
X421297Y200220D01*
X421299Y200321D01*
X421299Y204837D01*
X421297Y204956D01*
X421291Y205076D01*
X421281Y205195D01*
X421267Y205313D01*
X421250Y205432D01*
X421228Y205549D01*
X421203Y205666D01*
X421173Y205781D01*
X421140Y205896D01*
X421103Y206010D01*
X421063Y206122D01*
X421018Y206233D01*
X420970Y206342D01*
X420919Y206450D01*
X420864Y206556D01*
X420805Y206660D01*
X420743Y206762D01*
X420678Y206862D01*
X420609Y206960D01*
X420537Y207056D01*
X420462Y207149D01*
X420385Y207239D01*
X420304Y207327D01*
X420220Y207412D01*
X420133Y207494D01*
X420044Y207574D01*
X419952Y207650D01*
X419858Y207724D01*
X419761Y207794D01*
X419663Y207861D01*
X419562Y207925D01*
X419458Y207985D01*
X419353Y208042D01*
X419246Y208095D01*
X419138Y208145D01*
X419028Y208191D01*
X418916Y208233D01*
X418803Y208272D01*
X418689Y208307D01*
X418574Y208338D01*
X418457Y208366D01*
X418340Y208389D01*
X418223Y208409D01*
X418104Y208425D01*
X417985Y208437D01*
X417866Y208445D01*
X417747Y208449D01*
X417627Y208449D01*
X417508Y208445D01*
X417389Y208437D01*
X417270Y208425D01*
X417151Y208409D01*
X417034Y208389D01*
X416917Y208366D01*
X416800Y208338D01*
X416685Y208307D01*
X416571Y208272D01*
X416458Y208233D01*
X416346Y208191D01*
X416236Y208145D01*
X416128Y208095D01*
X416021Y208042D01*
X415916Y207985D01*
X415812Y207925D01*
X415711Y207861D01*
X415613Y207794D01*
X415516Y207724D01*
X415422Y207650D01*
X415330Y207574D01*
X415241Y207494D01*
X415154Y207412D01*
X415070Y207327D01*
X414989Y207239D01*
X414912Y207149D01*
X414837Y207056D01*
X414765Y206960D01*
X414696Y206862D01*
X414631Y206762D01*
X414569Y206660D01*
X414510Y206556D01*
X414455Y206450D01*
X414404Y206342D01*
X414356Y206233D01*
X414311Y206122D01*
X414271Y206010D01*
X414234Y205896D01*
X414201Y205781D01*
X414171Y205666D01*
X414146Y205549D01*
X414124Y205432D01*
X414107Y205313D01*
X414093Y205195D01*
X414083Y205076D01*
X414077Y204956D01*
X414075Y204837D01*
X414074Y204837D02*
X414074Y203031D01*
X421299Y203031D01*
X407995Y208449D02*
X405286Y197612D01*
X402577Y204837D01*
X399867Y197612D01*
X397158Y208449D01*
X382082Y213868D02*
X382082Y197612D01*
X382082Y213868D02*
X377567Y213868D01*
X377436Y213866D01*
X377304Y213860D01*
X377173Y213851D01*
X377043Y213837D01*
X376912Y213820D01*
X376783Y213799D01*
X376654Y213775D01*
X376526Y213746D01*
X376398Y213714D01*
X376272Y213678D01*
X376147Y213639D01*
X376022Y213596D01*
X375900Y213549D01*
X375778Y213499D01*
X375658Y213445D01*
X375540Y213388D01*
X375424Y213327D01*
X375309Y213263D01*
X375196Y213196D01*
X375085Y213125D01*
X374977Y213051D01*
X374870Y212974D01*
X374766Y212894D01*
X374664Y212811D01*
X374565Y212726D01*
X374468Y212637D01*
X374374Y212545D01*
X374282Y212451D01*
X374193Y212354D01*
X374108Y212255D01*
X374025Y212153D01*
X373945Y212049D01*
X373868Y211942D01*
X373794Y211834D01*
X373723Y211723D01*
X373656Y211610D01*
X373592Y211495D01*
X373531Y211379D01*
X373474Y211261D01*
X373420Y211141D01*
X373370Y211019D01*
X373323Y210897D01*
X373280Y210772D01*
X373241Y210647D01*
X373205Y210521D01*
X373173Y210393D01*
X373144Y210265D01*
X373120Y210136D01*
X373099Y210007D01*
X373082Y209876D01*
X373068Y209746D01*
X373059Y209615D01*
X373053Y209483D01*
X373051Y209352D01*
X373051Y202128D01*
X373053Y201997D01*
X373059Y201865D01*
X373068Y201734D01*
X373082Y201604D01*
X373099Y201473D01*
X373120Y201344D01*
X373144Y201215D01*
X373173Y201087D01*
X373205Y200959D01*
X373241Y200833D01*
X373280Y200708D01*
X373323Y200583D01*
X373370Y200461D01*
X373420Y200339D01*
X373474Y200219D01*
X373531Y200101D01*
X373592Y199985D01*
X373656Y199870D01*
X373723Y199757D01*
X373794Y199646D01*
X373868Y199538D01*
X373945Y199431D01*
X374025Y199327D01*
X374108Y199225D01*
X374193Y199126D01*
X374282Y199029D01*
X374374Y198935D01*
X374468Y198843D01*
X374565Y198754D01*
X374664Y198669D01*
X374766Y198586D01*
X374870Y198506D01*
X374977Y198429D01*
X375085Y198355D01*
X375196Y198284D01*
X375309Y198217D01*
X375424Y198153D01*
X375540Y198092D01*
X375658Y198035D01*
X375778Y197981D01*
X375900Y197931D01*
X376022Y197884D01*
X376147Y197841D01*
X376272Y197802D01*
X376398Y197766D01*
X376526Y197734D01*
X376654Y197705D01*
X376783Y197681D01*
X376912Y197660D01*
X377043Y197643D01*
X377173Y197629D01*
X377304Y197620D01*
X377436Y197614D01*
X377567Y197612D01*
X382082Y197612D01*
X365548Y200321D02*
X365548Y208449D01*
X365548Y200321D02*
X365546Y200220D01*
X365540Y200119D01*
X365531Y200018D01*
X365518Y199917D01*
X365501Y199817D01*
X365480Y199718D01*
X365456Y199620D01*
X365428Y199523D01*
X365396Y199426D01*
X365361Y199331D01*
X365322Y199238D01*
X365280Y199146D01*
X365234Y199055D01*
X365185Y198966D01*
X365133Y198880D01*
X365077Y198795D01*
X365019Y198712D01*
X364957Y198632D01*
X364892Y198554D01*
X364825Y198478D01*
X364755Y198405D01*
X364682Y198335D01*
X364606Y198268D01*
X364528Y198203D01*
X364448Y198141D01*
X364365Y198083D01*
X364280Y198027D01*
X364194Y197975D01*
X364105Y197926D01*
X364014Y197880D01*
X363922Y197838D01*
X363829Y197799D01*
X363734Y197764D01*
X363637Y197732D01*
X363540Y197704D01*
X363442Y197680D01*
X363343Y197659D01*
X363243Y197642D01*
X363142Y197629D01*
X363041Y197620D01*
X362940Y197614D01*
X362839Y197612D01*
X358323Y197612D01*
X358323Y208449D01*
X350959Y208449D02*
X350959Y197612D01*
X350959Y208449D02*
X346443Y208449D01*
X346339Y208447D01*
X346236Y208441D01*
X346132Y208431D01*
X346029Y208417D01*
X345927Y208399D01*
X345826Y208378D01*
X345725Y208352D01*
X345626Y208323D01*
X345527Y208290D01*
X345430Y208253D01*
X345335Y208212D01*
X345241Y208168D01*
X345149Y208120D01*
X345059Y208069D01*
X344970Y208014D01*
X344884Y207956D01*
X344801Y207894D01*
X344719Y207830D01*
X344641Y207762D01*
X344565Y207692D01*
X344491Y207619D01*
X344421Y207542D01*
X344353Y207464D01*
X344289Y207382D01*
X344227Y207299D01*
X344169Y207213D01*
X344114Y207124D01*
X344063Y207034D01*
X344015Y206942D01*
X343971Y206848D01*
X343930Y206753D01*
X343893Y206656D01*
X343860Y206557D01*
X343831Y206458D01*
X343805Y206357D01*
X343784Y206256D01*
X343766Y206154D01*
X343752Y206051D01*
X343742Y205947D01*
X343736Y205844D01*
X343734Y205740D01*
X343734Y197612D01*
X334164Y197612D02*
X330551Y197612D01*
X334164Y197612D02*
X334265Y197614D01*
X334366Y197620D01*
X334467Y197629D01*
X334568Y197642D01*
X334668Y197659D01*
X334767Y197680D01*
X334865Y197704D01*
X334962Y197732D01*
X335059Y197764D01*
X335154Y197799D01*
X335247Y197838D01*
X335339Y197880D01*
X335430Y197926D01*
X335519Y197975D01*
X335605Y198027D01*
X335690Y198083D01*
X335773Y198141D01*
X335853Y198203D01*
X335931Y198268D01*
X336007Y198335D01*
X336080Y198405D01*
X336150Y198478D01*
X336217Y198554D01*
X336282Y198632D01*
X336344Y198712D01*
X336402Y198795D01*
X336458Y198880D01*
X336510Y198966D01*
X336559Y199055D01*
X336605Y199146D01*
X336647Y199238D01*
X336686Y199331D01*
X336721Y199426D01*
X336753Y199523D01*
X336781Y199620D01*
X336805Y199718D01*
X336826Y199817D01*
X336843Y199917D01*
X336856Y200018D01*
X336865Y200119D01*
X336871Y200220D01*
X336873Y200321D01*
X336873Y205740D01*
X336871Y205841D01*
X336865Y205942D01*
X336856Y206043D01*
X336843Y206144D01*
X336826Y206244D01*
X336805Y206343D01*
X336781Y206441D01*
X336753Y206538D01*
X336721Y206635D01*
X336686Y206730D01*
X336647Y206823D01*
X336605Y206915D01*
X336559Y207006D01*
X336510Y207095D01*
X336458Y207181D01*
X336402Y207266D01*
X336344Y207349D01*
X336282Y207429D01*
X336217Y207507D01*
X336150Y207583D01*
X336080Y207656D01*
X336007Y207726D01*
X335931Y207793D01*
X335853Y207858D01*
X335773Y207920D01*
X335690Y207978D01*
X335605Y208034D01*
X335519Y208086D01*
X335430Y208135D01*
X335339Y208181D01*
X335247Y208223D01*
X335154Y208262D01*
X335059Y208297D01*
X334962Y208329D01*
X334865Y208357D01*
X334767Y208381D01*
X334668Y208402D01*
X334568Y208419D01*
X334467Y208432D01*
X334366Y208441D01*
X334265Y208447D01*
X334164Y208449D01*
X330551Y208449D01*
X321819Y203934D02*
X317755Y203934D01*
X321819Y203934D02*
X321931Y203932D01*
X322042Y203926D01*
X322153Y203916D01*
X322264Y203903D01*
X322374Y203885D01*
X322483Y203863D01*
X322592Y203838D01*
X322700Y203809D01*
X322806Y203776D01*
X322912Y203739D01*
X323016Y203699D01*
X323118Y203655D01*
X323219Y203607D01*
X323318Y203556D01*
X323416Y203501D01*
X323511Y203443D01*
X323604Y203382D01*
X323695Y203317D01*
X323784Y203249D01*
X323870Y203178D01*
X323953Y203105D01*
X324034Y203028D01*
X324113Y202948D01*
X324188Y202866D01*
X324260Y202781D01*
X324330Y202694D01*
X324396Y202604D01*
X324459Y202512D01*
X324519Y202417D01*
X324575Y202321D01*
X324628Y202223D01*
X324677Y202123D01*
X324723Y202021D01*
X324765Y201918D01*
X324804Y201813D01*
X324839Y201707D01*
X324870Y201600D01*
X324897Y201492D01*
X324921Y201383D01*
X324940Y201273D01*
X324956Y201163D01*
X324968Y201052D01*
X324976Y200940D01*
X324980Y200829D01*
X324980Y200717D01*
X324976Y200606D01*
X324968Y200494D01*
X324956Y200383D01*
X324940Y200273D01*
X324921Y200163D01*
X324897Y200054D01*
X324870Y199946D01*
X324839Y199839D01*
X324804Y199733D01*
X324765Y199628D01*
X324723Y199525D01*
X324677Y199423D01*
X324628Y199323D01*
X324575Y199225D01*
X324519Y199129D01*
X324459Y199034D01*
X324396Y198942D01*
X324330Y198852D01*
X324260Y198765D01*
X324188Y198680D01*
X324113Y198598D01*
X324034Y198518D01*
X323953Y198441D01*
X323870Y198368D01*
X323784Y198297D01*
X323695Y198229D01*
X323604Y198164D01*
X323511Y198103D01*
X323416Y198045D01*
X323318Y197990D01*
X323219Y197939D01*
X323118Y197891D01*
X323016Y197847D01*
X322912Y197807D01*
X322806Y197770D01*
X322700Y197737D01*
X322592Y197708D01*
X322483Y197683D01*
X322374Y197661D01*
X322264Y197643D01*
X322153Y197630D01*
X322042Y197620D01*
X321931Y197614D01*
X321819Y197612D01*
X317755Y197612D01*
X317755Y205740D01*
X317757Y205841D01*
X317763Y205942D01*
X317772Y206043D01*
X317785Y206144D01*
X317802Y206244D01*
X317823Y206343D01*
X317847Y206441D01*
X317875Y206538D01*
X317907Y206635D01*
X317942Y206730D01*
X317981Y206823D01*
X318023Y206915D01*
X318069Y207006D01*
X318118Y207095D01*
X318170Y207181D01*
X318226Y207266D01*
X318284Y207349D01*
X318346Y207429D01*
X318411Y207507D01*
X318478Y207583D01*
X318548Y207656D01*
X318621Y207726D01*
X318697Y207793D01*
X318775Y207858D01*
X318855Y207920D01*
X318938Y207978D01*
X319023Y208034D01*
X319110Y208086D01*
X319198Y208135D01*
X319289Y208181D01*
X319381Y208223D01*
X319474Y208262D01*
X319569Y208297D01*
X319666Y208329D01*
X319763Y208357D01*
X319861Y208381D01*
X319960Y208402D01*
X320060Y208419D01*
X320161Y208432D01*
X320262Y208441D01*
X320363Y208447D01*
X320464Y208449D01*
X324077Y208449D01*
X310318Y208449D02*
X310318Y197612D01*
X310318Y208449D02*
X305802Y208449D01*
X305698Y208447D01*
X305595Y208441D01*
X305491Y208431D01*
X305388Y208417D01*
X305286Y208399D01*
X305185Y208378D01*
X305084Y208352D01*
X304985Y208323D01*
X304886Y208290D01*
X304789Y208253D01*
X304694Y208212D01*
X304600Y208168D01*
X304508Y208120D01*
X304418Y208069D01*
X304329Y208014D01*
X304243Y207956D01*
X304160Y207894D01*
X304078Y207830D01*
X304000Y207762D01*
X303924Y207692D01*
X303850Y207619D01*
X303780Y207542D01*
X303712Y207464D01*
X303648Y207382D01*
X303586Y207299D01*
X303528Y207213D01*
X303473Y207124D01*
X303422Y207034D01*
X303374Y206942D01*
X303330Y206848D01*
X303289Y206753D01*
X303252Y206656D01*
X303219Y206557D01*
X303190Y206458D01*
X303164Y206357D01*
X303143Y206256D01*
X303125Y206154D01*
X303111Y206051D01*
X303101Y205947D01*
X303095Y205844D01*
X303093Y205740D01*
X303093Y197612D01*
X296789Y197612D02*
X295886Y197612D01*
X296789Y197612D02*
X296789Y198515D01*
X295886Y198515D01*
X295886Y197612D01*
X297241Y194000D01*
X280861Y197612D02*
X280861Y213868D01*
X275443Y204837D01*
X270024Y213868D01*
X270024Y197612D01*
X262938Y197612D02*
X262938Y208449D01*
X263389Y212965D02*
X263389Y213868D01*
X262486Y213868D01*
X262486Y212965D01*
X263389Y212965D01*
X253923Y197612D02*
X250311Y197612D01*
X253923Y197612D02*
X254024Y197614D01*
X254125Y197620D01*
X254226Y197629D01*
X254327Y197642D01*
X254427Y197659D01*
X254526Y197680D01*
X254624Y197704D01*
X254721Y197732D01*
X254818Y197764D01*
X254913Y197799D01*
X255006Y197838D01*
X255098Y197880D01*
X255189Y197926D01*
X255278Y197975D01*
X255364Y198027D01*
X255449Y198083D01*
X255532Y198141D01*
X255612Y198203D01*
X255690Y198268D01*
X255766Y198335D01*
X255839Y198405D01*
X255909Y198478D01*
X255976Y198554D01*
X256041Y198632D01*
X256103Y198712D01*
X256161Y198795D01*
X256217Y198880D01*
X256269Y198966D01*
X256318Y199055D01*
X256364Y199146D01*
X256406Y199238D01*
X256445Y199331D01*
X256480Y199426D01*
X256512Y199523D01*
X256540Y199620D01*
X256564Y199718D01*
X256585Y199817D01*
X256602Y199917D01*
X256615Y200018D01*
X256624Y200119D01*
X256630Y200220D01*
X256632Y200321D01*
X256633Y200321D02*
X256633Y205740D01*
X256632Y205740D02*
X256630Y205841D01*
X256624Y205942D01*
X256615Y206043D01*
X256602Y206144D01*
X256585Y206244D01*
X256564Y206343D01*
X256540Y206441D01*
X256512Y206538D01*
X256480Y206635D01*
X256445Y206730D01*
X256406Y206823D01*
X256364Y206915D01*
X256318Y207006D01*
X256269Y207095D01*
X256217Y207181D01*
X256161Y207266D01*
X256103Y207349D01*
X256041Y207429D01*
X255976Y207507D01*
X255909Y207583D01*
X255839Y207656D01*
X255766Y207726D01*
X255690Y207793D01*
X255612Y207858D01*
X255532Y207920D01*
X255449Y207978D01*
X255364Y208034D01*
X255278Y208086D01*
X255189Y208135D01*
X255098Y208181D01*
X255006Y208223D01*
X254913Y208262D01*
X254818Y208297D01*
X254721Y208329D01*
X254624Y208357D01*
X254526Y208381D01*
X254427Y208402D01*
X254327Y208419D01*
X254226Y208432D01*
X254125Y208441D01*
X254024Y208447D01*
X253923Y208449D01*
X250311Y208449D01*
X244145Y213868D02*
X244145Y197612D01*
X244145Y208449D02*
X239630Y208449D01*
X239526Y208447D01*
X239423Y208441D01*
X239319Y208431D01*
X239216Y208417D01*
X239114Y208399D01*
X239013Y208378D01*
X238912Y208352D01*
X238813Y208323D01*
X238714Y208290D01*
X238617Y208253D01*
X238522Y208212D01*
X238428Y208168D01*
X238336Y208120D01*
X238246Y208069D01*
X238157Y208014D01*
X238071Y207956D01*
X237988Y207894D01*
X237906Y207830D01*
X237828Y207762D01*
X237752Y207692D01*
X237678Y207619D01*
X237608Y207542D01*
X237540Y207464D01*
X237476Y207382D01*
X237414Y207299D01*
X237356Y207213D01*
X237301Y207124D01*
X237250Y207034D01*
X237202Y206942D01*
X237158Y206848D01*
X237117Y206753D01*
X237080Y206656D01*
X237047Y206557D01*
X237018Y206458D01*
X236992Y206357D01*
X236971Y206256D01*
X236953Y206154D01*
X236939Y206051D01*
X236929Y205947D01*
X236923Y205844D01*
X236921Y205740D01*
X236920Y205740D02*
X236920Y197612D01*
X226990Y203934D02*
X222926Y203934D01*
X226990Y203934D02*
X227102Y203932D01*
X227213Y203926D01*
X227324Y203916D01*
X227435Y203903D01*
X227545Y203885D01*
X227654Y203863D01*
X227763Y203838D01*
X227871Y203809D01*
X227977Y203776D01*
X228083Y203739D01*
X228187Y203699D01*
X228289Y203655D01*
X228390Y203607D01*
X228489Y203556D01*
X228587Y203501D01*
X228682Y203443D01*
X228775Y203382D01*
X228866Y203317D01*
X228955Y203249D01*
X229041Y203178D01*
X229124Y203105D01*
X229205Y203028D01*
X229284Y202948D01*
X229359Y202866D01*
X229431Y202781D01*
X229501Y202694D01*
X229567Y202604D01*
X229630Y202512D01*
X229690Y202417D01*
X229746Y202321D01*
X229799Y202223D01*
X229848Y202123D01*
X229894Y202021D01*
X229936Y201918D01*
X229975Y201813D01*
X230010Y201707D01*
X230041Y201600D01*
X230068Y201492D01*
X230092Y201383D01*
X230111Y201273D01*
X230127Y201163D01*
X230139Y201052D01*
X230147Y200940D01*
X230151Y200829D01*
X230151Y200717D01*
X230147Y200606D01*
X230139Y200494D01*
X230127Y200383D01*
X230111Y200273D01*
X230092Y200163D01*
X230068Y200054D01*
X230041Y199946D01*
X230010Y199839D01*
X229975Y199733D01*
X229936Y199628D01*
X229894Y199525D01*
X229848Y199423D01*
X229799Y199323D01*
X229746Y199225D01*
X229690Y199129D01*
X229630Y199034D01*
X229567Y198942D01*
X229501Y198852D01*
X229431Y198765D01*
X229359Y198680D01*
X229284Y198598D01*
X229205Y198518D01*
X229124Y198441D01*
X229041Y198368D01*
X228955Y198297D01*
X228866Y198229D01*
X228775Y198164D01*
X228682Y198103D01*
X228587Y198045D01*
X228489Y197990D01*
X228390Y197939D01*
X228289Y197891D01*
X228187Y197847D01*
X228083Y197807D01*
X227977Y197770D01*
X227871Y197737D01*
X227763Y197708D01*
X227654Y197683D01*
X227545Y197661D01*
X227435Y197643D01*
X227324Y197630D01*
X227213Y197620D01*
X227102Y197614D01*
X226990Y197612D01*
X222926Y197612D01*
X222926Y205740D01*
X222928Y205841D01*
X222934Y205942D01*
X222943Y206043D01*
X222956Y206144D01*
X222973Y206244D01*
X222994Y206343D01*
X223018Y206441D01*
X223046Y206538D01*
X223078Y206635D01*
X223113Y206730D01*
X223152Y206823D01*
X223194Y206915D01*
X223240Y207006D01*
X223289Y207095D01*
X223341Y207181D01*
X223397Y207266D01*
X223455Y207349D01*
X223517Y207429D01*
X223582Y207507D01*
X223649Y207583D01*
X223719Y207656D01*
X223792Y207726D01*
X223868Y207793D01*
X223946Y207858D01*
X224026Y207920D01*
X224109Y207978D01*
X224194Y208034D01*
X224281Y208086D01*
X224369Y208135D01*
X224460Y208181D01*
X224552Y208223D01*
X224645Y208262D01*
X224740Y208297D01*
X224837Y208329D01*
X224934Y208357D01*
X225032Y208381D01*
X225131Y208402D01*
X225231Y208419D01*
X225332Y208432D01*
X225433Y208441D01*
X225534Y208447D01*
X225635Y208449D01*
X229247Y208449D01*
X213300Y197612D02*
X208784Y197612D01*
X213300Y197612D02*
X213401Y197614D01*
X213502Y197620D01*
X213603Y197629D01*
X213704Y197642D01*
X213804Y197659D01*
X213903Y197680D01*
X214001Y197704D01*
X214098Y197732D01*
X214195Y197764D01*
X214290Y197799D01*
X214383Y197838D01*
X214475Y197880D01*
X214566Y197926D01*
X214655Y197975D01*
X214741Y198027D01*
X214826Y198083D01*
X214909Y198141D01*
X214989Y198203D01*
X215067Y198268D01*
X215143Y198335D01*
X215216Y198405D01*
X215286Y198478D01*
X215353Y198554D01*
X215418Y198632D01*
X215480Y198712D01*
X215538Y198795D01*
X215594Y198880D01*
X215646Y198966D01*
X215695Y199055D01*
X215741Y199146D01*
X215783Y199238D01*
X215822Y199331D01*
X215857Y199426D01*
X215889Y199523D01*
X215917Y199620D01*
X215941Y199718D01*
X215962Y199817D01*
X215979Y199917D01*
X215992Y200018D01*
X216001Y200119D01*
X216007Y200220D01*
X216009Y200321D01*
X216009Y204837D01*
X216007Y204956D01*
X216001Y205076D01*
X215991Y205195D01*
X215977Y205313D01*
X215960Y205432D01*
X215938Y205549D01*
X215913Y205666D01*
X215883Y205781D01*
X215850Y205896D01*
X215813Y206010D01*
X215773Y206122D01*
X215728Y206233D01*
X215680Y206342D01*
X215629Y206450D01*
X215574Y206556D01*
X215515Y206660D01*
X215453Y206762D01*
X215388Y206862D01*
X215319Y206960D01*
X215247Y207056D01*
X215172Y207149D01*
X215095Y207239D01*
X215014Y207327D01*
X214930Y207412D01*
X214843Y207494D01*
X214754Y207574D01*
X214662Y207650D01*
X214568Y207724D01*
X214471Y207794D01*
X214373Y207861D01*
X214272Y207925D01*
X214168Y207985D01*
X214063Y208042D01*
X213956Y208095D01*
X213848Y208145D01*
X213738Y208191D01*
X213626Y208233D01*
X213513Y208272D01*
X213399Y208307D01*
X213284Y208338D01*
X213167Y208366D01*
X213050Y208389D01*
X212933Y208409D01*
X212814Y208425D01*
X212695Y208437D01*
X212576Y208445D01*
X212457Y208449D01*
X212337Y208449D01*
X212218Y208445D01*
X212099Y208437D01*
X211980Y208425D01*
X211861Y208409D01*
X211744Y208389D01*
X211627Y208366D01*
X211510Y208338D01*
X211395Y208307D01*
X211281Y208272D01*
X211168Y208233D01*
X211056Y208191D01*
X210946Y208145D01*
X210838Y208095D01*
X210731Y208042D01*
X210626Y207985D01*
X210522Y207925D01*
X210421Y207861D01*
X210323Y207794D01*
X210226Y207724D01*
X210132Y207650D01*
X210040Y207574D01*
X209951Y207494D01*
X209864Y207412D01*
X209780Y207327D01*
X209699Y207239D01*
X209622Y207149D01*
X209547Y207056D01*
X209475Y206960D01*
X209406Y206862D01*
X209341Y206762D01*
X209279Y206660D01*
X209220Y206556D01*
X209165Y206450D01*
X209114Y206342D01*
X209066Y206233D01*
X209021Y206122D01*
X208981Y206010D01*
X208944Y205896D01*
X208911Y205781D01*
X208881Y205666D01*
X208856Y205549D01*
X208834Y205432D01*
X208817Y205313D01*
X208803Y205195D01*
X208793Y205076D01*
X208787Y204956D01*
X208785Y204837D01*
X208784Y204837D02*
X208784Y203031D01*
X216009Y203031D01*
X202225Y200321D02*
X202225Y213868D01*
X202225Y200321D02*
X202223Y200220D01*
X202217Y200119D01*
X202208Y200018D01*
X202195Y199917D01*
X202178Y199817D01*
X202157Y199718D01*
X202133Y199620D01*
X202105Y199523D01*
X202073Y199426D01*
X202038Y199331D01*
X201999Y199238D01*
X201957Y199146D01*
X201911Y199055D01*
X201862Y198966D01*
X201810Y198880D01*
X201754Y198795D01*
X201696Y198712D01*
X201634Y198632D01*
X201569Y198554D01*
X201502Y198478D01*
X201432Y198405D01*
X201359Y198335D01*
X201283Y198268D01*
X201205Y198203D01*
X201125Y198141D01*
X201042Y198083D01*
X200957Y198027D01*
X200871Y197975D01*
X200782Y197926D01*
X200691Y197880D01*
X200599Y197838D01*
X200506Y197799D01*
X200411Y197764D01*
X200314Y197732D01*
X200217Y197704D01*
X200119Y197680D01*
X200020Y197659D01*
X199920Y197642D01*
X199819Y197629D01*
X199718Y197620D01*
X199617Y197614D01*
X199516Y197612D01*
X185129Y197612D02*
X185129Y213868D01*
X180613Y213868D01*
X180482Y213866D01*
X180350Y213860D01*
X180219Y213851D01*
X180089Y213837D01*
X179958Y213820D01*
X179829Y213799D01*
X179700Y213775D01*
X179572Y213746D01*
X179444Y213714D01*
X179318Y213678D01*
X179193Y213639D01*
X179068Y213596D01*
X178946Y213549D01*
X178824Y213499D01*
X178704Y213445D01*
X178586Y213388D01*
X178470Y213327D01*
X178355Y213263D01*
X178242Y213196D01*
X178131Y213125D01*
X178023Y213051D01*
X177916Y212974D01*
X177812Y212894D01*
X177710Y212811D01*
X177611Y212726D01*
X177514Y212637D01*
X177420Y212545D01*
X177328Y212451D01*
X177239Y212354D01*
X177154Y212255D01*
X177071Y212153D01*
X176991Y212049D01*
X176914Y211942D01*
X176840Y211834D01*
X176769Y211723D01*
X176702Y211610D01*
X176638Y211495D01*
X176577Y211379D01*
X176520Y211261D01*
X176466Y211141D01*
X176416Y211019D01*
X176369Y210897D01*
X176326Y210772D01*
X176287Y210647D01*
X176251Y210521D01*
X176219Y210393D01*
X176190Y210265D01*
X176166Y210136D01*
X176145Y210007D01*
X176128Y209876D01*
X176114Y209746D01*
X176105Y209615D01*
X176099Y209483D01*
X176097Y209352D01*
X176098Y209352D02*
X176098Y202128D01*
X176097Y202128D02*
X176099Y201997D01*
X176105Y201865D01*
X176114Y201734D01*
X176128Y201604D01*
X176145Y201473D01*
X176166Y201344D01*
X176190Y201215D01*
X176219Y201087D01*
X176251Y200959D01*
X176287Y200833D01*
X176326Y200708D01*
X176369Y200583D01*
X176416Y200461D01*
X176466Y200339D01*
X176520Y200219D01*
X176577Y200101D01*
X176638Y199985D01*
X176702Y199870D01*
X176769Y199757D01*
X176840Y199646D01*
X176914Y199538D01*
X176991Y199431D01*
X177071Y199327D01*
X177154Y199225D01*
X177239Y199126D01*
X177328Y199029D01*
X177420Y198935D01*
X177514Y198843D01*
X177611Y198754D01*
X177710Y198669D01*
X177812Y198586D01*
X177916Y198506D01*
X178023Y198429D01*
X178131Y198355D01*
X178242Y198284D01*
X178355Y198217D01*
X178470Y198153D01*
X178586Y198092D01*
X178704Y198035D01*
X178824Y197981D01*
X178946Y197931D01*
X179068Y197884D01*
X179193Y197841D01*
X179318Y197802D01*
X179444Y197766D01*
X179572Y197734D01*
X179700Y197705D01*
X179829Y197681D01*
X179958Y197660D01*
X180089Y197643D01*
X180219Y197629D01*
X180350Y197620D01*
X180482Y197614D01*
X180613Y197612D01*
X185129Y197612D01*
X168594Y200321D02*
X168594Y208449D01*
X168594Y200321D02*
X168592Y200220D01*
X168586Y200119D01*
X168577Y200018D01*
X168564Y199917D01*
X168547Y199817D01*
X168526Y199718D01*
X168502Y199620D01*
X168474Y199523D01*
X168442Y199426D01*
X168407Y199331D01*
X168368Y199238D01*
X168326Y199146D01*
X168280Y199055D01*
X168231Y198966D01*
X168179Y198880D01*
X168123Y198795D01*
X168065Y198712D01*
X168003Y198632D01*
X167938Y198554D01*
X167871Y198478D01*
X167801Y198405D01*
X167728Y198335D01*
X167652Y198268D01*
X167574Y198203D01*
X167494Y198141D01*
X167411Y198083D01*
X167326Y198027D01*
X167240Y197975D01*
X167151Y197926D01*
X167060Y197880D01*
X166968Y197838D01*
X166875Y197799D01*
X166780Y197764D01*
X166683Y197732D01*
X166586Y197704D01*
X166488Y197680D01*
X166389Y197659D01*
X166289Y197642D01*
X166188Y197629D01*
X166087Y197620D01*
X165986Y197614D01*
X165885Y197612D01*
X161370Y197612D01*
X161370Y208449D01*
X151890Y197612D02*
X147375Y197612D01*
X151890Y197612D02*
X151991Y197614D01*
X152092Y197620D01*
X152193Y197629D01*
X152294Y197642D01*
X152394Y197659D01*
X152493Y197680D01*
X152591Y197704D01*
X152688Y197732D01*
X152785Y197764D01*
X152880Y197799D01*
X152973Y197838D01*
X153065Y197880D01*
X153156Y197926D01*
X153245Y197975D01*
X153331Y198027D01*
X153416Y198083D01*
X153499Y198141D01*
X153579Y198203D01*
X153657Y198268D01*
X153733Y198335D01*
X153806Y198405D01*
X153876Y198478D01*
X153943Y198554D01*
X154008Y198632D01*
X154070Y198712D01*
X154128Y198795D01*
X154184Y198880D01*
X154236Y198966D01*
X154285Y199055D01*
X154331Y199146D01*
X154373Y199238D01*
X154412Y199331D01*
X154447Y199426D01*
X154479Y199523D01*
X154507Y199620D01*
X154531Y199718D01*
X154552Y199817D01*
X154569Y199917D01*
X154582Y200018D01*
X154591Y200119D01*
X154597Y200220D01*
X154599Y200321D01*
X154600Y200321D02*
X154600Y205740D01*
X154599Y205740D02*
X154597Y205841D01*
X154591Y205942D01*
X154582Y206043D01*
X154569Y206144D01*
X154552Y206244D01*
X154531Y206343D01*
X154507Y206441D01*
X154479Y206538D01*
X154447Y206635D01*
X154412Y206730D01*
X154373Y206823D01*
X154331Y206915D01*
X154285Y207006D01*
X154236Y207095D01*
X154184Y207181D01*
X154128Y207266D01*
X154070Y207349D01*
X154008Y207429D01*
X153943Y207507D01*
X153876Y207583D01*
X153806Y207656D01*
X153733Y207726D01*
X153657Y207793D01*
X153579Y207858D01*
X153499Y207920D01*
X153416Y207978D01*
X153331Y208034D01*
X153245Y208086D01*
X153156Y208135D01*
X153065Y208181D01*
X152973Y208223D01*
X152880Y208262D01*
X152785Y208297D01*
X152688Y208329D01*
X152591Y208357D01*
X152493Y208381D01*
X152394Y208402D01*
X152294Y208419D01*
X152193Y208432D01*
X152092Y208441D01*
X151991Y208447D01*
X151890Y208449D01*
X147375Y208449D01*
X147375Y194903D01*
X147377Y194802D01*
X147383Y194701D01*
X147392Y194600D01*
X147405Y194499D01*
X147422Y194399D01*
X147443Y194300D01*
X147467Y194202D01*
X147495Y194105D01*
X147527Y194008D01*
X147562Y193913D01*
X147601Y193820D01*
X147643Y193728D01*
X147689Y193637D01*
X147738Y193549D01*
X147790Y193462D01*
X147846Y193377D01*
X147904Y193294D01*
X147966Y193214D01*
X148031Y193136D01*
X148098Y193060D01*
X148168Y192987D01*
X148241Y192917D01*
X148317Y192850D01*
X148395Y192785D01*
X148475Y192723D01*
X148558Y192665D01*
X148643Y192609D01*
X148730Y192557D01*
X148818Y192508D01*
X148909Y192462D01*
X149001Y192420D01*
X149094Y192381D01*
X149189Y192346D01*
X149286Y192314D01*
X149383Y192286D01*
X149481Y192262D01*
X149580Y192241D01*
X149680Y192224D01*
X149781Y192211D01*
X149882Y192202D01*
X149983Y192196D01*
X150084Y192194D01*
X150084Y192193D02*
X153697Y192193D01*
X137371Y203934D02*
X133307Y203934D01*
X137371Y203934D02*
X137483Y203932D01*
X137594Y203926D01*
X137705Y203916D01*
X137816Y203903D01*
X137926Y203885D01*
X138035Y203863D01*
X138144Y203838D01*
X138252Y203809D01*
X138358Y203776D01*
X138464Y203739D01*
X138568Y203699D01*
X138670Y203655D01*
X138771Y203607D01*
X138870Y203556D01*
X138968Y203501D01*
X139063Y203443D01*
X139156Y203382D01*
X139247Y203317D01*
X139336Y203249D01*
X139422Y203178D01*
X139505Y203105D01*
X139586Y203028D01*
X139665Y202948D01*
X139740Y202866D01*
X139812Y202781D01*
X139882Y202694D01*
X139948Y202604D01*
X140011Y202512D01*
X140071Y202417D01*
X140127Y202321D01*
X140180Y202223D01*
X140229Y202123D01*
X140275Y202021D01*
X140317Y201918D01*
X140356Y201813D01*
X140391Y201707D01*
X140422Y201600D01*
X140449Y201492D01*
X140473Y201383D01*
X140492Y201273D01*
X140508Y201163D01*
X140520Y201052D01*
X140528Y200940D01*
X140532Y200829D01*
X140532Y200717D01*
X140528Y200606D01*
X140520Y200494D01*
X140508Y200383D01*
X140492Y200273D01*
X140473Y200163D01*
X140449Y200054D01*
X140422Y199946D01*
X140391Y199839D01*
X140356Y199733D01*
X140317Y199628D01*
X140275Y199525D01*
X140229Y199423D01*
X140180Y199323D01*
X140127Y199225D01*
X140071Y199129D01*
X140011Y199034D01*
X139948Y198942D01*
X139882Y198852D01*
X139812Y198765D01*
X139740Y198680D01*
X139665Y198598D01*
X139586Y198518D01*
X139505Y198441D01*
X139422Y198368D01*
X139336Y198297D01*
X139247Y198229D01*
X139156Y198164D01*
X139063Y198103D01*
X138968Y198045D01*
X138870Y197990D01*
X138771Y197939D01*
X138670Y197891D01*
X138568Y197847D01*
X138464Y197807D01*
X138358Y197770D01*
X138252Y197737D01*
X138144Y197708D01*
X138035Y197683D01*
X137926Y197661D01*
X137816Y197643D01*
X137705Y197630D01*
X137594Y197620D01*
X137483Y197614D01*
X137371Y197612D01*
X133307Y197612D01*
X133307Y205740D01*
X133309Y205841D01*
X133315Y205942D01*
X133324Y206043D01*
X133337Y206144D01*
X133354Y206244D01*
X133375Y206343D01*
X133399Y206441D01*
X133427Y206538D01*
X133459Y206635D01*
X133494Y206730D01*
X133533Y206823D01*
X133575Y206915D01*
X133621Y207006D01*
X133670Y207095D01*
X133722Y207181D01*
X133778Y207266D01*
X133836Y207349D01*
X133898Y207429D01*
X133963Y207507D01*
X134030Y207583D01*
X134100Y207656D01*
X134173Y207726D01*
X134249Y207793D01*
X134327Y207858D01*
X134407Y207920D01*
X134490Y207978D01*
X134575Y208034D01*
X134662Y208086D01*
X134750Y208135D01*
X134841Y208181D01*
X134933Y208223D01*
X135026Y208262D01*
X135121Y208297D01*
X135218Y208329D01*
X135315Y208357D01*
X135413Y208381D01*
X135512Y208402D01*
X135612Y208419D01*
X135713Y208432D01*
X135814Y208441D01*
X135915Y208447D01*
X136016Y208449D01*
X139628Y208449D01*
X125036Y203934D02*
X120520Y202128D01*
X125036Y203934D02*
X125124Y203971D01*
X125210Y204012D01*
X125295Y204056D01*
X125378Y204104D01*
X125458Y204155D01*
X125537Y204209D01*
X125613Y204267D01*
X125687Y204327D01*
X125759Y204391D01*
X125827Y204457D01*
X125893Y204527D01*
X125956Y204598D01*
X126017Y204673D01*
X126074Y204749D01*
X126127Y204828D01*
X126178Y204909D01*
X126225Y204992D01*
X126269Y205077D01*
X126309Y205164D01*
X126346Y205252D01*
X126379Y205342D01*
X126409Y205433D01*
X126434Y205525D01*
X126456Y205618D01*
X126474Y205712D01*
X126489Y205806D01*
X126499Y205901D01*
X126505Y205997D01*
X126508Y206092D01*
X126507Y206188D01*
X126501Y206283D01*
X126492Y206379D01*
X126479Y206473D01*
X126463Y206567D01*
X126442Y206661D01*
X126417Y206753D01*
X126389Y206844D01*
X126357Y206934D01*
X126322Y207023D01*
X126283Y207110D01*
X126240Y207196D01*
X126194Y207280D01*
X126144Y207361D01*
X126092Y207441D01*
X126036Y207519D01*
X125976Y207594D01*
X125914Y207666D01*
X125849Y207736D01*
X125781Y207804D01*
X125711Y207868D01*
X125638Y207930D01*
X125562Y207988D01*
X125484Y208044D01*
X125404Y208096D01*
X125322Y208145D01*
X125238Y208190D01*
X125152Y208232D01*
X125065Y208271D01*
X124976Y208306D01*
X124885Y208337D01*
X124794Y208364D01*
X124701Y208388D01*
X124608Y208408D01*
X124514Y208424D01*
X124419Y208436D01*
X124324Y208445D01*
X124228Y208449D01*
X124133Y208450D01*
X123886Y208443D01*
X123640Y208431D01*
X123394Y208413D01*
X123148Y208388D01*
X122904Y208358D01*
X122660Y208322D01*
X122417Y208281D01*
X122175Y208233D01*
X121934Y208179D01*
X121695Y208120D01*
X121457Y208055D01*
X121221Y207984D01*
X120986Y207908D01*
X120753Y207826D01*
X120523Y207738D01*
X120295Y207645D01*
X120068Y207547D01*
X120520Y202127D02*
X120432Y202090D01*
X120346Y202049D01*
X120261Y202005D01*
X120178Y201957D01*
X120098Y201906D01*
X120019Y201852D01*
X119943Y201794D01*
X119869Y201734D01*
X119797Y201670D01*
X119729Y201604D01*
X119663Y201534D01*
X119600Y201463D01*
X119539Y201388D01*
X119482Y201312D01*
X119429Y201233D01*
X119378Y201152D01*
X119331Y201069D01*
X119287Y200984D01*
X119247Y200897D01*
X119210Y200809D01*
X119177Y200719D01*
X119147Y200628D01*
X119122Y200536D01*
X119100Y200443D01*
X119082Y200349D01*
X119067Y200255D01*
X119057Y200160D01*
X119051Y200064D01*
X119048Y199969D01*
X119049Y199873D01*
X119055Y199778D01*
X119064Y199682D01*
X119077Y199588D01*
X119093Y199494D01*
X119114Y199400D01*
X119139Y199308D01*
X119167Y199217D01*
X119199Y199127D01*
X119234Y199038D01*
X119273Y198951D01*
X119316Y198865D01*
X119362Y198781D01*
X119412Y198700D01*
X119464Y198620D01*
X119520Y198542D01*
X119580Y198467D01*
X119642Y198395D01*
X119707Y198325D01*
X119775Y198257D01*
X119845Y198193D01*
X119918Y198131D01*
X119994Y198073D01*
X120072Y198017D01*
X120152Y197965D01*
X120234Y197916D01*
X120318Y197871D01*
X120404Y197829D01*
X120491Y197790D01*
X120580Y197755D01*
X120671Y197724D01*
X120762Y197697D01*
X120855Y197673D01*
X120948Y197653D01*
X121042Y197637D01*
X121137Y197625D01*
X121232Y197616D01*
X121328Y197612D01*
X121423Y197611D01*
X121423Y197612D02*
X121785Y197621D01*
X122147Y197639D01*
X122508Y197666D01*
X122868Y197701D01*
X123228Y197744D01*
X123587Y197796D01*
X123944Y197857D01*
X124299Y197926D01*
X124653Y198003D01*
X125005Y198089D01*
X125355Y198183D01*
X125703Y198286D01*
X126048Y198396D01*
X126390Y198515D01*
D11*
X793750Y670370D02*
X806450Y670370D01*
X895350Y78930D02*
X908050Y78930D01*
X590550Y670370D02*
X577850Y670370D01*
X679450Y78930D02*
X692150Y78930D01*
X374650Y670370D02*
X361950Y670370D01*
X463550Y78930D02*
X476250Y78930D01*
X158750Y670370D02*
X146050Y670370D01*
X247650Y78930D02*
X260350Y78930D01*
M02*
