G04 EAGLE Gerber X2 export*
%TF.Part,Single*%
%TF.FileFunction,Other,Bottom Solder Mask*%
%TF.FilePolarity,Positive*%
%TF.GenerationSoftware,Autodesk,EAGLE,8.7.1*%
%TF.CreationDate,2018-04-09T14:30:11Z*%
G75*
%MOMM*%
%FSLAX34Y34*%
%LPD*%
%AMOC8*
5,1,8,0,0,1.08239X$1,22.5*%
G01*
%ADD10C,2.006600*%
%ADD11P,2.171924X8X112.500000*%
%ADD12C,3.327000*%
%ADD13C,1.917700*%
%ADD14P,0.824781X8X22.500000*%


D10*
X704850Y139700D03*
X730250Y139700D03*
X755650Y139700D03*
X781050Y139700D03*
X806450Y139700D03*
X831850Y139700D03*
X857250Y139700D03*
X679450Y139700D03*
X781050Y622300D03*
X806450Y622300D03*
X476250Y139700D03*
X501650Y139700D03*
X527050Y139700D03*
X552450Y139700D03*
X577850Y139700D03*
X603250Y139700D03*
X628650Y139700D03*
X450850Y139700D03*
X425450Y622300D03*
X450850Y622300D03*
X476250Y622300D03*
X501650Y622300D03*
X527050Y622300D03*
X552450Y622300D03*
X577850Y622300D03*
X400050Y622300D03*
X207010Y622300D03*
X232410Y622300D03*
X257810Y622300D03*
X283210Y622300D03*
X308610Y622300D03*
X334010Y622300D03*
X359410Y622300D03*
X181610Y622300D03*
D11*
X882650Y215900D03*
X908050Y241300D03*
D10*
X882650Y190500D03*
X908050Y190500D03*
X882650Y622300D03*
X908050Y622300D03*
X298450Y139700D03*
X323850Y139700D03*
X349250Y139700D03*
X374650Y139700D03*
X400050Y139700D03*
D12*
X95250Y622300D03*
X82550Y139700D03*
X844550Y622300D03*
X908050Y139700D03*
D13*
X918147Y344100D02*
X936054Y344100D01*
X936054Y394100D02*
X918147Y394100D01*
X918147Y444100D02*
X936054Y444100D01*
X936054Y494100D02*
X918147Y494100D01*
X72454Y519500D02*
X54547Y519500D01*
X54547Y469500D02*
X72454Y469500D01*
X72454Y419500D02*
X54547Y419500D01*
X54547Y369500D02*
X72454Y369500D01*
D10*
X800100Y685800D03*
X800100Y711200D03*
X825500Y685800D03*
X825500Y711200D03*
X850900Y685800D03*
X850900Y711200D03*
X876300Y685800D03*
X876300Y711200D03*
X901700Y685800D03*
X901700Y711200D03*
X901700Y63500D03*
X901700Y38100D03*
X876300Y63500D03*
X876300Y38100D03*
X850900Y63500D03*
X850900Y38100D03*
X825500Y63500D03*
X825500Y38100D03*
X800100Y63500D03*
X800100Y38100D03*
X584200Y685800D03*
X584200Y711200D03*
X609600Y685800D03*
X609600Y711200D03*
X635000Y685800D03*
X635000Y711200D03*
X660400Y685800D03*
X660400Y711200D03*
X685800Y685800D03*
X685800Y711200D03*
X685800Y63500D03*
X685800Y38100D03*
X660400Y63500D03*
X660400Y38100D03*
X635000Y63500D03*
X635000Y38100D03*
X609600Y63500D03*
X609600Y38100D03*
X584200Y63500D03*
X584200Y38100D03*
X368300Y685800D03*
X368300Y711200D03*
X393700Y685800D03*
X393700Y711200D03*
X419100Y685800D03*
X419100Y711200D03*
X444500Y685800D03*
X444500Y711200D03*
X469900Y685800D03*
X469900Y711200D03*
X469900Y63500D03*
X469900Y38100D03*
X444500Y63500D03*
X444500Y38100D03*
X419100Y63500D03*
X419100Y38100D03*
X393700Y63500D03*
X393700Y38100D03*
X368300Y63500D03*
X368300Y38100D03*
X152400Y685800D03*
X152400Y711200D03*
X177800Y685800D03*
X177800Y711200D03*
X203200Y685800D03*
X203200Y711200D03*
X228600Y685800D03*
X228600Y711200D03*
X254000Y685800D03*
X254000Y711200D03*
X254000Y63500D03*
X254000Y38100D03*
X228600Y63500D03*
X228600Y38100D03*
X203200Y63500D03*
X203200Y38100D03*
X177800Y63500D03*
X177800Y38100D03*
X152400Y63500D03*
X152400Y38100D03*
D13*
X72454Y304400D02*
X54547Y304400D01*
X54547Y254400D02*
X72454Y254400D01*
D14*
X475488Y493776D03*
X546100Y368300D03*
X596900Y266700D03*
X228600Y419100D03*
X342900Y76200D03*
X596900Y304800D03*
X622300Y317500D03*
X228600Y533400D03*
X228600Y495300D03*
X254000Y419100D03*
X508000Y406400D03*
X863600Y317500D03*
X341376Y556768D03*
X762000Y647700D03*
X825500Y558800D03*
X105664Y319024D03*
X130048Y503936D03*
X449072Y436880D03*
X676656Y262128D03*
X491744Y254000D03*
X686816Y113792D03*
X365760Y601472D03*
X404368Y646176D03*
X550672Y568960D03*
X146304Y302768D03*
X686816Y20320D03*
X178816Y501904D03*
X343408Y38608D03*
X365760Y495808D03*
X146304Y312928D03*
X144272Y459232D03*
X144272Y442976D03*
X361696Y469392D03*
X666496Y479552D03*
X254000Y465328D03*
X270256Y564896D03*
X577088Y564896D03*
X134112Y302768D03*
X134112Y459232D03*
X558800Y406400D03*
X365760Y298704D03*
X412496Y319024D03*
X310896Y436880D03*
X850900Y266700D03*
X812800Y431800D03*
X177800Y406400D03*
X292608Y284480D03*
X177800Y367919D03*
X195072Y453136D03*
X455168Y371856D03*
X420624Y406400D03*
X491744Y284480D03*
X647700Y546100D03*
X685800Y508000D03*
X705104Y213360D03*
X719328Y579120D03*
X278384Y591312D03*
X593344Y587248D03*
X575056Y605536D03*
X361696Y479552D03*
X615696Y95504D03*
X177800Y292100D03*
X673100Y330200D03*
X596900Y393700D03*
X647700Y292100D03*
X647700Y419100D03*
X673100Y457200D03*
X203200Y469900D03*
X444500Y469900D03*
X431800Y330200D03*
X889000Y546100D03*
X190500Y419100D03*
X647700Y444500D03*
X241300Y444500D03*
X482600Y444500D03*
X583184Y335280D03*
X434848Y436880D03*
X647700Y381000D03*
X698500Y380773D03*
M02*
