G04 EAGLE Gerber X2 export*
%TF.Part,Single*%
%TF.FileFunction,Other,Top Solder Mask*%
%TF.FilePolarity,Positive*%
%TF.GenerationSoftware,Autodesk,EAGLE,8.7.1*%
%TF.CreationDate,2018-04-09T14:30:11Z*%
G75*
%MOMM*%
%FSLAX34Y34*%
%LPD*%
%AMOC8*
5,1,8,0,0,1.08239X$1,22.5*%
G01*
%ADD10C,2.006600*%
%ADD11P,2.171924X8X112.500000*%
%ADD12C,3.327000*%
%ADD13C,1.917700*%
%ADD14R,2.527000X1.927000*%
%ADD15R,2.327000X0.627000*%
%ADD16R,0.777000X1.127000*%
%ADD17R,1.327000X0.927000*%
%ADD18P,0.824781X8X22.500000*%


D10*
X704850Y139700D03*
X730250Y139700D03*
X755650Y139700D03*
X781050Y139700D03*
X806450Y139700D03*
X831850Y139700D03*
X857250Y139700D03*
X679450Y139700D03*
X781050Y622300D03*
X806450Y622300D03*
X476250Y139700D03*
X501650Y139700D03*
X527050Y139700D03*
X552450Y139700D03*
X577850Y139700D03*
X603250Y139700D03*
X628650Y139700D03*
X450850Y139700D03*
X425450Y622300D03*
X450850Y622300D03*
X476250Y622300D03*
X501650Y622300D03*
X527050Y622300D03*
X552450Y622300D03*
X577850Y622300D03*
X400050Y622300D03*
X207010Y622300D03*
X232410Y622300D03*
X257810Y622300D03*
X283210Y622300D03*
X308610Y622300D03*
X334010Y622300D03*
X359410Y622300D03*
X181610Y622300D03*
D11*
X882650Y215900D03*
X908050Y241300D03*
D10*
X882650Y190500D03*
X908050Y190500D03*
X882650Y622300D03*
X908050Y622300D03*
X298450Y139700D03*
X323850Y139700D03*
X349250Y139700D03*
X374650Y139700D03*
X400050Y139700D03*
D12*
X95250Y622300D03*
X82550Y139700D03*
X844550Y622300D03*
X908050Y139700D03*
D13*
X918147Y344100D02*
X936054Y344100D01*
X936054Y394100D02*
X918147Y394100D01*
X918147Y444100D02*
X936054Y444100D01*
X936054Y494100D02*
X918147Y494100D01*
X72454Y519500D02*
X54547Y519500D01*
X54547Y469500D02*
X72454Y469500D01*
X72454Y419500D02*
X54547Y419500D01*
X54547Y369500D02*
X72454Y369500D01*
D10*
X800100Y685800D03*
X800100Y711200D03*
X825500Y685800D03*
X825500Y711200D03*
X850900Y685800D03*
X850900Y711200D03*
X876300Y685800D03*
X876300Y711200D03*
X901700Y685800D03*
X901700Y711200D03*
X901700Y63500D03*
X901700Y38100D03*
X876300Y63500D03*
X876300Y38100D03*
X850900Y63500D03*
X850900Y38100D03*
X825500Y63500D03*
X825500Y38100D03*
X800100Y63500D03*
X800100Y38100D03*
X584200Y685800D03*
X584200Y711200D03*
X609600Y685800D03*
X609600Y711200D03*
X635000Y685800D03*
X635000Y711200D03*
X660400Y685800D03*
X660400Y711200D03*
X685800Y685800D03*
X685800Y711200D03*
X685800Y63500D03*
X685800Y38100D03*
X660400Y63500D03*
X660400Y38100D03*
X635000Y63500D03*
X635000Y38100D03*
X609600Y63500D03*
X609600Y38100D03*
X584200Y63500D03*
X584200Y38100D03*
X368300Y685800D03*
X368300Y711200D03*
X393700Y685800D03*
X393700Y711200D03*
X419100Y685800D03*
X419100Y711200D03*
X444500Y685800D03*
X444500Y711200D03*
X469900Y685800D03*
X469900Y711200D03*
X469900Y63500D03*
X469900Y38100D03*
X444500Y63500D03*
X444500Y38100D03*
X419100Y63500D03*
X419100Y38100D03*
X393700Y63500D03*
X393700Y38100D03*
X368300Y63500D03*
X368300Y38100D03*
X152400Y685800D03*
X152400Y711200D03*
X177800Y685800D03*
X177800Y711200D03*
X203200Y685800D03*
X203200Y711200D03*
X228600Y685800D03*
X228600Y711200D03*
X254000Y685800D03*
X254000Y711200D03*
X254000Y63500D03*
X254000Y38100D03*
X228600Y63500D03*
X228600Y38100D03*
X203200Y63500D03*
X203200Y38100D03*
X177800Y63500D03*
X177800Y38100D03*
X152400Y63500D03*
X152400Y38100D03*
D13*
X72454Y304400D02*
X54547Y304400D01*
X54547Y254400D02*
X72454Y254400D01*
D14*
X139700Y286950D03*
X139700Y246450D03*
D15*
X260140Y349250D03*
X260140Y361850D03*
X260140Y374550D03*
X260140Y387250D03*
X197060Y349250D03*
X197060Y361950D03*
X197060Y374650D03*
X197060Y387350D03*
D16*
X323850Y416400D03*
X311150Y416400D03*
X298450Y416400D03*
X285750Y416400D03*
X323850Y396400D03*
X311150Y396400D03*
X298450Y396400D03*
X285750Y396400D03*
X323850Y352900D03*
X311150Y352900D03*
X298450Y352900D03*
X285750Y352900D03*
X323850Y332900D03*
X311150Y332900D03*
X298450Y332900D03*
X285750Y332900D03*
X133350Y332900D03*
X146050Y332900D03*
X158750Y332900D03*
X171450Y332900D03*
X133350Y352900D03*
X146050Y352900D03*
X158750Y352900D03*
X171450Y352900D03*
X133350Y396400D03*
X146050Y396400D03*
X158750Y396400D03*
X171450Y396400D03*
X133350Y416400D03*
X146050Y416400D03*
X158750Y416400D03*
X171450Y416400D03*
D15*
X260140Y488950D03*
X260140Y501550D03*
X260140Y514250D03*
X260140Y526950D03*
X197060Y488950D03*
X197060Y501650D03*
X197060Y514350D03*
X197060Y527050D03*
D16*
X323850Y556100D03*
X311150Y556100D03*
X298450Y556100D03*
X285750Y556100D03*
X323850Y536100D03*
X311150Y536100D03*
X298450Y536100D03*
X285750Y536100D03*
X323850Y492600D03*
X311150Y492600D03*
X298450Y492600D03*
X285750Y492600D03*
X323850Y472600D03*
X311150Y472600D03*
X298450Y472600D03*
X285750Y472600D03*
X133350Y472600D03*
X146050Y472600D03*
X158750Y472600D03*
X171450Y472600D03*
X133350Y492600D03*
X146050Y492600D03*
X158750Y492600D03*
X171450Y492600D03*
X133350Y536100D03*
X146050Y536100D03*
X158750Y536100D03*
X171450Y536100D03*
X133350Y556100D03*
X146050Y556100D03*
X158750Y556100D03*
X171450Y556100D03*
D15*
X501440Y488950D03*
X501440Y501550D03*
X501440Y514250D03*
X501440Y526950D03*
X438360Y488950D03*
X438360Y501650D03*
X438360Y514350D03*
X438360Y527050D03*
D16*
X565150Y556100D03*
X552450Y556100D03*
X539750Y556100D03*
X527050Y556100D03*
X565150Y536100D03*
X552450Y536100D03*
X539750Y536100D03*
X527050Y536100D03*
X565150Y492600D03*
X552450Y492600D03*
X539750Y492600D03*
X527050Y492600D03*
X565150Y472600D03*
X552450Y472600D03*
X539750Y472600D03*
X527050Y472600D03*
X374650Y472600D03*
X387350Y472600D03*
X400050Y472600D03*
X412750Y472600D03*
X374650Y492600D03*
X387350Y492600D03*
X400050Y492600D03*
X412750Y492600D03*
X374650Y536100D03*
X387350Y536100D03*
X400050Y536100D03*
X412750Y536100D03*
X374650Y556100D03*
X387350Y556100D03*
X400050Y556100D03*
X412750Y556100D03*
D15*
X501440Y349250D03*
X501440Y361850D03*
X501440Y374550D03*
X501440Y387250D03*
X438360Y349250D03*
X438360Y361950D03*
X438360Y374650D03*
X438360Y387350D03*
D16*
X565150Y416400D03*
X552450Y416400D03*
X539750Y416400D03*
X527050Y416400D03*
X565150Y396400D03*
X552450Y396400D03*
X539750Y396400D03*
X527050Y396400D03*
X565150Y352900D03*
X552450Y352900D03*
X539750Y352900D03*
X527050Y352900D03*
X565150Y332900D03*
X552450Y332900D03*
X539750Y332900D03*
X527050Y332900D03*
X374650Y332900D03*
X387350Y332900D03*
X400050Y332900D03*
X412750Y332900D03*
X374650Y352900D03*
X387350Y352900D03*
X400050Y352900D03*
X412750Y352900D03*
X374650Y396400D03*
X387350Y396400D03*
X400050Y396400D03*
X412750Y396400D03*
X374650Y416400D03*
X387350Y416400D03*
X400050Y416400D03*
X412750Y416400D03*
D15*
X730040Y488950D03*
X730040Y501550D03*
X730040Y514250D03*
X730040Y526950D03*
X666960Y488950D03*
X666960Y501650D03*
X666960Y514350D03*
X666960Y527050D03*
D16*
X793750Y556100D03*
X781050Y556100D03*
X768350Y556100D03*
X755650Y556100D03*
X793750Y536100D03*
X781050Y536100D03*
X768350Y536100D03*
X755650Y536100D03*
X793750Y492600D03*
X781050Y492600D03*
X768350Y492600D03*
X755650Y492600D03*
X793750Y472600D03*
X781050Y472600D03*
X768350Y472600D03*
X755650Y472600D03*
X603250Y472600D03*
X615950Y472600D03*
X628650Y472600D03*
X641350Y472600D03*
X603250Y492600D03*
X615950Y492600D03*
X628650Y492600D03*
X641350Y492600D03*
X603250Y536100D03*
X615950Y536100D03*
X628650Y536100D03*
X641350Y536100D03*
X603250Y556100D03*
X615950Y556100D03*
X628650Y556100D03*
X641350Y556100D03*
D15*
X730040Y349250D03*
X730040Y361850D03*
X730040Y374550D03*
X730040Y387250D03*
X666960Y349250D03*
X666960Y361950D03*
X666960Y374650D03*
X666960Y387350D03*
D17*
X622300Y384700D03*
X622300Y402700D03*
X622300Y333900D03*
X622300Y351900D03*
D18*
X475488Y493776D03*
X546100Y368300D03*
X596900Y266700D03*
X228600Y419100D03*
X342900Y76200D03*
X596900Y304800D03*
X622300Y317500D03*
X228600Y533400D03*
X228600Y495300D03*
X254000Y419100D03*
X508000Y406400D03*
X863600Y317500D03*
X341376Y556768D03*
X762000Y647700D03*
X825500Y558800D03*
X105664Y319024D03*
X130048Y503936D03*
X449072Y436880D03*
X676656Y262128D03*
X491744Y254000D03*
X686816Y113792D03*
X365760Y601472D03*
X404368Y646176D03*
X550672Y568960D03*
X146304Y302768D03*
X686816Y20320D03*
X178816Y501904D03*
X343408Y38608D03*
X365760Y495808D03*
X146304Y312928D03*
X144272Y459232D03*
X144272Y442976D03*
X361696Y469392D03*
X666496Y479552D03*
X254000Y465328D03*
X270256Y564896D03*
X577088Y564896D03*
X134112Y302768D03*
X134112Y459232D03*
X558800Y406400D03*
X365760Y298704D03*
X412496Y319024D03*
X310896Y436880D03*
X850900Y266700D03*
X812800Y431800D03*
X177800Y406400D03*
X292608Y284480D03*
X177800Y367919D03*
X195072Y453136D03*
X455168Y371856D03*
X420624Y406400D03*
X491744Y284480D03*
X647700Y546100D03*
X685800Y508000D03*
X705104Y213360D03*
X719328Y579120D03*
X278384Y591312D03*
X593344Y587248D03*
X575056Y605536D03*
X361696Y479552D03*
X615696Y95504D03*
X177800Y292100D03*
X673100Y330200D03*
X596900Y393700D03*
X647700Y292100D03*
X647700Y419100D03*
X673100Y457200D03*
X203200Y469900D03*
X444500Y469900D03*
X431800Y330200D03*
X889000Y546100D03*
X190500Y419100D03*
X647700Y444500D03*
X241300Y444500D03*
X482600Y444500D03*
X583184Y335280D03*
X434848Y436880D03*
X647700Y381000D03*
X698500Y380773D03*
M02*
