G04 EAGLE Gerber X2 export*
%TF.Part,Single*%
%TF.FileFunction,Other,Bottom Silkscreen*%
%TF.FilePolarity,Positive*%
%TF.GenerationSoftware,Autodesk,EAGLE,8.7.1*%
%TF.CreationDate,2018-04-05T21:52:21Z*%
G75*
%MOMM*%
%FSLAX34Y34*%
%LPD*%
%AMOC8*
5,1,8,0,0,1.08239X$1,22.5*%
G01*
%ADD10C,0.076200*%
%ADD11C,0.203200*%


D10*
X418719Y190881D02*
X418719Y200119D01*
X416153Y200119D01*
X416055Y200117D01*
X415957Y200111D01*
X415859Y200102D01*
X415761Y200089D01*
X415664Y200072D01*
X415568Y200052D01*
X415473Y200027D01*
X415379Y199999D01*
X415286Y199968D01*
X415194Y199933D01*
X415103Y199894D01*
X415014Y199853D01*
X414927Y199807D01*
X414842Y199759D01*
X414758Y199707D01*
X414677Y199652D01*
X414597Y199594D01*
X414520Y199533D01*
X414446Y199469D01*
X414374Y199402D01*
X414304Y199332D01*
X414237Y199260D01*
X414173Y199186D01*
X414112Y199109D01*
X414054Y199029D01*
X413999Y198948D01*
X413947Y198864D01*
X413899Y198779D01*
X413853Y198692D01*
X413812Y198603D01*
X413773Y198512D01*
X413738Y198420D01*
X413707Y198327D01*
X413679Y198233D01*
X413654Y198138D01*
X413634Y198042D01*
X413617Y197945D01*
X413604Y197847D01*
X413595Y197749D01*
X413589Y197651D01*
X413587Y197553D01*
X413587Y193447D01*
X413589Y193349D01*
X413595Y193251D01*
X413604Y193153D01*
X413617Y193055D01*
X413634Y192958D01*
X413654Y192862D01*
X413679Y192767D01*
X413707Y192673D01*
X413738Y192580D01*
X413773Y192488D01*
X413812Y192397D01*
X413853Y192308D01*
X413899Y192221D01*
X413947Y192136D01*
X413999Y192052D01*
X414054Y191971D01*
X414112Y191891D01*
X414173Y191814D01*
X414237Y191740D01*
X414304Y191668D01*
X414374Y191598D01*
X414446Y191531D01*
X414520Y191467D01*
X414597Y191406D01*
X414677Y191348D01*
X414758Y191293D01*
X414842Y191241D01*
X414927Y191193D01*
X415014Y191147D01*
X415103Y191106D01*
X415194Y191067D01*
X415286Y191032D01*
X415379Y191001D01*
X415473Y190973D01*
X415568Y190948D01*
X415664Y190928D01*
X415761Y190911D01*
X415859Y190898D01*
X415957Y190889D01*
X416055Y190883D01*
X416153Y190881D01*
X418719Y190881D01*
X407966Y190881D02*
X405400Y190881D01*
X407966Y190881D02*
X408042Y190883D01*
X408117Y190888D01*
X408192Y190898D01*
X408266Y190911D01*
X408340Y190927D01*
X408413Y190947D01*
X408485Y190971D01*
X408555Y190998D01*
X408624Y191029D01*
X408692Y191063D01*
X408758Y191100D01*
X408822Y191141D01*
X408883Y191184D01*
X408943Y191231D01*
X409000Y191280D01*
X409055Y191332D01*
X409107Y191387D01*
X409156Y191444D01*
X409203Y191504D01*
X409246Y191565D01*
X409287Y191629D01*
X409324Y191695D01*
X409358Y191763D01*
X409389Y191832D01*
X409416Y191902D01*
X409440Y191974D01*
X409460Y192047D01*
X409476Y192121D01*
X409489Y192195D01*
X409499Y192270D01*
X409504Y192345D01*
X409506Y192421D01*
X409506Y194987D01*
X409504Y195077D01*
X409498Y195166D01*
X409488Y195255D01*
X409475Y195343D01*
X409457Y195431D01*
X409436Y195518D01*
X409411Y195604D01*
X409382Y195689D01*
X409350Y195773D01*
X409314Y195855D01*
X409274Y195935D01*
X409231Y196014D01*
X409184Y196090D01*
X409135Y196165D01*
X409082Y196237D01*
X409026Y196307D01*
X408967Y196374D01*
X408905Y196439D01*
X408840Y196501D01*
X408773Y196560D01*
X408703Y196616D01*
X408631Y196669D01*
X408556Y196718D01*
X408480Y196765D01*
X408401Y196808D01*
X408321Y196848D01*
X408239Y196884D01*
X408155Y196916D01*
X408070Y196945D01*
X407984Y196970D01*
X407897Y196991D01*
X407809Y197009D01*
X407721Y197022D01*
X407632Y197032D01*
X407543Y197038D01*
X407453Y197040D01*
X407363Y197038D01*
X407274Y197032D01*
X407185Y197022D01*
X407097Y197009D01*
X407009Y196991D01*
X406922Y196970D01*
X406836Y196945D01*
X406751Y196916D01*
X406667Y196884D01*
X406585Y196848D01*
X406505Y196808D01*
X406427Y196765D01*
X406350Y196718D01*
X406275Y196669D01*
X406203Y196616D01*
X406133Y196560D01*
X406066Y196501D01*
X406001Y196439D01*
X405939Y196374D01*
X405880Y196307D01*
X405824Y196237D01*
X405771Y196165D01*
X405722Y196090D01*
X405675Y196014D01*
X405632Y195935D01*
X405592Y195855D01*
X405556Y195773D01*
X405524Y195689D01*
X405495Y195604D01*
X405470Y195518D01*
X405449Y195431D01*
X405431Y195343D01*
X405418Y195255D01*
X405408Y195166D01*
X405402Y195077D01*
X405400Y194987D01*
X405400Y193960D01*
X409506Y193960D01*
X400936Y194474D02*
X398370Y193447D01*
X400936Y194473D02*
X401003Y194502D01*
X401068Y194534D01*
X401131Y194570D01*
X401192Y194609D01*
X401250Y194652D01*
X401307Y194697D01*
X401360Y194746D01*
X401411Y194797D01*
X401460Y194851D01*
X401505Y194908D01*
X401547Y194967D01*
X401585Y195028D01*
X401621Y195091D01*
X401653Y195156D01*
X401681Y195223D01*
X401706Y195291D01*
X401726Y195360D01*
X401744Y195431D01*
X401757Y195502D01*
X401766Y195574D01*
X401771Y195646D01*
X401773Y195718D01*
X401770Y195791D01*
X401764Y195863D01*
X401754Y195934D01*
X401740Y196005D01*
X401722Y196076D01*
X401700Y196145D01*
X401674Y196212D01*
X401645Y196279D01*
X401612Y196343D01*
X401576Y196406D01*
X401536Y196467D01*
X401494Y196525D01*
X401448Y196581D01*
X401399Y196634D01*
X401347Y196685D01*
X401292Y196733D01*
X401236Y196778D01*
X401176Y196819D01*
X401115Y196857D01*
X401051Y196892D01*
X400986Y196924D01*
X400919Y196952D01*
X400851Y196976D01*
X400781Y196996D01*
X400711Y197013D01*
X400640Y197025D01*
X400568Y197034D01*
X400495Y197039D01*
X400423Y197040D01*
X400423Y197039D02*
X400274Y197035D01*
X400125Y197028D01*
X399977Y197016D01*
X399829Y197001D01*
X399681Y196981D01*
X399534Y196958D01*
X399387Y196932D01*
X399242Y196901D01*
X399097Y196867D01*
X398953Y196829D01*
X398810Y196788D01*
X398668Y196743D01*
X398527Y196694D01*
X398388Y196641D01*
X398250Y196586D01*
X398113Y196526D01*
X398370Y193448D02*
X398303Y193419D01*
X398238Y193387D01*
X398175Y193351D01*
X398114Y193312D01*
X398056Y193269D01*
X397999Y193224D01*
X397946Y193175D01*
X397895Y193124D01*
X397846Y193070D01*
X397801Y193013D01*
X397759Y192954D01*
X397721Y192893D01*
X397685Y192830D01*
X397653Y192765D01*
X397625Y192698D01*
X397600Y192630D01*
X397580Y192561D01*
X397562Y192490D01*
X397549Y192419D01*
X397540Y192347D01*
X397535Y192275D01*
X397533Y192203D01*
X397536Y192130D01*
X397542Y192058D01*
X397552Y191987D01*
X397566Y191916D01*
X397584Y191845D01*
X397606Y191776D01*
X397632Y191709D01*
X397661Y191642D01*
X397694Y191578D01*
X397730Y191515D01*
X397770Y191454D01*
X397812Y191396D01*
X397858Y191340D01*
X397907Y191287D01*
X397959Y191236D01*
X398014Y191188D01*
X398070Y191143D01*
X398130Y191102D01*
X398191Y191064D01*
X398255Y191029D01*
X398320Y190997D01*
X398387Y190969D01*
X398455Y190945D01*
X398525Y190925D01*
X398595Y190908D01*
X398666Y190896D01*
X398738Y190887D01*
X398811Y190882D01*
X398883Y190881D01*
X398883Y190882D02*
X399089Y190887D01*
X399295Y190898D01*
X399500Y190913D01*
X399705Y190933D01*
X399909Y190957D01*
X400113Y190987D01*
X400316Y191021D01*
X400518Y191061D01*
X400719Y191105D01*
X400919Y191153D01*
X401118Y191207D01*
X401315Y191265D01*
X401511Y191328D01*
X401706Y191395D01*
X393953Y190881D02*
X393953Y197040D01*
X394210Y199606D02*
X394210Y200119D01*
X393696Y200119D01*
X393696Y199606D01*
X394210Y199606D01*
X388811Y190881D02*
X386245Y190881D01*
X388811Y190881D02*
X388887Y190883D01*
X388962Y190888D01*
X389037Y190898D01*
X389111Y190911D01*
X389185Y190927D01*
X389258Y190947D01*
X389330Y190971D01*
X389400Y190998D01*
X389469Y191029D01*
X389537Y191063D01*
X389603Y191100D01*
X389667Y191141D01*
X389728Y191184D01*
X389788Y191231D01*
X389845Y191280D01*
X389900Y191332D01*
X389952Y191387D01*
X390001Y191444D01*
X390048Y191504D01*
X390091Y191565D01*
X390132Y191629D01*
X390169Y191695D01*
X390203Y191763D01*
X390234Y191832D01*
X390261Y191902D01*
X390285Y191974D01*
X390305Y192047D01*
X390321Y192121D01*
X390334Y192195D01*
X390344Y192270D01*
X390349Y192345D01*
X390351Y192421D01*
X390351Y195500D01*
X390349Y195576D01*
X390344Y195651D01*
X390334Y195726D01*
X390321Y195800D01*
X390305Y195874D01*
X390285Y195947D01*
X390261Y196019D01*
X390234Y196089D01*
X390203Y196158D01*
X390169Y196226D01*
X390132Y196292D01*
X390091Y196356D01*
X390048Y196417D01*
X390001Y196477D01*
X389952Y196534D01*
X389900Y196589D01*
X389845Y196641D01*
X389788Y196690D01*
X389728Y196737D01*
X389667Y196780D01*
X389603Y196821D01*
X389537Y196858D01*
X389469Y196892D01*
X389400Y196923D01*
X389330Y196950D01*
X389258Y196974D01*
X389185Y196994D01*
X389111Y197010D01*
X389037Y197023D01*
X388962Y197033D01*
X388887Y197038D01*
X388811Y197040D01*
X386245Y197040D01*
X386245Y189341D01*
X386247Y189265D01*
X386252Y189190D01*
X386262Y189115D01*
X386275Y189041D01*
X386291Y188967D01*
X386311Y188894D01*
X386335Y188822D01*
X386362Y188752D01*
X386393Y188683D01*
X386427Y188615D01*
X386464Y188549D01*
X386505Y188485D01*
X386548Y188424D01*
X386595Y188364D01*
X386644Y188307D01*
X386696Y188252D01*
X386751Y188200D01*
X386808Y188151D01*
X386868Y188104D01*
X386929Y188061D01*
X386993Y188020D01*
X387059Y187983D01*
X387127Y187949D01*
X387196Y187918D01*
X387266Y187891D01*
X387338Y187867D01*
X387411Y187847D01*
X387485Y187831D01*
X387559Y187818D01*
X387634Y187808D01*
X387709Y187803D01*
X387785Y187801D01*
X387785Y187802D02*
X389838Y187802D01*
X381906Y190881D02*
X381906Y197040D01*
X379340Y197040D01*
X379262Y197038D01*
X379184Y197032D01*
X379107Y197022D01*
X379030Y197008D01*
X378954Y196991D01*
X378879Y196969D01*
X378805Y196944D01*
X378733Y196915D01*
X378662Y196883D01*
X378593Y196846D01*
X378525Y196807D01*
X378460Y196764D01*
X378397Y196718D01*
X378337Y196668D01*
X378279Y196616D01*
X378224Y196561D01*
X378172Y196503D01*
X378122Y196443D01*
X378076Y196380D01*
X378033Y196315D01*
X377994Y196247D01*
X377957Y196178D01*
X377925Y196107D01*
X377896Y196035D01*
X377871Y195961D01*
X377849Y195886D01*
X377832Y195810D01*
X377818Y195733D01*
X377808Y195656D01*
X377802Y195578D01*
X377800Y195500D01*
X377800Y190881D01*
X372266Y190881D02*
X369700Y190881D01*
X372266Y190881D02*
X372342Y190883D01*
X372417Y190888D01*
X372492Y190898D01*
X372566Y190911D01*
X372640Y190927D01*
X372713Y190947D01*
X372785Y190971D01*
X372855Y190998D01*
X372924Y191029D01*
X372992Y191063D01*
X373058Y191100D01*
X373122Y191141D01*
X373183Y191184D01*
X373243Y191231D01*
X373300Y191280D01*
X373355Y191332D01*
X373407Y191387D01*
X373456Y191444D01*
X373503Y191504D01*
X373546Y191565D01*
X373587Y191629D01*
X373624Y191695D01*
X373658Y191763D01*
X373689Y191832D01*
X373716Y191902D01*
X373740Y191974D01*
X373760Y192047D01*
X373776Y192121D01*
X373789Y192195D01*
X373799Y192270D01*
X373804Y192345D01*
X373806Y192421D01*
X373806Y194987D01*
X373804Y195077D01*
X373798Y195166D01*
X373788Y195255D01*
X373775Y195343D01*
X373757Y195431D01*
X373736Y195518D01*
X373711Y195604D01*
X373682Y195689D01*
X373650Y195773D01*
X373614Y195855D01*
X373574Y195935D01*
X373531Y196014D01*
X373484Y196090D01*
X373435Y196165D01*
X373382Y196237D01*
X373326Y196307D01*
X373267Y196374D01*
X373205Y196439D01*
X373140Y196501D01*
X373073Y196560D01*
X373003Y196616D01*
X372931Y196669D01*
X372856Y196718D01*
X372780Y196765D01*
X372701Y196808D01*
X372621Y196848D01*
X372539Y196884D01*
X372455Y196916D01*
X372370Y196945D01*
X372284Y196970D01*
X372197Y196991D01*
X372109Y197009D01*
X372021Y197022D01*
X371932Y197032D01*
X371843Y197038D01*
X371753Y197040D01*
X371663Y197038D01*
X371574Y197032D01*
X371485Y197022D01*
X371397Y197009D01*
X371309Y196991D01*
X371222Y196970D01*
X371136Y196945D01*
X371051Y196916D01*
X370967Y196884D01*
X370885Y196848D01*
X370805Y196808D01*
X370727Y196765D01*
X370650Y196718D01*
X370575Y196669D01*
X370503Y196616D01*
X370433Y196560D01*
X370366Y196501D01*
X370301Y196439D01*
X370239Y196374D01*
X370180Y196307D01*
X370124Y196237D01*
X370071Y196165D01*
X370022Y196090D01*
X369975Y196014D01*
X369932Y195935D01*
X369892Y195855D01*
X369856Y195773D01*
X369824Y195689D01*
X369795Y195604D01*
X369770Y195518D01*
X369749Y195431D01*
X369731Y195343D01*
X369718Y195255D01*
X369708Y195166D01*
X369702Y195077D01*
X369700Y194987D01*
X369700Y193960D01*
X373806Y193960D01*
X361945Y190881D02*
X361945Y200119D01*
X361945Y190881D02*
X364511Y190881D01*
X364587Y190883D01*
X364662Y190888D01*
X364737Y190898D01*
X364811Y190911D01*
X364885Y190927D01*
X364958Y190947D01*
X365030Y190971D01*
X365100Y190998D01*
X365169Y191029D01*
X365237Y191063D01*
X365303Y191100D01*
X365367Y191141D01*
X365428Y191184D01*
X365488Y191231D01*
X365545Y191280D01*
X365600Y191332D01*
X365652Y191387D01*
X365701Y191444D01*
X365748Y191504D01*
X365791Y191565D01*
X365832Y191629D01*
X365869Y191695D01*
X365903Y191763D01*
X365934Y191832D01*
X365961Y191902D01*
X365985Y191974D01*
X366005Y192047D01*
X366021Y192121D01*
X366034Y192195D01*
X366044Y192270D01*
X366049Y192345D01*
X366051Y192421D01*
X366051Y195500D01*
X366049Y195576D01*
X366044Y195651D01*
X366034Y195726D01*
X366021Y195800D01*
X366005Y195874D01*
X365985Y195947D01*
X365961Y196019D01*
X365934Y196089D01*
X365903Y196158D01*
X365869Y196226D01*
X365832Y196292D01*
X365791Y196356D01*
X365748Y196417D01*
X365701Y196477D01*
X365652Y196534D01*
X365600Y196589D01*
X365545Y196641D01*
X365488Y196690D01*
X365428Y196737D01*
X365367Y196780D01*
X365303Y196821D01*
X365237Y196858D01*
X365169Y196892D01*
X365100Y196923D01*
X365030Y196950D01*
X364958Y196974D01*
X364885Y196994D01*
X364811Y197010D01*
X364737Y197023D01*
X364662Y197033D01*
X364587Y197038D01*
X364511Y197040D01*
X361945Y197040D01*
X352589Y196013D02*
X350023Y196013D01*
X349924Y196011D01*
X349824Y196005D01*
X349725Y195996D01*
X349627Y195982D01*
X349529Y195965D01*
X349431Y195944D01*
X349335Y195919D01*
X349240Y195890D01*
X349145Y195858D01*
X349053Y195822D01*
X348961Y195783D01*
X348871Y195740D01*
X348783Y195694D01*
X348697Y195644D01*
X348613Y195591D01*
X348531Y195535D01*
X348451Y195475D01*
X348374Y195413D01*
X348299Y195347D01*
X348226Y195279D01*
X348157Y195208D01*
X348090Y195134D01*
X348026Y195058D01*
X347965Y194979D01*
X347907Y194898D01*
X347852Y194815D01*
X347801Y194730D01*
X347753Y194643D01*
X347708Y194554D01*
X347667Y194463D01*
X347629Y194371D01*
X347595Y194278D01*
X347565Y194183D01*
X347538Y194087D01*
X347515Y193990D01*
X347496Y193893D01*
X347481Y193794D01*
X347469Y193695D01*
X347461Y193596D01*
X347457Y193497D01*
X347457Y193397D01*
X347461Y193298D01*
X347469Y193199D01*
X347481Y193100D01*
X347496Y193001D01*
X347515Y192904D01*
X347538Y192807D01*
X347565Y192711D01*
X347595Y192616D01*
X347629Y192523D01*
X347667Y192431D01*
X347708Y192340D01*
X347753Y192251D01*
X347801Y192164D01*
X347852Y192079D01*
X347907Y191996D01*
X347965Y191915D01*
X348026Y191836D01*
X348090Y191760D01*
X348157Y191686D01*
X348226Y191615D01*
X348299Y191547D01*
X348374Y191481D01*
X348451Y191419D01*
X348531Y191359D01*
X348613Y191303D01*
X348697Y191250D01*
X348783Y191200D01*
X348871Y191154D01*
X348961Y191111D01*
X349053Y191072D01*
X349145Y191036D01*
X349240Y191004D01*
X349335Y190975D01*
X349431Y190950D01*
X349529Y190929D01*
X349627Y190912D01*
X349725Y190898D01*
X349824Y190889D01*
X349924Y190883D01*
X350023Y190881D01*
X352589Y190881D01*
X352589Y200119D01*
X350023Y200119D01*
X349933Y200117D01*
X349844Y200111D01*
X349755Y200101D01*
X349667Y200088D01*
X349579Y200070D01*
X349492Y200049D01*
X349406Y200024D01*
X349321Y199995D01*
X349237Y199963D01*
X349155Y199927D01*
X349075Y199887D01*
X348997Y199844D01*
X348920Y199797D01*
X348845Y199748D01*
X348773Y199695D01*
X348703Y199639D01*
X348636Y199580D01*
X348571Y199518D01*
X348509Y199453D01*
X348450Y199386D01*
X348394Y199316D01*
X348341Y199244D01*
X348292Y199169D01*
X348245Y199093D01*
X348202Y199014D01*
X348162Y198934D01*
X348126Y198852D01*
X348094Y198768D01*
X348065Y198683D01*
X348040Y198597D01*
X348019Y198510D01*
X348001Y198422D01*
X347988Y198334D01*
X347978Y198245D01*
X347972Y198156D01*
X347970Y198066D01*
X347972Y197976D01*
X347978Y197887D01*
X347988Y197798D01*
X348001Y197710D01*
X348019Y197622D01*
X348040Y197535D01*
X348065Y197449D01*
X348094Y197364D01*
X348126Y197280D01*
X348162Y197198D01*
X348202Y197118D01*
X348245Y197040D01*
X348292Y196963D01*
X348341Y196888D01*
X348394Y196816D01*
X348450Y196746D01*
X348509Y196679D01*
X348571Y196614D01*
X348636Y196552D01*
X348703Y196493D01*
X348773Y196437D01*
X348845Y196384D01*
X348920Y196335D01*
X348997Y196288D01*
X349075Y196245D01*
X349155Y196205D01*
X349237Y196169D01*
X349321Y196137D01*
X349406Y196108D01*
X349492Y196083D01*
X349579Y196062D01*
X349667Y196044D01*
X349755Y196031D01*
X349844Y196021D01*
X349933Y196015D01*
X350023Y196013D01*
X344406Y187802D02*
X343379Y187802D01*
X340300Y197040D01*
X344406Y197040D02*
X342353Y190881D01*
X336910Y191651D02*
X336910Y192164D01*
X336396Y192164D01*
X336396Y191651D01*
X336910Y191651D01*
X336910Y195757D02*
X336910Y196270D01*
X336396Y196270D01*
X336396Y195757D01*
X336910Y195757D01*
X327519Y200119D02*
X327519Y190881D01*
X327519Y200119D02*
X324953Y200119D01*
X324855Y200117D01*
X324757Y200111D01*
X324659Y200102D01*
X324561Y200089D01*
X324464Y200072D01*
X324368Y200052D01*
X324273Y200027D01*
X324179Y199999D01*
X324086Y199968D01*
X323994Y199933D01*
X323903Y199894D01*
X323814Y199853D01*
X323727Y199807D01*
X323642Y199759D01*
X323558Y199707D01*
X323477Y199652D01*
X323397Y199594D01*
X323320Y199533D01*
X323246Y199469D01*
X323174Y199402D01*
X323104Y199332D01*
X323037Y199260D01*
X322973Y199186D01*
X322912Y199109D01*
X322854Y199029D01*
X322799Y198948D01*
X322747Y198864D01*
X322699Y198779D01*
X322653Y198692D01*
X322612Y198603D01*
X322573Y198512D01*
X322538Y198420D01*
X322507Y198327D01*
X322479Y198233D01*
X322454Y198138D01*
X322434Y198042D01*
X322417Y197945D01*
X322404Y197847D01*
X322395Y197749D01*
X322389Y197651D01*
X322387Y197553D01*
X322387Y193447D01*
X322389Y193349D01*
X322395Y193251D01*
X322404Y193153D01*
X322417Y193055D01*
X322434Y192958D01*
X322454Y192862D01*
X322479Y192767D01*
X322507Y192673D01*
X322538Y192580D01*
X322573Y192488D01*
X322612Y192397D01*
X322653Y192308D01*
X322699Y192221D01*
X322747Y192136D01*
X322799Y192052D01*
X322854Y191971D01*
X322912Y191891D01*
X322973Y191814D01*
X323037Y191740D01*
X323104Y191668D01*
X323174Y191598D01*
X323246Y191531D01*
X323320Y191467D01*
X323397Y191406D01*
X323477Y191348D01*
X323558Y191293D01*
X323642Y191241D01*
X323727Y191193D01*
X323814Y191147D01*
X323903Y191106D01*
X323994Y191067D01*
X324086Y191032D01*
X324179Y191001D01*
X324273Y190973D01*
X324368Y190948D01*
X324464Y190928D01*
X324561Y190911D01*
X324659Y190898D01*
X324757Y190889D01*
X324855Y190883D01*
X324953Y190881D01*
X327519Y190881D01*
X316555Y194474D02*
X314246Y194474D01*
X316555Y194473D02*
X316638Y194471D01*
X316721Y194465D01*
X316803Y194456D01*
X316885Y194442D01*
X316966Y194425D01*
X317046Y194404D01*
X317126Y194380D01*
X317204Y194352D01*
X317280Y194320D01*
X317356Y194285D01*
X317429Y194246D01*
X317500Y194204D01*
X317570Y194159D01*
X317637Y194110D01*
X317702Y194059D01*
X317765Y194004D01*
X317825Y193947D01*
X317882Y193887D01*
X317937Y193824D01*
X317988Y193759D01*
X318037Y193692D01*
X318082Y193622D01*
X318124Y193551D01*
X318163Y193478D01*
X318198Y193402D01*
X318230Y193326D01*
X318258Y193248D01*
X318282Y193168D01*
X318303Y193088D01*
X318320Y193007D01*
X318334Y192925D01*
X318343Y192843D01*
X318349Y192760D01*
X318351Y192677D01*
X318349Y192594D01*
X318343Y192511D01*
X318334Y192429D01*
X318320Y192347D01*
X318303Y192266D01*
X318282Y192186D01*
X318258Y192106D01*
X318230Y192028D01*
X318198Y191952D01*
X318163Y191876D01*
X318124Y191803D01*
X318082Y191732D01*
X318037Y191662D01*
X317988Y191595D01*
X317937Y191530D01*
X317882Y191467D01*
X317825Y191407D01*
X317765Y191350D01*
X317702Y191295D01*
X317637Y191244D01*
X317570Y191195D01*
X317500Y191150D01*
X317429Y191108D01*
X317356Y191069D01*
X317280Y191034D01*
X317204Y191002D01*
X317126Y190974D01*
X317046Y190950D01*
X316966Y190929D01*
X316885Y190912D01*
X316803Y190898D01*
X316721Y190889D01*
X316638Y190883D01*
X316555Y190881D01*
X314246Y190881D01*
X314246Y195500D01*
X314245Y195500D02*
X314247Y195576D01*
X314252Y195651D01*
X314262Y195726D01*
X314275Y195800D01*
X314291Y195874D01*
X314311Y195947D01*
X314335Y196019D01*
X314362Y196089D01*
X314393Y196158D01*
X314427Y196226D01*
X314464Y196292D01*
X314505Y196356D01*
X314548Y196417D01*
X314595Y196477D01*
X314644Y196534D01*
X314696Y196589D01*
X314751Y196641D01*
X314808Y196690D01*
X314868Y196737D01*
X314929Y196780D01*
X314993Y196821D01*
X315059Y196858D01*
X315127Y196892D01*
X315196Y196923D01*
X315266Y196950D01*
X315338Y196974D01*
X315411Y196994D01*
X315485Y197010D01*
X315559Y197023D01*
X315634Y197033D01*
X315709Y197038D01*
X315785Y197040D01*
X317838Y197040D01*
X310506Y197040D02*
X308453Y190881D01*
X306400Y197040D01*
X303053Y197040D02*
X303053Y190881D01*
X303310Y199606D02*
X303310Y200119D01*
X302797Y200119D01*
X302797Y199606D01*
X303310Y199606D01*
X295346Y200119D02*
X295346Y190881D01*
X297912Y190881D01*
X297988Y190883D01*
X298063Y190888D01*
X298138Y190898D01*
X298212Y190911D01*
X298286Y190927D01*
X298359Y190947D01*
X298431Y190971D01*
X298501Y190998D01*
X298570Y191029D01*
X298638Y191063D01*
X298704Y191100D01*
X298768Y191141D01*
X298829Y191184D01*
X298889Y191231D01*
X298946Y191280D01*
X299001Y191332D01*
X299053Y191387D01*
X299102Y191444D01*
X299149Y191504D01*
X299192Y191565D01*
X299233Y191629D01*
X299270Y191695D01*
X299304Y191763D01*
X299335Y191832D01*
X299362Y191902D01*
X299386Y191974D01*
X299406Y192047D01*
X299422Y192121D01*
X299435Y192195D01*
X299445Y192270D01*
X299450Y192345D01*
X299452Y192421D01*
X299451Y192421D02*
X299451Y195500D01*
X299452Y195500D02*
X299450Y195576D01*
X299445Y195651D01*
X299435Y195726D01*
X299422Y195800D01*
X299406Y195874D01*
X299386Y195947D01*
X299362Y196019D01*
X299335Y196089D01*
X299304Y196158D01*
X299270Y196226D01*
X299233Y196292D01*
X299192Y196356D01*
X299149Y196417D01*
X299102Y196477D01*
X299053Y196534D01*
X299001Y196589D01*
X298946Y196641D01*
X298889Y196690D01*
X298829Y196737D01*
X298768Y196780D01*
X298704Y196821D01*
X298638Y196858D01*
X298570Y196892D01*
X298501Y196923D01*
X298431Y196950D01*
X298359Y196974D01*
X298286Y196994D01*
X298212Y197010D01*
X298138Y197023D01*
X298063Y197033D01*
X297988Y197038D01*
X297912Y197040D01*
X295346Y197040D01*
X286933Y190881D02*
X283853Y200119D01*
X280774Y190881D01*
X281544Y193191D02*
X286163Y193191D01*
X277206Y192421D02*
X277206Y197040D01*
X277206Y192421D02*
X277204Y192343D01*
X277198Y192265D01*
X277188Y192188D01*
X277174Y192111D01*
X277157Y192035D01*
X277135Y191960D01*
X277110Y191886D01*
X277081Y191814D01*
X277049Y191743D01*
X277012Y191674D01*
X276973Y191606D01*
X276930Y191541D01*
X276884Y191478D01*
X276834Y191418D01*
X276782Y191360D01*
X276727Y191305D01*
X276669Y191253D01*
X276609Y191203D01*
X276546Y191157D01*
X276481Y191114D01*
X276413Y191075D01*
X276344Y191038D01*
X276273Y191006D01*
X276201Y190977D01*
X276127Y190952D01*
X276052Y190930D01*
X275976Y190913D01*
X275899Y190899D01*
X275822Y190889D01*
X275744Y190883D01*
X275666Y190881D01*
X273100Y190881D01*
X273100Y197040D01*
X268336Y194474D02*
X265770Y193447D01*
X268336Y194473D02*
X268403Y194502D01*
X268468Y194534D01*
X268531Y194570D01*
X268592Y194609D01*
X268650Y194652D01*
X268707Y194697D01*
X268760Y194746D01*
X268811Y194797D01*
X268860Y194851D01*
X268905Y194908D01*
X268947Y194967D01*
X268985Y195028D01*
X269021Y195091D01*
X269053Y195156D01*
X269081Y195223D01*
X269106Y195291D01*
X269126Y195360D01*
X269144Y195431D01*
X269157Y195502D01*
X269166Y195574D01*
X269171Y195646D01*
X269173Y195718D01*
X269170Y195791D01*
X269164Y195863D01*
X269154Y195934D01*
X269140Y196005D01*
X269122Y196076D01*
X269100Y196145D01*
X269074Y196212D01*
X269045Y196279D01*
X269012Y196343D01*
X268976Y196406D01*
X268936Y196467D01*
X268894Y196525D01*
X268848Y196581D01*
X268799Y196634D01*
X268747Y196685D01*
X268692Y196733D01*
X268636Y196778D01*
X268576Y196819D01*
X268515Y196857D01*
X268451Y196892D01*
X268386Y196924D01*
X268319Y196952D01*
X268251Y196976D01*
X268181Y196996D01*
X268111Y197013D01*
X268040Y197025D01*
X267968Y197034D01*
X267895Y197039D01*
X267823Y197040D01*
X267823Y197039D02*
X267674Y197035D01*
X267525Y197028D01*
X267377Y197016D01*
X267229Y197001D01*
X267081Y196981D01*
X266934Y196958D01*
X266787Y196932D01*
X266642Y196901D01*
X266497Y196867D01*
X266353Y196829D01*
X266210Y196788D01*
X266068Y196743D01*
X265927Y196694D01*
X265788Y196641D01*
X265650Y196586D01*
X265513Y196526D01*
X265770Y193448D02*
X265703Y193419D01*
X265638Y193387D01*
X265575Y193351D01*
X265514Y193312D01*
X265456Y193269D01*
X265399Y193224D01*
X265346Y193175D01*
X265295Y193124D01*
X265246Y193070D01*
X265201Y193013D01*
X265159Y192954D01*
X265121Y192893D01*
X265085Y192830D01*
X265053Y192765D01*
X265025Y192698D01*
X265000Y192630D01*
X264980Y192561D01*
X264962Y192490D01*
X264949Y192419D01*
X264940Y192347D01*
X264935Y192275D01*
X264933Y192203D01*
X264936Y192130D01*
X264942Y192058D01*
X264952Y191987D01*
X264966Y191916D01*
X264984Y191845D01*
X265006Y191776D01*
X265032Y191709D01*
X265061Y191642D01*
X265094Y191578D01*
X265130Y191515D01*
X265170Y191454D01*
X265212Y191396D01*
X265258Y191340D01*
X265307Y191287D01*
X265359Y191236D01*
X265414Y191188D01*
X265470Y191143D01*
X265530Y191102D01*
X265591Y191064D01*
X265655Y191029D01*
X265720Y190997D01*
X265787Y190969D01*
X265855Y190945D01*
X265925Y190925D01*
X265995Y190908D01*
X266066Y190896D01*
X266138Y190887D01*
X266211Y190882D01*
X266283Y190881D01*
X266283Y190882D02*
X266489Y190887D01*
X266695Y190898D01*
X266900Y190913D01*
X267105Y190933D01*
X267309Y190957D01*
X267513Y190987D01*
X267716Y191021D01*
X267918Y191061D01*
X268119Y191105D01*
X268319Y191153D01*
X268518Y191207D01*
X268715Y191265D01*
X268911Y191328D01*
X269106Y191395D01*
X262064Y197040D02*
X258985Y197040D01*
X261037Y200119D02*
X261037Y192421D01*
X261038Y192421D02*
X261036Y192343D01*
X261030Y192265D01*
X261020Y192188D01*
X261006Y192111D01*
X260989Y192035D01*
X260967Y191960D01*
X260942Y191886D01*
X260913Y191814D01*
X260881Y191743D01*
X260844Y191674D01*
X260805Y191606D01*
X260762Y191541D01*
X260716Y191478D01*
X260666Y191418D01*
X260614Y191360D01*
X260559Y191305D01*
X260501Y191253D01*
X260441Y191203D01*
X260378Y191157D01*
X260313Y191114D01*
X260245Y191075D01*
X260176Y191038D01*
X260105Y191006D01*
X260033Y190977D01*
X259959Y190952D01*
X259884Y190930D01*
X259808Y190913D01*
X259731Y190899D01*
X259654Y190889D01*
X259576Y190883D01*
X259498Y190881D01*
X258985Y190881D01*
X255653Y190881D02*
X255653Y197040D01*
X255910Y199606D02*
X255910Y200119D01*
X255397Y200119D01*
X255397Y199606D01*
X255910Y199606D01*
X251706Y197040D02*
X251706Y190881D01*
X251706Y197040D02*
X249140Y197040D01*
X249062Y197038D01*
X248984Y197032D01*
X248907Y197022D01*
X248830Y197008D01*
X248754Y196991D01*
X248679Y196969D01*
X248605Y196944D01*
X248533Y196915D01*
X248462Y196883D01*
X248393Y196846D01*
X248325Y196807D01*
X248260Y196764D01*
X248197Y196718D01*
X248137Y196668D01*
X248079Y196616D01*
X248024Y196561D01*
X247972Y196503D01*
X247922Y196443D01*
X247876Y196380D01*
X247833Y196315D01*
X247794Y196247D01*
X247757Y196178D01*
X247725Y196107D01*
X247696Y196035D01*
X247671Y195961D01*
X247649Y195886D01*
X247632Y195810D01*
X247618Y195733D01*
X247608Y195656D01*
X247602Y195578D01*
X247600Y195500D01*
X247600Y190881D01*
X243943Y190881D02*
X243430Y190881D01*
X243943Y190881D02*
X243943Y191394D01*
X243430Y191394D01*
X243430Y190881D01*
X244200Y188828D01*
X234733Y190881D02*
X234733Y200119D01*
X231653Y194987D01*
X228574Y200119D01*
X228574Y190881D01*
X222655Y194474D02*
X220346Y194474D01*
X222655Y194473D02*
X222738Y194471D01*
X222821Y194465D01*
X222903Y194456D01*
X222985Y194442D01*
X223066Y194425D01*
X223146Y194404D01*
X223226Y194380D01*
X223304Y194352D01*
X223380Y194320D01*
X223456Y194285D01*
X223529Y194246D01*
X223600Y194204D01*
X223670Y194159D01*
X223737Y194110D01*
X223802Y194059D01*
X223865Y194004D01*
X223925Y193947D01*
X223982Y193887D01*
X224037Y193824D01*
X224088Y193759D01*
X224137Y193692D01*
X224182Y193622D01*
X224224Y193551D01*
X224263Y193478D01*
X224298Y193402D01*
X224330Y193326D01*
X224358Y193248D01*
X224382Y193168D01*
X224403Y193088D01*
X224420Y193007D01*
X224434Y192925D01*
X224443Y192843D01*
X224449Y192760D01*
X224451Y192677D01*
X224449Y192594D01*
X224443Y192511D01*
X224434Y192429D01*
X224420Y192347D01*
X224403Y192266D01*
X224382Y192186D01*
X224358Y192106D01*
X224330Y192028D01*
X224298Y191952D01*
X224263Y191876D01*
X224224Y191803D01*
X224182Y191732D01*
X224137Y191662D01*
X224088Y191595D01*
X224037Y191530D01*
X223982Y191467D01*
X223925Y191407D01*
X223865Y191350D01*
X223802Y191295D01*
X223737Y191244D01*
X223670Y191195D01*
X223600Y191150D01*
X223529Y191108D01*
X223456Y191069D01*
X223380Y191034D01*
X223304Y191002D01*
X223226Y190974D01*
X223146Y190950D01*
X223066Y190929D01*
X222985Y190912D01*
X222903Y190898D01*
X222821Y190889D01*
X222738Y190883D01*
X222655Y190881D01*
X220346Y190881D01*
X220346Y195500D01*
X220345Y195500D02*
X220347Y195576D01*
X220352Y195651D01*
X220362Y195726D01*
X220375Y195800D01*
X220391Y195874D01*
X220411Y195947D01*
X220435Y196019D01*
X220462Y196089D01*
X220493Y196158D01*
X220527Y196226D01*
X220564Y196292D01*
X220605Y196356D01*
X220648Y196417D01*
X220695Y196477D01*
X220744Y196534D01*
X220796Y196589D01*
X220851Y196641D01*
X220908Y196690D01*
X220968Y196737D01*
X221029Y196780D01*
X221093Y196821D01*
X221159Y196858D01*
X221227Y196892D01*
X221296Y196923D01*
X221366Y196950D01*
X221438Y196974D01*
X221511Y196994D01*
X221585Y197010D01*
X221659Y197023D01*
X221734Y197033D01*
X221809Y197038D01*
X221885Y197040D01*
X223938Y197040D01*
X217064Y197040D02*
X213985Y197040D01*
X216038Y200119D02*
X216038Y192421D01*
X216036Y192343D01*
X216030Y192265D01*
X216020Y192188D01*
X216006Y192111D01*
X215989Y192035D01*
X215967Y191960D01*
X215942Y191886D01*
X215913Y191814D01*
X215881Y191743D01*
X215844Y191674D01*
X215805Y191606D01*
X215762Y191541D01*
X215716Y191478D01*
X215666Y191418D01*
X215614Y191360D01*
X215559Y191305D01*
X215501Y191253D01*
X215441Y191203D01*
X215378Y191157D01*
X215313Y191114D01*
X215245Y191075D01*
X215176Y191038D01*
X215105Y191006D01*
X215033Y190977D01*
X214959Y190952D01*
X214884Y190930D01*
X214808Y190913D01*
X214731Y190899D01*
X214654Y190889D01*
X214576Y190883D01*
X214498Y190881D01*
X213985Y190881D01*
X211364Y197040D02*
X208285Y197040D01*
X210338Y200119D02*
X210338Y192421D01*
X210336Y192343D01*
X210330Y192265D01*
X210320Y192188D01*
X210306Y192111D01*
X210289Y192035D01*
X210267Y191960D01*
X210242Y191886D01*
X210213Y191814D01*
X210181Y191743D01*
X210144Y191674D01*
X210105Y191606D01*
X210062Y191541D01*
X210016Y191478D01*
X209966Y191418D01*
X209914Y191360D01*
X209859Y191305D01*
X209801Y191253D01*
X209741Y191203D01*
X209678Y191157D01*
X209613Y191114D01*
X209545Y191075D01*
X209476Y191038D01*
X209405Y191006D01*
X209333Y190977D01*
X209259Y190952D01*
X209184Y190930D01*
X209108Y190913D01*
X209031Y190899D01*
X208954Y190889D01*
X208876Y190883D01*
X208798Y190881D01*
X208285Y190881D01*
X204606Y190881D02*
X204606Y200119D01*
X204606Y197040D02*
X202040Y197040D01*
X201962Y197038D01*
X201884Y197032D01*
X201807Y197022D01*
X201730Y197008D01*
X201654Y196991D01*
X201579Y196969D01*
X201505Y196944D01*
X201433Y196915D01*
X201362Y196883D01*
X201293Y196846D01*
X201225Y196807D01*
X201160Y196764D01*
X201097Y196718D01*
X201037Y196668D01*
X200979Y196616D01*
X200924Y196561D01*
X200872Y196503D01*
X200822Y196443D01*
X200776Y196380D01*
X200733Y196315D01*
X200694Y196247D01*
X200657Y196178D01*
X200625Y196107D01*
X200596Y196035D01*
X200571Y195961D01*
X200549Y195886D01*
X200532Y195810D01*
X200518Y195733D01*
X200508Y195656D01*
X200502Y195578D01*
X200500Y195500D01*
X200501Y195500D02*
X200501Y190881D01*
X194967Y190881D02*
X192401Y190881D01*
X194967Y190881D02*
X195043Y190883D01*
X195118Y190888D01*
X195193Y190898D01*
X195267Y190911D01*
X195341Y190927D01*
X195414Y190947D01*
X195486Y190971D01*
X195556Y190998D01*
X195625Y191029D01*
X195693Y191063D01*
X195759Y191100D01*
X195823Y191141D01*
X195884Y191184D01*
X195944Y191231D01*
X196001Y191280D01*
X196056Y191332D01*
X196108Y191387D01*
X196157Y191444D01*
X196204Y191504D01*
X196247Y191565D01*
X196288Y191629D01*
X196325Y191695D01*
X196359Y191763D01*
X196390Y191832D01*
X196417Y191902D01*
X196441Y191974D01*
X196461Y192047D01*
X196477Y192121D01*
X196490Y192195D01*
X196500Y192270D01*
X196505Y192345D01*
X196507Y192421D01*
X196506Y192421D02*
X196506Y194987D01*
X196504Y195077D01*
X196498Y195166D01*
X196488Y195255D01*
X196475Y195343D01*
X196457Y195431D01*
X196436Y195518D01*
X196411Y195604D01*
X196382Y195689D01*
X196350Y195773D01*
X196314Y195855D01*
X196274Y195935D01*
X196231Y196014D01*
X196184Y196090D01*
X196135Y196165D01*
X196082Y196237D01*
X196026Y196307D01*
X195967Y196374D01*
X195905Y196439D01*
X195840Y196501D01*
X195773Y196560D01*
X195703Y196616D01*
X195631Y196669D01*
X195556Y196718D01*
X195480Y196765D01*
X195401Y196808D01*
X195321Y196848D01*
X195239Y196884D01*
X195155Y196916D01*
X195070Y196945D01*
X194984Y196970D01*
X194897Y196991D01*
X194809Y197009D01*
X194721Y197022D01*
X194632Y197032D01*
X194543Y197038D01*
X194453Y197040D01*
X194363Y197038D01*
X194274Y197032D01*
X194185Y197022D01*
X194097Y197009D01*
X194009Y196991D01*
X193922Y196970D01*
X193836Y196945D01*
X193751Y196916D01*
X193667Y196884D01*
X193585Y196848D01*
X193505Y196808D01*
X193427Y196765D01*
X193350Y196718D01*
X193275Y196669D01*
X193203Y196616D01*
X193133Y196560D01*
X193066Y196501D01*
X193001Y196439D01*
X192939Y196374D01*
X192880Y196307D01*
X192824Y196237D01*
X192771Y196165D01*
X192722Y196090D01*
X192675Y196014D01*
X192632Y195935D01*
X192592Y195855D01*
X192556Y195773D01*
X192524Y195689D01*
X192495Y195604D01*
X192470Y195518D01*
X192449Y195431D01*
X192431Y195343D01*
X192418Y195255D01*
X192408Y195166D01*
X192402Y195077D01*
X192400Y194987D01*
X192401Y194987D02*
X192401Y193960D01*
X196506Y193960D01*
X188833Y197040D02*
X187293Y190881D01*
X185753Y194987D01*
X184214Y190881D01*
X182674Y197040D01*
X173920Y200119D02*
X173920Y190881D01*
X173920Y200119D02*
X171354Y200119D01*
X171256Y200117D01*
X171158Y200111D01*
X171060Y200102D01*
X170962Y200089D01*
X170865Y200072D01*
X170769Y200052D01*
X170674Y200027D01*
X170580Y199999D01*
X170487Y199968D01*
X170395Y199933D01*
X170304Y199894D01*
X170215Y199853D01*
X170128Y199807D01*
X170043Y199759D01*
X169959Y199707D01*
X169878Y199652D01*
X169798Y199594D01*
X169721Y199533D01*
X169647Y199469D01*
X169575Y199402D01*
X169505Y199332D01*
X169438Y199260D01*
X169374Y199186D01*
X169313Y199109D01*
X169255Y199029D01*
X169200Y198948D01*
X169148Y198864D01*
X169100Y198779D01*
X169054Y198692D01*
X169013Y198603D01*
X168974Y198512D01*
X168939Y198420D01*
X168908Y198327D01*
X168880Y198233D01*
X168855Y198138D01*
X168835Y198042D01*
X168818Y197945D01*
X168805Y197847D01*
X168796Y197749D01*
X168790Y197651D01*
X168788Y197553D01*
X168787Y197553D02*
X168787Y193447D01*
X168788Y193447D02*
X168790Y193349D01*
X168796Y193251D01*
X168805Y193153D01*
X168818Y193055D01*
X168835Y192958D01*
X168855Y192862D01*
X168880Y192767D01*
X168908Y192673D01*
X168939Y192580D01*
X168974Y192488D01*
X169013Y192397D01*
X169054Y192308D01*
X169100Y192221D01*
X169148Y192136D01*
X169200Y192052D01*
X169255Y191971D01*
X169313Y191891D01*
X169374Y191814D01*
X169438Y191740D01*
X169505Y191668D01*
X169575Y191598D01*
X169647Y191531D01*
X169721Y191467D01*
X169798Y191406D01*
X169878Y191348D01*
X169959Y191293D01*
X170043Y191241D01*
X170128Y191193D01*
X170215Y191147D01*
X170304Y191106D01*
X170395Y191067D01*
X170487Y191032D01*
X170580Y191001D01*
X170674Y190973D01*
X170769Y190948D01*
X170865Y190928D01*
X170962Y190911D01*
X171060Y190898D01*
X171158Y190889D01*
X171256Y190883D01*
X171354Y190881D01*
X173920Y190881D01*
X164406Y192421D02*
X164406Y197040D01*
X164407Y192421D02*
X164405Y192343D01*
X164399Y192265D01*
X164389Y192188D01*
X164375Y192111D01*
X164358Y192035D01*
X164336Y191960D01*
X164311Y191886D01*
X164282Y191814D01*
X164250Y191743D01*
X164213Y191674D01*
X164174Y191606D01*
X164131Y191541D01*
X164085Y191478D01*
X164035Y191418D01*
X163983Y191360D01*
X163928Y191305D01*
X163870Y191253D01*
X163810Y191203D01*
X163747Y191157D01*
X163682Y191114D01*
X163614Y191075D01*
X163545Y191038D01*
X163474Y191006D01*
X163402Y190977D01*
X163328Y190952D01*
X163253Y190930D01*
X163177Y190913D01*
X163100Y190899D01*
X163023Y190889D01*
X162945Y190883D01*
X162867Y190881D01*
X160301Y190881D01*
X160301Y197040D01*
X156006Y197040D02*
X156006Y190881D01*
X156006Y197040D02*
X153440Y197040D01*
X153362Y197038D01*
X153284Y197032D01*
X153207Y197022D01*
X153130Y197008D01*
X153054Y196991D01*
X152979Y196969D01*
X152905Y196944D01*
X152833Y196915D01*
X152762Y196883D01*
X152693Y196846D01*
X152625Y196807D01*
X152560Y196764D01*
X152497Y196718D01*
X152437Y196668D01*
X152379Y196616D01*
X152324Y196561D01*
X152272Y196503D01*
X152222Y196443D01*
X152176Y196380D01*
X152133Y196315D01*
X152094Y196247D01*
X152057Y196178D01*
X152025Y196107D01*
X151996Y196035D01*
X151971Y195961D01*
X151949Y195886D01*
X151932Y195810D01*
X151918Y195733D01*
X151908Y195656D01*
X151902Y195578D01*
X151900Y195500D01*
X151901Y195500D02*
X151901Y190881D01*
X146357Y190881D02*
X144304Y190881D01*
X146357Y190881D02*
X146433Y190883D01*
X146508Y190888D01*
X146583Y190898D01*
X146657Y190911D01*
X146731Y190927D01*
X146804Y190947D01*
X146876Y190971D01*
X146946Y190998D01*
X147015Y191029D01*
X147083Y191063D01*
X147149Y191100D01*
X147213Y191141D01*
X147274Y191184D01*
X147334Y191231D01*
X147391Y191280D01*
X147446Y191332D01*
X147498Y191387D01*
X147547Y191444D01*
X147594Y191504D01*
X147637Y191565D01*
X147678Y191629D01*
X147715Y191695D01*
X147749Y191763D01*
X147780Y191832D01*
X147807Y191902D01*
X147831Y191974D01*
X147851Y192047D01*
X147867Y192121D01*
X147880Y192195D01*
X147890Y192270D01*
X147895Y192345D01*
X147897Y192421D01*
X147896Y192421D02*
X147896Y195500D01*
X147897Y195500D02*
X147895Y195576D01*
X147890Y195651D01*
X147880Y195726D01*
X147867Y195800D01*
X147851Y195874D01*
X147831Y195947D01*
X147807Y196019D01*
X147780Y196089D01*
X147749Y196158D01*
X147715Y196226D01*
X147678Y196292D01*
X147637Y196356D01*
X147594Y196417D01*
X147547Y196477D01*
X147498Y196534D01*
X147446Y196589D01*
X147391Y196641D01*
X147334Y196690D01*
X147274Y196737D01*
X147213Y196780D01*
X147149Y196821D01*
X147083Y196858D01*
X147015Y196892D01*
X146946Y196923D01*
X146876Y196950D01*
X146804Y196974D01*
X146731Y196994D01*
X146657Y197010D01*
X146583Y197023D01*
X146508Y197033D01*
X146433Y197038D01*
X146357Y197040D01*
X144304Y197040D01*
X139255Y194474D02*
X136946Y194474D01*
X139255Y194473D02*
X139338Y194471D01*
X139421Y194465D01*
X139503Y194456D01*
X139585Y194442D01*
X139666Y194425D01*
X139746Y194404D01*
X139826Y194380D01*
X139904Y194352D01*
X139980Y194320D01*
X140056Y194285D01*
X140129Y194246D01*
X140200Y194204D01*
X140270Y194159D01*
X140337Y194110D01*
X140402Y194059D01*
X140465Y194004D01*
X140525Y193947D01*
X140582Y193887D01*
X140637Y193824D01*
X140688Y193759D01*
X140737Y193692D01*
X140782Y193622D01*
X140824Y193551D01*
X140863Y193478D01*
X140898Y193402D01*
X140930Y193326D01*
X140958Y193248D01*
X140982Y193168D01*
X141003Y193088D01*
X141020Y193007D01*
X141034Y192925D01*
X141043Y192843D01*
X141049Y192760D01*
X141051Y192677D01*
X141049Y192594D01*
X141043Y192511D01*
X141034Y192429D01*
X141020Y192347D01*
X141003Y192266D01*
X140982Y192186D01*
X140958Y192106D01*
X140930Y192028D01*
X140898Y191952D01*
X140863Y191876D01*
X140824Y191803D01*
X140782Y191732D01*
X140737Y191662D01*
X140688Y191595D01*
X140637Y191530D01*
X140582Y191467D01*
X140525Y191407D01*
X140465Y191350D01*
X140402Y191295D01*
X140337Y191244D01*
X140270Y191195D01*
X140200Y191150D01*
X140129Y191108D01*
X140056Y191069D01*
X139980Y191034D01*
X139904Y191002D01*
X139826Y190974D01*
X139746Y190950D01*
X139666Y190929D01*
X139585Y190912D01*
X139503Y190898D01*
X139421Y190889D01*
X139338Y190883D01*
X139255Y190881D01*
X136946Y190881D01*
X136946Y195500D01*
X136948Y195576D01*
X136953Y195651D01*
X136963Y195726D01*
X136976Y195800D01*
X136992Y195874D01*
X137012Y195947D01*
X137036Y196019D01*
X137063Y196089D01*
X137094Y196158D01*
X137128Y196226D01*
X137165Y196292D01*
X137206Y196356D01*
X137249Y196417D01*
X137296Y196477D01*
X137345Y196534D01*
X137397Y196589D01*
X137452Y196641D01*
X137509Y196690D01*
X137569Y196737D01*
X137630Y196780D01*
X137694Y196821D01*
X137760Y196858D01*
X137828Y196892D01*
X137897Y196923D01*
X137967Y196950D01*
X138039Y196974D01*
X138112Y196994D01*
X138186Y197010D01*
X138260Y197023D01*
X138335Y197033D01*
X138410Y197038D01*
X138486Y197040D01*
X140538Y197040D01*
X132606Y197040D02*
X132606Y190881D01*
X132606Y197040D02*
X130040Y197040D01*
X129962Y197038D01*
X129884Y197032D01*
X129807Y197022D01*
X129730Y197008D01*
X129654Y196991D01*
X129579Y196969D01*
X129505Y196944D01*
X129433Y196915D01*
X129362Y196883D01*
X129293Y196846D01*
X129225Y196807D01*
X129160Y196764D01*
X129097Y196718D01*
X129037Y196668D01*
X128979Y196616D01*
X128924Y196561D01*
X128872Y196503D01*
X128822Y196443D01*
X128776Y196380D01*
X128733Y196315D01*
X128694Y196247D01*
X128657Y196178D01*
X128625Y196107D01*
X128596Y196035D01*
X128571Y195961D01*
X128549Y195886D01*
X128532Y195810D01*
X128518Y195733D01*
X128508Y195656D01*
X128502Y195578D01*
X128500Y195500D01*
X128501Y195500D02*
X128501Y190881D01*
X124843Y190881D02*
X124330Y190881D01*
X124843Y190881D02*
X124843Y191394D01*
X124330Y191394D01*
X124330Y190881D01*
X125100Y188828D01*
X115633Y190881D02*
X115633Y200119D01*
X112554Y194987D01*
X109474Y200119D01*
X109474Y190881D01*
X105354Y190881D02*
X105354Y197040D01*
X105610Y199606D02*
X105610Y200119D01*
X105097Y200119D01*
X105097Y199606D01*
X105610Y199606D01*
X100157Y190881D02*
X98104Y190881D01*
X100157Y190881D02*
X100233Y190883D01*
X100308Y190888D01*
X100383Y190898D01*
X100457Y190911D01*
X100531Y190927D01*
X100604Y190947D01*
X100676Y190971D01*
X100746Y190998D01*
X100815Y191029D01*
X100883Y191063D01*
X100949Y191100D01*
X101013Y191141D01*
X101074Y191184D01*
X101134Y191231D01*
X101191Y191280D01*
X101246Y191332D01*
X101298Y191387D01*
X101347Y191444D01*
X101394Y191504D01*
X101437Y191565D01*
X101478Y191629D01*
X101515Y191695D01*
X101549Y191763D01*
X101580Y191832D01*
X101607Y191902D01*
X101631Y191974D01*
X101651Y192047D01*
X101667Y192121D01*
X101680Y192195D01*
X101690Y192270D01*
X101695Y192345D01*
X101697Y192421D01*
X101696Y192421D02*
X101696Y195500D01*
X101697Y195500D02*
X101695Y195576D01*
X101690Y195651D01*
X101680Y195726D01*
X101667Y195800D01*
X101651Y195874D01*
X101631Y195947D01*
X101607Y196019D01*
X101580Y196089D01*
X101549Y196158D01*
X101515Y196226D01*
X101478Y196292D01*
X101437Y196356D01*
X101394Y196417D01*
X101347Y196477D01*
X101298Y196534D01*
X101246Y196589D01*
X101191Y196641D01*
X101134Y196690D01*
X101074Y196737D01*
X101013Y196780D01*
X100949Y196821D01*
X100883Y196858D01*
X100815Y196892D01*
X100746Y196923D01*
X100676Y196950D01*
X100604Y196974D01*
X100531Y196994D01*
X100457Y197010D01*
X100383Y197023D01*
X100308Y197033D01*
X100233Y197038D01*
X100157Y197040D01*
X98104Y197040D01*
X94507Y200119D02*
X94507Y190881D01*
X94507Y197040D02*
X91940Y197040D01*
X91862Y197038D01*
X91784Y197032D01*
X91707Y197022D01*
X91630Y197008D01*
X91554Y196991D01*
X91479Y196969D01*
X91405Y196944D01*
X91333Y196915D01*
X91262Y196883D01*
X91193Y196846D01*
X91125Y196807D01*
X91060Y196764D01*
X90997Y196718D01*
X90937Y196668D01*
X90879Y196616D01*
X90824Y196561D01*
X90772Y196503D01*
X90722Y196443D01*
X90676Y196380D01*
X90633Y196315D01*
X90594Y196247D01*
X90557Y196178D01*
X90525Y196107D01*
X90496Y196035D01*
X90471Y195961D01*
X90449Y195886D01*
X90432Y195810D01*
X90418Y195733D01*
X90408Y195656D01*
X90402Y195578D01*
X90400Y195500D01*
X90401Y195500D02*
X90401Y190881D01*
X84656Y194474D02*
X82346Y194474D01*
X84656Y194473D02*
X84739Y194471D01*
X84822Y194465D01*
X84904Y194456D01*
X84986Y194442D01*
X85067Y194425D01*
X85147Y194404D01*
X85227Y194380D01*
X85305Y194352D01*
X85381Y194320D01*
X85457Y194285D01*
X85530Y194246D01*
X85601Y194204D01*
X85671Y194159D01*
X85738Y194110D01*
X85803Y194059D01*
X85866Y194004D01*
X85926Y193947D01*
X85983Y193887D01*
X86038Y193824D01*
X86089Y193759D01*
X86138Y193692D01*
X86183Y193622D01*
X86225Y193551D01*
X86264Y193478D01*
X86299Y193402D01*
X86331Y193326D01*
X86359Y193248D01*
X86383Y193168D01*
X86404Y193088D01*
X86421Y193007D01*
X86435Y192925D01*
X86444Y192843D01*
X86450Y192760D01*
X86452Y192677D01*
X86450Y192594D01*
X86444Y192511D01*
X86435Y192429D01*
X86421Y192347D01*
X86404Y192266D01*
X86383Y192186D01*
X86359Y192106D01*
X86331Y192028D01*
X86299Y191952D01*
X86264Y191876D01*
X86225Y191803D01*
X86183Y191732D01*
X86138Y191662D01*
X86089Y191595D01*
X86038Y191530D01*
X85983Y191467D01*
X85926Y191407D01*
X85866Y191350D01*
X85803Y191295D01*
X85738Y191244D01*
X85671Y191195D01*
X85601Y191150D01*
X85530Y191108D01*
X85457Y191069D01*
X85381Y191034D01*
X85305Y191002D01*
X85227Y190974D01*
X85147Y190950D01*
X85067Y190929D01*
X84986Y190912D01*
X84904Y190898D01*
X84822Y190889D01*
X84739Y190883D01*
X84656Y190881D01*
X82346Y190881D01*
X82346Y195500D01*
X82348Y195576D01*
X82353Y195651D01*
X82363Y195726D01*
X82376Y195800D01*
X82392Y195874D01*
X82412Y195947D01*
X82436Y196019D01*
X82463Y196089D01*
X82494Y196158D01*
X82528Y196226D01*
X82565Y196292D01*
X82606Y196356D01*
X82649Y196417D01*
X82696Y196477D01*
X82745Y196534D01*
X82797Y196589D01*
X82852Y196641D01*
X82909Y196690D01*
X82969Y196737D01*
X83030Y196780D01*
X83094Y196821D01*
X83160Y196858D01*
X83228Y196892D01*
X83297Y196923D01*
X83367Y196950D01*
X83439Y196974D01*
X83512Y196994D01*
X83586Y197010D01*
X83660Y197023D01*
X83735Y197033D01*
X83810Y197038D01*
X83886Y197040D01*
X85939Y197040D01*
X76767Y190881D02*
X74201Y190881D01*
X76767Y190881D02*
X76843Y190883D01*
X76918Y190888D01*
X76993Y190898D01*
X77067Y190911D01*
X77141Y190927D01*
X77214Y190947D01*
X77286Y190971D01*
X77356Y190998D01*
X77425Y191029D01*
X77493Y191063D01*
X77559Y191100D01*
X77623Y191141D01*
X77684Y191184D01*
X77744Y191231D01*
X77801Y191280D01*
X77856Y191332D01*
X77908Y191387D01*
X77957Y191444D01*
X78004Y191504D01*
X78047Y191565D01*
X78088Y191629D01*
X78125Y191695D01*
X78159Y191763D01*
X78190Y191832D01*
X78217Y191902D01*
X78241Y191974D01*
X78261Y192047D01*
X78277Y192121D01*
X78290Y192195D01*
X78300Y192270D01*
X78305Y192345D01*
X78307Y192421D01*
X78307Y194987D01*
X78305Y195077D01*
X78299Y195166D01*
X78289Y195255D01*
X78276Y195343D01*
X78258Y195431D01*
X78237Y195518D01*
X78212Y195604D01*
X78183Y195689D01*
X78151Y195773D01*
X78115Y195855D01*
X78075Y195935D01*
X78032Y196014D01*
X77985Y196090D01*
X77936Y196165D01*
X77883Y196237D01*
X77827Y196307D01*
X77768Y196374D01*
X77706Y196439D01*
X77641Y196501D01*
X77574Y196560D01*
X77504Y196616D01*
X77432Y196669D01*
X77357Y196718D01*
X77281Y196765D01*
X77202Y196808D01*
X77122Y196848D01*
X77040Y196884D01*
X76956Y196916D01*
X76871Y196945D01*
X76785Y196970D01*
X76698Y196991D01*
X76610Y197009D01*
X76522Y197022D01*
X76433Y197032D01*
X76344Y197038D01*
X76254Y197040D01*
X76164Y197038D01*
X76075Y197032D01*
X75986Y197022D01*
X75898Y197009D01*
X75810Y196991D01*
X75723Y196970D01*
X75637Y196945D01*
X75552Y196916D01*
X75468Y196884D01*
X75386Y196848D01*
X75306Y196808D01*
X75228Y196765D01*
X75151Y196718D01*
X75076Y196669D01*
X75004Y196616D01*
X74934Y196560D01*
X74867Y196501D01*
X74802Y196439D01*
X74740Y196374D01*
X74681Y196307D01*
X74625Y196237D01*
X74572Y196165D01*
X74523Y196090D01*
X74476Y196014D01*
X74433Y195935D01*
X74393Y195855D01*
X74357Y195773D01*
X74325Y195689D01*
X74296Y195604D01*
X74271Y195518D01*
X74250Y195431D01*
X74232Y195343D01*
X74219Y195255D01*
X74209Y195166D01*
X74203Y195077D01*
X74201Y194987D01*
X74201Y193960D01*
X78307Y193960D01*
X70385Y192421D02*
X70385Y200119D01*
X70385Y192421D02*
X70383Y192343D01*
X70377Y192265D01*
X70367Y192188D01*
X70353Y192111D01*
X70336Y192035D01*
X70314Y191960D01*
X70289Y191886D01*
X70260Y191814D01*
X70228Y191743D01*
X70191Y191674D01*
X70152Y191606D01*
X70109Y191541D01*
X70063Y191478D01*
X70013Y191418D01*
X69961Y191360D01*
X69906Y191305D01*
X69848Y191253D01*
X69788Y191203D01*
X69725Y191157D01*
X69660Y191114D01*
X69592Y191075D01*
X69523Y191038D01*
X69452Y191006D01*
X69380Y190977D01*
X69306Y190952D01*
X69231Y190930D01*
X69155Y190913D01*
X69078Y190899D01*
X69001Y190889D01*
X68923Y190883D01*
X68845Y190881D01*
X60520Y190881D02*
X60520Y200119D01*
X57954Y200119D01*
X57856Y200117D01*
X57758Y200111D01*
X57660Y200102D01*
X57562Y200089D01*
X57465Y200072D01*
X57369Y200052D01*
X57274Y200027D01*
X57180Y199999D01*
X57087Y199968D01*
X56995Y199933D01*
X56904Y199894D01*
X56815Y199853D01*
X56728Y199807D01*
X56643Y199759D01*
X56559Y199707D01*
X56478Y199652D01*
X56398Y199594D01*
X56321Y199533D01*
X56247Y199469D01*
X56175Y199402D01*
X56105Y199332D01*
X56038Y199260D01*
X55974Y199186D01*
X55913Y199109D01*
X55855Y199029D01*
X55800Y198948D01*
X55748Y198864D01*
X55700Y198779D01*
X55654Y198692D01*
X55613Y198603D01*
X55574Y198512D01*
X55539Y198420D01*
X55508Y198327D01*
X55480Y198233D01*
X55455Y198138D01*
X55435Y198042D01*
X55418Y197945D01*
X55405Y197847D01*
X55396Y197749D01*
X55390Y197651D01*
X55388Y197553D01*
X55388Y193447D01*
X55390Y193349D01*
X55396Y193251D01*
X55405Y193153D01*
X55418Y193055D01*
X55435Y192958D01*
X55455Y192862D01*
X55480Y192767D01*
X55508Y192673D01*
X55539Y192580D01*
X55574Y192488D01*
X55613Y192397D01*
X55654Y192308D01*
X55700Y192221D01*
X55748Y192136D01*
X55800Y192052D01*
X55855Y191971D01*
X55913Y191891D01*
X55974Y191814D01*
X56038Y191740D01*
X56105Y191668D01*
X56175Y191598D01*
X56247Y191531D01*
X56321Y191467D01*
X56398Y191406D01*
X56478Y191348D01*
X56559Y191293D01*
X56643Y191241D01*
X56728Y191193D01*
X56815Y191147D01*
X56904Y191106D01*
X56995Y191067D01*
X57087Y191032D01*
X57180Y191001D01*
X57274Y190973D01*
X57369Y190948D01*
X57465Y190928D01*
X57562Y190911D01*
X57660Y190898D01*
X57758Y190889D01*
X57856Y190883D01*
X57954Y190881D01*
X60520Y190881D01*
X51007Y192421D02*
X51007Y197040D01*
X51007Y192421D02*
X51005Y192343D01*
X50999Y192265D01*
X50989Y192188D01*
X50975Y192111D01*
X50958Y192035D01*
X50936Y191960D01*
X50911Y191886D01*
X50882Y191814D01*
X50850Y191743D01*
X50813Y191674D01*
X50774Y191606D01*
X50731Y191541D01*
X50685Y191478D01*
X50635Y191418D01*
X50583Y191360D01*
X50528Y191305D01*
X50470Y191253D01*
X50410Y191203D01*
X50347Y191157D01*
X50282Y191114D01*
X50214Y191075D01*
X50145Y191038D01*
X50074Y191006D01*
X50002Y190977D01*
X49928Y190952D01*
X49853Y190930D01*
X49777Y190913D01*
X49700Y190899D01*
X49623Y190889D01*
X49545Y190883D01*
X49467Y190881D01*
X46901Y190881D01*
X46901Y197040D01*
X41412Y190881D02*
X38846Y190881D01*
X41412Y190881D02*
X41488Y190883D01*
X41563Y190888D01*
X41638Y190898D01*
X41712Y190911D01*
X41786Y190927D01*
X41859Y190947D01*
X41931Y190971D01*
X42001Y190998D01*
X42070Y191029D01*
X42138Y191063D01*
X42204Y191100D01*
X42268Y191141D01*
X42329Y191184D01*
X42389Y191231D01*
X42446Y191280D01*
X42501Y191332D01*
X42553Y191387D01*
X42602Y191444D01*
X42649Y191504D01*
X42692Y191565D01*
X42733Y191629D01*
X42770Y191695D01*
X42804Y191763D01*
X42835Y191832D01*
X42862Y191902D01*
X42886Y191974D01*
X42906Y192047D01*
X42922Y192121D01*
X42935Y192195D01*
X42945Y192270D01*
X42950Y192345D01*
X42952Y192421D01*
X42952Y195500D01*
X42950Y195576D01*
X42945Y195651D01*
X42935Y195726D01*
X42922Y195800D01*
X42906Y195874D01*
X42886Y195947D01*
X42862Y196019D01*
X42835Y196089D01*
X42804Y196158D01*
X42770Y196226D01*
X42733Y196292D01*
X42692Y196356D01*
X42649Y196417D01*
X42602Y196477D01*
X42553Y196534D01*
X42501Y196589D01*
X42446Y196641D01*
X42389Y196690D01*
X42329Y196737D01*
X42268Y196780D01*
X42204Y196821D01*
X42138Y196858D01*
X42070Y196892D01*
X42001Y196923D01*
X41931Y196950D01*
X41859Y196974D01*
X41786Y196994D01*
X41712Y197010D01*
X41638Y197023D01*
X41563Y197033D01*
X41488Y197038D01*
X41412Y197040D01*
X38846Y197040D01*
X38846Y189341D01*
X38848Y189265D01*
X38853Y189190D01*
X38863Y189115D01*
X38876Y189041D01*
X38892Y188967D01*
X38912Y188894D01*
X38936Y188822D01*
X38963Y188752D01*
X38994Y188683D01*
X39028Y188615D01*
X39065Y188549D01*
X39106Y188485D01*
X39149Y188424D01*
X39196Y188364D01*
X39245Y188307D01*
X39297Y188252D01*
X39352Y188200D01*
X39409Y188151D01*
X39469Y188104D01*
X39530Y188061D01*
X39594Y188020D01*
X39660Y187983D01*
X39728Y187949D01*
X39797Y187918D01*
X39867Y187891D01*
X39939Y187867D01*
X40012Y187847D01*
X40086Y187831D01*
X40160Y187818D01*
X40235Y187808D01*
X40310Y187803D01*
X40386Y187801D01*
X40386Y187802D02*
X42439Y187802D01*
X33056Y194474D02*
X30746Y194474D01*
X33056Y194473D02*
X33139Y194471D01*
X33222Y194465D01*
X33304Y194456D01*
X33386Y194442D01*
X33467Y194425D01*
X33547Y194404D01*
X33627Y194380D01*
X33705Y194352D01*
X33781Y194320D01*
X33857Y194285D01*
X33930Y194246D01*
X34001Y194204D01*
X34071Y194159D01*
X34138Y194110D01*
X34203Y194059D01*
X34266Y194004D01*
X34326Y193947D01*
X34383Y193887D01*
X34438Y193824D01*
X34489Y193759D01*
X34538Y193692D01*
X34583Y193622D01*
X34625Y193551D01*
X34664Y193478D01*
X34699Y193402D01*
X34731Y193326D01*
X34759Y193248D01*
X34783Y193168D01*
X34804Y193088D01*
X34821Y193007D01*
X34835Y192925D01*
X34844Y192843D01*
X34850Y192760D01*
X34852Y192677D01*
X34850Y192594D01*
X34844Y192511D01*
X34835Y192429D01*
X34821Y192347D01*
X34804Y192266D01*
X34783Y192186D01*
X34759Y192106D01*
X34731Y192028D01*
X34699Y191952D01*
X34664Y191876D01*
X34625Y191803D01*
X34583Y191732D01*
X34538Y191662D01*
X34489Y191595D01*
X34438Y191530D01*
X34383Y191467D01*
X34326Y191407D01*
X34266Y191350D01*
X34203Y191295D01*
X34138Y191244D01*
X34071Y191195D01*
X34001Y191150D01*
X33930Y191108D01*
X33857Y191069D01*
X33781Y191034D01*
X33705Y191002D01*
X33627Y190974D01*
X33547Y190950D01*
X33467Y190929D01*
X33386Y190912D01*
X33304Y190898D01*
X33222Y190889D01*
X33139Y190883D01*
X33056Y190881D01*
X30746Y190881D01*
X30746Y195500D01*
X30748Y195576D01*
X30753Y195651D01*
X30763Y195726D01*
X30776Y195800D01*
X30792Y195874D01*
X30812Y195947D01*
X30836Y196019D01*
X30863Y196089D01*
X30894Y196158D01*
X30928Y196226D01*
X30965Y196292D01*
X31006Y196356D01*
X31049Y196417D01*
X31096Y196477D01*
X31145Y196534D01*
X31197Y196589D01*
X31252Y196641D01*
X31309Y196690D01*
X31369Y196737D01*
X31430Y196780D01*
X31494Y196821D01*
X31560Y196858D01*
X31628Y196892D01*
X31697Y196923D01*
X31767Y196950D01*
X31839Y196974D01*
X31912Y196994D01*
X31986Y197010D01*
X32060Y197023D01*
X32135Y197033D01*
X32210Y197038D01*
X32286Y197040D01*
X34339Y197040D01*
X25937Y194474D02*
X23371Y193447D01*
X25937Y194473D02*
X26004Y194502D01*
X26069Y194534D01*
X26132Y194570D01*
X26193Y194609D01*
X26251Y194652D01*
X26308Y194697D01*
X26361Y194746D01*
X26412Y194797D01*
X26461Y194851D01*
X26506Y194908D01*
X26548Y194967D01*
X26586Y195028D01*
X26622Y195091D01*
X26654Y195156D01*
X26682Y195223D01*
X26707Y195291D01*
X26727Y195360D01*
X26745Y195431D01*
X26758Y195502D01*
X26767Y195574D01*
X26772Y195646D01*
X26774Y195718D01*
X26771Y195791D01*
X26765Y195863D01*
X26755Y195934D01*
X26741Y196005D01*
X26723Y196076D01*
X26701Y196145D01*
X26675Y196212D01*
X26646Y196279D01*
X26613Y196343D01*
X26577Y196406D01*
X26537Y196467D01*
X26495Y196525D01*
X26449Y196581D01*
X26400Y196634D01*
X26348Y196685D01*
X26293Y196733D01*
X26237Y196778D01*
X26177Y196819D01*
X26116Y196857D01*
X26052Y196892D01*
X25987Y196924D01*
X25920Y196952D01*
X25852Y196976D01*
X25782Y196996D01*
X25712Y197013D01*
X25641Y197025D01*
X25569Y197034D01*
X25496Y197039D01*
X25424Y197040D01*
X25424Y197039D02*
X25275Y197035D01*
X25126Y197028D01*
X24978Y197016D01*
X24830Y197001D01*
X24682Y196981D01*
X24535Y196958D01*
X24388Y196932D01*
X24243Y196901D01*
X24098Y196867D01*
X23954Y196829D01*
X23811Y196788D01*
X23669Y196743D01*
X23528Y196694D01*
X23389Y196641D01*
X23251Y196586D01*
X23114Y196526D01*
X23371Y193448D02*
X23304Y193419D01*
X23239Y193387D01*
X23176Y193351D01*
X23115Y193312D01*
X23057Y193269D01*
X23000Y193224D01*
X22947Y193175D01*
X22896Y193124D01*
X22847Y193070D01*
X22802Y193013D01*
X22760Y192954D01*
X22722Y192893D01*
X22686Y192830D01*
X22654Y192765D01*
X22626Y192698D01*
X22601Y192630D01*
X22581Y192561D01*
X22563Y192490D01*
X22550Y192419D01*
X22541Y192347D01*
X22536Y192275D01*
X22534Y192203D01*
X22537Y192130D01*
X22543Y192058D01*
X22553Y191987D01*
X22567Y191916D01*
X22585Y191845D01*
X22607Y191776D01*
X22633Y191709D01*
X22662Y191642D01*
X22695Y191578D01*
X22731Y191515D01*
X22771Y191454D01*
X22813Y191396D01*
X22859Y191340D01*
X22908Y191287D01*
X22960Y191236D01*
X23015Y191188D01*
X23071Y191143D01*
X23131Y191102D01*
X23192Y191064D01*
X23256Y191029D01*
X23321Y190997D01*
X23388Y190969D01*
X23456Y190945D01*
X23526Y190925D01*
X23596Y190908D01*
X23667Y190896D01*
X23739Y190887D01*
X23812Y190882D01*
X23884Y190881D01*
X23884Y190882D02*
X24090Y190887D01*
X24296Y190898D01*
X24501Y190913D01*
X24706Y190933D01*
X24910Y190957D01*
X25114Y190987D01*
X25317Y191021D01*
X25519Y191061D01*
X25720Y191105D01*
X25920Y191153D01*
X26119Y191207D01*
X26316Y191265D01*
X26512Y191328D01*
X26707Y191395D01*
D11*
X66230Y57150D02*
X66230Y44450D01*
X416370Y146050D02*
X416370Y158750D01*
M02*
