G04 EAGLE Gerber X2 export*
%TF.Part,Single*%
%TF.FileFunction,Other,Top Copper*%
%TF.FilePolarity,Positive*%
%TF.GenerationSoftware,Autodesk,EAGLE,8.7.1*%
%TF.CreationDate,2018-04-02T18:11:16Z*%
G75*
%MOMM*%
%FSLAX34Y34*%
%LPD*%
%AMOC8*
5,1,8,0,0,1.08239X$1,22.5*%
G01*
%ADD10P,1.649562X8X22.500000*%
%ADD11P,1.649562X8X202.500000*%
%ADD12P,1.938236X8X112.500000*%
%ADD13P,2.034460X8X112.500000*%
%ADD14P,2.034460X8X292.500000*%
%ADD15C,0.406400*%

G36*
X469956Y2549D02*
X469956Y2549D01*
X470000Y2546D01*
X471276Y2671D01*
X471552Y2739D01*
X471559Y2742D01*
X471565Y2744D01*
X473924Y3721D01*
X473951Y3737D01*
X473980Y3746D01*
X474044Y3792D01*
X474169Y3865D01*
X474213Y3912D01*
X474254Y3941D01*
X476059Y5746D01*
X476078Y5771D01*
X476101Y5791D01*
X476143Y5858D01*
X476230Y5974D01*
X476253Y6034D01*
X476279Y6076D01*
X477256Y8435D01*
X477327Y8710D01*
X477327Y8718D01*
X477329Y8724D01*
X477454Y10000D01*
X477452Y10057D01*
X477459Y10100D01*
X477459Y203200D01*
X477449Y203276D01*
X477451Y203333D01*
X477340Y204172D01*
X477332Y204202D01*
X477330Y204233D01*
X477303Y204306D01*
X477264Y204446D01*
X477230Y204501D01*
X477213Y204547D01*
X476373Y206001D01*
X476313Y206078D01*
X476260Y206159D01*
X476229Y206185D01*
X476198Y206225D01*
X476058Y206326D01*
X476001Y206373D01*
X474547Y207213D01*
X474519Y207224D01*
X474493Y207242D01*
X474418Y207265D01*
X474284Y207319D01*
X474219Y207326D01*
X474172Y207340D01*
X473333Y207451D01*
X473256Y207450D01*
X473200Y207459D01*
X6800Y207459D01*
X6724Y207449D01*
X6668Y207451D01*
X5828Y207340D01*
X5798Y207332D01*
X5767Y207330D01*
X5694Y207303D01*
X5554Y207264D01*
X5499Y207230D01*
X5453Y207213D01*
X3999Y206373D01*
X3922Y206313D01*
X3841Y206260D01*
X3815Y206229D01*
X3775Y206198D01*
X3674Y206058D01*
X3627Y206001D01*
X2787Y204547D01*
X2776Y204519D01*
X2758Y204493D01*
X2735Y204418D01*
X2681Y204284D01*
X2674Y204219D01*
X2660Y204172D01*
X2549Y203333D01*
X2550Y203256D01*
X2541Y203200D01*
X2541Y12700D01*
X2549Y12644D01*
X2546Y12600D01*
X2721Y10817D01*
X2789Y10540D01*
X2792Y10534D01*
X2794Y10528D01*
X4159Y7231D01*
X4175Y7205D01*
X4184Y7175D01*
X4230Y7111D01*
X4304Y6987D01*
X4307Y6983D01*
X4308Y6981D01*
X4352Y6941D01*
X4379Y6902D01*
X6902Y4379D01*
X6927Y4361D01*
X6947Y4337D01*
X7014Y4295D01*
X7129Y4208D01*
X7189Y4185D01*
X7231Y4159D01*
X10528Y2794D01*
X10803Y2723D01*
X10810Y2723D01*
X10817Y2721D01*
X12600Y2546D01*
X12657Y2548D01*
X12700Y2541D01*
X469900Y2541D01*
X469956Y2549D01*
G37*
%LPC*%
G36*
X237410Y145541D02*
X237410Y145541D01*
X230221Y148519D01*
X224719Y154021D01*
X221741Y161210D01*
X221741Y168990D01*
X224719Y176179D01*
X230221Y181681D01*
X237410Y184659D01*
X245190Y184659D01*
X252379Y181681D01*
X257881Y176179D01*
X260859Y168990D01*
X260859Y161210D01*
X257881Y154021D01*
X252379Y148519D01*
X245190Y145541D01*
X237410Y145541D01*
G37*
%LPD*%
%LPC*%
G36*
X46065Y140969D02*
X46065Y140969D01*
X39369Y147665D01*
X39369Y157135D01*
X46065Y163831D01*
X55535Y163831D01*
X62355Y157011D01*
X62387Y156939D01*
X62425Y156894D01*
X62454Y156844D01*
X62516Y156786D01*
X62570Y156722D01*
X62619Y156690D01*
X62662Y156650D01*
X62737Y156611D01*
X62807Y156564D01*
X62863Y156547D01*
X62915Y156520D01*
X62983Y156509D01*
X63078Y156479D01*
X63178Y156476D01*
X63246Y156465D01*
X104293Y156465D01*
X104380Y156477D01*
X104467Y156480D01*
X104520Y156497D01*
X104575Y156505D01*
X104654Y156540D01*
X104738Y156567D01*
X104777Y156595D01*
X104834Y156621D01*
X104947Y156717D01*
X105011Y156762D01*
X110302Y162053D01*
X118298Y162053D01*
X123953Y156398D01*
X123953Y148402D01*
X118298Y142747D01*
X110302Y142747D01*
X105011Y148038D01*
X104941Y148090D01*
X104877Y148150D01*
X104828Y148176D01*
X104784Y148209D01*
X104702Y148240D01*
X104624Y148280D01*
X104577Y148288D01*
X104518Y148310D01*
X104371Y148322D01*
X104293Y148335D01*
X63246Y148335D01*
X63188Y148327D01*
X63130Y148329D01*
X63048Y148307D01*
X62964Y148295D01*
X62911Y148272D01*
X62855Y148257D01*
X62782Y148214D01*
X62705Y148179D01*
X62660Y148141D01*
X62610Y148112D01*
X62552Y148050D01*
X62488Y147996D01*
X62456Y147947D01*
X62416Y147904D01*
X62377Y147829D01*
X62343Y147777D01*
X55535Y140969D01*
X46065Y140969D01*
G37*
%LPD*%
%LPC*%
G36*
X46065Y39369D02*
X46065Y39369D01*
X39369Y46065D01*
X39369Y55535D01*
X46065Y62231D01*
X55535Y62231D01*
X62355Y55411D01*
X62387Y55339D01*
X62425Y55294D01*
X62454Y55244D01*
X62516Y55186D01*
X62570Y55122D01*
X62619Y55090D01*
X62662Y55050D01*
X62737Y55011D01*
X62807Y54964D01*
X62863Y54947D01*
X62915Y54920D01*
X62983Y54909D01*
X63078Y54879D01*
X63178Y54876D01*
X63246Y54865D01*
X104293Y54865D01*
X104380Y54877D01*
X104467Y54880D01*
X104520Y54897D01*
X104575Y54905D01*
X104654Y54940D01*
X104738Y54967D01*
X104777Y54995D01*
X104834Y55021D01*
X104947Y55117D01*
X105011Y55162D01*
X110302Y60453D01*
X118298Y60453D01*
X123953Y54798D01*
X123953Y46802D01*
X118298Y41147D01*
X110302Y41147D01*
X105011Y46438D01*
X104941Y46490D01*
X104877Y46550D01*
X104828Y46576D01*
X104784Y46609D01*
X104702Y46640D01*
X104624Y46680D01*
X104577Y46688D01*
X104518Y46710D01*
X104371Y46722D01*
X104293Y46735D01*
X63246Y46735D01*
X63188Y46727D01*
X63130Y46729D01*
X63048Y46707D01*
X62964Y46695D01*
X62911Y46672D01*
X62855Y46657D01*
X62782Y46614D01*
X62705Y46579D01*
X62660Y46541D01*
X62610Y46512D01*
X62552Y46450D01*
X62488Y46396D01*
X62456Y46347D01*
X62416Y46304D01*
X62377Y46229D01*
X62343Y46177D01*
X55535Y39369D01*
X46065Y39369D01*
G37*
%LPD*%
%LPC*%
G36*
X46065Y64769D02*
X46065Y64769D01*
X39369Y71465D01*
X39369Y80935D01*
X46065Y87631D01*
X55535Y87631D01*
X62355Y80811D01*
X62387Y80739D01*
X62425Y80694D01*
X62454Y80644D01*
X62516Y80586D01*
X62570Y80522D01*
X62619Y80490D01*
X62662Y80450D01*
X62737Y80411D01*
X62807Y80364D01*
X62863Y80347D01*
X62915Y80320D01*
X62983Y80309D01*
X63078Y80279D01*
X63178Y80276D01*
X63246Y80265D01*
X104293Y80265D01*
X104380Y80277D01*
X104467Y80280D01*
X104520Y80297D01*
X104575Y80305D01*
X104654Y80340D01*
X104738Y80367D01*
X104777Y80395D01*
X104834Y80421D01*
X104947Y80517D01*
X105011Y80562D01*
X110302Y85853D01*
X118298Y85853D01*
X123953Y80198D01*
X123953Y72202D01*
X118298Y66547D01*
X110302Y66547D01*
X105011Y71838D01*
X104941Y71890D01*
X104877Y71950D01*
X104828Y71976D01*
X104784Y72009D01*
X104702Y72040D01*
X104624Y72080D01*
X104577Y72088D01*
X104518Y72110D01*
X104371Y72122D01*
X104293Y72135D01*
X63246Y72135D01*
X63188Y72127D01*
X63130Y72129D01*
X63048Y72107D01*
X62964Y72095D01*
X62911Y72072D01*
X62855Y72057D01*
X62782Y72014D01*
X62705Y71979D01*
X62660Y71941D01*
X62610Y71912D01*
X62552Y71850D01*
X62488Y71796D01*
X62456Y71747D01*
X62416Y71704D01*
X62377Y71629D01*
X62343Y71577D01*
X55535Y64769D01*
X46065Y64769D01*
G37*
%LPD*%
%LPC*%
G36*
X46065Y115569D02*
X46065Y115569D01*
X39369Y122265D01*
X39369Y131735D01*
X46065Y138431D01*
X55535Y138431D01*
X62355Y131611D01*
X62387Y131539D01*
X62425Y131494D01*
X62454Y131444D01*
X62516Y131386D01*
X62570Y131322D01*
X62619Y131290D01*
X62662Y131250D01*
X62737Y131211D01*
X62807Y131164D01*
X62863Y131147D01*
X62915Y131120D01*
X62983Y131109D01*
X63078Y131079D01*
X63178Y131076D01*
X63246Y131065D01*
X104293Y131065D01*
X104380Y131077D01*
X104467Y131080D01*
X104520Y131097D01*
X104575Y131105D01*
X104654Y131140D01*
X104738Y131167D01*
X104777Y131195D01*
X104834Y131221D01*
X104947Y131317D01*
X105011Y131362D01*
X110302Y136653D01*
X118298Y136653D01*
X123953Y130998D01*
X123953Y123002D01*
X118298Y117347D01*
X110302Y117347D01*
X105011Y122638D01*
X104941Y122690D01*
X104877Y122750D01*
X104828Y122776D01*
X104784Y122809D01*
X104702Y122840D01*
X104624Y122880D01*
X104577Y122888D01*
X104518Y122910D01*
X104371Y122922D01*
X104293Y122935D01*
X63246Y122935D01*
X63188Y122927D01*
X63130Y122929D01*
X63048Y122907D01*
X62964Y122895D01*
X62911Y122872D01*
X62855Y122857D01*
X62782Y122814D01*
X62705Y122779D01*
X62660Y122741D01*
X62610Y122712D01*
X62552Y122650D01*
X62488Y122596D01*
X62456Y122547D01*
X62416Y122504D01*
X62377Y122429D01*
X62343Y122377D01*
X55535Y115569D01*
X46065Y115569D01*
G37*
%LPD*%
%LPC*%
G36*
X46065Y90169D02*
X46065Y90169D01*
X39369Y96865D01*
X39369Y106335D01*
X46065Y113031D01*
X55535Y113031D01*
X62355Y106211D01*
X62387Y106139D01*
X62425Y106094D01*
X62454Y106044D01*
X62516Y105986D01*
X62570Y105922D01*
X62619Y105890D01*
X62662Y105850D01*
X62737Y105811D01*
X62807Y105764D01*
X62863Y105747D01*
X62915Y105720D01*
X62983Y105709D01*
X63078Y105679D01*
X63178Y105676D01*
X63246Y105665D01*
X104293Y105665D01*
X104380Y105677D01*
X104467Y105680D01*
X104520Y105697D01*
X104575Y105705D01*
X104654Y105740D01*
X104738Y105767D01*
X104777Y105795D01*
X104834Y105821D01*
X104947Y105917D01*
X105011Y105962D01*
X110302Y111253D01*
X118298Y111253D01*
X123953Y105598D01*
X123953Y97602D01*
X118298Y91947D01*
X110302Y91947D01*
X105011Y97238D01*
X104941Y97290D01*
X104877Y97350D01*
X104828Y97376D01*
X104784Y97409D01*
X104702Y97440D01*
X104624Y97480D01*
X104577Y97488D01*
X104518Y97510D01*
X104371Y97522D01*
X104293Y97535D01*
X63246Y97535D01*
X63188Y97527D01*
X63130Y97529D01*
X63048Y97507D01*
X62964Y97495D01*
X62911Y97472D01*
X62855Y97457D01*
X62782Y97414D01*
X62705Y97379D01*
X62660Y97341D01*
X62610Y97312D01*
X62552Y97250D01*
X62488Y97196D01*
X62456Y97147D01*
X62416Y97104D01*
X62377Y97029D01*
X62343Y96977D01*
X55535Y90169D01*
X46065Y90169D01*
G37*
%LPD*%
%LPC*%
G36*
X427065Y64769D02*
X427065Y64769D01*
X420245Y71589D01*
X420213Y71661D01*
X420175Y71706D01*
X420146Y71756D01*
X420084Y71814D01*
X420030Y71878D01*
X419981Y71910D01*
X419938Y71950D01*
X419863Y71989D01*
X419793Y72036D01*
X419737Y72053D01*
X419685Y72080D01*
X419617Y72091D01*
X419522Y72121D01*
X419422Y72124D01*
X419354Y72135D01*
X378307Y72135D01*
X378220Y72123D01*
X378133Y72120D01*
X378080Y72103D01*
X378025Y72095D01*
X377946Y72060D01*
X377862Y72033D01*
X377823Y72005D01*
X377766Y71979D01*
X377653Y71883D01*
X377589Y71838D01*
X372298Y66547D01*
X364302Y66547D01*
X358647Y72202D01*
X358647Y80198D01*
X364302Y85853D01*
X372298Y85853D01*
X377589Y80562D01*
X377659Y80510D01*
X377723Y80450D01*
X377772Y80424D01*
X377816Y80391D01*
X377898Y80360D01*
X377976Y80320D01*
X378023Y80312D01*
X378082Y80290D01*
X378229Y80278D01*
X378307Y80265D01*
X419354Y80265D01*
X419412Y80273D01*
X419470Y80271D01*
X419552Y80293D01*
X419636Y80305D01*
X419689Y80328D01*
X419745Y80343D01*
X419818Y80386D01*
X419895Y80421D01*
X419940Y80459D01*
X419990Y80488D01*
X420048Y80550D01*
X420112Y80604D01*
X420144Y80653D01*
X420184Y80696D01*
X420223Y80771D01*
X420257Y80823D01*
X427065Y87631D01*
X436535Y87631D01*
X443231Y80935D01*
X443231Y71465D01*
X436535Y64769D01*
X427065Y64769D01*
G37*
%LPD*%
%LPC*%
G36*
X427065Y140969D02*
X427065Y140969D01*
X420245Y147789D01*
X420213Y147861D01*
X420175Y147906D01*
X420146Y147956D01*
X420084Y148014D01*
X420030Y148078D01*
X419981Y148110D01*
X419938Y148150D01*
X419863Y148189D01*
X419793Y148236D01*
X419737Y148253D01*
X419685Y148280D01*
X419617Y148291D01*
X419522Y148321D01*
X419422Y148324D01*
X419354Y148335D01*
X378307Y148335D01*
X378220Y148323D01*
X378133Y148320D01*
X378080Y148303D01*
X378025Y148295D01*
X377946Y148260D01*
X377862Y148233D01*
X377823Y148205D01*
X377766Y148179D01*
X377653Y148083D01*
X377589Y148038D01*
X372298Y142747D01*
X364302Y142747D01*
X358647Y148402D01*
X358647Y156398D01*
X364302Y162053D01*
X372298Y162053D01*
X377589Y156762D01*
X377659Y156710D01*
X377723Y156650D01*
X377772Y156624D01*
X377816Y156591D01*
X377898Y156560D01*
X377976Y156520D01*
X378023Y156512D01*
X378082Y156490D01*
X378229Y156478D01*
X378307Y156465D01*
X419354Y156465D01*
X419412Y156473D01*
X419470Y156471D01*
X419552Y156493D01*
X419636Y156505D01*
X419689Y156528D01*
X419745Y156543D01*
X419818Y156586D01*
X419895Y156621D01*
X419940Y156659D01*
X419990Y156688D01*
X420048Y156750D01*
X420112Y156804D01*
X420144Y156853D01*
X420184Y156896D01*
X420223Y156971D01*
X420257Y157023D01*
X427065Y163831D01*
X436535Y163831D01*
X443231Y157135D01*
X443231Y147665D01*
X436535Y140969D01*
X427065Y140969D01*
G37*
%LPD*%
%LPC*%
G36*
X427065Y39369D02*
X427065Y39369D01*
X420245Y46189D01*
X420213Y46261D01*
X420175Y46306D01*
X420146Y46356D01*
X420084Y46414D01*
X420030Y46478D01*
X419981Y46510D01*
X419938Y46550D01*
X419863Y46589D01*
X419793Y46636D01*
X419737Y46653D01*
X419685Y46680D01*
X419617Y46691D01*
X419522Y46721D01*
X419422Y46724D01*
X419354Y46735D01*
X378307Y46735D01*
X378220Y46723D01*
X378133Y46720D01*
X378080Y46703D01*
X378025Y46695D01*
X377946Y46660D01*
X377862Y46633D01*
X377823Y46605D01*
X377766Y46579D01*
X377653Y46483D01*
X377589Y46438D01*
X372298Y41147D01*
X364302Y41147D01*
X358647Y46802D01*
X358647Y54798D01*
X364302Y60453D01*
X372298Y60453D01*
X377589Y55162D01*
X377659Y55110D01*
X377723Y55050D01*
X377772Y55024D01*
X377816Y54991D01*
X377898Y54960D01*
X377976Y54920D01*
X378023Y54912D01*
X378082Y54890D01*
X378229Y54878D01*
X378307Y54865D01*
X419354Y54865D01*
X419412Y54873D01*
X419470Y54871D01*
X419552Y54893D01*
X419636Y54905D01*
X419689Y54928D01*
X419745Y54943D01*
X419818Y54986D01*
X419895Y55021D01*
X419940Y55059D01*
X419990Y55088D01*
X420048Y55150D01*
X420112Y55204D01*
X420144Y55253D01*
X420184Y55296D01*
X420223Y55371D01*
X420257Y55423D01*
X427065Y62231D01*
X436535Y62231D01*
X443231Y55535D01*
X443231Y46065D01*
X436535Y39369D01*
X427065Y39369D01*
G37*
%LPD*%
%LPC*%
G36*
X427065Y90169D02*
X427065Y90169D01*
X420245Y96989D01*
X420213Y97061D01*
X420175Y97106D01*
X420146Y97156D01*
X420084Y97214D01*
X420030Y97278D01*
X419981Y97310D01*
X419938Y97350D01*
X419863Y97389D01*
X419793Y97436D01*
X419737Y97453D01*
X419685Y97480D01*
X419617Y97491D01*
X419522Y97521D01*
X419422Y97524D01*
X419354Y97535D01*
X378307Y97535D01*
X378220Y97523D01*
X378133Y97520D01*
X378080Y97503D01*
X378025Y97495D01*
X377946Y97460D01*
X377862Y97433D01*
X377823Y97405D01*
X377766Y97379D01*
X377653Y97283D01*
X377589Y97238D01*
X372298Y91947D01*
X364302Y91947D01*
X358647Y97602D01*
X358647Y105598D01*
X364302Y111253D01*
X372298Y111253D01*
X377589Y105962D01*
X377659Y105910D01*
X377723Y105850D01*
X377772Y105824D01*
X377816Y105791D01*
X377898Y105760D01*
X377976Y105720D01*
X378023Y105712D01*
X378082Y105690D01*
X378229Y105678D01*
X378307Y105665D01*
X419354Y105665D01*
X419412Y105673D01*
X419470Y105671D01*
X419552Y105693D01*
X419636Y105705D01*
X419689Y105728D01*
X419745Y105743D01*
X419818Y105786D01*
X419895Y105821D01*
X419940Y105859D01*
X419990Y105888D01*
X420048Y105950D01*
X420112Y106004D01*
X420144Y106053D01*
X420184Y106096D01*
X420223Y106171D01*
X420257Y106223D01*
X427065Y113031D01*
X436535Y113031D01*
X443231Y106335D01*
X443231Y96865D01*
X436535Y90169D01*
X427065Y90169D01*
G37*
%LPD*%
%LPC*%
G36*
X427065Y115569D02*
X427065Y115569D01*
X420245Y122389D01*
X420213Y122461D01*
X420175Y122506D01*
X420146Y122556D01*
X420084Y122614D01*
X420030Y122678D01*
X419981Y122710D01*
X419938Y122750D01*
X419863Y122789D01*
X419793Y122836D01*
X419737Y122853D01*
X419685Y122880D01*
X419617Y122891D01*
X419522Y122921D01*
X419422Y122924D01*
X419354Y122935D01*
X378307Y122935D01*
X378220Y122923D01*
X378133Y122920D01*
X378080Y122903D01*
X378025Y122895D01*
X377946Y122860D01*
X377862Y122833D01*
X377823Y122805D01*
X377766Y122779D01*
X377653Y122683D01*
X377589Y122638D01*
X372298Y117347D01*
X364302Y117347D01*
X358647Y123002D01*
X358647Y130998D01*
X364302Y136653D01*
X372298Y136653D01*
X377589Y131362D01*
X377659Y131310D01*
X377723Y131250D01*
X377772Y131224D01*
X377816Y131191D01*
X377898Y131160D01*
X377976Y131120D01*
X378023Y131112D01*
X378082Y131090D01*
X378229Y131078D01*
X378307Y131065D01*
X419354Y131065D01*
X419412Y131073D01*
X419470Y131071D01*
X419552Y131093D01*
X419636Y131105D01*
X419689Y131128D01*
X419745Y131143D01*
X419818Y131186D01*
X419895Y131221D01*
X419940Y131259D01*
X419990Y131288D01*
X420048Y131350D01*
X420112Y131404D01*
X420144Y131453D01*
X420184Y131496D01*
X420223Y131571D01*
X420257Y131623D01*
X427065Y138431D01*
X436535Y138431D01*
X443231Y131735D01*
X443231Y122265D01*
X436535Y115569D01*
X427065Y115569D01*
G37*
%LPD*%
%LPC*%
G36*
X211749Y39814D02*
X211749Y39814D01*
X205314Y46249D01*
X205314Y55351D01*
X211749Y61786D01*
X220851Y61786D01*
X227286Y55351D01*
X227286Y46249D01*
X220851Y39814D01*
X211749Y39814D01*
G37*
%LPD*%
%LPC*%
G36*
X313502Y117347D02*
X313502Y117347D01*
X307847Y123002D01*
X307847Y130998D01*
X313502Y136653D01*
X321498Y136653D01*
X327153Y130998D01*
X327153Y123002D01*
X321498Y117347D01*
X313502Y117347D01*
G37*
%LPD*%
%LPC*%
G36*
X161102Y117347D02*
X161102Y117347D01*
X155447Y123002D01*
X155447Y130998D01*
X161102Y136653D01*
X169098Y136653D01*
X174753Y130998D01*
X174753Y123002D01*
X169098Y117347D01*
X161102Y117347D01*
G37*
%LPD*%
%LPC*%
G36*
X161102Y41147D02*
X161102Y41147D01*
X155447Y46802D01*
X155447Y54798D01*
X161102Y60453D01*
X169098Y60453D01*
X174753Y54798D01*
X174753Y46802D01*
X169098Y41147D01*
X161102Y41147D01*
G37*
%LPD*%
%LPC*%
G36*
X313502Y41147D02*
X313502Y41147D01*
X307847Y46802D01*
X307847Y54798D01*
X313502Y60453D01*
X321498Y60453D01*
X327153Y54798D01*
X327153Y46802D01*
X321498Y41147D01*
X313502Y41147D01*
G37*
%LPD*%
%LPC*%
G36*
X313502Y142747D02*
X313502Y142747D01*
X307847Y148402D01*
X307847Y156398D01*
X313502Y162053D01*
X321498Y162053D01*
X327153Y156398D01*
X327153Y148402D01*
X321498Y142747D01*
X313502Y142747D01*
G37*
%LPD*%
%LPC*%
G36*
X161102Y142747D02*
X161102Y142747D01*
X155447Y148402D01*
X155447Y156398D01*
X161102Y162053D01*
X169098Y162053D01*
X174753Y156398D01*
X174753Y148402D01*
X169098Y142747D01*
X161102Y142747D01*
G37*
%LPD*%
%LPC*%
G36*
X313502Y91947D02*
X313502Y91947D01*
X307847Y97602D01*
X307847Y105598D01*
X313502Y111253D01*
X321498Y111253D01*
X327153Y105598D01*
X327153Y97602D01*
X321498Y91947D01*
X313502Y91947D01*
G37*
%LPD*%
%LPC*%
G36*
X161102Y91947D02*
X161102Y91947D01*
X155447Y97602D01*
X155447Y105598D01*
X161102Y111253D01*
X169098Y111253D01*
X174753Y105598D01*
X174753Y97602D01*
X169098Y91947D01*
X161102Y91947D01*
G37*
%LPD*%
%LPC*%
G36*
X161102Y66547D02*
X161102Y66547D01*
X155447Y72202D01*
X155447Y80198D01*
X161102Y85853D01*
X169098Y85853D01*
X174753Y80198D01*
X174753Y72202D01*
X169098Y66547D01*
X161102Y66547D01*
G37*
%LPD*%
%LPC*%
G36*
X313502Y66547D02*
X313502Y66547D01*
X307847Y72202D01*
X307847Y80198D01*
X313502Y85853D01*
X321498Y85853D01*
X327153Y80198D01*
X327153Y72202D01*
X321498Y66547D01*
X313502Y66547D01*
G37*
%LPD*%
%LPC*%
G36*
X27431Y129031D02*
X27431Y129031D01*
X27431Y150369D01*
X37339Y150369D01*
X37339Y147455D01*
X30302Y140418D01*
X30267Y140371D01*
X30224Y140331D01*
X30182Y140258D01*
X30131Y140191D01*
X30110Y140136D01*
X30081Y140086D01*
X30060Y140004D01*
X30030Y139925D01*
X30025Y139867D01*
X30010Y139810D01*
X30013Y139726D01*
X30006Y139642D01*
X30018Y139584D01*
X30019Y139526D01*
X30045Y139446D01*
X30062Y139363D01*
X30089Y139311D01*
X30107Y139255D01*
X30147Y139199D01*
X30193Y139111D01*
X30262Y139038D01*
X30302Y138982D01*
X37339Y131945D01*
X37339Y129031D01*
X27431Y129031D01*
G37*
%LPD*%
%LPC*%
G36*
X27431Y78231D02*
X27431Y78231D01*
X27431Y99569D01*
X37339Y99569D01*
X37339Y96655D01*
X30302Y89618D01*
X30267Y89571D01*
X30224Y89531D01*
X30182Y89458D01*
X30131Y89391D01*
X30110Y89336D01*
X30081Y89286D01*
X30060Y89204D01*
X30030Y89125D01*
X30025Y89067D01*
X30010Y89010D01*
X30013Y88926D01*
X30006Y88842D01*
X30018Y88784D01*
X30019Y88726D01*
X30045Y88646D01*
X30062Y88563D01*
X30089Y88511D01*
X30107Y88455D01*
X30147Y88399D01*
X30193Y88311D01*
X30262Y88238D01*
X30302Y88182D01*
X37339Y81145D01*
X37339Y78231D01*
X27431Y78231D01*
G37*
%LPD*%
%LPC*%
G36*
X27431Y103631D02*
X27431Y103631D01*
X27431Y124969D01*
X37339Y124969D01*
X37339Y122055D01*
X30302Y115018D01*
X30267Y114971D01*
X30224Y114931D01*
X30182Y114858D01*
X30131Y114791D01*
X30110Y114736D01*
X30081Y114686D01*
X30060Y114604D01*
X30030Y114525D01*
X30025Y114467D01*
X30010Y114410D01*
X30013Y114326D01*
X30006Y114242D01*
X30018Y114184D01*
X30019Y114126D01*
X30045Y114046D01*
X30062Y113963D01*
X30089Y113911D01*
X30107Y113855D01*
X30147Y113799D01*
X30193Y113711D01*
X30262Y113638D01*
X30302Y113582D01*
X37339Y106545D01*
X37339Y103631D01*
X27431Y103631D01*
G37*
%LPD*%
%LPC*%
G36*
X459231Y78231D02*
X459231Y78231D01*
X459231Y99569D01*
X469139Y99569D01*
X469139Y96655D01*
X462102Y89618D01*
X462067Y89571D01*
X462024Y89531D01*
X461982Y89458D01*
X461931Y89391D01*
X461910Y89336D01*
X461881Y89286D01*
X461860Y89204D01*
X461830Y89125D01*
X461825Y89067D01*
X461810Y89010D01*
X461813Y88926D01*
X461806Y88842D01*
X461818Y88784D01*
X461819Y88726D01*
X461845Y88646D01*
X461862Y88563D01*
X461889Y88511D01*
X461907Y88455D01*
X461947Y88399D01*
X461993Y88311D01*
X462062Y88238D01*
X462102Y88182D01*
X469139Y81145D01*
X469139Y78231D01*
X459231Y78231D01*
G37*
%LPD*%
%LPC*%
G36*
X459231Y129031D02*
X459231Y129031D01*
X459231Y150369D01*
X469139Y150369D01*
X469139Y147455D01*
X462102Y140418D01*
X462067Y140371D01*
X462024Y140331D01*
X461982Y140258D01*
X461931Y140191D01*
X461910Y140136D01*
X461881Y140086D01*
X461860Y140004D01*
X461830Y139925D01*
X461825Y139867D01*
X461810Y139810D01*
X461813Y139726D01*
X461806Y139642D01*
X461818Y139584D01*
X461819Y139526D01*
X461845Y139446D01*
X461862Y139363D01*
X461889Y139311D01*
X461907Y139255D01*
X461947Y139199D01*
X461993Y139111D01*
X462062Y139038D01*
X462102Y138982D01*
X469139Y131945D01*
X469139Y129031D01*
X459231Y129031D01*
G37*
%LPD*%
%LPC*%
G36*
X459231Y103631D02*
X459231Y103631D01*
X459231Y124969D01*
X469139Y124969D01*
X469139Y122055D01*
X462102Y115018D01*
X462067Y114971D01*
X462024Y114931D01*
X461982Y114858D01*
X461931Y114791D01*
X461910Y114736D01*
X461881Y114686D01*
X461860Y114604D01*
X461830Y114525D01*
X461825Y114467D01*
X461810Y114410D01*
X461813Y114326D01*
X461806Y114242D01*
X461818Y114184D01*
X461819Y114126D01*
X461845Y114046D01*
X461862Y113963D01*
X461889Y113911D01*
X461907Y113855D01*
X461947Y113799D01*
X461993Y113711D01*
X462062Y113638D01*
X462102Y113582D01*
X469139Y106545D01*
X469139Y103631D01*
X459231Y103631D01*
G37*
%LPD*%
%LPC*%
G36*
X27431Y52831D02*
X27431Y52831D01*
X27431Y74169D01*
X37339Y74169D01*
X37339Y71255D01*
X30302Y64218D01*
X30267Y64171D01*
X30224Y64131D01*
X30182Y64058D01*
X30131Y63991D01*
X30110Y63936D01*
X30081Y63886D01*
X30060Y63804D01*
X30030Y63725D01*
X30025Y63667D01*
X30010Y63610D01*
X30013Y63526D01*
X30006Y63442D01*
X30018Y63384D01*
X30019Y63326D01*
X30045Y63246D01*
X30062Y63163D01*
X30089Y63111D01*
X30107Y63055D01*
X30147Y62999D01*
X30193Y62911D01*
X30261Y62839D01*
X30272Y62820D01*
X30280Y62813D01*
X30302Y62782D01*
X37339Y55745D01*
X37339Y52831D01*
X27431Y52831D01*
G37*
%LPD*%
%LPC*%
G36*
X459231Y52831D02*
X459231Y52831D01*
X459231Y74169D01*
X469139Y74169D01*
X469139Y71255D01*
X462102Y64218D01*
X462067Y64171D01*
X462024Y64131D01*
X461982Y64058D01*
X461931Y63991D01*
X461910Y63936D01*
X461881Y63886D01*
X461860Y63804D01*
X461830Y63725D01*
X461825Y63667D01*
X461810Y63610D01*
X461813Y63526D01*
X461806Y63442D01*
X461818Y63384D01*
X461819Y63326D01*
X461845Y63246D01*
X461862Y63163D01*
X461889Y63111D01*
X461907Y63055D01*
X461947Y62999D01*
X461993Y62911D01*
X462061Y62839D01*
X462072Y62820D01*
X462080Y62813D01*
X462102Y62782D01*
X469139Y55745D01*
X469139Y52831D01*
X459231Y52831D01*
G37*
%LPD*%
%LPC*%
G36*
X445261Y103631D02*
X445261Y103631D01*
X445261Y106545D01*
X452298Y113582D01*
X452333Y113629D01*
X452376Y113669D01*
X452418Y113742D01*
X452469Y113809D01*
X452490Y113864D01*
X452519Y113914D01*
X452540Y113996D01*
X452570Y114075D01*
X452575Y114133D01*
X452590Y114190D01*
X452587Y114274D01*
X452594Y114358D01*
X452582Y114416D01*
X452581Y114474D01*
X452555Y114554D01*
X452538Y114637D01*
X452511Y114689D01*
X452493Y114745D01*
X452453Y114801D01*
X452407Y114889D01*
X452338Y114962D01*
X452298Y115018D01*
X445261Y122055D01*
X445261Y124969D01*
X455169Y124969D01*
X455169Y103631D01*
X445261Y103631D01*
G37*
%LPD*%
%LPC*%
G36*
X445261Y78231D02*
X445261Y78231D01*
X445261Y81145D01*
X452298Y88182D01*
X452333Y88229D01*
X452376Y88269D01*
X452418Y88342D01*
X452469Y88409D01*
X452490Y88464D01*
X452519Y88514D01*
X452540Y88596D01*
X452570Y88675D01*
X452575Y88733D01*
X452590Y88790D01*
X452587Y88874D01*
X452594Y88958D01*
X452582Y89016D01*
X452581Y89074D01*
X452555Y89154D01*
X452538Y89237D01*
X452511Y89289D01*
X452493Y89345D01*
X452453Y89401D01*
X452407Y89489D01*
X452338Y89562D01*
X452298Y89618D01*
X445261Y96655D01*
X445261Y99569D01*
X455169Y99569D01*
X455169Y78231D01*
X445261Y78231D01*
G37*
%LPD*%
%LPC*%
G36*
X13461Y52831D02*
X13461Y52831D01*
X13461Y55745D01*
X20498Y62782D01*
X20533Y62829D01*
X20576Y62869D01*
X20618Y62942D01*
X20669Y63009D01*
X20690Y63064D01*
X20719Y63114D01*
X20740Y63196D01*
X20770Y63275D01*
X20775Y63333D01*
X20790Y63390D01*
X20787Y63474D01*
X20794Y63558D01*
X20782Y63616D01*
X20781Y63674D01*
X20755Y63754D01*
X20738Y63837D01*
X20711Y63889D01*
X20693Y63945D01*
X20653Y64001D01*
X20607Y64089D01*
X20538Y64162D01*
X20498Y64218D01*
X13461Y71255D01*
X13461Y74169D01*
X23369Y74169D01*
X23369Y52831D01*
X13461Y52831D01*
G37*
%LPD*%
%LPC*%
G36*
X445261Y129031D02*
X445261Y129031D01*
X445261Y131945D01*
X452298Y138982D01*
X452333Y139029D01*
X452376Y139069D01*
X452418Y139142D01*
X452469Y139209D01*
X452490Y139264D01*
X452519Y139314D01*
X452540Y139396D01*
X452570Y139475D01*
X452575Y139533D01*
X452590Y139590D01*
X452587Y139674D01*
X452594Y139758D01*
X452582Y139816D01*
X452581Y139874D01*
X452555Y139954D01*
X452538Y140037D01*
X452511Y140089D01*
X452493Y140145D01*
X452453Y140201D01*
X452407Y140289D01*
X452338Y140362D01*
X452298Y140418D01*
X445261Y147455D01*
X445261Y150369D01*
X455169Y150369D01*
X455169Y129031D01*
X445261Y129031D01*
G37*
%LPD*%
%LPC*%
G36*
X445261Y52831D02*
X445261Y52831D01*
X445261Y55745D01*
X452298Y62782D01*
X452333Y62829D01*
X452376Y62869D01*
X452418Y62942D01*
X452469Y63009D01*
X452490Y63064D01*
X452519Y63114D01*
X452540Y63196D01*
X452570Y63275D01*
X452575Y63333D01*
X452590Y63390D01*
X452587Y63474D01*
X452594Y63558D01*
X452582Y63616D01*
X452581Y63674D01*
X452555Y63754D01*
X452538Y63837D01*
X452511Y63889D01*
X452493Y63945D01*
X452453Y64001D01*
X452407Y64089D01*
X452338Y64162D01*
X452298Y64218D01*
X445261Y71255D01*
X445261Y74169D01*
X455169Y74169D01*
X455169Y52831D01*
X445261Y52831D01*
G37*
%LPD*%
%LPC*%
G36*
X13461Y103631D02*
X13461Y103631D01*
X13461Y106545D01*
X20498Y113582D01*
X20533Y113629D01*
X20576Y113669D01*
X20618Y113742D01*
X20669Y113809D01*
X20690Y113864D01*
X20719Y113914D01*
X20740Y113996D01*
X20770Y114075D01*
X20775Y114133D01*
X20790Y114190D01*
X20787Y114274D01*
X20794Y114358D01*
X20782Y114416D01*
X20781Y114474D01*
X20755Y114554D01*
X20738Y114637D01*
X20711Y114689D01*
X20693Y114745D01*
X20653Y114801D01*
X20607Y114889D01*
X20538Y114962D01*
X20498Y115018D01*
X13461Y122055D01*
X13461Y124969D01*
X23369Y124969D01*
X23369Y103631D01*
X13461Y103631D01*
G37*
%LPD*%
%LPC*%
G36*
X13461Y78231D02*
X13461Y78231D01*
X13461Y81145D01*
X20498Y88182D01*
X20533Y88229D01*
X20576Y88269D01*
X20618Y88342D01*
X20669Y88409D01*
X20690Y88464D01*
X20719Y88514D01*
X20740Y88596D01*
X20770Y88675D01*
X20775Y88733D01*
X20790Y88790D01*
X20787Y88874D01*
X20794Y88958D01*
X20782Y89016D01*
X20781Y89074D01*
X20755Y89154D01*
X20738Y89237D01*
X20711Y89289D01*
X20693Y89345D01*
X20653Y89401D01*
X20607Y89489D01*
X20538Y89562D01*
X20498Y89618D01*
X13461Y96655D01*
X13461Y99569D01*
X23369Y99569D01*
X23369Y78231D01*
X13461Y78231D01*
G37*
%LPD*%
%LPC*%
G36*
X13461Y129031D02*
X13461Y129031D01*
X13461Y131945D01*
X20498Y138982D01*
X20533Y139029D01*
X20576Y139069D01*
X20618Y139142D01*
X20669Y139209D01*
X20690Y139264D01*
X20719Y139314D01*
X20740Y139396D01*
X20770Y139475D01*
X20775Y139533D01*
X20790Y139590D01*
X20787Y139674D01*
X20794Y139758D01*
X20782Y139816D01*
X20781Y139874D01*
X20755Y139954D01*
X20738Y140037D01*
X20711Y140089D01*
X20693Y140145D01*
X20653Y140201D01*
X20607Y140289D01*
X20538Y140362D01*
X20498Y140418D01*
X13461Y147455D01*
X13461Y150369D01*
X23369Y150369D01*
X23369Y129031D01*
X13461Y129031D01*
G37*
%LPD*%
%LPC*%
G36*
X459231Y154431D02*
X459231Y154431D01*
X459231Y164339D01*
X462145Y164339D01*
X469139Y157345D01*
X469139Y154431D01*
X459231Y154431D01*
G37*
%LPD*%
%LPC*%
G36*
X27431Y154431D02*
X27431Y154431D01*
X27431Y164339D01*
X30345Y164339D01*
X37339Y157345D01*
X37339Y154431D01*
X27431Y154431D01*
G37*
%LPD*%
%LPC*%
G36*
X445261Y154431D02*
X445261Y154431D01*
X445261Y157345D01*
X452255Y164339D01*
X455169Y164339D01*
X455169Y154431D01*
X445261Y154431D01*
G37*
%LPD*%
%LPC*%
G36*
X27431Y38861D02*
X27431Y38861D01*
X27431Y48769D01*
X37339Y48769D01*
X37339Y45855D01*
X30345Y38861D01*
X27431Y38861D01*
G37*
%LPD*%
%LPC*%
G36*
X13461Y154431D02*
X13461Y154431D01*
X13461Y157345D01*
X20455Y164339D01*
X23369Y164339D01*
X23369Y154431D01*
X13461Y154431D01*
G37*
%LPD*%
%LPC*%
G36*
X459231Y38861D02*
X459231Y38861D01*
X459231Y48769D01*
X469139Y48769D01*
X469139Y45855D01*
X462145Y38861D01*
X459231Y38861D01*
G37*
%LPD*%
%LPC*%
G36*
X20455Y38861D02*
X20455Y38861D01*
X13461Y45855D01*
X13461Y48769D01*
X23369Y48769D01*
X23369Y38861D01*
X20455Y38861D01*
G37*
%LPD*%
%LPC*%
G36*
X452255Y38861D02*
X452255Y38861D01*
X445261Y45855D01*
X445261Y48769D01*
X455169Y48769D01*
X455169Y38861D01*
X452255Y38861D01*
G37*
%LPD*%
%LPC*%
G36*
X268331Y52831D02*
X268331Y52831D01*
X268331Y62294D01*
X271061Y62294D01*
X277794Y55561D01*
X277794Y52831D01*
X268331Y52831D01*
G37*
%LPD*%
%LPC*%
G36*
X254806Y52831D02*
X254806Y52831D01*
X254806Y55561D01*
X261539Y62294D01*
X264269Y62294D01*
X264269Y52831D01*
X254806Y52831D01*
G37*
%LPD*%
%LPC*%
G36*
X268331Y39306D02*
X268331Y39306D01*
X268331Y48769D01*
X277794Y48769D01*
X277794Y46039D01*
X271061Y39306D01*
X268331Y39306D01*
G37*
%LPD*%
%LPC*%
G36*
X261539Y39306D02*
X261539Y39306D01*
X254806Y46039D01*
X254806Y48769D01*
X264269Y48769D01*
X264269Y39306D01*
X261539Y39306D01*
G37*
%LPD*%
%LPC*%
G36*
X344931Y103631D02*
X344931Y103631D01*
X344931Y111761D01*
X347109Y111761D01*
X353061Y105809D01*
X353061Y103631D01*
X344931Y103631D01*
G37*
%LPD*%
%LPC*%
G36*
X344931Y154431D02*
X344931Y154431D01*
X344931Y162561D01*
X347109Y162561D01*
X353061Y156609D01*
X353061Y154431D01*
X344931Y154431D01*
G37*
%LPD*%
%LPC*%
G36*
X141731Y129031D02*
X141731Y129031D01*
X141731Y137161D01*
X143909Y137161D01*
X149861Y131209D01*
X149861Y129031D01*
X141731Y129031D01*
G37*
%LPD*%
%LPC*%
G36*
X344931Y129031D02*
X344931Y129031D01*
X344931Y137161D01*
X347109Y137161D01*
X353061Y131209D01*
X353061Y129031D01*
X344931Y129031D01*
G37*
%LPD*%
%LPC*%
G36*
X141731Y154431D02*
X141731Y154431D01*
X141731Y162561D01*
X143909Y162561D01*
X149861Y156609D01*
X149861Y154431D01*
X141731Y154431D01*
G37*
%LPD*%
%LPC*%
G36*
X141731Y52831D02*
X141731Y52831D01*
X141731Y60961D01*
X143909Y60961D01*
X149861Y55009D01*
X149861Y52831D01*
X141731Y52831D01*
G37*
%LPD*%
%LPC*%
G36*
X344931Y52831D02*
X344931Y52831D01*
X344931Y60961D01*
X347109Y60961D01*
X353061Y55009D01*
X353061Y52831D01*
X344931Y52831D01*
G37*
%LPD*%
%LPC*%
G36*
X141731Y78231D02*
X141731Y78231D01*
X141731Y86361D01*
X143909Y86361D01*
X149861Y80409D01*
X149861Y78231D01*
X141731Y78231D01*
G37*
%LPD*%
%LPC*%
G36*
X344931Y78231D02*
X344931Y78231D01*
X344931Y86361D01*
X347109Y86361D01*
X353061Y80409D01*
X353061Y78231D01*
X344931Y78231D01*
G37*
%LPD*%
%LPC*%
G36*
X141731Y103631D02*
X141731Y103631D01*
X141731Y111761D01*
X143909Y111761D01*
X149861Y105809D01*
X149861Y103631D01*
X141731Y103631D01*
G37*
%LPD*%
%LPC*%
G36*
X129539Y154431D02*
X129539Y154431D01*
X129539Y156609D01*
X135491Y162561D01*
X137669Y162561D01*
X137669Y154431D01*
X129539Y154431D01*
G37*
%LPD*%
%LPC*%
G36*
X129539Y78231D02*
X129539Y78231D01*
X129539Y80409D01*
X135491Y86361D01*
X137669Y86361D01*
X137669Y78231D01*
X129539Y78231D01*
G37*
%LPD*%
%LPC*%
G36*
X332739Y154431D02*
X332739Y154431D01*
X332739Y156609D01*
X338691Y162561D01*
X340869Y162561D01*
X340869Y154431D01*
X332739Y154431D01*
G37*
%LPD*%
%LPC*%
G36*
X129539Y129031D02*
X129539Y129031D01*
X129539Y131209D01*
X135491Y137161D01*
X137669Y137161D01*
X137669Y129031D01*
X129539Y129031D01*
G37*
%LPD*%
%LPC*%
G36*
X332739Y78231D02*
X332739Y78231D01*
X332739Y80409D01*
X338691Y86361D01*
X340869Y86361D01*
X340869Y78231D01*
X332739Y78231D01*
G37*
%LPD*%
%LPC*%
G36*
X332739Y129031D02*
X332739Y129031D01*
X332739Y131209D01*
X338691Y137161D01*
X340869Y137161D01*
X340869Y129031D01*
X332739Y129031D01*
G37*
%LPD*%
%LPC*%
G36*
X129539Y103631D02*
X129539Y103631D01*
X129539Y105809D01*
X135491Y111761D01*
X137669Y111761D01*
X137669Y103631D01*
X129539Y103631D01*
G37*
%LPD*%
%LPC*%
G36*
X332739Y103631D02*
X332739Y103631D01*
X332739Y105809D01*
X338691Y111761D01*
X340869Y111761D01*
X340869Y103631D01*
X332739Y103631D01*
G37*
%LPD*%
%LPC*%
G36*
X129539Y52831D02*
X129539Y52831D01*
X129539Y55009D01*
X135491Y60961D01*
X137669Y60961D01*
X137669Y52831D01*
X129539Y52831D01*
G37*
%LPD*%
%LPC*%
G36*
X332739Y52831D02*
X332739Y52831D01*
X332739Y55009D01*
X338691Y60961D01*
X340869Y60961D01*
X340869Y52831D01*
X332739Y52831D01*
G37*
%LPD*%
%LPC*%
G36*
X141731Y116839D02*
X141731Y116839D01*
X141731Y124969D01*
X149861Y124969D01*
X149861Y122791D01*
X143909Y116839D01*
X141731Y116839D01*
G37*
%LPD*%
%LPC*%
G36*
X344931Y116839D02*
X344931Y116839D01*
X344931Y124969D01*
X353061Y124969D01*
X353061Y122791D01*
X347109Y116839D01*
X344931Y116839D01*
G37*
%LPD*%
%LPC*%
G36*
X141731Y91439D02*
X141731Y91439D01*
X141731Y99569D01*
X149861Y99569D01*
X149861Y97391D01*
X143909Y91439D01*
X141731Y91439D01*
G37*
%LPD*%
%LPC*%
G36*
X344931Y91439D02*
X344931Y91439D01*
X344931Y99569D01*
X353061Y99569D01*
X353061Y97391D01*
X347109Y91439D01*
X344931Y91439D01*
G37*
%LPD*%
%LPC*%
G36*
X344931Y66039D02*
X344931Y66039D01*
X344931Y74169D01*
X353061Y74169D01*
X353061Y71991D01*
X347109Y66039D01*
X344931Y66039D01*
G37*
%LPD*%
%LPC*%
G36*
X141731Y66039D02*
X141731Y66039D01*
X141731Y74169D01*
X149861Y74169D01*
X149861Y71991D01*
X143909Y66039D01*
X141731Y66039D01*
G37*
%LPD*%
%LPC*%
G36*
X344931Y40639D02*
X344931Y40639D01*
X344931Y48769D01*
X353061Y48769D01*
X353061Y46591D01*
X347109Y40639D01*
X344931Y40639D01*
G37*
%LPD*%
%LPC*%
G36*
X141731Y142239D02*
X141731Y142239D01*
X141731Y150369D01*
X149861Y150369D01*
X149861Y148191D01*
X143909Y142239D01*
X141731Y142239D01*
G37*
%LPD*%
%LPC*%
G36*
X344931Y142239D02*
X344931Y142239D01*
X344931Y150369D01*
X353061Y150369D01*
X353061Y148191D01*
X347109Y142239D01*
X344931Y142239D01*
G37*
%LPD*%
%LPC*%
G36*
X141731Y40639D02*
X141731Y40639D01*
X141731Y48769D01*
X149861Y48769D01*
X149861Y46591D01*
X143909Y40639D01*
X141731Y40639D01*
G37*
%LPD*%
%LPC*%
G36*
X338691Y66039D02*
X338691Y66039D01*
X332739Y71991D01*
X332739Y74169D01*
X340869Y74169D01*
X340869Y66039D01*
X338691Y66039D01*
G37*
%LPD*%
%LPC*%
G36*
X135491Y66039D02*
X135491Y66039D01*
X129539Y71991D01*
X129539Y74169D01*
X137669Y74169D01*
X137669Y66039D01*
X135491Y66039D01*
G37*
%LPD*%
%LPC*%
G36*
X135491Y91439D02*
X135491Y91439D01*
X129539Y97391D01*
X129539Y99569D01*
X137669Y99569D01*
X137669Y91439D01*
X135491Y91439D01*
G37*
%LPD*%
%LPC*%
G36*
X135491Y116839D02*
X135491Y116839D01*
X129539Y122791D01*
X129539Y124969D01*
X137669Y124969D01*
X137669Y116839D01*
X135491Y116839D01*
G37*
%LPD*%
%LPC*%
G36*
X338691Y116839D02*
X338691Y116839D01*
X332739Y122791D01*
X332739Y124969D01*
X340869Y124969D01*
X340869Y116839D01*
X338691Y116839D01*
G37*
%LPD*%
%LPC*%
G36*
X338691Y91439D02*
X338691Y91439D01*
X332739Y97391D01*
X332739Y99569D01*
X340869Y99569D01*
X340869Y91439D01*
X338691Y91439D01*
G37*
%LPD*%
%LPC*%
G36*
X338691Y142239D02*
X338691Y142239D01*
X332739Y148191D01*
X332739Y150369D01*
X340869Y150369D01*
X340869Y142239D01*
X338691Y142239D01*
G37*
%LPD*%
%LPC*%
G36*
X135491Y40639D02*
X135491Y40639D01*
X129539Y46591D01*
X129539Y48769D01*
X137669Y48769D01*
X137669Y40639D01*
X135491Y40639D01*
G37*
%LPD*%
%LPC*%
G36*
X135491Y142239D02*
X135491Y142239D01*
X129539Y148191D01*
X129539Y150369D01*
X137669Y150369D01*
X137669Y142239D01*
X135491Y142239D01*
G37*
%LPD*%
%LPC*%
G36*
X338691Y40639D02*
X338691Y40639D01*
X332739Y46591D01*
X332739Y48769D01*
X340869Y48769D01*
X340869Y40639D01*
X338691Y40639D01*
G37*
%LPD*%
%LPC*%
G36*
X139699Y101599D02*
X139699Y101599D01*
X139699Y101601D01*
X139701Y101601D01*
X139701Y101599D01*
X139699Y101599D01*
G37*
%LPD*%
%LPC*%
G36*
X342899Y152399D02*
X342899Y152399D01*
X342899Y152401D01*
X342901Y152401D01*
X342901Y152399D01*
X342899Y152399D01*
G37*
%LPD*%
%LPC*%
G36*
X342899Y101599D02*
X342899Y101599D01*
X342899Y101601D01*
X342901Y101601D01*
X342901Y101599D01*
X342899Y101599D01*
G37*
%LPD*%
%LPC*%
G36*
X25399Y126999D02*
X25399Y126999D01*
X25399Y127001D01*
X25401Y127001D01*
X25401Y126999D01*
X25399Y126999D01*
G37*
%LPD*%
%LPC*%
G36*
X139699Y126999D02*
X139699Y126999D01*
X139699Y127001D01*
X139701Y127001D01*
X139701Y126999D01*
X139699Y126999D01*
G37*
%LPD*%
%LPC*%
G36*
X342899Y126999D02*
X342899Y126999D01*
X342899Y127001D01*
X342901Y127001D01*
X342901Y126999D01*
X342899Y126999D01*
G37*
%LPD*%
%LPC*%
G36*
X457199Y126999D02*
X457199Y126999D01*
X457199Y127001D01*
X457201Y127001D01*
X457201Y126999D01*
X457199Y126999D01*
G37*
%LPD*%
%LPC*%
G36*
X457199Y101599D02*
X457199Y101599D01*
X457199Y101601D01*
X457201Y101601D01*
X457201Y101599D01*
X457199Y101599D01*
G37*
%LPD*%
%LPC*%
G36*
X457199Y152399D02*
X457199Y152399D01*
X457199Y152401D01*
X457201Y152401D01*
X457201Y152399D01*
X457199Y152399D01*
G37*
%LPD*%
%LPC*%
G36*
X342899Y50799D02*
X342899Y50799D01*
X342899Y50801D01*
X342901Y50801D01*
X342901Y50799D01*
X342899Y50799D01*
G37*
%LPD*%
%LPC*%
G36*
X266299Y50799D02*
X266299Y50799D01*
X266299Y50801D01*
X266301Y50801D01*
X266301Y50799D01*
X266299Y50799D01*
G37*
%LPD*%
%LPC*%
G36*
X139699Y50799D02*
X139699Y50799D01*
X139699Y50801D01*
X139701Y50801D01*
X139701Y50799D01*
X139699Y50799D01*
G37*
%LPD*%
%LPC*%
G36*
X25399Y50799D02*
X25399Y50799D01*
X25399Y50801D01*
X25401Y50801D01*
X25401Y50799D01*
X25399Y50799D01*
G37*
%LPD*%
%LPC*%
G36*
X139699Y76199D02*
X139699Y76199D01*
X139699Y76201D01*
X139701Y76201D01*
X139701Y76199D01*
X139699Y76199D01*
G37*
%LPD*%
%LPC*%
G36*
X25399Y76199D02*
X25399Y76199D01*
X25399Y76201D01*
X25401Y76201D01*
X25401Y76199D01*
X25399Y76199D01*
G37*
%LPD*%
%LPC*%
G36*
X457199Y76199D02*
X457199Y76199D01*
X457199Y76201D01*
X457201Y76201D01*
X457201Y76199D01*
X457199Y76199D01*
G37*
%LPD*%
%LPC*%
G36*
X342899Y76199D02*
X342899Y76199D01*
X342899Y76201D01*
X342901Y76201D01*
X342901Y76199D01*
X342899Y76199D01*
G37*
%LPD*%
%LPC*%
G36*
X25399Y152399D02*
X25399Y152399D01*
X25399Y152401D01*
X25401Y152401D01*
X25401Y152399D01*
X25399Y152399D01*
G37*
%LPD*%
%LPC*%
G36*
X139699Y152399D02*
X139699Y152399D01*
X139699Y152401D01*
X139701Y152401D01*
X139701Y152399D01*
X139699Y152399D01*
G37*
%LPD*%
%LPC*%
G36*
X25399Y101599D02*
X25399Y101599D01*
X25399Y101601D01*
X25401Y101601D01*
X25401Y101599D01*
X25399Y101599D01*
G37*
%LPD*%
%LPC*%
G36*
X457199Y50799D02*
X457199Y50799D01*
X457199Y50801D01*
X457201Y50801D01*
X457201Y50799D01*
X457199Y50799D01*
G37*
%LPD*%
D10*
X165100Y152400D03*
X165100Y127000D03*
X165100Y101600D03*
X165100Y76200D03*
X165100Y50800D03*
X139700Y152400D03*
X139700Y127000D03*
X139700Y101600D03*
X139700Y76200D03*
X139700Y50800D03*
D11*
X114300Y50800D03*
X114300Y76200D03*
X114300Y101600D03*
X114300Y127000D03*
X114300Y152400D03*
X317500Y50800D03*
X317500Y76200D03*
X317500Y101600D03*
X317500Y127000D03*
X317500Y152400D03*
X342900Y50800D03*
X342900Y76200D03*
X342900Y101600D03*
X342900Y127000D03*
X342900Y152400D03*
X368300Y50800D03*
X368300Y76200D03*
X368300Y101600D03*
X368300Y127000D03*
X368300Y152400D03*
D12*
X216300Y50800D03*
X266300Y50800D03*
D13*
X50800Y50800D03*
X25400Y50800D03*
X50800Y76200D03*
X25400Y76200D03*
X50800Y101600D03*
X25400Y101600D03*
X50800Y127000D03*
X25400Y127000D03*
X50800Y152400D03*
X25400Y152400D03*
D14*
X431800Y152400D03*
X457200Y152400D03*
X431800Y127000D03*
X457200Y127000D03*
X431800Y101600D03*
X457200Y101600D03*
X431800Y76200D03*
X457200Y76200D03*
X431800Y50800D03*
X457200Y50800D03*
D15*
X114300Y50800D02*
X50800Y50800D01*
X50800Y76200D02*
X114300Y76200D01*
X114300Y101600D02*
X50800Y101600D01*
X50800Y127000D02*
X114300Y127000D01*
X114300Y152400D02*
X50800Y152400D01*
X368300Y50800D02*
X431800Y50800D01*
X431800Y76200D02*
X368300Y76200D01*
X368300Y101600D02*
X431800Y101600D01*
X431800Y127000D02*
X368300Y127000D01*
X368300Y152400D02*
X431800Y152400D01*
M02*
