G75*
%MOIN*%
%OFA0B0*%
%FSLAX25Y25*%
%IPPOS*%
%LPD*%
%AMOC8*
5,1,8,0,0,1.08239X$1,22.5*
%
%ADD10C,0.00600*%
%ADD11C,0.00200*%
%ADD12C,0.00800*%
%ADD13C,0.00500*%
D10*
X0087430Y0015824D02*
X0091697Y0015824D01*
X0089564Y0013691D02*
X0089564Y0017958D01*
X0095048Y0018654D02*
X0095048Y0044654D01*
X0095048Y0045453D01*
X0134347Y0045453D01*
X0134347Y0044654D01*
X0134347Y0018654D01*
X0134347Y0009252D01*
X0095048Y0009252D01*
X0095048Y0018654D01*
X0101347Y0018654D01*
X0108347Y0018654D02*
X0121048Y0018654D01*
X0128048Y0018654D02*
X0134347Y0018654D01*
X0138611Y0017793D02*
X0142878Y0017793D01*
X0122547Y0039452D02*
X0122549Y0039541D01*
X0122555Y0039630D01*
X0122565Y0039719D01*
X0122579Y0039807D01*
X0122596Y0039894D01*
X0122618Y0039980D01*
X0122644Y0040066D01*
X0122673Y0040150D01*
X0122706Y0040233D01*
X0122742Y0040314D01*
X0122783Y0040394D01*
X0122826Y0040471D01*
X0122873Y0040547D01*
X0122924Y0040620D01*
X0122977Y0040691D01*
X0123034Y0040760D01*
X0123094Y0040826D01*
X0123157Y0040890D01*
X0123222Y0040950D01*
X0123290Y0041008D01*
X0123361Y0041062D01*
X0123434Y0041113D01*
X0123509Y0041161D01*
X0123586Y0041206D01*
X0123665Y0041247D01*
X0123746Y0041284D01*
X0123828Y0041318D01*
X0123912Y0041349D01*
X0123997Y0041375D01*
X0124083Y0041398D01*
X0124170Y0041416D01*
X0124258Y0041431D01*
X0124347Y0041442D01*
X0124436Y0041449D01*
X0124525Y0041452D01*
X0124614Y0041451D01*
X0124703Y0041446D01*
X0124791Y0041437D01*
X0124880Y0041424D01*
X0124967Y0041407D01*
X0125054Y0041387D01*
X0125140Y0041362D01*
X0125224Y0041334D01*
X0125307Y0041302D01*
X0125389Y0041266D01*
X0125469Y0041227D01*
X0125547Y0041184D01*
X0125623Y0041138D01*
X0125697Y0041088D01*
X0125769Y0041035D01*
X0125838Y0040979D01*
X0125905Y0040920D01*
X0125969Y0040858D01*
X0126030Y0040794D01*
X0126089Y0040726D01*
X0126144Y0040656D01*
X0126196Y0040584D01*
X0126245Y0040509D01*
X0126290Y0040433D01*
X0126332Y0040354D01*
X0126370Y0040274D01*
X0126405Y0040192D01*
X0126436Y0040108D01*
X0126464Y0040023D01*
X0126487Y0039937D01*
X0126507Y0039850D01*
X0126523Y0039763D01*
X0126535Y0039674D01*
X0126543Y0039586D01*
X0126547Y0039497D01*
X0126547Y0039407D01*
X0126543Y0039318D01*
X0126535Y0039230D01*
X0126523Y0039141D01*
X0126507Y0039054D01*
X0126487Y0038967D01*
X0126464Y0038881D01*
X0126436Y0038796D01*
X0126405Y0038712D01*
X0126370Y0038630D01*
X0126332Y0038550D01*
X0126290Y0038471D01*
X0126245Y0038395D01*
X0126196Y0038320D01*
X0126144Y0038248D01*
X0126089Y0038178D01*
X0126030Y0038110D01*
X0125969Y0038046D01*
X0125905Y0037984D01*
X0125838Y0037925D01*
X0125769Y0037869D01*
X0125697Y0037816D01*
X0125623Y0037766D01*
X0125547Y0037720D01*
X0125469Y0037677D01*
X0125389Y0037638D01*
X0125307Y0037602D01*
X0125224Y0037570D01*
X0125140Y0037542D01*
X0125054Y0037517D01*
X0124967Y0037497D01*
X0124880Y0037480D01*
X0124791Y0037467D01*
X0124703Y0037458D01*
X0124614Y0037453D01*
X0124525Y0037452D01*
X0124436Y0037455D01*
X0124347Y0037462D01*
X0124258Y0037473D01*
X0124170Y0037488D01*
X0124083Y0037506D01*
X0123997Y0037529D01*
X0123912Y0037555D01*
X0123828Y0037586D01*
X0123746Y0037620D01*
X0123665Y0037657D01*
X0123586Y0037698D01*
X0123509Y0037743D01*
X0123434Y0037791D01*
X0123361Y0037842D01*
X0123290Y0037896D01*
X0123222Y0037954D01*
X0123157Y0038014D01*
X0123094Y0038078D01*
X0123034Y0038144D01*
X0122977Y0038213D01*
X0122924Y0038284D01*
X0122873Y0038357D01*
X0122826Y0038433D01*
X0122783Y0038510D01*
X0122742Y0038590D01*
X0122706Y0038671D01*
X0122673Y0038754D01*
X0122644Y0038838D01*
X0122618Y0038924D01*
X0122596Y0039010D01*
X0122579Y0039097D01*
X0122565Y0039185D01*
X0122555Y0039274D01*
X0122549Y0039363D01*
X0122547Y0039452D01*
X0134347Y0044654D02*
X0095048Y0044654D01*
X0102847Y0039452D02*
X0102849Y0039541D01*
X0102855Y0039630D01*
X0102865Y0039719D01*
X0102879Y0039807D01*
X0102896Y0039894D01*
X0102918Y0039980D01*
X0102944Y0040066D01*
X0102973Y0040150D01*
X0103006Y0040233D01*
X0103042Y0040314D01*
X0103083Y0040394D01*
X0103126Y0040471D01*
X0103173Y0040547D01*
X0103224Y0040620D01*
X0103277Y0040691D01*
X0103334Y0040760D01*
X0103394Y0040826D01*
X0103457Y0040890D01*
X0103522Y0040950D01*
X0103590Y0041008D01*
X0103661Y0041062D01*
X0103734Y0041113D01*
X0103809Y0041161D01*
X0103886Y0041206D01*
X0103965Y0041247D01*
X0104046Y0041284D01*
X0104128Y0041318D01*
X0104212Y0041349D01*
X0104297Y0041375D01*
X0104383Y0041398D01*
X0104470Y0041416D01*
X0104558Y0041431D01*
X0104647Y0041442D01*
X0104736Y0041449D01*
X0104825Y0041452D01*
X0104914Y0041451D01*
X0105003Y0041446D01*
X0105091Y0041437D01*
X0105180Y0041424D01*
X0105267Y0041407D01*
X0105354Y0041387D01*
X0105440Y0041362D01*
X0105524Y0041334D01*
X0105607Y0041302D01*
X0105689Y0041266D01*
X0105769Y0041227D01*
X0105847Y0041184D01*
X0105923Y0041138D01*
X0105997Y0041088D01*
X0106069Y0041035D01*
X0106138Y0040979D01*
X0106205Y0040920D01*
X0106269Y0040858D01*
X0106330Y0040794D01*
X0106389Y0040726D01*
X0106444Y0040656D01*
X0106496Y0040584D01*
X0106545Y0040509D01*
X0106590Y0040433D01*
X0106632Y0040354D01*
X0106670Y0040274D01*
X0106705Y0040192D01*
X0106736Y0040108D01*
X0106764Y0040023D01*
X0106787Y0039937D01*
X0106807Y0039850D01*
X0106823Y0039763D01*
X0106835Y0039674D01*
X0106843Y0039586D01*
X0106847Y0039497D01*
X0106847Y0039407D01*
X0106843Y0039318D01*
X0106835Y0039230D01*
X0106823Y0039141D01*
X0106807Y0039054D01*
X0106787Y0038967D01*
X0106764Y0038881D01*
X0106736Y0038796D01*
X0106705Y0038712D01*
X0106670Y0038630D01*
X0106632Y0038550D01*
X0106590Y0038471D01*
X0106545Y0038395D01*
X0106496Y0038320D01*
X0106444Y0038248D01*
X0106389Y0038178D01*
X0106330Y0038110D01*
X0106269Y0038046D01*
X0106205Y0037984D01*
X0106138Y0037925D01*
X0106069Y0037869D01*
X0105997Y0037816D01*
X0105923Y0037766D01*
X0105847Y0037720D01*
X0105769Y0037677D01*
X0105689Y0037638D01*
X0105607Y0037602D01*
X0105524Y0037570D01*
X0105440Y0037542D01*
X0105354Y0037517D01*
X0105267Y0037497D01*
X0105180Y0037480D01*
X0105091Y0037467D01*
X0105003Y0037458D01*
X0104914Y0037453D01*
X0104825Y0037452D01*
X0104736Y0037455D01*
X0104647Y0037462D01*
X0104558Y0037473D01*
X0104470Y0037488D01*
X0104383Y0037506D01*
X0104297Y0037529D01*
X0104212Y0037555D01*
X0104128Y0037586D01*
X0104046Y0037620D01*
X0103965Y0037657D01*
X0103886Y0037698D01*
X0103809Y0037743D01*
X0103734Y0037791D01*
X0103661Y0037842D01*
X0103590Y0037896D01*
X0103522Y0037954D01*
X0103457Y0038014D01*
X0103394Y0038078D01*
X0103334Y0038144D01*
X0103277Y0038213D01*
X0103224Y0038284D01*
X0103173Y0038357D01*
X0103126Y0038433D01*
X0103083Y0038510D01*
X0103042Y0038590D01*
X0103006Y0038671D01*
X0102973Y0038754D01*
X0102944Y0038838D01*
X0102918Y0038924D01*
X0102896Y0039010D01*
X0102879Y0039097D01*
X0102865Y0039185D01*
X0102855Y0039274D01*
X0102849Y0039363D01*
X0102847Y0039452D01*
D11*
X0060163Y0020809D02*
X0060163Y0019041D01*
X0060654Y0019041D02*
X0059671Y0019041D01*
X0059671Y0020416D02*
X0060163Y0020809D01*
X0169908Y0018448D02*
X0170399Y0018841D01*
X0170399Y0017072D01*
X0169908Y0017072D02*
X0170890Y0017072D01*
X0172514Y0017319D02*
X0172544Y0017385D01*
X0172571Y0017454D01*
X0172595Y0017523D01*
X0172615Y0017594D01*
X0172631Y0017665D01*
X0172644Y0017738D01*
X0172654Y0017810D01*
X0172659Y0017884D01*
X0172661Y0017957D01*
X0171680Y0017957D02*
X0171682Y0018030D01*
X0171687Y0018104D01*
X0171697Y0018176D01*
X0171710Y0018249D01*
X0171726Y0018320D01*
X0171746Y0018391D01*
X0171770Y0018460D01*
X0171797Y0018529D01*
X0171827Y0018595D01*
X0171826Y0018595D02*
X0171840Y0018630D01*
X0171857Y0018663D01*
X0171878Y0018694D01*
X0171902Y0018723D01*
X0171929Y0018750D01*
X0171958Y0018773D01*
X0171990Y0018793D01*
X0172024Y0018810D01*
X0172059Y0018824D01*
X0172095Y0018833D01*
X0172132Y0018839D01*
X0172170Y0018841D01*
X0172208Y0018839D01*
X0172245Y0018833D01*
X0172281Y0018824D01*
X0172316Y0018810D01*
X0172350Y0018793D01*
X0172382Y0018773D01*
X0172411Y0018750D01*
X0172438Y0018723D01*
X0172462Y0018695D01*
X0172483Y0018663D01*
X0172500Y0018630D01*
X0172514Y0018595D01*
X0172563Y0018448D02*
X0171777Y0017465D01*
X0172170Y0017072D02*
X0172208Y0017074D01*
X0172245Y0017080D01*
X0172281Y0017089D01*
X0172316Y0017103D01*
X0172350Y0017120D01*
X0172382Y0017140D01*
X0172411Y0017163D01*
X0172438Y0017190D01*
X0172462Y0017218D01*
X0172483Y0017250D01*
X0172500Y0017283D01*
X0172514Y0017318D01*
X0172170Y0017072D02*
X0172132Y0017074D01*
X0172095Y0017080D01*
X0172059Y0017089D01*
X0172024Y0017103D01*
X0171990Y0017120D01*
X0171958Y0017140D01*
X0171929Y0017163D01*
X0171902Y0017190D01*
X0171878Y0017218D01*
X0171857Y0017250D01*
X0171840Y0017283D01*
X0171826Y0017318D01*
X0172661Y0017957D02*
X0172659Y0018030D01*
X0172654Y0018104D01*
X0172644Y0018176D01*
X0172631Y0018249D01*
X0172615Y0018320D01*
X0172595Y0018391D01*
X0172571Y0018460D01*
X0172544Y0018529D01*
X0172514Y0018595D01*
X0171680Y0017957D02*
X0171682Y0017884D01*
X0171687Y0017810D01*
X0171697Y0017738D01*
X0171710Y0017665D01*
X0171726Y0017594D01*
X0171746Y0017523D01*
X0171770Y0017454D01*
X0171797Y0017385D01*
X0171827Y0017319D01*
X0060261Y0076128D02*
X0059671Y0076128D01*
X0060261Y0076128D02*
X0060300Y0076130D01*
X0060338Y0076136D01*
X0060375Y0076145D01*
X0060411Y0076158D01*
X0060446Y0076174D01*
X0060479Y0076194D01*
X0060510Y0076217D01*
X0060539Y0076243D01*
X0060565Y0076272D01*
X0060588Y0076303D01*
X0060608Y0076336D01*
X0060624Y0076371D01*
X0060637Y0076407D01*
X0060646Y0076444D01*
X0060652Y0076482D01*
X0060654Y0076521D01*
X0060654Y0076717D01*
X0060652Y0076756D01*
X0060646Y0076794D01*
X0060637Y0076831D01*
X0060624Y0076867D01*
X0060608Y0076902D01*
X0060588Y0076935D01*
X0060565Y0076966D01*
X0060539Y0076995D01*
X0060510Y0077021D01*
X0060479Y0077044D01*
X0060446Y0077064D01*
X0060411Y0077080D01*
X0060375Y0077093D01*
X0060338Y0077102D01*
X0060300Y0077108D01*
X0060261Y0077110D01*
X0059671Y0077110D01*
X0059671Y0077896D01*
X0060654Y0077896D01*
X0169908Y0077110D02*
X0169908Y0076619D01*
X0169910Y0076576D01*
X0169915Y0076534D01*
X0169925Y0076492D01*
X0169938Y0076451D01*
X0169954Y0076411D01*
X0169974Y0076374D01*
X0169997Y0076337D01*
X0170023Y0076303D01*
X0170052Y0076272D01*
X0170083Y0076243D01*
X0170117Y0076217D01*
X0170154Y0076194D01*
X0170191Y0076174D01*
X0170231Y0076158D01*
X0170272Y0076145D01*
X0170314Y0076135D01*
X0170356Y0076130D01*
X0170399Y0076128D01*
X0170442Y0076130D01*
X0170484Y0076135D01*
X0170526Y0076145D01*
X0170567Y0076158D01*
X0170607Y0076174D01*
X0170645Y0076194D01*
X0170681Y0076217D01*
X0170715Y0076243D01*
X0170746Y0076272D01*
X0170775Y0076303D01*
X0170801Y0076337D01*
X0170824Y0076374D01*
X0170844Y0076411D01*
X0170860Y0076451D01*
X0170873Y0076492D01*
X0170883Y0076534D01*
X0170888Y0076576D01*
X0170890Y0076619D01*
X0170890Y0076717D01*
X0170888Y0076756D01*
X0170882Y0076794D01*
X0170873Y0076831D01*
X0170860Y0076867D01*
X0170844Y0076902D01*
X0170824Y0076935D01*
X0170801Y0076966D01*
X0170775Y0076995D01*
X0170746Y0077021D01*
X0170715Y0077044D01*
X0170682Y0077064D01*
X0170647Y0077080D01*
X0170611Y0077093D01*
X0170574Y0077102D01*
X0170536Y0077108D01*
X0170497Y0077110D01*
X0169908Y0077110D01*
X0169910Y0077164D01*
X0169915Y0077217D01*
X0169924Y0077270D01*
X0169937Y0077322D01*
X0169953Y0077373D01*
X0169973Y0077423D01*
X0169996Y0077472D01*
X0170022Y0077518D01*
X0170052Y0077563D01*
X0170084Y0077606D01*
X0170120Y0077646D01*
X0170158Y0077684D01*
X0170198Y0077720D01*
X0170241Y0077752D01*
X0170286Y0077782D01*
X0170332Y0077808D01*
X0170381Y0077831D01*
X0170431Y0077851D01*
X0170482Y0077867D01*
X0170534Y0077880D01*
X0170587Y0077889D01*
X0170640Y0077894D01*
X0170694Y0077896D01*
D12*
X0016264Y0086264D02*
X0016264Y0006736D01*
X0016658Y0006736D02*
X0051697Y0006736D01*
X0051697Y0037839D01*
X0045792Y0037839D01*
X0045792Y0055161D01*
X0051697Y0055161D01*
X0051697Y0037839D01*
X0056540Y0039984D02*
X0059040Y0042484D01*
X0056540Y0044984D01*
X0056540Y0049984D01*
X0059040Y0052484D01*
X0056540Y0054984D01*
X0056540Y0059984D01*
X0059040Y0062484D01*
X0056540Y0064984D01*
X0056540Y0069984D01*
X0059040Y0072484D01*
X0064040Y0072484D01*
X0066540Y0069984D01*
X0066540Y0064984D01*
X0064040Y0062484D01*
X0066540Y0059984D01*
X0066540Y0054984D01*
X0064040Y0052484D01*
X0066540Y0049984D01*
X0066540Y0044984D01*
X0064040Y0042484D01*
X0066540Y0039984D01*
X0066540Y0034984D01*
X0064040Y0032484D01*
X0066540Y0029984D01*
X0066540Y0024984D01*
X0064040Y0022484D01*
X0059040Y0022484D01*
X0056540Y0024984D01*
X0056540Y0029984D01*
X0059040Y0032484D01*
X0056540Y0034984D01*
X0056540Y0039984D01*
X0066382Y0039984D02*
X0068882Y0042484D01*
X0066382Y0044984D01*
X0066382Y0049984D01*
X0068882Y0052484D01*
X0066382Y0054984D01*
X0066382Y0059984D01*
X0068882Y0062484D01*
X0066382Y0064984D01*
X0066382Y0069984D01*
X0068882Y0072484D01*
X0073882Y0072484D01*
X0076382Y0069984D01*
X0076382Y0064984D01*
X0073882Y0062484D01*
X0076382Y0059984D01*
X0076382Y0054984D01*
X0073882Y0052484D01*
X0076382Y0049984D01*
X0076382Y0044984D01*
X0073882Y0042484D01*
X0076382Y0039984D01*
X0076382Y0034984D01*
X0073882Y0032484D01*
X0076382Y0029984D01*
X0076382Y0024984D01*
X0073882Y0022484D01*
X0068882Y0022484D01*
X0066382Y0024984D01*
X0066382Y0029984D01*
X0068882Y0032484D01*
X0066382Y0034984D01*
X0066382Y0039984D01*
X0076225Y0039984D02*
X0076225Y0034984D01*
X0078725Y0032484D01*
X0076225Y0029984D01*
X0076225Y0024984D01*
X0078725Y0022484D01*
X0083725Y0022484D01*
X0086225Y0024984D01*
X0086225Y0029984D01*
X0083725Y0032484D01*
X0086225Y0034984D01*
X0086225Y0039984D01*
X0083725Y0042484D01*
X0086225Y0044984D01*
X0086225Y0049984D01*
X0083725Y0052484D01*
X0086225Y0054984D01*
X0086225Y0059984D01*
X0083725Y0062484D01*
X0086225Y0064984D01*
X0086225Y0069984D01*
X0083725Y0072484D01*
X0078725Y0072484D01*
X0076225Y0069984D01*
X0076225Y0064984D01*
X0078725Y0062484D01*
X0076225Y0059984D01*
X0076225Y0054984D01*
X0078725Y0052484D01*
X0076225Y0049984D01*
X0076225Y0044984D01*
X0078725Y0042484D01*
X0076225Y0039984D01*
X0044906Y0029000D02*
X0044906Y0024000D01*
X0051697Y0055161D02*
X0051697Y0086264D01*
X0016264Y0086264D01*
X0143154Y0069984D02*
X0143154Y0064984D01*
X0145654Y0062484D01*
X0143154Y0059984D01*
X0143154Y0054984D01*
X0145654Y0052484D01*
X0143154Y0049984D01*
X0143154Y0044984D01*
X0145654Y0042484D01*
X0143154Y0039984D01*
X0143154Y0034984D01*
X0145654Y0032484D01*
X0143154Y0029984D01*
X0143154Y0024984D01*
X0145654Y0022484D01*
X0150654Y0022484D01*
X0153154Y0024984D01*
X0153154Y0029984D01*
X0150654Y0032484D01*
X0153154Y0034984D01*
X0153154Y0039984D01*
X0150654Y0042484D01*
X0153154Y0044984D01*
X0153154Y0049984D01*
X0150654Y0052484D01*
X0153154Y0054984D01*
X0153154Y0059984D01*
X0150654Y0062484D01*
X0153154Y0064984D01*
X0153154Y0069984D01*
X0150654Y0072484D01*
X0145654Y0072484D01*
X0143154Y0069984D01*
X0152997Y0069984D02*
X0152997Y0064984D01*
X0155497Y0062484D01*
X0152997Y0059984D01*
X0152997Y0054984D01*
X0155497Y0052484D01*
X0152997Y0049984D01*
X0152997Y0044984D01*
X0155497Y0042484D01*
X0152997Y0039984D01*
X0152997Y0034984D01*
X0155497Y0032484D01*
X0152997Y0029984D01*
X0152997Y0024984D01*
X0155497Y0022484D01*
X0160497Y0022484D01*
X0162997Y0024984D01*
X0162997Y0029984D01*
X0160497Y0032484D01*
X0162997Y0034984D01*
X0162997Y0039984D01*
X0160497Y0042484D01*
X0162997Y0044984D01*
X0162997Y0049984D01*
X0160497Y0052484D01*
X0162997Y0054984D01*
X0162997Y0059984D01*
X0160497Y0062484D01*
X0162997Y0064984D01*
X0162997Y0069984D01*
X0160497Y0072484D01*
X0155497Y0072484D01*
X0152997Y0069984D01*
X0162839Y0069984D02*
X0162839Y0064984D01*
X0165339Y0062484D01*
X0162839Y0059984D01*
X0162839Y0054984D01*
X0165339Y0052484D01*
X0162839Y0049984D01*
X0162839Y0044984D01*
X0165339Y0042484D01*
X0162839Y0039984D01*
X0162839Y0034984D01*
X0165339Y0032484D01*
X0162839Y0029984D01*
X0162839Y0024984D01*
X0165339Y0022484D01*
X0170339Y0022484D01*
X0172839Y0024984D01*
X0172839Y0029984D01*
X0170339Y0032484D01*
X0172839Y0034984D01*
X0172839Y0039984D01*
X0170339Y0042484D01*
X0172839Y0044984D01*
X0172839Y0049984D01*
X0170339Y0052484D01*
X0172839Y0054984D01*
X0172839Y0059984D01*
X0170339Y0062484D01*
X0172839Y0064984D01*
X0172839Y0069984D01*
X0170339Y0072484D01*
X0165339Y0072484D01*
X0162839Y0069984D01*
X0184473Y0069000D02*
X0184473Y0064000D01*
X0183587Y0055161D02*
X0177682Y0055161D01*
X0177682Y0086264D01*
X0212721Y0086264D01*
X0213115Y0086264D02*
X0213115Y0006736D01*
X0177682Y0006736D01*
X0177682Y0037839D01*
X0183587Y0037839D01*
X0183587Y0055161D01*
X0177682Y0055161D02*
X0177682Y0037839D01*
D13*
X0119097Y0033502D02*
X0116597Y0033502D01*
X0118722Y0036002D01*
X0117972Y0038002D02*
X0117899Y0038000D01*
X0117827Y0037995D01*
X0117755Y0037986D01*
X0117683Y0037973D01*
X0117612Y0037957D01*
X0117542Y0037937D01*
X0117474Y0037913D01*
X0117406Y0037887D01*
X0117340Y0037856D01*
X0117275Y0037823D01*
X0117213Y0037786D01*
X0117152Y0037747D01*
X0117093Y0037704D01*
X0117036Y0037658D01*
X0116982Y0037610D01*
X0116931Y0037559D01*
X0116881Y0037505D01*
X0116835Y0037449D01*
X0116792Y0037391D01*
X0116751Y0037330D01*
X0116714Y0037268D01*
X0116680Y0037204D01*
X0116649Y0037138D01*
X0116621Y0037071D01*
X0116597Y0037002D01*
X0118722Y0036002D02*
X0118768Y0036048D01*
X0118812Y0036097D01*
X0118852Y0036148D01*
X0118890Y0036201D01*
X0118925Y0036256D01*
X0118957Y0036313D01*
X0118986Y0036371D01*
X0119012Y0036431D01*
X0119034Y0036493D01*
X0119053Y0036555D01*
X0119069Y0036618D01*
X0119081Y0036682D01*
X0119090Y0036747D01*
X0119095Y0036812D01*
X0119097Y0036877D01*
X0119095Y0036942D01*
X0119089Y0037008D01*
X0119080Y0037072D01*
X0119067Y0037136D01*
X0119050Y0037200D01*
X0119029Y0037262D01*
X0119005Y0037323D01*
X0118977Y0037382D01*
X0118946Y0037440D01*
X0118912Y0037495D01*
X0118874Y0037549D01*
X0118834Y0037600D01*
X0118790Y0037649D01*
X0118744Y0037695D01*
X0118695Y0037739D01*
X0118644Y0037779D01*
X0118590Y0037817D01*
X0118535Y0037851D01*
X0118477Y0037882D01*
X0118418Y0037910D01*
X0118357Y0037934D01*
X0118295Y0037955D01*
X0118231Y0037972D01*
X0118167Y0037985D01*
X0118103Y0037994D01*
X0118037Y0038000D01*
X0117972Y0038002D01*
X0099597Y0033502D02*
X0097097Y0033502D01*
X0098347Y0033502D02*
X0098347Y0038002D01*
X0097097Y0037002D01*
X0075475Y0028038D02*
X0075475Y0026982D01*
X0075475Y0027510D02*
X0073575Y0027510D01*
X0073997Y0026982D01*
X0073575Y0025983D02*
X0075475Y0025350D01*
X0073575Y0024717D01*
X0074683Y0023579D02*
X0074367Y0022998D01*
X0073575Y0023209D02*
X0073577Y0023260D01*
X0073582Y0023311D01*
X0073590Y0023361D01*
X0073601Y0023411D01*
X0073616Y0023459D01*
X0073633Y0023507D01*
X0073654Y0023554D01*
X0073678Y0023599D01*
X0073704Y0023642D01*
X0073733Y0023684D01*
X0074367Y0022998D02*
X0074344Y0022964D01*
X0074319Y0022933D01*
X0074291Y0022904D01*
X0074260Y0022877D01*
X0074227Y0022854D01*
X0074192Y0022834D01*
X0074155Y0022817D01*
X0074117Y0022804D01*
X0074078Y0022795D01*
X0074037Y0022789D01*
X0073997Y0022787D01*
X0073958Y0022789D01*
X0073919Y0022794D01*
X0073882Y0022803D01*
X0073845Y0022815D01*
X0073809Y0022831D01*
X0073775Y0022850D01*
X0073743Y0022872D01*
X0073713Y0022897D01*
X0073685Y0022925D01*
X0073660Y0022955D01*
X0073638Y0022987D01*
X0073619Y0023021D01*
X0073603Y0023057D01*
X0073591Y0023094D01*
X0073582Y0023131D01*
X0073577Y0023170D01*
X0073575Y0023209D01*
X0075211Y0022735D02*
X0075251Y0022777D01*
X0075289Y0022823D01*
X0075323Y0022870D01*
X0075354Y0022920D01*
X0075382Y0022972D01*
X0075406Y0023025D01*
X0075427Y0023080D01*
X0075444Y0023136D01*
X0075458Y0023193D01*
X0075467Y0023251D01*
X0075473Y0023309D01*
X0075475Y0023368D01*
X0075473Y0023407D01*
X0075468Y0023446D01*
X0075459Y0023483D01*
X0075447Y0023520D01*
X0075431Y0023556D01*
X0075412Y0023590D01*
X0075390Y0023622D01*
X0075365Y0023652D01*
X0075337Y0023680D01*
X0075307Y0023705D01*
X0075275Y0023727D01*
X0075241Y0023746D01*
X0075205Y0023762D01*
X0075168Y0023774D01*
X0075131Y0023783D01*
X0075092Y0023788D01*
X0075053Y0023790D01*
X0075013Y0023788D01*
X0074972Y0023782D01*
X0074933Y0023773D01*
X0074895Y0023760D01*
X0074858Y0023743D01*
X0074823Y0023723D01*
X0074790Y0023700D01*
X0074759Y0023673D01*
X0074731Y0023644D01*
X0074706Y0023613D01*
X0074683Y0023579D01*
X0065632Y0025350D02*
X0063732Y0025983D01*
X0063732Y0024717D02*
X0065632Y0025350D01*
X0065632Y0026982D02*
X0065632Y0028038D01*
X0065632Y0026982D02*
X0064577Y0027879D01*
X0063733Y0027563D02*
X0063735Y0027515D01*
X0063741Y0027468D01*
X0063750Y0027421D01*
X0063763Y0027374D01*
X0063779Y0027329D01*
X0063800Y0027286D01*
X0063823Y0027244D01*
X0063850Y0027204D01*
X0063879Y0027167D01*
X0063912Y0027131D01*
X0063947Y0027099D01*
X0063985Y0027069D01*
X0064025Y0027043D01*
X0064067Y0027019D01*
X0064110Y0026999D01*
X0064155Y0026983D01*
X0064576Y0027880D02*
X0064547Y0027908D01*
X0064515Y0027935D01*
X0064481Y0027958D01*
X0064445Y0027979D01*
X0064408Y0027997D01*
X0064369Y0028011D01*
X0064330Y0028023D01*
X0064289Y0028031D01*
X0064248Y0028036D01*
X0064207Y0028038D01*
X0064166Y0028036D01*
X0064125Y0028031D01*
X0064084Y0028022D01*
X0064045Y0028009D01*
X0064006Y0027993D01*
X0063970Y0027974D01*
X0063935Y0027952D01*
X0063902Y0027927D01*
X0063871Y0027899D01*
X0063843Y0027868D01*
X0063818Y0027835D01*
X0063796Y0027801D01*
X0063777Y0027764D01*
X0063761Y0027725D01*
X0063748Y0027686D01*
X0063739Y0027646D01*
X0063734Y0027604D01*
X0063732Y0027563D01*
X0055790Y0027510D02*
X0055790Y0026982D01*
X0055790Y0027510D02*
X0055788Y0027555D01*
X0055782Y0027599D01*
X0055773Y0027643D01*
X0055760Y0027686D01*
X0055743Y0027727D01*
X0055723Y0027768D01*
X0055699Y0027806D01*
X0055673Y0027842D01*
X0055643Y0027875D01*
X0055611Y0027906D01*
X0055576Y0027935D01*
X0055539Y0027960D01*
X0055500Y0027981D01*
X0055459Y0028000D01*
X0055417Y0028015D01*
X0055373Y0028026D01*
X0055329Y0028034D01*
X0055284Y0028038D01*
X0055240Y0028038D01*
X0055195Y0028034D01*
X0055151Y0028026D01*
X0055107Y0028015D01*
X0055065Y0028000D01*
X0055024Y0027981D01*
X0054985Y0027960D01*
X0054948Y0027935D01*
X0054913Y0027906D01*
X0054881Y0027875D01*
X0054851Y0027842D01*
X0054825Y0027806D01*
X0054801Y0027768D01*
X0054781Y0027727D01*
X0054764Y0027686D01*
X0054751Y0027643D01*
X0054742Y0027599D01*
X0054736Y0027555D01*
X0054734Y0027510D01*
X0054734Y0027616D02*
X0054734Y0027193D01*
X0054734Y0027616D02*
X0054732Y0027656D01*
X0054726Y0027696D01*
X0054717Y0027735D01*
X0054704Y0027773D01*
X0054687Y0027809D01*
X0054667Y0027844D01*
X0054644Y0027877D01*
X0054617Y0027907D01*
X0054588Y0027935D01*
X0054557Y0027960D01*
X0054523Y0027981D01*
X0054487Y0028000D01*
X0054450Y0028015D01*
X0054411Y0028026D01*
X0054372Y0028034D01*
X0054332Y0028038D01*
X0054292Y0028038D01*
X0054252Y0028034D01*
X0054213Y0028026D01*
X0054174Y0028015D01*
X0054137Y0028000D01*
X0054101Y0027981D01*
X0054067Y0027960D01*
X0054036Y0027935D01*
X0054007Y0027907D01*
X0053980Y0027877D01*
X0053957Y0027844D01*
X0053937Y0027809D01*
X0053920Y0027773D01*
X0053907Y0027735D01*
X0053898Y0027696D01*
X0053892Y0027656D01*
X0053890Y0027616D01*
X0053890Y0026982D01*
X0053890Y0025983D02*
X0055790Y0025350D01*
X0053890Y0024717D01*
X0054998Y0023579D02*
X0054682Y0022998D01*
X0053889Y0023209D02*
X0053891Y0023260D01*
X0053896Y0023311D01*
X0053904Y0023361D01*
X0053915Y0023411D01*
X0053930Y0023459D01*
X0053947Y0023507D01*
X0053968Y0023554D01*
X0053992Y0023599D01*
X0054018Y0023642D01*
X0054047Y0023684D01*
X0054682Y0022998D02*
X0054659Y0022964D01*
X0054634Y0022933D01*
X0054606Y0022904D01*
X0054575Y0022877D01*
X0054542Y0022854D01*
X0054507Y0022834D01*
X0054470Y0022817D01*
X0054432Y0022804D01*
X0054393Y0022795D01*
X0054352Y0022789D01*
X0054312Y0022787D01*
X0054273Y0022789D01*
X0054234Y0022794D01*
X0054197Y0022803D01*
X0054160Y0022815D01*
X0054124Y0022831D01*
X0054090Y0022850D01*
X0054058Y0022872D01*
X0054028Y0022897D01*
X0054000Y0022925D01*
X0053975Y0022955D01*
X0053953Y0022987D01*
X0053934Y0023021D01*
X0053918Y0023057D01*
X0053906Y0023094D01*
X0053897Y0023131D01*
X0053892Y0023170D01*
X0053890Y0023209D01*
X0055526Y0022735D02*
X0055566Y0022777D01*
X0055604Y0022823D01*
X0055638Y0022870D01*
X0055669Y0022920D01*
X0055697Y0022972D01*
X0055721Y0023025D01*
X0055742Y0023080D01*
X0055759Y0023136D01*
X0055773Y0023193D01*
X0055782Y0023251D01*
X0055788Y0023309D01*
X0055790Y0023368D01*
X0055788Y0023407D01*
X0055783Y0023446D01*
X0055774Y0023483D01*
X0055762Y0023520D01*
X0055746Y0023556D01*
X0055727Y0023590D01*
X0055705Y0023622D01*
X0055680Y0023652D01*
X0055652Y0023680D01*
X0055622Y0023705D01*
X0055590Y0023727D01*
X0055556Y0023746D01*
X0055520Y0023762D01*
X0055483Y0023774D01*
X0055446Y0023783D01*
X0055407Y0023788D01*
X0055368Y0023790D01*
X0055328Y0023788D01*
X0055287Y0023782D01*
X0055248Y0023773D01*
X0055210Y0023760D01*
X0055173Y0023743D01*
X0055138Y0023723D01*
X0055105Y0023700D01*
X0055074Y0023673D01*
X0055046Y0023644D01*
X0055021Y0023613D01*
X0054998Y0023579D01*
X0064155Y0022787D02*
X0064195Y0022789D01*
X0064236Y0022795D01*
X0064275Y0022804D01*
X0064313Y0022817D01*
X0064350Y0022834D01*
X0064385Y0022854D01*
X0064418Y0022877D01*
X0064449Y0022904D01*
X0064477Y0022933D01*
X0064502Y0022964D01*
X0064525Y0022998D01*
X0064524Y0022998D02*
X0064841Y0023579D01*
X0065632Y0023368D02*
X0065630Y0023309D01*
X0065624Y0023251D01*
X0065615Y0023193D01*
X0065601Y0023136D01*
X0065584Y0023080D01*
X0065563Y0023025D01*
X0065539Y0022972D01*
X0065511Y0022920D01*
X0065480Y0022870D01*
X0065446Y0022823D01*
X0065408Y0022777D01*
X0065368Y0022735D01*
X0064840Y0023579D02*
X0064863Y0023613D01*
X0064888Y0023644D01*
X0064916Y0023673D01*
X0064947Y0023700D01*
X0064980Y0023723D01*
X0065015Y0023743D01*
X0065052Y0023760D01*
X0065090Y0023773D01*
X0065129Y0023782D01*
X0065170Y0023788D01*
X0065210Y0023790D01*
X0065249Y0023788D01*
X0065288Y0023783D01*
X0065325Y0023774D01*
X0065362Y0023762D01*
X0065398Y0023746D01*
X0065432Y0023727D01*
X0065464Y0023705D01*
X0065494Y0023680D01*
X0065522Y0023652D01*
X0065547Y0023622D01*
X0065569Y0023590D01*
X0065588Y0023556D01*
X0065604Y0023520D01*
X0065616Y0023483D01*
X0065625Y0023446D01*
X0065630Y0023407D01*
X0065632Y0023368D01*
X0063890Y0023684D02*
X0063861Y0023642D01*
X0063835Y0023599D01*
X0063811Y0023554D01*
X0063790Y0023507D01*
X0063773Y0023459D01*
X0063758Y0023411D01*
X0063747Y0023361D01*
X0063739Y0023311D01*
X0063734Y0023260D01*
X0063732Y0023209D01*
X0063733Y0023209D02*
X0063735Y0023170D01*
X0063740Y0023131D01*
X0063749Y0023094D01*
X0063761Y0023057D01*
X0063777Y0023021D01*
X0063796Y0022987D01*
X0063818Y0022955D01*
X0063843Y0022925D01*
X0063871Y0022897D01*
X0063901Y0022872D01*
X0063933Y0022850D01*
X0063967Y0022831D01*
X0064003Y0022815D01*
X0064040Y0022803D01*
X0064077Y0022794D01*
X0064116Y0022789D01*
X0064155Y0022787D01*
X0099797Y0015802D02*
X0102797Y0011302D01*
X0104547Y0011302D02*
X0107047Y0011302D01*
X0105797Y0011302D02*
X0105797Y0015802D01*
X0104547Y0014802D01*
X0102797Y0015802D02*
X0099797Y0011302D01*
X0050731Y0003350D02*
X0049675Y0003350D01*
X0050203Y0003350D02*
X0050203Y0005250D01*
X0049675Y0004828D01*
X0048515Y0005250D02*
X0048515Y0003772D01*
X0048514Y0003772D02*
X0048512Y0003733D01*
X0048507Y0003694D01*
X0048498Y0003657D01*
X0048486Y0003620D01*
X0048470Y0003584D01*
X0048451Y0003550D01*
X0048429Y0003518D01*
X0048404Y0003488D01*
X0048376Y0003460D01*
X0048346Y0003435D01*
X0048314Y0003413D01*
X0048280Y0003394D01*
X0048244Y0003378D01*
X0048207Y0003366D01*
X0048170Y0003357D01*
X0048131Y0003352D01*
X0048092Y0003350D01*
X0047881Y0003350D01*
X0153904Y0067406D02*
X0153906Y0067367D01*
X0153911Y0067328D01*
X0153920Y0067291D01*
X0153932Y0067254D01*
X0153948Y0067218D01*
X0153967Y0067184D01*
X0153989Y0067152D01*
X0154014Y0067122D01*
X0154042Y0067094D01*
X0154072Y0067069D01*
X0154104Y0067047D01*
X0154138Y0067028D01*
X0154174Y0067012D01*
X0154211Y0067000D01*
X0154248Y0066991D01*
X0154287Y0066986D01*
X0154326Y0066984D01*
X0154696Y0067195D02*
X0155012Y0067775D01*
X0155804Y0067564D02*
X0155802Y0067505D01*
X0155796Y0067447D01*
X0155787Y0067389D01*
X0155773Y0067332D01*
X0155756Y0067276D01*
X0155735Y0067221D01*
X0155711Y0067168D01*
X0155683Y0067116D01*
X0155652Y0067066D01*
X0155618Y0067019D01*
X0155580Y0066973D01*
X0155540Y0066931D01*
X0155012Y0067775D02*
X0155035Y0067809D01*
X0155060Y0067840D01*
X0155088Y0067869D01*
X0155119Y0067896D01*
X0155152Y0067919D01*
X0155187Y0067939D01*
X0155224Y0067956D01*
X0155262Y0067969D01*
X0155301Y0067978D01*
X0155342Y0067984D01*
X0155382Y0067986D01*
X0155421Y0067984D01*
X0155460Y0067979D01*
X0155497Y0067970D01*
X0155534Y0067958D01*
X0155570Y0067942D01*
X0155604Y0067923D01*
X0155636Y0067901D01*
X0155666Y0067876D01*
X0155694Y0067848D01*
X0155719Y0067818D01*
X0155741Y0067786D01*
X0155760Y0067752D01*
X0155776Y0067716D01*
X0155788Y0067679D01*
X0155797Y0067642D01*
X0155802Y0067603D01*
X0155804Y0067564D01*
X0154062Y0067881D02*
X0154033Y0067839D01*
X0154007Y0067796D01*
X0153983Y0067751D01*
X0153962Y0067704D01*
X0153945Y0067656D01*
X0153930Y0067608D01*
X0153919Y0067558D01*
X0153911Y0067508D01*
X0153906Y0067457D01*
X0153904Y0067406D01*
X0154326Y0066983D02*
X0154366Y0066985D01*
X0154407Y0066991D01*
X0154446Y0067000D01*
X0154484Y0067013D01*
X0154521Y0067030D01*
X0154556Y0067050D01*
X0154589Y0067073D01*
X0154620Y0067100D01*
X0154648Y0067129D01*
X0154673Y0067160D01*
X0154696Y0067194D01*
X0153904Y0068913D02*
X0155804Y0069546D01*
X0153904Y0070180D01*
X0153904Y0071601D02*
X0155382Y0071179D01*
X0155382Y0072234D01*
X0154960Y0071918D02*
X0155804Y0071918D01*
X0163747Y0072234D02*
X0163747Y0071179D01*
X0164591Y0071179D01*
X0164591Y0071812D01*
X0164593Y0071851D01*
X0164598Y0071890D01*
X0164607Y0071927D01*
X0164619Y0071964D01*
X0164635Y0072000D01*
X0164654Y0072034D01*
X0164676Y0072066D01*
X0164701Y0072096D01*
X0164729Y0072124D01*
X0164759Y0072149D01*
X0164791Y0072171D01*
X0164825Y0072190D01*
X0164861Y0072206D01*
X0164898Y0072218D01*
X0164935Y0072227D01*
X0164974Y0072232D01*
X0165013Y0072234D01*
X0165224Y0072234D01*
X0165263Y0072232D01*
X0165302Y0072227D01*
X0165339Y0072218D01*
X0165376Y0072206D01*
X0165412Y0072190D01*
X0165446Y0072171D01*
X0165478Y0072149D01*
X0165508Y0072124D01*
X0165536Y0072096D01*
X0165561Y0072066D01*
X0165583Y0072034D01*
X0165602Y0072000D01*
X0165618Y0071964D01*
X0165630Y0071927D01*
X0165639Y0071890D01*
X0165644Y0071851D01*
X0165646Y0071812D01*
X0165647Y0071812D02*
X0165647Y0071179D01*
X0165647Y0069546D02*
X0163747Y0070180D01*
X0163747Y0068913D02*
X0165647Y0069546D01*
X0164855Y0067775D02*
X0164538Y0067195D01*
X0163746Y0067406D02*
X0163748Y0067457D01*
X0163753Y0067508D01*
X0163761Y0067558D01*
X0163772Y0067608D01*
X0163787Y0067656D01*
X0163804Y0067704D01*
X0163825Y0067751D01*
X0163849Y0067796D01*
X0163875Y0067839D01*
X0163904Y0067881D01*
X0164539Y0067194D02*
X0164516Y0067160D01*
X0164491Y0067129D01*
X0164463Y0067100D01*
X0164432Y0067073D01*
X0164399Y0067050D01*
X0164364Y0067030D01*
X0164327Y0067013D01*
X0164289Y0067000D01*
X0164250Y0066991D01*
X0164209Y0066985D01*
X0164169Y0066983D01*
X0164169Y0066984D02*
X0164130Y0066986D01*
X0164091Y0066991D01*
X0164054Y0067000D01*
X0164017Y0067012D01*
X0163981Y0067028D01*
X0163947Y0067047D01*
X0163915Y0067069D01*
X0163885Y0067094D01*
X0163857Y0067122D01*
X0163832Y0067152D01*
X0163810Y0067184D01*
X0163791Y0067218D01*
X0163775Y0067254D01*
X0163763Y0067291D01*
X0163754Y0067328D01*
X0163749Y0067367D01*
X0163747Y0067406D01*
X0165383Y0066931D02*
X0165423Y0066973D01*
X0165461Y0067019D01*
X0165495Y0067066D01*
X0165526Y0067116D01*
X0165554Y0067168D01*
X0165578Y0067221D01*
X0165599Y0067276D01*
X0165616Y0067332D01*
X0165630Y0067389D01*
X0165639Y0067447D01*
X0165645Y0067505D01*
X0165647Y0067564D01*
X0165646Y0067564D02*
X0165644Y0067603D01*
X0165639Y0067642D01*
X0165630Y0067679D01*
X0165618Y0067716D01*
X0165602Y0067752D01*
X0165583Y0067786D01*
X0165561Y0067818D01*
X0165536Y0067848D01*
X0165508Y0067876D01*
X0165478Y0067901D01*
X0165446Y0067923D01*
X0165412Y0067942D01*
X0165376Y0067958D01*
X0165339Y0067970D01*
X0165302Y0067979D01*
X0165263Y0067984D01*
X0165224Y0067986D01*
X0165184Y0067984D01*
X0165143Y0067978D01*
X0165104Y0067969D01*
X0165066Y0067956D01*
X0165029Y0067939D01*
X0164994Y0067919D01*
X0164961Y0067896D01*
X0164930Y0067869D01*
X0164902Y0067840D01*
X0164877Y0067809D01*
X0164854Y0067775D01*
X0173589Y0068913D02*
X0175489Y0069546D01*
X0173589Y0070180D01*
X0173589Y0071179D02*
X0173589Y0072234D01*
X0175489Y0071706D01*
X0173800Y0071179D02*
X0173589Y0071179D01*
X0174697Y0067775D02*
X0174381Y0067195D01*
X0173589Y0067406D02*
X0173591Y0067457D01*
X0173596Y0067508D01*
X0173604Y0067558D01*
X0173615Y0067608D01*
X0173630Y0067656D01*
X0173647Y0067704D01*
X0173668Y0067751D01*
X0173692Y0067796D01*
X0173718Y0067839D01*
X0173747Y0067881D01*
X0174381Y0067194D02*
X0174358Y0067160D01*
X0174333Y0067129D01*
X0174305Y0067100D01*
X0174274Y0067073D01*
X0174241Y0067050D01*
X0174206Y0067030D01*
X0174169Y0067013D01*
X0174131Y0067000D01*
X0174092Y0066991D01*
X0174051Y0066985D01*
X0174011Y0066983D01*
X0174011Y0066984D02*
X0173972Y0066986D01*
X0173933Y0066991D01*
X0173896Y0067000D01*
X0173859Y0067012D01*
X0173823Y0067028D01*
X0173789Y0067047D01*
X0173757Y0067069D01*
X0173727Y0067094D01*
X0173699Y0067122D01*
X0173674Y0067152D01*
X0173652Y0067184D01*
X0173633Y0067218D01*
X0173617Y0067254D01*
X0173605Y0067291D01*
X0173596Y0067328D01*
X0173591Y0067367D01*
X0173589Y0067406D01*
X0175225Y0066931D02*
X0175265Y0066973D01*
X0175303Y0067019D01*
X0175337Y0067066D01*
X0175368Y0067116D01*
X0175396Y0067168D01*
X0175420Y0067221D01*
X0175441Y0067276D01*
X0175458Y0067332D01*
X0175472Y0067389D01*
X0175481Y0067447D01*
X0175487Y0067505D01*
X0175489Y0067564D01*
X0175487Y0067603D01*
X0175482Y0067642D01*
X0175473Y0067679D01*
X0175461Y0067716D01*
X0175445Y0067752D01*
X0175426Y0067786D01*
X0175404Y0067818D01*
X0175379Y0067848D01*
X0175351Y0067876D01*
X0175321Y0067901D01*
X0175289Y0067923D01*
X0175255Y0067942D01*
X0175219Y0067958D01*
X0175182Y0067970D01*
X0175145Y0067979D01*
X0175106Y0067984D01*
X0175067Y0067986D01*
X0175027Y0067984D01*
X0174986Y0067978D01*
X0174947Y0067969D01*
X0174909Y0067956D01*
X0174872Y0067939D01*
X0174837Y0067919D01*
X0174804Y0067896D01*
X0174773Y0067869D01*
X0174745Y0067840D01*
X0174720Y0067809D01*
X0174697Y0067775D01*
X0178648Y0087750D02*
X0178859Y0087750D01*
X0178898Y0087752D01*
X0178937Y0087757D01*
X0178974Y0087766D01*
X0179011Y0087778D01*
X0179047Y0087794D01*
X0179081Y0087813D01*
X0179113Y0087835D01*
X0179143Y0087860D01*
X0179171Y0087888D01*
X0179196Y0087918D01*
X0179218Y0087950D01*
X0179237Y0087984D01*
X0179253Y0088020D01*
X0179265Y0088057D01*
X0179274Y0088094D01*
X0179279Y0088133D01*
X0179281Y0088172D01*
X0179281Y0089650D01*
X0181339Y0088806D02*
X0181367Y0088835D01*
X0181394Y0088867D01*
X0181417Y0088901D01*
X0181438Y0088937D01*
X0181456Y0088974D01*
X0181470Y0089013D01*
X0181482Y0089052D01*
X0181490Y0089093D01*
X0181495Y0089134D01*
X0181497Y0089175D01*
X0181339Y0088806D02*
X0180442Y0087750D01*
X0181498Y0087750D01*
X0180443Y0089228D02*
X0180459Y0089273D01*
X0180479Y0089316D01*
X0180503Y0089358D01*
X0180529Y0089398D01*
X0180559Y0089436D01*
X0180591Y0089471D01*
X0180627Y0089504D01*
X0180664Y0089533D01*
X0180704Y0089560D01*
X0180746Y0089583D01*
X0180789Y0089603D01*
X0180834Y0089620D01*
X0180880Y0089633D01*
X0180928Y0089642D01*
X0180975Y0089648D01*
X0181023Y0089650D01*
X0181064Y0089648D01*
X0181105Y0089643D01*
X0181146Y0089634D01*
X0181185Y0089621D01*
X0181224Y0089605D01*
X0181261Y0089586D01*
X0181295Y0089564D01*
X0181328Y0089539D01*
X0181359Y0089511D01*
X0181387Y0089480D01*
X0181412Y0089447D01*
X0181434Y0089413D01*
X0181453Y0089376D01*
X0181469Y0089337D01*
X0181482Y0089298D01*
X0181491Y0089257D01*
X0181496Y0089216D01*
X0181498Y0089175D01*
X0116333Y0080341D02*
X0115278Y0080341D01*
X0115805Y0080341D02*
X0115805Y0082241D01*
X0115278Y0081818D01*
X0114101Y0081396D02*
X0113046Y0081396D01*
X0113046Y0082241D02*
X0113046Y0080341D01*
X0114101Y0080341D02*
X0114101Y0082241D01*
M02*
