G75*
%MOIN*%
%OFA0B0*%
%FSLAX25Y25*%
%IPPOS*%
%LPD*%
%AMOC8*
5,1,8,0,0,1.08239X$1,22.5*
%
%ADD10C,0.07400*%
%ADD11C,0.07050*%
%ADD12C,0.00800*%
D10*
X0028981Y0026500D03*
X0038981Y0026500D03*
X0061540Y0027484D03*
X0071382Y0027484D03*
X0081225Y0027484D03*
X0081225Y0037484D03*
X0071382Y0037484D03*
X0061540Y0037484D03*
X0038981Y0036500D03*
X0028981Y0036500D03*
X0028981Y0046500D03*
X0038981Y0046500D03*
X0038981Y0056500D03*
X0028981Y0056500D03*
X0028981Y0066500D03*
X0038981Y0066500D03*
X0061540Y0067484D03*
X0071382Y0067484D03*
X0081225Y0067484D03*
X0081225Y0057484D03*
X0071382Y0057484D03*
X0061540Y0057484D03*
X0061540Y0047484D03*
X0071382Y0047484D03*
X0081225Y0047484D03*
X0148154Y0047484D03*
X0157997Y0047484D03*
X0167839Y0047484D03*
X0167839Y0057484D03*
X0157997Y0057484D03*
X0148154Y0057484D03*
X0148154Y0067484D03*
X0157997Y0067484D03*
X0167839Y0067484D03*
X0190398Y0066500D03*
X0200398Y0066500D03*
X0200398Y0056500D03*
X0190398Y0056500D03*
X0190398Y0046500D03*
X0200398Y0046500D03*
X0200398Y0036500D03*
X0190398Y0036500D03*
X0167839Y0037484D03*
X0157997Y0037484D03*
X0148154Y0037484D03*
X0148154Y0027484D03*
X0157997Y0027484D03*
X0167839Y0027484D03*
X0190398Y0026500D03*
X0200398Y0026500D03*
D11*
X0124532Y0029277D02*
X0124532Y0022227D01*
X0104847Y0022227D02*
X0104847Y0029277D01*
D12*
X0023479Y0009552D02*
X0022624Y0010408D01*
X0022161Y0011525D01*
X0022101Y0012130D01*
X0022101Y0087130D01*
X0022128Y0087331D01*
X0022329Y0087679D01*
X0022677Y0087881D01*
X0022878Y0087907D01*
X0023665Y0087907D01*
X0205713Y0087907D01*
X0206500Y0087907D01*
X0206702Y0087881D01*
X0207050Y0087679D01*
X0207251Y0087331D01*
X0207278Y0087130D01*
X0207278Y0011106D01*
X0207238Y0010701D01*
X0206928Y0009953D01*
X0206355Y0009380D01*
X0205606Y0009070D01*
X0205201Y0009030D01*
X0025201Y0009030D01*
X0024596Y0009089D01*
X0023479Y0009552D01*
X0023544Y0009525D02*
X0206500Y0009525D01*
X0207081Y0010324D02*
X0022707Y0010324D01*
X0022328Y0011122D02*
X0207278Y0011122D01*
X0207278Y0011921D02*
X0022122Y0011921D01*
X0022101Y0012720D02*
X0207278Y0012720D01*
X0207278Y0013518D02*
X0022101Y0013518D01*
X0022101Y0014317D02*
X0207278Y0014317D01*
X0207278Y0015115D02*
X0022101Y0015115D01*
X0022101Y0015914D02*
X0207278Y0015914D01*
X0207278Y0016712D02*
X0022101Y0016712D01*
X0022101Y0017511D02*
X0103425Y0017511D01*
X0103694Y0017423D02*
X0104447Y0017304D01*
X0104447Y0025352D01*
X0105247Y0025352D01*
X0105247Y0026152D01*
X0109772Y0026152D01*
X0109772Y0029665D01*
X0109651Y0030430D01*
X0109411Y0031168D01*
X0109059Y0031858D01*
X0108603Y0032485D01*
X0108055Y0033034D01*
X0107428Y0033489D01*
X0106737Y0033841D01*
X0106000Y0034081D01*
X0105247Y0034200D01*
X0105247Y0026152D01*
X0104447Y0026152D01*
X0104447Y0034200D01*
X0103694Y0034081D01*
X0102956Y0033841D01*
X0102266Y0033489D01*
X0101638Y0033034D01*
X0101090Y0032485D01*
X0100635Y0031858D01*
X0100283Y0031168D01*
X0100043Y0030430D01*
X0099922Y0029665D01*
X0099922Y0026152D01*
X0104447Y0026152D01*
X0104447Y0025352D01*
X0099922Y0025352D01*
X0099922Y0021839D01*
X0100043Y0021074D01*
X0100283Y0020336D01*
X0100635Y0019646D01*
X0101090Y0019019D01*
X0101638Y0018470D01*
X0102266Y0018015D01*
X0102956Y0017663D01*
X0103694Y0017423D01*
X0104447Y0017511D02*
X0105247Y0017511D01*
X0105247Y0017304D02*
X0106000Y0017423D01*
X0106737Y0017663D01*
X0107428Y0018015D01*
X0108055Y0018470D01*
X0108603Y0019019D01*
X0109059Y0019646D01*
X0109411Y0020336D01*
X0109651Y0021074D01*
X0109772Y0021839D01*
X0109772Y0025352D01*
X0105247Y0025352D01*
X0105247Y0017304D01*
X0105247Y0018309D02*
X0104447Y0018309D01*
X0104447Y0019108D02*
X0105247Y0019108D01*
X0105247Y0019906D02*
X0104447Y0019906D01*
X0104447Y0020705D02*
X0105247Y0020705D01*
X0105247Y0021503D02*
X0104447Y0021503D01*
X0104447Y0022302D02*
X0105247Y0022302D01*
X0105247Y0023100D02*
X0104447Y0023100D01*
X0104447Y0023899D02*
X0105247Y0023899D01*
X0105247Y0024697D02*
X0104447Y0024697D01*
X0104447Y0025496D02*
X0085935Y0025496D01*
X0085951Y0025527D02*
X0086199Y0026290D01*
X0086325Y0027083D01*
X0086325Y0027084D01*
X0081625Y0027084D01*
X0081625Y0022384D01*
X0081626Y0022384D01*
X0082419Y0022510D01*
X0083183Y0022758D01*
X0083898Y0023122D01*
X0084547Y0023594D01*
X0085115Y0024162D01*
X0085587Y0024811D01*
X0085951Y0025527D01*
X0086200Y0026294D02*
X0099922Y0026294D01*
X0099922Y0027093D02*
X0081625Y0027093D01*
X0081625Y0027084D02*
X0081625Y0027884D01*
X0086325Y0027884D01*
X0086325Y0027886D01*
X0086199Y0028679D01*
X0085951Y0029442D01*
X0085587Y0030157D01*
X0085115Y0030807D01*
X0084547Y0031374D01*
X0083898Y0031846D01*
X0083183Y0032211D01*
X0082419Y0032459D01*
X0082258Y0032484D01*
X0082419Y0032510D01*
X0083183Y0032758D01*
X0083898Y0033122D01*
X0084547Y0033594D01*
X0085115Y0034162D01*
X0085587Y0034811D01*
X0085951Y0035527D01*
X0086199Y0036290D01*
X0086325Y0037083D01*
X0086325Y0037084D01*
X0081625Y0037084D01*
X0081625Y0032584D01*
X0081625Y0027884D01*
X0080825Y0027884D01*
X0080825Y0027084D01*
X0081625Y0027084D01*
X0081625Y0026294D02*
X0080825Y0026294D01*
X0080825Y0027084D02*
X0080825Y0022384D01*
X0080823Y0022384D01*
X0080031Y0022510D01*
X0079267Y0022758D01*
X0078552Y0023122D01*
X0077902Y0023594D01*
X0077335Y0024162D01*
X0076863Y0024811D01*
X0076499Y0025527D01*
X0076250Y0026290D01*
X0076125Y0027083D01*
X0076125Y0027084D01*
X0080825Y0027084D01*
X0080825Y0027093D02*
X0076082Y0027093D01*
X0076082Y0026549D02*
X0075367Y0024822D01*
X0074045Y0023500D01*
X0072317Y0022784D01*
X0070447Y0022784D01*
X0068720Y0023500D01*
X0067398Y0024822D01*
X0066682Y0026549D01*
X0066682Y0028419D01*
X0067398Y0030147D01*
X0068720Y0031469D01*
X0070447Y0032184D01*
X0072317Y0032184D01*
X0074045Y0031469D01*
X0075367Y0030147D01*
X0076082Y0028419D01*
X0076082Y0026549D01*
X0075977Y0026294D02*
X0076250Y0026294D01*
X0076514Y0025496D02*
X0075646Y0025496D01*
X0075242Y0024697D02*
X0076946Y0024697D01*
X0077598Y0023899D02*
X0074444Y0023899D01*
X0073080Y0023100D02*
X0078595Y0023100D01*
X0080825Y0023100D02*
X0081625Y0023100D01*
X0081625Y0023899D02*
X0080825Y0023899D01*
X0080825Y0024697D02*
X0081625Y0024697D01*
X0081625Y0025496D02*
X0080825Y0025496D01*
X0080825Y0027884D02*
X0076125Y0027884D01*
X0076125Y0027886D01*
X0076250Y0028679D01*
X0076499Y0029442D01*
X0076863Y0030157D01*
X0077335Y0030807D01*
X0077902Y0031374D01*
X0078552Y0031846D01*
X0079267Y0032211D01*
X0080031Y0032459D01*
X0080192Y0032484D01*
X0080031Y0032510D01*
X0079267Y0032758D01*
X0078552Y0033122D01*
X0077902Y0033594D01*
X0077335Y0034162D01*
X0076863Y0034811D01*
X0076499Y0035527D01*
X0076250Y0036290D01*
X0076125Y0037083D01*
X0076125Y0037084D01*
X0080825Y0037084D01*
X0081625Y0037084D01*
X0081625Y0037884D01*
X0086325Y0037884D01*
X0086325Y0037886D01*
X0086199Y0038679D01*
X0085951Y0039442D01*
X0085587Y0040157D01*
X0085115Y0040807D01*
X0084547Y0041374D01*
X0083898Y0041846D01*
X0083183Y0042211D01*
X0082419Y0042459D01*
X0082258Y0042484D01*
X0082419Y0042510D01*
X0083183Y0042758D01*
X0083898Y0043122D01*
X0084547Y0043594D01*
X0085115Y0044162D01*
X0085587Y0044811D01*
X0085951Y0045527D01*
X0086199Y0046290D01*
X0086325Y0047083D01*
X0086325Y0047084D01*
X0081625Y0047084D01*
X0081625Y0042384D01*
X0081625Y0037884D01*
X0080825Y0037884D01*
X0080825Y0037084D01*
X0080825Y0027884D01*
X0080825Y0027891D02*
X0081625Y0027891D01*
X0081625Y0028690D02*
X0080825Y0028690D01*
X0080825Y0029488D02*
X0081625Y0029488D01*
X0081625Y0030287D02*
X0080825Y0030287D01*
X0080825Y0031085D02*
X0081625Y0031085D01*
X0081625Y0031884D02*
X0080825Y0031884D01*
X0080825Y0032682D02*
X0081625Y0032682D01*
X0081625Y0033481D02*
X0080825Y0033481D01*
X0080825Y0034279D02*
X0081625Y0034279D01*
X0081625Y0035078D02*
X0080825Y0035078D01*
X0080825Y0035876D02*
X0081625Y0035876D01*
X0081625Y0036675D02*
X0080825Y0036675D01*
X0080825Y0037473D02*
X0076082Y0037473D01*
X0076125Y0037884D02*
X0080825Y0037884D01*
X0080825Y0047084D01*
X0081625Y0047084D01*
X0081625Y0047884D01*
X0086325Y0047884D01*
X0086325Y0047886D01*
X0086199Y0048679D01*
X0085951Y0049442D01*
X0085587Y0050157D01*
X0085115Y0050807D01*
X0084547Y0051374D01*
X0083898Y0051846D01*
X0083183Y0052211D01*
X0082419Y0052459D01*
X0082258Y0052484D01*
X0082419Y0052510D01*
X0083183Y0052758D01*
X0083898Y0053122D01*
X0084547Y0053594D01*
X0085115Y0054162D01*
X0085587Y0054811D01*
X0085951Y0055527D01*
X0086199Y0056290D01*
X0086325Y0057083D01*
X0086325Y0057084D01*
X0081625Y0057084D01*
X0081625Y0052384D01*
X0081625Y0047884D01*
X0080825Y0047884D01*
X0080825Y0047084D01*
X0076125Y0047084D01*
X0076125Y0047083D01*
X0076250Y0046290D01*
X0076499Y0045527D01*
X0076863Y0044811D01*
X0077335Y0044162D01*
X0077902Y0043594D01*
X0078552Y0043122D01*
X0079267Y0042758D01*
X0080031Y0042510D01*
X0080192Y0042484D01*
X0080031Y0042459D01*
X0079267Y0042211D01*
X0078552Y0041846D01*
X0077902Y0041374D01*
X0077335Y0040807D01*
X0076863Y0040157D01*
X0076499Y0039442D01*
X0076250Y0038679D01*
X0076125Y0037886D01*
X0076125Y0037884D01*
X0076082Y0038272D02*
X0076186Y0038272D01*
X0076082Y0038419D02*
X0075367Y0040147D01*
X0074045Y0041469D01*
X0072317Y0042184D01*
X0070447Y0042184D01*
X0068720Y0041469D01*
X0067398Y0040147D01*
X0066682Y0038419D01*
X0066682Y0036549D01*
X0067398Y0034822D01*
X0068720Y0033500D01*
X0070447Y0032784D01*
X0072317Y0032784D01*
X0074045Y0033500D01*
X0075367Y0034822D01*
X0076082Y0036549D01*
X0076082Y0038419D01*
X0075813Y0039070D02*
X0076378Y0039070D01*
X0076716Y0039869D02*
X0075482Y0039869D01*
X0074846Y0040667D02*
X0077234Y0040667D01*
X0078029Y0041466D02*
X0074047Y0041466D01*
X0072990Y0043063D02*
X0078668Y0043063D01*
X0079433Y0042264D02*
X0041037Y0042264D01*
X0041643Y0042516D02*
X0039916Y0041800D01*
X0038046Y0041800D01*
X0036318Y0042516D01*
X0034996Y0043838D01*
X0034281Y0045565D01*
X0034281Y0047435D01*
X0034996Y0049162D01*
X0036318Y0050484D01*
X0038046Y0051200D01*
X0039916Y0051200D01*
X0041643Y0050484D01*
X0042965Y0049162D01*
X0043681Y0047435D01*
X0043681Y0045565D01*
X0042965Y0043838D01*
X0041643Y0042516D01*
X0042191Y0043063D02*
X0059932Y0043063D01*
X0060605Y0042784D02*
X0062475Y0042784D01*
X0064202Y0043500D01*
X0065524Y0044822D01*
X0066240Y0046549D01*
X0066240Y0048419D01*
X0065524Y0050147D01*
X0064202Y0051469D01*
X0062475Y0052184D01*
X0060605Y0052184D01*
X0058877Y0051469D01*
X0057555Y0050147D01*
X0056840Y0048419D01*
X0056840Y0046549D01*
X0057555Y0044822D01*
X0058877Y0043500D01*
X0060605Y0042784D01*
X0060605Y0042184D02*
X0058877Y0041469D01*
X0057555Y0040147D01*
X0056840Y0038419D01*
X0056840Y0036549D01*
X0057555Y0034822D01*
X0058877Y0033500D01*
X0060605Y0032784D01*
X0062475Y0032784D01*
X0064202Y0033500D01*
X0065524Y0034822D01*
X0066240Y0036549D01*
X0066240Y0038419D01*
X0065524Y0040147D01*
X0064202Y0041469D01*
X0062475Y0042184D01*
X0060605Y0042184D01*
X0058875Y0041466D02*
X0022101Y0041466D01*
X0022101Y0042264D02*
X0026925Y0042264D01*
X0026318Y0042516D02*
X0028046Y0041800D01*
X0029916Y0041800D01*
X0031643Y0042516D01*
X0032965Y0043838D01*
X0033681Y0045565D01*
X0033681Y0047435D01*
X0032965Y0049162D01*
X0031643Y0050484D01*
X0029916Y0051200D01*
X0028046Y0051200D01*
X0026318Y0050484D01*
X0024996Y0049162D01*
X0024281Y0047435D01*
X0024281Y0045565D01*
X0024996Y0043838D01*
X0026318Y0042516D01*
X0025771Y0043063D02*
X0022101Y0043063D01*
X0022101Y0043861D02*
X0024986Y0043861D01*
X0024656Y0044660D02*
X0022101Y0044660D01*
X0022101Y0045458D02*
X0024325Y0045458D01*
X0024281Y0046257D02*
X0022101Y0046257D01*
X0022101Y0047055D02*
X0024281Y0047055D01*
X0024454Y0047854D02*
X0022101Y0047854D01*
X0022101Y0048653D02*
X0024785Y0048653D01*
X0025285Y0049451D02*
X0022101Y0049451D01*
X0022101Y0050250D02*
X0026084Y0050250D01*
X0027679Y0051048D02*
X0022101Y0051048D01*
X0022101Y0051847D02*
X0027933Y0051847D01*
X0028046Y0051800D02*
X0029916Y0051800D01*
X0031643Y0052516D01*
X0032965Y0053838D01*
X0033681Y0055565D01*
X0033681Y0057435D01*
X0032965Y0059162D01*
X0031643Y0060484D01*
X0029916Y0061200D01*
X0028046Y0061200D01*
X0026318Y0060484D01*
X0024996Y0059162D01*
X0024281Y0057435D01*
X0024281Y0055565D01*
X0024996Y0053838D01*
X0026318Y0052516D01*
X0028046Y0051800D01*
X0030028Y0051847D02*
X0037933Y0051847D01*
X0038046Y0051800D02*
X0039916Y0051800D01*
X0041643Y0052516D01*
X0042965Y0053838D01*
X0043681Y0055565D01*
X0043681Y0057435D01*
X0042965Y0059162D01*
X0041643Y0060484D01*
X0039916Y0061200D01*
X0038046Y0061200D01*
X0036318Y0060484D01*
X0034996Y0059162D01*
X0034281Y0057435D01*
X0034281Y0055565D01*
X0034996Y0053838D01*
X0036318Y0052516D01*
X0038046Y0051800D01*
X0037679Y0051048D02*
X0030283Y0051048D01*
X0031878Y0050250D02*
X0036084Y0050250D01*
X0035285Y0049451D02*
X0032677Y0049451D01*
X0033176Y0048653D02*
X0034785Y0048653D01*
X0034454Y0047854D02*
X0033507Y0047854D01*
X0033681Y0047055D02*
X0034281Y0047055D01*
X0034281Y0046257D02*
X0033681Y0046257D01*
X0033637Y0045458D02*
X0034325Y0045458D01*
X0034656Y0044660D02*
X0033306Y0044660D01*
X0032975Y0043861D02*
X0034986Y0043861D01*
X0035771Y0043063D02*
X0032191Y0043063D01*
X0031037Y0042264D02*
X0036925Y0042264D01*
X0038046Y0041200D02*
X0036318Y0040484D01*
X0034996Y0039162D01*
X0034281Y0037435D01*
X0034281Y0035565D01*
X0034996Y0033838D01*
X0036318Y0032516D01*
X0038046Y0031800D01*
X0039916Y0031800D01*
X0041643Y0032516D01*
X0042965Y0033838D01*
X0043681Y0035565D01*
X0043681Y0037435D01*
X0042965Y0039162D01*
X0041643Y0040484D01*
X0039916Y0041200D01*
X0038046Y0041200D01*
X0036760Y0040667D02*
X0031201Y0040667D01*
X0031643Y0040484D02*
X0029916Y0041200D01*
X0028046Y0041200D01*
X0026318Y0040484D01*
X0024996Y0039162D01*
X0024281Y0037435D01*
X0024281Y0035565D01*
X0024996Y0033838D01*
X0026318Y0032516D01*
X0028046Y0031800D01*
X0029916Y0031800D01*
X0031643Y0032516D01*
X0032965Y0033838D01*
X0033681Y0035565D01*
X0033681Y0037435D01*
X0032965Y0039162D01*
X0031643Y0040484D01*
X0032259Y0039869D02*
X0035703Y0039869D01*
X0034958Y0039070D02*
X0033003Y0039070D01*
X0033334Y0038272D02*
X0034627Y0038272D01*
X0034297Y0037473D02*
X0033665Y0037473D01*
X0033681Y0036675D02*
X0034281Y0036675D01*
X0034281Y0035876D02*
X0033681Y0035876D01*
X0033479Y0035078D02*
X0034483Y0035078D01*
X0034813Y0034279D02*
X0033148Y0034279D01*
X0032608Y0033481D02*
X0035353Y0033481D01*
X0036152Y0032682D02*
X0031810Y0032682D01*
X0030118Y0031884D02*
X0037844Y0031884D01*
X0038046Y0031200D02*
X0036318Y0030484D01*
X0034996Y0029162D01*
X0034281Y0027435D01*
X0034281Y0025565D01*
X0034996Y0023838D01*
X0036318Y0022516D01*
X0038046Y0021800D01*
X0039916Y0021800D01*
X0041643Y0022516D01*
X0042965Y0023838D01*
X0043681Y0025565D01*
X0043681Y0027435D01*
X0042965Y0029162D01*
X0041643Y0030484D01*
X0039916Y0031200D01*
X0038046Y0031200D01*
X0037769Y0031085D02*
X0030193Y0031085D01*
X0029916Y0031200D02*
X0028046Y0031200D01*
X0026318Y0030484D01*
X0024996Y0029162D01*
X0024281Y0027435D01*
X0024281Y0025565D01*
X0024996Y0023838D01*
X0026318Y0022516D01*
X0028046Y0021800D01*
X0029916Y0021800D01*
X0031643Y0022516D01*
X0032965Y0023838D01*
X0033681Y0025565D01*
X0033681Y0027435D01*
X0032965Y0029162D01*
X0031643Y0030484D01*
X0029916Y0031200D01*
X0031841Y0030287D02*
X0036121Y0030287D01*
X0035322Y0029488D02*
X0032639Y0029488D01*
X0033161Y0028690D02*
X0034801Y0028690D01*
X0034470Y0027891D02*
X0033492Y0027891D01*
X0033681Y0027093D02*
X0034281Y0027093D01*
X0034281Y0026294D02*
X0033681Y0026294D01*
X0033652Y0025496D02*
X0034310Y0025496D01*
X0034640Y0024697D02*
X0033321Y0024697D01*
X0032991Y0023899D02*
X0034971Y0023899D01*
X0035734Y0023100D02*
X0032228Y0023100D01*
X0031127Y0022302D02*
X0036835Y0022302D01*
X0041127Y0022302D02*
X0099922Y0022302D01*
X0099922Y0023100D02*
X0083854Y0023100D01*
X0084852Y0023899D02*
X0099922Y0023899D01*
X0099922Y0024697D02*
X0085504Y0024697D01*
X0086324Y0027891D02*
X0099922Y0027891D01*
X0099922Y0028690D02*
X0086196Y0028690D01*
X0085928Y0029488D02*
X0099922Y0029488D01*
X0100020Y0030287D02*
X0085493Y0030287D01*
X0084836Y0031085D02*
X0100256Y0031085D01*
X0100653Y0031884D02*
X0083824Y0031884D01*
X0082950Y0032682D02*
X0101287Y0032682D01*
X0102254Y0033481D02*
X0084391Y0033481D01*
X0085200Y0034279D02*
X0144179Y0034279D01*
X0144264Y0034162D02*
X0144832Y0033594D01*
X0145481Y0033122D01*
X0146196Y0032758D01*
X0146960Y0032510D01*
X0147121Y0032484D01*
X0146960Y0032459D01*
X0146196Y0032211D01*
X0145481Y0031846D01*
X0144832Y0031374D01*
X0144264Y0030807D01*
X0143792Y0030157D01*
X0143428Y0029442D01*
X0143180Y0028679D01*
X0143054Y0027886D01*
X0143054Y0027884D01*
X0147754Y0027884D01*
X0147754Y0027084D01*
X0148554Y0027084D01*
X0148554Y0022384D01*
X0148555Y0022384D01*
X0149348Y0022510D01*
X0150112Y0022758D01*
X0150827Y0023122D01*
X0151476Y0023594D01*
X0152044Y0024162D01*
X0152516Y0024811D01*
X0152880Y0025527D01*
X0153128Y0026290D01*
X0153254Y0027083D01*
X0153254Y0027084D01*
X0148554Y0027084D01*
X0148554Y0027884D01*
X0153254Y0027884D01*
X0153254Y0027886D01*
X0153128Y0028679D01*
X0152880Y0029442D01*
X0152516Y0030157D01*
X0152044Y0030807D01*
X0151476Y0031374D01*
X0150827Y0031846D01*
X0150112Y0032211D01*
X0149348Y0032459D01*
X0149187Y0032484D01*
X0149348Y0032510D01*
X0150112Y0032758D01*
X0150827Y0033122D01*
X0151476Y0033594D01*
X0152044Y0034162D01*
X0152516Y0034811D01*
X0152880Y0035527D01*
X0153128Y0036290D01*
X0153254Y0037083D01*
X0153254Y0037084D01*
X0148554Y0037084D01*
X0148554Y0027884D01*
X0147754Y0027884D01*
X0147754Y0032584D01*
X0147754Y0037084D01*
X0148554Y0037084D01*
X0148554Y0037884D01*
X0153254Y0037884D01*
X0153254Y0037886D01*
X0153128Y0038679D01*
X0152880Y0039442D01*
X0152516Y0040157D01*
X0152044Y0040807D01*
X0151476Y0041374D01*
X0150827Y0041846D01*
X0150112Y0042211D01*
X0149348Y0042459D01*
X0149187Y0042484D01*
X0149348Y0042510D01*
X0150112Y0042758D01*
X0150827Y0043122D01*
X0151476Y0043594D01*
X0152044Y0044162D01*
X0152516Y0044811D01*
X0152880Y0045527D01*
X0153128Y0046290D01*
X0153254Y0047083D01*
X0153254Y0047084D01*
X0148554Y0047084D01*
X0148554Y0037884D01*
X0147754Y0037884D01*
X0147754Y0037084D01*
X0143054Y0037084D01*
X0143054Y0037083D01*
X0143180Y0036290D01*
X0143428Y0035527D01*
X0143792Y0034811D01*
X0144264Y0034162D01*
X0144988Y0033481D02*
X0126207Y0033481D01*
X0125432Y0033802D02*
X0127095Y0033113D01*
X0128368Y0031840D01*
X0129057Y0030177D01*
X0129057Y0021327D01*
X0128368Y0019664D01*
X0127095Y0018391D01*
X0125432Y0017702D01*
X0123632Y0017702D01*
X0121969Y0018391D01*
X0120696Y0019664D01*
X0120007Y0021327D01*
X0120007Y0030177D01*
X0120696Y0031840D01*
X0121969Y0033113D01*
X0123632Y0033802D01*
X0125432Y0033802D01*
X0127526Y0032682D02*
X0146429Y0032682D01*
X0145555Y0031884D02*
X0128324Y0031884D01*
X0128681Y0031085D02*
X0144543Y0031085D01*
X0143886Y0030287D02*
X0129012Y0030287D01*
X0129057Y0029488D02*
X0143451Y0029488D01*
X0143183Y0028690D02*
X0129057Y0028690D01*
X0129057Y0027891D02*
X0143055Y0027891D01*
X0143054Y0027084D02*
X0143054Y0027083D01*
X0143180Y0026290D01*
X0143428Y0025527D01*
X0143792Y0024811D01*
X0144264Y0024162D01*
X0144832Y0023594D01*
X0145481Y0023122D01*
X0146196Y0022758D01*
X0146960Y0022510D01*
X0147753Y0022384D01*
X0147754Y0022384D01*
X0147754Y0027084D01*
X0143054Y0027084D01*
X0143179Y0026294D02*
X0129057Y0026294D01*
X0129057Y0025496D02*
X0143443Y0025496D01*
X0143875Y0024697D02*
X0129057Y0024697D01*
X0129057Y0023899D02*
X0144527Y0023899D01*
X0145525Y0023100D02*
X0129057Y0023100D01*
X0129057Y0022302D02*
X0188252Y0022302D01*
X0187736Y0022516D02*
X0189463Y0021800D01*
X0191333Y0021800D01*
X0193060Y0022516D01*
X0194383Y0023838D01*
X0195098Y0025565D01*
X0195098Y0027435D01*
X0194383Y0029162D01*
X0193060Y0030484D01*
X0191333Y0031200D01*
X0189463Y0031200D01*
X0187736Y0030484D01*
X0186414Y0029162D01*
X0185698Y0027435D01*
X0185698Y0025565D01*
X0186414Y0023838D01*
X0187736Y0022516D01*
X0187151Y0023100D02*
X0169537Y0023100D01*
X0168774Y0022784D02*
X0170501Y0023500D01*
X0171824Y0024822D01*
X0172539Y0026549D01*
X0172539Y0028419D01*
X0171824Y0030147D01*
X0170501Y0031469D01*
X0168774Y0032184D01*
X0166904Y0032184D01*
X0165177Y0031469D01*
X0163855Y0030147D01*
X0163139Y0028419D01*
X0163139Y0026549D01*
X0163855Y0024822D01*
X0165177Y0023500D01*
X0166904Y0022784D01*
X0168774Y0022784D01*
X0170900Y0023899D02*
X0186388Y0023899D01*
X0186058Y0024697D02*
X0171699Y0024697D01*
X0172103Y0025496D02*
X0185727Y0025496D01*
X0185698Y0026294D02*
X0172433Y0026294D01*
X0172539Y0027093D02*
X0185698Y0027093D01*
X0185887Y0027891D02*
X0172539Y0027891D01*
X0172427Y0028690D02*
X0186218Y0028690D01*
X0186740Y0029488D02*
X0172096Y0029488D01*
X0171683Y0030287D02*
X0187538Y0030287D01*
X0189186Y0031085D02*
X0170885Y0031085D01*
X0169499Y0031884D02*
X0189261Y0031884D01*
X0189463Y0031800D02*
X0191333Y0031800D01*
X0193060Y0032516D01*
X0194383Y0033838D01*
X0195098Y0035565D01*
X0195098Y0037435D01*
X0194383Y0039162D01*
X0193060Y0040484D01*
X0191333Y0041200D01*
X0189463Y0041200D01*
X0187736Y0040484D01*
X0186414Y0039162D01*
X0185698Y0037435D01*
X0185698Y0035565D01*
X0186414Y0033838D01*
X0187736Y0032516D01*
X0189463Y0031800D01*
X0191535Y0031884D02*
X0199261Y0031884D01*
X0199463Y0031800D02*
X0201333Y0031800D01*
X0203060Y0032516D01*
X0204383Y0033838D01*
X0205098Y0035565D01*
X0205098Y0037435D01*
X0204383Y0039162D01*
X0203060Y0040484D01*
X0201333Y0041200D01*
X0199463Y0041200D01*
X0197736Y0040484D01*
X0196414Y0039162D01*
X0195698Y0037435D01*
X0195698Y0035565D01*
X0196414Y0033838D01*
X0197736Y0032516D01*
X0199463Y0031800D01*
X0199463Y0031200D02*
X0197736Y0030484D01*
X0196414Y0029162D01*
X0195698Y0027435D01*
X0195698Y0025565D01*
X0196414Y0023838D01*
X0197736Y0022516D01*
X0199463Y0021800D01*
X0201333Y0021800D01*
X0203060Y0022516D01*
X0204383Y0023838D01*
X0205098Y0025565D01*
X0205098Y0027435D01*
X0204383Y0029162D01*
X0203060Y0030484D01*
X0201333Y0031200D01*
X0199463Y0031200D01*
X0199186Y0031085D02*
X0191610Y0031085D01*
X0193258Y0030287D02*
X0197538Y0030287D01*
X0196740Y0029488D02*
X0194057Y0029488D01*
X0194578Y0028690D02*
X0196218Y0028690D01*
X0195887Y0027891D02*
X0194909Y0027891D01*
X0195098Y0027093D02*
X0195698Y0027093D01*
X0195698Y0026294D02*
X0195098Y0026294D01*
X0195069Y0025496D02*
X0195727Y0025496D01*
X0196058Y0024697D02*
X0194739Y0024697D01*
X0194408Y0023899D02*
X0196388Y0023899D01*
X0197151Y0023100D02*
X0193645Y0023100D01*
X0192544Y0022302D02*
X0198252Y0022302D01*
X0202544Y0022302D02*
X0207278Y0022302D01*
X0207278Y0023100D02*
X0203645Y0023100D01*
X0204408Y0023899D02*
X0207278Y0023899D01*
X0207278Y0024697D02*
X0204739Y0024697D01*
X0205069Y0025496D02*
X0207278Y0025496D01*
X0207278Y0026294D02*
X0205098Y0026294D01*
X0205098Y0027093D02*
X0207278Y0027093D01*
X0207278Y0027891D02*
X0204909Y0027891D01*
X0204578Y0028690D02*
X0207278Y0028690D01*
X0207278Y0029488D02*
X0204057Y0029488D01*
X0203258Y0030287D02*
X0207278Y0030287D01*
X0207278Y0031085D02*
X0201610Y0031085D01*
X0201535Y0031884D02*
X0207278Y0031884D01*
X0207278Y0032682D02*
X0203227Y0032682D01*
X0204026Y0033481D02*
X0207278Y0033481D01*
X0207278Y0034279D02*
X0204566Y0034279D01*
X0204896Y0035078D02*
X0207278Y0035078D01*
X0207278Y0035876D02*
X0205098Y0035876D01*
X0205098Y0036675D02*
X0207278Y0036675D01*
X0207278Y0037473D02*
X0205082Y0037473D01*
X0204751Y0038272D02*
X0207278Y0038272D01*
X0207278Y0039070D02*
X0204421Y0039070D01*
X0203676Y0039869D02*
X0207278Y0039869D01*
X0207278Y0040667D02*
X0202619Y0040667D01*
X0201333Y0041800D02*
X0203060Y0042516D01*
X0204383Y0043838D01*
X0205098Y0045565D01*
X0205098Y0047435D01*
X0204383Y0049162D01*
X0203060Y0050484D01*
X0201333Y0051200D01*
X0199463Y0051200D01*
X0197736Y0050484D01*
X0196414Y0049162D01*
X0195698Y0047435D01*
X0195698Y0045565D01*
X0196414Y0043838D01*
X0197736Y0042516D01*
X0199463Y0041800D01*
X0201333Y0041800D01*
X0202454Y0042264D02*
X0207278Y0042264D01*
X0207278Y0041466D02*
X0170504Y0041466D01*
X0170501Y0041469D02*
X0168774Y0042184D01*
X0166904Y0042184D01*
X0165177Y0041469D01*
X0163855Y0040147D01*
X0163139Y0038419D01*
X0163139Y0036549D01*
X0163855Y0034822D01*
X0165177Y0033500D01*
X0166904Y0032784D01*
X0168774Y0032784D01*
X0170501Y0033500D01*
X0171824Y0034822D01*
X0172539Y0036549D01*
X0172539Y0038419D01*
X0171824Y0040147D01*
X0170501Y0041469D01*
X0171303Y0040667D02*
X0188177Y0040667D01*
X0187120Y0039869D02*
X0171939Y0039869D01*
X0172269Y0039070D02*
X0186376Y0039070D01*
X0186045Y0038272D02*
X0172539Y0038272D01*
X0172539Y0037473D02*
X0185714Y0037473D01*
X0185698Y0036675D02*
X0172539Y0036675D01*
X0172260Y0035876D02*
X0185698Y0035876D01*
X0185900Y0035078D02*
X0171930Y0035078D01*
X0171281Y0034279D02*
X0186231Y0034279D01*
X0186770Y0033481D02*
X0170456Y0033481D01*
X0166179Y0031884D02*
X0159657Y0031884D01*
X0158931Y0032184D02*
X0157062Y0032184D01*
X0155334Y0031469D01*
X0154012Y0030147D01*
X0153297Y0028419D01*
X0153297Y0026549D01*
X0154012Y0024822D01*
X0155334Y0023500D01*
X0157062Y0022784D01*
X0158931Y0022784D01*
X0160659Y0023500D01*
X0161981Y0024822D01*
X0162697Y0026549D01*
X0162697Y0028419D01*
X0161981Y0030147D01*
X0160659Y0031469D01*
X0158931Y0032184D01*
X0158931Y0032784D02*
X0157062Y0032784D01*
X0155334Y0033500D01*
X0154012Y0034822D01*
X0153297Y0036549D01*
X0153297Y0038419D01*
X0154012Y0040147D01*
X0155334Y0041469D01*
X0157062Y0042184D01*
X0158931Y0042184D01*
X0160659Y0041469D01*
X0161981Y0040147D01*
X0162697Y0038419D01*
X0162697Y0036549D01*
X0161981Y0034822D01*
X0160659Y0033500D01*
X0158931Y0032784D01*
X0160613Y0033481D02*
X0165223Y0033481D01*
X0164397Y0034279D02*
X0161438Y0034279D01*
X0162087Y0035078D02*
X0163749Y0035078D01*
X0163418Y0035876D02*
X0162418Y0035876D01*
X0162697Y0036675D02*
X0163139Y0036675D01*
X0163139Y0037473D02*
X0162697Y0037473D01*
X0162697Y0038272D02*
X0163139Y0038272D01*
X0163409Y0039070D02*
X0162427Y0039070D01*
X0162096Y0039869D02*
X0163740Y0039869D01*
X0164375Y0040667D02*
X0161460Y0040667D01*
X0160662Y0041466D02*
X0165174Y0041466D01*
X0166231Y0043063D02*
X0159604Y0043063D01*
X0158931Y0042784D02*
X0160659Y0043500D01*
X0161981Y0044822D01*
X0162697Y0046549D01*
X0162697Y0048419D01*
X0161981Y0050147D01*
X0160659Y0051469D01*
X0158931Y0052184D01*
X0157062Y0052184D01*
X0155334Y0051469D01*
X0154012Y0050147D01*
X0153297Y0048419D01*
X0153297Y0046549D01*
X0154012Y0044822D01*
X0155334Y0043500D01*
X0157062Y0042784D01*
X0158931Y0042784D01*
X0161021Y0043861D02*
X0164815Y0043861D01*
X0165177Y0043500D02*
X0163855Y0044822D01*
X0163139Y0046549D01*
X0163139Y0048419D01*
X0163855Y0050147D01*
X0165177Y0051469D01*
X0166904Y0052184D01*
X0168774Y0052184D01*
X0170501Y0051469D01*
X0171824Y0050147D01*
X0172539Y0048419D01*
X0172539Y0046549D01*
X0171824Y0044822D01*
X0170501Y0043500D01*
X0168774Y0042784D01*
X0166904Y0042784D01*
X0165177Y0043500D01*
X0169447Y0043063D02*
X0187188Y0043063D01*
X0187736Y0042516D02*
X0189463Y0041800D01*
X0191333Y0041800D01*
X0193060Y0042516D01*
X0194383Y0043838D01*
X0195098Y0045565D01*
X0195098Y0047435D01*
X0194383Y0049162D01*
X0193060Y0050484D01*
X0191333Y0051200D01*
X0189463Y0051200D01*
X0187736Y0050484D01*
X0186414Y0049162D01*
X0185698Y0047435D01*
X0185698Y0045565D01*
X0186414Y0043838D01*
X0187736Y0042516D01*
X0188342Y0042264D02*
X0149946Y0042264D01*
X0150710Y0043063D02*
X0156389Y0043063D01*
X0154973Y0043861D02*
X0151744Y0043861D01*
X0152406Y0044660D02*
X0154174Y0044660D01*
X0153748Y0045458D02*
X0152846Y0045458D01*
X0153118Y0046257D02*
X0153418Y0046257D01*
X0153297Y0047055D02*
X0153250Y0047055D01*
X0153297Y0047854D02*
X0148554Y0047854D01*
X0148554Y0047884D02*
X0153254Y0047884D01*
X0153254Y0047886D01*
X0153128Y0048679D01*
X0152880Y0049442D01*
X0152516Y0050157D01*
X0152044Y0050807D01*
X0151476Y0051374D01*
X0150827Y0051846D01*
X0150112Y0052211D01*
X0149348Y0052459D01*
X0149187Y0052484D01*
X0149348Y0052510D01*
X0150112Y0052758D01*
X0150827Y0053122D01*
X0151476Y0053594D01*
X0152044Y0054162D01*
X0152516Y0054811D01*
X0152880Y0055527D01*
X0153128Y0056290D01*
X0153254Y0057083D01*
X0153254Y0057084D01*
X0148554Y0057084D01*
X0148554Y0047884D01*
X0148554Y0047084D01*
X0147754Y0047084D01*
X0147754Y0042584D01*
X0147754Y0037884D01*
X0143054Y0037884D01*
X0143054Y0037886D01*
X0143180Y0038679D01*
X0143428Y0039442D01*
X0143792Y0040157D01*
X0144264Y0040807D01*
X0144832Y0041374D01*
X0145481Y0041846D01*
X0146196Y0042211D01*
X0146960Y0042459D01*
X0147121Y0042484D01*
X0146960Y0042510D01*
X0146196Y0042758D01*
X0145481Y0043122D01*
X0144832Y0043594D01*
X0144264Y0044162D01*
X0143792Y0044811D01*
X0143428Y0045527D01*
X0143180Y0046290D01*
X0143054Y0047083D01*
X0143054Y0047084D01*
X0147754Y0047084D01*
X0147754Y0047884D01*
X0143054Y0047884D01*
X0143054Y0047886D01*
X0143180Y0048679D01*
X0143428Y0049442D01*
X0143792Y0050157D01*
X0144264Y0050807D01*
X0144832Y0051374D01*
X0145481Y0051846D01*
X0146196Y0052211D01*
X0146960Y0052459D01*
X0147121Y0052484D01*
X0146960Y0052510D01*
X0146196Y0052758D01*
X0145481Y0053122D01*
X0144832Y0053594D01*
X0144264Y0054162D01*
X0143792Y0054811D01*
X0143428Y0055527D01*
X0143180Y0056290D01*
X0143054Y0057083D01*
X0143054Y0057084D01*
X0147754Y0057084D01*
X0148554Y0057084D01*
X0148554Y0057884D01*
X0153254Y0057884D01*
X0153254Y0057886D01*
X0153128Y0058679D01*
X0152880Y0059442D01*
X0152516Y0060157D01*
X0152044Y0060807D01*
X0151476Y0061374D01*
X0150827Y0061846D01*
X0150112Y0062211D01*
X0149348Y0062459D01*
X0149187Y0062484D01*
X0149348Y0062510D01*
X0150112Y0062758D01*
X0150827Y0063122D01*
X0151476Y0063594D01*
X0152044Y0064162D01*
X0152516Y0064811D01*
X0152880Y0065527D01*
X0153128Y0066290D01*
X0153254Y0067083D01*
X0153254Y0067084D01*
X0148554Y0067084D01*
X0148554Y0057884D01*
X0147754Y0057884D01*
X0147754Y0057084D01*
X0147754Y0052384D01*
X0147754Y0047884D01*
X0148554Y0047884D01*
X0148554Y0048653D02*
X0147754Y0048653D01*
X0147754Y0049451D02*
X0148554Y0049451D01*
X0148554Y0050250D02*
X0147754Y0050250D01*
X0147754Y0051048D02*
X0148554Y0051048D01*
X0148554Y0051847D02*
X0147754Y0051847D01*
X0147754Y0052645D02*
X0148554Y0052645D01*
X0148554Y0053444D02*
X0147754Y0053444D01*
X0147754Y0054242D02*
X0148554Y0054242D01*
X0148554Y0055041D02*
X0147754Y0055041D01*
X0147754Y0055839D02*
X0148554Y0055839D01*
X0148554Y0056638D02*
X0147754Y0056638D01*
X0147754Y0057436D02*
X0081625Y0057436D01*
X0081625Y0057084D02*
X0081625Y0057884D01*
X0086325Y0057884D01*
X0086325Y0057886D01*
X0086199Y0058679D01*
X0085951Y0059442D01*
X0085587Y0060157D01*
X0085115Y0060807D01*
X0084547Y0061374D01*
X0083898Y0061846D01*
X0083183Y0062211D01*
X0082419Y0062459D01*
X0082258Y0062484D01*
X0082419Y0062510D01*
X0083183Y0062758D01*
X0083898Y0063122D01*
X0084547Y0063594D01*
X0085115Y0064162D01*
X0085587Y0064811D01*
X0085951Y0065527D01*
X0086199Y0066290D01*
X0086325Y0067083D01*
X0086325Y0067084D01*
X0081625Y0067084D01*
X0081625Y0062384D01*
X0081625Y0057884D01*
X0080825Y0057884D01*
X0080825Y0057084D01*
X0081625Y0057084D01*
X0081625Y0056638D02*
X0080825Y0056638D01*
X0080825Y0057084D02*
X0080825Y0047884D01*
X0076125Y0047884D01*
X0076125Y0047886D01*
X0076250Y0048679D01*
X0076499Y0049442D01*
X0076863Y0050157D01*
X0077335Y0050807D01*
X0077902Y0051374D01*
X0078552Y0051846D01*
X0079267Y0052211D01*
X0080031Y0052459D01*
X0080192Y0052484D01*
X0080031Y0052510D01*
X0079267Y0052758D01*
X0078552Y0053122D01*
X0077902Y0053594D01*
X0077335Y0054162D01*
X0076863Y0054811D01*
X0076499Y0055527D01*
X0076250Y0056290D01*
X0076125Y0057083D01*
X0076125Y0057084D01*
X0080825Y0057084D01*
X0080825Y0057436D02*
X0076082Y0057436D01*
X0076125Y0057884D02*
X0080825Y0057884D01*
X0080825Y0067084D01*
X0081625Y0067084D01*
X0081625Y0067884D01*
X0086325Y0067884D01*
X0086325Y0067886D01*
X0086199Y0068679D01*
X0085951Y0069442D01*
X0085587Y0070157D01*
X0085115Y0070807D01*
X0084547Y0071374D01*
X0083898Y0071846D01*
X0083183Y0072211D01*
X0082419Y0072459D01*
X0081626Y0072584D01*
X0081625Y0072584D01*
X0081625Y0067884D01*
X0080825Y0067884D01*
X0080825Y0067084D01*
X0076125Y0067084D01*
X0076125Y0067083D01*
X0076250Y0066290D01*
X0076499Y0065527D01*
X0076863Y0064811D01*
X0077335Y0064162D01*
X0077902Y0063594D01*
X0078552Y0063122D01*
X0079267Y0062758D01*
X0080031Y0062510D01*
X0080192Y0062484D01*
X0080031Y0062459D01*
X0079267Y0062211D01*
X0078552Y0061846D01*
X0077902Y0061374D01*
X0077335Y0060807D01*
X0076863Y0060157D01*
X0076499Y0059442D01*
X0076250Y0058679D01*
X0076125Y0057886D01*
X0076125Y0057884D01*
X0076082Y0058235D02*
X0076180Y0058235D01*
X0076082Y0058419D02*
X0075367Y0060147D01*
X0074045Y0061469D01*
X0072317Y0062184D01*
X0070447Y0062184D01*
X0068720Y0061469D01*
X0067398Y0060147D01*
X0066682Y0058419D01*
X0066682Y0056549D01*
X0067398Y0054822D01*
X0068720Y0053500D01*
X0070447Y0052784D01*
X0072317Y0052784D01*
X0074045Y0053500D01*
X0075367Y0054822D01*
X0076082Y0056549D01*
X0076082Y0058419D01*
X0075828Y0059033D02*
X0076366Y0059033D01*
X0076697Y0059832D02*
X0075497Y0059832D01*
X0074883Y0060630D02*
X0077207Y0060630D01*
X0077977Y0061429D02*
X0074085Y0061429D01*
X0072900Y0063026D02*
X0078742Y0063026D01*
X0079318Y0062227D02*
X0040947Y0062227D01*
X0041643Y0062516D02*
X0039916Y0061800D01*
X0038046Y0061800D01*
X0036318Y0062516D01*
X0034996Y0063838D01*
X0034281Y0065565D01*
X0034281Y0067435D01*
X0034996Y0069162D01*
X0036318Y0070484D01*
X0038046Y0071200D01*
X0039916Y0071200D01*
X0041643Y0070484D01*
X0042965Y0069162D01*
X0043681Y0067435D01*
X0043681Y0065565D01*
X0042965Y0063838D01*
X0041643Y0062516D01*
X0042153Y0063026D02*
X0060022Y0063026D01*
X0060605Y0062784D02*
X0062475Y0062784D01*
X0064202Y0063500D01*
X0065524Y0064822D01*
X0066240Y0066549D01*
X0066240Y0068419D01*
X0065524Y0070147D01*
X0064202Y0071469D01*
X0062475Y0072184D01*
X0060605Y0072184D01*
X0058877Y0071469D01*
X0057555Y0070147D01*
X0056840Y0068419D01*
X0056840Y0066549D01*
X0057555Y0064822D01*
X0058877Y0063500D01*
X0060605Y0062784D01*
X0060605Y0062184D02*
X0058877Y0061469D01*
X0057555Y0060147D01*
X0056840Y0058419D01*
X0056840Y0056549D01*
X0057555Y0054822D01*
X0058877Y0053500D01*
X0060605Y0052784D01*
X0062475Y0052784D01*
X0064202Y0053500D01*
X0065524Y0054822D01*
X0066240Y0056549D01*
X0066240Y0058419D01*
X0065524Y0060147D01*
X0064202Y0061469D01*
X0062475Y0062184D01*
X0060605Y0062184D01*
X0058837Y0061429D02*
X0022101Y0061429D01*
X0022101Y0062227D02*
X0027015Y0062227D01*
X0026318Y0062516D02*
X0028046Y0061800D01*
X0029916Y0061800D01*
X0031643Y0062516D01*
X0032965Y0063838D01*
X0033681Y0065565D01*
X0033681Y0067435D01*
X0032965Y0069162D01*
X0031643Y0070484D01*
X0029916Y0071200D01*
X0028046Y0071200D01*
X0026318Y0070484D01*
X0024996Y0069162D01*
X0024281Y0067435D01*
X0024281Y0065565D01*
X0024996Y0063838D01*
X0026318Y0062516D01*
X0025808Y0063026D02*
X0022101Y0063026D01*
X0022101Y0063824D02*
X0025010Y0063824D01*
X0024671Y0064623D02*
X0022101Y0064623D01*
X0022101Y0065421D02*
X0024340Y0065421D01*
X0024281Y0066220D02*
X0022101Y0066220D01*
X0022101Y0067018D02*
X0024281Y0067018D01*
X0024439Y0067817D02*
X0022101Y0067817D01*
X0022101Y0068615D02*
X0024770Y0068615D01*
X0025248Y0069414D02*
X0022101Y0069414D01*
X0022101Y0070212D02*
X0026046Y0070212D01*
X0027589Y0071011D02*
X0022101Y0071011D01*
X0022101Y0071809D02*
X0059700Y0071809D01*
X0058420Y0071011D02*
X0040372Y0071011D01*
X0041915Y0070212D02*
X0057621Y0070212D01*
X0057252Y0069414D02*
X0042714Y0069414D01*
X0043192Y0068615D02*
X0056921Y0068615D01*
X0056840Y0067817D02*
X0043523Y0067817D01*
X0043681Y0067018D02*
X0056840Y0067018D01*
X0056976Y0066220D02*
X0043681Y0066220D01*
X0043621Y0065421D02*
X0057307Y0065421D01*
X0057755Y0064623D02*
X0043290Y0064623D01*
X0042952Y0063824D02*
X0058553Y0063824D01*
X0063058Y0063026D02*
X0069865Y0063026D01*
X0070447Y0062784D02*
X0072317Y0062784D01*
X0074045Y0063500D01*
X0075367Y0064822D01*
X0076082Y0066549D01*
X0076082Y0068419D01*
X0075367Y0070147D01*
X0074045Y0071469D01*
X0072317Y0072184D01*
X0070447Y0072184D01*
X0068720Y0071469D01*
X0067398Y0070147D01*
X0066682Y0068419D01*
X0066682Y0066549D01*
X0067398Y0064822D01*
X0068720Y0063500D01*
X0070447Y0062784D01*
X0068680Y0061429D02*
X0064242Y0061429D01*
X0065041Y0060630D02*
X0067881Y0060630D01*
X0067267Y0059832D02*
X0065655Y0059832D01*
X0065985Y0059033D02*
X0066937Y0059033D01*
X0066682Y0058235D02*
X0066240Y0058235D01*
X0066240Y0057436D02*
X0066682Y0057436D01*
X0066682Y0056638D02*
X0066240Y0056638D01*
X0065946Y0055839D02*
X0066977Y0055839D01*
X0067307Y0055041D02*
X0065615Y0055041D01*
X0064944Y0054242D02*
X0067978Y0054242D01*
X0068856Y0053444D02*
X0064066Y0053444D01*
X0063290Y0051847D02*
X0069632Y0051847D01*
X0070447Y0052184D02*
X0068720Y0051469D01*
X0067398Y0050147D01*
X0066682Y0048419D01*
X0066682Y0046549D01*
X0067398Y0044822D01*
X0068720Y0043500D01*
X0070447Y0042784D01*
X0072317Y0042784D01*
X0074045Y0043500D01*
X0075367Y0044822D01*
X0076082Y0046549D01*
X0076082Y0048419D01*
X0075367Y0050147D01*
X0074045Y0051469D01*
X0072317Y0052184D01*
X0070447Y0052184D01*
X0073132Y0051847D02*
X0078553Y0051847D01*
X0077576Y0051048D02*
X0074465Y0051048D01*
X0075264Y0050250D02*
X0076930Y0050250D01*
X0076503Y0049451D02*
X0075655Y0049451D01*
X0075986Y0048653D02*
X0076246Y0048653D01*
X0076082Y0047854D02*
X0080825Y0047854D01*
X0080825Y0047055D02*
X0081625Y0047055D01*
X0081625Y0046257D02*
X0080825Y0046257D01*
X0080825Y0045458D02*
X0081625Y0045458D01*
X0081625Y0044660D02*
X0080825Y0044660D01*
X0080825Y0043861D02*
X0081625Y0043861D01*
X0081625Y0043063D02*
X0080825Y0043063D01*
X0080825Y0042264D02*
X0081625Y0042264D01*
X0081625Y0041466D02*
X0080825Y0041466D01*
X0080825Y0040667D02*
X0081625Y0040667D01*
X0081625Y0039869D02*
X0080825Y0039869D01*
X0080825Y0039070D02*
X0081625Y0039070D01*
X0081625Y0038272D02*
X0080825Y0038272D01*
X0081625Y0037473D02*
X0147754Y0037473D01*
X0147754Y0036675D02*
X0148554Y0036675D01*
X0148554Y0037473D02*
X0153297Y0037473D01*
X0153297Y0036675D02*
X0153189Y0036675D01*
X0152994Y0035876D02*
X0153575Y0035876D01*
X0153906Y0035078D02*
X0152652Y0035078D01*
X0152129Y0034279D02*
X0154555Y0034279D01*
X0155380Y0033481D02*
X0151320Y0033481D01*
X0149879Y0032682D02*
X0187569Y0032682D01*
X0193227Y0032682D02*
X0197569Y0032682D01*
X0196770Y0033481D02*
X0194026Y0033481D01*
X0194566Y0034279D02*
X0196231Y0034279D01*
X0195900Y0035078D02*
X0194896Y0035078D01*
X0195098Y0035876D02*
X0195698Y0035876D01*
X0195698Y0036675D02*
X0195098Y0036675D01*
X0195082Y0037473D02*
X0195714Y0037473D01*
X0196045Y0038272D02*
X0194751Y0038272D01*
X0194421Y0039070D02*
X0196376Y0039070D01*
X0197120Y0039869D02*
X0193676Y0039869D01*
X0192619Y0040667D02*
X0198177Y0040667D01*
X0198342Y0042264D02*
X0192454Y0042264D01*
X0193608Y0043063D02*
X0197188Y0043063D01*
X0196404Y0043861D02*
X0194392Y0043861D01*
X0194723Y0044660D02*
X0196073Y0044660D01*
X0195742Y0045458D02*
X0195054Y0045458D01*
X0195098Y0046257D02*
X0195698Y0046257D01*
X0195698Y0047055D02*
X0195098Y0047055D01*
X0194924Y0047854D02*
X0195872Y0047854D01*
X0196202Y0048653D02*
X0194594Y0048653D01*
X0194094Y0049451D02*
X0196702Y0049451D01*
X0197501Y0050250D02*
X0193295Y0050250D01*
X0191700Y0051048D02*
X0199096Y0051048D01*
X0199463Y0051800D02*
X0201333Y0051800D01*
X0203060Y0052516D01*
X0204383Y0053838D01*
X0205098Y0055565D01*
X0205098Y0057435D01*
X0204383Y0059162D01*
X0203060Y0060484D01*
X0201333Y0061200D01*
X0199463Y0061200D01*
X0197736Y0060484D01*
X0196414Y0059162D01*
X0195698Y0057435D01*
X0195698Y0055565D01*
X0196414Y0053838D01*
X0197736Y0052516D01*
X0199463Y0051800D01*
X0199351Y0051847D02*
X0191445Y0051847D01*
X0191333Y0051800D02*
X0193060Y0052516D01*
X0194383Y0053838D01*
X0195098Y0055565D01*
X0195098Y0057435D01*
X0194383Y0059162D01*
X0193060Y0060484D01*
X0191333Y0061200D01*
X0189463Y0061200D01*
X0187736Y0060484D01*
X0186414Y0059162D01*
X0185698Y0057435D01*
X0185698Y0055565D01*
X0186414Y0053838D01*
X0187736Y0052516D01*
X0189463Y0051800D01*
X0191333Y0051800D01*
X0189351Y0051847D02*
X0169589Y0051847D01*
X0168774Y0052784D02*
X0166904Y0052784D01*
X0165177Y0053500D01*
X0163855Y0054822D01*
X0163139Y0056549D01*
X0163139Y0058419D01*
X0163855Y0060147D01*
X0165177Y0061469D01*
X0166904Y0062184D01*
X0168774Y0062184D01*
X0170501Y0061469D01*
X0171824Y0060147D01*
X0172539Y0058419D01*
X0172539Y0056549D01*
X0171824Y0054822D01*
X0170501Y0053500D01*
X0168774Y0052784D01*
X0170366Y0053444D02*
X0186808Y0053444D01*
X0186246Y0054242D02*
X0171244Y0054242D01*
X0171914Y0055041D02*
X0185915Y0055041D01*
X0185698Y0055839D02*
X0172245Y0055839D01*
X0172539Y0056638D02*
X0185698Y0056638D01*
X0185699Y0057436D02*
X0172539Y0057436D01*
X0172539Y0058235D02*
X0186029Y0058235D01*
X0186360Y0059033D02*
X0172285Y0059033D01*
X0171954Y0059832D02*
X0187083Y0059832D01*
X0188088Y0060630D02*
X0171340Y0060630D01*
X0170541Y0061429D02*
X0207278Y0061429D01*
X0207278Y0062227D02*
X0202364Y0062227D01*
X0203060Y0062516D02*
X0204383Y0063838D01*
X0205098Y0065565D01*
X0205098Y0067435D01*
X0204383Y0069162D01*
X0203060Y0070484D01*
X0201333Y0071200D01*
X0199463Y0071200D01*
X0197736Y0070484D01*
X0196414Y0069162D01*
X0195698Y0067435D01*
X0195698Y0065565D01*
X0196414Y0063838D01*
X0197736Y0062516D01*
X0199463Y0061800D01*
X0201333Y0061800D01*
X0203060Y0062516D01*
X0203571Y0063026D02*
X0207278Y0063026D01*
X0207278Y0063824D02*
X0204369Y0063824D01*
X0204708Y0064623D02*
X0207278Y0064623D01*
X0207278Y0065421D02*
X0205039Y0065421D01*
X0205098Y0066220D02*
X0207278Y0066220D01*
X0207278Y0067018D02*
X0205098Y0067018D01*
X0204940Y0067817D02*
X0207278Y0067817D01*
X0207278Y0068615D02*
X0204609Y0068615D01*
X0204131Y0069414D02*
X0207278Y0069414D01*
X0207278Y0070212D02*
X0203333Y0070212D01*
X0201790Y0071011D02*
X0207278Y0071011D01*
X0207278Y0071809D02*
X0169679Y0071809D01*
X0170501Y0071469D02*
X0168774Y0072184D01*
X0166904Y0072184D01*
X0165177Y0071469D01*
X0163855Y0070147D01*
X0163139Y0068419D01*
X0163139Y0066549D01*
X0163855Y0064822D01*
X0165177Y0063500D01*
X0166904Y0062784D01*
X0168774Y0062784D01*
X0170501Y0063500D01*
X0171824Y0064822D01*
X0172539Y0066549D01*
X0172539Y0068419D01*
X0171824Y0070147D01*
X0170501Y0071469D01*
X0170959Y0071011D02*
X0189007Y0071011D01*
X0189463Y0071200D02*
X0187736Y0070484D01*
X0186414Y0069162D01*
X0185698Y0067435D01*
X0185698Y0065565D01*
X0186414Y0063838D01*
X0187736Y0062516D01*
X0189463Y0061800D01*
X0191333Y0061800D01*
X0193060Y0062516D01*
X0194383Y0063838D01*
X0195098Y0065565D01*
X0195098Y0067435D01*
X0194383Y0069162D01*
X0193060Y0070484D01*
X0191333Y0071200D01*
X0189463Y0071200D01*
X0187464Y0070212D02*
X0171758Y0070212D01*
X0172127Y0069414D02*
X0186665Y0069414D01*
X0186187Y0068615D02*
X0172458Y0068615D01*
X0172539Y0067817D02*
X0185856Y0067817D01*
X0185698Y0067018D02*
X0172539Y0067018D01*
X0172403Y0066220D02*
X0185698Y0066220D01*
X0185758Y0065421D02*
X0172072Y0065421D01*
X0171624Y0064623D02*
X0186088Y0064623D01*
X0186427Y0063824D02*
X0170826Y0063824D01*
X0169357Y0063026D02*
X0187226Y0063026D01*
X0188432Y0062227D02*
X0150061Y0062227D01*
X0150637Y0063026D02*
X0156479Y0063026D01*
X0157062Y0062784D02*
X0158931Y0062784D01*
X0160659Y0063500D01*
X0161981Y0064822D01*
X0162697Y0066549D01*
X0162697Y0068419D01*
X0161981Y0070147D01*
X0160659Y0071469D01*
X0158931Y0072184D01*
X0157062Y0072184D01*
X0155334Y0071469D01*
X0154012Y0070147D01*
X0153297Y0068419D01*
X0153297Y0066549D01*
X0154012Y0064822D01*
X0155334Y0063500D01*
X0157062Y0062784D01*
X0157062Y0062184D02*
X0155334Y0061469D01*
X0154012Y0060147D01*
X0153297Y0058419D01*
X0153297Y0056549D01*
X0154012Y0054822D01*
X0155334Y0053500D01*
X0157062Y0052784D01*
X0158931Y0052784D01*
X0160659Y0053500D01*
X0161981Y0054822D01*
X0162697Y0056549D01*
X0162697Y0058419D01*
X0161981Y0060147D01*
X0160659Y0061469D01*
X0158931Y0062184D01*
X0157062Y0062184D01*
X0155294Y0061429D02*
X0151402Y0061429D01*
X0152172Y0060630D02*
X0154496Y0060630D01*
X0153882Y0059832D02*
X0152682Y0059832D01*
X0153013Y0059033D02*
X0153551Y0059033D01*
X0153297Y0058235D02*
X0153199Y0058235D01*
X0153297Y0057436D02*
X0148554Y0057436D01*
X0148554Y0058235D02*
X0147754Y0058235D01*
X0147754Y0057884D02*
X0147754Y0062584D01*
X0147754Y0067084D01*
X0148554Y0067084D01*
X0148554Y0067884D01*
X0153254Y0067884D01*
X0153254Y0067886D01*
X0153128Y0068679D01*
X0152880Y0069442D01*
X0152516Y0070157D01*
X0152044Y0070807D01*
X0151476Y0071374D01*
X0150827Y0071846D01*
X0150112Y0072211D01*
X0149348Y0072459D01*
X0148555Y0072584D01*
X0148554Y0072584D01*
X0148554Y0067884D01*
X0147754Y0067884D01*
X0147754Y0067084D01*
X0143054Y0067084D01*
X0143054Y0067083D01*
X0143180Y0066290D01*
X0143428Y0065527D01*
X0143792Y0064811D01*
X0144264Y0064162D01*
X0144832Y0063594D01*
X0145481Y0063122D01*
X0146196Y0062758D01*
X0146960Y0062510D01*
X0147121Y0062484D01*
X0146960Y0062459D01*
X0146196Y0062211D01*
X0145481Y0061846D01*
X0144832Y0061374D01*
X0144264Y0060807D01*
X0143792Y0060157D01*
X0143428Y0059442D01*
X0143180Y0058679D01*
X0143054Y0057886D01*
X0143054Y0057884D01*
X0147754Y0057884D01*
X0147754Y0059033D02*
X0148554Y0059033D01*
X0148554Y0059832D02*
X0147754Y0059832D01*
X0147754Y0060630D02*
X0148554Y0060630D01*
X0148554Y0061429D02*
X0147754Y0061429D01*
X0147754Y0062227D02*
X0148554Y0062227D01*
X0148554Y0063026D02*
X0147754Y0063026D01*
X0147754Y0063824D02*
X0148554Y0063824D01*
X0148554Y0064623D02*
X0147754Y0064623D01*
X0147754Y0065421D02*
X0148554Y0065421D01*
X0148554Y0066220D02*
X0147754Y0066220D01*
X0147754Y0067018D02*
X0148554Y0067018D01*
X0148554Y0067817D02*
X0153297Y0067817D01*
X0153297Y0067018D02*
X0153244Y0067018D01*
X0153106Y0066220D02*
X0153433Y0066220D01*
X0153764Y0065421D02*
X0152827Y0065421D01*
X0152379Y0064623D02*
X0154211Y0064623D01*
X0155010Y0063824D02*
X0151706Y0063824D01*
X0146247Y0062227D02*
X0083131Y0062227D01*
X0083708Y0063026D02*
X0145671Y0063026D01*
X0144602Y0063824D02*
X0116683Y0063824D01*
X0116360Y0063691D02*
X0119448Y0064969D01*
X0121811Y0067332D01*
X0123089Y0070420D01*
X0123089Y0073761D01*
X0121811Y0076849D01*
X0119448Y0079212D01*
X0116360Y0080491D01*
X0113019Y0080491D01*
X0109931Y0079212D01*
X0107568Y0076849D01*
X0106289Y0073761D01*
X0106289Y0070420D01*
X0107568Y0067332D01*
X0109931Y0064969D01*
X0113019Y0063691D01*
X0116360Y0063691D01*
X0118611Y0064623D02*
X0143929Y0064623D01*
X0143481Y0065421D02*
X0119900Y0065421D01*
X0120698Y0066220D02*
X0143202Y0066220D01*
X0143064Y0067018D02*
X0121497Y0067018D01*
X0122011Y0067817D02*
X0147754Y0067817D01*
X0147754Y0067884D02*
X0143054Y0067884D01*
X0143054Y0067886D01*
X0143180Y0068679D01*
X0143428Y0069442D01*
X0143792Y0070157D01*
X0144264Y0070807D01*
X0144832Y0071374D01*
X0145481Y0071846D01*
X0146196Y0072211D01*
X0146960Y0072459D01*
X0147753Y0072584D01*
X0147754Y0072584D01*
X0147754Y0067884D01*
X0147754Y0068615D02*
X0148554Y0068615D01*
X0148554Y0069414D02*
X0147754Y0069414D01*
X0147754Y0070212D02*
X0148554Y0070212D01*
X0148554Y0071011D02*
X0147754Y0071011D01*
X0147754Y0071809D02*
X0148554Y0071809D01*
X0150878Y0071809D02*
X0156157Y0071809D01*
X0154876Y0071011D02*
X0151840Y0071011D01*
X0152476Y0070212D02*
X0154078Y0070212D01*
X0153709Y0069414D02*
X0152890Y0069414D01*
X0153138Y0068615D02*
X0153378Y0068615D01*
X0159837Y0071809D02*
X0165999Y0071809D01*
X0164719Y0071011D02*
X0161117Y0071011D01*
X0161915Y0070212D02*
X0163920Y0070212D01*
X0163551Y0069414D02*
X0162285Y0069414D01*
X0162615Y0068615D02*
X0163220Y0068615D01*
X0163139Y0067817D02*
X0162697Y0067817D01*
X0162697Y0067018D02*
X0163139Y0067018D01*
X0163276Y0066220D02*
X0162560Y0066220D01*
X0162229Y0065421D02*
X0163606Y0065421D01*
X0164054Y0064623D02*
X0161782Y0064623D01*
X0160983Y0063824D02*
X0164852Y0063824D01*
X0166321Y0063026D02*
X0159514Y0063026D01*
X0160699Y0061429D02*
X0165137Y0061429D01*
X0164338Y0060630D02*
X0161497Y0060630D01*
X0162111Y0059832D02*
X0163724Y0059832D01*
X0163393Y0059033D02*
X0162442Y0059033D01*
X0162697Y0058235D02*
X0163139Y0058235D01*
X0163139Y0057436D02*
X0162697Y0057436D01*
X0162697Y0056638D02*
X0163139Y0056638D01*
X0163433Y0055839D02*
X0162402Y0055839D01*
X0162072Y0055041D02*
X0163764Y0055041D01*
X0164434Y0054242D02*
X0161401Y0054242D01*
X0160523Y0053444D02*
X0165312Y0053444D01*
X0166089Y0051847D02*
X0159747Y0051847D01*
X0161080Y0051048D02*
X0164756Y0051048D01*
X0163958Y0050250D02*
X0161878Y0050250D01*
X0162269Y0049451D02*
X0163566Y0049451D01*
X0163236Y0048653D02*
X0162600Y0048653D01*
X0162697Y0047854D02*
X0163139Y0047854D01*
X0163139Y0047055D02*
X0162697Y0047055D01*
X0162575Y0046257D02*
X0163260Y0046257D01*
X0163591Y0045458D02*
X0162245Y0045458D01*
X0161819Y0044660D02*
X0164017Y0044660D01*
X0170863Y0043861D02*
X0186404Y0043861D01*
X0186073Y0044660D02*
X0171662Y0044660D01*
X0172087Y0045458D02*
X0185742Y0045458D01*
X0185698Y0046257D02*
X0172418Y0046257D01*
X0172539Y0047055D02*
X0185698Y0047055D01*
X0185872Y0047854D02*
X0172539Y0047854D01*
X0172442Y0048653D02*
X0186202Y0048653D01*
X0186702Y0049451D02*
X0172112Y0049451D01*
X0171721Y0050250D02*
X0187501Y0050250D01*
X0189096Y0051048D02*
X0170922Y0051048D01*
X0156246Y0051847D02*
X0150826Y0051847D01*
X0151803Y0051048D02*
X0154914Y0051048D01*
X0154115Y0050250D02*
X0152449Y0050250D01*
X0152876Y0049451D02*
X0153724Y0049451D01*
X0153393Y0048653D02*
X0153133Y0048653D01*
X0148554Y0047055D02*
X0147754Y0047055D01*
X0147754Y0046257D02*
X0148554Y0046257D01*
X0148554Y0045458D02*
X0147754Y0045458D01*
X0147754Y0044660D02*
X0148554Y0044660D01*
X0148554Y0043861D02*
X0147754Y0043861D01*
X0147754Y0043063D02*
X0148554Y0043063D01*
X0148554Y0042264D02*
X0147754Y0042264D01*
X0147754Y0041466D02*
X0148554Y0041466D01*
X0148554Y0040667D02*
X0147754Y0040667D01*
X0147754Y0039869D02*
X0148554Y0039869D01*
X0148554Y0039070D02*
X0147754Y0039070D01*
X0147754Y0038272D02*
X0148554Y0038272D01*
X0152145Y0040667D02*
X0154533Y0040667D01*
X0153897Y0039869D02*
X0152663Y0039869D01*
X0153001Y0039070D02*
X0153566Y0039070D01*
X0153297Y0038272D02*
X0153193Y0038272D01*
X0151350Y0041466D02*
X0155331Y0041466D01*
X0146362Y0042264D02*
X0083017Y0042264D01*
X0083781Y0043063D02*
X0145598Y0043063D01*
X0144564Y0043861D02*
X0084815Y0043861D01*
X0085477Y0044660D02*
X0143902Y0044660D01*
X0143462Y0045458D02*
X0085917Y0045458D01*
X0086189Y0046257D02*
X0143190Y0046257D01*
X0143058Y0047055D02*
X0086321Y0047055D01*
X0086203Y0048653D02*
X0143175Y0048653D01*
X0143432Y0049451D02*
X0085947Y0049451D01*
X0085520Y0050250D02*
X0143859Y0050250D01*
X0144505Y0051048D02*
X0084874Y0051048D01*
X0083897Y0051847D02*
X0145482Y0051847D01*
X0146544Y0052645D02*
X0082835Y0052645D01*
X0081625Y0052645D02*
X0080825Y0052645D01*
X0080825Y0051847D02*
X0081625Y0051847D01*
X0081625Y0051048D02*
X0080825Y0051048D01*
X0080825Y0050250D02*
X0081625Y0050250D01*
X0081625Y0049451D02*
X0080825Y0049451D01*
X0080825Y0048653D02*
X0081625Y0048653D01*
X0081625Y0047854D02*
X0147754Y0047854D01*
X0149764Y0052645D02*
X0187606Y0052645D01*
X0193190Y0052645D02*
X0197606Y0052645D01*
X0196808Y0053444D02*
X0193988Y0053444D01*
X0194550Y0054242D02*
X0196246Y0054242D01*
X0195915Y0055041D02*
X0194881Y0055041D01*
X0195098Y0055839D02*
X0195698Y0055839D01*
X0195698Y0056638D02*
X0195098Y0056638D01*
X0195098Y0057436D02*
X0195699Y0057436D01*
X0196029Y0058235D02*
X0194767Y0058235D01*
X0194436Y0059033D02*
X0196360Y0059033D01*
X0197083Y0059832D02*
X0193713Y0059832D01*
X0192709Y0060630D02*
X0198088Y0060630D01*
X0198432Y0062227D02*
X0192364Y0062227D01*
X0193571Y0063026D02*
X0197226Y0063026D01*
X0196427Y0063824D02*
X0194369Y0063824D01*
X0194708Y0064623D02*
X0196088Y0064623D01*
X0195758Y0065421D02*
X0195039Y0065421D01*
X0195098Y0066220D02*
X0195698Y0066220D01*
X0195698Y0067018D02*
X0195098Y0067018D01*
X0194940Y0067817D02*
X0195856Y0067817D01*
X0196187Y0068615D02*
X0194609Y0068615D01*
X0194131Y0069414D02*
X0196665Y0069414D01*
X0197464Y0070212D02*
X0193333Y0070212D01*
X0191790Y0071011D02*
X0199007Y0071011D01*
X0207278Y0072608D02*
X0123089Y0072608D01*
X0123089Y0073406D02*
X0207278Y0073406D01*
X0207278Y0074205D02*
X0122906Y0074205D01*
X0122575Y0075003D02*
X0207278Y0075003D01*
X0207278Y0075802D02*
X0122244Y0075802D01*
X0121913Y0076600D02*
X0207278Y0076600D01*
X0207278Y0077399D02*
X0121260Y0077399D01*
X0120462Y0078197D02*
X0207278Y0078197D01*
X0207278Y0078996D02*
X0119663Y0078996D01*
X0118041Y0079794D02*
X0207278Y0079794D01*
X0207278Y0080593D02*
X0022101Y0080593D01*
X0022101Y0081391D02*
X0207278Y0081391D01*
X0207278Y0082190D02*
X0022101Y0082190D01*
X0022101Y0082988D02*
X0207278Y0082988D01*
X0207278Y0083787D02*
X0022101Y0083787D01*
X0022101Y0084586D02*
X0207278Y0084586D01*
X0207278Y0085384D02*
X0022101Y0085384D01*
X0022101Y0086183D02*
X0207278Y0086183D01*
X0207278Y0086981D02*
X0022101Y0086981D01*
X0022502Y0087780D02*
X0206877Y0087780D01*
X0145430Y0071809D02*
X0123089Y0071809D01*
X0123089Y0071011D02*
X0144468Y0071011D01*
X0143832Y0070212D02*
X0123004Y0070212D01*
X0122673Y0069414D02*
X0143419Y0069414D01*
X0143170Y0068615D02*
X0122342Y0068615D01*
X0112696Y0063824D02*
X0084777Y0063824D01*
X0085450Y0064623D02*
X0110768Y0064623D01*
X0109479Y0065421D02*
X0085898Y0065421D01*
X0086176Y0066220D02*
X0108681Y0066220D01*
X0107882Y0067018D02*
X0086315Y0067018D01*
X0086209Y0068615D02*
X0107037Y0068615D01*
X0107368Y0067817D02*
X0081625Y0067817D01*
X0081625Y0068615D02*
X0080825Y0068615D01*
X0080825Y0067884D02*
X0080825Y0072584D01*
X0080823Y0072584D01*
X0080031Y0072459D01*
X0079267Y0072211D01*
X0078552Y0071846D01*
X0077902Y0071374D01*
X0077335Y0070807D01*
X0076863Y0070157D01*
X0076499Y0069442D01*
X0076250Y0068679D01*
X0076125Y0067886D01*
X0076125Y0067884D01*
X0080825Y0067884D01*
X0080825Y0067817D02*
X0076082Y0067817D01*
X0076082Y0067018D02*
X0076135Y0067018D01*
X0076273Y0066220D02*
X0075946Y0066220D01*
X0075615Y0065421D02*
X0076552Y0065421D01*
X0077000Y0064623D02*
X0075168Y0064623D01*
X0074369Y0063824D02*
X0077672Y0063824D01*
X0080825Y0063824D02*
X0081625Y0063824D01*
X0081625Y0063026D02*
X0080825Y0063026D01*
X0080825Y0062227D02*
X0081625Y0062227D01*
X0081625Y0061429D02*
X0080825Y0061429D01*
X0080825Y0060630D02*
X0081625Y0060630D01*
X0081625Y0059832D02*
X0080825Y0059832D01*
X0080825Y0059033D02*
X0081625Y0059033D01*
X0081625Y0058235D02*
X0080825Y0058235D01*
X0080825Y0055839D02*
X0081625Y0055839D01*
X0081625Y0055041D02*
X0080825Y0055041D01*
X0080825Y0054242D02*
X0081625Y0054242D01*
X0081625Y0053444D02*
X0080825Y0053444D01*
X0079614Y0052645D02*
X0041773Y0052645D01*
X0042571Y0053444D02*
X0059013Y0053444D01*
X0058135Y0054242D02*
X0043133Y0054242D01*
X0043464Y0055041D02*
X0057465Y0055041D01*
X0057134Y0055839D02*
X0043681Y0055839D01*
X0043681Y0056638D02*
X0056840Y0056638D01*
X0056840Y0057436D02*
X0043680Y0057436D01*
X0043350Y0058235D02*
X0056840Y0058235D01*
X0057094Y0059033D02*
X0043019Y0059033D01*
X0042296Y0059832D02*
X0057425Y0059832D01*
X0058039Y0060630D02*
X0041291Y0060630D01*
X0037015Y0062227D02*
X0030947Y0062227D01*
X0032153Y0063026D02*
X0035808Y0063026D01*
X0035010Y0063824D02*
X0032952Y0063824D01*
X0033290Y0064623D02*
X0034671Y0064623D01*
X0034340Y0065421D02*
X0033621Y0065421D01*
X0033681Y0066220D02*
X0034281Y0066220D01*
X0034281Y0067018D02*
X0033681Y0067018D01*
X0033523Y0067817D02*
X0034439Y0067817D01*
X0034770Y0068615D02*
X0033192Y0068615D01*
X0032714Y0069414D02*
X0035248Y0069414D01*
X0036046Y0070212D02*
X0031915Y0070212D01*
X0030372Y0071011D02*
X0037589Y0071011D01*
X0022101Y0072608D02*
X0106289Y0072608D01*
X0106289Y0073406D02*
X0022101Y0073406D01*
X0022101Y0074205D02*
X0106473Y0074205D01*
X0106804Y0075003D02*
X0022101Y0075003D01*
X0022101Y0075802D02*
X0107135Y0075802D01*
X0107465Y0076600D02*
X0022101Y0076600D01*
X0022101Y0077399D02*
X0108118Y0077399D01*
X0108917Y0078197D02*
X0022101Y0078197D01*
X0022101Y0078996D02*
X0109715Y0078996D01*
X0111338Y0079794D02*
X0022101Y0079794D01*
X0063380Y0071809D02*
X0069542Y0071809D01*
X0068262Y0071011D02*
X0064660Y0071011D01*
X0065459Y0070212D02*
X0067464Y0070212D01*
X0067094Y0069414D02*
X0065828Y0069414D01*
X0066159Y0068615D02*
X0066764Y0068615D01*
X0066682Y0067817D02*
X0066240Y0067817D01*
X0066240Y0067018D02*
X0066682Y0067018D01*
X0066819Y0066220D02*
X0066103Y0066220D01*
X0065773Y0065421D02*
X0067150Y0065421D01*
X0067597Y0064623D02*
X0065325Y0064623D01*
X0064527Y0063824D02*
X0068396Y0063824D01*
X0076001Y0068615D02*
X0076240Y0068615D01*
X0076489Y0069414D02*
X0075670Y0069414D01*
X0075301Y0070212D02*
X0076903Y0070212D01*
X0077539Y0071011D02*
X0074503Y0071011D01*
X0073222Y0071809D02*
X0078501Y0071809D01*
X0080825Y0071809D02*
X0081625Y0071809D01*
X0081625Y0071011D02*
X0080825Y0071011D01*
X0080825Y0070212D02*
X0081625Y0070212D01*
X0081625Y0069414D02*
X0080825Y0069414D01*
X0080825Y0067018D02*
X0081625Y0067018D01*
X0081625Y0066220D02*
X0080825Y0066220D01*
X0080825Y0065421D02*
X0081625Y0065421D01*
X0081625Y0064623D02*
X0080825Y0064623D01*
X0084472Y0061429D02*
X0144906Y0061429D01*
X0144136Y0060630D02*
X0085243Y0060630D01*
X0085753Y0059832D02*
X0143626Y0059832D01*
X0143295Y0059033D02*
X0086084Y0059033D01*
X0086270Y0058235D02*
X0143109Y0058235D01*
X0143125Y0056638D02*
X0086254Y0056638D01*
X0086053Y0055839D02*
X0143326Y0055839D01*
X0143675Y0055041D02*
X0085704Y0055041D01*
X0085173Y0054242D02*
X0144206Y0054242D01*
X0145039Y0053444D02*
X0084340Y0053444D01*
X0078110Y0053444D02*
X0073909Y0053444D01*
X0074787Y0054242D02*
X0077276Y0054242D01*
X0076746Y0055041D02*
X0075457Y0055041D01*
X0075788Y0055839D02*
X0076397Y0055839D01*
X0076195Y0056638D02*
X0076082Y0056638D01*
X0068299Y0051048D02*
X0064623Y0051048D01*
X0065421Y0050250D02*
X0067501Y0050250D01*
X0067110Y0049451D02*
X0065812Y0049451D01*
X0066143Y0048653D02*
X0066779Y0048653D01*
X0066682Y0047854D02*
X0066240Y0047854D01*
X0066240Y0047055D02*
X0066682Y0047055D01*
X0066803Y0046257D02*
X0066119Y0046257D01*
X0065788Y0045458D02*
X0067134Y0045458D01*
X0067560Y0044660D02*
X0065362Y0044660D01*
X0064564Y0043861D02*
X0068358Y0043861D01*
X0069775Y0043063D02*
X0063148Y0043063D01*
X0064205Y0041466D02*
X0068717Y0041466D01*
X0067919Y0040667D02*
X0065003Y0040667D01*
X0065639Y0039869D02*
X0067283Y0039869D01*
X0066952Y0039070D02*
X0065970Y0039070D01*
X0066240Y0038272D02*
X0066682Y0038272D01*
X0066682Y0037473D02*
X0066240Y0037473D01*
X0066240Y0036675D02*
X0066682Y0036675D01*
X0066961Y0035876D02*
X0065961Y0035876D01*
X0065630Y0035078D02*
X0067292Y0035078D01*
X0067940Y0034279D02*
X0064982Y0034279D01*
X0064156Y0033481D02*
X0068766Y0033481D01*
X0069722Y0031884D02*
X0063200Y0031884D01*
X0062475Y0032184D02*
X0060605Y0032184D01*
X0058877Y0031469D01*
X0057555Y0030147D01*
X0056840Y0028419D01*
X0056840Y0026549D01*
X0057555Y0024822D01*
X0058877Y0023500D01*
X0060605Y0022784D01*
X0062475Y0022784D01*
X0064202Y0023500D01*
X0065524Y0024822D01*
X0066240Y0026549D01*
X0066240Y0028419D01*
X0065524Y0030147D01*
X0064202Y0031469D01*
X0062475Y0032184D01*
X0064586Y0031085D02*
X0068337Y0031085D01*
X0067538Y0030287D02*
X0065384Y0030287D01*
X0065797Y0029488D02*
X0067125Y0029488D01*
X0066794Y0028690D02*
X0066128Y0028690D01*
X0066240Y0027891D02*
X0066682Y0027891D01*
X0066682Y0027093D02*
X0066240Y0027093D01*
X0066134Y0026294D02*
X0066788Y0026294D01*
X0067119Y0025496D02*
X0065803Y0025496D01*
X0065400Y0024697D02*
X0067523Y0024697D01*
X0068321Y0023899D02*
X0064601Y0023899D01*
X0063237Y0023100D02*
X0069685Y0023100D01*
X0059842Y0023100D02*
X0042228Y0023100D01*
X0042991Y0023899D02*
X0058479Y0023899D01*
X0057680Y0024697D02*
X0043321Y0024697D01*
X0043652Y0025496D02*
X0057276Y0025496D01*
X0056946Y0026294D02*
X0043681Y0026294D01*
X0043681Y0027093D02*
X0056840Y0027093D01*
X0056840Y0027891D02*
X0043492Y0027891D01*
X0043161Y0028690D02*
X0056952Y0028690D01*
X0057283Y0029488D02*
X0042639Y0029488D01*
X0041841Y0030287D02*
X0057696Y0030287D01*
X0058494Y0031085D02*
X0040193Y0031085D01*
X0040118Y0031884D02*
X0059880Y0031884D01*
X0058923Y0033481D02*
X0042608Y0033481D01*
X0043148Y0034279D02*
X0058098Y0034279D01*
X0057449Y0035078D02*
X0043479Y0035078D01*
X0043681Y0035876D02*
X0057119Y0035876D01*
X0056840Y0036675D02*
X0043681Y0036675D01*
X0043665Y0037473D02*
X0056840Y0037473D01*
X0056840Y0038272D02*
X0043334Y0038272D01*
X0043003Y0039070D02*
X0057110Y0039070D01*
X0057440Y0039869D02*
X0042259Y0039869D01*
X0041201Y0040667D02*
X0058076Y0040667D01*
X0058516Y0043861D02*
X0042975Y0043861D01*
X0043306Y0044660D02*
X0057717Y0044660D01*
X0057292Y0045458D02*
X0043637Y0045458D01*
X0043681Y0046257D02*
X0056961Y0046257D01*
X0056840Y0047055D02*
X0043681Y0047055D01*
X0043507Y0047854D02*
X0056840Y0047854D01*
X0056937Y0048653D02*
X0043176Y0048653D01*
X0042677Y0049451D02*
X0057267Y0049451D01*
X0057658Y0050250D02*
X0041878Y0050250D01*
X0040283Y0051048D02*
X0058457Y0051048D01*
X0059790Y0051847D02*
X0040028Y0051847D01*
X0036189Y0052645D02*
X0031773Y0052645D01*
X0032571Y0053444D02*
X0035390Y0053444D01*
X0034829Y0054242D02*
X0033133Y0054242D01*
X0033464Y0055041D02*
X0034498Y0055041D01*
X0034281Y0055839D02*
X0033681Y0055839D01*
X0033681Y0056638D02*
X0034281Y0056638D01*
X0034281Y0057436D02*
X0033680Y0057436D01*
X0033350Y0058235D02*
X0034612Y0058235D01*
X0034943Y0059033D02*
X0033019Y0059033D01*
X0032296Y0059832D02*
X0035666Y0059832D01*
X0036670Y0060630D02*
X0031291Y0060630D01*
X0026670Y0060630D02*
X0022101Y0060630D01*
X0022101Y0059832D02*
X0025666Y0059832D01*
X0024943Y0059033D02*
X0022101Y0059033D01*
X0022101Y0058235D02*
X0024612Y0058235D01*
X0024281Y0057436D02*
X0022101Y0057436D01*
X0022101Y0056638D02*
X0024281Y0056638D01*
X0024281Y0055839D02*
X0022101Y0055839D01*
X0022101Y0055041D02*
X0024498Y0055041D01*
X0024829Y0054242D02*
X0022101Y0054242D01*
X0022101Y0053444D02*
X0025390Y0053444D01*
X0026189Y0052645D02*
X0022101Y0052645D01*
X0022101Y0040667D02*
X0026760Y0040667D01*
X0025703Y0039869D02*
X0022101Y0039869D01*
X0022101Y0039070D02*
X0024958Y0039070D01*
X0024627Y0038272D02*
X0022101Y0038272D01*
X0022101Y0037473D02*
X0024297Y0037473D01*
X0024281Y0036675D02*
X0022101Y0036675D01*
X0022101Y0035876D02*
X0024281Y0035876D01*
X0024483Y0035078D02*
X0022101Y0035078D01*
X0022101Y0034279D02*
X0024813Y0034279D01*
X0025353Y0033481D02*
X0022101Y0033481D01*
X0022101Y0032682D02*
X0026152Y0032682D01*
X0027844Y0031884D02*
X0022101Y0031884D01*
X0022101Y0031085D02*
X0027769Y0031085D01*
X0026121Y0030287D02*
X0022101Y0030287D01*
X0022101Y0029488D02*
X0025322Y0029488D01*
X0024801Y0028690D02*
X0022101Y0028690D01*
X0022101Y0027891D02*
X0024470Y0027891D01*
X0024281Y0027093D02*
X0022101Y0027093D01*
X0022101Y0026294D02*
X0024281Y0026294D01*
X0024310Y0025496D02*
X0022101Y0025496D01*
X0022101Y0024697D02*
X0024640Y0024697D01*
X0024971Y0023899D02*
X0022101Y0023899D01*
X0022101Y0023100D02*
X0025734Y0023100D01*
X0026835Y0022302D02*
X0022101Y0022302D01*
X0022101Y0021503D02*
X0099975Y0021503D01*
X0100163Y0020705D02*
X0022101Y0020705D01*
X0022101Y0019906D02*
X0100502Y0019906D01*
X0101026Y0019108D02*
X0022101Y0019108D01*
X0022101Y0018309D02*
X0101861Y0018309D01*
X0106269Y0017511D02*
X0207278Y0017511D01*
X0207278Y0018309D02*
X0126898Y0018309D01*
X0127812Y0019108D02*
X0207278Y0019108D01*
X0207278Y0019906D02*
X0128468Y0019906D01*
X0128799Y0020705D02*
X0207278Y0020705D01*
X0207278Y0021503D02*
X0129057Y0021503D01*
X0122166Y0018309D02*
X0107833Y0018309D01*
X0108668Y0019108D02*
X0121252Y0019108D01*
X0120595Y0019906D02*
X0109192Y0019906D01*
X0109531Y0020705D02*
X0120265Y0020705D01*
X0120007Y0021503D02*
X0109719Y0021503D01*
X0109772Y0022302D02*
X0120007Y0022302D01*
X0120007Y0023100D02*
X0109772Y0023100D01*
X0109772Y0023899D02*
X0120007Y0023899D01*
X0120007Y0024697D02*
X0109772Y0024697D01*
X0109772Y0026294D02*
X0120007Y0026294D01*
X0120007Y0025496D02*
X0105247Y0025496D01*
X0105247Y0026294D02*
X0104447Y0026294D01*
X0104447Y0027093D02*
X0105247Y0027093D01*
X0105247Y0027891D02*
X0104447Y0027891D01*
X0104447Y0028690D02*
X0105247Y0028690D01*
X0105247Y0029488D02*
X0104447Y0029488D01*
X0104447Y0030287D02*
X0105247Y0030287D01*
X0105247Y0031085D02*
X0104447Y0031085D01*
X0104447Y0031884D02*
X0105247Y0031884D01*
X0105247Y0032682D02*
X0104447Y0032682D01*
X0104447Y0033481D02*
X0105247Y0033481D01*
X0107440Y0033481D02*
X0122857Y0033481D01*
X0121538Y0032682D02*
X0108407Y0032682D01*
X0109041Y0031884D02*
X0120739Y0031884D01*
X0120383Y0031085D02*
X0109438Y0031085D01*
X0109673Y0030287D02*
X0120052Y0030287D01*
X0120007Y0029488D02*
X0109772Y0029488D01*
X0109772Y0028690D02*
X0120007Y0028690D01*
X0120007Y0027891D02*
X0109772Y0027891D01*
X0109772Y0027093D02*
X0120007Y0027093D01*
X0129057Y0027093D02*
X0147754Y0027093D01*
X0147754Y0027891D02*
X0148554Y0027891D01*
X0148554Y0027093D02*
X0153297Y0027093D01*
X0153297Y0027891D02*
X0153253Y0027891D01*
X0153125Y0028690D02*
X0153409Y0028690D01*
X0153739Y0029488D02*
X0152857Y0029488D01*
X0152422Y0030287D02*
X0154152Y0030287D01*
X0154951Y0031085D02*
X0151765Y0031085D01*
X0150753Y0031884D02*
X0156336Y0031884D01*
X0161042Y0031085D02*
X0164793Y0031085D01*
X0163995Y0030287D02*
X0161841Y0030287D01*
X0162254Y0029488D02*
X0163582Y0029488D01*
X0163251Y0028690D02*
X0162584Y0028690D01*
X0162697Y0027891D02*
X0163139Y0027891D01*
X0163139Y0027093D02*
X0162697Y0027093D01*
X0162591Y0026294D02*
X0163245Y0026294D01*
X0163575Y0025496D02*
X0162260Y0025496D01*
X0161856Y0024697D02*
X0163979Y0024697D01*
X0164778Y0023899D02*
X0161058Y0023899D01*
X0159694Y0023100D02*
X0166141Y0023100D01*
X0156299Y0023100D02*
X0150783Y0023100D01*
X0151781Y0023899D02*
X0154935Y0023899D01*
X0154137Y0024697D02*
X0152433Y0024697D01*
X0152865Y0025496D02*
X0153733Y0025496D01*
X0153402Y0026294D02*
X0153129Y0026294D01*
X0148554Y0026294D02*
X0147754Y0026294D01*
X0147754Y0025496D02*
X0148554Y0025496D01*
X0148554Y0024697D02*
X0147754Y0024697D01*
X0147754Y0023899D02*
X0148554Y0023899D01*
X0148554Y0023100D02*
X0147754Y0023100D01*
X0147754Y0028690D02*
X0148554Y0028690D01*
X0148554Y0029488D02*
X0147754Y0029488D01*
X0147754Y0030287D02*
X0148554Y0030287D01*
X0148554Y0031085D02*
X0147754Y0031085D01*
X0147754Y0031884D02*
X0148554Y0031884D01*
X0148554Y0032682D02*
X0147754Y0032682D01*
X0147754Y0033481D02*
X0148554Y0033481D01*
X0148554Y0034279D02*
X0147754Y0034279D01*
X0147754Y0035078D02*
X0148554Y0035078D01*
X0148554Y0035876D02*
X0147754Y0035876D01*
X0143656Y0035078D02*
X0085723Y0035078D01*
X0086065Y0035876D02*
X0143314Y0035876D01*
X0143119Y0036675D02*
X0086260Y0036675D01*
X0086264Y0038272D02*
X0143115Y0038272D01*
X0143307Y0039070D02*
X0086072Y0039070D01*
X0085734Y0039869D02*
X0143645Y0039869D01*
X0144163Y0040667D02*
X0085216Y0040667D01*
X0084421Y0041466D02*
X0144958Y0041466D01*
X0151269Y0053444D02*
X0155470Y0053444D01*
X0154592Y0054242D02*
X0152102Y0054242D01*
X0152633Y0055041D02*
X0153921Y0055041D01*
X0153591Y0055839D02*
X0152982Y0055839D01*
X0153183Y0056638D02*
X0153297Y0056638D01*
X0106706Y0069414D02*
X0085960Y0069414D01*
X0085547Y0070212D02*
X0106375Y0070212D01*
X0106289Y0071011D02*
X0084911Y0071011D01*
X0083949Y0071809D02*
X0106289Y0071809D01*
X0076129Y0047055D02*
X0076082Y0047055D01*
X0075961Y0046257D02*
X0076261Y0046257D01*
X0076533Y0045458D02*
X0075630Y0045458D01*
X0075205Y0044660D02*
X0076973Y0044660D01*
X0077635Y0043861D02*
X0074406Y0043861D01*
X0076082Y0036675D02*
X0076189Y0036675D01*
X0076385Y0035876D02*
X0075804Y0035876D01*
X0075473Y0035078D02*
X0076727Y0035078D01*
X0077249Y0034279D02*
X0074824Y0034279D01*
X0073999Y0033481D02*
X0078059Y0033481D01*
X0079500Y0032682D02*
X0041810Y0032682D01*
X0073043Y0031884D02*
X0078626Y0031884D01*
X0077613Y0031085D02*
X0074428Y0031085D01*
X0075227Y0030287D02*
X0076957Y0030287D01*
X0076522Y0029488D02*
X0075640Y0029488D01*
X0075970Y0028690D02*
X0076254Y0028690D01*
X0076126Y0027891D02*
X0076082Y0027891D01*
X0201445Y0051847D02*
X0207278Y0051847D01*
X0207278Y0052645D02*
X0203190Y0052645D01*
X0203988Y0053444D02*
X0207278Y0053444D01*
X0207278Y0054242D02*
X0204550Y0054242D01*
X0204881Y0055041D02*
X0207278Y0055041D01*
X0207278Y0055839D02*
X0205098Y0055839D01*
X0205098Y0056638D02*
X0207278Y0056638D01*
X0207278Y0057436D02*
X0205098Y0057436D01*
X0204767Y0058235D02*
X0207278Y0058235D01*
X0207278Y0059033D02*
X0204436Y0059033D01*
X0203713Y0059832D02*
X0207278Y0059832D01*
X0207278Y0060630D02*
X0202709Y0060630D01*
X0201700Y0051048D02*
X0207278Y0051048D01*
X0207278Y0050250D02*
X0203295Y0050250D01*
X0204094Y0049451D02*
X0207278Y0049451D01*
X0207278Y0048653D02*
X0204594Y0048653D01*
X0204924Y0047854D02*
X0207278Y0047854D01*
X0207278Y0047055D02*
X0205098Y0047055D01*
X0205098Y0046257D02*
X0207278Y0046257D01*
X0207278Y0045458D02*
X0205054Y0045458D01*
X0204723Y0044660D02*
X0207278Y0044660D01*
X0207278Y0043861D02*
X0204392Y0043861D01*
X0203608Y0043063D02*
X0207278Y0043063D01*
M02*
