G75*
%MOIN*%
%OFA0B0*%
%FSLAX25Y25*%
%IPPOS*%
%LPD*%
%AMOC8*
5,1,8,0,0,1.08239X$1,22.5*
%
%ADD10C,0.07900*%
%ADD11C,0.07550*%
%ADD12C,0.13500*%
D10*
X0028981Y0026500D03*
X0038981Y0026500D03*
X0061540Y0027484D03*
X0071382Y0027484D03*
X0081225Y0027484D03*
X0081225Y0037484D03*
X0071382Y0037484D03*
X0061540Y0037484D03*
X0038981Y0036500D03*
X0028981Y0036500D03*
X0028981Y0046500D03*
X0038981Y0046500D03*
X0038981Y0056500D03*
X0028981Y0056500D03*
X0028981Y0066500D03*
X0038981Y0066500D03*
X0061540Y0067484D03*
X0071382Y0067484D03*
X0081225Y0067484D03*
X0081225Y0057484D03*
X0071382Y0057484D03*
X0061540Y0057484D03*
X0061540Y0047484D03*
X0071382Y0047484D03*
X0081225Y0047484D03*
X0148154Y0047484D03*
X0157997Y0047484D03*
X0167839Y0047484D03*
X0167839Y0057484D03*
X0157997Y0057484D03*
X0148154Y0057484D03*
X0148154Y0067484D03*
X0157997Y0067484D03*
X0167839Y0067484D03*
X0190398Y0066500D03*
X0200398Y0066500D03*
X0200398Y0056500D03*
X0190398Y0056500D03*
X0190398Y0046500D03*
X0200398Y0046500D03*
X0200398Y0036500D03*
X0190398Y0036500D03*
X0167839Y0037484D03*
X0157997Y0037484D03*
X0148154Y0037484D03*
X0148154Y0027484D03*
X0157997Y0027484D03*
X0167839Y0027484D03*
X0190398Y0026500D03*
X0200398Y0026500D03*
D11*
X0124532Y0029277D02*
X0124532Y0022227D01*
X0104847Y0022227D02*
X0104847Y0029277D01*
D12*
X0114689Y0072091D03*
M02*
