G04 EAGLE Gerber X2 export*
%TF.Part,Single*%
%TF.FileFunction,Other,Top Paste*%
%TF.FilePolarity,Positive*%
%TF.GenerationSoftware,Autodesk,EAGLE,8.7.1*%
%TF.CreationDate,2018-04-05T20:24:52Z*%
G75*
%MOMM*%
%FSLAX34Y34*%
%LPD*%
%AMOC8*
5,1,8,0,0,1.08239X$1,22.5*%
G01*
%ADD10R,2.400000X1.800000*%
%ADD11R,2.200000X0.500000*%
%ADD12R,0.650000X1.000000*%
%ADD13R,1.200000X0.800000*%


D10*
X139700Y286950D03*
X139700Y246450D03*
D11*
X260140Y349250D03*
X260140Y361850D03*
X260140Y374550D03*
X260140Y387250D03*
X197060Y349250D03*
X197060Y361950D03*
X197060Y374650D03*
X197060Y387350D03*
D12*
X323850Y416400D03*
X311150Y416400D03*
X298450Y416400D03*
X285750Y416400D03*
X323850Y396400D03*
X311150Y396400D03*
X298450Y396400D03*
X285750Y396400D03*
X323850Y352900D03*
X311150Y352900D03*
X298450Y352900D03*
X285750Y352900D03*
X323850Y332900D03*
X311150Y332900D03*
X298450Y332900D03*
X285750Y332900D03*
X133350Y332900D03*
X146050Y332900D03*
X158750Y332900D03*
X171450Y332900D03*
X133350Y352900D03*
X146050Y352900D03*
X158750Y352900D03*
X171450Y352900D03*
X133350Y396400D03*
X146050Y396400D03*
X158750Y396400D03*
X171450Y396400D03*
X133350Y416400D03*
X146050Y416400D03*
X158750Y416400D03*
X171450Y416400D03*
D11*
X260140Y488950D03*
X260140Y501550D03*
X260140Y514250D03*
X260140Y526950D03*
X197060Y488950D03*
X197060Y501650D03*
X197060Y514350D03*
X197060Y527050D03*
D12*
X323850Y556100D03*
X311150Y556100D03*
X298450Y556100D03*
X285750Y556100D03*
X323850Y536100D03*
X311150Y536100D03*
X298450Y536100D03*
X285750Y536100D03*
X323850Y492600D03*
X311150Y492600D03*
X298450Y492600D03*
X285750Y492600D03*
X323850Y472600D03*
X311150Y472600D03*
X298450Y472600D03*
X285750Y472600D03*
X133350Y472600D03*
X146050Y472600D03*
X158750Y472600D03*
X171450Y472600D03*
X133350Y492600D03*
X146050Y492600D03*
X158750Y492600D03*
X171450Y492600D03*
X133350Y536100D03*
X146050Y536100D03*
X158750Y536100D03*
X171450Y536100D03*
X133350Y556100D03*
X146050Y556100D03*
X158750Y556100D03*
X171450Y556100D03*
D11*
X501440Y488950D03*
X501440Y501550D03*
X501440Y514250D03*
X501440Y526950D03*
X438360Y488950D03*
X438360Y501650D03*
X438360Y514350D03*
X438360Y527050D03*
D12*
X565150Y556100D03*
X552450Y556100D03*
X539750Y556100D03*
X527050Y556100D03*
X565150Y536100D03*
X552450Y536100D03*
X539750Y536100D03*
X527050Y536100D03*
X565150Y492600D03*
X552450Y492600D03*
X539750Y492600D03*
X527050Y492600D03*
X565150Y472600D03*
X552450Y472600D03*
X539750Y472600D03*
X527050Y472600D03*
X374650Y472600D03*
X387350Y472600D03*
X400050Y472600D03*
X412750Y472600D03*
X374650Y492600D03*
X387350Y492600D03*
X400050Y492600D03*
X412750Y492600D03*
X374650Y536100D03*
X387350Y536100D03*
X400050Y536100D03*
X412750Y536100D03*
X374650Y556100D03*
X387350Y556100D03*
X400050Y556100D03*
X412750Y556100D03*
D11*
X501440Y349250D03*
X501440Y361850D03*
X501440Y374550D03*
X501440Y387250D03*
X438360Y349250D03*
X438360Y361950D03*
X438360Y374650D03*
X438360Y387350D03*
D12*
X565150Y416400D03*
X552450Y416400D03*
X539750Y416400D03*
X527050Y416400D03*
X565150Y396400D03*
X552450Y396400D03*
X539750Y396400D03*
X527050Y396400D03*
X565150Y352900D03*
X552450Y352900D03*
X539750Y352900D03*
X527050Y352900D03*
X565150Y332900D03*
X552450Y332900D03*
X539750Y332900D03*
X527050Y332900D03*
X374650Y332900D03*
X387350Y332900D03*
X400050Y332900D03*
X412750Y332900D03*
X374650Y352900D03*
X387350Y352900D03*
X400050Y352900D03*
X412750Y352900D03*
X374650Y396400D03*
X387350Y396400D03*
X400050Y396400D03*
X412750Y396400D03*
X374650Y416400D03*
X387350Y416400D03*
X400050Y416400D03*
X412750Y416400D03*
D11*
X730040Y488950D03*
X730040Y501550D03*
X730040Y514250D03*
X730040Y526950D03*
X666960Y488950D03*
X666960Y501650D03*
X666960Y514350D03*
X666960Y527050D03*
D12*
X793750Y556100D03*
X781050Y556100D03*
X768350Y556100D03*
X755650Y556100D03*
X793750Y536100D03*
X781050Y536100D03*
X768350Y536100D03*
X755650Y536100D03*
X793750Y492600D03*
X781050Y492600D03*
X768350Y492600D03*
X755650Y492600D03*
X793750Y472600D03*
X781050Y472600D03*
X768350Y472600D03*
X755650Y472600D03*
X603250Y472600D03*
X615950Y472600D03*
X628650Y472600D03*
X641350Y472600D03*
X603250Y492600D03*
X615950Y492600D03*
X628650Y492600D03*
X641350Y492600D03*
X603250Y536100D03*
X615950Y536100D03*
X628650Y536100D03*
X641350Y536100D03*
X603250Y556100D03*
X615950Y556100D03*
X628650Y556100D03*
X641350Y556100D03*
D11*
X730040Y349250D03*
X730040Y361850D03*
X730040Y374550D03*
X730040Y387250D03*
X666960Y349250D03*
X666960Y361950D03*
X666960Y374650D03*
X666960Y387350D03*
D13*
X622300Y384700D03*
X622300Y402700D03*
X622300Y333900D03*
X622300Y351900D03*
M02*
