M48
;GenerationSoftware,Autodesk,EAGLE,8.7.1*%
;CreationDate,2018-04-05T20:24:49Z*%
FMAT,2
ICI,OFF
METRIC,TZ,000.000
T4C0.381
T3C1.016
T2C1.194
T1C3.200
%
G90
M71
T1
X9525Y62230
X8255Y13970
X84455Y62230
X90805Y13970
T2
X93980Y62110
X93980Y57110
X93980Y52110
X93980Y47110
X6350Y30440
X6350Y25440
X6350Y36950
X6350Y41950
X6350Y46950
X6350Y51950
X93980Y41790
X93980Y36790
X93980Y31790
X93980Y26790
T3
X80010Y6350
X80010Y3810
X58420Y68580
X58420Y71120
X60960Y68580
X60960Y71120
X63500Y68580
X63500Y71120
X66040Y68580
X66040Y71120
X68580Y68580
X68580Y6350
X68580Y3810
X66040Y6350
X66040Y3810
X63500Y6350
X63500Y3810
X60960Y6350
X60960Y3810
X58420Y6350
X58420Y3810
X36830Y68580
X36830Y71120
X39370Y68580
X39370Y71120
X41910Y68580
X23241Y62230
X41910Y71120
X44450Y68580
X44450Y71120
X46990Y68580
X46990Y71120
X46990Y6350
X46990Y3810
X44450Y6350
X44450Y3810
X41910Y6350
X39370Y6350
X39370Y3810
X36830Y6350
X36830Y3810
X15240Y68580
X15240Y71120
X17780Y68580
X17780Y71120
X20320Y68580
X20320Y71120
X22860Y68580
X22860Y71120
X25400Y68580
X25400Y71120
X25400Y6350
X25400Y3810
X22860Y6350
X22860Y3810
X20320Y6350
X20320Y3810
X17780Y6350
X17780Y3810
X15240Y6350
X15240Y3810
X41910Y3810
X70485Y13970
X73025Y13970
X75565Y13970
X78105Y13970
X80645Y13970
X83185Y13970
X85725Y13970
X67945Y13970
X78105Y62230
X80645Y62230
X47625Y13970
X50165Y13970
X52705Y13970
X55245Y13970
X57785Y13970
X60325Y13970
X62865Y13970
X45085Y13970
X42545Y62230
X45085Y62230
X47625Y62230
X50165Y62230
X52705Y62230
X55245Y62230
X57785Y62230
X40005Y62230
X20701Y62230
X68580Y71120
X25781Y62230
X28321Y62230
X30861Y62230
X33401Y62230
X35941Y62230
X18161Y62230
X88265Y21590
X90805Y24130
X88265Y19050
X90805Y19050
X34925Y13970
X37465Y13970
X40005Y13970
X80010Y68580
X80010Y71120
X82550Y68580
X82550Y71120
X85090Y68580
X85090Y71120
X87630Y68580
X87630Y71120
X90170Y68580
X90170Y71120
X90170Y6350
X90170Y3810
X87630Y6350
X87630Y3810
X85090Y6350
X85090Y3810
X82550Y6350
X82550Y3810
T4
X47549Y49378
X54610Y36830
X59690Y26670
X22860Y41910
X34290Y7620
X59690Y30480
X62230Y31750
X22860Y53340
X22860Y49530
X25400Y41910
X50800Y40640
X86360Y31750
X34138Y55677
X10566Y31902
X13005Y50394
X44907Y43688
X67666Y26213
X49174Y25400
X68682Y11379
X36576Y60147
X40437Y64618
X55067Y56896
X14630Y30277
X68682Y2032
X17882Y50190
X34341Y3861
X14630Y31293
X14427Y45923
X14427Y44298
X36170Y46939
X66650Y47955
X25400Y46533
X27026Y56490
X57709Y56490
X13411Y30277
X13411Y45923
X55880Y40640
X36576Y29870
X41250Y31902
X31090Y43688
X85090Y26670
X81280Y43180
X17780Y40640
X29261Y28448
X17780Y36792
X19507Y45314
X45517Y37186
X42062Y40640
X49174Y28448
X64770Y54610
X68580Y50800
X70510Y21336
X71933Y57912
X27838Y59131
X59334Y58725
X57506Y60554
X36170Y47955
X61570Y9550
X17780Y29210
X67310Y33020
X59690Y39370
X58318Y33528
X48260Y44450
X36576Y49581
X64770Y41910
X24130Y44450
X64770Y44450
X19050Y41910
X43180Y33020
X44450Y46990
X20320Y46990
X67310Y45720
X69850Y38077
X64770Y38100
X64770Y29210
X43485Y43688
M30