G75*
%MOIN*%
%OFA0B0*%
%FSLAX25Y25*%
%IPPOS*%
%LPD*%
%AMOC8*
5,1,8,0,0,1.08239X$1,22.5*
%
%ADD10OC8,0.06000*%
%ADD11OC8,0.07050*%
%ADD12C,0.01000*%
D10*
X0021500Y0021500D03*
X0031500Y0021500D03*
X0031500Y0031500D03*
X0021500Y0031500D03*
X0021500Y0041500D03*
X0031500Y0041500D03*
X0031500Y0051500D03*
X0021500Y0051500D03*
X0021500Y0061500D03*
X0031500Y0061500D03*
X0061500Y0061500D03*
X0071500Y0061500D03*
X0081500Y0061500D03*
X0081500Y0051500D03*
X0071500Y0051500D03*
X0061500Y0051500D03*
X0061500Y0041500D03*
X0071500Y0041500D03*
X0081500Y0041500D03*
X0081500Y0031500D03*
X0071500Y0031500D03*
X0061500Y0031500D03*
X0061500Y0021500D03*
X0071500Y0021500D03*
X0081500Y0021500D03*
X0141500Y0021500D03*
X0151500Y0021500D03*
X0161500Y0021500D03*
X0161500Y0031500D03*
X0151500Y0031500D03*
X0141500Y0031500D03*
X0141500Y0041500D03*
X0151500Y0041500D03*
X0161500Y0041500D03*
X0161500Y0051500D03*
X0151500Y0051500D03*
X0141500Y0051500D03*
X0141500Y0061500D03*
X0151500Y0061500D03*
X0161500Y0061500D03*
X0191500Y0061500D03*
X0201500Y0061500D03*
X0201500Y0051500D03*
X0191500Y0051500D03*
X0191500Y0041500D03*
X0201500Y0041500D03*
X0201500Y0031500D03*
X0191500Y0031500D03*
X0191500Y0021500D03*
X0201500Y0021500D03*
D11*
X0121343Y0021500D03*
X0101657Y0021500D03*
D12*
X0007641Y0003926D02*
X0005490Y0005490D01*
X0003926Y0007641D01*
X0003105Y0010170D01*
X0003000Y0011500D01*
X0003000Y0071500D01*
X0003104Y0072824D01*
X0003922Y0075341D01*
X0005478Y0077483D01*
X0007620Y0079038D01*
X0010137Y0079856D01*
X0011461Y0079961D01*
X0213500Y0079961D01*
X0214626Y0079872D01*
X0216769Y0079176D01*
X0218592Y0077852D01*
X0219916Y0076029D01*
X0220612Y0073886D01*
X0220701Y0072761D01*
X0220205Y0015643D01*
X0220101Y0015480D01*
X0220199Y0015042D01*
X0220195Y0014593D01*
X0220291Y0014496D01*
X0220457Y0013324D01*
X0220162Y0010217D01*
X0218922Y0007353D01*
X0216857Y0005012D01*
X0214170Y0003424D01*
X0212790Y0003000D01*
X0011500Y0003000D01*
X0010170Y0003105D01*
X0007641Y0003926D01*
X0006848Y0004503D02*
X0215996Y0004503D01*
X0217289Y0005501D02*
X0005481Y0005501D01*
X0004755Y0006500D02*
X0218170Y0006500D01*
X0218985Y0007499D02*
X0004030Y0007499D01*
X0003648Y0008497D02*
X0219417Y0008497D01*
X0219850Y0009496D02*
X0003324Y0009496D01*
X0003079Y0010494D02*
X0220188Y0010494D01*
X0220283Y0011493D02*
X0003001Y0011493D01*
X0003000Y0012491D02*
X0220378Y0012491D01*
X0220433Y0013490D02*
X0003000Y0013490D01*
X0003000Y0014488D02*
X0220292Y0014488D01*
X0220105Y0015487D02*
X0003000Y0015487D01*
X0003000Y0016485D02*
X0119251Y0016485D01*
X0119261Y0016475D02*
X0116318Y0019419D01*
X0116318Y0021000D01*
X0120842Y0021000D01*
X0120842Y0022000D01*
X0116318Y0022000D01*
X0116318Y0023581D01*
X0119261Y0026525D01*
X0120843Y0026525D01*
X0120843Y0022000D01*
X0121842Y0022000D01*
X0121842Y0026525D01*
X0123424Y0026525D01*
X0126368Y0023581D01*
X0126368Y0022000D01*
X0121843Y0022000D01*
X0121843Y0021000D01*
X0126367Y0021000D01*
X0126368Y0019419D01*
X0123424Y0016475D01*
X0121842Y0016475D01*
X0121842Y0021000D01*
X0120843Y0021000D01*
X0120843Y0016475D01*
X0119261Y0016475D01*
X0120843Y0016485D02*
X0121842Y0016485D01*
X0123434Y0016485D02*
X0220212Y0016485D01*
X0220221Y0017484D02*
X0203848Y0017484D01*
X0203364Y0017000D02*
X0202000Y0017000D01*
X0202000Y0021000D01*
X0202000Y0022000D01*
X0201000Y0022000D01*
X0201000Y0026000D01*
X0199636Y0026000D01*
X0197000Y0023364D01*
X0197000Y0022000D01*
X0201000Y0022000D01*
X0201000Y0021000D01*
X0197000Y0021000D01*
X0197000Y0019636D01*
X0199636Y0017000D01*
X0201000Y0017000D01*
X0201000Y0021000D01*
X0202000Y0021000D01*
X0206000Y0021000D01*
X0206000Y0019636D01*
X0203364Y0017000D01*
X0202000Y0017484D02*
X0201000Y0017484D01*
X0201000Y0018482D02*
X0202000Y0018482D01*
X0202000Y0019481D02*
X0201000Y0019481D01*
X0201000Y0020479D02*
X0202000Y0020479D01*
X0202000Y0021478D02*
X0220255Y0021478D01*
X0220247Y0020479D02*
X0206000Y0020479D01*
X0205845Y0019481D02*
X0220238Y0019481D01*
X0220229Y0018482D02*
X0204846Y0018482D01*
X0199152Y0017484D02*
X0193565Y0017484D01*
X0193281Y0017200D02*
X0195800Y0019719D01*
X0195800Y0023281D01*
X0193281Y0025800D01*
X0189719Y0025800D01*
X0187200Y0023281D01*
X0187200Y0019719D01*
X0189719Y0017200D01*
X0193281Y0017200D01*
X0194563Y0018482D02*
X0198154Y0018482D01*
X0197155Y0019481D02*
X0195562Y0019481D01*
X0195800Y0020479D02*
X0197000Y0020479D01*
X0195800Y0021478D02*
X0201000Y0021478D01*
X0202000Y0022000D02*
X0202000Y0026000D01*
X0203364Y0026000D01*
X0206000Y0023364D01*
X0206000Y0022000D01*
X0202000Y0022000D01*
X0202000Y0022476D02*
X0201000Y0022476D01*
X0201000Y0023475D02*
X0202000Y0023475D01*
X0202000Y0024473D02*
X0201000Y0024473D01*
X0201000Y0025472D02*
X0202000Y0025472D01*
X0203892Y0025472D02*
X0220290Y0025472D01*
X0220299Y0026470D02*
X0123479Y0026470D01*
X0124477Y0025472D02*
X0139391Y0025472D01*
X0139719Y0025800D02*
X0137200Y0023281D01*
X0137200Y0019719D01*
X0139719Y0017200D01*
X0143281Y0017200D01*
X0145800Y0019719D01*
X0145800Y0023281D01*
X0143281Y0025800D01*
X0139719Y0025800D01*
X0139719Y0027200D02*
X0143281Y0027200D01*
X0145800Y0029719D01*
X0145800Y0033281D01*
X0143281Y0035800D01*
X0139719Y0035800D01*
X0137200Y0033281D01*
X0137200Y0029719D01*
X0139719Y0027200D01*
X0139450Y0027469D02*
X0083550Y0027469D01*
X0083281Y0027200D02*
X0085800Y0029719D01*
X0085800Y0033281D01*
X0083281Y0035800D01*
X0079719Y0035800D01*
X0077200Y0033281D01*
X0077200Y0029719D01*
X0079719Y0027200D01*
X0083281Y0027200D01*
X0083281Y0025800D02*
X0079719Y0025800D01*
X0077200Y0023281D01*
X0077200Y0019719D01*
X0079719Y0017200D01*
X0083281Y0017200D01*
X0085800Y0019719D01*
X0085800Y0023281D01*
X0083281Y0025800D01*
X0083609Y0025472D02*
X0098806Y0025472D01*
X0099659Y0026325D02*
X0096832Y0023499D01*
X0096832Y0019501D01*
X0099659Y0016675D01*
X0103656Y0016675D01*
X0106482Y0019501D01*
X0106482Y0023499D01*
X0103656Y0026325D01*
X0099659Y0026325D01*
X0097807Y0024473D02*
X0084608Y0024473D01*
X0085606Y0023475D02*
X0096832Y0023475D01*
X0096832Y0022476D02*
X0085800Y0022476D01*
X0085800Y0021478D02*
X0096832Y0021478D01*
X0096832Y0020479D02*
X0085800Y0020479D01*
X0085562Y0019481D02*
X0096853Y0019481D01*
X0097852Y0018482D02*
X0084563Y0018482D01*
X0083565Y0017484D02*
X0098850Y0017484D01*
X0104465Y0017484D02*
X0118252Y0017484D01*
X0117254Y0018482D02*
X0105463Y0018482D01*
X0106462Y0019481D02*
X0116318Y0019481D01*
X0116318Y0020479D02*
X0106482Y0020479D01*
X0106482Y0021478D02*
X0120842Y0021478D01*
X0120843Y0020479D02*
X0121842Y0020479D01*
X0121842Y0019481D02*
X0120843Y0019481D01*
X0120843Y0018482D02*
X0121842Y0018482D01*
X0121842Y0017484D02*
X0120843Y0017484D01*
X0124433Y0017484D02*
X0139435Y0017484D01*
X0138437Y0018482D02*
X0125431Y0018482D01*
X0126368Y0019481D02*
X0137438Y0019481D01*
X0137200Y0020479D02*
X0126368Y0020479D01*
X0121843Y0021478D02*
X0137200Y0021478D01*
X0137200Y0022476D02*
X0126368Y0022476D01*
X0126368Y0023475D02*
X0137394Y0023475D01*
X0138392Y0024473D02*
X0125476Y0024473D01*
X0121842Y0024473D02*
X0120843Y0024473D01*
X0120843Y0023475D02*
X0121842Y0023475D01*
X0121842Y0022476D02*
X0120843Y0022476D01*
X0117209Y0024473D02*
X0105508Y0024473D01*
X0106482Y0023475D02*
X0116318Y0023475D01*
X0116318Y0022476D02*
X0106482Y0022476D01*
X0104509Y0025472D02*
X0118208Y0025472D01*
X0119206Y0026470D02*
X0003000Y0026470D01*
X0003000Y0025472D02*
X0019108Y0025472D01*
X0019636Y0026000D02*
X0017000Y0023364D01*
X0017000Y0022000D01*
X0021000Y0022000D01*
X0021000Y0026000D01*
X0019636Y0026000D01*
X0019636Y0027000D02*
X0017000Y0029636D01*
X0017000Y0031000D01*
X0021000Y0031000D01*
X0021000Y0032000D01*
X0021000Y0036000D01*
X0019636Y0036000D01*
X0017000Y0033364D01*
X0017000Y0032000D01*
X0021000Y0032000D01*
X0022000Y0032000D01*
X0022000Y0036000D01*
X0023364Y0036000D01*
X0026000Y0033364D01*
X0026000Y0032000D01*
X0022000Y0032000D01*
X0022000Y0031000D01*
X0026000Y0031000D01*
X0026000Y0029636D01*
X0023364Y0027000D01*
X0022000Y0027000D01*
X0022000Y0031000D01*
X0021000Y0031000D01*
X0021000Y0027000D01*
X0019636Y0027000D01*
X0019167Y0027469D02*
X0003000Y0027469D01*
X0003000Y0028467D02*
X0018169Y0028467D01*
X0017170Y0029466D02*
X0003000Y0029466D01*
X0003000Y0030464D02*
X0017000Y0030464D01*
X0021000Y0030464D02*
X0022000Y0030464D01*
X0022000Y0029466D02*
X0021000Y0029466D01*
X0021000Y0028467D02*
X0022000Y0028467D01*
X0022000Y0027469D02*
X0021000Y0027469D01*
X0023833Y0027469D02*
X0029450Y0027469D01*
X0029719Y0027200D02*
X0033281Y0027200D01*
X0035800Y0029719D01*
X0035800Y0033281D01*
X0033281Y0035800D01*
X0029719Y0035800D01*
X0027200Y0033281D01*
X0027200Y0029719D01*
X0029719Y0027200D01*
X0029719Y0025800D02*
X0027200Y0023281D01*
X0027200Y0019719D01*
X0029719Y0017200D01*
X0033281Y0017200D01*
X0035800Y0019719D01*
X0035800Y0023281D01*
X0033281Y0025800D01*
X0029719Y0025800D01*
X0029391Y0025472D02*
X0023892Y0025472D01*
X0023364Y0026000D02*
X0022000Y0026000D01*
X0022000Y0022000D01*
X0021000Y0022000D01*
X0021000Y0021000D01*
X0017000Y0021000D01*
X0017000Y0019636D01*
X0019636Y0017000D01*
X0021000Y0017000D01*
X0021000Y0021000D01*
X0022000Y0021000D01*
X0022000Y0022000D01*
X0026000Y0022000D01*
X0026000Y0023364D01*
X0023364Y0026000D01*
X0022000Y0025472D02*
X0021000Y0025472D01*
X0021000Y0024473D02*
X0022000Y0024473D01*
X0022000Y0023475D02*
X0021000Y0023475D01*
X0021000Y0022476D02*
X0022000Y0022476D01*
X0022000Y0021478D02*
X0027200Y0021478D01*
X0027200Y0020479D02*
X0026000Y0020479D01*
X0026000Y0021000D02*
X0026000Y0019636D01*
X0023364Y0017000D01*
X0022000Y0017000D01*
X0022000Y0021000D01*
X0026000Y0021000D01*
X0026000Y0022476D02*
X0027200Y0022476D01*
X0027394Y0023475D02*
X0025889Y0023475D01*
X0024891Y0024473D02*
X0028392Y0024473D01*
X0033609Y0025472D02*
X0059391Y0025472D01*
X0059719Y0025800D02*
X0057200Y0023281D01*
X0057200Y0019719D01*
X0059719Y0017200D01*
X0063281Y0017200D01*
X0065800Y0019719D01*
X0065800Y0023281D01*
X0063281Y0025800D01*
X0059719Y0025800D01*
X0059719Y0027200D02*
X0063281Y0027200D01*
X0065800Y0029719D01*
X0065800Y0033281D01*
X0063281Y0035800D01*
X0059719Y0035800D01*
X0057200Y0033281D01*
X0057200Y0029719D01*
X0059719Y0027200D01*
X0059450Y0027469D02*
X0033550Y0027469D01*
X0034548Y0028467D02*
X0058452Y0028467D01*
X0057453Y0029466D02*
X0035547Y0029466D01*
X0035800Y0030464D02*
X0057200Y0030464D01*
X0057200Y0031463D02*
X0035800Y0031463D01*
X0035800Y0032461D02*
X0057200Y0032461D01*
X0057379Y0033460D02*
X0035621Y0033460D01*
X0034623Y0034458D02*
X0058377Y0034458D01*
X0059376Y0035457D02*
X0033624Y0035457D01*
X0033281Y0037200D02*
X0029719Y0037200D01*
X0027200Y0039719D01*
X0027200Y0043281D01*
X0029719Y0045800D01*
X0033281Y0045800D01*
X0035800Y0043281D01*
X0035800Y0039719D01*
X0033281Y0037200D01*
X0033535Y0037454D02*
X0059465Y0037454D01*
X0059719Y0037200D02*
X0063281Y0037200D01*
X0065800Y0039719D01*
X0065800Y0043281D01*
X0063281Y0045800D01*
X0059719Y0045800D01*
X0057200Y0043281D01*
X0057200Y0039719D01*
X0059719Y0037200D01*
X0058467Y0038452D02*
X0034533Y0038452D01*
X0035532Y0039451D02*
X0057468Y0039451D01*
X0057200Y0040449D02*
X0035800Y0040449D01*
X0035800Y0041448D02*
X0057200Y0041448D01*
X0057200Y0042446D02*
X0035800Y0042446D01*
X0035636Y0043445D02*
X0057364Y0043445D01*
X0058362Y0044443D02*
X0034638Y0044443D01*
X0033639Y0045442D02*
X0059361Y0045442D01*
X0059719Y0047200D02*
X0063281Y0047200D01*
X0065800Y0049719D01*
X0065800Y0053281D01*
X0063281Y0055800D01*
X0059719Y0055800D01*
X0057200Y0053281D01*
X0057200Y0049719D01*
X0059719Y0047200D01*
X0059480Y0047439D02*
X0033520Y0047439D01*
X0033281Y0047200D02*
X0035800Y0049719D01*
X0035800Y0053281D01*
X0033281Y0055800D01*
X0029719Y0055800D01*
X0027200Y0053281D01*
X0027200Y0049719D01*
X0029719Y0047200D01*
X0033281Y0047200D01*
X0029480Y0047439D02*
X0023803Y0047439D01*
X0023364Y0047000D02*
X0022000Y0047000D01*
X0022000Y0051000D01*
X0022000Y0052000D01*
X0021000Y0052000D01*
X0021000Y0056000D01*
X0019636Y0056000D01*
X0017000Y0053364D01*
X0017000Y0052000D01*
X0021000Y0052000D01*
X0021000Y0051000D01*
X0017000Y0051000D01*
X0017000Y0049636D01*
X0019636Y0047000D01*
X0021000Y0047000D01*
X0021000Y0051000D01*
X0022000Y0051000D01*
X0026000Y0051000D01*
X0026000Y0049636D01*
X0023364Y0047000D01*
X0023364Y0046000D02*
X0022000Y0046000D01*
X0022000Y0042000D01*
X0021000Y0042000D01*
X0021000Y0046000D01*
X0019636Y0046000D01*
X0017000Y0043364D01*
X0017000Y0042000D01*
X0021000Y0042000D01*
X0021000Y0041000D01*
X0017000Y0041000D01*
X0017000Y0039636D01*
X0019636Y0037000D01*
X0021000Y0037000D01*
X0021000Y0041000D01*
X0022000Y0041000D01*
X0022000Y0042000D01*
X0026000Y0042000D01*
X0026000Y0043364D01*
X0023364Y0046000D01*
X0023922Y0045442D02*
X0029361Y0045442D01*
X0028362Y0044443D02*
X0024921Y0044443D01*
X0025919Y0043445D02*
X0027364Y0043445D01*
X0027200Y0042446D02*
X0026000Y0042446D01*
X0026000Y0041000D02*
X0022000Y0041000D01*
X0022000Y0037000D01*
X0023364Y0037000D01*
X0026000Y0039636D01*
X0026000Y0041000D01*
X0026000Y0040449D02*
X0027200Y0040449D01*
X0027200Y0041448D02*
X0022000Y0041448D01*
X0022000Y0040449D02*
X0021000Y0040449D01*
X0021000Y0039451D02*
X0022000Y0039451D01*
X0022000Y0038452D02*
X0021000Y0038452D01*
X0021000Y0037454D02*
X0022000Y0037454D01*
X0023818Y0037454D02*
X0029465Y0037454D01*
X0028467Y0038452D02*
X0024816Y0038452D01*
X0025815Y0039451D02*
X0027468Y0039451D01*
X0021000Y0041448D02*
X0003000Y0041448D01*
X0003000Y0040449D02*
X0017000Y0040449D01*
X0017185Y0039451D02*
X0003000Y0039451D01*
X0003000Y0038452D02*
X0018184Y0038452D01*
X0019182Y0037454D02*
X0003000Y0037454D01*
X0003000Y0036455D02*
X0220385Y0036455D01*
X0220377Y0035457D02*
X0203907Y0035457D01*
X0203364Y0036000D02*
X0202000Y0036000D01*
X0202000Y0032000D01*
X0201000Y0032000D01*
X0201000Y0036000D01*
X0199636Y0036000D01*
X0197000Y0033364D01*
X0197000Y0032000D01*
X0201000Y0032000D01*
X0201000Y0031000D01*
X0197000Y0031000D01*
X0197000Y0029636D01*
X0199636Y0027000D01*
X0201000Y0027000D01*
X0201000Y0031000D01*
X0202000Y0031000D01*
X0202000Y0032000D01*
X0206000Y0032000D01*
X0206000Y0033364D01*
X0203364Y0036000D01*
X0203364Y0037000D02*
X0202000Y0037000D01*
X0202000Y0041000D01*
X0202000Y0042000D01*
X0201000Y0042000D01*
X0201000Y0046000D01*
X0199636Y0046000D01*
X0197000Y0043364D01*
X0197000Y0042000D01*
X0201000Y0042000D01*
X0201000Y0041000D01*
X0197000Y0041000D01*
X0197000Y0039636D01*
X0199636Y0037000D01*
X0201000Y0037000D01*
X0201000Y0041000D01*
X0202000Y0041000D01*
X0206000Y0041000D01*
X0206000Y0039636D01*
X0203364Y0037000D01*
X0203818Y0037454D02*
X0220394Y0037454D01*
X0220403Y0038452D02*
X0204816Y0038452D01*
X0205815Y0039451D02*
X0220411Y0039451D01*
X0220420Y0040449D02*
X0206000Y0040449D01*
X0206000Y0042000D02*
X0202000Y0042000D01*
X0202000Y0046000D01*
X0203364Y0046000D01*
X0206000Y0043364D01*
X0206000Y0042000D01*
X0206000Y0042446D02*
X0220437Y0042446D01*
X0220446Y0043445D02*
X0205919Y0043445D01*
X0204921Y0044443D02*
X0220455Y0044443D01*
X0220463Y0045442D02*
X0203922Y0045442D01*
X0202000Y0045442D02*
X0201000Y0045442D01*
X0201000Y0044443D02*
X0202000Y0044443D01*
X0202000Y0043445D02*
X0201000Y0043445D01*
X0201000Y0042446D02*
X0202000Y0042446D01*
X0202000Y0041448D02*
X0220429Y0041448D01*
X0220472Y0046440D02*
X0003000Y0046440D01*
X0003000Y0045442D02*
X0019078Y0045442D01*
X0018079Y0044443D02*
X0003000Y0044443D01*
X0003000Y0043445D02*
X0017081Y0043445D01*
X0017000Y0042446D02*
X0003000Y0042446D01*
X0003000Y0047439D02*
X0019197Y0047439D01*
X0018199Y0048437D02*
X0003000Y0048437D01*
X0003000Y0049436D02*
X0017200Y0049436D01*
X0017000Y0050434D02*
X0003000Y0050434D01*
X0003000Y0051433D02*
X0021000Y0051433D01*
X0021000Y0050434D02*
X0022000Y0050434D01*
X0022000Y0049436D02*
X0021000Y0049436D01*
X0021000Y0048437D02*
X0022000Y0048437D01*
X0022000Y0047439D02*
X0021000Y0047439D01*
X0024801Y0048437D02*
X0028481Y0048437D01*
X0027483Y0049436D02*
X0025800Y0049436D01*
X0026000Y0050434D02*
X0027200Y0050434D01*
X0027200Y0051433D02*
X0022000Y0051433D01*
X0022000Y0052000D02*
X0026000Y0052000D01*
X0026000Y0053364D01*
X0023364Y0056000D01*
X0022000Y0056000D01*
X0022000Y0052000D01*
X0022000Y0052432D02*
X0021000Y0052432D01*
X0021000Y0053430D02*
X0022000Y0053430D01*
X0022000Y0054429D02*
X0021000Y0054429D01*
X0021000Y0055427D02*
X0022000Y0055427D01*
X0023937Y0055427D02*
X0029346Y0055427D01*
X0028347Y0054429D02*
X0024935Y0054429D01*
X0025934Y0053430D02*
X0027349Y0053430D01*
X0027200Y0052432D02*
X0026000Y0052432D01*
X0019063Y0055427D02*
X0003000Y0055427D01*
X0003000Y0054429D02*
X0018065Y0054429D01*
X0017066Y0053430D02*
X0003000Y0053430D01*
X0003000Y0052432D02*
X0017000Y0052432D01*
X0019636Y0057000D02*
X0017000Y0059636D01*
X0017000Y0061000D01*
X0021000Y0061000D01*
X0021000Y0062000D01*
X0021000Y0066000D01*
X0019636Y0066000D01*
X0017000Y0063364D01*
X0017000Y0062000D01*
X0021000Y0062000D01*
X0022000Y0062000D01*
X0022000Y0066000D01*
X0023364Y0066000D01*
X0026000Y0063364D01*
X0026000Y0062000D01*
X0022000Y0062000D01*
X0022000Y0061000D01*
X0026000Y0061000D01*
X0026000Y0059636D01*
X0023364Y0057000D01*
X0022000Y0057000D01*
X0022000Y0061000D01*
X0021000Y0061000D01*
X0021000Y0057000D01*
X0019636Y0057000D01*
X0019212Y0057424D02*
X0003000Y0057424D01*
X0003000Y0058423D02*
X0018213Y0058423D01*
X0017215Y0059421D02*
X0003000Y0059421D01*
X0003000Y0060420D02*
X0017000Y0060420D01*
X0021000Y0060420D02*
X0022000Y0060420D01*
X0022000Y0061418D02*
X0027200Y0061418D01*
X0027200Y0060420D02*
X0026000Y0060420D01*
X0025785Y0059421D02*
X0027498Y0059421D01*
X0027200Y0059719D02*
X0029719Y0057200D01*
X0033281Y0057200D01*
X0035800Y0059719D01*
X0035800Y0063281D01*
X0033281Y0065800D01*
X0029719Y0065800D01*
X0027200Y0063281D01*
X0027200Y0059719D01*
X0028496Y0058423D02*
X0024787Y0058423D01*
X0023788Y0057424D02*
X0029495Y0057424D01*
X0033505Y0057424D02*
X0059495Y0057424D01*
X0059719Y0057200D02*
X0063281Y0057200D01*
X0065800Y0059719D01*
X0065800Y0063281D01*
X0063281Y0065800D01*
X0059719Y0065800D01*
X0057200Y0063281D01*
X0057200Y0059719D01*
X0059719Y0057200D01*
X0058496Y0058423D02*
X0034504Y0058423D01*
X0035502Y0059421D02*
X0057498Y0059421D01*
X0057200Y0060420D02*
X0035800Y0060420D01*
X0035800Y0061418D02*
X0057200Y0061418D01*
X0057200Y0062417D02*
X0035800Y0062417D01*
X0035666Y0063415D02*
X0057334Y0063415D01*
X0058333Y0064414D02*
X0034667Y0064414D01*
X0033669Y0065412D02*
X0059331Y0065412D01*
X0063669Y0065412D02*
X0069048Y0065412D01*
X0069636Y0066000D02*
X0067000Y0063364D01*
X0067000Y0062000D01*
X0071000Y0062000D01*
X0071000Y0066000D01*
X0069636Y0066000D01*
X0071000Y0065412D02*
X0072000Y0065412D01*
X0072000Y0066000D02*
X0073364Y0066000D01*
X0076000Y0063364D01*
X0076000Y0062000D01*
X0072000Y0062000D01*
X0072000Y0061000D01*
X0076000Y0061000D01*
X0076000Y0059636D01*
X0073364Y0057000D01*
X0072000Y0057000D01*
X0072000Y0061000D01*
X0071000Y0061000D01*
X0071000Y0057000D01*
X0069636Y0057000D01*
X0067000Y0059636D01*
X0067000Y0061000D01*
X0071000Y0061000D01*
X0071000Y0062000D01*
X0072000Y0062000D01*
X0072000Y0066000D01*
X0073952Y0065412D02*
X0079331Y0065412D01*
X0079719Y0065800D02*
X0077200Y0063281D01*
X0077200Y0059719D01*
X0079719Y0057200D01*
X0083281Y0057200D01*
X0085800Y0059719D01*
X0085800Y0063281D01*
X0083281Y0065800D01*
X0079719Y0065800D01*
X0078333Y0064414D02*
X0074950Y0064414D01*
X0075949Y0063415D02*
X0077334Y0063415D01*
X0077200Y0062417D02*
X0076000Y0062417D01*
X0077200Y0061418D02*
X0072000Y0061418D01*
X0072000Y0060420D02*
X0071000Y0060420D01*
X0071000Y0061418D02*
X0065800Y0061418D01*
X0065800Y0060420D02*
X0067000Y0060420D01*
X0067215Y0059421D02*
X0065502Y0059421D01*
X0064504Y0058423D02*
X0068213Y0058423D01*
X0069212Y0057424D02*
X0063505Y0057424D01*
X0063654Y0055427D02*
X0069063Y0055427D01*
X0069636Y0056000D02*
X0067000Y0053364D01*
X0067000Y0052000D01*
X0071000Y0052000D01*
X0071000Y0056000D01*
X0069636Y0056000D01*
X0071000Y0055427D02*
X0072000Y0055427D01*
X0072000Y0056000D02*
X0073364Y0056000D01*
X0076000Y0053364D01*
X0076000Y0052000D01*
X0072000Y0052000D01*
X0072000Y0051000D01*
X0076000Y0051000D01*
X0076000Y0049636D01*
X0073364Y0047000D01*
X0072000Y0047000D01*
X0072000Y0051000D01*
X0071000Y0051000D01*
X0071000Y0047000D01*
X0069636Y0047000D01*
X0067000Y0049636D01*
X0067000Y0051000D01*
X0071000Y0051000D01*
X0071000Y0052000D01*
X0072000Y0052000D01*
X0072000Y0056000D01*
X0073937Y0055427D02*
X0079346Y0055427D01*
X0079719Y0055800D02*
X0077200Y0053281D01*
X0077200Y0049719D01*
X0079719Y0047200D01*
X0083281Y0047200D01*
X0085800Y0049719D01*
X0085800Y0053281D01*
X0083281Y0055800D01*
X0079719Y0055800D01*
X0079495Y0057424D02*
X0073788Y0057424D01*
X0074787Y0058423D02*
X0078496Y0058423D01*
X0077498Y0059421D02*
X0075785Y0059421D01*
X0076000Y0060420D02*
X0077200Y0060420D01*
X0072000Y0059421D02*
X0071000Y0059421D01*
X0071000Y0058423D02*
X0072000Y0058423D01*
X0072000Y0057424D02*
X0071000Y0057424D01*
X0071000Y0054429D02*
X0072000Y0054429D01*
X0072000Y0053430D02*
X0071000Y0053430D01*
X0071000Y0052432D02*
X0072000Y0052432D01*
X0072000Y0051433D02*
X0077200Y0051433D01*
X0077200Y0050434D02*
X0076000Y0050434D01*
X0075800Y0049436D02*
X0077483Y0049436D01*
X0078481Y0048437D02*
X0074801Y0048437D01*
X0073803Y0047439D02*
X0079480Y0047439D01*
X0079719Y0045800D02*
X0077200Y0043281D01*
X0077200Y0039719D01*
X0079719Y0037200D01*
X0083281Y0037200D01*
X0085800Y0039719D01*
X0085800Y0043281D01*
X0083281Y0045800D01*
X0079719Y0045800D01*
X0079361Y0045442D02*
X0073922Y0045442D01*
X0073364Y0046000D02*
X0072000Y0046000D01*
X0072000Y0042000D01*
X0076000Y0042000D01*
X0076000Y0043364D01*
X0073364Y0046000D01*
X0072000Y0045442D02*
X0071000Y0045442D01*
X0071000Y0046000D02*
X0069636Y0046000D01*
X0067000Y0043364D01*
X0067000Y0042000D01*
X0071000Y0042000D01*
X0071000Y0046000D01*
X0069078Y0045442D02*
X0063639Y0045442D01*
X0064638Y0044443D02*
X0068079Y0044443D01*
X0067081Y0043445D02*
X0065636Y0043445D01*
X0065800Y0042446D02*
X0067000Y0042446D01*
X0071000Y0042446D02*
X0072000Y0042446D01*
X0072000Y0042000D02*
X0071000Y0042000D01*
X0071000Y0041000D01*
X0072000Y0041000D01*
X0072000Y0042000D01*
X0072000Y0041448D02*
X0077200Y0041448D01*
X0077200Y0040449D02*
X0076000Y0040449D01*
X0076000Y0041000D02*
X0076000Y0039636D01*
X0073364Y0037000D01*
X0072000Y0037000D01*
X0072000Y0041000D01*
X0076000Y0041000D01*
X0076000Y0042446D02*
X0077200Y0042446D01*
X0077364Y0043445D02*
X0075919Y0043445D01*
X0074921Y0044443D02*
X0078362Y0044443D01*
X0083639Y0045442D02*
X0139361Y0045442D01*
X0139719Y0045800D02*
X0137200Y0043281D01*
X0137200Y0039719D01*
X0139719Y0037200D01*
X0143281Y0037200D01*
X0145800Y0039719D01*
X0145800Y0043281D01*
X0143281Y0045800D01*
X0139719Y0045800D01*
X0139719Y0047200D02*
X0143281Y0047200D01*
X0145800Y0049719D01*
X0145800Y0053281D01*
X0143281Y0055800D01*
X0139719Y0055800D01*
X0137200Y0053281D01*
X0137200Y0049719D01*
X0139719Y0047200D01*
X0139480Y0047439D02*
X0083520Y0047439D01*
X0084519Y0048437D02*
X0138481Y0048437D01*
X0137483Y0049436D02*
X0085517Y0049436D01*
X0085800Y0050434D02*
X0137200Y0050434D01*
X0137200Y0051433D02*
X0085800Y0051433D01*
X0085800Y0052432D02*
X0137200Y0052432D01*
X0137349Y0053430D02*
X0085651Y0053430D01*
X0084653Y0054429D02*
X0138347Y0054429D01*
X0139346Y0055427D02*
X0083654Y0055427D01*
X0078347Y0054429D02*
X0074935Y0054429D01*
X0075934Y0053430D02*
X0077349Y0053430D01*
X0077200Y0052432D02*
X0076000Y0052432D01*
X0072000Y0050434D02*
X0071000Y0050434D01*
X0071000Y0049436D02*
X0072000Y0049436D01*
X0072000Y0048437D02*
X0071000Y0048437D01*
X0071000Y0047439D02*
X0072000Y0047439D01*
X0069197Y0047439D02*
X0063520Y0047439D01*
X0064519Y0048437D02*
X0068199Y0048437D01*
X0067200Y0049436D02*
X0065517Y0049436D01*
X0065800Y0050434D02*
X0067000Y0050434D01*
X0065800Y0051433D02*
X0071000Y0051433D01*
X0067000Y0052432D02*
X0065800Y0052432D01*
X0065651Y0053430D02*
X0067066Y0053430D01*
X0068065Y0054429D02*
X0064653Y0054429D01*
X0059346Y0055427D02*
X0033654Y0055427D01*
X0034653Y0054429D02*
X0058347Y0054429D01*
X0057349Y0053430D02*
X0035651Y0053430D01*
X0035800Y0052432D02*
X0057200Y0052432D01*
X0057200Y0051433D02*
X0035800Y0051433D01*
X0035800Y0050434D02*
X0057200Y0050434D01*
X0057483Y0049436D02*
X0035517Y0049436D01*
X0034519Y0048437D02*
X0058481Y0048437D01*
X0071000Y0044443D02*
X0072000Y0044443D01*
X0072000Y0043445D02*
X0071000Y0043445D01*
X0071000Y0041448D02*
X0065800Y0041448D01*
X0065800Y0040449D02*
X0067000Y0040449D01*
X0067000Y0041000D02*
X0067000Y0039636D01*
X0069636Y0037000D01*
X0071000Y0037000D01*
X0071000Y0041000D01*
X0067000Y0041000D01*
X0071000Y0040449D02*
X0072000Y0040449D01*
X0072000Y0039451D02*
X0071000Y0039451D01*
X0071000Y0038452D02*
X0072000Y0038452D01*
X0072000Y0037454D02*
X0071000Y0037454D01*
X0069182Y0037454D02*
X0063535Y0037454D01*
X0064533Y0038452D02*
X0068184Y0038452D01*
X0067185Y0039451D02*
X0065532Y0039451D01*
X0069636Y0036000D02*
X0067000Y0033364D01*
X0067000Y0032000D01*
X0071000Y0032000D01*
X0071000Y0036000D01*
X0069636Y0036000D01*
X0069093Y0035457D02*
X0063624Y0035457D01*
X0064623Y0034458D02*
X0068094Y0034458D01*
X0067096Y0033460D02*
X0065621Y0033460D01*
X0065800Y0032461D02*
X0067000Y0032461D01*
X0071000Y0032461D02*
X0072000Y0032461D01*
X0072000Y0032000D02*
X0071000Y0032000D01*
X0071000Y0031000D01*
X0072000Y0031000D01*
X0072000Y0032000D01*
X0076000Y0032000D01*
X0076000Y0033364D01*
X0073364Y0036000D01*
X0072000Y0036000D01*
X0072000Y0032000D01*
X0072000Y0031463D02*
X0077200Y0031463D01*
X0077200Y0030464D02*
X0076000Y0030464D01*
X0076000Y0031000D02*
X0076000Y0029636D01*
X0073364Y0027000D01*
X0072000Y0027000D01*
X0072000Y0031000D01*
X0076000Y0031000D01*
X0076000Y0032461D02*
X0077200Y0032461D01*
X0077379Y0033460D02*
X0075904Y0033460D01*
X0074906Y0034458D02*
X0078377Y0034458D01*
X0079376Y0035457D02*
X0073907Y0035457D01*
X0072000Y0035457D02*
X0071000Y0035457D01*
X0071000Y0034458D02*
X0072000Y0034458D01*
X0072000Y0033460D02*
X0071000Y0033460D01*
X0071000Y0031463D02*
X0065800Y0031463D01*
X0065800Y0030464D02*
X0067000Y0030464D01*
X0067000Y0031000D02*
X0067000Y0029636D01*
X0069636Y0027000D01*
X0071000Y0027000D01*
X0071000Y0031000D01*
X0067000Y0031000D01*
X0071000Y0030464D02*
X0072000Y0030464D01*
X0072000Y0029466D02*
X0071000Y0029466D01*
X0071000Y0028467D02*
X0072000Y0028467D01*
X0072000Y0027469D02*
X0071000Y0027469D01*
X0069167Y0027469D02*
X0063550Y0027469D01*
X0064548Y0028467D02*
X0068169Y0028467D01*
X0067170Y0029466D02*
X0065547Y0029466D01*
X0069636Y0026000D02*
X0067000Y0023364D01*
X0067000Y0022000D01*
X0071000Y0022000D01*
X0071000Y0026000D01*
X0069636Y0026000D01*
X0069108Y0025472D02*
X0063609Y0025472D01*
X0064608Y0024473D02*
X0068109Y0024473D01*
X0067111Y0023475D02*
X0065606Y0023475D01*
X0065800Y0022476D02*
X0067000Y0022476D01*
X0071000Y0022476D02*
X0072000Y0022476D01*
X0072000Y0022000D02*
X0071000Y0022000D01*
X0071000Y0021000D01*
X0072000Y0021000D01*
X0072000Y0022000D01*
X0076000Y0022000D01*
X0076000Y0023364D01*
X0073364Y0026000D01*
X0072000Y0026000D01*
X0072000Y0022000D01*
X0072000Y0021478D02*
X0077200Y0021478D01*
X0077200Y0020479D02*
X0076000Y0020479D01*
X0076000Y0021000D02*
X0076000Y0019636D01*
X0073364Y0017000D01*
X0072000Y0017000D01*
X0072000Y0021000D01*
X0076000Y0021000D01*
X0076000Y0022476D02*
X0077200Y0022476D01*
X0077394Y0023475D02*
X0075889Y0023475D01*
X0074891Y0024473D02*
X0078392Y0024473D01*
X0079391Y0025472D02*
X0073892Y0025472D01*
X0072000Y0025472D02*
X0071000Y0025472D01*
X0071000Y0024473D02*
X0072000Y0024473D01*
X0072000Y0023475D02*
X0071000Y0023475D01*
X0071000Y0021478D02*
X0065800Y0021478D01*
X0065800Y0020479D02*
X0067000Y0020479D01*
X0067000Y0021000D02*
X0067000Y0019636D01*
X0069636Y0017000D01*
X0071000Y0017000D01*
X0071000Y0021000D01*
X0067000Y0021000D01*
X0071000Y0020479D02*
X0072000Y0020479D01*
X0072000Y0019481D02*
X0071000Y0019481D01*
X0071000Y0018482D02*
X0072000Y0018482D01*
X0072000Y0017484D02*
X0071000Y0017484D01*
X0069152Y0017484D02*
X0063565Y0017484D01*
X0064563Y0018482D02*
X0068154Y0018482D01*
X0067155Y0019481D02*
X0065562Y0019481D01*
X0059435Y0017484D02*
X0033565Y0017484D01*
X0034563Y0018482D02*
X0058437Y0018482D01*
X0057438Y0019481D02*
X0035562Y0019481D01*
X0035800Y0020479D02*
X0057200Y0020479D01*
X0057200Y0021478D02*
X0035800Y0021478D01*
X0035800Y0022476D02*
X0057200Y0022476D01*
X0057394Y0023475D02*
X0035606Y0023475D01*
X0034608Y0024473D02*
X0058392Y0024473D01*
X0073833Y0027469D02*
X0079450Y0027469D01*
X0078452Y0028467D02*
X0074831Y0028467D01*
X0075830Y0029466D02*
X0077453Y0029466D01*
X0084548Y0028467D02*
X0138452Y0028467D01*
X0137453Y0029466D02*
X0085547Y0029466D01*
X0085800Y0030464D02*
X0137200Y0030464D01*
X0137200Y0031463D02*
X0085800Y0031463D01*
X0085800Y0032461D02*
X0137200Y0032461D01*
X0137379Y0033460D02*
X0085621Y0033460D01*
X0084623Y0034458D02*
X0138377Y0034458D01*
X0139376Y0035457D02*
X0083624Y0035457D01*
X0083535Y0037454D02*
X0139465Y0037454D01*
X0138467Y0038452D02*
X0084533Y0038452D01*
X0085532Y0039451D02*
X0137468Y0039451D01*
X0137200Y0040449D02*
X0085800Y0040449D01*
X0085800Y0041448D02*
X0137200Y0041448D01*
X0137200Y0042446D02*
X0085800Y0042446D01*
X0085636Y0043445D02*
X0137364Y0043445D01*
X0138362Y0044443D02*
X0084638Y0044443D01*
X0077468Y0039451D02*
X0075815Y0039451D01*
X0074816Y0038452D02*
X0078467Y0038452D01*
X0079465Y0037454D02*
X0073818Y0037454D01*
X0029376Y0035457D02*
X0023907Y0035457D01*
X0024906Y0034458D02*
X0028377Y0034458D01*
X0027379Y0033460D02*
X0025904Y0033460D01*
X0026000Y0032461D02*
X0027200Y0032461D01*
X0027200Y0031463D02*
X0022000Y0031463D01*
X0021000Y0031463D02*
X0003000Y0031463D01*
X0003000Y0032461D02*
X0017000Y0032461D01*
X0017096Y0033460D02*
X0003000Y0033460D01*
X0003000Y0034458D02*
X0018094Y0034458D01*
X0019093Y0035457D02*
X0003000Y0035457D01*
X0021000Y0035457D02*
X0022000Y0035457D01*
X0022000Y0034458D02*
X0021000Y0034458D01*
X0021000Y0033460D02*
X0022000Y0033460D01*
X0022000Y0032461D02*
X0021000Y0032461D01*
X0026000Y0030464D02*
X0027200Y0030464D01*
X0027453Y0029466D02*
X0025830Y0029466D01*
X0024831Y0028467D02*
X0028452Y0028467D01*
X0018109Y0024473D02*
X0003000Y0024473D01*
X0003000Y0023475D02*
X0017111Y0023475D01*
X0017000Y0022476D02*
X0003000Y0022476D01*
X0003000Y0021478D02*
X0021000Y0021478D01*
X0021000Y0020479D02*
X0022000Y0020479D01*
X0022000Y0019481D02*
X0021000Y0019481D01*
X0021000Y0018482D02*
X0022000Y0018482D01*
X0022000Y0017484D02*
X0021000Y0017484D01*
X0019152Y0017484D02*
X0003000Y0017484D01*
X0003000Y0018482D02*
X0018154Y0018482D01*
X0017155Y0019481D02*
X0003000Y0019481D01*
X0003000Y0020479D02*
X0017000Y0020479D01*
X0023848Y0017484D02*
X0029435Y0017484D01*
X0028437Y0018482D02*
X0024846Y0018482D01*
X0025845Y0019481D02*
X0027438Y0019481D01*
X0008940Y0003504D02*
X0214306Y0003504D01*
X0189435Y0017484D02*
X0163565Y0017484D01*
X0163281Y0017200D02*
X0165800Y0019719D01*
X0165800Y0023281D01*
X0163281Y0025800D01*
X0159719Y0025800D01*
X0157200Y0023281D01*
X0157200Y0019719D01*
X0159719Y0017200D01*
X0163281Y0017200D01*
X0164563Y0018482D02*
X0188437Y0018482D01*
X0187438Y0019481D02*
X0165562Y0019481D01*
X0165800Y0020479D02*
X0187200Y0020479D01*
X0187200Y0021478D02*
X0165800Y0021478D01*
X0165800Y0022476D02*
X0187200Y0022476D01*
X0187394Y0023475D02*
X0165606Y0023475D01*
X0164608Y0024473D02*
X0188392Y0024473D01*
X0189391Y0025472D02*
X0163609Y0025472D01*
X0163281Y0027200D02*
X0159719Y0027200D01*
X0157200Y0029719D01*
X0157200Y0033281D01*
X0159719Y0035800D01*
X0163281Y0035800D01*
X0165800Y0033281D01*
X0165800Y0029719D01*
X0163281Y0027200D01*
X0163550Y0027469D02*
X0189450Y0027469D01*
X0189719Y0027200D02*
X0193281Y0027200D01*
X0195800Y0029719D01*
X0195800Y0033281D01*
X0193281Y0035800D01*
X0189719Y0035800D01*
X0187200Y0033281D01*
X0187200Y0029719D01*
X0189719Y0027200D01*
X0188452Y0028467D02*
X0164548Y0028467D01*
X0165547Y0029466D02*
X0187453Y0029466D01*
X0187200Y0030464D02*
X0165800Y0030464D01*
X0165800Y0031463D02*
X0187200Y0031463D01*
X0187200Y0032461D02*
X0165800Y0032461D01*
X0165621Y0033460D02*
X0187379Y0033460D01*
X0188377Y0034458D02*
X0164623Y0034458D01*
X0163624Y0035457D02*
X0189376Y0035457D01*
X0189719Y0037200D02*
X0193281Y0037200D01*
X0195800Y0039719D01*
X0195800Y0043281D01*
X0193281Y0045800D01*
X0189719Y0045800D01*
X0187200Y0043281D01*
X0187200Y0039719D01*
X0189719Y0037200D01*
X0189465Y0037454D02*
X0163535Y0037454D01*
X0163281Y0037200D02*
X0165800Y0039719D01*
X0165800Y0043281D01*
X0163281Y0045800D01*
X0159719Y0045800D01*
X0157200Y0043281D01*
X0157200Y0039719D01*
X0159719Y0037200D01*
X0163281Y0037200D01*
X0164533Y0038452D02*
X0188467Y0038452D01*
X0187468Y0039451D02*
X0165532Y0039451D01*
X0165800Y0040449D02*
X0187200Y0040449D01*
X0187200Y0041448D02*
X0165800Y0041448D01*
X0165800Y0042446D02*
X0187200Y0042446D01*
X0187364Y0043445D02*
X0165636Y0043445D01*
X0164638Y0044443D02*
X0188362Y0044443D01*
X0189361Y0045442D02*
X0163639Y0045442D01*
X0163281Y0047200D02*
X0159719Y0047200D01*
X0157200Y0049719D01*
X0157200Y0053281D01*
X0159719Y0055800D01*
X0163281Y0055800D01*
X0165800Y0053281D01*
X0165800Y0049719D01*
X0163281Y0047200D01*
X0163520Y0047439D02*
X0189480Y0047439D01*
X0189719Y0047200D02*
X0193281Y0047200D01*
X0195800Y0049719D01*
X0195800Y0053281D01*
X0193281Y0055800D01*
X0189719Y0055800D01*
X0187200Y0053281D01*
X0187200Y0049719D01*
X0189719Y0047200D01*
X0188481Y0048437D02*
X0164519Y0048437D01*
X0165517Y0049436D02*
X0187483Y0049436D01*
X0187200Y0050434D02*
X0165800Y0050434D01*
X0165800Y0051433D02*
X0187200Y0051433D01*
X0187200Y0052432D02*
X0165800Y0052432D01*
X0165651Y0053430D02*
X0187349Y0053430D01*
X0188347Y0054429D02*
X0164653Y0054429D01*
X0163654Y0055427D02*
X0189346Y0055427D01*
X0189719Y0057200D02*
X0193281Y0057200D01*
X0195800Y0059719D01*
X0195800Y0063281D01*
X0193281Y0065800D01*
X0189719Y0065800D01*
X0187200Y0063281D01*
X0187200Y0059719D01*
X0189719Y0057200D01*
X0189495Y0057424D02*
X0163505Y0057424D01*
X0163281Y0057200D02*
X0165800Y0059719D01*
X0165800Y0063281D01*
X0163281Y0065800D01*
X0159719Y0065800D01*
X0157200Y0063281D01*
X0157200Y0059719D01*
X0159719Y0057200D01*
X0163281Y0057200D01*
X0164504Y0058423D02*
X0188496Y0058423D01*
X0187498Y0059421D02*
X0165502Y0059421D01*
X0165800Y0060420D02*
X0187200Y0060420D01*
X0187200Y0061418D02*
X0165800Y0061418D01*
X0165800Y0062417D02*
X0187200Y0062417D01*
X0187334Y0063415D02*
X0165666Y0063415D01*
X0164667Y0064414D02*
X0188333Y0064414D01*
X0189331Y0065412D02*
X0163669Y0065412D01*
X0159331Y0065412D02*
X0153952Y0065412D01*
X0153364Y0066000D02*
X0152000Y0066000D01*
X0152000Y0062000D01*
X0156000Y0062000D01*
X0156000Y0063364D01*
X0153364Y0066000D01*
X0152000Y0065412D02*
X0151000Y0065412D01*
X0151000Y0066000D02*
X0149636Y0066000D01*
X0147000Y0063364D01*
X0147000Y0062000D01*
X0151000Y0062000D01*
X0151000Y0066000D01*
X0149048Y0065412D02*
X0143669Y0065412D01*
X0143281Y0065800D02*
X0139719Y0065800D01*
X0137200Y0063281D01*
X0137200Y0059719D01*
X0139719Y0057200D01*
X0143281Y0057200D01*
X0145800Y0059719D01*
X0145800Y0063281D01*
X0143281Y0065800D01*
X0144667Y0064414D02*
X0148050Y0064414D01*
X0147051Y0063415D02*
X0145666Y0063415D01*
X0145800Y0062417D02*
X0147000Y0062417D01*
X0147000Y0061000D02*
X0147000Y0059636D01*
X0149636Y0057000D01*
X0151000Y0057000D01*
X0151000Y0061000D01*
X0152000Y0061000D01*
X0152000Y0062000D01*
X0151000Y0062000D01*
X0151000Y0061000D01*
X0147000Y0061000D01*
X0147000Y0060420D02*
X0145800Y0060420D01*
X0145800Y0061418D02*
X0151000Y0061418D01*
X0151000Y0060420D02*
X0152000Y0060420D01*
X0152000Y0061000D02*
X0152000Y0057000D01*
X0153364Y0057000D01*
X0156000Y0059636D01*
X0156000Y0061000D01*
X0152000Y0061000D01*
X0152000Y0061418D02*
X0157200Y0061418D01*
X0157200Y0060420D02*
X0156000Y0060420D01*
X0155785Y0059421D02*
X0157498Y0059421D01*
X0158496Y0058423D02*
X0154787Y0058423D01*
X0153788Y0057424D02*
X0159495Y0057424D01*
X0159346Y0055427D02*
X0153937Y0055427D01*
X0153364Y0056000D02*
X0152000Y0056000D01*
X0152000Y0052000D01*
X0156000Y0052000D01*
X0156000Y0053364D01*
X0153364Y0056000D01*
X0152000Y0055427D02*
X0151000Y0055427D01*
X0151000Y0056000D02*
X0149636Y0056000D01*
X0147000Y0053364D01*
X0147000Y0052000D01*
X0151000Y0052000D01*
X0151000Y0056000D01*
X0149063Y0055427D02*
X0143654Y0055427D01*
X0144653Y0054429D02*
X0148065Y0054429D01*
X0147066Y0053430D02*
X0145651Y0053430D01*
X0145800Y0052432D02*
X0147000Y0052432D01*
X0147000Y0051000D02*
X0147000Y0049636D01*
X0149636Y0047000D01*
X0151000Y0047000D01*
X0151000Y0051000D01*
X0152000Y0051000D01*
X0152000Y0052000D01*
X0151000Y0052000D01*
X0151000Y0051000D01*
X0147000Y0051000D01*
X0147000Y0050434D02*
X0145800Y0050434D01*
X0145800Y0051433D02*
X0151000Y0051433D01*
X0151000Y0050434D02*
X0152000Y0050434D01*
X0152000Y0051000D02*
X0152000Y0047000D01*
X0153364Y0047000D01*
X0156000Y0049636D01*
X0156000Y0051000D01*
X0152000Y0051000D01*
X0152000Y0051433D02*
X0157200Y0051433D01*
X0157200Y0050434D02*
X0156000Y0050434D01*
X0155800Y0049436D02*
X0157483Y0049436D01*
X0158481Y0048437D02*
X0154801Y0048437D01*
X0153803Y0047439D02*
X0159480Y0047439D01*
X0159361Y0045442D02*
X0153922Y0045442D01*
X0153364Y0046000D02*
X0152000Y0046000D01*
X0152000Y0042000D01*
X0156000Y0042000D01*
X0156000Y0043364D01*
X0153364Y0046000D01*
X0152000Y0045442D02*
X0151000Y0045442D01*
X0151000Y0046000D02*
X0149636Y0046000D01*
X0147000Y0043364D01*
X0147000Y0042000D01*
X0151000Y0042000D01*
X0151000Y0046000D01*
X0149078Y0045442D02*
X0143639Y0045442D01*
X0144638Y0044443D02*
X0148079Y0044443D01*
X0147081Y0043445D02*
X0145636Y0043445D01*
X0145800Y0042446D02*
X0147000Y0042446D01*
X0147000Y0041000D02*
X0147000Y0039636D01*
X0149636Y0037000D01*
X0151000Y0037000D01*
X0151000Y0041000D01*
X0152000Y0041000D01*
X0152000Y0042000D01*
X0151000Y0042000D01*
X0151000Y0041000D01*
X0147000Y0041000D01*
X0147000Y0040449D02*
X0145800Y0040449D01*
X0145800Y0041448D02*
X0151000Y0041448D01*
X0151000Y0040449D02*
X0152000Y0040449D01*
X0152000Y0041000D02*
X0152000Y0037000D01*
X0153364Y0037000D01*
X0156000Y0039636D01*
X0156000Y0041000D01*
X0152000Y0041000D01*
X0152000Y0041448D02*
X0157200Y0041448D01*
X0157200Y0040449D02*
X0156000Y0040449D01*
X0155815Y0039451D02*
X0157468Y0039451D01*
X0158467Y0038452D02*
X0154816Y0038452D01*
X0153818Y0037454D02*
X0159465Y0037454D01*
X0159376Y0035457D02*
X0153907Y0035457D01*
X0153364Y0036000D02*
X0152000Y0036000D01*
X0152000Y0032000D01*
X0156000Y0032000D01*
X0156000Y0033364D01*
X0153364Y0036000D01*
X0152000Y0035457D02*
X0151000Y0035457D01*
X0151000Y0036000D02*
X0149636Y0036000D01*
X0147000Y0033364D01*
X0147000Y0032000D01*
X0151000Y0032000D01*
X0151000Y0036000D01*
X0149093Y0035457D02*
X0143624Y0035457D01*
X0144623Y0034458D02*
X0148094Y0034458D01*
X0147096Y0033460D02*
X0145621Y0033460D01*
X0145800Y0032461D02*
X0147000Y0032461D01*
X0147000Y0031000D02*
X0147000Y0029636D01*
X0149636Y0027000D01*
X0151000Y0027000D01*
X0151000Y0031000D01*
X0152000Y0031000D01*
X0152000Y0032000D01*
X0151000Y0032000D01*
X0151000Y0031000D01*
X0147000Y0031000D01*
X0147000Y0030464D02*
X0145800Y0030464D01*
X0145800Y0031463D02*
X0151000Y0031463D01*
X0151000Y0030464D02*
X0152000Y0030464D01*
X0152000Y0031000D02*
X0152000Y0027000D01*
X0153364Y0027000D01*
X0156000Y0029636D01*
X0156000Y0031000D01*
X0152000Y0031000D01*
X0152000Y0031463D02*
X0157200Y0031463D01*
X0157200Y0030464D02*
X0156000Y0030464D01*
X0155830Y0029466D02*
X0157453Y0029466D01*
X0158452Y0028467D02*
X0154831Y0028467D01*
X0153833Y0027469D02*
X0159450Y0027469D01*
X0159391Y0025472D02*
X0153892Y0025472D01*
X0153364Y0026000D02*
X0152000Y0026000D01*
X0152000Y0022000D01*
X0156000Y0022000D01*
X0156000Y0023364D01*
X0153364Y0026000D01*
X0152000Y0025472D02*
X0151000Y0025472D01*
X0151000Y0026000D02*
X0149636Y0026000D01*
X0147000Y0023364D01*
X0147000Y0022000D01*
X0151000Y0022000D01*
X0151000Y0026000D01*
X0149108Y0025472D02*
X0143609Y0025472D01*
X0144608Y0024473D02*
X0148109Y0024473D01*
X0147111Y0023475D02*
X0145606Y0023475D01*
X0145800Y0022476D02*
X0147000Y0022476D01*
X0147000Y0021000D02*
X0147000Y0019636D01*
X0149636Y0017000D01*
X0151000Y0017000D01*
X0151000Y0021000D01*
X0152000Y0021000D01*
X0152000Y0022000D01*
X0151000Y0022000D01*
X0151000Y0021000D01*
X0147000Y0021000D01*
X0147000Y0020479D02*
X0145800Y0020479D01*
X0145800Y0021478D02*
X0151000Y0021478D01*
X0151000Y0020479D02*
X0152000Y0020479D01*
X0152000Y0021000D02*
X0152000Y0017000D01*
X0153364Y0017000D01*
X0156000Y0019636D01*
X0156000Y0021000D01*
X0152000Y0021000D01*
X0152000Y0021478D02*
X0157200Y0021478D01*
X0157200Y0020479D02*
X0156000Y0020479D01*
X0155845Y0019481D02*
X0157438Y0019481D01*
X0158437Y0018482D02*
X0154846Y0018482D01*
X0153848Y0017484D02*
X0159435Y0017484D01*
X0152000Y0017484D02*
X0151000Y0017484D01*
X0151000Y0018482D02*
X0152000Y0018482D01*
X0152000Y0019481D02*
X0151000Y0019481D01*
X0148154Y0018482D02*
X0144563Y0018482D01*
X0143565Y0017484D02*
X0149152Y0017484D01*
X0147155Y0019481D02*
X0145562Y0019481D01*
X0151000Y0022476D02*
X0152000Y0022476D01*
X0152000Y0023475D02*
X0151000Y0023475D01*
X0151000Y0024473D02*
X0152000Y0024473D01*
X0154891Y0024473D02*
X0158392Y0024473D01*
X0157394Y0023475D02*
X0155889Y0023475D01*
X0156000Y0022476D02*
X0157200Y0022476D01*
X0152000Y0027469D02*
X0151000Y0027469D01*
X0151000Y0028467D02*
X0152000Y0028467D01*
X0152000Y0029466D02*
X0151000Y0029466D01*
X0148169Y0028467D02*
X0144548Y0028467D01*
X0143550Y0027469D02*
X0149167Y0027469D01*
X0147170Y0029466D02*
X0145547Y0029466D01*
X0151000Y0032461D02*
X0152000Y0032461D01*
X0152000Y0033460D02*
X0151000Y0033460D01*
X0151000Y0034458D02*
X0152000Y0034458D01*
X0154906Y0034458D02*
X0158377Y0034458D01*
X0157379Y0033460D02*
X0155904Y0033460D01*
X0156000Y0032461D02*
X0157200Y0032461D01*
X0152000Y0037454D02*
X0151000Y0037454D01*
X0151000Y0038452D02*
X0152000Y0038452D01*
X0152000Y0039451D02*
X0151000Y0039451D01*
X0148184Y0038452D02*
X0144533Y0038452D01*
X0143535Y0037454D02*
X0149182Y0037454D01*
X0147185Y0039451D02*
X0145532Y0039451D01*
X0151000Y0042446D02*
X0152000Y0042446D01*
X0152000Y0043445D02*
X0151000Y0043445D01*
X0151000Y0044443D02*
X0152000Y0044443D01*
X0154921Y0044443D02*
X0158362Y0044443D01*
X0157364Y0043445D02*
X0155919Y0043445D01*
X0156000Y0042446D02*
X0157200Y0042446D01*
X0152000Y0047439D02*
X0151000Y0047439D01*
X0151000Y0048437D02*
X0152000Y0048437D01*
X0152000Y0049436D02*
X0151000Y0049436D01*
X0148199Y0048437D02*
X0144519Y0048437D01*
X0143520Y0047439D02*
X0149197Y0047439D01*
X0147200Y0049436D02*
X0145517Y0049436D01*
X0151000Y0052432D02*
X0152000Y0052432D01*
X0152000Y0053430D02*
X0151000Y0053430D01*
X0151000Y0054429D02*
X0152000Y0054429D01*
X0154935Y0054429D02*
X0158347Y0054429D01*
X0157349Y0053430D02*
X0155934Y0053430D01*
X0156000Y0052432D02*
X0157200Y0052432D01*
X0152000Y0057424D02*
X0151000Y0057424D01*
X0151000Y0058423D02*
X0152000Y0058423D01*
X0152000Y0059421D02*
X0151000Y0059421D01*
X0148213Y0058423D02*
X0144504Y0058423D01*
X0145502Y0059421D02*
X0147215Y0059421D01*
X0149212Y0057424D02*
X0143505Y0057424D01*
X0139495Y0057424D02*
X0083505Y0057424D01*
X0084504Y0058423D02*
X0138496Y0058423D01*
X0137498Y0059421D02*
X0085502Y0059421D01*
X0085800Y0060420D02*
X0137200Y0060420D01*
X0137200Y0061418D02*
X0085800Y0061418D01*
X0085800Y0062417D02*
X0137200Y0062417D01*
X0137334Y0063415D02*
X0085666Y0063415D01*
X0084667Y0064414D02*
X0138333Y0064414D01*
X0139331Y0065412D02*
X0083669Y0065412D01*
X0072000Y0064414D02*
X0071000Y0064414D01*
X0071000Y0063415D02*
X0072000Y0063415D01*
X0072000Y0062417D02*
X0071000Y0062417D01*
X0067000Y0062417D02*
X0065800Y0062417D01*
X0065666Y0063415D02*
X0067051Y0063415D01*
X0068050Y0064414D02*
X0064667Y0064414D01*
X0029331Y0065412D02*
X0023952Y0065412D01*
X0024950Y0064414D02*
X0028333Y0064414D01*
X0027334Y0063415D02*
X0025949Y0063415D01*
X0026000Y0062417D02*
X0027200Y0062417D01*
X0022000Y0062417D02*
X0021000Y0062417D01*
X0021000Y0063415D02*
X0022000Y0063415D01*
X0022000Y0064414D02*
X0021000Y0064414D01*
X0021000Y0065412D02*
X0022000Y0065412D01*
X0019048Y0065412D02*
X0003000Y0065412D01*
X0003000Y0064414D02*
X0018050Y0064414D01*
X0017051Y0063415D02*
X0003000Y0063415D01*
X0003000Y0062417D02*
X0017000Y0062417D01*
X0021000Y0061418D02*
X0003000Y0061418D01*
X0003000Y0056426D02*
X0220559Y0056426D01*
X0220550Y0055427D02*
X0203937Y0055427D01*
X0203364Y0056000D02*
X0202000Y0056000D01*
X0202000Y0052000D01*
X0201000Y0052000D01*
X0201000Y0056000D01*
X0199636Y0056000D01*
X0197000Y0053364D01*
X0197000Y0052000D01*
X0201000Y0052000D01*
X0201000Y0051000D01*
X0197000Y0051000D01*
X0197000Y0049636D01*
X0199636Y0047000D01*
X0201000Y0047000D01*
X0201000Y0051000D01*
X0202000Y0051000D01*
X0202000Y0052000D01*
X0206000Y0052000D01*
X0206000Y0053364D01*
X0203364Y0056000D01*
X0203364Y0057000D02*
X0202000Y0057000D01*
X0202000Y0061000D01*
X0202000Y0062000D01*
X0201000Y0062000D01*
X0201000Y0066000D01*
X0199636Y0066000D01*
X0197000Y0063364D01*
X0197000Y0062000D01*
X0201000Y0062000D01*
X0201000Y0061000D01*
X0197000Y0061000D01*
X0197000Y0059636D01*
X0199636Y0057000D01*
X0201000Y0057000D01*
X0201000Y0061000D01*
X0202000Y0061000D01*
X0206000Y0061000D01*
X0206000Y0059636D01*
X0203364Y0057000D01*
X0203788Y0057424D02*
X0220568Y0057424D01*
X0220576Y0058423D02*
X0204787Y0058423D01*
X0205785Y0059421D02*
X0220585Y0059421D01*
X0220594Y0060420D02*
X0206000Y0060420D01*
X0206000Y0062000D02*
X0202000Y0062000D01*
X0202000Y0066000D01*
X0203364Y0066000D01*
X0206000Y0063364D01*
X0206000Y0062000D01*
X0206000Y0062417D02*
X0220611Y0062417D01*
X0220620Y0063415D02*
X0205949Y0063415D01*
X0204950Y0064414D02*
X0220628Y0064414D01*
X0220637Y0065412D02*
X0203952Y0065412D01*
X0202000Y0065412D02*
X0201000Y0065412D01*
X0201000Y0064414D02*
X0202000Y0064414D01*
X0202000Y0063415D02*
X0201000Y0063415D01*
X0201000Y0062417D02*
X0202000Y0062417D01*
X0202000Y0061418D02*
X0220602Y0061418D01*
X0220646Y0066411D02*
X0003000Y0066411D01*
X0003000Y0067409D02*
X0220654Y0067409D01*
X0220663Y0068408D02*
X0003000Y0068408D01*
X0003000Y0069406D02*
X0220672Y0069406D01*
X0220680Y0070405D02*
X0003000Y0070405D01*
X0003000Y0071403D02*
X0220689Y0071403D01*
X0220698Y0072402D02*
X0003071Y0072402D01*
X0003292Y0073400D02*
X0220650Y0073400D01*
X0220446Y0074399D02*
X0003616Y0074399D01*
X0003963Y0075397D02*
X0220121Y0075397D01*
X0219649Y0076396D02*
X0004688Y0076396D01*
X0005414Y0077394D02*
X0218924Y0077394D01*
X0217847Y0078393D02*
X0006731Y0078393D01*
X0008706Y0079391D02*
X0216106Y0079391D01*
X0199048Y0065412D02*
X0193669Y0065412D01*
X0194667Y0064414D02*
X0198050Y0064414D01*
X0197051Y0063415D02*
X0195666Y0063415D01*
X0195800Y0062417D02*
X0197000Y0062417D01*
X0195800Y0061418D02*
X0201000Y0061418D01*
X0201000Y0060420D02*
X0202000Y0060420D01*
X0202000Y0059421D02*
X0201000Y0059421D01*
X0201000Y0058423D02*
X0202000Y0058423D01*
X0202000Y0057424D02*
X0201000Y0057424D01*
X0199212Y0057424D02*
X0193505Y0057424D01*
X0194504Y0058423D02*
X0198213Y0058423D01*
X0197215Y0059421D02*
X0195502Y0059421D01*
X0195800Y0060420D02*
X0197000Y0060420D01*
X0199063Y0055427D02*
X0193654Y0055427D01*
X0194653Y0054429D02*
X0198065Y0054429D01*
X0197066Y0053430D02*
X0195651Y0053430D01*
X0195800Y0052432D02*
X0197000Y0052432D01*
X0195800Y0051433D02*
X0201000Y0051433D01*
X0201000Y0050434D02*
X0202000Y0050434D01*
X0202000Y0051000D02*
X0202000Y0047000D01*
X0203364Y0047000D01*
X0206000Y0049636D01*
X0206000Y0051000D01*
X0202000Y0051000D01*
X0202000Y0051433D02*
X0220515Y0051433D01*
X0220507Y0050434D02*
X0206000Y0050434D01*
X0205800Y0049436D02*
X0220498Y0049436D01*
X0220489Y0048437D02*
X0204801Y0048437D01*
X0203803Y0047439D02*
X0220481Y0047439D01*
X0220524Y0052432D02*
X0206000Y0052432D01*
X0205934Y0053430D02*
X0220533Y0053430D01*
X0220541Y0054429D02*
X0204935Y0054429D01*
X0202000Y0054429D02*
X0201000Y0054429D01*
X0201000Y0055427D02*
X0202000Y0055427D01*
X0202000Y0053430D02*
X0201000Y0053430D01*
X0201000Y0052432D02*
X0202000Y0052432D01*
X0197000Y0050434D02*
X0195800Y0050434D01*
X0195517Y0049436D02*
X0197200Y0049436D01*
X0198199Y0048437D02*
X0194519Y0048437D01*
X0193520Y0047439D02*
X0199197Y0047439D01*
X0201000Y0047439D02*
X0202000Y0047439D01*
X0202000Y0048437D02*
X0201000Y0048437D01*
X0201000Y0049436D02*
X0202000Y0049436D01*
X0199078Y0045442D02*
X0193639Y0045442D01*
X0194638Y0044443D02*
X0198079Y0044443D01*
X0197081Y0043445D02*
X0195636Y0043445D01*
X0195800Y0042446D02*
X0197000Y0042446D01*
X0195800Y0041448D02*
X0201000Y0041448D01*
X0201000Y0040449D02*
X0202000Y0040449D01*
X0202000Y0039451D02*
X0201000Y0039451D01*
X0201000Y0038452D02*
X0202000Y0038452D01*
X0202000Y0037454D02*
X0201000Y0037454D01*
X0199182Y0037454D02*
X0193535Y0037454D01*
X0194533Y0038452D02*
X0198184Y0038452D01*
X0197185Y0039451D02*
X0195532Y0039451D01*
X0195800Y0040449D02*
X0197000Y0040449D01*
X0199093Y0035457D02*
X0193624Y0035457D01*
X0194623Y0034458D02*
X0198094Y0034458D01*
X0197096Y0033460D02*
X0195621Y0033460D01*
X0195800Y0032461D02*
X0197000Y0032461D01*
X0195800Y0031463D02*
X0201000Y0031463D01*
X0201000Y0030464D02*
X0202000Y0030464D01*
X0202000Y0031000D02*
X0202000Y0027000D01*
X0203364Y0027000D01*
X0206000Y0029636D01*
X0206000Y0031000D01*
X0202000Y0031000D01*
X0202000Y0031463D02*
X0220342Y0031463D01*
X0220333Y0030464D02*
X0206000Y0030464D01*
X0205830Y0029466D02*
X0220325Y0029466D01*
X0220316Y0028467D02*
X0204831Y0028467D01*
X0203833Y0027469D02*
X0220307Y0027469D01*
X0220281Y0024473D02*
X0204891Y0024473D01*
X0205889Y0023475D02*
X0220273Y0023475D01*
X0220264Y0022476D02*
X0206000Y0022476D01*
X0199108Y0025472D02*
X0193609Y0025472D01*
X0194608Y0024473D02*
X0198109Y0024473D01*
X0197111Y0023475D02*
X0195606Y0023475D01*
X0195800Y0022476D02*
X0197000Y0022476D01*
X0199167Y0027469D02*
X0193550Y0027469D01*
X0194548Y0028467D02*
X0198169Y0028467D01*
X0197170Y0029466D02*
X0195547Y0029466D01*
X0195800Y0030464D02*
X0197000Y0030464D01*
X0201000Y0029466D02*
X0202000Y0029466D01*
X0202000Y0028467D02*
X0201000Y0028467D01*
X0201000Y0027469D02*
X0202000Y0027469D01*
X0202000Y0032461D02*
X0201000Y0032461D01*
X0201000Y0033460D02*
X0202000Y0033460D01*
X0202000Y0034458D02*
X0201000Y0034458D01*
X0201000Y0035457D02*
X0202000Y0035457D01*
X0204906Y0034458D02*
X0220368Y0034458D01*
X0220359Y0033460D02*
X0205904Y0033460D01*
X0206000Y0032461D02*
X0220351Y0032461D01*
X0157200Y0062417D02*
X0156000Y0062417D01*
X0155949Y0063415D02*
X0157334Y0063415D01*
X0158333Y0064414D02*
X0154950Y0064414D01*
X0152000Y0064414D02*
X0151000Y0064414D01*
X0151000Y0063415D02*
X0152000Y0063415D01*
X0152000Y0062417D02*
X0151000Y0062417D01*
X0121842Y0026470D02*
X0120843Y0026470D01*
X0120843Y0025472D02*
X0121842Y0025472D01*
X0079435Y0017484D02*
X0073848Y0017484D01*
X0074846Y0018482D02*
X0078437Y0018482D01*
X0077438Y0019481D02*
X0075845Y0019481D01*
X0022000Y0042446D02*
X0021000Y0042446D01*
X0021000Y0043445D02*
X0022000Y0043445D01*
X0022000Y0044443D02*
X0021000Y0044443D01*
X0021000Y0045442D02*
X0022000Y0045442D01*
X0022000Y0057424D02*
X0021000Y0057424D01*
X0021000Y0058423D02*
X0022000Y0058423D01*
X0022000Y0059421D02*
X0021000Y0059421D01*
M02*
